<svg width="1109" height="200" viewBox="0 0 1109 200" fill="none" xmlns="http://www.w3.org/2000/svg">
<path d="M5.21728 195.795C1.92328 195.795 0.00178122 193.873 0.825281 190.305L48.0393 7.7624C48.8628 4.74291 50.5098 3.64491 53.5293 3.64491H140.271C143.291 3.64491 144.938 4.74291 145.761 7.7624L192.701 190.305C193.524 193.873 191.603 195.795 188.309 195.795H121.605C118.586 195.795 116.939 194.148 116.39 191.403L110.625 164.502H82.6263L76.8618 191.403C76.3128 194.148 74.6658 195.795 71.6463 195.795H5.21728ZM87.2928 119.209H105.959L99.3708 81.8774L97.9983 70.6229H95.2533L93.8808 81.8774L87.2928 119.209ZM201.532 195.795C198.512 195.795 196.591 193.873 196.591 190.854V8.58591C196.591 5.56642 198.512 3.64491 201.532 3.64491H264.118C267.137 3.64491 269.059 5.56642 269.059 8.58591V129.915H323.135C326.155 129.915 328.076 131.836 328.076 134.856V190.854C328.076 193.873 326.155 195.795 323.135 195.795H201.532ZM334.682 195.795C331.388 195.795 329.466 193.873 330.29 190.305L377.504 7.7624C378.327 4.74291 379.974 3.64491 382.994 3.64491H469.736C472.755 3.64491 474.402 4.74291 475.226 7.7624L522.165 190.305C522.989 193.873 521.067 195.795 517.773 195.795H451.07C448.05 195.795 446.403 194.148 445.854 191.403L440.09 164.502H412.091L406.326 191.403C405.777 194.148 404.13 195.795 401.111 195.795H334.682ZM416.757 119.209H435.423L428.835 81.8774L427.463 70.6229H424.718L423.345 81.8774L416.757 119.209ZM732.677 146.54C732.677 174.38 717.075 199.16 668.432 199.16C623.155 199.16 601.128 188.147 596.845 139.504H583.384V195.795H526.175V124.207H602.657C606.94 136.139 615.506 141.339 631.415 141.339C648.241 141.339 656.501 136.445 656.501 124.207C656.501 113.806 651.606 108.605 630.191 108.605C615.812 108.605 600.516 109.217 583.995 109.217C539.636 109.217 527.093 84.1305 527.093 54.4553C527.093 24.1682 544.531 -0.000287296 588.279 -0.000287296C628.049 -0.000287296 648.853 13.4606 654.971 63.0213H667.82V3.05901H725.947V78.3178H649.465C644.876 61.4917 636.31 58.7383 619.177 58.7383C601.128 58.7383 596.539 65.7747 596.539 75.5644C596.539 85.0483 603.575 90.555 626.214 90.555C630.191 90.555 658.031 89.6372 672.103 89.6372C723.194 89.6372 732.677 112.888 732.677 146.54ZM746.557 195.795C743.538 195.795 741.616 193.873 741.616 190.854V8.58591C741.616 5.56642 743.538 3.64491 746.557 3.64491H808.594C811.614 3.64491 813.535 5.56642 813.535 8.58591V28.3499C813.535 39.8789 812.986 49.7609 812.163 61.5644L814.359 61.8389C817.378 52.7804 823.966 36.5849 828.084 28.3499L838.515 7.21341C839.613 4.74291 841.534 3.64491 844.279 3.64491H908.787C912.63 3.64491 914.002 5.84091 912.081 9.40942L875.847 76.3874L922.786 190.03C924.159 193.324 922.512 195.795 918.943 195.795H851.965C849.22 195.795 847.573 194.422 846.475 191.952L821.221 124.974L813.81 135.679L814.359 190.854C814.359 193.873 812.437 195.795 809.418 195.795H746.557ZM919.767 195.795V195.183C929.251 182.64 939.958 150.517 950.36 115.947C934.146 110.135 923.132 103.404 923.132 89.6372C923.132 81.3771 928.027 74.0348 938.429 74.0348C946.995 74.0348 953.725 80.1534 953.725 89.3313C953.725 98.8151 948.83 104.934 938.429 104.934C934.146 104.934 930.168 103.404 927.721 101.263C932.616 106.769 942.1 108.605 952.501 108.911C959.538 84.1305 966.574 58.7383 972.387 38.241C974.834 30.2868 976.364 23.8623 976.364 18.6614C976.364 10.7073 972.693 6.11832 963.821 3.67088V3.05901H1065.39V3.67088C1058.96 5.20053 1054.99 11.0132 1054.99 22.3326C1054.99 28.7571 1056.21 36.7113 1058.66 46.807C1067.84 83.5186 1078.54 119.924 1090.78 156.024C1096.9 174.38 1102.1 187.229 1108.83 195.183V195.795H1027.15V195.183C1039.08 192.124 1043.67 185.699 1043.67 175.298C1043.67 170.709 1042.75 165.508 1041.22 159.083C1038.77 148.07 1013.99 138.28 987.071 129.102C984.624 138.586 982.177 148.682 979.423 159.083C978.199 165.202 977.282 170.403 977.282 174.992C977.282 185.699 981.565 191.818 993.496 195.183V195.795H919.767ZM992.884 107.993C1011.24 109.523 1028.98 119.312 1042.14 155.718H1042.75C1032.65 115.947 1024.09 76.7881 1014.3 43.4418H1013.08C1006.65 62.1035 999.92 83.5186 992.884 107.993Z" fill="#000000"/>
</svg>
