<svg width="2547" height="237" viewBox="0 0 2547 237" fill="none" xmlns="http://www.w3.org/2000/svg">
<path d="M42.9234 220.875C39.9041 220.875 38.2572 219.228 37.7082 216.483L0.104029 34.2265C-0.444937 30.9327 1.20196 28.7368 4.49576 28.7368H70.0972C73.1165 28.7368 75.0379 30.3837 75.3124 33.403L82.7234 85.8293C84.3704 98.181 85.1938 111.082 86.0173 123.433H88.2131C89.5855 111.082 90.9579 98.181 92.8793 85.8293L101.114 33.1285C101.663 30.1092 103.584 28.7368 106.603 28.7368H155.736C158.755 28.7368 160.402 30.3837 160.951 33.403L168.637 85.8293C170.558 98.181 172.479 111.082 173.852 123.433H176.048C176.871 111.082 177.695 98.181 179.342 85.8293L186.753 33.403C187.027 30.3837 188.948 28.7368 191.968 28.7368H256.746C260.04 28.7368 261.686 30.9327 261.138 34.2265L224.082 216.483C223.533 219.228 221.886 220.875 218.867 220.875H152.442C149.423 220.875 147.776 219.228 147.227 216.483L137.071 169.272C134.601 158.018 133.228 146.765 131.307 135.511H129.66C127.739 146.765 126.366 158.293 124.17 169.547L114.563 216.483C114.015 219.228 112.368 220.875 109.348 220.875H42.9234Z" fill="white"/>
<path d="M42.9234 220.875C39.9041 220.875 38.2572 219.228 37.7082 216.483L0.104029 34.2265C-0.444937 30.9327 1.20196 28.7368 4.49576 28.7368H70.0972C73.1165 28.7368 75.0379 30.3837 75.3124 33.403L82.7234 85.8293C84.3704 98.181 85.1938 111.082 86.0173 123.433H88.2131C89.5855 111.082 90.9579 98.181 92.8793 85.8293L101.114 33.1285C101.663 30.1092 103.584 28.7368 106.603 28.7368H155.736C158.755 28.7368 160.402 30.3837 160.951 33.403L168.637 85.8293C170.558 98.181 172.479 111.082 173.852 123.433H176.048C176.871 111.082 177.695 98.181 179.342 85.8293L186.753 33.403C187.027 30.3837 188.948 28.7368 191.968 28.7368H256.746C260.04 28.7368 261.686 30.9327 261.138 34.2265L224.082 216.483C223.533 219.228 221.886 220.875 218.867 220.875H152.442C149.423 220.875 147.776 219.228 147.227 216.483L137.071 169.272C134.601 158.018 133.228 146.765 131.307 135.511H129.66C127.739 146.765 126.366 158.293 124.17 169.547L114.563 216.483C114.015 219.228 112.368 220.875 109.348 220.875H42.9234Z" fill="#000000"/>
<path d="M251.702 220.875C248.408 220.875 246.487 218.954 247.31 215.385L294.522 32.8541C295.345 29.8347 296.992 28.7368 300.011 28.7368H386.748C389.767 28.7368 391.414 29.8347 392.237 32.8541L439.174 215.385C439.998 218.954 438.076 220.875 434.782 220.875H368.083C365.064 220.875 363.417 219.228 362.868 216.483L357.104 189.584H329.106L323.342 216.483C322.793 219.228 321.146 220.875 318.127 220.875H251.702ZM333.773 144.294H352.437L345.85 106.965L344.477 95.7107H341.733L340.36 106.965L333.773 144.294Z" fill="white"/>
<path d="M251.702 220.875C248.408 220.875 246.487 218.954 247.31 215.385L294.522 32.8541C295.345 29.8347 296.992 28.7368 300.011 28.7368H386.748C389.767 28.7368 391.414 29.8347 392.237 32.8541L439.174 215.385C439.998 218.954 438.076 220.875 434.782 220.875H368.083C365.064 220.875 363.417 219.228 362.868 216.483L357.104 189.584H329.106L323.342 216.483C322.793 219.228 321.146 220.875 318.127 220.875H251.702ZM333.773 144.294H352.437L345.85 106.965L344.477 95.7107H341.733L340.36 106.965L333.773 144.294Z" fill="#000000"/>
<path d="M523.106 224.718C486.325 224.718 445.427 207.7 442.408 155.274C442.133 151.98 444.055 150.058 447.074 150.058H506.362C509.931 150.058 512.127 152.254 512.127 155.274C512.401 162.136 515.146 167.351 523.38 167.351C528.87 167.351 531.889 163.508 532.164 159.116C531.889 147.588 518.165 147.039 496.481 143.196C467.111 137.981 442.957 122.061 443.231 85.8293C442.957 46.5782 476.444 22.6982 519.263 22.6982C549.182 22.6982 593.099 36.4223 595.295 86.9272C595.295 90.221 593.374 92.1424 590.354 92.1424H535.183C531.889 92.1424 530.242 90.221 529.968 87.2017C529.694 82.261 528.321 76.4969 520.361 76.4969C515.969 76.4969 512.95 79.2417 512.95 83.6334C512.95 93.7893 526.674 93.7893 548.084 99.0045C577.728 106.141 601.608 122.61 601.883 159.116C602.157 204.132 564.827 224.718 523.106 224.718Z" fill="white"/>
<path d="M523.106 224.718C486.325 224.718 445.427 207.7 442.408 155.274C442.133 151.98 444.055 150.058 447.074 150.058H506.362C509.931 150.058 512.127 152.254 512.127 155.274C512.401 162.136 515.146 167.351 523.38 167.351C528.87 167.351 531.889 163.508 532.164 159.116C531.889 147.588 518.165 147.039 496.481 143.196C467.111 137.981 442.957 122.061 443.231 85.8293C442.957 46.5782 476.444 22.6982 519.263 22.6982C549.182 22.6982 593.099 36.4223 595.295 86.9272C595.295 90.221 593.374 92.1424 590.354 92.1424H535.183C531.889 92.1424 530.242 90.221 529.968 87.2017C529.694 82.261 528.321 76.4969 520.361 76.4969C515.969 76.4969 512.95 79.2417 512.95 83.6334C512.95 93.7893 526.674 93.7893 548.084 99.0045C577.728 106.141 601.608 122.61 601.883 159.116C602.157 204.132 564.827 224.718 523.106 224.718Z" fill="#000000"/>
<path d="M773.294 144.087V132.767H703.542V144.087C703.542 161.219 704.153 162.136 726.18 162.136V220.875H622.47V162.136C644.191 162.136 645.109 161.219 645.109 144.087V104.622C645.109 87.4895 644.191 86.5717 622.47 86.5717V28.1391H726.18V86.5717C704.153 86.5717 703.542 87.4895 703.542 104.622V114.717H773.294V104.622C773.294 87.4895 772.682 86.5717 750.655 86.5717V28.1391H854.365V86.5717C832.644 86.5717 831.726 87.4895 831.726 104.622V144.087C831.726 161.219 832.644 162.136 854.365 162.136V220.875H750.655V162.136C772.682 162.136 773.294 161.219 773.294 144.087Z" fill="white"/>
<path d="M773.294 144.087V132.767H703.542V144.087C703.542 161.219 704.153 162.136 726.18 162.136V220.875H622.47V162.136C644.191 162.136 645.109 161.219 645.109 144.087V104.622C645.109 87.4895 644.191 86.5717 622.47 86.5717V28.1391H726.18V86.5717C704.153 86.5717 703.542 87.4895 703.542 104.622V114.717H773.294V104.622C773.294 87.4895 772.682 86.5717 750.655 86.5717V28.1391H854.365V86.5717C832.644 86.5717 831.726 87.4895 831.726 104.622V144.087C831.726 161.219 832.644 162.136 854.365 162.136V220.875H750.655V162.136C772.682 162.136 773.294 161.219 773.294 144.087Z" fill="#000000"/>
<path d="M886.686 220.875C883.667 220.875 881.745 218.954 881.745 215.934V33.6775C881.745 30.6582 883.667 28.7368 886.686 28.7368H949.268C952.287 28.7368 954.209 30.6582 954.209 33.6775V215.934C954.209 218.954 952.287 220.875 949.268 220.875H886.686Z" fill="white"/>
<path d="M886.686 220.875C883.667 220.875 881.745 218.954 881.745 215.934V33.6775C881.745 30.6582 883.667 28.7368 886.686 28.7368H949.268C952.287 28.7368 954.209 30.6582 954.209 33.6775V215.934C954.209 218.954 952.287 220.875 949.268 220.875H886.686Z" fill="#000000"/>
<path d="M1142.63 180.12C1144.91 189.24 1157.45 191.52 1163.15 200.64C1164 203.205 1161.72 205.2 1159.16 207.48C1150.04 214.32 1143.48 221.445 1135.79 228.855C1133.51 230.565 1131.23 232.56 1127.52 231.42C1113.56 224.58 1106.15 210.615 1097.03 198.36C1093.61 194.94 1100.16 190.095 1101.59 185.82C1103.58 159.6 1097.88 132.24 1099.31 105.735C1099.31 93.765 1106.15 82.08 1112.7 70.68C1115.27 64.695 1115.27 58.14 1108.43 58.14C1102.73 57.285 1097.03 58.14 1090.19 58.14C1088.76 58.14 1085.34 59.28 1085.34 61.56C1081.92 82.935 1084.49 103.74 1084.49 123.975C1084.49 132.24 1085.34 140.22 1084.49 148.485C1084.49 171 1087.91 194.085 1084.49 216.6C1083.35 216.6 1079.64 217.455 1079.64 215.46C1076.22 162.735 1079.64 112.005 1076.22 59.28C1067.96 49.02 1053.71 50.16 1042.31 50.16C1039.74 50.16 1037.75 53.295 1037.75 55.575C1037.75 71.535 1048.86 86.64 1046.87 102.885C1046.87 110.295 1048.01 119.415 1044.59 127.68C1042.31 133.38 1038.89 137.655 1036.32 144.495C1031.48 155.895 1020.65 162.735 1013.24 173.28C1012.38 176.7 1010.39 180.12 1012.38 183.255C1024.07 194.085 1039.74 192.375 1054.56 194.94C1055.99 196.08 1057.98 197.22 1057.13 199.215C1046.87 214.32 1033.19 222.3 1022.36 235.695C1021.5 237.12 1018.08 234.84 1017.23 234.84C1003.26 223.44 985.878 222.3 971.628 213.18C973.908 204.06 983.883 201.495 988.443 194.085C993.003 184.965 1001.27 178.98 1004.12 169.86C1006.68 162.735 1008.96 155.895 1008.96 149.34C1013.24 114.855 998.988 84.645 980.748 54.72C979.323 51.015 980.748 48.165 981.603 44.175C993.003 25.935 1008.11 9.12 1027.2 0C1028.63 0 1028.63 2.565 1028.63 3.42001C1015.8 14.535 1026.35 28.215 1031.48 39.9C1033.19 41.895 1036.32 43.32 1038.89 41.895C1055.99 32.775 1067.96 15.96 1086.2 9.97501C1101.59 18.24 1116.12 23.655 1133.51 25.935C1139.21 27.36 1144.91 28.215 1150.04 25.935C1154.03 25.08 1159.16 25.935 1159.16 29.925C1160.87 39.9 1149.47 44.175 1145.76 54.72C1140.35 73.815 1140.35 93.765 1138.07 114C1136.64 123.975 1140.92 134.52 1138.07 145.92C1135.79 157.605 1139.21 168.72 1142.63 180.12Z" fill="white"/>
<path d="M1142.63 180.12C1144.91 189.24 1157.45 191.52 1163.15 200.64C1164 203.205 1161.72 205.2 1159.16 207.48C1150.04 214.32 1143.48 221.445 1135.79 228.855C1133.51 230.565 1131.23 232.56 1127.52 231.42C1113.56 224.58 1106.15 210.615 1097.03 198.36C1093.61 194.94 1100.16 190.095 1101.59 185.82C1103.58 159.6 1097.88 132.24 1099.31 105.735C1099.31 93.765 1106.15 82.08 1112.7 70.68C1115.27 64.695 1115.27 58.14 1108.43 58.14C1102.73 57.285 1097.03 58.14 1090.19 58.14C1088.76 58.14 1085.34 59.28 1085.34 61.56C1081.92 82.935 1084.49 103.74 1084.49 123.975C1084.49 132.24 1085.34 140.22 1084.49 148.485C1084.49 171 1087.91 194.085 1084.49 216.6C1083.35 216.6 1079.64 217.455 1079.64 215.46C1076.22 162.735 1079.64 112.005 1076.22 59.28C1067.96 49.02 1053.71 50.16 1042.31 50.16C1039.74 50.16 1037.75 53.295 1037.75 55.575C1037.75 71.535 1048.86 86.64 1046.87 102.885C1046.87 110.295 1048.01 119.415 1044.59 127.68C1042.31 133.38 1038.89 137.655 1036.32 144.495C1031.48 155.895 1020.65 162.735 1013.24 173.28C1012.38 176.7 1010.39 180.12 1012.38 183.255C1024.07 194.085 1039.74 192.375 1054.56 194.94C1055.99 196.08 1057.98 197.22 1057.13 199.215C1046.87 214.32 1033.19 222.3 1022.36 235.695C1021.5 237.12 1018.08 234.84 1017.23 234.84C1003.26 223.44 985.878 222.3 971.628 213.18C973.908 204.06 983.883 201.495 988.443 194.085C993.003 184.965 1001.27 178.98 1004.12 169.86C1006.68 162.735 1008.96 155.895 1008.96 149.34C1013.24 114.855 998.988 84.645 980.748 54.72C979.323 51.015 980.748 48.165 981.603 44.175C993.003 25.935 1008.11 9.12 1027.2 0C1028.63 0 1028.63 2.565 1028.63 3.42001C1015.8 14.535 1026.35 28.215 1031.48 39.9C1033.19 41.895 1036.32 43.32 1038.89 41.895C1055.99 32.775 1067.96 15.96 1086.2 9.97501C1101.59 18.24 1116.12 23.655 1133.51 25.935C1139.21 27.36 1144.91 28.215 1150.04 25.935C1154.03 25.08 1159.16 25.935 1159.16 29.925C1160.87 39.9 1149.47 44.175 1145.76 54.72C1140.35 73.815 1140.35 93.765 1138.07 114C1136.64 123.975 1140.92 134.52 1138.07 145.92C1135.79 157.605 1139.21 168.72 1142.63 180.12Z" fill="#000000"/>
<path d="M1261.36 223.345C1215.79 224.169 1169.68 190.407 1169.68 126.453C1169.68 66.341 1210.3 23.7961 1269.87 23.7961C1314.06 23.7961 1354.68 49.3231 1363.19 100.926C1363.74 104.22 1362.09 106.141 1358.8 106.141H1295.12C1292.92 106.141 1291.55 105.318 1289.9 103.122C1286.06 98.4555 1279.75 96.2597 1272.88 96.2597C1258.61 96.2597 1245.44 106.69 1245.44 127.825C1245.44 148.686 1257.79 159.94 1275.63 159.94C1286.06 159.94 1295.12 156.646 1298.69 150.607V149.784L1276.18 150.058C1273.16 150.058 1271.24 148.137 1271.24 145.118V120.689C1271.24 117.669 1273.16 115.748 1276.18 115.748H1359.07C1362.09 115.748 1364.01 117.669 1364.01 120.689V215.934C1364.01 218.954 1362.09 220.875 1359.07 220.875H1319.55C1316.8 220.875 1314.88 219.777 1313.78 217.307L1309.94 209.621H1308.84C1296.49 221.149 1278.37 223.345 1261.36 223.345Z" fill="white"/>
<path d="M1261.36 223.345C1215.79 224.169 1169.68 190.407 1169.68 126.453C1169.68 66.341 1210.3 23.7961 1269.87 23.7961C1314.06 23.7961 1354.68 49.3231 1363.19 100.926C1363.74 104.22 1362.09 106.141 1358.8 106.141H1295.12C1292.92 106.141 1291.55 105.318 1289.9 103.122C1286.06 98.4555 1279.75 96.2597 1272.88 96.2597C1258.61 96.2597 1245.44 106.69 1245.44 127.825C1245.44 148.686 1257.79 159.94 1275.63 159.94C1286.06 159.94 1295.12 156.646 1298.69 150.607V149.784L1276.18 150.058C1273.16 150.058 1271.24 148.137 1271.24 145.118V120.689C1271.24 117.669 1273.16 115.748 1276.18 115.748H1359.07C1362.09 115.748 1364.01 117.669 1364.01 120.689V215.934C1364.01 218.954 1362.09 220.875 1359.07 220.875H1319.55C1316.8 220.875 1314.88 219.777 1313.78 217.307L1309.94 209.621H1308.84C1296.49 221.149 1278.37 223.345 1261.36 223.345Z" fill="#000000"/>
<path d="M1418.56 220.875C1415.54 220.875 1413.62 218.954 1413.62 215.934V94.6128H1378.21C1375.19 94.6128 1373.27 92.6914 1373.27 89.6721V33.6775C1373.27 30.6582 1375.19 28.7368 1378.21 28.7368H1521.77C1524.79 28.7368 1526.71 30.6582 1526.71 33.6775V89.6721C1526.71 92.6914 1524.79 94.6128 1521.77 94.6128H1486.08V215.934C1486.08 218.954 1484.16 220.875 1481.14 220.875H1418.56Z" fill="white"/>
<path d="M1418.56 220.875C1415.54 220.875 1413.62 218.954 1413.62 215.934V94.6128H1378.21C1375.19 94.6128 1373.27 92.6914 1373.27 89.6721V33.6775C1373.27 30.6582 1375.19 28.7368 1378.21 28.7368H1521.77C1524.79 28.7368 1526.71 30.6582 1526.71 33.6775V89.6721C1526.71 92.6914 1524.79 94.6128 1521.77 94.6128H1486.08V215.934C1486.08 218.954 1484.16 220.875 1481.14 220.875H1418.56Z" fill="#000000"/>
<path d="M1639.05 225.541C1578.39 225.541 1535.02 179.428 1535.02 124.531C1535.02 69.6348 1578.39 23.7961 1639.05 23.7961C1699.44 23.7961 1743.08 69.6348 1743.08 124.531C1743.08 179.428 1699.44 225.541 1639.05 225.541ZM1639.05 150.882C1654.97 150.882 1666.77 138.805 1666.77 124.531C1666.77 110.258 1654.97 98.181 1639.05 98.181C1623.13 98.181 1611.33 110.258 1611.33 124.531C1611.33 138.805 1623.13 150.882 1639.05 150.882Z" fill="white"/>
<path d="M1639.05 225.541C1578.39 225.541 1535.02 179.428 1535.02 124.531C1535.02 69.6348 1578.39 23.7961 1639.05 23.7961C1699.44 23.7961 1743.08 69.6348 1743.08 124.531C1743.08 179.428 1699.44 225.541 1639.05 225.541ZM1639.05 150.882C1654.97 150.882 1666.77 138.805 1666.77 124.531C1666.77 110.258 1654.97 98.181 1639.05 98.181C1623.13 98.181 1611.33 110.258 1611.33 124.531C1611.33 138.805 1623.13 150.882 1639.05 150.882Z" fill="#000000"/>
<path d="M1755.6 220.875V220.263C1762.94 210.779 1764.16 200.072 1764.47 184.469C1764.77 164.278 1765.08 144.393 1765.08 124.507C1765.08 104.316 1764.77 84.4302 1764.47 64.5448C1764.16 43.7415 1762.33 37.9289 1755.6 28.751V28.1391H1829.63C1840.95 50.1661 1856.25 79.2294 1872.77 109.516C1872.46 94.22 1872.15 79.5353 1871.85 64.5448C1870.93 43.7415 1867.87 37.9289 1854.41 28.751V28.1391H1925.08V28.751C1918.04 37.9289 1916.51 43.7415 1916.21 64.5448C1915.9 84.4302 1915.6 104.316 1915.6 124.507C1915.6 144.393 1915.9 164.278 1916.21 184.469C1916.21 200.072 1917.74 210.779 1925.08 220.263V220.875H1867.26V220.263C1870.32 212.921 1871.54 204.967 1871.85 194.259C1853.19 158.465 1830.24 117.165 1808.52 78.3116C1807.91 96.3615 1808.22 114.717 1808.22 135.521C1808.52 147.452 1808.52 160.301 1808.52 174.068C1808.52 213.227 1823.21 220.263 1836.97 218.734C1825.35 215.98 1818.01 207.108 1818.01 196.095C1818.01 183.552 1826.88 174.374 1839.73 174.374C1850.13 174.374 1861.14 180.798 1861.14 195.483C1861.14 205.884 1855.94 220.875 1826.88 220.875H1755.6Z" fill="white"/>
<path d="M1755.6 220.875V220.263C1762.94 210.779 1764.16 200.072 1764.47 184.469C1764.77 164.278 1765.08 144.393 1765.08 124.507C1765.08 104.316 1764.77 84.4302 1764.47 64.5448C1764.16 43.7415 1762.33 37.9289 1755.6 28.751V28.1391H1829.63C1840.95 50.1661 1856.25 79.2294 1872.77 109.516C1872.46 94.22 1872.15 79.5353 1871.85 64.5448C1870.93 43.7415 1867.87 37.9289 1854.41 28.751V28.1391H1925.08V28.751C1918.04 37.9289 1916.51 43.7415 1916.21 64.5448C1915.9 84.4302 1915.6 104.316 1915.6 124.507C1915.6 144.393 1915.9 164.278 1916.21 184.469C1916.21 200.072 1917.74 210.779 1925.08 220.263V220.875H1867.26V220.263C1870.32 212.921 1871.54 204.967 1871.85 194.259C1853.19 158.465 1830.24 117.165 1808.52 78.3116C1807.91 96.3615 1808.22 114.717 1808.22 135.521C1808.52 147.452 1808.52 160.301 1808.52 174.068C1808.52 213.227 1823.21 220.263 1836.97 218.734C1825.35 215.98 1818.01 207.108 1818.01 196.095C1818.01 183.552 1826.88 174.374 1839.73 174.374C1850.13 174.374 1861.14 180.798 1861.14 195.483C1861.14 205.884 1855.94 220.875 1826.88 220.875H1755.6Z" fill="#000000"/>
<path d="M2006.67 220.875C2003.65 220.875 2001.73 218.954 2001.73 215.934V33.6775C2001.73 30.6582 2003.65 28.7368 2006.67 28.7368H2089.84C2135.67 28.7368 2179.32 67.1645 2179.32 123.708C2179.32 179.977 2135.67 220.875 2089.84 220.875H2006.67ZM2084.62 152.529C2098.34 152.529 2109.05 141 2109.05 123.708C2109.05 106.141 2098.34 96.8086 2084.62 96.8086H2073.64V152.529H2084.62Z" fill="white"/>
<path d="M2006.67 220.875C2003.65 220.875 2001.73 218.954 2001.73 215.934V33.6775C2001.73 30.6582 2003.65 28.7368 2006.67 28.7368H2089.84C2135.67 28.7368 2179.32 67.1645 2179.32 123.708C2179.32 179.977 2135.67 220.875 2089.84 220.875H2006.67ZM2084.62 152.529C2098.34 152.529 2109.05 141 2109.05 123.708C2109.05 106.141 2098.34 96.8086 2084.62 96.8086H2073.64V152.529H2084.62Z" fill="#000000"/>
<path d="M2223.33 225.816C2203.29 226.09 2188.74 210.994 2188.74 193.152C2188.74 175.036 2204.39 160.214 2223.6 159.94C2244.19 160.214 2257.91 175.585 2257.91 193.152C2257.91 210.994 2243.91 226.09 2223.33 225.816Z" fill="white"/>
<path d="M2223.33 225.816C2203.29 226.09 2188.74 210.994 2188.74 193.152C2188.74 175.036 2204.39 160.214 2223.6 159.94C2244.19 160.214 2257.91 175.585 2257.91 193.152C2257.91 210.994 2243.91 226.09 2223.33 225.816Z" fill="#000000"/>
<path d="M2366.58 225.267C2309.21 225.267 2267.22 181.075 2267.22 124.806C2267.22 68.5369 2308.94 24.3451 2366.58 24.3451C2421.2 24.3451 2459.08 57.832 2464.57 110.258C2465.12 113.552 2463.2 115.473 2459.9 115.473H2397.32C2394.58 115.473 2392.66 114.101 2391.56 111.356C2388.54 104.769 2382.23 98.4555 2370.7 98.4555C2356.15 98.4555 2346.27 110.533 2346.27 124.806C2346.27 139.628 2356.15 151.156 2370.7 151.156C2382.23 151.156 2388.54 144.569 2391.56 137.981C2392.66 135.236 2394.58 133.864 2397.32 133.864H2459.36C2462.65 133.864 2464.57 135.511 2464.3 138.805C2460.18 191.231 2421.48 225.267 2366.58 225.267Z" fill="white"/>
<path d="M2366.58 225.267C2309.21 225.267 2267.22 181.075 2267.22 124.806C2267.22 68.5369 2308.94 24.3451 2366.58 24.3451C2421.2 24.3451 2459.08 57.832 2464.57 110.258C2465.12 113.552 2463.2 115.473 2459.9 115.473H2397.32C2394.58 115.473 2392.66 114.101 2391.56 111.356C2388.54 104.769 2382.23 98.4555 2370.7 98.4555C2356.15 98.4555 2346.27 110.533 2346.27 124.806C2346.27 139.628 2356.15 151.156 2370.7 151.156C2382.23 151.156 2388.54 144.569 2391.56 137.981C2392.66 135.236 2394.58 133.864 2397.32 133.864H2459.36C2462.65 133.864 2464.57 135.511 2464.3 138.805C2460.18 191.231 2421.48 225.267 2366.58 225.267Z" fill="#000000"/>
<path d="M2511.74 225.816C2491.7 226.09 2477.15 210.994 2477.15 193.152C2477.15 175.036 2492.8 160.214 2512.01 159.94C2532.6 160.214 2546.32 175.585 2546.32 193.152C2546.32 210.994 2532.33 226.09 2511.74 225.816Z" fill="white"/>
<path d="M2511.74 225.816C2491.7 226.09 2477.15 210.994 2477.15 193.152C2477.15 175.036 2492.8 160.214 2512.01 159.94C2532.6 160.214 2546.32 175.585 2546.32 193.152C2546.32 210.994 2532.33 226.09 2511.74 225.816Z" fill="#000000"/>
</svg>
