<svg width="1540" height="229" viewBox="0 0 1540 229" fill="none" xmlns="http://www.w3.org/2000/svg">
<path d="M4.9407 209.96C1.92138 209.96 0 208.039 0 205.019V22.7625C0 19.7432 1.92138 17.8218 4.9407 17.8218H88.1091C133.948 17.8218 177.591 56.2495 177.591 112.793C177.591 169.062 133.948 209.96 88.1091 209.96H4.9407ZM82.8939 141.614C96.6181 141.614 107.323 130.085 107.323 112.793C107.323 95.2261 96.6181 85.8936 82.8939 85.8936H71.9146V141.614H82.8939Z" fill="white"/>
<path d="M4.9407 209.96C1.92138 209.96 0 208.039 0 205.019V22.7625C0 19.7432 1.92138 17.8218 4.9407 17.8218H88.1091C133.948 17.8218 177.591 56.2495 177.591 112.793C177.591 169.062 133.948 209.96 88.1091 209.96H4.9407ZM82.8939 141.614C96.6181 141.614 107.323 130.085 107.323 112.793C107.323 95.2261 96.6181 85.8936 82.8939 85.8936H71.9146V141.614H82.8939Z" fill="#000000"/>
<path d="M350.039 89.9C353.809 88.16 358.449 89.9 360.769 92.8C360.769 94.25 360.769 96.57 360.769 97.44C352.069 106.72 351.489 118.61 340.759 124.41C331.479 131.37 312.919 116 308.279 127.89C302.769 142.97 308.279 160.08 305.669 177.77C317.559 191.98 339.889 187.92 352.069 174.29C354.679 171.68 356.999 176.61 355.839 180.09C349.169 197.2 338.439 213.73 324.229 226.49C321.329 229.1 316.689 229.1 312.919 227.36C276.959 214.89 239.839 201.26 200.689 205.61C196.919 206.48 192.279 202.13 193.439 197.2C194.309 194.01 196.919 191.98 199.239 187.92C203.589 178.64 202.719 168.49 203.589 158.05C206.199 138.33 202.719 119.77 202.719 100.05C202.719 88.16 199.239 78.88 191.409 71.34C185.029 62.93 196.919 55.68 202.719 51.04C212.869 46.4 221.279 39.44 231.429 34.22C233.169 34.22 235.199 34.22 236.359 34.22C247.089 76.56 235.199 119.77 237.809 162.4C237.809 169.36 249.119 169.36 249.989 162.4C258.399 133.69 254.919 104.4 253.759 75.69C253.759 64.09 252.599 53.65 249.989 41.76C267.679 27.84 285.079 16.53 301.319 0C302.769 0 305.089 0 305.669 0C309.439 2.32 310.599 7.24999 314.369 9.28C326.839 17.69 339.889 22.33 350.039 32.48C353.809 36.25 356.999 40.89 355.839 43.5C351.489 53.65 339.889 60.32 329.159 64.09C322.199 66.41 314.369 47.85 308.279 57.13C305.089 64.96 307.409 74.24 307.409 82.65C308.279 92.8 318.719 89.9 326.839 91.93C330.609 91.93 332.929 90.77 336.119 89.9C340.759 88.16 345.399 91.93 350.039 89.9ZM296.389 173.42C296.389 158.05 298.129 142.97 296.389 127.89C296.389 124.41 293.489 122.96 290.879 127.02C286.529 134.56 289.719 142.97 289.719 150.8C288.849 153.12 287.109 155.73 285.079 156.89C276.959 159.21 266.519 159.21 263.039 167.33C261.879 170.81 266.519 171.68 267.679 173.42C276.959 174.29 284.209 180.09 293.489 177.77C294.359 176.61 296.389 175.45 296.389 173.42ZM296.389 74.24C298.129 64.96 301.319 53.65 295.809 45.53C294.359 44.37 290.879 46.4 289.719 47.85C288.849 51.04 286.529 54.81 287.109 59.45C289.719 68.73 285.079 82.65 294.359 87.29C298.129 89.9 296.099 78.88 296.389 74.24Z" fill="white"/>
<path d="M350.039 89.9C353.809 88.16 358.449 89.9 360.769 92.8C360.769 94.25 360.769 96.57 360.769 97.44C352.069 106.72 351.489 118.61 340.759 124.41C331.479 131.37 312.919 116 308.279 127.89C302.769 142.97 308.279 160.08 305.669 177.77C317.559 191.98 339.889 187.92 352.069 174.29C354.679 171.68 356.999 176.61 355.839 180.09C349.169 197.2 338.439 213.73 324.229 226.49C321.329 229.1 316.689 229.1 312.919 227.36C276.959 214.89 239.839 201.26 200.689 205.61C196.919 206.48 192.279 202.13 193.439 197.2C194.309 194.01 196.919 191.98 199.239 187.92C203.589 178.64 202.719 168.49 203.589 158.05C206.199 138.33 202.719 119.77 202.719 100.05C202.719 88.16 199.239 78.88 191.409 71.34C185.029 62.93 196.919 55.68 202.719 51.04C212.869 46.4 221.279 39.44 231.429 34.22C233.169 34.22 235.199 34.22 236.359 34.22C247.089 76.56 235.199 119.77 237.809 162.4C237.809 169.36 249.119 169.36 249.989 162.4C258.399 133.69 254.919 104.4 253.759 75.69C253.759 64.09 252.599 53.65 249.989 41.76C267.679 27.84 285.079 16.53 301.319 0C302.769 0 305.089 0 305.669 0C309.439 2.32 310.599 7.24999 314.369 9.28C326.839 17.69 339.889 22.33 350.039 32.48C353.809 36.25 356.999 40.89 355.839 43.5C351.489 53.65 339.889 60.32 329.159 64.09C322.199 66.41 314.369 47.85 308.279 57.13C305.089 64.96 307.409 74.24 307.409 82.65C308.279 92.8 318.719 89.9 326.839 91.93C330.609 91.93 332.929 90.77 336.119 89.9C340.759 88.16 345.399 91.93 350.039 89.9ZM296.389 173.42C296.389 158.05 298.129 142.97 296.389 127.89C296.389 124.41 293.489 122.96 290.879 127.02C286.529 134.56 289.719 142.97 289.719 150.8C288.849 153.12 287.109 155.73 285.079 156.89C276.959 159.21 266.519 159.21 263.039 167.33C261.879 170.81 266.519 171.68 267.679 173.42C276.959 174.29 284.209 180.09 293.489 177.77C294.359 176.61 296.389 175.45 296.389 173.42ZM296.389 74.24C298.129 64.96 301.319 53.65 295.809 45.53C294.359 44.37 290.879 46.4 289.719 47.85C288.849 51.04 286.529 54.81 287.109 59.45C289.719 68.73 285.079 82.65 294.359 87.29C298.129 89.9 296.099 78.88 296.389 74.24Z" fill="#000000"/>
<path d="M383.563 209.96C380.544 209.96 378.622 208.039 378.622 205.019V22.7625C378.622 19.7432 380.544 17.8218 383.563 17.8218H446.145C449.164 17.8218 451.086 19.7432 451.086 22.7625V144.084H505.159C508.178 144.084 510.1 146.005 510.1 149.025V205.019C510.1 208.039 508.178 209.96 505.159 209.96H383.563Z" fill="white"/>
<path d="M383.563 209.96C380.544 209.96 378.622 208.039 378.622 205.019V22.7625C378.622 19.7432 380.544 17.8218 383.563 17.8218H446.145C449.164 17.8218 451.086 19.7432 451.086 22.7625V144.084H505.159C508.178 144.084 510.1 146.005 510.1 149.025V205.019C510.1 208.039 508.178 209.96 505.159 209.96H383.563Z" fill="#000000"/>
<path d="M527.684 209.96C524.39 209.96 522.469 208.039 523.292 204.47L570.503 21.9391C571.326 18.9197 572.973 17.8218 575.993 17.8218H662.729C665.749 17.8218 667.396 18.9197 668.219 21.9391L715.156 204.47C715.979 208.039 714.058 209.96 710.764 209.96H644.065C641.045 209.96 639.398 208.313 638.849 205.568L633.085 178.669H605.088L599.324 205.568C598.775 208.313 597.128 209.96 594.109 209.96H527.684ZM609.754 133.379H628.419L621.831 96.0495L620.459 84.7957H617.714L616.342 96.0495L609.754 133.379Z" fill="white"/>
<path d="M527.684 209.96C524.39 209.96 522.469 208.039 523.292 204.47L570.503 21.9391C571.326 18.9197 572.973 17.8218 575.993 17.8218H662.729C665.749 17.8218 667.396 18.9197 668.219 21.9391L715.156 204.47C715.979 208.039 714.058 209.96 710.764 209.96H644.065C641.045 209.96 639.398 208.313 638.849 205.568L633.085 178.669H605.088L599.324 205.568C598.775 208.313 597.128 209.96 594.109 209.96H527.684ZM609.754 133.379H628.419L621.831 96.0495L620.459 84.7957H617.714L616.342 96.0495L609.754 133.379Z" fill="#000000"/>
<path d="M881.903 209.96L867.525 166.824H859.57L840.909 209.96H768.709L729.244 90.9532C725.267 78.716 720.372 76.2686 715.477 75.6567V17.2241H810.316V75.6567C790.736 75.9627 784.312 83.9168 784.312 93.7066C784.312 103.802 790.124 109.003 799.914 115.122L854.064 148.774L860.182 144.185L842.438 90.9532C838.155 79.022 833.566 76.2686 828.671 75.6567V17.2241H926.569V75.6567C906.99 75.9627 900.259 83.9168 900.259 93.7066C900.259 101.355 904.236 107.779 910.967 115.122L951.961 160.399C959.304 135.313 963.587 120.017 963.587 105.638C963.587 90.6473 958.998 79.022 944.925 75.6567V17.2241H1015.29V75.6567C1005.19 79.9398 999.38 89.1177 989.285 116.651L954.715 209.96H881.903Z" fill="white"/>
<path d="M881.903 209.96L867.525 166.824H859.57L840.909 209.96H768.709L729.244 90.9532C725.267 78.716 720.372 76.2686 715.477 75.6567V17.2241H810.316V75.6567C790.736 75.9627 784.312 83.9168 784.312 93.7066C784.312 103.802 790.124 109.003 799.914 115.122L854.064 148.774L860.182 144.185L842.438 90.9532C838.155 79.022 833.566 76.2686 828.671 75.6567V17.2241H926.569V75.6567C906.99 75.9627 900.259 83.9168 900.259 93.7066C900.259 101.355 904.236 107.779 910.967 115.122L951.961 160.399C959.304 135.313 963.587 120.017 963.587 105.638C963.587 90.6473 958.998 79.022 944.925 75.6567V17.2241H1015.29V75.6567C1005.19 79.9398 999.38 89.1177 989.285 116.651L954.715 209.96H881.903Z" fill="#000000"/>
<path d="M1017.27 209.96V209.348C1026.75 196.805 1037.46 164.682 1047.86 130.112C1031.65 124.3 1020.63 117.569 1020.63 103.802C1020.63 95.5422 1025.53 88.1999 1035.93 88.1999C1044.5 88.1999 1051.23 94.3185 1051.23 103.496C1051.23 112.98 1046.33 119.099 1035.93 119.099C1031.65 119.099 1027.67 117.569 1025.22 115.428C1030.12 120.934 1039.6 122.77 1050 123.076C1057.04 98.2956 1064.08 72.9034 1069.89 52.4061C1072.34 44.4519 1073.86 38.0273 1073.86 32.8265C1073.86 24.8724 1070.19 20.2834 1061.32 17.836V17.2241H1162.89V17.836C1156.47 19.3656 1152.49 25.1783 1152.49 36.4977C1152.49 42.9222 1153.71 50.8764 1156.16 60.9721C1165.34 97.6837 1176.05 134.089 1188.28 170.189C1194.4 188.545 1199.6 201.394 1206.33 209.348V209.96H1124.65V209.348C1136.58 206.289 1141.17 199.864 1141.17 189.463C1141.17 184.874 1140.25 179.673 1138.72 173.248C1136.27 162.235 1111.49 152.445 1084.57 143.267C1082.12 152.751 1079.68 162.847 1076.92 173.248C1075.7 179.367 1074.78 184.568 1074.78 189.157C1074.78 199.864 1079.07 205.983 1091 209.348V209.96H1017.27ZM1090.39 122.158C1108.74 123.688 1126.48 133.478 1139.64 169.883H1140.25C1130.16 130.112 1121.59 90.9532 1111.8 57.6069H1110.58C1104.15 76.2686 1097.42 97.6837 1090.39 122.158Z" fill="white"/>
<path d="M1017.27 209.96V209.348C1026.75 196.805 1037.46 164.682 1047.86 130.112C1031.65 124.3 1020.63 117.569 1020.63 103.802C1020.63 95.5422 1025.53 88.1999 1035.93 88.1999C1044.5 88.1999 1051.23 94.3185 1051.23 103.496C1051.23 112.98 1046.33 119.099 1035.93 119.099C1031.65 119.099 1027.67 117.569 1025.22 115.428C1030.12 120.934 1039.6 122.77 1050 123.076C1057.04 98.2956 1064.08 72.9034 1069.89 52.4061C1072.34 44.4519 1073.86 38.0273 1073.86 32.8265C1073.86 24.8724 1070.19 20.2834 1061.32 17.836V17.2241H1162.89V17.836C1156.47 19.3656 1152.49 25.1783 1152.49 36.4977C1152.49 42.9222 1153.71 50.8764 1156.16 60.9721C1165.34 97.6837 1176.05 134.089 1188.28 170.189C1194.4 188.545 1199.6 201.394 1206.33 209.348V209.96H1124.65V209.348C1136.58 206.289 1141.17 199.864 1141.17 189.463C1141.17 184.874 1140.25 179.673 1138.72 173.248C1136.27 162.235 1111.49 152.445 1084.57 143.267C1082.12 152.751 1079.68 162.847 1076.92 173.248C1075.7 179.367 1074.78 184.568 1074.78 189.157C1074.78 199.864 1079.07 205.983 1091 209.348V209.96H1017.27ZM1090.39 122.158C1108.74 123.688 1126.48 133.478 1139.64 169.883H1140.25C1130.16 130.112 1121.59 90.9532 1111.8 57.6069H1110.58C1104.15 76.2686 1097.42 97.6837 1090.39 122.158Z" fill="#000000"/>
<path d="M1220.18 209.96C1217.16 209.96 1215.24 208.039 1215.24 205.019V22.7625C1215.24 19.7432 1217.16 17.8218 1220.18 17.8218H1313.78C1355.5 17.8218 1381.58 45.2701 1381.58 79.855C1381.58 101.814 1373.62 117.459 1357.42 129.262L1391.46 204.196C1393.11 207.49 1391.46 209.96 1387.89 209.96H1322.84C1320.09 209.96 1318.45 208.588 1317.35 206.117L1305 173.179L1294.29 145.456H1286.88C1287.43 154.24 1287.71 163.023 1287.71 171.532V205.019C1287.71 208.039 1285.78 209.96 1282.77 209.96H1220.18ZM1300.88 98.7943C1308.02 98.7943 1312.41 94.9516 1312.41 86.7171C1312.41 78.2081 1308.02 74.9143 1300.88 74.9143H1285.51V98.7943H1300.88Z" fill="white"/>
<path d="M1220.18 209.96C1217.16 209.96 1215.24 208.039 1215.24 205.019V22.7625C1215.24 19.7432 1217.16 17.8218 1220.18 17.8218H1313.78C1355.5 17.8218 1381.58 45.2701 1381.58 79.855C1381.58 101.814 1373.62 117.459 1357.42 129.262L1391.46 204.196C1393.11 207.49 1391.46 209.96 1387.89 209.96H1322.84C1320.09 209.96 1318.45 208.588 1317.35 206.117L1305 173.179L1294.29 145.456H1286.88C1287.43 154.24 1287.71 163.023 1287.71 171.532V205.019C1287.71 208.039 1285.78 209.96 1282.77 209.96H1220.18ZM1300.88 98.7943C1308.02 98.7943 1312.41 94.9516 1312.41 86.7171C1312.41 78.2081 1308.02 74.9143 1300.88 74.9143H1285.51V98.7943H1300.88Z" fill="#000000"/>
<path d="M1409.82 209.96C1406.8 209.96 1404.88 208.039 1404.88 205.019V22.7625C1404.88 19.7432 1406.8 17.8218 1409.82 17.8218H1533.07C1536.09 17.8218 1538.01 19.7432 1538.01 22.7625V76.0122C1538.01 79.0316 1536.09 80.9529 1533.07 80.9529H1476.52V92.4812H1513.85C1516.87 92.4812 1518.79 94.4026 1518.79 97.4219V130.634C1518.79 133.654 1516.87 135.575 1513.85 135.575H1476.52V147.927H1534.16C1537.18 147.927 1539.1 149.848 1539.1 152.868V205.019C1539.1 208.039 1537.18 209.96 1534.16 209.96H1409.82Z" fill="white"/>
<path d="M1409.82 209.96C1406.8 209.96 1404.88 208.039 1404.88 205.019V22.7625C1404.88 19.7432 1406.8 17.8218 1409.82 17.8218H1533.07C1536.09 17.8218 1538.01 19.7432 1538.01 22.7625V76.0122C1538.01 79.0316 1536.09 80.9529 1533.07 80.9529H1476.52V92.4812H1513.85C1516.87 92.4812 1518.79 94.4026 1518.79 97.4219V130.634C1518.79 133.654 1516.87 135.575 1513.85 135.575H1476.52V147.927H1534.16C1537.18 147.927 1539.1 149.848 1539.1 152.868V205.019C1539.1 208.039 1537.18 209.96 1534.16 209.96H1409.82Z" fill="#000000"/>
</svg>
