<svg width="1282" height="226" viewBox="0 0 1282 226" fill="none" xmlns="http://www.w3.org/2000/svg">
<path d="M91.6774 214.225C46.1132 215.049 0 181.287 0 117.333C0 57.221 40.6235 14.6761 100.186 14.6761C144.378 14.6761 185.002 40.2031 193.511 91.8059C194.06 95.0997 192.413 97.0211 189.119 97.0211H125.439C123.243 97.0211 121.871 96.1976 120.224 94.0017C116.381 89.3355 110.068 87.1397 103.206 87.1397C88.9325 87.1397 75.7573 97.57 75.7573 118.705C75.7573 139.566 88.1091 150.82 105.95 150.82C116.381 150.82 125.439 147.526 129.007 141.487V140.664L106.499 140.938C103.48 140.938 101.559 139.017 101.559 135.998V111.569C101.559 108.549 103.48 106.628 106.499 106.628H189.393C192.413 106.628 194.334 108.549 194.334 111.569V206.814C194.334 209.834 192.413 211.755 189.393 211.755H149.868C147.123 211.755 145.202 210.657 144.104 208.187L140.261 200.501H139.163C126.811 212.029 108.695 214.225 91.6774 214.225Z" fill="white"/>
<path d="M91.6774 214.225C46.1132 215.049 0 181.287 0 117.333C0 57.221 40.6235 14.6761 100.186 14.6761C144.378 14.6761 185.002 40.2031 193.511 91.8059C194.06 95.0997 192.413 97.0211 189.119 97.0211H125.439C123.243 97.0211 121.871 96.1976 120.224 94.0017C116.381 89.3355 110.068 87.1397 103.206 87.1397C88.9325 87.1397 75.7573 97.57 75.7573 118.705C75.7573 139.566 88.1091 150.82 105.95 150.82C116.381 150.82 125.439 147.526 129.007 141.487V140.664L106.499 140.938C103.48 140.938 101.559 139.017 101.559 135.998V111.569C101.559 108.549 103.48 106.628 106.499 106.628H189.393C192.413 106.628 194.334 108.549 194.334 111.569V206.814C194.334 209.834 192.413 211.755 189.393 211.755H149.868C147.123 211.755 145.202 210.657 144.104 208.187L140.261 200.501H139.163C126.811 212.029 108.695 214.225 91.6774 214.225Z" fill="#000000"/>
<path d="M211.193 211.755V211.143C217.312 202.883 219.759 196.764 220.065 175.349C220.677 160.359 220.677 139.556 220.677 118.14C220.677 96.7253 220.677 74.0865 220.065 55.7307C219.759 34.0097 216.394 24.8318 211.193 19.631V19.0191H360.487C360.181 29.1148 360.181 38.9046 360.181 49.918C360.181 61.2374 360.487 73.1687 361.099 86.9356H360.487C351.921 63.073 347.026 59.4019 314.292 59.4019C294.406 59.4019 279.11 59.7078 263.507 60.6256C263.201 81.1229 263.201 112.634 261.978 142.921H262.59C265.649 97.3372 280.639 77.7577 310.315 77.7577C337.542 77.7577 347.638 91.8304 347.638 114.775C347.638 141.085 332.342 160.971 307.867 160.971C292.265 160.971 283.393 153.322 283.393 139.556C283.393 129.46 289.817 120.282 302.972 120.282C313.374 120.282 321.94 127.624 321.94 139.861C321.94 145.98 318.881 157.299 306.949 159.747C325.305 157.911 333.259 145.674 333.259 135.884C333.259 118.446 321.328 110.492 301.749 110.492C281.251 110.492 265.649 120.588 264.119 144.45C263.813 148.427 263.813 152.711 263.813 157.299C263.813 161.277 263.813 165.56 264.119 170.149C280.028 171.372 295.324 171.372 315.209 171.372C349.168 171.372 352.839 168.007 361.405 143.839H362.017C361.711 156.994 361.405 169.537 361.405 182.08C361.405 193.705 361.405 202.883 361.711 211.755H211.193Z" fill="white"/>
<path d="M211.193 211.755V211.143C217.312 202.883 219.759 196.764 220.065 175.349C220.677 160.359 220.677 139.556 220.677 118.14C220.677 96.7253 220.677 74.0865 220.065 55.7307C219.759 34.0097 216.394 24.8318 211.193 19.631V19.0191H360.487C360.181 29.1148 360.181 38.9046 360.181 49.918C360.181 61.2374 360.487 73.1687 361.099 86.9356H360.487C351.921 63.073 347.026 59.4019 314.292 59.4019C294.406 59.4019 279.11 59.7078 263.507 60.6256C263.201 81.1229 263.201 112.634 261.978 142.921H262.59C265.649 97.3372 280.639 77.7577 310.315 77.7577C337.542 77.7577 347.638 91.8304 347.638 114.775C347.638 141.085 332.342 160.971 307.867 160.971C292.265 160.971 283.393 153.322 283.393 139.556C283.393 129.46 289.817 120.282 302.972 120.282C313.374 120.282 321.94 127.624 321.94 139.861C321.94 145.98 318.881 157.299 306.949 159.747C325.305 157.911 333.259 145.674 333.259 135.884C333.259 118.446 321.328 110.492 301.749 110.492C281.251 110.492 265.649 120.588 264.119 144.45C263.813 148.427 263.813 152.711 263.813 157.299C263.813 161.277 263.813 165.56 264.119 170.149C280.028 171.372 295.324 171.372 315.209 171.372C349.168 171.372 352.839 168.007 361.405 143.839H362.017C361.711 156.994 361.405 169.537 361.405 182.08C361.405 193.705 361.405 202.883 361.711 211.755H211.193Z" fill="#000000"/>
<path d="M518.896 16.815C532.861 34.2 547.111 50.16 556.231 70.68C571.336 105.735 556.231 143.64 537.991 176.7C528.871 194.94 517.756 212.325 499.516 223.44C496.381 225.72 489.256 225.72 483.271 223.44C466.456 218.88 449.071 215.46 432.541 210.615C414.301 206.34 396.061 205.2 377.821 200.64C377.821 199.215 377.821 197.22 377.821 196.08C380.671 190.095 387.796 186.96 391.216 180.975C398.056 165.015 392.071 148.485 393.496 131.1C396.061 103.74 392.071 76.38 392.071 49.02C403.471 39.045 415.156 29.925 428.551 22.8C429.976 22.8 433.396 23.655 433.396 25.935C432.541 41.04 432.541 54.72 432.541 69.255C432.541 102.885 428.551 134.52 430.831 167.58C430.831 168.72 432.541 171 434.536 171.855C461.896 176.7 487.261 186.96 514.621 185.82C518.896 185.82 522.031 180.975 524.596 176.7C532.861 155.04 528.871 131.1 521.176 109.44C514.621 88.92 505.501 67.26 485.551 52.44C481.276 50.16 478.141 53.295 476.431 57.285C476.431 70.68 476.431 84.645 478.141 98.04C478.996 109.44 481.276 121.125 478.996 132.24C475.576 142.5 459.901 143.64 450.781 151.62C448.216 152.76 445.936 151.62 444.796 150.48C437.671 142.5 443.656 133.38 442.516 125.4C441.661 104.88 443.656 85.5 443.656 64.695C443.656 54.72 443.656 45.6 444.796 35.055C461.896 23.655 478.141 9.97501 496.381 0C497.236 0 499.516 0 500.656 0C508.636 4.275 514.621 9.97501 518.896 16.815Z" fill="white"/>
<path d="M518.896 16.815C532.861 34.2 547.111 50.16 556.231 70.68C571.336 105.735 556.231 143.64 537.991 176.7C528.871 194.94 517.756 212.325 499.516 223.44C496.381 225.72 489.256 225.72 483.271 223.44C466.456 218.88 449.071 215.46 432.541 210.615C414.301 206.34 396.061 205.2 377.821 200.64C377.821 199.215 377.821 197.22 377.821 196.08C380.671 190.095 387.796 186.96 391.216 180.975C398.056 165.015 392.071 148.485 393.496 131.1C396.061 103.74 392.071 76.38 392.071 49.02C403.471 39.045 415.156 29.925 428.551 22.8C429.976 22.8 433.396 23.655 433.396 25.935C432.541 41.04 432.541 54.72 432.541 69.255C432.541 102.885 428.551 134.52 430.831 167.58C430.831 168.72 432.541 171 434.536 171.855C461.896 176.7 487.261 186.96 514.621 185.82C518.896 185.82 522.031 180.975 524.596 176.7C532.861 155.04 528.871 131.1 521.176 109.44C514.621 88.92 505.501 67.26 485.551 52.44C481.276 50.16 478.141 53.295 476.431 57.285C476.431 70.68 476.431 84.645 478.141 98.04C478.996 109.44 481.276 121.125 478.996 132.24C475.576 142.5 459.901 143.64 450.781 151.62C448.216 152.76 445.936 151.62 444.796 150.48C437.671 142.5 443.656 133.38 442.516 125.4C441.661 104.88 443.656 85.5 443.656 64.695C443.656 54.72 443.656 45.6 444.796 35.055C461.896 23.655 478.141 9.97501 496.381 0C497.236 0 499.516 0 500.656 0C508.636 4.275 514.621 9.97501 518.896 16.815Z" fill="#000000"/>
<path d="M585.041 211.755C582.021 211.755 580.1 209.834 580.1 206.814V24.5575C580.1 21.5382 582.021 19.6168 585.041 19.6168H678.639C720.361 19.6168 746.437 47.0651 746.437 81.65C746.437 103.609 738.477 119.254 722.282 131.057L756.318 205.991C757.965 209.285 756.318 211.755 752.75 211.755H687.697C684.953 211.755 683.306 210.383 682.208 207.912L669.856 174.974L659.151 147.251H651.74C652.289 156.035 652.564 164.818 652.564 173.327V206.814C652.564 209.834 650.642 211.755 647.623 211.755H585.041ZM665.739 100.589C672.875 100.589 677.267 96.7466 677.267 88.5121C677.267 80.0031 672.875 76.7093 665.739 76.7093H650.368V100.589H665.739Z" fill="white"/>
<path d="M585.041 211.755C582.021 211.755 580.1 209.834 580.1 206.814V24.5575C580.1 21.5382 582.021 19.6168 585.041 19.6168H678.639C720.361 19.6168 746.437 47.0651 746.437 81.65C746.437 103.609 738.477 119.254 722.282 131.057L756.318 205.991C757.965 209.285 756.318 211.755 752.75 211.755H687.697C684.953 211.755 683.306 210.383 682.208 207.912L669.856 174.974L659.151 147.251H651.74C652.289 156.035 652.564 164.818 652.564 173.327V206.814C652.564 209.834 650.642 211.755 647.623 211.755H585.041ZM665.739 100.589C672.875 100.589 677.267 96.7466 677.267 88.5121C677.267 80.0031 672.875 76.7093 665.739 76.7093H650.368V100.589H665.739Z" fill="#000000"/>
<path d="M851.632 214.225C806.068 215.049 759.955 181.287 759.955 117.333C759.955 57.221 800.579 14.6761 860.141 14.6761C904.333 14.6761 944.957 40.2031 953.466 91.8059C954.015 95.0997 952.368 97.0211 949.074 97.0211H885.394C883.198 97.0211 881.826 96.1976 880.179 94.0017C876.336 89.3355 870.023 87.1397 863.161 87.1397C848.888 87.1397 835.712 97.57 835.712 118.705C835.712 139.566 848.064 150.82 865.906 150.82C876.336 150.82 885.394 147.526 888.962 141.487V140.664L866.455 140.938C863.435 140.938 861.514 139.017 861.514 135.998V111.569C861.514 108.549 863.435 106.628 866.455 106.628H949.348C952.368 106.628 954.289 108.549 954.289 111.569V206.814C954.289 209.834 952.368 211.755 949.348 211.755H909.823C907.078 211.755 905.157 210.657 904.059 208.187L900.216 200.501H899.118C886.766 212.029 868.65 214.225 851.632 214.225Z" fill="white"/>
<path d="M851.632 214.225C806.068 215.049 759.955 181.287 759.955 117.333C759.955 57.221 800.579 14.6761 860.141 14.6761C904.333 14.6761 944.957 40.2031 953.466 91.8059C954.015 95.0997 952.368 97.0211 949.074 97.0211H885.394C883.198 97.0211 881.826 96.1976 880.179 94.0017C876.336 89.3355 870.023 87.1397 863.161 87.1397C848.888 87.1397 835.712 97.57 835.712 118.705C835.712 139.566 848.064 150.82 865.906 150.82C876.336 150.82 885.394 147.526 888.962 141.487V140.664L866.455 140.938C863.435 140.938 861.514 139.017 861.514 135.998V111.569C861.514 108.549 863.435 106.628 866.455 106.628H949.348C952.368 106.628 954.289 108.549 954.289 111.569V206.814C954.289 209.834 952.368 211.755 949.348 211.755H909.823C907.078 211.755 905.157 210.657 904.059 208.187L900.216 200.501H899.118C886.766 212.029 868.65 214.225 851.632 214.225Z" fill="#000000"/>
<path d="M982.28 211.755C979.261 211.755 977.339 209.834 977.339 206.814V24.5575C977.339 21.5382 979.261 19.6168 982.28 19.6168H1044.86C1047.88 19.6168 1049.8 21.5382 1049.8 24.5575V206.814C1049.8 209.834 1047.88 211.755 1044.86 211.755H982.28Z" fill="white"/>
<path d="M982.28 211.755C979.261 211.755 977.339 209.834 977.339 206.814V24.5575C977.339 21.5382 979.261 19.6168 982.28 19.6168H1044.86C1047.88 19.6168 1049.8 21.5382 1049.8 24.5575V206.814C1049.8 209.834 1047.88 211.755 1044.86 211.755H982.28Z" fill="#000000"/>
<path d="M1157.37 156.076V211.755H1068.65V153.016C1081.2 149.345 1102.61 129.154 1113.01 104.985C1115.46 99.1728 1116.99 94.5838 1116.99 87.2415C1116.99 82.0407 1113.93 76.5339 1105.67 76.5339H1091.91V19.0191H1232.02V61.8493C1232.02 79.5932 1242.73 98.5609 1249.15 109.268L1261.7 129.766C1271.18 145.368 1276.38 151.487 1281.28 153.016V211.755H1178.79V156.076C1189.19 156.076 1193.17 151.487 1193.17 145.368C1193.17 141.391 1191.33 137.414 1189.8 134.661L1187.05 130.378H1126.48C1128.62 141.697 1137.8 152.711 1157.37 156.076ZM1132.9 102.232C1130.15 106.515 1128.31 111.104 1127.09 115.387H1178.18L1151.87 72.2509L1132.9 102.232Z" fill="white"/>
<path d="M1157.37 156.076V211.755H1068.65V153.016C1081.2 149.345 1102.61 129.154 1113.01 104.985C1115.46 99.1728 1116.99 94.5838 1116.99 87.2415C1116.99 82.0407 1113.93 76.5339 1105.67 76.5339H1091.91V19.0191H1232.02V61.8493C1232.02 79.5932 1242.73 98.5609 1249.15 109.268L1261.7 129.766C1271.18 145.368 1276.38 151.487 1281.28 153.016V211.755H1178.79V156.076C1189.19 156.076 1193.17 151.487 1193.17 145.368C1193.17 141.391 1191.33 137.414 1189.8 134.661L1187.05 130.378H1126.48C1128.62 141.697 1137.8 152.711 1157.37 156.076ZM1132.9 102.232C1130.15 106.515 1128.31 111.104 1127.09 115.387H1178.18L1151.87 72.2509L1132.9 102.232Z" fill="#000000"/>
</svg>
