<svg width="948" height="202" viewBox="0 0 948 202" fill="none" xmlns="http://www.w3.org/2000/svg">
<path d="M4.9407 197.079C1.92138 197.079 0 195.158 0 192.138V9.8814C0 6.86209 1.92138 4.9407 4.9407 4.9407H67.5229C70.5422 4.9407 72.4635 6.86209 72.4635 9.8814V192.138C72.4635 195.158 70.5422 197.079 67.5229 197.079H4.9407Z" fill="white"/>
<path d="M4.9407 197.079C1.92138 197.079 0 195.158 0 192.138V9.8814C0 6.86209 1.92138 4.9407 4.9407 4.9407H67.5229C70.5422 4.9407 72.4635 6.86209 72.4635 9.8814V192.138C72.4635 195.158 70.5422 197.079 67.5229 197.079H4.9407Z" fill="#000000"/>
<path d="M101.031 197.079C98.0119 197.079 96.0905 195.158 96.0905 192.138V9.8814C96.0905 6.86209 98.0119 4.9407 101.031 4.9407H184.2C230.038 4.9407 273.681 43.3684 273.681 99.9119C273.681 156.181 230.038 197.079 184.2 197.079H101.031ZM178.984 128.733C192.709 128.733 203.413 117.204 203.413 99.9119C203.413 82.3449 192.709 73.0125 178.984 73.0125H168.005V128.733H178.984Z" fill="white"/>
<path d="M101.031 197.079C98.0119 197.079 96.0905 195.158 96.0905 192.138V9.8814C96.0905 6.86209 98.0119 4.9407 101.031 4.9407H184.2C230.038 4.9407 273.681 43.3684 273.681 99.9119C273.681 156.181 230.038 197.079 184.2 197.079H101.031ZM178.984 128.733C192.709 128.733 203.413 117.204 203.413 99.9119C203.413 82.3449 192.709 73.0125 178.984 73.0125H168.005V128.733H178.984Z" fill="#000000"/>
<path d="M284.405 197.079V196.467C287.668 192.184 290.932 186.065 294.195 178.111C297.662 169.953 301.129 160.673 304.597 150.272C308.064 139.666 311.531 128.653 314.998 117.231C306.84 114.172 300.212 110.807 295.113 107.135C290.218 103.26 287.77 97.8556 287.77 90.9212C287.77 86.8421 288.994 83.2729 291.442 80.2136C294.093 76.9504 297.968 75.3187 303.067 75.3187C307.35 75.3187 310.919 76.7464 313.775 79.6018C316.834 82.2532 318.363 85.9243 318.363 90.6153C318.363 95.3062 317.14 99.0793 314.692 101.935C312.245 104.79 308.37 106.218 303.067 106.218C298.784 106.218 295.215 104.994 292.359 102.547C294.807 105.402 298.172 107.339 302.455 108.359C306.942 109.379 311.837 109.991 317.14 110.195C320.607 97.7536 323.972 85.4144 327.235 73.1772C330.703 60.94 333.966 49.7226 337.025 39.5249C338.249 35.4459 339.167 31.8767 339.779 28.8174C340.594 25.5541 341.002 22.5968 341.002 19.9454C341.002 12.1952 336.821 7.19834 328.459 4.95486V4.34299H430.028V4.95486C426.765 5.77067 424.215 7.70823 422.38 10.7675C420.544 13.6229 419.626 17.9059 419.626 23.6166C419.626 29.7352 420.85 37.8933 423.297 48.091C432.475 84.8026 443.183 121.208 455.42 157.308C458.479 166.486 461.437 174.338 464.292 180.865C467.147 187.187 470.207 192.388 473.47 196.467V197.079H391.787V196.467C397.701 194.835 401.882 192.388 404.33 189.125C406.981 185.861 408.307 181.68 408.307 176.582C408.307 174.338 408.103 171.891 407.695 169.239C407.287 166.588 406.675 163.631 405.859 160.367C405.044 156.696 401.984 153.127 396.682 149.66C391.583 146.193 385.056 142.929 377.102 139.87C369.148 136.607 360.684 133.445 351.71 130.386C349.262 139.972 346.713 149.966 344.062 160.367C343.45 163.427 342.94 166.282 342.532 168.933C342.124 171.585 341.92 174.032 341.92 176.276C341.92 181.578 343.144 185.861 345.591 189.125C348.039 192.388 352.22 194.835 358.134 196.467V197.079H284.405ZM357.522 109.277C363.641 109.685 369.658 111.317 375.572 114.172C381.487 117.027 386.994 121.82 392.093 128.551C397.395 135.281 402.29 144.765 406.777 157.002H407.389C402.29 137.219 397.497 117.741 393.01 98.5694C388.523 79.3978 383.832 61.4499 378.938 44.7258H377.714C374.451 54.1076 371.085 64.2033 367.618 75.0128C364.355 85.6184 360.99 97.0398 357.522 109.277Z" fill="white"/>
<path d="M284.405 197.079V196.467C287.668 192.184 290.932 186.065 294.195 178.111C297.662 169.953 301.129 160.673 304.597 150.272C308.064 139.666 311.531 128.653 314.998 117.231C306.84 114.172 300.212 110.807 295.113 107.135C290.218 103.26 287.77 97.8556 287.77 90.9212C287.77 86.8421 288.994 83.2729 291.442 80.2136C294.093 76.9504 297.968 75.3187 303.067 75.3187C307.35 75.3187 310.919 76.7464 313.775 79.6018C316.834 82.2532 318.363 85.9243 318.363 90.6153C318.363 95.3062 317.14 99.0793 314.692 101.935C312.245 104.79 308.37 106.218 303.067 106.218C298.784 106.218 295.215 104.994 292.359 102.547C294.807 105.402 298.172 107.339 302.455 108.359C306.942 109.379 311.837 109.991 317.14 110.195C320.607 97.7536 323.972 85.4144 327.235 73.1772C330.703 60.94 333.966 49.7226 337.025 39.5249C338.249 35.4459 339.167 31.8767 339.779 28.8174C340.594 25.5541 341.002 22.5968 341.002 19.9454C341.002 12.1952 336.821 7.19834 328.459 4.95486V4.34299H430.028V4.95486C426.765 5.77067 424.215 7.70823 422.38 10.7675C420.544 13.6229 419.626 17.9059 419.626 23.6166C419.626 29.7352 420.85 37.8933 423.297 48.091C432.475 84.8026 443.183 121.208 455.42 157.308C458.479 166.486 461.437 174.338 464.292 180.865C467.147 187.187 470.207 192.388 473.47 196.467V197.079H391.787V196.467C397.701 194.835 401.882 192.388 404.33 189.125C406.981 185.861 408.307 181.68 408.307 176.582C408.307 174.338 408.103 171.891 407.695 169.239C407.287 166.588 406.675 163.631 405.859 160.367C405.044 156.696 401.984 153.127 396.682 149.66C391.583 146.193 385.056 142.929 377.102 139.87C369.148 136.607 360.684 133.445 351.71 130.386C349.262 139.972 346.713 149.966 344.062 160.367C343.45 163.427 342.94 166.282 342.532 168.933C342.124 171.585 341.92 174.032 341.92 176.276C341.92 181.578 343.144 185.861 345.591 189.125C348.039 192.388 352.22 194.835 358.134 196.467V197.079H284.405ZM357.522 109.277C363.641 109.685 369.658 111.317 375.572 114.172C381.487 117.027 386.994 121.82 392.093 128.551C397.395 135.281 402.29 144.765 406.777 157.002H407.389C402.29 137.219 397.497 117.741 393.01 98.5694C388.523 79.3978 383.832 61.4499 378.938 44.7258H377.714C374.451 54.1076 371.085 64.2033 367.618 75.0128C364.355 85.6184 360.99 97.0398 357.522 109.277Z" fill="#000000"/>
<path d="M636.383 120.29V108.971H566.63V120.29C566.63 128.857 567.65 134.057 569.69 135.893C571.729 137.525 578.256 138.34 589.269 138.34V197.079H485.559V138.34C496.369 138.34 502.793 137.525 504.833 135.893C507.076 134.057 508.198 128.857 508.198 120.29V80.8255C508.198 72.2595 507.076 67.1606 504.833 65.529C502.793 63.6934 496.369 62.7756 485.559 62.7756V4.34299H589.269V62.7756C578.256 62.7756 571.729 63.6934 569.69 65.529C567.65 67.1606 566.63 72.2595 566.63 80.8255V90.9212H636.383V80.8255C636.383 72.2595 635.363 67.1606 633.323 65.529C631.284 63.6934 624.757 62.7756 613.744 62.7756V4.34299H717.454V62.7756C706.644 62.7756 700.118 63.6934 697.874 65.529C695.835 67.1606 694.815 72.2595 694.815 80.8255V120.29C694.815 128.857 695.835 134.057 697.874 135.893C700.118 137.525 706.644 138.34 717.454 138.34V197.079H613.744V138.34C624.757 138.34 631.284 137.525 633.323 135.893C635.363 134.057 636.383 128.857 636.383 120.29Z" fill="white"/>
<path d="M636.383 120.29V108.971H566.63V120.29C566.63 128.857 567.65 134.057 569.69 135.893C571.729 137.525 578.256 138.34 589.269 138.34V197.079H485.559V138.34C496.369 138.34 502.793 137.525 504.833 135.893C507.076 134.057 508.198 128.857 508.198 120.29V80.8255C508.198 72.2595 507.076 67.1606 504.833 65.529C502.793 63.6934 496.369 62.7756 485.559 62.7756V4.34299H589.269V62.7756C578.256 62.7756 571.729 63.6934 569.69 65.529C567.65 67.1606 566.63 72.2595 566.63 80.8255V90.9212H636.383V80.8255C636.383 72.2595 635.363 67.1606 633.323 65.529C631.284 63.6934 624.757 62.7756 613.744 62.7756V4.34299H717.454V62.7756C706.644 62.7756 700.118 63.6934 697.874 65.529C695.835 67.1606 694.815 72.2595 694.815 80.8255V120.29C694.815 128.857 695.835 134.057 697.874 135.893C700.118 137.525 706.644 138.34 717.454 138.34V197.079H613.744V138.34C624.757 138.34 631.284 137.525 633.323 135.893C635.363 134.057 636.383 128.857 636.383 120.29Z" fill="#000000"/>
<path d="M843.099 201.745C782.438 201.745 739.07 155.632 739.07 100.735C739.07 45.8387 782.438 0 843.099 0C903.485 0 947.128 45.8387 947.128 100.735C947.128 155.632 903.485 201.745 843.099 201.745ZM843.099 127.086C859.019 127.086 870.822 115.008 870.822 100.735C870.822 86.4622 859.019 74.3849 843.099 74.3849C827.179 74.3849 815.376 86.4622 815.376 100.735C815.376 115.008 827.179 127.086 843.099 127.086Z" fill="white"/>
<path d="M843.099 201.745C782.438 201.745 739.07 155.632 739.07 100.735C739.07 45.8387 782.438 0 843.099 0C903.485 0 947.128 45.8387 947.128 100.735C947.128 155.632 903.485 201.745 843.099 201.745ZM843.099 127.086C859.019 127.086 870.822 115.008 870.822 100.735C870.822 86.4622 859.019 74.3849 843.099 74.3849C827.179 74.3849 815.376 86.4622 815.376 100.735C815.376 115.008 827.179 127.086 843.099 127.086Z" fill="#000000"/>
</svg>
