<svg width="1202" height="202" viewBox="0 0 1202 202" fill="none" xmlns="http://www.w3.org/2000/svg">
<path d="M4.9407 197.079C1.92138 197.079 0 195.158 0 192.138V9.8814C0 6.86209 1.92138 4.9407 4.9407 4.9407H67.5229C70.5422 4.9407 72.4635 6.86209 72.4635 9.8814V192.138C72.4635 195.158 70.5422 197.079 67.5229 197.079H4.9407Z" fill="white"/>
<path d="M4.9407 197.079C1.92138 197.079 0 195.158 0 192.138V9.8814C0 6.86209 1.92138 4.9407 4.9407 4.9407H67.5229C70.5422 4.9407 72.4635 6.86209 72.4635 9.8814V192.138C72.4635 195.158 70.5422 197.079 67.5229 197.079H4.9407Z" fill="#000000"/>
<path d="M101.031 197.079C98.0119 197.079 96.0905 195.158 96.0905 192.138V9.8814C96.0905 6.86209 98.0119 4.9407 101.031 4.9407H163.613C166.633 4.9407 168.554 6.86209 168.554 9.8814V131.203H222.627C225.647 131.203 227.568 133.124 227.568 136.144V192.138C227.568 195.158 225.647 197.079 222.627 197.079H101.031Z" fill="white"/>
<path d="M101.031 197.079C98.0119 197.079 96.0905 195.158 96.0905 192.138V9.8814C96.0905 6.86209 98.0119 4.9407 101.031 4.9407H163.613C166.633 4.9407 168.554 6.86209 168.554 9.8814V131.203H222.627C225.647 131.203 227.568 133.124 227.568 136.144V192.138C227.568 195.158 225.647 197.079 222.627 197.079H101.031Z" fill="#000000"/>
<path d="M244.157 197.079V196.467C247.828 191.776 250.174 186.575 251.193 180.865C252.213 175.154 252.825 168.423 253.029 160.673C253.233 150.476 253.335 140.788 253.335 131.61C253.539 122.432 253.641 112.846 253.641 102.852C253.641 92.6548 253.539 82.2532 253.335 71.6476C253.335 61.042 253.233 50.7424 253.029 40.7487C253.029 33.8143 252.723 28.3075 252.111 24.2285C251.499 20.1494 250.582 16.6822 249.358 13.8268C248.134 10.9715 246.4 8.01415 244.157 4.95486V4.34299H341.749V4.95486C330.531 6.99439 321.659 9.44183 315.133 12.2972C308.606 15.1525 303.915 18.8237 301.06 23.3107C298.409 27.7976 297.083 33.7123 297.083 41.0546C296.879 48.193 296.777 57.1669 296.777 67.9764C296.777 78.582 296.777 89.9014 296.777 101.935C296.777 110.909 296.777 119.985 296.777 129.162C296.777 138.34 296.777 147.314 296.777 156.084C302.488 156.492 308.096 156.798 313.603 157.002C319.11 157.206 323.801 157.308 327.676 157.308C339.505 157.308 347.663 153.841 352.15 146.906C356.637 139.768 358.881 130.182 358.881 118.149C358.881 107.747 357.351 99.0793 354.292 92.1449C351.232 85.2105 345.828 80.9275 338.077 79.2958C342.564 81.5393 346.032 84.7006 348.479 88.7797C350.927 92.6548 352.15 96.8358 352.15 101.323C352.15 106.626 350.417 111.52 346.949 116.007C343.482 120.494 338.281 122.738 331.347 122.738C324.413 122.738 318.6 120.8 313.909 116.925C309.422 113.05 307.179 107.645 307.179 100.711C307.179 93.5726 309.422 87.9639 313.909 83.8848C318.396 79.8057 324.515 77.7662 332.265 77.7662C339.811 77.7662 346.032 79.7038 350.927 83.5789C355.821 87.454 359.493 92.6548 361.94 99.1813C364.387 105.504 365.611 112.438 365.611 119.985C365.611 136.097 365.917 150.272 366.529 162.509C367.141 174.746 368.161 186.269 369.588 197.079H244.157Z" fill="white"/>
<path d="M244.157 197.079V196.467C247.828 191.776 250.174 186.575 251.193 180.865C252.213 175.154 252.825 168.423 253.029 160.673C253.233 150.476 253.335 140.788 253.335 131.61C253.539 122.432 253.641 112.846 253.641 102.852C253.641 92.6548 253.539 82.2532 253.335 71.6476C253.335 61.042 253.233 50.7424 253.029 40.7487C253.029 33.8143 252.723 28.3075 252.111 24.2285C251.499 20.1494 250.582 16.6822 249.358 13.8268C248.134 10.9715 246.4 8.01415 244.157 4.95486V4.34299H341.749V4.95486C330.531 6.99439 321.659 9.44183 315.133 12.2972C308.606 15.1525 303.915 18.8237 301.06 23.3107C298.409 27.7976 297.083 33.7123 297.083 41.0546C296.879 48.193 296.777 57.1669 296.777 67.9764C296.777 78.582 296.777 89.9014 296.777 101.935C296.777 110.909 296.777 119.985 296.777 129.162C296.777 138.34 296.777 147.314 296.777 156.084C302.488 156.492 308.096 156.798 313.603 157.002C319.11 157.206 323.801 157.308 327.676 157.308C339.505 157.308 347.663 153.841 352.15 146.906C356.637 139.768 358.881 130.182 358.881 118.149C358.881 107.747 357.351 99.0793 354.292 92.1449C351.232 85.2105 345.828 80.9275 338.077 79.2958C342.564 81.5393 346.032 84.7006 348.479 88.7797C350.927 92.6548 352.15 96.8358 352.15 101.323C352.15 106.626 350.417 111.52 346.949 116.007C343.482 120.494 338.281 122.738 331.347 122.738C324.413 122.738 318.6 120.8 313.909 116.925C309.422 113.05 307.179 107.645 307.179 100.711C307.179 93.5726 309.422 87.9639 313.909 83.8848C318.396 79.8057 324.515 77.7662 332.265 77.7662C339.811 77.7662 346.032 79.7038 350.927 83.5789C355.821 87.454 359.493 92.6548 361.94 99.1813C364.387 105.504 365.611 112.438 365.611 119.985C365.611 136.097 365.917 150.272 366.529 162.509C367.141 174.746 368.161 186.269 369.588 197.079H244.157Z" fill="#000000"/>
<path d="M393.85 197.079C390.831 197.079 388.909 195.158 388.909 192.138V9.8814C388.909 6.86209 390.831 4.9407 393.85 4.9407H456.432C459.451 4.9407 461.373 6.86209 461.373 9.8814V192.138C461.373 195.158 459.451 197.079 456.432 197.079H393.85Z" fill="white"/>
<path d="M393.85 197.079C390.831 197.079 388.909 195.158 388.909 192.138V9.8814C388.909 6.86209 390.831 4.9407 393.85 4.9407H456.432C459.451 4.9407 461.373 6.86209 461.373 9.8814V192.138C461.373 195.158 459.451 197.079 456.432 197.079H393.85Z" fill="#000000"/>
<path d="M489.94 197.079C486.921 197.079 485 195.158 485 192.138V9.8814C485 6.86209 486.921 4.9407 489.94 4.9407H555.542C558.287 4.9407 560.483 6.58761 561.032 9.33244L575.854 75.7573C578.05 85.6387 579.147 95.7946 581.343 105.676L583.265 105.402C582.441 96.0691 580.52 75.2084 580.52 68.3463L579.971 9.8814C579.971 6.86209 581.892 4.9407 584.912 4.9407H644.749C647.768 4.9407 649.69 6.86209 649.69 9.8814V192.138C649.69 195.158 647.768 197.079 644.749 197.079H586.01C583.265 197.079 581.343 195.981 580.52 192.962L561.855 126.262C559.11 116.381 557.189 106.225 554.993 96.3436L553.072 96.6181C554.17 105.95 556.091 126.811 556.091 133.673L556.64 192.138C556.64 195.158 554.718 197.079 551.699 197.079H489.94Z" fill="white"/>
<path d="M489.94 197.079C486.921 197.079 485 195.158 485 192.138V9.8814C485 6.86209 486.921 4.9407 489.94 4.9407H555.542C558.287 4.9407 560.483 6.58761 561.032 9.33244L575.854 75.7573C578.05 85.6387 579.147 95.7946 581.343 105.676L583.265 105.402C582.441 96.0691 580.52 75.2084 580.52 68.3463L579.971 9.8814C579.971 6.86209 581.892 4.9407 584.912 4.9407H644.749C647.768 4.9407 649.69 6.86209 649.69 9.8814V192.138C649.69 195.158 647.768 197.079 644.749 197.079H586.01C583.265 197.079 581.343 195.981 580.52 192.962L561.855 126.262C559.11 116.381 557.189 106.225 554.993 96.3436L553.072 96.6181C554.17 105.95 556.091 126.811 556.091 133.673L556.64 192.138C556.64 195.158 554.718 197.079 551.699 197.079H489.94Z" fill="#000000"/>
<path d="M774.245 201.745C713.584 201.745 670.216 155.632 670.216 100.735C670.216 45.8387 713.584 0 774.245 0C834.631 0 878.274 45.8387 878.274 100.735C878.274 155.632 834.631 201.745 774.245 201.745ZM774.245 127.086C790.165 127.086 801.968 115.008 801.968 100.735C801.968 86.4622 790.165 74.3849 774.245 74.3849C758.325 74.3849 746.522 86.4622 746.522 100.735C746.522 115.008 758.325 127.086 774.245 127.086Z" fill="white"/>
<path d="M774.245 201.745C713.584 201.745 670.216 155.632 670.216 100.735C670.216 45.8387 713.584 0 774.245 0C834.631 0 878.274 45.8387 878.274 100.735C878.274 155.632 834.631 201.745 774.245 201.745ZM774.245 127.086C790.165 127.086 801.968 115.008 801.968 100.735C801.968 86.4622 790.165 74.3849 774.245 74.3849C758.325 74.3849 746.522 86.4622 746.522 100.735C746.522 115.008 758.325 127.086 774.245 127.086Z" fill="#000000"/>
<path d="M903.799 197.079C900.78 197.079 898.858 195.158 898.858 192.138V9.8814C898.858 6.86209 900.78 4.9407 903.799 4.9407H966.381C969.4 4.9407 971.322 6.86209 971.322 9.8814V192.138C971.322 195.158 969.4 197.079 966.381 197.079H903.799Z" fill="white"/>
<path d="M903.799 197.079C900.78 197.079 898.858 195.158 898.858 192.138V9.8814C898.858 6.86209 900.78 4.9407 903.799 4.9407H966.381C969.4 4.9407 971.322 6.86209 971.322 9.8814V192.138C971.322 195.158 969.4 197.079 966.381 197.079H903.799Z" fill="#000000"/>
<path d="M1201.57 147.824C1201.57 154.759 1200.45 161.489 1198.21 168.016C1196.17 174.338 1192.6 179.947 1187.5 184.842C1182.6 189.533 1175.98 193.306 1167.61 196.161C1159.46 199.016 1149.36 200.444 1137.33 200.444C1126.11 200.444 1116.22 199.628 1107.65 197.997C1099.08 196.365 1091.84 193.408 1085.93 189.125C1080.22 184.638 1075.63 178.519 1072.16 170.769C1068.9 162.815 1066.76 152.821 1065.74 140.788H1052.28V197.079H995.069V125.491H1071.55C1073.59 131.406 1076.85 135.791 1081.34 138.646C1086.03 141.298 1092.35 142.623 1100.31 142.623C1108.67 142.623 1114.89 141.298 1118.97 138.646C1123.25 135.995 1125.39 131.61 1125.39 125.491C1125.39 120.392 1123.66 116.517 1120.19 113.866C1116.73 111.215 1109.69 109.889 1099.08 109.889C1091.95 109.889 1084.5 109.991 1076.75 110.195C1069 110.399 1061.05 110.501 1052.89 110.501C1041.88 110.501 1032.7 109.073 1025.36 106.218C1018.01 103.158 1012.1 99.1813 1007.61 94.2864C1003.33 89.3915 1000.27 83.5789 998.434 76.8484C996.802 70.118 995.986 63.0816 995.986 55.7392C995.986 48.193 997.108 41.1566 999.352 34.6301C1001.6 27.8996 1005.16 22.0869 1010.06 17.1921C1014.95 12.2972 1021.28 8.42205 1029.03 5.56671C1036.98 2.71136 1046.36 1.28369 1057.17 1.28369C1067.17 1.28369 1075.94 2.30345 1083.48 4.34299C1091.23 6.17857 1097.76 9.5438 1103.06 14.4387C1108.57 19.1296 1113.06 25.5541 1116.52 33.7123C1119.99 41.8704 1122.44 52.0681 1123.87 64.3053H1136.71V4.34299H1194.84V79.6018H1118.36C1116.11 71.2397 1112.65 65.9369 1107.96 63.6934C1103.27 61.246 1096.64 60.0223 1088.07 60.0223C1079.1 60.0223 1073.08 61.6539 1070.02 64.9171C1066.96 67.9764 1065.43 71.9535 1065.43 76.8484C1065.43 81.5393 1067.57 85.2105 1071.86 87.8619C1076.14 90.5133 1083.89 91.839 1095.11 91.839C1096.13 91.839 1098.37 91.839 1101.84 91.839C1105.51 91.635 1109.59 91.533 1114.08 91.533C1118.77 91.3291 1123.56 91.2271 1128.45 91.2271C1133.35 91.0232 1137.53 90.9212 1141 90.9212C1153.64 90.9212 1163.94 92.3489 1171.9 95.2042C1179.85 97.8556 1185.97 101.731 1190.25 106.83C1194.74 111.724 1197.7 117.741 1199.12 124.879C1200.76 131.814 1201.57 139.462 1201.57 147.824Z" fill="white"/>
<path d="M1201.57 147.824C1201.57 154.759 1200.45 161.489 1198.21 168.016C1196.17 174.338 1192.6 179.947 1187.5 184.842C1182.6 189.533 1175.98 193.306 1167.61 196.161C1159.46 199.016 1149.36 200.444 1137.33 200.444C1126.11 200.444 1116.22 199.628 1107.65 197.997C1099.08 196.365 1091.84 193.408 1085.93 189.125C1080.22 184.638 1075.63 178.519 1072.16 170.769C1068.9 162.815 1066.76 152.821 1065.74 140.788H1052.28V197.079H995.069V125.491H1071.55C1073.59 131.406 1076.85 135.791 1081.34 138.646C1086.03 141.298 1092.35 142.623 1100.31 142.623C1108.67 142.623 1114.89 141.298 1118.97 138.646C1123.25 135.995 1125.39 131.61 1125.39 125.491C1125.39 120.392 1123.66 116.517 1120.19 113.866C1116.73 111.215 1109.69 109.889 1099.08 109.889C1091.95 109.889 1084.5 109.991 1076.75 110.195C1069 110.399 1061.05 110.501 1052.89 110.501C1041.88 110.501 1032.7 109.073 1025.36 106.218C1018.01 103.158 1012.1 99.1813 1007.61 94.2864C1003.33 89.3915 1000.27 83.5789 998.434 76.8484C996.802 70.118 995.986 63.0816 995.986 55.7392C995.986 48.193 997.108 41.1566 999.352 34.6301C1001.6 27.8996 1005.16 22.0869 1010.06 17.1921C1014.95 12.2972 1021.28 8.42205 1029.03 5.56671C1036.98 2.71136 1046.36 1.28369 1057.17 1.28369C1067.17 1.28369 1075.94 2.30345 1083.48 4.34299C1091.23 6.17857 1097.76 9.5438 1103.06 14.4387C1108.57 19.1296 1113.06 25.5541 1116.52 33.7123C1119.99 41.8704 1122.44 52.0681 1123.87 64.3053H1136.71V4.34299H1194.84V79.6018H1118.36C1116.11 71.2397 1112.65 65.9369 1107.96 63.6934C1103.27 61.246 1096.64 60.0223 1088.07 60.0223C1079.1 60.0223 1073.08 61.6539 1070.02 64.9171C1066.96 67.9764 1065.43 71.9535 1065.43 76.8484C1065.43 81.5393 1067.57 85.2105 1071.86 87.8619C1076.14 90.5133 1083.89 91.839 1095.11 91.839C1096.13 91.839 1098.37 91.839 1101.84 91.839C1105.51 91.635 1109.59 91.533 1114.08 91.533C1118.77 91.3291 1123.56 91.2271 1128.45 91.2271C1133.35 91.0232 1137.53 90.9212 1141 90.9212C1153.64 90.9212 1163.94 92.3489 1171.9 95.2042C1179.85 97.8556 1185.97 101.731 1190.25 106.83C1194.74 111.724 1197.7 117.741 1199.12 124.879C1200.76 131.814 1201.57 139.462 1201.57 147.824Z" fill="#000000"/>
</svg>
