<svg width="1517" height="201" viewBox="0 0 1517 201" fill="none" xmlns="http://www.w3.org/2000/svg">
<path d="M4.9407 196.53C1.92138 196.53 0 194.609 0 191.589V9.33242C0 6.31311 1.92138 4.39172 4.9407 4.39172H66.9739C69.9932 4.39172 71.9146 6.31311 71.9146 9.33242V29.0952C71.9146 40.6235 71.3656 50.5049 70.5422 62.3077L72.738 62.5821C75.7573 53.5242 82.3449 37.3297 86.4622 29.0952L96.8925 7.96001C97.9905 5.48966 99.9119 4.39172 102.657 4.39172H167.16C171.003 4.39172 172.375 6.58759 170.454 10.1559L134.222 77.1298L181.159 190.766C182.531 194.06 180.884 196.53 177.316 196.53H110.342C107.597 196.53 105.951 195.158 104.853 192.687L79.6001 125.713L72.1891 136.418L72.738 191.589C72.738 194.609 70.8167 196.53 67.7973 196.53H4.9407Z" fill="white"/>
<path d="M4.9407 196.53C1.92138 196.53 0 194.609 0 191.589V9.33242C0 6.31311 1.92138 4.39172 4.9407 4.39172H66.9739C69.9932 4.39172 71.9146 6.31311 71.9146 9.33242V29.0952C71.9146 40.6235 71.3656 50.5049 70.5422 62.3077L72.738 62.5821C75.7573 53.5242 82.3449 37.3297 86.4622 29.0952L96.8925 7.96001C97.9905 5.48966 99.9119 4.39172 102.657 4.39172H167.16C171.003 4.39172 172.375 6.58759 170.454 10.1559L134.222 77.1298L181.159 190.766C182.531 194.06 180.884 196.53 177.316 196.53H110.342C107.597 196.53 105.951 195.158 104.853 192.687L79.6001 125.713L72.1891 136.418L72.738 191.589C72.738 194.609 70.8167 196.53 67.7973 196.53H4.9407Z" fill="#000000"/>
<path d="M190.954 196.53V195.918C192.994 193.063 194.626 190.309 195.849 187.658C197.073 184.803 197.991 181.335 198.603 177.256C199.418 172.973 199.826 167.263 199.826 160.124C200.234 152.578 200.438 143.808 200.438 133.814C200.438 123.821 200.438 113.521 200.438 102.915C200.438 92.1058 200.438 81.2963 200.438 70.4868C200.438 59.6772 200.234 49.6835 199.826 40.5056C199.622 29.6961 198.705 21.6399 197.073 16.3371C195.645 11.0344 193.606 7.05728 190.954 4.40588V3.79401H340.248C340.044 8.89285 339.942 13.9917 339.942 19.0905C339.942 23.9854 339.942 29.1862 339.942 34.6929C339.942 45.5025 340.248 57.8417 340.86 71.7105H340.248C337.393 63.7563 334.436 57.8417 331.376 53.9665C328.521 49.8875 324.34 47.2361 318.833 46.0124C313.326 44.7886 305.066 44.1768 294.053 44.1768C284.263 44.1768 275.289 44.2788 267.131 44.4827C259.177 44.6867 251.223 44.9926 243.268 45.4005C243.065 55.8021 242.861 68.3453 242.657 83.0299C242.657 97.7145 242.351 112.603 241.739 127.696H242.351C243.778 104.853 248.367 88.3327 256.118 78.135C263.868 67.7334 275.187 62.5326 290.076 62.5326C303.741 62.5326 313.326 65.8978 318.833 72.6283C324.544 79.1548 327.399 88.1287 327.399 99.5501C327.399 112.603 323.83 123.617 316.692 132.591C309.553 141.361 299.866 145.746 287.628 145.746C279.878 145.746 273.861 143.91 269.578 140.239C265.295 136.568 263.154 131.265 263.154 124.33C263.154 119.232 264.786 114.745 268.049 110.87C271.312 106.994 276.207 105.057 282.733 105.057C288.036 105.057 292.523 106.79 296.194 110.258C299.866 113.725 301.701 118.518 301.701 124.636C301.701 127.696 300.681 131.469 298.642 135.956C296.602 140.443 292.625 143.298 286.711 144.522C295.888 143.502 302.517 140.545 306.596 135.65C310.879 130.551 313.021 125.554 313.021 120.659C313.021 111.889 310.165 105.465 304.454 101.386C298.948 97.3066 291.299 95.2671 281.51 95.2671C271.312 95.2671 262.644 97.9185 255.506 103.221C248.571 108.524 244.696 117.192 243.88 129.225C243.676 131.265 243.574 133.406 243.574 135.65C243.574 137.689 243.574 139.831 243.574 142.074C243.574 145.949 243.676 150.233 243.88 154.923C251.835 155.535 259.891 155.943 268.049 156.147C276.207 156.147 285.181 156.147 294.971 156.147C303.537 156.147 310.369 155.841 315.468 155.229C320.567 154.618 324.544 153.394 327.399 151.558C330.459 149.519 333.008 146.765 335.047 143.298C337.087 139.627 339.127 134.732 341.166 128.613H341.778C341.574 135.14 341.37 141.564 341.166 147.887C341.166 154.21 341.166 160.532 341.166 166.855C341.166 172.565 341.166 177.868 341.166 182.763C341.166 187.454 341.268 192.043 341.472 196.53H190.954Z" fill="white"/>
<path d="M190.954 196.53V195.918C192.994 193.063 194.626 190.309 195.849 187.658C197.073 184.803 197.991 181.335 198.603 177.256C199.418 172.973 199.826 167.263 199.826 160.124C200.234 152.578 200.438 143.808 200.438 133.814C200.438 123.821 200.438 113.521 200.438 102.915C200.438 92.1058 200.438 81.2963 200.438 70.4868C200.438 59.6772 200.234 49.6835 199.826 40.5056C199.622 29.6961 198.705 21.6399 197.073 16.3371C195.645 11.0344 193.606 7.05728 190.954 4.40588V3.79401H340.248C340.044 8.89285 339.942 13.9917 339.942 19.0905C339.942 23.9854 339.942 29.1862 339.942 34.6929C339.942 45.5025 340.248 57.8417 340.86 71.7105H340.248C337.393 63.7563 334.436 57.8417 331.376 53.9665C328.521 49.8875 324.34 47.2361 318.833 46.0124C313.326 44.7886 305.066 44.1768 294.053 44.1768C284.263 44.1768 275.289 44.2788 267.131 44.4827C259.177 44.6867 251.223 44.9926 243.268 45.4005C243.065 55.8021 242.861 68.3453 242.657 83.0299C242.657 97.7145 242.351 112.603 241.739 127.696H242.351C243.778 104.853 248.367 88.3327 256.118 78.135C263.868 67.7334 275.187 62.5326 290.076 62.5326C303.741 62.5326 313.326 65.8978 318.833 72.6283C324.544 79.1548 327.399 88.1287 327.399 99.5501C327.399 112.603 323.83 123.617 316.692 132.591C309.553 141.361 299.866 145.746 287.628 145.746C279.878 145.746 273.861 143.91 269.578 140.239C265.295 136.568 263.154 131.265 263.154 124.33C263.154 119.232 264.786 114.745 268.049 110.87C271.312 106.994 276.207 105.057 282.733 105.057C288.036 105.057 292.523 106.79 296.194 110.258C299.866 113.725 301.701 118.518 301.701 124.636C301.701 127.696 300.681 131.469 298.642 135.956C296.602 140.443 292.625 143.298 286.711 144.522C295.888 143.502 302.517 140.545 306.596 135.65C310.879 130.551 313.021 125.554 313.021 120.659C313.021 111.889 310.165 105.465 304.454 101.386C298.948 97.3066 291.299 95.2671 281.51 95.2671C271.312 95.2671 262.644 97.9185 255.506 103.221C248.571 108.524 244.696 117.192 243.88 129.225C243.676 131.265 243.574 133.406 243.574 135.65C243.574 137.689 243.574 139.831 243.574 142.074C243.574 145.949 243.676 150.233 243.88 154.923C251.835 155.535 259.891 155.943 268.049 156.147C276.207 156.147 285.181 156.147 294.971 156.147C303.537 156.147 310.369 155.841 315.468 155.229C320.567 154.618 324.544 153.394 327.399 151.558C330.459 149.519 333.008 146.765 335.047 143.298C337.087 139.627 339.127 134.732 341.166 128.613H341.778C341.574 135.14 341.37 141.564 341.166 147.887C341.166 154.21 341.166 160.532 341.166 166.855C341.166 172.565 341.166 177.868 341.166 182.763C341.166 187.454 341.268 192.043 341.472 196.53H190.954Z" fill="#000000"/>
<path d="M368.731 196.53C365.711 196.53 363.79 194.609 363.79 191.589V9.33242C363.79 6.31311 365.711 4.39172 368.731 4.39172H434.332C437.077 4.39172 439.273 6.03863 439.822 8.78346L454.644 75.2084C456.84 85.0898 457.938 95.2456 460.134 105.127L462.055 104.853C461.232 95.5201 459.31 74.6594 459.31 67.7973L458.761 9.33242C458.761 6.31311 460.683 4.39172 463.702 4.39172H523.539C526.559 4.39172 528.48 6.31311 528.48 9.33242V191.589C528.48 194.609 526.559 196.53 523.539 196.53H464.8C462.055 196.53 460.134 195.432 459.31 192.413L440.645 125.713C437.901 115.832 435.979 105.676 433.783 95.7946L431.862 96.0691C432.96 105.402 434.881 126.262 434.881 133.124L435.43 191.589C435.43 194.609 433.509 196.53 430.49 196.53H368.731Z" fill="white"/>
<path d="M368.731 196.53C365.711 196.53 363.79 194.609 363.79 191.589V9.33242C363.79 6.31311 365.711 4.39172 368.731 4.39172H434.332C437.077 4.39172 439.273 6.03863 439.822 8.78346L454.644 75.2084C456.84 85.0898 457.938 95.2456 460.134 105.127L462.055 104.853C461.232 95.5201 459.31 74.6594 459.31 67.7973L458.761 9.33242C458.761 6.31311 460.683 4.39172 463.702 4.39172H523.539C526.559 4.39172 528.48 6.31311 528.48 9.33242V191.589C528.48 194.609 526.559 196.53 523.539 196.53H464.8C462.055 196.53 460.134 195.432 459.31 192.413L440.645 125.713C437.901 115.832 435.979 105.676 433.783 95.7946L431.862 96.0691C432.96 105.402 434.881 126.262 434.881 133.124L435.43 191.589C435.43 194.609 433.509 196.53 430.49 196.53H368.731Z" fill="#000000"/>
<path d="M592.164 196.53C589.145 196.53 587.224 194.609 587.224 191.589V70.2677H551.815C548.796 70.2677 546.875 68.3463 546.875 65.327V9.33242C546.875 6.31311 548.796 4.39172 551.815 4.39172H695.37C698.389 4.39172 700.311 6.31311 700.311 9.33242V65.327C700.311 68.3463 698.389 70.2677 695.37 70.2677H659.687V191.589C659.687 194.609 657.766 196.53 654.746 196.53H592.164Z" fill="white"/>
<path d="M592.164 196.53C589.145 196.53 587.224 194.609 587.224 191.589V70.2677H551.815C548.796 70.2677 546.875 68.3463 546.875 65.327V9.33242C546.875 6.31311 548.796 4.39172 551.815 4.39172H695.37C698.389 4.39172 700.311 6.31311 700.311 9.33242V65.327C700.311 68.3463 698.389 70.2677 695.37 70.2677H659.687V191.589C659.687 194.609 657.766 196.53 654.746 196.53H592.164Z" fill="#000000"/>
<path d="M880.94 118.212C880.94 111.685 878.799 106.485 874.516 102.609C870.437 98.5303 865.848 94.7572 860.749 91.29C855.854 87.6188 851.265 83.7437 846.982 79.6647C842.903 75.3816 840.864 69.7729 840.864 62.8385V3.79401H918.264V61.9207C908.882 61.9207 903.273 62.7365 901.438 64.3682C899.602 65.9998 898.684 71.0986 898.684 79.6647V126.472C898.684 150.131 892.464 168.282 880.023 180.927C867.581 193.369 846.472 199.589 816.695 199.589C785.898 199.589 764.483 193.879 752.45 182.457C740.62 170.832 734.91 152.272 735.318 126.778V80.2765C735.318 75.9935 735.216 72.6283 735.012 70.1808C735.012 67.7334 734.4 65.9998 733.176 64.98C731.952 63.7563 730.015 63.0425 727.363 62.8385C724.712 62.4306 720.837 62.2267 715.738 62.2267V3.79401H816.389V62.8385C810.678 62.8385 806.293 63.0425 803.234 63.4504C800.175 63.6543 797.931 64.3682 796.504 65.5919C795.076 66.6116 794.26 68.3453 794.056 70.7927C793.852 73.2401 793.75 76.6054 793.75 80.8884V102.609C793.75 109.544 794.26 115.356 795.28 120.047C796.504 124.534 798.747 128.206 802.01 131.061C805.274 133.916 809.863 135.956 815.777 137.18C821.692 138.403 829.34 139.015 838.722 139.015C853.611 139.015 864.318 137.18 870.845 133.508C877.575 129.837 880.94 124.738 880.94 118.212Z" fill="white"/>
<path d="M880.94 118.212C880.94 111.685 878.799 106.485 874.516 102.609C870.437 98.5303 865.848 94.7572 860.749 91.29C855.854 87.6188 851.265 83.7437 846.982 79.6647C842.903 75.3816 840.864 69.7729 840.864 62.8385V3.79401H918.264V61.9207C908.882 61.9207 903.273 62.7365 901.438 64.3682C899.602 65.9998 898.684 71.0986 898.684 79.6647V126.472C898.684 150.131 892.464 168.282 880.023 180.927C867.581 193.369 846.472 199.589 816.695 199.589C785.898 199.589 764.483 193.879 752.45 182.457C740.62 170.832 734.91 152.272 735.318 126.778V80.2765C735.318 75.9935 735.216 72.6283 735.012 70.1808C735.012 67.7334 734.4 65.9998 733.176 64.98C731.952 63.7563 730.015 63.0425 727.363 62.8385C724.712 62.4306 720.837 62.2267 715.738 62.2267V3.79401H816.389V62.8385C810.678 62.8385 806.293 63.0425 803.234 63.4504C800.175 63.6543 797.931 64.3682 796.504 65.5919C795.076 66.6116 794.26 68.3453 794.056 70.7927C793.852 73.2401 793.75 76.6054 793.75 80.8884V102.609C793.75 109.544 794.26 115.356 795.28 120.047C796.504 124.534 798.747 128.206 802.01 131.061C805.274 133.916 809.863 135.956 815.777 137.18C821.692 138.403 829.34 139.015 838.722 139.015C853.611 139.015 864.318 137.18 870.845 133.508C877.575 129.837 880.94 124.738 880.94 118.212Z" fill="#000000"/>
<path d="M1033.2 200.922C975.836 200.922 933.84 156.73 933.84 100.461C933.84 44.1918 975.562 0 1033.2 0C1087.83 0 1125.7 33.4869 1131.19 85.9132C1131.74 89.207 1129.82 91.1284 1126.53 91.1284H1063.95C1061.2 91.1284 1059.28 89.756 1058.18 87.0112C1055.16 80.4236 1048.85 74.1104 1037.32 74.1104C1022.77 74.1104 1012.89 86.1877 1012.89 100.461C1012.89 115.283 1022.77 126.811 1037.32 126.811C1048.85 126.811 1055.16 120.224 1058.18 113.636C1059.28 110.891 1061.2 109.519 1063.95 109.519H1125.98C1129.27 109.519 1131.19 111.166 1130.92 114.459C1126.8 166.886 1088.1 200.922 1033.2 200.922Z" fill="white"/>
<path d="M1033.2 200.922C975.836 200.922 933.84 156.73 933.84 100.461C933.84 44.1918 975.562 0 1033.2 0C1087.83 0 1125.7 33.4869 1131.19 85.9132C1131.74 89.207 1129.82 91.1284 1126.53 91.1284H1063.95C1061.2 91.1284 1059.28 89.756 1058.18 87.0112C1055.16 80.4236 1048.85 74.1104 1037.32 74.1104C1022.77 74.1104 1012.89 86.1877 1012.89 100.461C1012.89 115.283 1022.77 126.811 1037.32 126.811C1048.85 126.811 1055.16 120.224 1058.18 113.636C1059.28 110.891 1061.2 109.519 1063.95 109.519H1125.98C1129.27 109.519 1131.19 111.166 1130.92 114.459C1126.8 166.886 1088.1 200.922 1033.2 200.922Z" fill="#000000"/>
<path d="M1144.23 196.53V195.918C1147.9 191.227 1150.25 186.026 1151.27 180.316C1152.29 174.605 1152.9 167.874 1153.1 160.124C1153.31 149.927 1153.41 139.933 1153.41 130.143C1153.61 120.149 1153.71 110.156 1153.71 100.162C1153.71 89.9643 1153.61 79.9706 1153.41 70.1808C1153.41 60.1871 1153.31 50.1934 1153.1 40.1997C1153.1 33.2653 1152.8 27.7585 1152.18 23.6795C1151.57 19.6004 1150.65 16.1332 1149.43 13.2778C1148.21 10.4225 1146.47 7.46518 1144.23 4.40588V3.79401H1212.15V4.40588C1208.27 6.44541 1205.21 8.79088 1202.97 11.4423C1200.72 14.0937 1199.19 17.6628 1198.38 22.1498C1197.56 26.4328 1197.16 32.4495 1197.16 40.1997V92.8196C1199.4 87.109 1202.87 81.5002 1207.56 75.9935C1212.45 70.4868 1217.96 64.2662 1224.08 57.3318C1229.79 51.0092 1233.36 45.8084 1234.78 41.7293C1236.42 37.4463 1237.23 33.1633 1237.23 28.8803C1237.23 24.8012 1235.8 20.7221 1232.95 16.6431C1230.3 12.3601 1227.24 8.28099 1223.77 4.40588V3.79401H1303.31V4.40588C1298.42 8.07704 1294.24 11.6462 1290.77 15.1134C1287.51 18.3767 1284.14 22.3538 1280.67 27.0447C1277.61 31.1238 1274.56 35.3048 1271.5 39.5878C1268.64 43.6669 1265.68 47.8479 1262.62 52.131C1269.35 68.6512 1275.98 85.3754 1282.51 102.303C1289.04 119.232 1296.07 137.18 1303.62 156.147C1307.49 165.529 1311.27 173.381 1314.94 179.704C1318.81 185.822 1322.48 191.227 1325.95 195.918V196.53H1247.94V195.918C1252.83 194.694 1256.4 192.961 1258.65 190.717C1260.89 188.474 1262.01 185.109 1262.01 180.622C1262.01 177.97 1261.6 174.911 1260.79 171.444C1260.18 167.976 1259.26 163.897 1258.04 159.206L1245.49 111.787C1242.64 101.182 1238.76 94.4513 1233.87 91.5959C1228.97 88.7406 1224.38 87.3129 1220.1 87.3129C1214.39 87.3129 1209.09 88.7406 1204.19 91.5959C1199.5 94.4513 1197.16 100.366 1197.16 109.34C1197.16 110.971 1197.36 112.909 1197.77 115.153C1198.18 117.396 1198.89 119.436 1199.91 121.271C1199.09 119.232 1198.68 116.784 1198.68 113.929C1198.68 108.83 1200.42 104.139 1203.89 99.856C1207.35 95.573 1212.35 93.4315 1218.88 93.4315C1224.79 93.4315 1229.69 95.3691 1233.56 99.2442C1237.44 102.915 1239.37 107.81 1239.37 113.929C1239.37 120.251 1237.23 125.248 1232.95 128.919C1228.87 132.387 1224.18 134.12 1218.88 134.12C1213.78 134.12 1209.29 132.693 1205.42 129.837C1201.74 126.982 1198.99 123.209 1197.16 118.518V160.124C1197.16 172.361 1199.3 180.826 1203.58 185.516C1208.07 190.207 1215.61 193.675 1226.22 195.918V196.53H1144.23Z" fill="white"/>
<path d="M1144.23 196.53V195.918C1147.9 191.227 1150.25 186.026 1151.27 180.316C1152.29 174.605 1152.9 167.874 1153.1 160.124C1153.31 149.927 1153.41 139.933 1153.41 130.143C1153.61 120.149 1153.71 110.156 1153.71 100.162C1153.71 89.9643 1153.61 79.9706 1153.41 70.1808C1153.41 60.1871 1153.31 50.1934 1153.1 40.1997C1153.1 33.2653 1152.8 27.7585 1152.18 23.6795C1151.57 19.6004 1150.65 16.1332 1149.43 13.2778C1148.21 10.4225 1146.47 7.46518 1144.23 4.40588V3.79401H1212.15V4.40588C1208.27 6.44541 1205.21 8.79088 1202.97 11.4423C1200.72 14.0937 1199.19 17.6628 1198.38 22.1498C1197.56 26.4328 1197.16 32.4495 1197.16 40.1997V92.8196C1199.4 87.109 1202.87 81.5002 1207.56 75.9935C1212.45 70.4868 1217.96 64.2662 1224.08 57.3318C1229.79 51.0092 1233.36 45.8084 1234.78 41.7293C1236.42 37.4463 1237.23 33.1633 1237.23 28.8803C1237.23 24.8012 1235.8 20.7221 1232.95 16.6431C1230.3 12.3601 1227.24 8.28099 1223.77 4.40588V3.79401H1303.31V4.40588C1298.42 8.07704 1294.24 11.6462 1290.77 15.1134C1287.51 18.3767 1284.14 22.3538 1280.67 27.0447C1277.61 31.1238 1274.56 35.3048 1271.5 39.5878C1268.64 43.6669 1265.68 47.8479 1262.62 52.131C1269.35 68.6512 1275.98 85.3754 1282.51 102.303C1289.04 119.232 1296.07 137.18 1303.62 156.147C1307.49 165.529 1311.27 173.381 1314.94 179.704C1318.81 185.822 1322.48 191.227 1325.95 195.918V196.53H1247.94V195.918C1252.83 194.694 1256.4 192.961 1258.65 190.717C1260.89 188.474 1262.01 185.109 1262.01 180.622C1262.01 177.97 1261.6 174.911 1260.79 171.444C1260.18 167.976 1259.26 163.897 1258.04 159.206L1245.49 111.787C1242.64 101.182 1238.76 94.4513 1233.87 91.5959C1228.97 88.7406 1224.38 87.3129 1220.1 87.3129C1214.39 87.3129 1209.09 88.7406 1204.19 91.5959C1199.5 94.4513 1197.16 100.366 1197.16 109.34C1197.16 110.971 1197.36 112.909 1197.77 115.153C1198.18 117.396 1198.89 119.436 1199.91 121.271C1199.09 119.232 1198.68 116.784 1198.68 113.929C1198.68 108.83 1200.42 104.139 1203.89 99.856C1207.35 95.573 1212.35 93.4315 1218.88 93.4315C1224.79 93.4315 1229.69 95.3691 1233.56 99.2442C1237.44 102.915 1239.37 107.81 1239.37 113.929C1239.37 120.251 1237.23 125.248 1232.95 128.919C1228.87 132.387 1224.18 134.12 1218.88 134.12C1213.78 134.12 1209.29 132.693 1205.42 129.837C1201.74 126.982 1198.99 123.209 1197.16 118.518V160.124C1197.16 172.361 1199.3 180.826 1203.58 185.516C1208.07 190.207 1215.61 193.675 1226.22 195.918V196.53H1144.23Z" fill="#000000"/>
<path d="M1391.45 196.53C1388.43 196.53 1386.51 194.609 1386.51 191.589V135.046L1329.42 10.1559C1327.77 6.86207 1329.42 4.39172 1332.99 4.39172H1401.06C1403.81 4.39172 1406 5.48966 1406.82 8.50897L1414.51 34.5849C1417.8 45.8387 1420.55 59.0139 1422.47 71.0911H1424.67C1426.59 59.0139 1429.61 45.8387 1433.18 34.5849L1441.68 8.50897C1442.51 5.76414 1444.7 4.39172 1447.45 4.39172H1512.5C1516.07 4.39172 1517.72 6.86207 1516.07 10.1559L1458.98 136.418V191.589C1458.98 194.609 1457.06 196.53 1454.04 196.53H1391.45Z" fill="white"/>
<path d="M1391.45 196.53C1388.43 196.53 1386.51 194.609 1386.51 191.589V135.046L1329.42 10.1559C1327.77 6.86207 1329.42 4.39172 1332.99 4.39172H1401.06C1403.81 4.39172 1406 5.48966 1406.82 8.50897L1414.51 34.5849C1417.8 45.8387 1420.55 59.0139 1422.47 71.0911H1424.67C1426.59 59.0139 1429.61 45.8387 1433.18 34.5849L1441.68 8.50897C1442.51 5.76414 1444.7 4.39172 1447.45 4.39172H1512.5C1516.07 4.39172 1517.72 6.86207 1516.07 10.1559L1458.98 136.418V191.589C1458.98 194.609 1457.06 196.53 1454.04 196.53H1391.45Z" fill="#000000"/>
</svg>
