<svg width="2477" height="203" viewBox="0 0 2477 203" fill="none" xmlns="http://www.w3.org/2000/svg">
<path d="M4.9407 198.177C1.92138 198.177 0 196.255 0 193.236V10.9793C0 7.96002 1.92138 6.03863 4.9407 6.03863H76.3063C79.0511 6.03863 81.247 7.68554 81.796 10.4304L97.4415 75.2084L106.774 116.106H108.421L117.753 75.4829L133.399 10.4304C133.948 7.68554 136.144 6.03863 138.888 6.03863H210.254C213.273 6.03863 215.195 7.96002 215.195 10.9793V193.236C215.195 196.255 213.273 198.177 210.254 198.177H152.887C149.868 198.177 147.946 196.255 147.946 193.236L148.221 153.985C148.221 140.261 150.966 106.774 152.064 99.0884L149.868 98.8139C148.221 107.048 143.28 130.38 141.084 138.614L126.262 194.06C125.439 197.079 123.517 198.177 120.773 198.177H95.2457C92.5008 198.177 90.5794 197.079 89.756 194.06L74.9339 138.614C72.738 130.38 67.7973 107.048 66.1504 98.8139L63.9546 99.0884C65.0525 106.774 67.7973 140.261 67.7973 153.985L68.0718 193.236C68.0718 196.255 66.1504 198.177 63.1311 198.177H4.9407Z" fill="white"/>
<path d="M4.9407 198.177C1.92138 198.177 0 196.255 0 193.236V10.9793C0 7.96002 1.92138 6.03863 4.9407 6.03863H76.3063C79.0511 6.03863 81.247 7.68554 81.796 10.4304L97.4415 75.2084L106.774 116.106H108.421L117.753 75.4829L133.399 10.4304C133.948 7.68554 136.144 6.03863 138.888 6.03863H210.254C213.273 6.03863 215.195 7.96002 215.195 10.9793V193.236C215.195 196.255 213.273 198.177 210.254 198.177H152.887C149.868 198.177 147.946 196.255 147.946 193.236L148.221 153.985C148.221 140.261 150.966 106.774 152.064 99.0884L149.868 98.8139C148.221 107.048 143.28 130.38 141.084 138.614L126.262 194.06C125.439 197.079 123.517 198.177 120.773 198.177H95.2457C92.5008 198.177 90.5794 197.079 89.756 194.06L74.9339 138.614C72.738 130.38 67.7973 107.048 66.1504 98.8139L63.9546 99.0884C65.0525 106.774 67.7973 140.261 67.7973 153.985L68.0718 193.236C68.0718 196.255 66.1504 198.177 63.1311 198.177H4.9407Z" fill="#000000"/>
<path d="M234.301 198.177C231.008 198.177 229.086 196.255 229.91 192.687L277.121 10.1559C277.944 7.13657 279.591 6.03863 282.61 6.03863H369.347C372.366 6.03863 374.013 7.13657 374.837 10.1559L421.773 192.687C422.597 196.255 420.675 198.177 417.382 198.177H350.682C347.663 198.177 346.016 196.53 345.467 193.785L339.703 166.886H311.706L305.941 193.785C305.392 196.53 303.746 198.177 300.726 198.177H234.301ZM316.372 121.596H335.037L328.449 84.2663L327.077 73.0125H324.332L322.959 84.2663L316.372 121.596Z" fill="white"/>
<path d="M234.301 198.177C231.008 198.177 229.086 196.255 229.91 192.687L277.121 10.1559C277.944 7.13657 279.591 6.03863 282.61 6.03863H369.347C372.366 6.03863 374.013 7.13657 374.837 10.1559L421.773 192.687C422.597 196.255 420.675 198.177 417.382 198.177H350.682C347.663 198.177 346.016 196.53 345.467 193.785L339.703 166.886H311.706L305.941 193.785C305.392 196.53 303.746 198.177 300.726 198.177H234.301ZM316.372 121.596H335.037L328.449 84.2663L327.077 73.0125H324.332L322.959 84.2663L316.372 121.596Z" fill="#000000"/>
<path d="M505.705 202.02C468.924 202.02 428.026 185.002 425.007 132.575C424.733 129.282 426.654 127.36 429.673 127.36H488.962C492.53 127.36 494.726 129.556 494.726 132.575C495 139.437 497.745 144.653 505.98 144.653C511.469 144.653 514.489 140.81 514.763 136.418C514.489 124.89 500.764 124.341 479.08 120.498C449.711 115.283 425.556 99.3629 425.831 63.1311C425.556 23.88 459.043 0 501.862 0C531.781 0 575.698 13.7242 577.894 64.2291C577.894 67.5229 575.973 69.4442 572.953 69.4442H517.782C514.489 69.4442 512.842 67.5229 512.567 64.5035C512.293 59.5629 510.92 53.7987 502.96 53.7987C498.569 53.7987 495.549 56.5435 495.549 60.9353C495.549 71.0911 509.273 71.0911 530.683 76.3063C560.327 83.4429 584.207 99.9119 584.482 136.418C584.756 181.433 547.427 202.02 505.705 202.02Z" fill="white"/>
<path d="M505.705 202.02C468.924 202.02 428.026 185.002 425.007 132.575C424.733 129.282 426.654 127.36 429.673 127.36H488.962C492.53 127.36 494.726 129.556 494.726 132.575C495 139.437 497.745 144.653 505.98 144.653C511.469 144.653 514.489 140.81 514.763 136.418C514.489 124.89 500.764 124.341 479.08 120.498C449.711 115.283 425.556 99.3629 425.831 63.1311C425.556 23.88 459.043 0 501.862 0C531.781 0 575.698 13.7242 577.894 64.2291C577.894 67.5229 575.973 69.4442 572.953 69.4442H517.782C514.489 69.4442 512.842 67.5229 512.567 64.5035C512.293 59.5629 510.92 53.7987 502.96 53.7987C498.569 53.7987 495.549 56.5435 495.549 60.9353C495.549 71.0911 509.273 71.0911 530.683 76.3063C560.327 83.4429 584.207 99.9119 584.482 136.418C584.756 181.433 547.427 202.02 505.705 202.02Z" fill="#000000"/>
<path d="M808.513 148.922C808.513 155.857 807.391 162.587 805.147 169.113C803.108 175.436 799.539 181.045 794.44 185.94C789.545 190.631 782.917 194.404 774.555 197.259C766.396 200.114 756.301 201.542 744.267 201.542C733.05 201.542 723.158 200.726 714.592 199.095C706.026 197.463 698.786 194.506 692.871 190.223C687.161 185.736 682.572 179.617 679.104 171.867C675.841 163.913 673.7 153.919 672.68 141.886H659.219V198.177H602.01V126.589H678.492C680.532 132.504 683.795 136.889 688.282 139.744C692.973 142.396 699.296 143.721 707.25 143.721C715.612 143.721 721.833 142.396 725.912 139.744C730.195 137.093 732.336 132.708 732.336 126.589C732.336 121.49 730.603 117.615 727.135 114.964C723.668 112.312 716.632 110.987 706.026 110.987C698.888 110.987 691.444 111.089 683.693 111.293C675.943 111.497 667.989 111.599 659.831 111.599C648.817 111.599 639.639 110.171 632.297 107.316C624.955 104.256 619.04 100.279 614.553 95.3843C610.27 90.4895 607.211 84.6768 605.375 77.9463C603.744 71.2159 602.928 64.1795 602.928 56.8372C602.928 49.2909 604.049 42.2545 606.293 35.728C608.536 28.9975 612.106 23.1849 617.001 18.29C621.895 13.3951 628.218 9.51999 635.968 6.66464C643.922 3.8093 653.304 2.38162 664.114 2.38162C674.107 2.38162 682.878 3.40139 690.424 5.44092C698.174 7.2765 704.7 10.6417 710.003 15.5366C715.51 20.2276 719.997 26.6521 723.464 34.8102C726.931 42.9683 729.379 53.166 730.807 65.4032H743.656V5.44092H801.782V80.6997H725.3C723.056 72.3376 719.589 67.0348 714.898 64.7914C710.207 62.3439 703.579 61.1202 695.013 61.1202C686.039 61.1202 680.022 62.7518 676.963 66.0151C673.904 69.0744 672.374 73.0515 672.374 77.9463C672.374 82.6373 674.515 86.3084 678.798 88.9598C683.081 91.6112 690.832 92.9369 702.049 92.9369C703.069 92.9369 705.312 92.9369 708.78 92.9369C712.451 92.733 716.53 92.631 721.017 92.631C725.708 92.427 730.501 92.3251 735.395 92.3251C740.29 92.1211 744.471 92.0191 747.939 92.0191C760.584 92.0191 770.883 93.4468 778.838 96.3021C786.792 98.9535 792.91 102.829 797.193 107.927C801.68 112.822 804.638 118.839 806.065 125.977C807.697 132.912 808.513 140.56 808.513 148.922Z" fill="white"/>
<path d="M808.513 148.922C808.513 155.857 807.391 162.587 805.147 169.113C803.108 175.436 799.539 181.045 794.44 185.94C789.545 190.631 782.917 194.404 774.555 197.259C766.396 200.114 756.301 201.542 744.267 201.542C733.05 201.542 723.158 200.726 714.592 199.095C706.026 197.463 698.786 194.506 692.871 190.223C687.161 185.736 682.572 179.617 679.104 171.867C675.841 163.913 673.7 153.919 672.68 141.886H659.219V198.177H602.01V126.589H678.492C680.532 132.504 683.795 136.889 688.282 139.744C692.973 142.396 699.296 143.721 707.25 143.721C715.612 143.721 721.833 142.396 725.912 139.744C730.195 137.093 732.336 132.708 732.336 126.589C732.336 121.49 730.603 117.615 727.135 114.964C723.668 112.312 716.632 110.987 706.026 110.987C698.888 110.987 691.444 111.089 683.693 111.293C675.943 111.497 667.989 111.599 659.831 111.599C648.817 111.599 639.639 110.171 632.297 107.316C624.955 104.256 619.04 100.279 614.553 95.3843C610.27 90.4895 607.211 84.6768 605.375 77.9463C603.744 71.2159 602.928 64.1795 602.928 56.8372C602.928 49.2909 604.049 42.2545 606.293 35.728C608.536 28.9975 612.106 23.1849 617.001 18.29C621.895 13.3951 628.218 9.51999 635.968 6.66464C643.922 3.8093 653.304 2.38162 664.114 2.38162C674.107 2.38162 682.878 3.40139 690.424 5.44092C698.174 7.2765 704.7 10.6417 710.003 15.5366C715.51 20.2276 719.997 26.6521 723.464 34.8102C726.931 42.9683 729.379 53.166 730.807 65.4032H743.656V5.44092H801.782V80.6997H725.3C723.056 72.3376 719.589 67.0348 714.898 64.7914C710.207 62.3439 703.579 61.1202 695.013 61.1202C686.039 61.1202 680.022 62.7518 676.963 66.0151C673.904 69.0744 672.374 73.0515 672.374 77.9463C672.374 82.6373 674.515 86.3084 678.798 88.9598C683.081 91.6112 690.832 92.9369 702.049 92.9369C703.069 92.9369 705.312 92.9369 708.78 92.9369C712.451 92.733 716.53 92.631 721.017 92.631C725.708 92.427 730.501 92.3251 735.395 92.3251C740.29 92.1211 744.471 92.0191 747.939 92.0191C760.584 92.0191 770.883 93.4468 778.838 96.3021C786.792 98.9535 792.91 102.829 797.193 107.927C801.68 112.822 804.638 118.839 806.065 125.977C807.697 132.912 808.513 140.56 808.513 148.922Z" fill="#000000"/>
<path d="M825.297 198.177C822.003 198.177 820.081 196.255 820.905 192.687L868.116 10.1559C868.939 7.13657 870.586 6.03863 873.606 6.03863H960.342C963.362 6.03863 965.009 7.13657 965.832 10.1559L1012.77 192.687C1013.59 196.255 1011.67 198.177 1008.38 198.177H941.677C938.658 198.177 937.011 196.53 936.462 193.785L930.698 166.886H902.701L896.937 193.785C896.388 196.53 894.741 198.177 891.722 198.177H825.297ZM907.367 121.596H926.032L919.444 84.2663L918.072 73.0125H915.327L913.955 84.2663L907.367 121.596Z" fill="white"/>
<path d="M825.297 198.177C822.003 198.177 820.081 196.255 820.905 192.687L868.116 10.1559C868.939 7.13657 870.586 6.03863 873.606 6.03863H960.342C963.362 6.03863 965.009 7.13657 965.832 10.1559L1012.77 192.687C1013.59 196.255 1011.67 198.177 1008.38 198.177H941.677C938.658 198.177 937.011 196.53 936.462 193.785L930.698 166.886H902.701L896.937 193.785C896.388 196.53 894.741 198.177 891.722 198.177H825.297ZM907.367 121.596H926.032L919.444 84.2663L918.072 73.0125H915.327L913.955 84.2663L907.367 121.596Z" fill="#000000"/>
<path d="M1110.25 202.569C1052.88 202.569 1010.88 158.377 1010.88 102.108C1010.88 45.8387 1052.61 1.64691 1110.25 1.64691C1164.87 1.64691 1202.75 35.1338 1208.24 87.5601C1208.79 90.8539 1206.86 92.7753 1203.57 92.7753H1140.99C1138.24 92.7753 1136.32 91.4029 1135.22 88.6581C1132.21 82.0705 1125.89 75.7574 1114.36 75.7574C1099.82 75.7574 1089.93 87.8346 1089.93 102.108C1089.93 116.93 1099.82 128.458 1114.36 128.458C1125.89 128.458 1132.21 121.871 1135.22 115.283C1136.32 112.538 1138.24 111.166 1140.99 111.166H1203.02C1206.32 111.166 1208.24 112.813 1207.96 116.106C1203.85 168.533 1165.14 202.569 1110.25 202.569Z" fill="white"/>
<path d="M1110.25 202.569C1052.88 202.569 1010.88 158.377 1010.88 102.108C1010.88 45.8387 1052.61 1.64691 1110.25 1.64691C1164.87 1.64691 1202.75 35.1338 1208.24 87.5601C1208.79 90.8539 1206.86 92.7753 1203.57 92.7753H1140.99C1138.24 92.7753 1136.32 91.4029 1135.22 88.6581C1132.21 82.0705 1125.89 75.7574 1114.36 75.7574C1099.82 75.7574 1089.93 87.8346 1089.93 102.108C1089.93 116.93 1099.82 128.458 1114.36 128.458C1125.89 128.458 1132.21 121.871 1135.22 115.283C1136.32 112.538 1138.24 111.166 1140.99 111.166H1203.02C1206.32 111.166 1208.24 112.813 1207.96 116.106C1203.85 168.533 1165.14 202.569 1110.25 202.569Z" fill="#000000"/>
<path d="M1324.92 198.177C1321.91 198.177 1319.98 196.255 1319.98 193.236V126.537H1299.67V193.236C1299.67 196.255 1297.75 198.177 1294.73 198.177H1231.6C1228.58 198.177 1226.66 196.255 1226.66 193.236V10.9793C1226.66 7.96002 1228.58 6.03863 1231.6 6.03863H1294.73C1297.75 6.03863 1299.67 7.96002 1299.67 10.9793V74.6594H1319.98V10.9793C1319.98 7.96002 1321.91 6.03863 1324.92 6.03863H1388.06C1391.07 6.03863 1393 7.96002 1393 10.9793V193.236C1393 196.255 1391.07 198.177 1388.06 198.177H1324.92Z" fill="white"/>
<path d="M1324.92 198.177C1321.91 198.177 1319.98 196.255 1319.98 193.236V126.537H1299.67V193.236C1299.67 196.255 1297.75 198.177 1294.73 198.177H1231.6C1228.58 198.177 1226.66 196.255 1226.66 193.236V10.9793C1226.66 7.96002 1228.58 6.03863 1231.6 6.03863H1294.73C1297.75 6.03863 1299.67 7.96002 1299.67 10.9793V74.6594H1319.98V10.9793C1319.98 7.96002 1321.91 6.03863 1324.92 6.03863H1388.06C1391.07 6.03863 1393 7.96002 1393 10.9793V193.236C1393 196.255 1391.07 198.177 1388.06 198.177H1324.92Z" fill="#000000"/>
<path d="M1578.83 119.859C1578.83 113.332 1576.69 108.131 1572.41 104.256C1568.33 100.177 1563.74 96.4041 1558.64 92.9369C1553.74 89.2658 1549.16 85.3906 1544.87 81.3116C1540.79 77.0285 1538.75 71.4198 1538.75 64.4854V5.44092H1616.15V63.5676C1606.77 63.5676 1601.16 64.3834 1599.33 66.0151C1597.49 67.6467 1596.57 72.7455 1596.57 81.3116V128.119C1596.57 151.777 1590.35 169.929 1577.91 182.574C1565.47 195.016 1544.36 201.236 1514.59 201.236C1483.79 201.236 1462.37 195.525 1450.34 184.104C1438.51 172.479 1432.8 153.919 1433.21 128.425V81.9234C1433.21 77.6404 1433.11 74.2752 1432.9 71.8277C1432.9 69.3803 1432.29 67.6467 1431.07 66.6269C1429.84 65.4032 1427.91 64.6894 1425.25 64.4854C1422.6 64.0775 1418.73 63.8736 1413.63 63.8736V5.44092H1514.28V64.4854C1508.57 64.4854 1504.18 64.6894 1501.12 65.0973C1498.06 65.3012 1495.82 66.0151 1494.39 67.2388C1492.97 68.2586 1492.15 69.9922 1491.95 72.4396C1491.74 74.887 1491.64 78.2523 1491.64 82.5353V104.256C1491.64 111.191 1492.15 117.003 1493.17 121.694C1494.39 126.181 1496.64 129.852 1499.9 132.708C1503.16 135.563 1507.75 137.603 1513.67 138.826C1519.58 140.05 1527.23 140.662 1536.61 140.662C1551.5 140.662 1562.21 138.826 1568.73 135.155C1575.47 131.484 1578.83 126.385 1578.83 119.859Z" fill="white"/>
<path d="M1578.83 119.859C1578.83 113.332 1576.69 108.131 1572.41 104.256C1568.33 100.177 1563.74 96.4041 1558.64 92.9369C1553.74 89.2658 1549.16 85.3906 1544.87 81.3116C1540.79 77.0285 1538.75 71.4198 1538.75 64.4854V5.44092H1616.15V63.5676C1606.77 63.5676 1601.16 64.3834 1599.33 66.0151C1597.49 67.6467 1596.57 72.7455 1596.57 81.3116V128.119C1596.57 151.777 1590.35 169.929 1577.91 182.574C1565.47 195.016 1544.36 201.236 1514.59 201.236C1483.79 201.236 1462.37 195.525 1450.34 184.104C1438.51 172.479 1432.8 153.919 1433.21 128.425V81.9234C1433.21 77.6404 1433.11 74.2752 1432.9 71.8277C1432.9 69.3803 1432.29 67.6467 1431.07 66.6269C1429.84 65.4032 1427.91 64.6894 1425.25 64.4854C1422.6 64.0775 1418.73 63.8736 1413.63 63.8736V5.44092H1514.28V64.4854C1508.57 64.4854 1504.18 64.6894 1501.12 65.0973C1498.06 65.3012 1495.82 66.0151 1494.39 67.2388C1492.97 68.2586 1492.15 69.9922 1491.95 72.4396C1491.74 74.887 1491.64 78.2523 1491.64 82.5353V104.256C1491.64 111.191 1492.15 117.003 1493.17 121.694C1494.39 126.181 1496.64 129.852 1499.9 132.708C1503.16 135.563 1507.75 137.603 1513.67 138.826C1519.58 140.05 1527.23 140.662 1536.61 140.662C1551.5 140.662 1562.21 138.826 1568.73 135.155C1575.47 131.484 1578.83 126.385 1578.83 119.859Z" fill="#000000"/>
<path d="M1713.53 202.02C1676.75 202.02 1635.85 185.002 1632.83 132.575C1632.55 129.282 1634.48 127.36 1637.49 127.36H1696.78C1700.35 127.36 1702.55 129.556 1702.55 132.575C1702.82 139.437 1705.57 144.653 1713.8 144.653C1719.29 144.653 1722.31 140.81 1722.58 136.418C1722.31 124.89 1708.59 124.341 1686.9 120.498C1657.53 115.283 1633.38 99.3629 1633.65 63.1311C1633.38 23.88 1666.86 0 1709.68 0C1739.6 0 1783.52 13.7242 1785.72 64.2291C1785.72 67.5229 1783.79 69.4442 1780.77 69.4442H1725.6C1722.31 69.4442 1720.66 67.5229 1720.39 64.5035C1720.11 59.5629 1718.74 53.7987 1710.78 53.7987C1706.39 53.7987 1703.37 56.5435 1703.37 60.9353C1703.37 71.0911 1717.09 71.0911 1738.5 76.3063C1768.15 83.4429 1792.03 99.9119 1792.3 136.418C1792.58 181.433 1755.25 202.02 1713.53 202.02Z" fill="white"/>
<path d="M1713.53 202.02C1676.75 202.02 1635.85 185.002 1632.83 132.575C1632.55 129.282 1634.48 127.36 1637.49 127.36H1696.78C1700.35 127.36 1702.55 129.556 1702.55 132.575C1702.82 139.437 1705.57 144.653 1713.8 144.653C1719.29 144.653 1722.31 140.81 1722.58 136.418C1722.31 124.89 1708.59 124.341 1686.9 120.498C1657.53 115.283 1633.38 99.3629 1633.65 63.1311C1633.38 23.88 1666.86 0 1709.68 0C1739.6 0 1783.52 13.7242 1785.72 64.2291C1785.72 67.5229 1783.79 69.4442 1780.77 69.4442H1725.6C1722.31 69.4442 1720.66 67.5229 1720.39 64.5035C1720.11 59.5629 1718.74 53.7987 1710.78 53.7987C1706.39 53.7987 1703.37 56.5435 1703.37 60.9353C1703.37 71.0911 1717.09 71.0911 1738.5 76.3063C1768.15 83.4429 1792.03 99.9119 1792.3 136.418C1792.58 181.433 1755.25 202.02 1713.53 202.02Z" fill="#000000"/>
<path d="M1804.32 198.177V197.565C1806.36 194.71 1808 191.956 1809.22 189.305C1810.44 186.45 1811.36 182.982 1811.97 178.903C1812.79 174.62 1813.2 168.91 1813.2 161.771C1813.6 154.225 1813.81 145.455 1813.81 135.461C1813.81 125.467 1813.81 115.168 1813.81 104.562C1813.81 93.7527 1813.81 82.9432 1813.81 72.1337C1813.81 61.3241 1813.6 51.3304 1813.2 42.1525C1812.99 31.343 1812.07 23.2868 1810.44 17.9841C1809.02 12.6813 1806.98 8.70419 1804.32 6.05279V5.44092H1953.62C1953.41 10.5398 1953.31 15.6386 1953.31 20.7374C1953.31 25.6323 1953.31 30.8331 1953.31 36.3399C1953.31 47.1494 1953.62 59.4886 1954.23 73.3574H1953.62C1950.76 65.4032 1947.81 59.4886 1944.75 55.6134C1941.89 51.5344 1937.71 48.883 1932.2 47.6593C1926.7 46.4355 1918.44 45.8237 1907.42 45.8237C1897.63 45.8237 1888.66 45.9257 1880.5 46.1296C1872.55 46.3336 1864.59 46.6395 1856.64 47.0474C1856.43 57.449 1856.23 69.9922 1856.03 84.6768C1856.03 99.3614 1855.72 114.25 1855.11 129.343H1855.72C1857.15 106.5 1861.74 89.9796 1869.49 79.7819C1877.24 69.3803 1888.56 64.1795 1903.45 64.1795C1917.11 64.1795 1926.7 67.5447 1932.2 74.2752C1937.91 80.8017 1940.77 89.7756 1940.77 101.197C1940.77 114.25 1937.2 125.264 1930.06 134.237C1922.92 143.007 1913.24 147.392 1901 147.392C1893.25 147.392 1887.23 145.557 1882.95 141.886C1878.67 138.215 1876.52 132.912 1876.52 125.977C1876.52 120.879 1878.16 116.392 1881.42 112.516C1884.68 108.641 1889.58 106.704 1896.1 106.704C1901.41 106.704 1905.89 108.437 1909.56 111.905C1913.24 115.372 1915.07 120.165 1915.07 126.283C1915.07 129.343 1914.05 133.116 1912.01 137.603C1909.97 142.09 1906 144.945 1900.08 146.169C1909.26 145.149 1915.89 142.192 1919.97 137.297C1924.25 132.198 1926.39 127.201 1926.39 122.306C1926.39 113.536 1923.54 107.112 1917.82 103.033C1912.32 98.9535 1904.67 96.914 1894.88 96.914C1884.68 96.914 1876.01 99.5654 1868.88 104.868C1861.94 110.171 1858.07 118.839 1857.25 130.872C1857.05 132.912 1856.94 135.053 1856.94 137.297C1856.94 139.336 1856.94 141.478 1856.94 143.721C1856.94 147.596 1857.05 151.879 1857.25 156.57C1865.2 157.182 1873.26 157.59 1881.42 157.794C1889.58 157.794 1898.55 157.794 1908.34 157.794C1916.91 157.794 1923.74 157.488 1928.84 156.876C1933.94 156.264 1937.91 155.041 1940.77 153.205C1943.83 151.166 1946.38 148.412 1948.42 144.945C1950.46 141.274 1952.5 136.379 1954.54 130.26H1955.15C1954.94 136.787 1954.74 143.211 1954.54 149.534C1954.54 155.857 1954.54 162.179 1954.54 168.502C1954.54 174.212 1954.54 179.515 1954.54 184.41C1954.54 189.101 1954.64 193.69 1954.84 198.177H1804.32Z" fill="white"/>
<path d="M1804.32 198.177V197.565C1806.36 194.71 1808 191.956 1809.22 189.305C1810.44 186.45 1811.36 182.982 1811.97 178.903C1812.79 174.62 1813.2 168.91 1813.2 161.771C1813.6 154.225 1813.81 145.455 1813.81 135.461C1813.81 125.467 1813.81 115.168 1813.81 104.562C1813.81 93.7527 1813.81 82.9432 1813.81 72.1337C1813.81 61.3241 1813.6 51.3304 1813.2 42.1525C1812.99 31.343 1812.07 23.2868 1810.44 17.9841C1809.02 12.6813 1806.98 8.70419 1804.32 6.05279V5.44092H1953.62C1953.41 10.5398 1953.31 15.6386 1953.31 20.7374C1953.31 25.6323 1953.31 30.8331 1953.31 36.3399C1953.31 47.1494 1953.62 59.4886 1954.23 73.3574H1953.62C1950.76 65.4032 1947.81 59.4886 1944.75 55.6134C1941.89 51.5344 1937.71 48.883 1932.2 47.6593C1926.7 46.4355 1918.44 45.8237 1907.42 45.8237C1897.63 45.8237 1888.66 45.9257 1880.5 46.1296C1872.55 46.3336 1864.59 46.6395 1856.64 47.0474C1856.43 57.449 1856.23 69.9922 1856.03 84.6768C1856.03 99.3614 1855.72 114.25 1855.11 129.343H1855.72C1857.15 106.5 1861.74 89.9796 1869.49 79.7819C1877.24 69.3803 1888.56 64.1795 1903.45 64.1795C1917.11 64.1795 1926.7 67.5447 1932.2 74.2752C1937.91 80.8017 1940.77 89.7756 1940.77 101.197C1940.77 114.25 1937.2 125.264 1930.06 134.237C1922.92 143.007 1913.24 147.392 1901 147.392C1893.25 147.392 1887.23 145.557 1882.95 141.886C1878.67 138.215 1876.52 132.912 1876.52 125.977C1876.52 120.879 1878.16 116.392 1881.42 112.516C1884.68 108.641 1889.58 106.704 1896.1 106.704C1901.41 106.704 1905.89 108.437 1909.56 111.905C1913.24 115.372 1915.07 120.165 1915.07 126.283C1915.07 129.343 1914.05 133.116 1912.01 137.603C1909.97 142.09 1906 144.945 1900.08 146.169C1909.26 145.149 1915.89 142.192 1919.97 137.297C1924.25 132.198 1926.39 127.201 1926.39 122.306C1926.39 113.536 1923.54 107.112 1917.82 103.033C1912.32 98.9535 1904.67 96.914 1894.88 96.914C1884.68 96.914 1876.01 99.5654 1868.88 104.868C1861.94 110.171 1858.07 118.839 1857.25 130.872C1857.05 132.912 1856.94 135.053 1856.94 137.297C1856.94 139.336 1856.94 141.478 1856.94 143.721C1856.94 147.596 1857.05 151.879 1857.25 156.57C1865.2 157.182 1873.26 157.59 1881.42 157.794C1889.58 157.794 1898.55 157.794 1908.34 157.794C1916.91 157.794 1923.74 157.488 1928.84 156.876C1933.94 156.264 1937.91 155.041 1940.77 153.205C1943.83 151.166 1946.38 148.412 1948.42 144.945C1950.46 141.274 1952.5 136.379 1954.54 130.26H1955.15C1954.94 136.787 1954.74 143.211 1954.54 149.534C1954.54 155.857 1954.54 162.179 1954.54 168.502C1954.54 174.212 1954.54 179.515 1954.54 184.41C1954.54 189.101 1954.64 193.69 1954.84 198.177H1804.32Z" fill="#000000"/>
<path d="M2017.23 198.177C2014.22 198.177 2012.29 196.255 2012.29 193.236V71.9146H1976.89C1973.87 71.9146 1971.94 69.9932 1971.94 66.9739V10.9793C1971.94 7.96002 1973.87 6.03863 1976.89 6.03863H2120.44C2123.46 6.03863 2125.38 7.96002 2125.38 10.9793V66.9739C2125.38 69.9932 2123.46 71.9146 2120.44 71.9146H2084.76V193.236C2084.76 196.255 2082.84 198.177 2079.82 198.177H2017.23Z" fill="white"/>
<path d="M2017.23 198.177C2014.22 198.177 2012.29 196.255 2012.29 193.236V71.9146H1976.89C1973.87 71.9146 1971.94 69.9932 1971.94 66.9739V10.9793C1971.94 7.96002 1973.87 6.03863 1976.89 6.03863H2120.44C2123.46 6.03863 2125.38 7.96002 2125.38 10.9793V66.9739C2125.38 69.9932 2123.46 71.9146 2120.44 71.9146H2084.76V193.236C2084.76 196.255 2082.84 198.177 2079.82 198.177H2017.23Z" fill="#000000"/>
<path d="M2192.13 198.177C2189.11 198.177 2187.19 196.255 2187.19 193.236V71.9146H2151.78C2148.76 71.9146 2146.84 69.9932 2146.84 66.9739V10.9793C2146.84 7.96002 2148.76 6.03863 2151.78 6.03863H2295.34C2298.36 6.03863 2300.28 7.96002 2300.28 10.9793V66.9739C2300.28 69.9932 2298.36 71.9146 2295.34 71.9146H2259.65V193.236C2259.65 196.255 2257.73 198.177 2254.71 198.177H2192.13Z" fill="white"/>
<path d="M2192.13 198.177C2189.11 198.177 2187.19 196.255 2187.19 193.236V71.9146H2151.78C2148.76 71.9146 2146.84 69.9932 2146.84 66.9739V10.9793C2146.84 7.96002 2148.76 6.03863 2151.78 6.03863H2295.34C2298.36 6.03863 2300.28 7.96002 2300.28 10.9793V66.9739C2300.28 69.9932 2298.36 71.9146 2295.34 71.9146H2259.65V193.236C2259.65 196.255 2257.73 198.177 2254.71 198.177H2192.13Z" fill="#000000"/>
<path d="M2397.36 202.02C2360.58 202.02 2319.68 185.002 2316.66 132.575C2316.38 129.282 2318.31 127.36 2321.33 127.36H2380.61C2384.18 127.36 2386.38 129.556 2386.38 132.575C2386.65 139.437 2389.4 144.653 2397.63 144.653C2403.12 144.653 2406.14 140.81 2406.42 136.418C2406.14 124.89 2392.42 124.341 2370.73 120.498C2341.36 115.283 2317.21 99.3629 2317.48 63.1311C2317.21 23.88 2350.7 0 2393.51 0C2423.43 0 2467.35 13.7242 2469.55 64.2291C2469.55 67.5229 2467.62 69.4442 2464.61 69.4442H2409.43C2406.14 69.4442 2404.49 67.5229 2404.22 64.5035C2403.94 59.5629 2402.57 53.7987 2394.61 53.7987C2390.22 53.7987 2387.2 56.5435 2387.2 60.9353C2387.2 71.0911 2400.93 71.0911 2422.34 76.3063C2451.98 83.4429 2475.86 99.9119 2476.13 136.418C2476.41 181.433 2439.08 202.02 2397.36 202.02Z" fill="white"/>
<path d="M2397.36 202.02C2360.58 202.02 2319.68 185.002 2316.66 132.575C2316.38 129.282 2318.31 127.36 2321.33 127.36H2380.61C2384.18 127.36 2386.38 129.556 2386.38 132.575C2386.65 139.437 2389.4 144.653 2397.63 144.653C2403.12 144.653 2406.14 140.81 2406.42 136.418C2406.14 124.89 2392.42 124.341 2370.73 120.498C2341.36 115.283 2317.21 99.3629 2317.48 63.1311C2317.21 23.88 2350.7 0 2393.51 0C2423.43 0 2467.35 13.7242 2469.55 64.2291C2469.55 67.5229 2467.62 69.4442 2464.61 69.4442H2409.43C2406.14 69.4442 2404.49 67.5229 2404.22 64.5035C2403.94 59.5629 2402.57 53.7987 2394.61 53.7987C2390.22 53.7987 2387.2 56.5435 2387.2 60.9353C2387.2 71.0911 2400.93 71.0911 2422.34 76.3063C2451.98 83.4429 2475.86 99.9119 2476.13 136.418C2476.41 181.433 2439.08 202.02 2397.36 202.02Z" fill="#000000"/>
</svg>
