<svg width="896" height="193" viewBox="0 0 896 193" fill="none" xmlns="http://www.w3.org/2000/svg">
<path d="M4.9407 192.736C1.92138 192.736 0 190.815 0 187.795V5.53841C0 2.5191 1.92138 0.597712 4.9407 0.597712H76.3063C79.0511 0.597712 81.247 2.24462 81.796 4.98945L97.4415 69.7675L106.774 110.665H108.421L117.753 70.0419L133.399 4.98945C133.948 2.24462 136.144 0.597712 138.888 0.597712H210.254C213.273 0.597712 215.195 2.5191 215.195 5.53841V187.795C215.195 190.815 213.273 192.736 210.254 192.736H152.887C149.868 192.736 147.946 190.815 147.946 187.795L148.221 148.544C148.221 134.82 150.966 101.333 152.064 93.6475L149.868 93.373C148.221 101.608 143.28 124.939 141.084 133.173L126.262 188.619C125.439 191.638 123.517 192.736 120.773 192.736H95.2457C92.5008 192.736 90.5794 191.638 89.756 188.619L74.9339 133.173C72.738 124.939 67.7973 101.608 66.1504 93.373L63.9546 93.6475C65.0525 101.333 67.7973 134.82 67.7973 148.544L68.0718 187.795C68.0718 190.815 66.1504 192.736 63.1311 192.736H4.9407Z" fill="white"/>
<path d="M4.9407 192.736C1.92138 192.736 0 190.815 0 187.795V5.53841C0 2.5191 1.92138 0.597712 4.9407 0.597712H76.3063C79.0511 0.597712 81.247 2.24462 81.796 4.98945L97.4415 69.7675L106.774 110.665H108.421L117.753 70.0419L133.399 4.98945C133.948 2.24462 136.144 0.597712 138.888 0.597712H210.254C213.273 0.597712 215.195 2.5191 215.195 5.53841V187.795C215.195 190.815 213.273 192.736 210.254 192.736H152.887C149.868 192.736 147.946 190.815 147.946 187.795L148.221 148.544C148.221 134.82 150.966 101.333 152.064 93.6475L149.868 93.373C148.221 101.608 143.28 124.939 141.084 133.173L126.262 188.619C125.439 191.638 123.517 192.736 120.773 192.736H95.2457C92.5008 192.736 90.5794 191.638 89.756 188.619L74.9339 133.173C72.738 124.939 67.7973 101.608 66.1504 93.373L63.9546 93.6475C65.0525 101.333 67.7973 134.82 67.7973 148.544L68.0718 187.795C68.0718 190.815 66.1504 192.736 63.1311 192.736H4.9407Z" fill="#000000"/>
<path d="M322.638 137.057V192.736H233.918V133.997C236.977 133.182 240.547 131.346 244.626 128.491C248.705 125.431 252.784 121.862 256.863 117.783C260.942 113.5 264.817 108.605 268.488 103.098C272.363 97.5917 275.627 91.881 278.278 85.9663C279.502 83.111 280.42 80.3576 281.031 77.7062C281.847 75.0548 282.255 71.8936 282.255 68.2224C282.255 65.571 281.337 63.1236 279.502 60.8801C277.87 58.6366 275.015 57.5148 270.936 57.5148H257.169V0H397.285V42.8302C397.285 51.6002 399.324 60.3702 403.403 69.1402C407.482 77.9102 411.154 84.9466 414.417 90.2494L426.96 110.747C431.651 118.497 435.424 124.106 438.279 127.573C441.339 131.04 444.092 133.182 446.54 133.997V192.736H344.053V137.057C349.152 137.057 352.823 136.037 355.066 133.997C357.31 131.958 358.432 129.408 358.432 126.349C358.432 124.31 358.024 122.372 357.208 120.536C356.596 118.701 355.882 117.069 355.066 115.642L352.313 111.359H291.739C292.759 117.069 295.716 122.372 300.611 127.267C305.506 132.162 312.848 135.425 322.638 137.057ZM298.163 83.213C296.736 85.2525 295.512 87.496 294.492 89.9434C293.676 92.1869 292.963 94.3284 292.351 96.368H343.441L317.131 53.2318L298.163 83.213Z" fill="white"/>
<path d="M322.638 137.057V192.736H233.918V133.997C236.977 133.182 240.547 131.346 244.626 128.491C248.705 125.431 252.784 121.862 256.863 117.783C260.942 113.5 264.817 108.605 268.488 103.098C272.363 97.5917 275.627 91.881 278.278 85.9663C279.502 83.111 280.42 80.3576 281.031 77.7062C281.847 75.0548 282.255 71.8936 282.255 68.2224C282.255 65.571 281.337 63.1236 279.502 60.8801C277.87 58.6366 275.015 57.5148 270.936 57.5148H257.169V0H397.285V42.8302C397.285 51.6002 399.324 60.3702 403.403 69.1402C407.482 77.9102 411.154 84.9466 414.417 90.2494L426.96 110.747C431.651 118.497 435.424 124.106 438.279 127.573C441.339 131.04 444.092 133.182 446.54 133.997V192.736H344.053V137.057C349.152 137.057 352.823 136.037 355.066 133.997C357.31 131.958 358.432 129.408 358.432 126.349C358.432 124.31 358.024 122.372 357.208 120.536C356.596 118.701 355.882 117.069 355.066 115.642L352.313 111.359H291.739C292.759 117.069 295.716 122.372 300.611 127.267C305.506 132.162 312.848 135.425 322.638 137.057ZM298.163 83.213C296.736 85.2525 295.512 87.496 294.492 89.9434C293.676 92.1869 292.963 94.3284 292.351 96.368H343.441L317.131 53.2318L298.163 83.213Z" fill="#000000"/>
<path d="M470.835 192.736C467.815 192.736 465.894 190.815 465.894 187.795V5.53841C465.894 2.5191 467.815 0.597712 470.835 0.597712H533.417C536.436 0.597712 538.357 2.5191 538.357 5.53841V187.795C538.357 190.815 536.436 192.736 533.417 192.736H470.835Z" fill="white"/>
<path d="M470.835 192.736C467.815 192.736 465.894 190.815 465.894 187.795V5.53841C465.894 2.5191 467.815 0.597712 470.835 0.597712H533.417C536.436 0.597712 538.357 2.5191 538.357 5.53841V187.795C538.357 190.815 536.436 192.736 533.417 192.736H470.835Z" fill="#000000"/>
<path d="M566.925 192.736C563.906 192.736 561.984 190.815 561.984 187.795V5.53841C561.984 2.5191 563.906 0.597712 566.925 0.597712H632.527C635.271 0.597712 637.467 2.24462 638.016 4.98945L652.838 71.4144C655.034 81.2958 656.132 91.4516 658.328 101.333L660.249 101.059C659.426 91.7261 657.505 70.8654 657.505 64.0033L656.956 5.53841C656.956 2.5191 658.877 0.597712 661.896 0.597712H721.734C724.753 0.597712 726.674 2.5191 726.674 5.53841V187.795C726.674 190.815 724.753 192.736 721.734 192.736H662.994C660.249 192.736 658.328 191.638 657.505 188.619L638.84 121.919C636.095 112.038 634.174 101.882 631.978 92.0006L630.056 92.2751C631.154 101.608 633.076 122.468 633.076 129.33L633.625 187.795C633.625 190.815 631.703 192.736 628.684 192.736H566.925Z" fill="white"/>
<path d="M566.925 192.736C563.906 192.736 561.984 190.815 561.984 187.795V5.53841C561.984 2.5191 563.906 0.597712 566.925 0.597712H632.527C635.271 0.597712 637.467 2.24462 638.016 4.98945L652.838 71.4144C655.034 81.2958 656.132 91.4516 658.328 101.333L660.249 101.059C659.426 91.7261 657.505 70.8654 657.505 64.0033L656.956 5.53841C656.956 2.5191 658.877 0.597712 661.896 0.597712H721.734C724.753 0.597712 726.674 2.5191 726.674 5.53841V187.795C726.674 190.815 724.753 192.736 721.734 192.736H662.994C660.249 192.736 658.328 191.638 657.505 188.619L638.84 121.919C636.095 112.038 634.174 101.882 631.978 92.0006L630.056 92.2751C631.154 101.608 633.076 122.468 633.076 129.33L633.625 187.795C633.625 190.815 631.703 192.736 628.684 192.736H566.925Z" fill="#000000"/>
<path d="M744.897 192.736V192.124C746.937 189.269 748.569 186.515 749.792 183.864C751.016 181.009 751.934 177.541 752.546 173.462C753.361 169.179 753.769 163.469 753.769 156.33C754.177 148.784 754.381 140.014 754.381 130.02C754.381 120.027 754.381 109.727 754.381 99.1213C754.381 88.3118 754.381 77.5023 754.381 66.6927C754.381 55.8832 754.177 45.8895 753.769 36.7116C753.565 25.9021 752.648 17.8459 751.016 12.5431C749.588 7.24035 747.549 3.26327 744.897 0.61187V0H894.191C893.987 5.09884 893.885 10.1977 893.885 15.2965C893.885 20.1914 893.885 25.3922 893.885 30.8989C893.885 41.7085 894.191 54.0476 894.803 67.9165H894.191C891.336 59.9623 888.379 54.0476 885.319 50.1725C882.464 46.0935 878.283 43.4421 872.776 42.2184C867.269 40.9946 859.009 40.3828 847.996 40.3828C838.206 40.3828 829.232 40.4847 821.074 40.6887C813.12 40.8927 805.166 41.1986 797.211 41.6065C797.007 52.0081 796.804 64.5512 796.6 79.2359C796.6 93.9205 796.294 108.809 795.682 123.902H796.294C797.721 101.059 802.31 84.5387 810.06 74.341C817.811 63.9394 829.13 58.7386 844.019 58.7386C857.684 58.7386 867.269 62.1038 872.776 68.8343C878.487 75.3608 881.342 84.3347 881.342 95.7561C881.342 108.809 877.773 119.823 870.635 128.797C863.496 137.567 853.808 141.952 841.571 141.952C833.821 141.952 827.804 140.116 823.521 136.445C819.238 132.774 817.097 127.471 817.097 120.536C817.097 115.438 818.729 110.951 821.992 107.076C825.255 103.2 830.15 101.263 836.676 101.263C841.979 101.263 846.466 102.996 850.137 106.464C853.808 109.931 855.644 114.724 855.644 120.842C855.644 123.902 854.624 127.675 852.585 132.162C850.545 136.649 846.568 139.504 840.654 140.728C849.831 139.708 856.46 136.751 860.539 131.856C864.822 126.757 866.963 121.76 866.963 116.865C866.963 108.095 864.108 101.671 858.397 97.5917C852.891 93.5126 845.242 91.4731 835.453 91.4731C825.255 91.4731 816.587 94.1245 809.449 99.4273C802.514 104.73 798.639 113.398 797.823 125.431C797.619 127.471 797.517 129.612 797.517 131.856C797.517 133.895 797.517 136.037 797.517 138.28C797.517 142.155 797.619 146.438 797.823 151.129C805.777 151.741 813.834 152.149 821.992 152.353C830.15 152.353 839.124 152.353 848.914 152.353C857.48 152.353 864.312 152.047 869.411 151.435C874.51 150.824 878.487 149.6 881.342 147.764C884.401 145.725 886.951 142.971 888.99 139.504C891.03 135.833 893.069 130.938 895.109 124.819H895.721C895.517 131.346 895.313 137.77 895.109 144.093C895.109 150.416 895.109 156.738 895.109 163.061C895.109 168.771 895.109 174.074 895.109 178.969C895.109 183.66 895.211 188.249 895.415 192.736H744.897Z" fill="white"/>
<path d="M744.897 192.736V192.124C746.937 189.269 748.569 186.515 749.792 183.864C751.016 181.009 751.934 177.541 752.546 173.462C753.361 169.179 753.769 163.469 753.769 156.33C754.177 148.784 754.381 140.014 754.381 130.02C754.381 120.027 754.381 109.727 754.381 99.1213C754.381 88.3118 754.381 77.5023 754.381 66.6927C754.381 55.8832 754.177 45.8895 753.769 36.7116C753.565 25.9021 752.648 17.8459 751.016 12.5431C749.588 7.24035 747.549 3.26327 744.897 0.61187V0H894.191C893.987 5.09884 893.885 10.1977 893.885 15.2965C893.885 20.1914 893.885 25.3922 893.885 30.8989C893.885 41.7085 894.191 54.0476 894.803 67.9165H894.191C891.336 59.9623 888.379 54.0476 885.319 50.1725C882.464 46.0935 878.283 43.4421 872.776 42.2184C867.269 40.9946 859.009 40.3828 847.996 40.3828C838.206 40.3828 829.232 40.4847 821.074 40.6887C813.12 40.8927 805.166 41.1986 797.211 41.6065C797.007 52.0081 796.804 64.5512 796.6 79.2359C796.6 93.9205 796.294 108.809 795.682 123.902H796.294C797.721 101.059 802.31 84.5387 810.06 74.341C817.811 63.9394 829.13 58.7386 844.019 58.7386C857.684 58.7386 867.269 62.1038 872.776 68.8343C878.487 75.3608 881.342 84.3347 881.342 95.7561C881.342 108.809 877.773 119.823 870.635 128.797C863.496 137.567 853.808 141.952 841.571 141.952C833.821 141.952 827.804 140.116 823.521 136.445C819.238 132.774 817.097 127.471 817.097 120.536C817.097 115.438 818.729 110.951 821.992 107.076C825.255 103.2 830.15 101.263 836.676 101.263C841.979 101.263 846.466 102.996 850.137 106.464C853.808 109.931 855.644 114.724 855.644 120.842C855.644 123.902 854.624 127.675 852.585 132.162C850.545 136.649 846.568 139.504 840.654 140.728C849.831 139.708 856.46 136.751 860.539 131.856C864.822 126.757 866.963 121.76 866.963 116.865C866.963 108.095 864.108 101.671 858.397 97.5917C852.891 93.5126 845.242 91.4731 835.453 91.4731C825.255 91.4731 816.587 94.1245 809.449 99.4273C802.514 104.73 798.639 113.398 797.823 125.431C797.619 127.471 797.517 129.612 797.517 131.856C797.517 133.895 797.517 136.037 797.517 138.28C797.517 142.155 797.619 146.438 797.823 151.129C805.777 151.741 813.834 152.149 821.992 152.353C830.15 152.353 839.124 152.353 848.914 152.353C857.48 152.353 864.312 152.047 869.411 151.435C874.51 150.824 878.487 149.6 881.342 147.764C884.401 145.725 886.951 142.971 888.99 139.504C891.03 135.833 893.069 130.938 895.109 124.819H895.721C895.517 131.346 895.313 137.77 895.109 144.093C895.109 150.416 895.109 156.738 895.109 163.061C895.109 168.771 895.109 174.074 895.109 178.969C895.109 183.66 895.211 188.249 895.415 192.736H744.897Z" fill="#000000"/>
</svg>
