<svg width="1406" height="203" viewBox="0 0 1406 203" fill="none" xmlns="http://www.w3.org/2000/svg">
<path d="M4.9407 198.177C1.92138 198.177 0 196.255 0 193.236V10.9793C0 7.96002 1.92138 6.03863 4.9407 6.03863H76.3063C79.0511 6.03863 81.247 7.68554 81.796 10.4304L97.4415 75.2084L106.774 116.106H108.421L117.753 75.4829L133.399 10.4304C133.948 7.68554 136.144 6.03863 138.888 6.03863H210.254C213.273 6.03863 215.195 7.96002 215.195 10.9793V193.236C215.195 196.255 213.273 198.177 210.254 198.177H152.887C149.868 198.177 147.946 196.255 147.946 193.236L148.221 153.985C148.221 140.261 150.966 106.774 152.064 99.0884L149.868 98.8139C148.221 107.048 143.28 130.38 141.084 138.614L126.262 194.06C125.439 197.079 123.517 198.177 120.773 198.177H95.2457C92.5008 198.177 90.5794 197.079 89.756 194.06L74.9339 138.614C72.738 130.38 67.7973 107.048 66.1504 98.8139L63.9546 99.0884C65.0525 106.774 67.7973 140.261 67.7973 153.985L68.0718 193.236C68.0718 196.255 66.1504 198.177 63.1311 198.177H4.9407Z" fill="white"/>
<path d="M4.9407 198.177C1.92138 198.177 0 196.255 0 193.236V10.9793C0 7.96002 1.92138 6.03863 4.9407 6.03863H76.3063C79.0511 6.03863 81.247 7.68554 81.796 10.4304L97.4415 75.2084L106.774 116.106H108.421L117.753 75.4829L133.399 10.4304C133.948 7.68554 136.144 6.03863 138.888 6.03863H210.254C213.273 6.03863 215.195 7.96002 215.195 10.9793V193.236C215.195 196.255 213.273 198.177 210.254 198.177H152.887C149.868 198.177 147.946 196.255 147.946 193.236L148.221 153.985C148.221 140.261 150.966 106.774 152.064 99.0884L149.868 98.8139C148.221 107.048 143.28 130.38 141.084 138.614L126.262 194.06C125.439 197.079 123.517 198.177 120.773 198.177H95.2457C92.5008 198.177 90.5794 197.079 89.756 194.06L74.9339 138.614C72.738 130.38 67.7973 107.048 66.1504 98.8139L63.9546 99.0884C65.0525 106.774 67.7973 140.261 67.7973 153.985L68.0718 193.236C68.0718 196.255 66.1504 198.177 63.1311 198.177H4.9407Z" fill="#000000"/>
<path d="M243.634 198.177C240.614 198.177 238.693 196.255 238.693 193.236V10.9793C238.693 7.96002 240.614 6.03863 243.634 6.03863H306.216C309.235 6.03863 311.157 7.96002 311.157 10.9793V193.236C311.157 196.255 309.235 198.177 306.216 198.177H243.634Z" fill="white"/>
<path d="M243.634 198.177C240.614 198.177 238.693 196.255 238.693 193.236V10.9793C238.693 7.96002 240.614 6.03863 243.634 6.03863H306.216C309.235 6.03863 311.157 7.96002 311.157 10.9793V193.236C311.157 196.255 309.235 198.177 306.216 198.177H243.634Z" fill="#000000"/>
<path d="M541.406 148.922C541.406 155.857 540.285 162.587 538.041 169.113C536.002 175.436 532.432 181.045 527.334 185.94C522.439 190.631 515.81 194.404 507.448 197.259C499.29 200.114 489.194 201.542 477.161 201.542C465.944 201.542 456.052 200.726 447.486 199.095C438.92 197.463 431.679 194.506 425.765 190.223C420.054 185.736 415.465 179.617 411.998 171.867C408.735 163.913 406.593 153.919 405.573 141.886H392.112V198.177H334.904V126.589H411.386C413.426 132.504 416.689 136.889 421.176 139.744C425.867 142.396 432.189 143.721 440.143 143.721C448.506 143.721 454.726 142.396 458.805 139.744C463.088 137.093 465.23 132.708 465.23 126.589C465.23 121.49 463.496 117.615 460.029 114.964C456.562 112.312 449.525 110.987 438.92 110.987C431.781 110.987 424.337 111.089 416.587 111.293C408.837 111.497 400.883 111.599 392.724 111.599C381.711 111.599 372.533 110.171 365.191 107.316C357.848 104.256 351.934 100.279 347.447 95.3843C343.164 90.4895 340.104 84.6768 338.269 77.9463C336.637 71.2159 335.821 64.1795 335.821 56.8372C335.821 49.2909 336.943 42.2545 339.187 35.728C341.43 28.9975 344.999 23.1849 349.894 18.29C354.789 13.3951 361.112 9.51999 368.862 6.66464C376.816 3.8093 386.198 2.38162 397.007 2.38162C407.001 2.38162 415.771 3.40139 423.317 5.44092C431.068 7.2765 437.594 10.6417 442.897 15.5366C448.404 20.2276 452.891 26.6521 456.358 34.8102C459.825 42.9683 462.272 53.166 463.7 65.4032H476.549V5.44092H534.676V80.6997H458.193C455.95 72.3376 452.483 67.0348 447.792 64.7914C443.101 62.3439 436.472 61.1202 427.906 61.1202C418.932 61.1202 412.916 62.7518 409.856 66.0151C406.797 69.0744 405.267 73.0515 405.267 77.9463C405.267 82.6373 407.409 86.3084 411.692 88.9598C415.975 91.6112 423.725 92.9369 434.943 92.9369C435.962 92.9369 438.206 92.9369 441.673 92.9369C445.344 92.733 449.423 92.631 453.91 92.631C458.601 92.427 463.394 92.3251 468.289 92.3251C473.184 92.1211 477.365 92.0191 480.832 92.0191C493.477 92.0191 503.777 93.4468 511.731 96.3021C519.685 98.9535 525.804 102.829 530.087 107.927C534.574 112.822 537.531 118.839 538.959 125.977C540.591 132.912 541.406 140.56 541.406 148.922Z" fill="white"/>
<path d="M541.406 148.922C541.406 155.857 540.285 162.587 538.041 169.113C536.002 175.436 532.432 181.045 527.334 185.94C522.439 190.631 515.81 194.404 507.448 197.259C499.29 200.114 489.194 201.542 477.161 201.542C465.944 201.542 456.052 200.726 447.486 199.095C438.92 197.463 431.679 194.506 425.765 190.223C420.054 185.736 415.465 179.617 411.998 171.867C408.735 163.913 406.593 153.919 405.573 141.886H392.112V198.177H334.904V126.589H411.386C413.426 132.504 416.689 136.889 421.176 139.744C425.867 142.396 432.189 143.721 440.143 143.721C448.506 143.721 454.726 142.396 458.805 139.744C463.088 137.093 465.23 132.708 465.23 126.589C465.23 121.49 463.496 117.615 460.029 114.964C456.562 112.312 449.525 110.987 438.92 110.987C431.781 110.987 424.337 111.089 416.587 111.293C408.837 111.497 400.883 111.599 392.724 111.599C381.711 111.599 372.533 110.171 365.191 107.316C357.848 104.256 351.934 100.279 347.447 95.3843C343.164 90.4895 340.104 84.6768 338.269 77.9463C336.637 71.2159 335.821 64.1795 335.821 56.8372C335.821 49.2909 336.943 42.2545 339.187 35.728C341.43 28.9975 344.999 23.1849 349.894 18.29C354.789 13.3951 361.112 9.51999 368.862 6.66464C376.816 3.8093 386.198 2.38162 397.007 2.38162C407.001 2.38162 415.771 3.40139 423.317 5.44092C431.068 7.2765 437.594 10.6417 442.897 15.5366C448.404 20.2276 452.891 26.6521 456.358 34.8102C459.825 42.9683 462.272 53.166 463.7 65.4032H476.549V5.44092H534.676V80.6997H458.193C455.95 72.3376 452.483 67.0348 447.792 64.7914C443.101 62.3439 436.472 61.1202 427.906 61.1202C418.932 61.1202 412.916 62.7518 409.856 66.0151C406.797 69.0744 405.267 73.0515 405.267 77.9463C405.267 82.6373 407.409 86.3084 411.692 88.9598C415.975 91.6112 423.725 92.9369 434.943 92.9369C435.962 92.9369 438.206 92.9369 441.673 92.9369C445.344 92.733 449.423 92.631 453.91 92.631C458.601 92.427 463.394 92.3251 468.289 92.3251C473.184 92.1211 477.365 92.0191 480.832 92.0191C493.477 92.0191 503.777 93.4468 511.731 96.3021C519.685 98.9535 525.804 102.829 530.087 107.927C534.574 112.822 537.531 118.839 538.959 125.977C540.591 132.912 541.406 140.56 541.406 148.922Z" fill="#000000"/>
<path d="M638.614 202.02C601.833 202.02 560.935 185.002 557.916 132.575C557.641 129.282 559.563 127.36 562.582 127.36H621.87C625.439 127.36 627.634 129.556 627.634 132.575C627.909 139.437 630.654 144.653 638.888 144.653C644.378 144.653 647.397 140.81 647.672 136.418C647.397 124.89 633.673 124.341 611.989 120.498C582.619 115.283 558.465 99.3629 558.739 63.1311C558.465 23.88 591.952 0 634.771 0C664.69 0 708.607 13.7242 710.803 64.2291C710.803 67.5229 708.882 69.4442 705.862 69.4442H650.691C647.397 69.4442 645.75 67.5229 645.476 64.5035C645.201 59.5629 643.829 53.7987 635.869 53.7987C631.477 53.7987 628.458 56.5435 628.458 60.9353C628.458 71.0911 642.182 71.0911 663.592 76.3063C693.236 83.4429 717.116 99.9119 717.39 136.418C717.665 181.433 680.335 202.02 638.614 202.02Z" fill="white"/>
<path d="M638.614 202.02C601.833 202.02 560.935 185.002 557.916 132.575C557.641 129.282 559.563 127.36 562.582 127.36H621.87C625.439 127.36 627.634 129.556 627.634 132.575C627.909 139.437 630.654 144.653 638.888 144.653C644.378 144.653 647.397 140.81 647.672 136.418C647.397 124.89 633.673 124.341 611.989 120.498C582.619 115.283 558.465 99.3629 558.739 63.1311C558.465 23.88 591.952 0 634.771 0C664.69 0 708.607 13.7242 710.803 64.2291C710.803 67.5229 708.882 69.4442 705.862 69.4442H650.691C647.397 69.4442 645.75 67.5229 645.476 64.5035C645.201 59.5629 643.829 53.7987 635.869 53.7987C631.477 53.7987 628.458 56.5435 628.458 60.9353C628.458 71.0911 642.182 71.0911 663.592 76.3063C693.236 83.4429 717.116 99.9119 717.39 136.418C717.665 181.433 680.335 202.02 638.614 202.02Z" fill="#000000"/>
<path d="M834.672 202.843C774.011 202.843 730.643 156.73 730.643 101.833C730.643 46.9366 774.011 1.09793 834.672 1.09793C895.058 1.09793 938.701 46.9366 938.701 101.833C938.701 156.73 895.058 202.843 834.672 202.843ZM834.672 128.184C850.592 128.184 862.395 116.106 862.395 101.833C862.395 87.5601 850.592 75.4829 834.672 75.4829C818.752 75.4829 806.949 87.5601 806.949 101.833C806.949 116.106 818.752 128.184 834.672 128.184Z" fill="white"/>
<path d="M834.672 202.843C774.011 202.843 730.643 156.73 730.643 101.833C730.643 46.9366 774.011 1.09793 834.672 1.09793C895.058 1.09793 938.701 46.9366 938.701 101.833C938.701 156.73 895.058 202.843 834.672 202.843ZM834.672 128.184C850.592 128.184 862.395 116.106 862.395 101.833C862.395 87.5601 850.592 75.4829 834.672 75.4829C818.752 75.4829 806.949 87.5601 806.949 101.833C806.949 116.106 818.752 128.184 834.672 128.184Z" fill="#000000"/>
<path d="M1038.93 201.745C993.092 201.745 956.585 178.689 956.585 130.38V10.9793C956.585 7.96002 958.507 6.03863 961.526 6.03863H1025.21C1028.23 6.03863 1030.15 7.96002 1030.15 10.9793V131.203C1030.15 138.065 1033.17 141.633 1040.03 141.633C1046.62 141.633 1049.64 138.065 1049.64 131.203V10.9793C1049.64 7.96002 1051.56 6.03863 1054.58 6.03863H1116.06C1119.08 6.03863 1121 7.96002 1121 10.9793V130.654C1121 178.963 1086.96 201.745 1038.93 201.745Z" fill="white"/>
<path d="M1038.93 201.745C993.092 201.745 956.585 178.689 956.585 130.38V10.9793C956.585 7.96002 958.507 6.03863 961.526 6.03863H1025.21C1028.23 6.03863 1030.15 7.96002 1030.15 10.9793V131.203C1030.15 138.065 1033.17 141.633 1040.03 141.633C1046.62 141.633 1049.64 138.065 1049.64 131.203V10.9793C1049.64 7.96002 1051.56 6.03863 1054.58 6.03863H1116.06C1119.08 6.03863 1121 7.96002 1121 10.9793V130.654C1121 178.963 1086.96 201.745 1038.93 201.745Z" fill="#000000"/>
<path d="M1138.45 198.177V197.565C1140.48 194.71 1142.12 191.956 1143.34 189.305C1144.56 186.45 1145.48 182.982 1146.09 178.903C1146.91 174.62 1147.32 168.91 1147.32 161.771C1147.73 154.225 1147.93 145.455 1147.93 135.461C1147.93 125.467 1147.93 115.168 1147.93 104.562C1147.93 93.7527 1147.93 82.9432 1147.93 72.1337C1147.93 61.3241 1147.73 51.3304 1147.32 42.1525C1147.11 31.343 1146.2 23.2868 1144.56 17.9841C1143.14 12.6813 1141.1 8.70419 1138.45 6.05279V5.44092H1256.53C1272.44 5.44092 1284.78 8.50022 1293.55 14.6188C1302.53 20.5335 1307.01 31.9549 1307.01 48.883C1307.01 55.0016 1304.57 60.9162 1299.67 66.6269C1294.98 72.3376 1286.72 76.6206 1274.89 79.476C1278.77 92.1211 1282.54 104.97 1286.21 118.023C1289.88 130.872 1293.96 144.027 1298.45 157.488C1301.71 166.87 1304.97 174.62 1308.24 180.739C1311.5 186.857 1314.66 192.466 1317.72 197.565V198.177H1239.71V197.565C1245.62 195.933 1249.8 193.69 1252.25 190.835C1254.7 187.979 1255.92 184.308 1255.92 179.821C1255.92 177.17 1255.62 174.212 1255 170.949C1254.39 167.686 1253.58 164.117 1252.56 160.242C1248.68 144.945 1245.21 133.116 1242.16 124.754C1239.3 116.392 1236.04 110.579 1232.37 107.316C1228.9 104.052 1224.41 102.421 1218.9 102.421C1213.81 102.421 1209.22 104.562 1205.14 108.845C1201.26 113.128 1199.33 118.941 1199.33 126.283C1199.33 130.566 1200.65 134.339 1203.3 137.603C1202.49 136.379 1201.98 135.053 1201.77 133.626C1201.57 131.994 1201.47 130.362 1201.47 128.731C1201.47 124.04 1202.89 120.063 1205.75 116.799C1208.61 113.332 1212.68 111.599 1217.99 111.599C1222.07 111.599 1225.84 113.026 1229.31 115.882C1232.77 118.533 1234.51 122.51 1234.51 127.813C1234.51 133.524 1232.67 137.807 1229 140.662C1225.53 143.313 1221.86 144.639 1217.99 144.639C1211.46 144.639 1206.16 142.396 1202.08 137.909C1198.2 133.218 1196.27 127.303 1196.27 120.165C1196.27 114.25 1197.9 109.151 1201.16 104.868C1204.63 100.585 1210.54 96.6081 1218.9 92.9369L1243.07 82.2294C1251.44 78.5582 1257.15 75.091 1260.21 71.8277C1263.26 68.5645 1264.79 64.8933 1264.79 60.8143C1264.79 55.3075 1263.06 51.3304 1259.59 48.883C1256.33 46.4356 1250.52 45.2118 1242.16 45.2118C1233.59 45.2118 1225.02 45.3138 1216.46 45.5178C1207.89 45.5178 1199.22 45.7217 1190.45 46.1296C1190.45 51.2285 1190.45 56.7352 1190.45 62.6498C1190.45 68.3605 1190.45 73.9692 1190.45 79.476C1190.45 102.115 1190.56 120.471 1190.76 134.543C1191.17 148.412 1191.37 155.449 1191.37 155.653C1191.37 165.442 1192.29 173.193 1194.12 178.903C1195.96 184.41 1198.92 188.591 1203 191.446C1207.28 194.098 1213.09 196.137 1220.43 197.565V198.177H1138.45Z" fill="white"/>
<path d="M1138.45 198.177V197.565C1140.48 194.71 1142.12 191.956 1143.34 189.305C1144.56 186.45 1145.48 182.982 1146.09 178.903C1146.91 174.62 1147.32 168.91 1147.32 161.771C1147.73 154.225 1147.93 145.455 1147.93 135.461C1147.93 125.467 1147.93 115.168 1147.93 104.562C1147.93 93.7527 1147.93 82.9432 1147.93 72.1337C1147.93 61.3241 1147.73 51.3304 1147.32 42.1525C1147.11 31.343 1146.2 23.2868 1144.56 17.9841C1143.14 12.6813 1141.1 8.70419 1138.45 6.05279V5.44092H1256.53C1272.44 5.44092 1284.78 8.50022 1293.55 14.6188C1302.53 20.5335 1307.01 31.9549 1307.01 48.883C1307.01 55.0016 1304.57 60.9162 1299.67 66.6269C1294.98 72.3376 1286.72 76.6206 1274.89 79.476C1278.77 92.1211 1282.54 104.97 1286.21 118.023C1289.88 130.872 1293.96 144.027 1298.45 157.488C1301.71 166.87 1304.97 174.62 1308.24 180.739C1311.5 186.857 1314.66 192.466 1317.72 197.565V198.177H1239.71V197.565C1245.62 195.933 1249.8 193.69 1252.25 190.835C1254.7 187.979 1255.92 184.308 1255.92 179.821C1255.92 177.17 1255.62 174.212 1255 170.949C1254.39 167.686 1253.58 164.117 1252.56 160.242C1248.68 144.945 1245.21 133.116 1242.16 124.754C1239.3 116.392 1236.04 110.579 1232.37 107.316C1228.9 104.052 1224.41 102.421 1218.9 102.421C1213.81 102.421 1209.22 104.562 1205.14 108.845C1201.26 113.128 1199.33 118.941 1199.33 126.283C1199.33 130.566 1200.65 134.339 1203.3 137.603C1202.49 136.379 1201.98 135.053 1201.77 133.626C1201.57 131.994 1201.47 130.362 1201.47 128.731C1201.47 124.04 1202.89 120.063 1205.75 116.799C1208.61 113.332 1212.68 111.599 1217.99 111.599C1222.07 111.599 1225.84 113.026 1229.31 115.882C1232.77 118.533 1234.51 122.51 1234.51 127.813C1234.51 133.524 1232.67 137.807 1229 140.662C1225.53 143.313 1221.86 144.639 1217.99 144.639C1211.46 144.639 1206.16 142.396 1202.08 137.909C1198.2 133.218 1196.27 127.303 1196.27 120.165C1196.27 114.25 1197.9 109.151 1201.16 104.868C1204.63 100.585 1210.54 96.6081 1218.9 92.9369L1243.07 82.2294C1251.44 78.5582 1257.15 75.091 1260.21 71.8277C1263.26 68.5645 1264.79 64.8933 1264.79 60.8143C1264.79 55.3075 1263.06 51.3304 1259.59 48.883C1256.33 46.4356 1250.52 45.2118 1242.16 45.2118C1233.59 45.2118 1225.02 45.3138 1216.46 45.5178C1207.89 45.5178 1199.22 45.7217 1190.45 46.1296C1190.45 51.2285 1190.45 56.7352 1190.45 62.6498C1190.45 68.3605 1190.45 73.9692 1190.45 79.476C1190.45 102.115 1190.56 120.471 1190.76 134.543C1191.17 148.412 1191.37 155.449 1191.37 155.653C1191.37 165.442 1192.29 173.193 1194.12 178.903C1195.96 184.41 1198.92 188.591 1203 191.446C1207.28 194.098 1213.09 196.137 1220.43 197.565V198.177H1138.45Z" fill="#000000"/>
<path d="M1338.33 198.177C1335.31 198.177 1333.39 196.255 1333.39 193.236V10.9793C1333.39 7.96002 1335.31 6.03863 1338.33 6.03863H1400.91C1403.93 6.03863 1405.85 7.96002 1405.85 10.9793V193.236C1405.85 196.255 1403.93 198.177 1400.91 198.177H1338.33Z" fill="white"/>
<path d="M1338.33 198.177C1335.31 198.177 1333.39 196.255 1333.39 193.236V10.9793C1333.39 7.96002 1335.31 6.03863 1338.33 6.03863H1400.91C1403.93 6.03863 1405.85 7.96002 1405.85 10.9793V193.236C1405.85 196.255 1403.93 198.177 1400.91 198.177H1338.33Z" fill="#000000"/>
</svg>
