<svg width="1420" height="202" viewBox="0 0 1420 202" fill="none" xmlns="http://www.w3.org/2000/svg">
<path d="M4.9407 197.079C1.92138 197.079 0 195.158 0 192.138V9.8814C0 6.86209 1.92138 4.9407 4.9407 4.9407H76.3063C79.0511 4.9407 81.247 6.58761 81.796 9.33244L97.4415 74.1105L106.774 115.008H108.421L117.753 74.3849L133.399 9.33244C133.948 6.58761 136.144 4.9407 138.888 4.9407H210.254C213.273 4.9407 215.195 6.86209 215.195 9.8814V192.138C215.195 195.158 213.273 197.079 210.254 197.079H152.887C149.868 197.079 147.946 195.158 147.946 192.138L148.221 152.887C148.221 139.163 150.966 105.676 152.064 97.9905L149.868 97.716C148.221 105.951 143.28 129.282 141.084 137.516L126.262 192.962C125.439 195.981 123.517 197.079 120.773 197.079H95.2457C92.5008 197.079 90.5794 195.981 89.756 192.962L74.9339 137.516C72.738 129.282 67.7973 105.951 66.1504 97.716L63.9546 97.9905C65.0525 105.676 67.7973 139.163 67.7973 152.887L68.0718 192.138C68.0718 195.158 66.1504 197.079 63.1311 197.079H4.9407Z" fill="white"/>
<path d="M4.9407 197.079C1.92138 197.079 0 195.158 0 192.138V9.8814C0 6.86209 1.92138 4.9407 4.9407 4.9407H76.3063C79.0511 4.9407 81.247 6.58761 81.796 9.33244L97.4415 74.1105L106.774 115.008H108.421L117.753 74.3849L133.399 9.33244C133.948 6.58761 136.144 4.9407 138.888 4.9407H210.254C213.273 4.9407 215.195 6.86209 215.195 9.8814V192.138C215.195 195.158 213.273 197.079 210.254 197.079H152.887C149.868 197.079 147.946 195.158 147.946 192.138L148.221 152.887C148.221 139.163 150.966 105.676 152.064 97.9905L149.868 97.716C148.221 105.951 143.28 129.282 141.084 137.516L126.262 192.962C125.439 195.981 123.517 197.079 120.773 197.079H95.2457C92.5008 197.079 90.5794 195.981 89.756 192.962L74.9339 137.516C72.738 129.282 67.7973 105.951 66.1504 97.716L63.9546 97.9905C65.0525 105.676 67.7973 139.163 67.7973 152.887L68.0718 192.138C68.0718 195.158 66.1504 197.079 63.1311 197.079H4.9407Z" fill="#000000"/>
<path d="M339.639 201.745C278.978 201.745 235.609 155.632 235.609 100.735C235.609 45.8387 278.978 0 339.639 0C400.025 0 443.668 45.8387 443.668 100.735C443.668 155.632 400.025 201.745 339.639 201.745ZM339.639 127.086C355.559 127.086 367.361 115.008 367.361 100.735C367.361 86.4622 355.559 74.3849 339.639 74.3849C323.719 74.3849 311.916 86.4622 311.916 100.735C311.916 115.008 323.719 127.086 339.639 127.086Z" fill="white"/>
<path d="M339.639 201.745C278.978 201.745 235.609 155.632 235.609 100.735C235.609 45.8387 278.978 0 339.639 0C400.025 0 443.668 45.8387 443.668 100.735C443.668 155.632 400.025 201.745 339.639 201.745ZM339.639 127.086C355.559 127.086 367.361 115.008 367.361 100.735C367.361 86.4622 355.559 74.3849 339.639 74.3849C323.719 74.3849 311.916 86.4622 311.916 100.735C311.916 115.008 323.719 127.086 339.639 127.086Z" fill="#000000"/>
<path d="M541.845 138.34V197.079H464.751V138.34C471.685 137.525 476.682 133.242 479.741 125.491C482.8 117.741 484.33 107.237 484.33 93.9805V80.5196C484.33 72.1575 483.514 67.1606 481.883 65.529C480.455 63.6934 474.744 62.7756 464.751 62.7756V4.34299H581.616V49.9266C581.616 59.5124 582.635 67.3646 584.675 73.4832C586.715 79.6018 592.731 87.0461 602.725 95.8161L646.473 133.445V131.304C646.473 123.35 645.861 115.6 644.637 108.053C643.618 100.303 641.68 93.3686 638.825 87.25C635.969 80.9275 631.992 75.6247 626.893 71.3417C621.795 66.8547 615.37 63.9993 607.62 62.7756V4.34299H684.714V62.4697C677.78 64.3053 672.681 67.9764 669.418 73.4832C666.358 78.9899 664.829 88.8817 664.829 103.158V197.079H567.543V144.153C567.543 134.567 565.707 127.021 562.036 121.514C558.569 116.007 552.756 109.787 544.598 102.852L502.686 67.0586C502.686 74.197 503.094 81.4374 503.91 88.7797C504.725 95.918 506.459 102.75 509.11 109.277C511.966 115.6 515.943 121.31 521.042 126.409C526.14 131.508 533.075 135.485 541.845 138.34Z" fill="white"/>
<path d="M541.845 138.34V197.079H464.751V138.34C471.685 137.525 476.682 133.242 479.741 125.491C482.8 117.741 484.33 107.237 484.33 93.9805V80.5196C484.33 72.1575 483.514 67.1606 481.883 65.529C480.455 63.6934 474.744 62.7756 464.751 62.7756V4.34299H581.616V49.9266C581.616 59.5124 582.635 67.3646 584.675 73.4832C586.715 79.6018 592.731 87.0461 602.725 95.8161L646.473 133.445V131.304C646.473 123.35 645.861 115.6 644.637 108.053C643.618 100.303 641.68 93.3686 638.825 87.25C635.969 80.9275 631.992 75.6247 626.893 71.3417C621.795 66.8547 615.37 63.9993 607.62 62.7756V4.34299H684.714V62.4697C677.78 64.3053 672.681 67.9764 669.418 73.4832C666.358 78.9899 664.829 88.8817 664.829 103.158V197.079H567.543V144.153C567.543 134.567 565.707 127.021 562.036 121.514C558.569 116.007 552.756 109.787 544.598 102.852L502.686 67.0586C502.686 74.197 503.094 81.4374 503.91 88.7797C504.725 95.918 506.459 102.75 509.11 109.277C511.966 115.6 515.943 121.31 521.042 126.409C526.14 131.508 533.075 135.485 541.845 138.34Z" fill="#000000"/>
<path d="M747.37 197.079C744.35 197.079 742.429 195.158 742.429 192.138V70.8167H707.021C704.001 70.8167 702.08 68.8953 702.08 65.876V9.8814C702.08 6.86209 704.001 4.9407 707.021 4.9407H850.575C853.595 4.9407 855.516 6.86209 855.516 9.8814V65.876C855.516 68.8953 853.595 70.8167 850.575 70.8167H814.893V192.138C814.893 195.158 812.971 197.079 809.952 197.079H747.37Z" fill="white"/>
<path d="M747.37 197.079C744.35 197.079 742.429 195.158 742.429 192.138V70.8167H707.021C704.001 70.8167 702.08 68.8953 702.08 65.876V9.8814C702.08 6.86209 704.001 4.9407 707.021 4.9407H850.575C853.595 4.9407 855.516 6.86209 855.516 9.8814V65.876C855.516 68.8953 853.595 70.8167 850.575 70.8167H814.893V192.138C814.893 195.158 812.971 197.079 809.952 197.079H747.37Z" fill="#000000"/>
<path d="M847.511 197.079C844.217 197.079 842.296 195.158 843.119 191.589L890.33 9.05794C891.154 6.03863 892.801 4.9407 895.82 4.9407H982.557C985.576 4.9407 987.223 6.03863 988.046 9.05794L1034.98 191.589C1035.81 195.158 1033.89 197.079 1030.59 197.079H963.892C960.873 197.079 959.226 195.432 958.677 192.687L952.913 165.788H924.915L919.151 192.687C918.602 195.432 916.955 197.079 913.936 197.079H847.511ZM929.581 120.498H948.246L941.659 83.1684L940.286 71.9146H937.542L936.169 83.1684L929.581 120.498Z" fill="white"/>
<path d="M847.511 197.079C844.217 197.079 842.296 195.158 843.119 191.589L890.33 9.05794C891.154 6.03863 892.801 4.9407 895.82 4.9407H982.557C985.576 4.9407 987.223 6.03863 988.046 9.05794L1034.98 191.589C1035.81 195.158 1033.89 197.079 1030.59 197.079H963.892C960.873 197.079 959.226 195.432 958.677 192.687L952.913 165.788H924.915L919.151 192.687C918.602 195.432 916.955 197.079 913.936 197.079H847.511ZM929.581 120.498H948.246L941.659 83.1684L940.286 71.9146H937.542L936.169 83.1684L929.581 120.498Z" fill="#000000"/>
<path d="M1054.79 197.079C1051.77 197.079 1049.85 195.158 1049.85 192.138V9.8814C1049.85 6.86209 1051.77 4.9407 1054.79 4.9407H1120.39C1123.14 4.9407 1125.34 6.58761 1125.88 9.33244L1140.71 75.7573C1142.9 85.6387 1144 95.7946 1146.2 105.676L1148.12 105.402C1147.29 96.0691 1145.37 75.2084 1145.37 68.3463L1144.82 9.8814C1144.82 6.86209 1146.74 4.9407 1149.76 4.9407H1209.6C1212.62 4.9407 1214.54 6.86209 1214.54 9.8814V192.138C1214.54 195.158 1212.62 197.079 1209.6 197.079H1150.86C1148.12 197.079 1146.2 195.981 1145.37 192.962L1126.71 126.262C1123.96 116.381 1122.04 106.225 1119.85 96.3436L1117.92 96.6181C1119.02 105.95 1120.94 126.811 1120.94 133.673L1121.49 192.138C1121.49 195.158 1119.57 197.079 1116.55 197.079H1054.79Z" fill="white"/>
<path d="M1054.79 197.079C1051.77 197.079 1049.85 195.158 1049.85 192.138V9.8814C1049.85 6.86209 1051.77 4.9407 1054.79 4.9407H1120.39C1123.14 4.9407 1125.34 6.58761 1125.88 9.33244L1140.71 75.7573C1142.9 85.6387 1144 95.7946 1146.2 105.676L1148.12 105.402C1147.29 96.0691 1145.37 75.2084 1145.37 68.3463L1144.82 9.8814C1144.82 6.86209 1146.74 4.9407 1149.76 4.9407H1209.6C1212.62 4.9407 1214.54 6.86209 1214.54 9.8814V192.138C1214.54 195.158 1212.62 197.079 1209.6 197.079H1150.86C1148.12 197.079 1146.2 195.981 1145.37 192.962L1126.71 126.262C1123.96 116.381 1122.04 106.225 1119.85 96.3436L1117.92 96.6181C1119.02 105.95 1120.94 126.811 1120.94 133.673L1121.49 192.138C1121.49 195.158 1119.57 197.079 1116.55 197.079H1054.79Z" fill="#000000"/>
<path d="M1230.93 197.079V196.467C1234.19 192.184 1237.46 186.065 1240.72 178.111C1244.19 169.953 1247.65 160.673 1251.12 150.272C1254.59 139.666 1258.06 128.653 1261.52 117.231C1253.36 114.172 1246.74 110.807 1241.64 107.135C1236.74 103.26 1234.29 97.8556 1234.29 90.9212C1234.29 86.8421 1235.52 83.2729 1237.97 80.2136C1240.62 76.9504 1244.49 75.3187 1249.59 75.3187C1253.87 75.3187 1257.44 76.7464 1260.3 79.6018C1263.36 82.2532 1264.89 85.9243 1264.89 90.6153C1264.89 95.3062 1263.66 99.0793 1261.22 101.935C1258.77 104.79 1254.89 106.218 1249.59 106.218C1245.31 106.218 1241.74 104.994 1238.88 102.547C1241.33 105.402 1244.7 107.339 1248.98 108.359C1253.47 109.379 1258.36 109.991 1263.66 110.195C1267.13 97.7536 1270.5 85.4144 1273.76 73.1772C1277.23 60.94 1280.49 49.7226 1283.55 39.5249C1284.77 35.4459 1285.69 31.8767 1286.3 28.8174C1287.12 25.5541 1287.53 22.5968 1287.53 19.9454C1287.53 12.1952 1283.35 7.19834 1274.98 4.95486V4.34299H1376.55V4.95486C1373.29 5.77067 1370.74 7.70823 1368.9 10.7675C1367.07 13.6229 1366.15 17.9059 1366.15 23.6166C1366.15 29.7352 1367.37 37.8933 1369.82 48.091C1379 84.8026 1389.71 121.208 1401.94 157.308C1405 166.486 1407.96 174.338 1410.82 180.865C1413.67 187.187 1416.73 192.388 1419.99 196.467V197.079H1338.31V196.467C1344.23 194.835 1348.41 192.388 1350.85 189.125C1353.51 185.861 1354.83 181.68 1354.83 176.582C1354.83 174.338 1354.63 171.891 1354.22 169.239C1353.81 166.588 1353.2 163.631 1352.38 160.367C1351.57 156.696 1348.51 153.127 1343.21 149.66C1338.11 146.193 1331.58 142.929 1323.63 139.87C1315.67 136.607 1307.21 133.445 1298.23 130.386C1295.79 139.972 1293.24 149.966 1290.59 160.367C1289.97 163.427 1289.46 166.282 1289.06 168.933C1288.65 171.585 1288.44 174.032 1288.44 176.276C1288.44 181.578 1289.67 185.861 1292.12 189.125C1294.56 192.388 1298.74 194.835 1304.66 196.467V197.079H1230.93ZM1304.05 109.277C1310.17 109.685 1316.18 111.317 1322.1 114.172C1328.01 117.027 1333.52 121.82 1338.62 128.551C1343.92 135.281 1348.81 144.765 1353.3 157.002H1353.91C1348.81 137.219 1344.02 117.741 1339.53 98.5694C1335.05 79.3978 1330.36 61.4499 1325.46 44.7258H1324.24C1320.97 54.1076 1317.61 64.2033 1314.14 75.0128C1310.88 85.6184 1307.51 97.0398 1304.05 109.277Z" fill="white"/>
<path d="M1230.93 197.079V196.467C1234.19 192.184 1237.46 186.065 1240.72 178.111C1244.19 169.953 1247.65 160.673 1251.12 150.272C1254.59 139.666 1258.06 128.653 1261.52 117.231C1253.36 114.172 1246.74 110.807 1241.64 107.135C1236.74 103.26 1234.29 97.8556 1234.29 90.9212C1234.29 86.8421 1235.52 83.2729 1237.97 80.2136C1240.62 76.9504 1244.49 75.3187 1249.59 75.3187C1253.87 75.3187 1257.44 76.7464 1260.3 79.6018C1263.36 82.2532 1264.89 85.9243 1264.89 90.6153C1264.89 95.3062 1263.66 99.0793 1261.22 101.935C1258.77 104.79 1254.89 106.218 1249.59 106.218C1245.31 106.218 1241.74 104.994 1238.88 102.547C1241.33 105.402 1244.7 107.339 1248.98 108.359C1253.47 109.379 1258.36 109.991 1263.66 110.195C1267.13 97.7536 1270.5 85.4144 1273.76 73.1772C1277.23 60.94 1280.49 49.7226 1283.55 39.5249C1284.77 35.4459 1285.69 31.8767 1286.3 28.8174C1287.12 25.5541 1287.53 22.5968 1287.53 19.9454C1287.53 12.1952 1283.35 7.19834 1274.98 4.95486V4.34299H1376.55V4.95486C1373.29 5.77067 1370.74 7.70823 1368.9 10.7675C1367.07 13.6229 1366.15 17.9059 1366.15 23.6166C1366.15 29.7352 1367.37 37.8933 1369.82 48.091C1379 84.8026 1389.71 121.208 1401.94 157.308C1405 166.486 1407.96 174.338 1410.82 180.865C1413.67 187.187 1416.73 192.388 1419.99 196.467V197.079H1338.31V196.467C1344.23 194.835 1348.41 192.388 1350.85 189.125C1353.51 185.861 1354.83 181.68 1354.83 176.582C1354.83 174.338 1354.63 171.891 1354.22 169.239C1353.81 166.588 1353.2 163.631 1352.38 160.367C1351.57 156.696 1348.51 153.127 1343.21 149.66C1338.11 146.193 1331.58 142.929 1323.63 139.87C1315.67 136.607 1307.21 133.445 1298.23 130.386C1295.79 139.972 1293.24 149.966 1290.59 160.367C1289.97 163.427 1289.46 166.282 1289.06 168.933C1288.65 171.585 1288.44 174.032 1288.44 176.276C1288.44 181.578 1289.67 185.861 1292.12 189.125C1294.56 192.388 1298.74 194.835 1304.66 196.467V197.079H1230.93ZM1304.05 109.277C1310.17 109.685 1316.18 111.317 1322.1 114.172C1328.01 117.027 1333.52 121.82 1338.62 128.551C1343.92 135.281 1348.81 144.765 1353.3 157.002H1353.91C1348.81 137.219 1344.02 117.741 1339.53 98.5694C1335.05 79.3978 1330.36 61.4499 1325.46 44.7258H1324.24C1320.97 54.1076 1317.61 64.2033 1314.14 75.0128C1310.88 85.6184 1307.51 97.0398 1304.05 109.277Z" fill="#000000"/>
</svg>
