<svg width="2215" height="202" viewBox="0 0 2215 202" fill="none" xmlns="http://www.w3.org/2000/svg">
<path d="M4.9407 197.079C1.92138 197.079 0 195.158 0 192.138V9.8814C0 6.86209 1.92138 4.9407 4.9407 4.9407H70.5422C73.287 4.9407 75.4829 6.58761 76.0318 9.33244L90.8539 75.7573C93.0498 85.6387 94.1477 95.7946 96.3436 105.676L98.265 105.402C97.4415 96.0691 95.5201 75.2084 95.5201 68.3463L94.9712 9.8814C94.9712 6.86209 96.8925 4.9407 99.9119 4.9407H159.749C162.768 4.9407 164.69 6.86209 164.69 9.8814V192.138C164.69 195.158 162.768 197.079 159.749 197.079H101.01C98.265 197.079 96.3436 195.981 95.5201 192.962L76.8553 126.262C74.1104 116.381 72.1891 106.225 69.9932 96.3436L68.0718 96.6181C69.1698 105.95 71.0911 126.811 71.0911 133.673L71.6401 192.138C71.6401 195.158 69.7187 197.079 66.6994 197.079H4.9407Z" fill="white"/>
<path d="M4.9407 197.079C1.92138 197.079 0 195.158 0 192.138V9.8814C0 6.86209 1.92138 4.9407 4.9407 4.9407H70.5422C73.287 4.9407 75.4829 6.58761 76.0318 9.33244L90.8539 75.7573C93.0498 85.6387 94.1477 95.7946 96.3436 105.676L98.265 105.402C97.4415 96.0691 95.5201 75.2084 95.5201 68.3463L94.9712 9.8814C94.9712 6.86209 96.8925 4.9407 99.9119 4.9407H159.749C162.768 4.9407 164.69 6.86209 164.69 9.8814V192.138C164.69 195.158 162.768 197.079 159.749 197.079H101.01C98.265 197.079 96.3436 195.981 95.5201 192.962L76.8553 126.262C74.1104 116.381 72.1891 106.225 69.9932 96.3436L68.0718 96.6181C69.1698 105.95 71.0911 126.811 71.0911 133.673L71.6401 192.138C71.6401 195.158 69.7187 197.079 66.6994 197.079H4.9407Z" fill="#000000"/>
<path d="M289.245 201.745C228.584 201.745 185.216 155.632 185.216 100.735C185.216 45.8387 228.584 0 289.245 0C349.631 0 393.274 45.8387 393.274 100.735C393.274 155.632 349.631 201.745 289.245 201.745ZM289.245 127.086C305.165 127.086 316.968 115.008 316.968 100.735C316.968 86.4622 305.165 74.3849 289.245 74.3849C273.325 74.3849 261.522 86.4622 261.522 100.735C261.522 115.008 273.325 127.086 289.245 127.086Z" fill="white"/>
<path d="M289.245 201.745C228.584 201.745 185.216 155.632 185.216 100.735C185.216 45.8387 228.584 0 289.245 0C349.631 0 393.274 45.8387 393.274 100.735C393.274 155.632 349.631 201.745 289.245 201.745ZM289.245 127.086C305.165 127.086 316.968 115.008 316.968 100.735C316.968 86.4622 305.165 74.3849 289.245 74.3849C273.325 74.3849 261.522 86.4622 261.522 100.735C261.522 115.008 273.325 127.086 289.245 127.086Z" fill="#000000"/>
<path d="M418.799 197.079C415.78 197.079 413.858 195.158 413.858 192.138V9.8814C413.858 6.86209 415.78 4.9407 418.799 4.9407H512.398C554.119 4.9407 580.195 32.389 580.195 66.9739C580.195 88.9325 572.235 104.578 556.041 116.381L590.077 191.315C591.723 194.609 590.076 197.079 586.508 197.079H521.456C518.711 197.079 517.064 195.706 515.966 193.236L503.614 160.298L492.91 132.575H485.498C486.047 141.359 486.322 150.142 486.322 158.651V192.138C486.322 195.158 484.401 197.079 481.381 197.079H418.799ZM499.497 85.9132C506.634 85.9132 511.025 82.0705 511.025 73.836C511.025 65.327 506.634 62.0332 499.497 62.0332H484.126V85.9132H499.497Z" fill="white"/>
<path d="M418.799 197.079C415.78 197.079 413.858 195.158 413.858 192.138V9.8814C413.858 6.86209 415.78 4.9407 418.799 4.9407H512.398C554.119 4.9407 580.195 32.389 580.195 66.9739C580.195 88.9325 572.235 104.578 556.041 116.381L590.077 191.315C591.723 194.609 590.076 197.079 586.508 197.079H521.456C518.711 197.079 517.064 195.706 515.966 193.236L503.614 160.298L492.91 132.575H485.498C486.047 141.359 486.322 150.142 486.322 158.651V192.138C486.322 195.158 484.401 197.079 481.381 197.079H418.799ZM499.497 85.9132C506.634 85.9132 511.025 82.0705 511.025 73.836C511.025 65.327 506.634 62.0332 499.497 62.0332H484.126V85.9132H499.497Z" fill="#000000"/>
<path d="M790.236 4.34299V102.241H771.88V85.1085C771.88 77.3583 769.84 71.7496 765.761 68.2824C761.886 64.6112 754.544 62.7756 743.734 62.7756H727.52V120.29C727.52 124.573 727.622 127.939 727.826 130.386C728.234 132.834 729.356 134.669 731.191 135.893C733.231 136.913 736.29 137.626 740.369 138.034C744.652 138.238 750.567 138.34 758.113 138.34V197.079H632.988V138.34C640.33 138.34 646.041 138.238 650.12 138.034C654.199 137.626 657.156 136.913 658.992 135.893C661.031 134.669 662.153 132.834 662.357 130.386C662.765 127.939 662.969 124.573 662.969 120.29V62.7756H647.06C636.251 62.7756 628.807 64.6112 624.727 68.2824C620.852 71.7496 618.915 77.3583 618.915 85.1085V102.241H600.559V4.34299H790.236Z" fill="white"/>
<path d="M790.236 4.34299V102.241H771.88V85.1085C771.88 77.3583 769.84 71.7496 765.761 68.2824C761.886 64.6112 754.544 62.7756 743.734 62.7756H727.52V120.29C727.52 124.573 727.622 127.939 727.826 130.386C728.234 132.834 729.356 134.669 731.191 135.893C733.231 136.913 736.29 137.626 740.369 138.034C744.652 138.238 750.567 138.34 758.113 138.34V197.079H632.988V138.34C640.33 138.34 646.041 138.238 650.12 138.034C654.199 137.626 657.156 136.913 658.992 135.893C661.031 134.669 662.153 132.834 662.357 130.386C662.765 127.939 662.969 124.573 662.969 120.29V62.7756H647.06C636.251 62.7756 628.807 64.6112 624.727 68.2824C620.852 71.7496 618.915 77.3583 618.915 85.1085V102.241H600.559V4.34299H790.236Z" fill="#000000"/>
<path d="M909.844 197.079C906.824 197.079 904.903 195.158 904.903 192.138V125.439H884.591V192.138C884.591 195.158 882.67 197.079 879.65 197.079H816.519C813.5 197.079 811.579 195.158 811.579 192.138V9.8814C811.579 6.86209 813.5 4.9407 816.519 4.9407H879.65C882.67 4.9407 884.591 6.86209 884.591 9.8814V73.5615H904.903V9.8814C904.903 6.86209 906.824 4.9407 909.844 4.9407H972.975C975.994 4.9407 977.915 6.86209 977.915 9.8814V192.138C977.915 195.158 975.994 197.079 972.975 197.079H909.844Z" fill="white"/>
<path d="M909.844 197.079C906.824 197.079 904.903 195.158 904.903 192.138V125.439H884.591V192.138C884.591 195.158 882.67 197.079 879.65 197.079H816.519C813.5 197.079 811.579 195.158 811.579 192.138V9.8814C811.579 6.86209 813.5 4.9407 816.519 4.9407H879.65C882.67 4.9407 884.591 6.86209 884.591 9.8814V73.5615H904.903V9.8814C904.903 6.86209 906.824 4.9407 909.844 4.9407H972.975C975.994 4.9407 977.915 6.86209 977.915 9.8814V192.138C977.915 195.158 975.994 197.079 972.975 197.079H909.844Z" fill="#000000"/>
<path d="M1064.19 197.079C1061.17 197.079 1059.25 195.158 1059.25 192.138V9.8814C1059.25 6.86209 1061.17 4.9407 1064.19 4.9407H1147.36C1193.19 4.9407 1236.84 43.3684 1236.84 99.9119C1236.84 156.181 1193.19 197.079 1147.36 197.079H1064.19ZM1142.14 128.733C1155.86 128.733 1166.57 117.204 1166.57 99.9119C1166.57 82.3449 1155.86 73.0125 1142.14 73.0125H1131.16V128.733H1142.14Z" fill="white"/>
<path d="M1064.19 197.079C1061.17 197.079 1059.25 195.158 1059.25 192.138V9.8814C1059.25 6.86209 1061.17 4.9407 1064.19 4.9407H1147.36C1193.19 4.9407 1236.84 43.3684 1236.84 99.9119C1236.84 156.181 1193.19 197.079 1147.36 197.079H1064.19ZM1142.14 128.733C1155.86 128.733 1166.57 117.204 1166.57 99.9119C1166.57 82.3449 1155.86 73.0125 1142.14 73.0125H1131.16V128.733H1142.14Z" fill="#000000"/>
<path d="M1247.56 197.079V196.467C1250.82 192.184 1254.09 186.065 1257.35 178.111C1260.82 169.953 1264.28 160.673 1267.75 150.272C1271.22 139.666 1274.69 128.653 1278.15 117.231C1270 114.172 1263.37 110.807 1258.27 107.135C1253.37 103.26 1250.93 97.8556 1250.93 90.9212C1250.93 86.8421 1252.15 83.2729 1254.6 80.2136C1257.25 76.9504 1261.12 75.3187 1266.22 75.3187C1270.51 75.3187 1274.07 76.7464 1276.93 79.6018C1279.99 82.2532 1281.52 85.9243 1281.52 90.6153C1281.52 95.3062 1280.3 99.0793 1277.85 101.935C1275.4 104.79 1271.53 106.218 1266.22 106.218C1261.94 106.218 1258.37 104.994 1255.51 102.547C1257.96 105.402 1261.33 107.339 1265.61 108.359C1270.1 109.379 1274.99 109.991 1280.3 110.195C1283.76 97.7536 1287.13 85.4144 1290.39 73.1772C1293.86 60.94 1297.12 49.7226 1300.18 39.5249C1301.4 35.4459 1302.32 31.8767 1302.93 28.8174C1303.75 25.5541 1304.16 22.5968 1304.16 19.9454C1304.16 12.1952 1299.98 7.19834 1291.61 4.95486V4.34299H1393.18V4.95486C1389.92 5.77067 1387.37 7.70823 1385.54 10.7675C1383.7 13.6229 1382.78 17.9059 1382.78 23.6166C1382.78 29.7352 1384.01 37.8933 1386.45 48.091C1395.63 84.8026 1406.34 121.208 1418.58 157.308C1421.63 166.486 1424.59 174.338 1427.45 180.865C1430.3 187.187 1433.36 192.388 1436.63 196.467V197.079H1354.94V196.467C1360.86 194.835 1365.04 192.388 1367.49 189.125C1370.14 185.861 1371.46 181.68 1371.46 176.582C1371.46 174.338 1371.26 171.891 1370.85 169.239C1370.44 166.588 1369.83 163.631 1369.01 160.367C1368.2 156.696 1365.14 153.127 1359.84 149.66C1354.74 146.193 1348.21 142.929 1340.26 139.87C1332.3 136.607 1323.84 133.445 1314.87 130.386C1312.42 139.972 1309.87 149.966 1307.22 160.367C1306.61 163.427 1306.1 166.282 1305.69 168.933C1305.28 171.585 1305.08 174.032 1305.08 176.276C1305.08 181.578 1306.3 185.861 1308.75 189.125C1311.19 192.388 1315.38 194.835 1321.29 196.467V197.079H1247.56ZM1320.68 109.277C1326.8 109.685 1332.81 111.317 1338.73 114.172C1344.64 117.027 1350.15 121.82 1355.25 128.551C1360.55 135.281 1365.45 144.765 1369.93 157.002H1370.54C1365.45 137.219 1360.65 117.741 1356.17 98.5694C1351.68 79.3978 1346.99 61.4499 1342.09 44.7258H1340.87C1337.61 54.1076 1334.24 64.2033 1330.77 75.0128C1327.51 85.6184 1324.15 97.0398 1320.68 109.277Z" fill="white"/>
<path d="M1247.56 197.079V196.467C1250.82 192.184 1254.09 186.065 1257.35 178.111C1260.82 169.953 1264.28 160.673 1267.75 150.272C1271.22 139.666 1274.69 128.653 1278.15 117.231C1270 114.172 1263.37 110.807 1258.27 107.135C1253.37 103.26 1250.93 97.8556 1250.93 90.9212C1250.93 86.8421 1252.15 83.2729 1254.6 80.2136C1257.25 76.9504 1261.12 75.3187 1266.22 75.3187C1270.51 75.3187 1274.07 76.7464 1276.93 79.6018C1279.99 82.2532 1281.52 85.9243 1281.52 90.6153C1281.52 95.3062 1280.3 99.0793 1277.85 101.935C1275.4 104.79 1271.53 106.218 1266.22 106.218C1261.94 106.218 1258.37 104.994 1255.51 102.547C1257.96 105.402 1261.33 107.339 1265.61 108.359C1270.1 109.379 1274.99 109.991 1280.3 110.195C1283.76 97.7536 1287.13 85.4144 1290.39 73.1772C1293.86 60.94 1297.12 49.7226 1300.18 39.5249C1301.4 35.4459 1302.32 31.8767 1302.93 28.8174C1303.75 25.5541 1304.16 22.5968 1304.16 19.9454C1304.16 12.1952 1299.98 7.19834 1291.61 4.95486V4.34299H1393.18V4.95486C1389.92 5.77067 1387.37 7.70823 1385.54 10.7675C1383.7 13.6229 1382.78 17.9059 1382.78 23.6166C1382.78 29.7352 1384.01 37.8933 1386.45 48.091C1395.63 84.8026 1406.34 121.208 1418.58 157.308C1421.63 166.486 1424.59 174.338 1427.45 180.865C1430.3 187.187 1433.36 192.388 1436.63 196.467V197.079H1354.94V196.467C1360.86 194.835 1365.04 192.388 1367.49 189.125C1370.14 185.861 1371.46 181.68 1371.46 176.582C1371.46 174.338 1371.26 171.891 1370.85 169.239C1370.44 166.588 1369.83 163.631 1369.01 160.367C1368.2 156.696 1365.14 153.127 1359.84 149.66C1354.74 146.193 1348.21 142.929 1340.26 139.87C1332.3 136.607 1323.84 133.445 1314.87 130.386C1312.42 139.972 1309.87 149.966 1307.22 160.367C1306.61 163.427 1306.1 166.282 1305.69 168.933C1305.28 171.585 1305.08 174.032 1305.08 176.276C1305.08 181.578 1306.3 185.861 1308.75 189.125C1311.19 192.388 1315.38 194.835 1321.29 196.467V197.079H1247.56ZM1320.68 109.277C1326.8 109.685 1332.81 111.317 1338.73 114.172C1344.64 117.027 1350.15 121.82 1355.25 128.551C1360.55 135.281 1365.45 144.765 1369.93 157.002H1370.54C1365.45 137.219 1360.65 117.741 1356.17 98.5694C1351.68 79.3978 1346.99 61.4499 1342.09 44.7258H1340.87C1337.61 54.1076 1334.24 64.2033 1330.77 75.0128C1327.51 85.6184 1324.15 97.0398 1320.68 109.277Z" fill="#000000"/>
<path d="M1450.48 197.079C1447.46 197.079 1445.54 195.158 1445.54 192.138V9.8814C1445.54 6.86209 1447.46 4.9407 1450.48 4.9407H1512.51C1515.53 4.9407 1517.45 6.86209 1517.45 9.8814V29.6442C1517.45 41.1725 1516.9 51.0539 1516.08 62.8566L1518.27 63.1311C1521.29 54.0732 1527.88 37.8787 1532 29.6442L1542.43 8.50898C1543.53 6.03863 1545.45 4.9407 1548.19 4.9407H1612.7C1616.54 4.9407 1617.91 7.13657 1615.99 10.7049L1579.76 77.6787L1626.69 191.315C1628.07 194.609 1626.42 197.079 1622.85 197.079H1555.88C1553.13 197.079 1551.49 195.706 1550.39 193.236L1525.14 126.262L1517.72 136.967L1518.27 192.138C1518.27 195.158 1516.35 197.079 1513.33 197.079H1450.48Z" fill="white"/>
<path d="M1450.48 197.079C1447.46 197.079 1445.54 195.158 1445.54 192.138V9.8814C1445.54 6.86209 1447.46 4.9407 1450.48 4.9407H1512.51C1515.53 4.9407 1517.45 6.86209 1517.45 9.8814V29.6442C1517.45 41.1725 1516.9 51.0539 1516.08 62.8566L1518.27 63.1311C1521.29 54.0732 1527.88 37.8787 1532 29.6442L1542.43 8.50898C1543.53 6.03863 1545.45 4.9407 1548.19 4.9407H1612.7C1616.54 4.9407 1617.91 7.13657 1615.99 10.7049L1579.76 77.6787L1626.69 191.315C1628.07 194.609 1626.42 197.079 1622.85 197.079H1555.88C1553.13 197.079 1551.49 195.706 1550.39 193.236L1525.14 126.262L1517.72 136.967L1518.27 192.138C1518.27 195.158 1516.35 197.079 1513.33 197.079H1450.48Z" fill="#000000"/>
<path d="M1722.72 201.745C1662.06 201.745 1618.69 155.632 1618.69 100.735C1618.69 45.8387 1662.06 0 1722.72 0C1783.1 0 1826.75 45.8387 1826.75 100.735C1826.75 155.632 1783.1 201.745 1722.72 201.745ZM1722.72 127.086C1738.64 127.086 1750.44 115.008 1750.44 100.735C1750.44 86.4622 1738.64 74.3849 1722.72 74.3849C1706.8 74.3849 1695 86.4622 1695 100.735C1695 115.008 1706.8 127.086 1722.72 127.086Z" fill="white"/>
<path d="M1722.72 201.745C1662.06 201.745 1618.69 155.632 1618.69 100.735C1618.69 45.8387 1662.06 0 1722.72 0C1783.1 0 1826.75 45.8387 1826.75 100.735C1826.75 155.632 1783.1 201.745 1722.72 201.745ZM1722.72 127.086C1738.64 127.086 1750.44 115.008 1750.44 100.735C1750.44 86.4622 1738.64 74.3849 1722.72 74.3849C1706.8 74.3849 1695 86.4622 1695 100.735C1695 115.008 1706.8 127.086 1722.72 127.086Z" fill="#000000"/>
<path d="M1880.44 197.079C1877.42 197.079 1875.5 195.158 1875.5 192.138V70.8167H1840.09C1837.07 70.8167 1835.15 68.8953 1835.15 65.876V9.8814C1835.15 6.86209 1837.07 4.9407 1840.09 4.9407H1983.64C1986.66 4.9407 1988.58 6.86209 1988.58 9.8814V65.876C1988.58 68.8953 1986.66 70.8167 1983.64 70.8167H1947.96V192.138C1947.96 195.158 1946.04 197.079 1943.02 197.079H1880.44Z" fill="white"/>
<path d="M1880.44 197.079C1877.42 197.079 1875.5 195.158 1875.5 192.138V70.8167H1840.09C1837.07 70.8167 1835.15 68.8953 1835.15 65.876V9.8814C1835.15 6.86209 1837.07 4.9407 1840.09 4.9407H1983.64C1986.66 4.9407 1988.58 6.86209 1988.58 9.8814V65.876C1988.58 68.8953 1986.66 70.8167 1983.64 70.8167H1947.96V192.138C1947.96 195.158 1946.04 197.079 1943.02 197.079H1880.44Z" fill="#000000"/>
<path d="M2090.89 141.4V197.079H2002.17V138.34C2005.23 137.525 2008.8 135.689 2012.88 132.834C2016.96 129.774 2021.04 126.205 2025.12 122.126C2029.2 117.843 2033.07 112.948 2036.74 107.441C2040.62 101.935 2043.88 96.224 2046.53 90.3093C2047.76 87.454 2048.68 84.7006 2049.29 82.0492C2050.1 79.3978 2050.51 76.2365 2050.51 72.5654C2050.51 69.914 2049.59 67.4665 2047.76 65.2231C2046.13 62.9796 2043.27 61.8578 2039.19 61.8578H2025.43V4.34299H2165.54V47.1732C2165.54 55.9432 2167.58 64.7132 2171.66 73.4832C2175.74 82.2532 2179.41 89.2896 2182.67 94.5923L2195.22 115.09C2199.91 122.84 2203.68 128.449 2206.54 131.916C2209.6 135.383 2212.35 137.525 2214.8 138.34V197.079H2112.31V141.4C2117.41 141.4 2121.08 140.38 2123.32 138.34C2125.57 136.301 2126.69 133.751 2126.69 130.692C2126.69 128.653 2126.28 126.715 2125.46 124.879C2124.85 123.044 2124.14 121.412 2123.32 119.985L2120.57 115.702H2060C2061.02 121.412 2063.97 126.715 2068.87 131.61C2073.76 136.505 2081.1 139.768 2090.89 141.4ZM2066.42 87.556C2064.99 89.5955 2063.77 91.839 2062.75 94.2864C2061.93 96.5299 2061.22 98.6714 2060.61 100.711H2111.7L2085.39 57.5748L2066.42 87.556Z" fill="white"/>
<path d="M2090.89 141.4V197.079H2002.17V138.34C2005.23 137.525 2008.8 135.689 2012.88 132.834C2016.96 129.774 2021.04 126.205 2025.12 122.126C2029.2 117.843 2033.07 112.948 2036.74 107.441C2040.62 101.935 2043.88 96.224 2046.53 90.3093C2047.76 87.454 2048.68 84.7006 2049.29 82.0492C2050.1 79.3978 2050.51 76.2365 2050.51 72.5654C2050.51 69.914 2049.59 67.4665 2047.76 65.2231C2046.13 62.9796 2043.27 61.8578 2039.19 61.8578H2025.43V4.34299H2165.54V47.1732C2165.54 55.9432 2167.58 64.7132 2171.66 73.4832C2175.74 82.2532 2179.41 89.2896 2182.67 94.5923L2195.22 115.09C2199.91 122.84 2203.68 128.449 2206.54 131.916C2209.6 135.383 2212.35 137.525 2214.8 138.34V197.079H2112.31V141.4C2117.41 141.4 2121.08 140.38 2123.32 138.34C2125.57 136.301 2126.69 133.751 2126.69 130.692C2126.69 128.653 2126.28 126.715 2125.46 124.879C2124.85 123.044 2124.14 121.412 2123.32 119.985L2120.57 115.702H2060C2061.02 121.412 2063.97 126.715 2068.87 131.61C2073.76 136.505 2081.1 139.768 2090.89 141.4ZM2066.42 87.556C2064.99 89.5955 2063.77 91.839 2062.75 94.2864C2061.93 96.5299 2061.22 98.6714 2060.61 100.711H2111.7L2085.39 57.5748L2066.42 87.556Z" fill="#000000"/>
</svg>
