<svg width="1728" height="228" viewBox="0 0 1728 228" fill="none" xmlns="http://www.w3.org/2000/svg">
<path d="M4.9407 214.891C1.92138 214.891 0 212.97 0 209.951V27.6938C0 24.6745 1.92138 22.7531 4.9407 22.7531H70.5422C73.287 22.7531 75.4829 24.4001 76.0318 27.1449L90.8539 93.5698C93.0498 103.451 94.1477 113.607 96.3436 123.488L98.265 123.214C97.4415 113.882 95.5201 93.0208 95.5201 86.1588L94.9712 27.6938C94.9712 24.6745 96.8925 22.7531 99.9119 22.7531H159.749C162.768 22.7531 164.69 24.6745 164.69 27.6938V209.951C164.69 212.97 162.768 214.891 159.749 214.891H101.01C98.265 214.891 96.3436 213.793 95.5201 210.774L76.8553 144.075C74.1104 134.193 72.1891 124.037 69.9932 114.156L68.0718 114.431C69.1698 123.763 71.0911 144.624 71.0911 151.486L71.6401 209.951C71.6401 212.97 69.7187 214.891 66.6994 214.891H4.9407Z" fill="white"/>
<path d="M4.9407 214.891C1.92138 214.891 0 212.97 0 209.951V27.6938C0 24.6745 1.92138 22.7531 4.9407 22.7531H70.5422C73.287 22.7531 75.4829 24.4001 76.0318 27.1449L90.8539 93.5698C93.0498 103.451 94.1477 113.607 96.3436 123.488L98.265 123.214C97.4415 113.882 95.5201 93.0208 95.5201 86.1588L94.9712 27.6938C94.9712 24.6745 96.8925 22.7531 99.9119 22.7531H159.749C162.768 22.7531 164.69 24.6745 164.69 27.6938V209.951C164.69 212.97 162.768 214.891 159.749 214.891H101.01C98.265 214.891 96.3436 213.793 95.5201 210.774L76.8553 144.075C74.1104 134.193 72.1891 124.037 69.9932 114.156L68.0718 114.431C69.1698 123.763 71.0911 144.624 71.0911 151.486L71.6401 209.951C71.6401 212.97 69.7187 214.891 66.6994 214.891H4.9407Z" fill="#000000"/>
<path d="M182.913 214.891V214.279C184.952 211.424 186.584 208.671 187.808 206.019C189.032 203.164 189.949 199.697 190.561 195.618C191.377 191.335 191.785 185.624 191.785 178.486C192.193 170.939 192.397 162.169 192.397 152.176C192.397 142.182 192.397 131.882 192.397 121.277C192.397 110.467 192.397 99.6577 192.397 88.8482C192.397 78.0387 192.193 68.0449 191.785 58.867C191.581 48.0575 190.663 40.0014 189.032 34.6986C187.604 29.3958 185.564 25.4187 182.913 22.7673V22.1554H332.207C332.003 27.2543 331.901 32.3531 331.901 37.4519C331.901 42.3468 331.901 47.5476 331.901 53.0544C331.901 63.8639 332.207 76.2031 332.819 90.0719H332.207C329.351 82.1177 326.394 76.2031 323.335 72.328C320.479 68.2489 316.298 65.5975 310.792 64.3738C305.285 63.1501 297.025 62.5382 286.011 62.5382C276.222 62.5382 267.248 62.6402 259.09 62.8441C251.135 63.0481 243.181 63.354 235.227 63.7619C235.023 74.1635 234.819 86.7067 234.615 101.391C234.615 116.076 234.309 130.965 233.697 146.057H234.309C235.737 123.214 240.326 106.694 248.076 96.4964C255.826 86.0948 267.146 80.894 282.034 80.894C295.699 80.894 305.285 84.2592 310.792 90.9897C316.502 97.5162 319.358 106.49 319.358 117.912C319.358 130.965 315.789 141.978 308.65 150.952C301.512 159.722 291.824 164.107 279.587 164.107C271.837 164.107 265.82 162.271 261.537 158.6C257.254 154.929 255.112 149.626 255.112 142.692C255.112 137.593 256.744 133.106 260.007 129.231C263.271 125.356 268.165 123.418 274.692 123.418C279.995 123.418 284.482 125.152 288.153 128.619C291.824 132.086 293.66 136.879 293.66 142.998C293.66 146.057 292.64 149.83 290.6 154.317C288.561 158.804 284.584 161.66 278.669 162.883C287.847 161.863 294.475 158.906 298.554 154.011C302.837 148.912 304.979 143.916 304.979 139.021C304.979 130.251 302.124 123.826 296.413 119.747C290.906 115.668 283.258 113.629 273.468 113.629C263.271 113.629 254.603 116.28 247.464 121.583C240.53 126.885 236.655 135.553 235.839 147.587C235.635 149.626 235.533 151.768 235.533 154.011C235.533 156.051 235.533 158.192 235.533 160.436C235.533 164.311 235.635 168.594 235.839 173.285C243.793 173.897 251.849 174.305 260.007 174.509C268.165 174.509 277.139 174.509 286.929 174.509C295.495 174.509 302.328 174.203 307.426 173.591C312.525 172.979 316.502 171.755 319.358 169.92C322.417 167.88 324.966 165.127 327.006 161.66C329.046 157.988 331.085 153.093 333.125 146.975H333.736C333.532 153.501 333.329 159.926 333.125 166.248C333.125 172.571 333.125 178.894 333.125 185.216C333.125 190.927 333.125 196.23 333.125 201.124C333.125 205.815 333.227 210.404 333.43 214.891H182.913Z" fill="white"/>
<path d="M182.913 214.891V214.279C184.952 211.424 186.584 208.671 187.808 206.019C189.032 203.164 189.949 199.697 190.561 195.618C191.377 191.335 191.785 185.624 191.785 178.486C192.193 170.939 192.397 162.169 192.397 152.176C192.397 142.182 192.397 131.882 192.397 121.277C192.397 110.467 192.397 99.6577 192.397 88.8482C192.397 78.0387 192.193 68.0449 191.785 58.867C191.581 48.0575 190.663 40.0014 189.032 34.6986C187.604 29.3958 185.564 25.4187 182.913 22.7673V22.1554H332.207C332.003 27.2543 331.901 32.3531 331.901 37.4519C331.901 42.3468 331.901 47.5476 331.901 53.0544C331.901 63.8639 332.207 76.2031 332.819 90.0719H332.207C329.351 82.1177 326.394 76.2031 323.335 72.328C320.479 68.2489 316.298 65.5975 310.792 64.3738C305.285 63.1501 297.025 62.5382 286.011 62.5382C276.222 62.5382 267.248 62.6402 259.09 62.8441C251.135 63.0481 243.181 63.354 235.227 63.7619C235.023 74.1635 234.819 86.7067 234.615 101.391C234.615 116.076 234.309 130.965 233.697 146.057H234.309C235.737 123.214 240.326 106.694 248.076 96.4964C255.826 86.0948 267.146 80.894 282.034 80.894C295.699 80.894 305.285 84.2592 310.792 90.9897C316.502 97.5162 319.358 106.49 319.358 117.912C319.358 130.965 315.789 141.978 308.65 150.952C301.512 159.722 291.824 164.107 279.587 164.107C271.837 164.107 265.82 162.271 261.537 158.6C257.254 154.929 255.112 149.626 255.112 142.692C255.112 137.593 256.744 133.106 260.007 129.231C263.271 125.356 268.165 123.418 274.692 123.418C279.995 123.418 284.482 125.152 288.153 128.619C291.824 132.086 293.66 136.879 293.66 142.998C293.66 146.057 292.64 149.83 290.6 154.317C288.561 158.804 284.584 161.66 278.669 162.883C287.847 161.863 294.475 158.906 298.554 154.011C302.837 148.912 304.979 143.916 304.979 139.021C304.979 130.251 302.124 123.826 296.413 119.747C290.906 115.668 283.258 113.629 273.468 113.629C263.271 113.629 254.603 116.28 247.464 121.583C240.53 126.885 236.655 135.553 235.839 147.587C235.635 149.626 235.533 151.768 235.533 154.011C235.533 156.051 235.533 158.192 235.533 160.436C235.533 164.311 235.635 168.594 235.839 173.285C243.793 173.897 251.849 174.305 260.007 174.509C268.165 174.509 277.139 174.509 286.929 174.509C295.495 174.509 302.328 174.203 307.426 173.591C312.525 172.979 316.502 171.755 319.358 169.92C322.417 167.88 324.966 165.127 327.006 161.66C329.046 157.988 331.085 153.093 333.125 146.975H333.736C333.532 153.501 333.329 159.926 333.125 166.248C333.125 172.571 333.125 178.894 333.125 185.216C333.125 190.927 333.125 196.23 333.125 201.124C333.125 205.815 333.227 210.404 333.43 214.891H182.913Z" fill="#000000"/>
<path d="M392.529 214.891C389.51 214.891 387.863 213.244 387.314 210.5L349.71 28.2428C349.161 24.949 350.808 22.7531 354.102 22.7531H419.703C422.722 22.7531 424.644 24.4001 424.918 27.4194L432.329 79.8456C433.976 92.1974 434.8 105.098 435.623 117.45H437.819C439.191 105.098 440.564 92.1974 442.485 79.8456L450.72 27.1449C451.269 24.1256 453.19 22.7531 456.209 22.7531H505.342C508.361 22.7531 510.008 24.4001 510.557 27.4194L518.243 79.8456C520.164 92.1974 522.085 105.098 523.458 117.45H525.654C526.477 105.098 527.301 92.1974 528.947 79.8456L536.359 27.4194C536.633 24.4001 538.554 22.7531 541.574 22.7531H606.352C609.646 22.7531 611.292 24.949 610.743 28.2428L573.688 210.5C573.139 213.244 571.492 214.891 568.473 214.891H502.048C499.029 214.891 497.382 213.244 496.833 210.5L486.677 163.289C484.207 152.035 482.834 140.781 480.913 129.527H479.266C477.345 140.781 475.972 152.309 473.776 163.563L464.169 210.5C463.62 213.244 461.974 214.891 458.954 214.891H392.529Z" fill="white"/>
<path d="M392.529 214.891C389.51 214.891 387.863 213.244 387.314 210.5L349.71 28.2428C349.161 24.949 350.808 22.7531 354.102 22.7531H419.703C422.722 22.7531 424.644 24.4001 424.918 27.4194L432.329 79.8456C433.976 92.1974 434.8 105.098 435.623 117.45H437.819C439.191 105.098 440.564 92.1974 442.485 79.8456L450.72 27.1449C451.269 24.1256 453.19 22.7531 456.209 22.7531H505.342C508.361 22.7531 510.008 24.4001 510.557 27.4194L518.243 79.8456C520.164 92.1974 522.085 105.098 523.458 117.45H525.654C526.477 105.098 527.301 92.1974 528.947 79.8456L536.359 27.4194C536.633 24.4001 538.554 22.7531 541.574 22.7531H606.352C609.646 22.7531 611.292 24.949 610.743 28.2428L573.688 210.5C573.139 213.244 571.492 214.891 568.473 214.891H502.048C499.029 214.891 497.382 213.244 496.833 210.5L486.677 163.289C484.207 152.035 482.834 140.781 480.913 129.527H479.266C477.345 140.781 475.972 152.309 473.776 163.563L464.169 210.5C463.62 213.244 461.974 214.891 458.954 214.891H392.529Z" fill="#000000"/>
<path d="M738.813 217.911C696.818 217.911 663.056 198.697 663.056 156.152V144.075C663.056 141.055 664.977 139.134 667.997 139.134H724.54C727.56 139.134 729.481 141.055 729.481 144.075V153.956C729.481 157.524 731.402 160.269 734.971 160.269C739.637 160.269 741.009 156.701 741.009 153.407V27.6938C741.009 24.6745 742.931 22.7531 745.95 22.7531H808.807C811.826 22.7531 813.747 24.6745 813.747 27.6938L814.022 157.25C814.022 196.775 783.829 217.911 738.813 217.911Z" fill="white"/>
<path d="M738.813 217.911C696.818 217.911 663.056 198.697 663.056 156.152V144.075C663.056 141.055 664.977 139.134 667.997 139.134H724.54C727.56 139.134 729.481 141.055 729.481 144.075V153.956C729.481 157.524 731.402 160.269 734.971 160.269C739.637 160.269 741.009 156.701 741.009 153.407V27.6938C741.009 24.6745 742.931 22.7531 745.95 22.7531H808.807C811.826 22.7531 813.747 24.6745 813.747 27.6938L814.022 157.25C814.022 196.775 783.829 217.911 738.813 217.911Z" fill="#000000"/>
<path d="M842.493 214.891C839.474 214.891 837.552 212.97 837.552 209.951V27.6938C837.552 24.6745 839.474 22.7531 842.493 22.7531H965.736C968.755 22.7531 970.677 24.6745 970.677 27.6938V80.9436C970.677 83.9629 968.755 85.8843 965.736 85.8843H909.192V97.4126H946.522C949.541 97.4126 951.463 99.3339 951.463 102.353V135.566C951.463 138.585 949.541 140.506 946.522 140.506H909.192V152.858H966.834C969.853 152.858 971.774 154.78 971.774 157.799V209.951C971.774 212.97 969.853 214.891 966.834 214.891H842.493Z" fill="white"/>
<path d="M842.493 214.891C839.474 214.891 837.552 212.97 837.552 209.951V27.6938C837.552 24.6745 839.474 22.7531 842.493 22.7531H965.736C968.755 22.7531 970.677 24.6745 970.677 27.6938V80.9436C970.677 83.9629 968.755 85.8843 965.736 85.8843H909.192V97.4126H946.522C949.541 97.4126 951.463 99.3339 951.463 102.353V135.566C951.463 138.585 949.541 140.506 946.522 140.506H909.192V152.858H966.834C969.853 152.858 971.774 154.78 971.774 157.799V209.951C971.774 212.97 969.853 214.891 966.834 214.891H842.493Z" fill="#000000"/>
<path d="M1179.67 170.46C1180.81 179.139 1186 189.61 1195.24 201.873C1195.81 203.194 1195.9 204.703 1195.52 206.401C1195.33 207.911 1194.86 209.043 1194.11 209.797C1191.47 211.118 1187.6 213.382 1182.5 216.589C1177.6 219.797 1172.98 222.249 1168.64 223.947C1164.49 225.834 1160.24 226.777 1155.9 226.777C1154.77 226.777 1153.45 226.117 1151.94 224.796C1150.43 223.664 1149.39 222.532 1148.83 221.4C1147.7 217.627 1145.62 210.835 1142.6 201.024C1139.77 191.214 1137.51 183.95 1135.81 179.233C1134.3 174.328 1132.13 168.008 1129.3 160.272C1126.47 152.537 1123.55 145.462 1120.53 139.047C1117.51 132.633 1114.21 126.407 1110.62 120.369C1107.42 115.653 1103.83 113.672 1099.87 114.426C1097.04 116.124 1095.62 118.86 1095.62 122.633C1094.49 135.274 1093.83 153.575 1093.64 177.535C1093.64 201.496 1093.55 216.401 1093.36 222.249C1092.98 224.136 1091.94 225.079 1090.25 225.079C1088.55 225.079 1087.32 224.136 1086.57 222.249C1086.19 220.551 1086.19 217.816 1086.57 214.042C1087.13 210.08 1087.13 207.062 1086.57 204.986C1085.62 203.288 1084.59 201.779 1083.45 200.458C1082.32 198.949 1080.81 197.817 1078.93 197.062C1077.23 196.308 1075.72 196.779 1074.4 198.477C1071.76 200.364 1069.02 202.911 1066.19 206.118C1063.55 209.137 1060.63 212.627 1057.42 216.589C1054.4 220.74 1052.04 223.853 1050.34 225.928C1046.19 227.249 1043.55 227.532 1042.42 226.777C1039.97 224.702 1036.76 222.061 1032.8 218.853C1028.84 215.835 1025.25 213.005 1022.04 210.363C1019.03 207.722 1016.38 204.892 1014.12 201.873C1013.55 202.062 1012.8 202.439 1011.86 203.005C1010.91 203.571 1010.06 203.949 1009.31 204.137C1008.55 204.326 1007.8 204.326 1007.04 204.137C1006.67 203.949 1005.91 203.477 1004.78 202.722C1003.65 201.968 1002.8 201.402 1002.23 201.024C1001.86 200.647 1001.2 200.081 1000.25 199.326C999.498 198.383 999.215 197.723 999.404 197.345C999.781 196.779 1000.06 196.025 1000.25 195.081C1003.08 191.685 1008.93 186.308 1017.8 178.95C1026.85 171.404 1033.08 164.706 1036.48 158.857C1047.61 136.783 1050.63 117.162 1045.53 99.9933C1043.83 93.2013 1042.14 87.3527 1040.44 82.4473C1038.74 77.542 1036.38 72.165 1033.36 66.3163C1030.53 60.4677 1026.85 55.8453 1022.33 52.4493C1017.8 49.0533 1012.7 47.0723 1007.04 46.5063C1004.59 46.129 1001.86 48.11 998.838 52.4493C995.819 56.7887 993.272 59.3357 991.197 60.0903C989.499 60.6563 988.178 60.6563 987.235 60.0903C986.48 59.3357 986.197 58.2037 986.386 56.6943C986.574 55.185 986.857 53.77 987.235 52.4493C987.801 50.94 988.367 49.4307 988.933 47.9213C992.895 42.2613 997.423 36.6957 1002.52 31.2243C1007.8 25.5643 1012.33 21.0363 1016.1 17.6403C1019.87 14.2443 1025.25 9.52767 1032.23 3.49033C1034.31 1.981 1036.19 1.69799 1037.89 2.64133C1040.16 4.15066 1042.51 7.16933 1044.97 11.6973C1047.61 16.2253 1050.06 19.244 1052.32 20.7533C1056.66 22.4513 1061 25.47 1065.34 29.8093C1065.53 29.998 1065.91 30.4697 1066.47 31.2243C1067.23 31.7903 1067.7 32.1677 1067.89 32.3563C1068.08 32.545 1068.46 32.9223 1069.02 33.4883C1069.78 34.0543 1070.25 34.4317 1070.44 34.6203C1070.81 34.6203 1071.29 34.7147 1071.85 34.9033C1072.42 35.092 1072.98 35.1863 1073.55 35.1863C1074.12 34.9977 1074.68 34.809 1075.25 34.6203C1076.95 33.4883 1080.53 30.6583 1086 26.1303C1091.47 21.4137 1096.1 18.2063 1099.87 16.5083C1102.51 14.999 1105.53 12.452 1108.92 8.86733C1112.51 5.094 1115.34 2.547 1117.41 1.22633C1121.94 -1.22633 1127.23 3.8147e-06 1133.26 4.90533C1135.72 7.16933 1139.77 10.9427 1145.43 16.2253C1151.28 21.508 1155.71 25.6587 1158.73 28.6773C1161.94 31.5073 1165.62 35.375 1169.77 40.2803C1174.11 45.1857 1177.79 49.9967 1180.81 54.7133C1181.18 55.2793 1180.9 56.2227 1179.96 57.5433C1179.2 58.864 1178.26 59.713 1177.13 60.0903C1174.3 61.977 1170.15 64.0523 1164.68 66.3163C1159.2 68.3917 1154.39 70.6557 1150.24 73.1083C1146.28 75.561 1143.17 78.7683 1140.9 82.7303C1140.53 83.1077 1140.34 83.6737 1140.34 84.4283C1140.34 85.183 1140.43 86.032 1140.62 86.9753C1140.81 87.9187 1140.9 88.579 1140.9 88.9563C1142.98 93.107 1146.09 98.9557 1150.24 106.502C1154.58 114.049 1158.26 121.03 1161.28 127.444C1164.3 133.67 1166.56 139.896 1168.07 146.122C1168.64 147.82 1170.62 150.933 1174.01 155.461V161.404C1174.39 162.159 1175.05 163.102 1176 164.234C1176.94 165.178 1177.69 166.215 1178.26 167.347C1178.83 168.291 1179.3 169.328 1179.67 170.46ZM1086.57 165.649C1087.51 149.99 1088.08 127.633 1088.27 98.5783C1088.64 69.335 1088.93 51.0343 1089.11 43.6763C1089.11 41.7897 1087.79 41.035 1085.15 41.4123C1082.7 41.601 1081 42.3557 1080.06 43.6763C1078.74 47.261 1077.98 49.808 1077.79 51.3173C1077.79 52.638 1078.27 55.2793 1079.21 59.2413C1080.15 63.0147 1080.72 65.5617 1080.91 66.8823C1084.12 84.051 1084.4 97.4463 1081.76 107.068C1079.68 114.804 1076.47 122.728 1072.13 130.84C1067.8 138.764 1063.93 145.085 1060.53 149.801C1057.32 154.329 1052.04 161.216 1044.68 170.46C1043.93 170.838 1043.55 171.687 1043.55 173.007C1043.55 174.328 1043.93 175.177 1044.68 175.554C1049.78 180.082 1056.95 183.856 1066.19 186.874C1071.66 189.138 1076.38 188.006 1080.34 183.478C1084.3 178.95 1086.38 173.007 1086.57 165.649ZM1102.42 98.8613C1104.3 96.5973 1108.36 93.2957 1114.58 88.9563C1120.81 84.4283 1125.24 80.1833 1127.89 76.2213C1130.72 72.0707 1131.28 67.2597 1129.58 61.7883C1127.32 60.4677 1123.26 57.0717 1117.41 51.6003C1111.75 45.9403 1106.76 42.45 1102.42 41.1293C1102.04 41.1293 1101.38 41.601 1100.43 42.5443C1099.49 43.4877 1099.02 44.148 1099.02 44.5253C1098.83 46.978 1098.55 51.1287 1098.17 56.9773C1097.79 62.826 1097.51 67.354 1097.32 70.5613C1097.13 73.7687 1097.13 77.825 1097.32 82.7303C1097.7 87.6357 1098.27 92.1637 1099.02 96.3143C1099.02 96.8803 1099.21 97.4463 1099.59 98.0123C1100.15 98.5783 1100.62 98.9557 1101 99.1443C1101.57 99.333 1102.04 99.2387 1102.42 98.8613Z" fill="white"/>
<path d="M1179.67 170.46C1180.81 179.139 1186 189.61 1195.24 201.873C1195.81 203.194 1195.9 204.703 1195.52 206.401C1195.33 207.911 1194.86 209.043 1194.11 209.797C1191.47 211.118 1187.6 213.382 1182.5 216.589C1177.6 219.797 1172.98 222.249 1168.64 223.947C1164.49 225.834 1160.24 226.777 1155.9 226.777C1154.77 226.777 1153.45 226.117 1151.94 224.796C1150.43 223.664 1149.39 222.532 1148.83 221.4C1147.7 217.627 1145.62 210.835 1142.6 201.024C1139.77 191.214 1137.51 183.95 1135.81 179.233C1134.3 174.328 1132.13 168.008 1129.3 160.272C1126.47 152.537 1123.55 145.462 1120.53 139.047C1117.51 132.633 1114.21 126.407 1110.62 120.369C1107.42 115.653 1103.83 113.672 1099.87 114.426C1097.04 116.124 1095.62 118.86 1095.62 122.633C1094.49 135.274 1093.83 153.575 1093.64 177.535C1093.64 201.496 1093.55 216.401 1093.36 222.249C1092.98 224.136 1091.94 225.079 1090.25 225.079C1088.55 225.079 1087.32 224.136 1086.57 222.249C1086.19 220.551 1086.19 217.816 1086.57 214.042C1087.13 210.08 1087.13 207.062 1086.57 204.986C1085.62 203.288 1084.59 201.779 1083.45 200.458C1082.32 198.949 1080.81 197.817 1078.93 197.062C1077.23 196.308 1075.72 196.779 1074.4 198.477C1071.76 200.364 1069.02 202.911 1066.19 206.118C1063.55 209.137 1060.63 212.627 1057.42 216.589C1054.4 220.74 1052.04 223.853 1050.34 225.928C1046.19 227.249 1043.55 227.532 1042.42 226.777C1039.97 224.702 1036.76 222.061 1032.8 218.853C1028.84 215.835 1025.25 213.005 1022.04 210.363C1019.03 207.722 1016.38 204.892 1014.12 201.873C1013.55 202.062 1012.8 202.439 1011.86 203.005C1010.91 203.571 1010.06 203.949 1009.31 204.137C1008.55 204.326 1007.8 204.326 1007.04 204.137C1006.67 203.949 1005.91 203.477 1004.78 202.722C1003.65 201.968 1002.8 201.402 1002.23 201.024C1001.86 200.647 1001.2 200.081 1000.25 199.326C999.498 198.383 999.215 197.723 999.404 197.345C999.781 196.779 1000.06 196.025 1000.25 195.081C1003.08 191.685 1008.93 186.308 1017.8 178.95C1026.85 171.404 1033.08 164.706 1036.48 158.857C1047.61 136.783 1050.63 117.162 1045.53 99.9933C1043.83 93.2013 1042.14 87.3527 1040.44 82.4473C1038.74 77.542 1036.38 72.165 1033.36 66.3163C1030.53 60.4677 1026.85 55.8453 1022.33 52.4493C1017.8 49.0533 1012.7 47.0723 1007.04 46.5063C1004.59 46.129 1001.86 48.11 998.838 52.4493C995.819 56.7887 993.272 59.3357 991.197 60.0903C989.499 60.6563 988.178 60.6563 987.235 60.0903C986.48 59.3357 986.197 58.2037 986.386 56.6943C986.574 55.185 986.857 53.77 987.235 52.4493C987.801 50.94 988.367 49.4307 988.933 47.9213C992.895 42.2613 997.423 36.6957 1002.52 31.2243C1007.8 25.5643 1012.33 21.0363 1016.1 17.6403C1019.87 14.2443 1025.25 9.52767 1032.23 3.49033C1034.31 1.981 1036.19 1.69799 1037.89 2.64133C1040.16 4.15066 1042.51 7.16933 1044.97 11.6973C1047.61 16.2253 1050.06 19.244 1052.32 20.7533C1056.66 22.4513 1061 25.47 1065.34 29.8093C1065.53 29.998 1065.91 30.4697 1066.47 31.2243C1067.23 31.7903 1067.7 32.1677 1067.89 32.3563C1068.08 32.545 1068.46 32.9223 1069.02 33.4883C1069.78 34.0543 1070.25 34.4317 1070.44 34.6203C1070.81 34.6203 1071.29 34.7147 1071.85 34.9033C1072.42 35.092 1072.98 35.1863 1073.55 35.1863C1074.12 34.9977 1074.68 34.809 1075.25 34.6203C1076.95 33.4883 1080.53 30.6583 1086 26.1303C1091.47 21.4137 1096.1 18.2063 1099.87 16.5083C1102.51 14.999 1105.53 12.452 1108.92 8.86733C1112.51 5.094 1115.34 2.547 1117.41 1.22633C1121.94 -1.22633 1127.23 3.8147e-06 1133.26 4.90533C1135.72 7.16933 1139.77 10.9427 1145.43 16.2253C1151.28 21.508 1155.71 25.6587 1158.73 28.6773C1161.94 31.5073 1165.62 35.375 1169.77 40.2803C1174.11 45.1857 1177.79 49.9967 1180.81 54.7133C1181.18 55.2793 1180.9 56.2227 1179.96 57.5433C1179.2 58.864 1178.26 59.713 1177.13 60.0903C1174.3 61.977 1170.15 64.0523 1164.68 66.3163C1159.2 68.3917 1154.39 70.6557 1150.24 73.1083C1146.28 75.561 1143.17 78.7683 1140.9 82.7303C1140.53 83.1077 1140.34 83.6737 1140.34 84.4283C1140.34 85.183 1140.43 86.032 1140.62 86.9753C1140.81 87.9187 1140.9 88.579 1140.9 88.9563C1142.98 93.107 1146.09 98.9557 1150.24 106.502C1154.58 114.049 1158.26 121.03 1161.28 127.444C1164.3 133.67 1166.56 139.896 1168.07 146.122C1168.64 147.82 1170.62 150.933 1174.01 155.461V161.404C1174.39 162.159 1175.05 163.102 1176 164.234C1176.94 165.178 1177.69 166.215 1178.26 167.347C1178.83 168.291 1179.3 169.328 1179.67 170.46ZM1086.57 165.649C1087.51 149.99 1088.08 127.633 1088.27 98.5783C1088.64 69.335 1088.93 51.0343 1089.11 43.6763C1089.11 41.7897 1087.79 41.035 1085.15 41.4123C1082.7 41.601 1081 42.3557 1080.06 43.6763C1078.74 47.261 1077.98 49.808 1077.79 51.3173C1077.79 52.638 1078.27 55.2793 1079.21 59.2413C1080.15 63.0147 1080.72 65.5617 1080.91 66.8823C1084.12 84.051 1084.4 97.4463 1081.76 107.068C1079.68 114.804 1076.47 122.728 1072.13 130.84C1067.8 138.764 1063.93 145.085 1060.53 149.801C1057.32 154.329 1052.04 161.216 1044.68 170.46C1043.93 170.838 1043.55 171.687 1043.55 173.007C1043.55 174.328 1043.93 175.177 1044.68 175.554C1049.78 180.082 1056.95 183.856 1066.19 186.874C1071.66 189.138 1076.38 188.006 1080.34 183.478C1084.3 178.95 1086.38 173.007 1086.57 165.649ZM1102.42 98.8613C1104.3 96.5973 1108.36 93.2957 1114.58 88.9563C1120.81 84.4283 1125.24 80.1833 1127.89 76.2213C1130.72 72.0707 1131.28 67.2597 1129.58 61.7883C1127.32 60.4677 1123.26 57.0717 1117.41 51.6003C1111.75 45.9403 1106.76 42.45 1102.42 41.1293C1102.04 41.1293 1101.38 41.601 1100.43 42.5443C1099.49 43.4877 1099.02 44.148 1099.02 44.5253C1098.83 46.978 1098.55 51.1287 1098.17 56.9773C1097.79 62.826 1097.51 67.354 1097.32 70.5613C1097.13 73.7687 1097.13 77.825 1097.32 82.7303C1097.7 87.6357 1098.27 92.1637 1099.02 96.3143C1099.02 96.8803 1099.21 97.4463 1099.59 98.0123C1100.15 98.5783 1100.62 98.9557 1101 99.1443C1101.57 99.333 1102.04 99.2387 1102.42 98.8613Z" fill="#000000"/>
<path d="M1283.94 218.734C1247.15 218.734 1206.26 201.716 1203.24 149.29C1202.96 145.996 1204.88 144.075 1207.9 144.075H1267.19C1270.76 144.075 1272.96 146.271 1272.96 149.29C1273.23 156.152 1275.98 161.367 1284.21 161.367C1289.7 161.367 1292.72 157.524 1292.99 153.133C1292.72 141.604 1278.99 141.055 1257.31 137.213C1227.94 131.997 1203.79 116.077 1204.06 79.8456C1203.79 40.5945 1237.27 16.7145 1280.09 16.7145C1310.01 16.7145 1353.93 30.4387 1356.12 80.9436C1356.12 84.2374 1354.2 86.1588 1351.18 86.1588H1296.01C1292.72 86.1588 1291.07 84.2374 1290.8 81.2181C1290.52 76.2774 1289.15 70.5132 1281.19 70.5132C1276.8 70.5132 1273.78 73.258 1273.78 77.6498C1273.78 87.8056 1287.5 87.8056 1308.91 93.0208C1338.56 100.157 1362.44 116.626 1362.71 153.133C1362.99 198.148 1325.66 218.734 1283.94 218.734Z" fill="white"/>
<path d="M1283.94 218.734C1247.15 218.734 1206.26 201.716 1203.24 149.29C1202.96 145.996 1204.88 144.075 1207.9 144.075H1267.19C1270.76 144.075 1272.96 146.271 1272.96 149.29C1273.23 156.152 1275.98 161.367 1284.21 161.367C1289.7 161.367 1292.72 157.524 1292.99 153.133C1292.72 141.604 1278.99 141.055 1257.31 137.213C1227.94 131.997 1203.79 116.077 1204.06 79.8456C1203.79 40.5945 1237.27 16.7145 1280.09 16.7145C1310.01 16.7145 1353.93 30.4387 1356.12 80.9436C1356.12 84.2374 1354.2 86.1588 1351.18 86.1588H1296.01C1292.72 86.1588 1291.07 84.2374 1290.8 81.2181C1290.52 76.2774 1289.15 70.5132 1281.19 70.5132C1276.8 70.5132 1273.78 73.258 1273.78 77.6498C1273.78 87.8056 1287.5 87.8056 1308.91 93.0208C1338.56 100.157 1362.44 116.626 1362.71 153.133C1362.99 198.148 1325.66 218.734 1283.94 218.734Z" fill="#000000"/>
<path d="M1385.06 214.891C1382.04 214.891 1380.12 212.97 1380.12 209.951V27.6938C1380.12 24.6745 1382.04 22.7531 1385.06 22.7531H1508.3C1511.32 22.7531 1513.24 24.6745 1513.24 27.6938V80.9436C1513.24 83.9629 1511.32 85.8843 1508.3 85.8843H1451.76V97.4126H1489.09C1492.11 97.4126 1494.03 99.3339 1494.03 102.353V135.566C1494.03 138.585 1492.11 140.506 1489.09 140.506H1451.76V152.858H1509.4C1512.42 152.858 1514.34 154.78 1514.34 157.799V209.951C1514.34 212.97 1512.42 214.891 1509.4 214.891H1385.06Z" fill="white"/>
<path d="M1385.06 214.891C1382.04 214.891 1380.12 212.97 1380.12 209.951V27.6938C1380.12 24.6745 1382.04 22.7531 1385.06 22.7531H1508.3C1511.32 22.7531 1513.24 24.6745 1513.24 27.6938V80.9436C1513.24 83.9629 1511.32 85.8843 1508.3 85.8843H1451.76V97.4126H1489.09C1492.11 97.4126 1494.03 99.3339 1494.03 102.353V135.566C1494.03 138.585 1492.11 140.506 1489.09 140.506H1451.76V152.858H1509.4C1512.42 152.858 1514.34 154.78 1514.34 157.799V209.951C1514.34 212.97 1512.42 214.891 1509.4 214.891H1385.06Z" fill="#000000"/>
<path d="M1689.49 214.891H1564.37V156.153C1571.71 156.153 1577.42 156.051 1581.5 155.847C1585.58 155.439 1588.53 154.725 1590.37 153.705C1592.41 152.482 1593.53 150.646 1593.73 148.199C1594.14 145.751 1594.35 142.386 1594.35 138.103V133.82L1569.26 105.368C1562.33 97.6182 1555.29 91.9075 1548.15 88.2363C1541.22 84.5652 1533.87 82.0157 1526.12 80.5881V22.1554H1625.86V80.5881C1621.98 80.792 1618.92 81.9138 1616.68 83.9533C1614.44 85.9928 1613.31 88.7462 1613.31 92.2134C1613.31 94.4569 1613.82 97.0063 1614.84 99.8617C1616.07 102.717 1618.62 105.98 1622.49 109.651L1641.77 128.619C1648.29 123.52 1653.8 118.115 1658.29 112.405C1662.77 106.694 1665.02 101.493 1665.02 96.8024C1665.02 92.7233 1663.59 89.2561 1660.73 86.4007C1657.88 83.3414 1653.39 81.4039 1647.27 80.5881V22.1554H1727.73V80.5881C1718.35 82.8316 1707.85 88.3383 1696.22 97.1083C1684.8 105.878 1672.36 118.115 1658.9 133.82V138.103C1658.9 142.386 1659 145.751 1659.2 148.199C1659.61 150.646 1660.73 152.482 1662.57 153.705C1664.61 154.725 1667.67 155.439 1671.75 155.847C1676.03 156.051 1681.94 156.153 1689.49 156.153V214.891Z" fill="white"/>
<path d="M1689.49 214.891H1564.37V156.153C1571.71 156.153 1577.42 156.051 1581.5 155.847C1585.58 155.439 1588.53 154.725 1590.37 153.705C1592.41 152.482 1593.53 150.646 1593.73 148.199C1594.14 145.751 1594.35 142.386 1594.35 138.103V133.82L1569.26 105.368C1562.33 97.6182 1555.29 91.9075 1548.15 88.2363C1541.22 84.5652 1533.87 82.0157 1526.12 80.5881V22.1554H1625.86V80.5881C1621.98 80.792 1618.92 81.9138 1616.68 83.9533C1614.44 85.9928 1613.31 88.7462 1613.31 92.2134C1613.31 94.4569 1613.82 97.0063 1614.84 99.8617C1616.07 102.717 1618.62 105.98 1622.49 109.651L1641.77 128.619C1648.29 123.52 1653.8 118.115 1658.29 112.405C1662.77 106.694 1665.02 101.493 1665.02 96.8024C1665.02 92.7233 1663.59 89.2561 1660.73 86.4007C1657.88 83.3414 1653.39 81.4039 1647.27 80.5881V22.1554H1727.73V80.5881C1718.35 82.8316 1707.85 88.3383 1696.22 97.1083C1684.8 105.878 1672.36 118.115 1658.9 133.82V138.103C1658.9 142.386 1659 145.751 1659.2 148.199C1659.61 150.646 1660.73 152.482 1662.57 153.705C1664.61 154.725 1667.67 155.439 1671.75 155.847C1676.03 156.051 1681.94 156.153 1689.49 156.153V214.891Z" fill="#000000"/>
</svg>
