<svg width="1801" height="202" viewBox="0 0 1801 202" fill="none" xmlns="http://www.w3.org/2000/svg">
<path d="M4.9407 197.079C1.92138 197.079 0 195.158 0 192.138V9.8814C0 6.86209 1.92138 4.9407 4.9407 4.9407H70.5422C73.287 4.9407 75.4829 6.58761 76.0318 9.33244L90.8539 75.7573C93.0498 85.6387 94.1477 95.7946 96.3436 105.676L98.265 105.402C97.4415 96.0691 95.5201 75.2084 95.5201 68.3463L94.9712 9.8814C94.9712 6.86209 96.8925 4.9407 99.9119 4.9407H159.749C162.768 4.9407 164.69 6.86209 164.69 9.8814V192.138C164.69 195.158 162.768 197.079 159.749 197.079H101.01C98.265 197.079 96.3436 195.981 95.5201 192.962L76.8553 126.262C74.1104 116.381 72.1891 106.225 69.9932 96.3436L68.0718 96.6181C69.1698 105.95 71.0911 126.811 71.0911 133.673L71.6401 192.138C71.6401 195.158 69.7187 197.079 66.6994 197.079H4.9407Z" fill="white"/>
<path d="M4.9407 197.079C1.92138 197.079 0 195.158 0 192.138V9.8814C0 6.86209 1.92138 4.9407 4.9407 4.9407H70.5422C73.287 4.9407 75.4829 6.58761 76.0318 9.33244L90.8539 75.7573C93.0498 85.6387 94.1477 95.7946 96.3436 105.676L98.265 105.402C97.4415 96.0691 95.5201 75.2084 95.5201 68.3463L94.9712 9.8814C94.9712 6.86209 96.8925 4.9407 99.9119 4.9407H159.749C162.768 4.9407 164.69 6.86209 164.69 9.8814V192.138C164.69 195.158 162.768 197.079 159.749 197.079H101.01C98.265 197.079 96.3436 195.981 95.5201 192.962L76.8553 126.262C74.1104 116.381 72.1891 106.225 69.9932 96.3436L68.0718 96.6181C69.1698 105.95 71.0911 126.811 71.0911 133.673L71.6401 192.138C71.6401 195.158 69.7187 197.079 66.6994 197.079H4.9407Z" fill="#000000"/>
<path d="M193.24 197.079C190.221 197.079 188.3 195.158 188.3 192.138V9.8814C188.3 6.86209 190.221 4.9407 193.24 4.9407H316.483C319.503 4.9407 321.424 6.86209 321.424 9.8814V63.1311C321.424 66.1504 319.503 68.0718 316.483 68.0718H259.94V79.6001H297.27C300.289 79.6001 302.21 81.5215 302.21 84.5408V117.753C302.21 120.773 300.289 122.694 297.27 122.694H259.94V135.046H317.581C320.601 135.046 322.522 136.967 322.522 139.986V192.138C322.522 195.158 320.601 197.079 317.581 197.079H193.24Z" fill="white"/>
<path d="M193.24 197.079C190.221 197.079 188.3 195.158 188.3 192.138V9.8814C188.3 6.86209 190.221 4.9407 193.24 4.9407H316.483C319.503 4.9407 321.424 6.86209 321.424 9.8814V63.1311C321.424 66.1504 319.503 68.0718 316.483 68.0718H259.94V79.6001H297.27C300.289 79.6001 302.21 81.5215 302.21 84.5408V117.753C302.21 120.773 300.289 122.694 297.27 122.694H259.94V135.046H317.581C320.601 135.046 322.522 136.967 322.522 139.986V192.138C322.522 195.158 320.601 197.079 317.581 197.079H193.24Z" fill="#000000"/>
<path d="M500.729 197.079L486.35 153.943H478.396L459.735 197.079H387.535L348.07 78.0721C346.031 71.9535 343.787 67.9764 341.34 66.1409C339.096 64.1013 336.751 62.9796 334.303 62.7756V4.34299H429.142V62.7756C419.352 62.9796 412.519 64.8152 408.644 68.2824C404.973 71.7496 403.138 75.9306 403.138 80.8255C403.138 85.9243 404.463 90.0034 407.115 93.0627C409.97 96.122 413.845 99.1813 418.74 102.241L472.89 135.893L479.008 131.304L461.264 78.0721C459.225 72.1575 456.981 68.1804 454.534 66.1409C452.29 64.1013 449.945 62.9796 447.497 62.7756V4.34299H545.395V62.7756C535.605 62.9796 528.773 64.8152 524.898 68.2824C521.023 71.7496 519.085 75.9306 519.085 80.8255C519.085 84.7006 520.003 88.3718 521.838 91.839C523.878 95.1022 526.529 98.5694 529.793 102.241L570.787 147.518C574.458 135.077 577.314 124.675 579.353 116.313C581.393 107.747 582.413 99.8951 582.413 92.7568C582.413 85.2105 580.985 78.786 578.13 73.4832C575.478 67.9764 570.685 64.4072 563.751 62.7756V4.34299H634.115V62.7756C629.016 64.8152 624.631 68.7923 620.96 74.7069C617.492 80.4176 613.209 90.1054 608.111 103.77L573.541 197.079H500.729Z" fill="white"/>
<path d="M500.729 197.079L486.35 153.943H478.396L459.735 197.079H387.535L348.07 78.0721C346.031 71.9535 343.787 67.9764 341.34 66.1409C339.096 64.1013 336.751 62.9796 334.303 62.7756V4.34299H429.142V62.7756C419.352 62.9796 412.519 64.8152 408.644 68.2824C404.973 71.7496 403.138 75.9306 403.138 80.8255C403.138 85.9243 404.463 90.0034 407.115 93.0627C409.97 96.122 413.845 99.1813 418.74 102.241L472.89 135.893L479.008 131.304L461.264 78.0721C459.225 72.1575 456.981 68.1804 454.534 66.1409C452.29 64.1013 449.945 62.9796 447.497 62.7756V4.34299H545.395V62.7756C535.605 62.9796 528.773 64.8152 524.898 68.2824C521.023 71.7496 519.085 75.9306 519.085 80.8255C519.085 84.7006 520.003 88.3718 521.838 91.839C523.878 95.1022 526.529 98.5694 529.793 102.241L570.787 147.518C574.458 135.077 577.314 124.675 579.353 116.313C581.393 107.747 582.413 99.8951 582.413 92.7568C582.413 85.2105 580.985 78.786 578.13 73.4832C575.478 67.9764 570.685 64.4072 563.751 62.7756V4.34299H634.115V62.7756C629.016 64.8152 624.631 68.7923 620.96 74.7069C617.492 80.4176 613.209 90.1054 608.111 103.77L573.541 197.079H500.729Z" fill="#000000"/>
<path d="M712.135 197.079C709.115 197.079 707.194 195.158 707.194 192.138V9.8814C707.194 6.86209 709.115 4.9407 712.135 4.9407H783.5C786.245 4.9407 788.441 6.58761 788.99 9.33244L804.636 74.1105L813.968 115.008H815.615L824.947 74.3849L840.593 9.33244C841.142 6.58761 843.338 4.9407 846.083 4.9407H917.448C920.467 4.9407 922.389 6.86209 922.389 9.8814V192.138C922.389 195.158 920.467 197.079 917.448 197.079H860.081C857.062 197.079 855.14 195.158 855.14 192.138L855.415 152.887C855.415 139.163 858.16 105.676 859.258 97.9905L857.062 97.716C855.415 105.951 850.474 129.282 848.278 137.516L833.456 192.962C832.633 195.981 830.711 197.079 827.967 197.079H802.44C799.695 197.079 797.773 195.981 796.95 192.962L782.128 137.516C779.932 129.282 774.991 105.951 773.344 97.716L771.149 97.9905C772.247 105.676 774.991 139.163 774.991 152.887L775.266 192.138C775.266 195.158 773.344 197.079 770.325 197.079H712.135Z" fill="white"/>
<path d="M712.135 197.079C709.115 197.079 707.194 195.158 707.194 192.138V9.8814C707.194 6.86209 709.115 4.9407 712.135 4.9407H783.5C786.245 4.9407 788.441 6.58761 788.99 9.33244L804.636 74.1105L813.968 115.008H815.615L824.947 74.3849L840.593 9.33244C841.142 6.58761 843.338 4.9407 846.083 4.9407H917.448C920.467 4.9407 922.389 6.86209 922.389 9.8814V192.138C922.389 195.158 920.467 197.079 917.448 197.079H860.081C857.062 197.079 855.14 195.158 855.14 192.138L855.415 152.887C855.415 139.163 858.16 105.676 859.258 97.9905L857.062 97.716C855.415 105.951 850.474 129.282 848.278 137.516L833.456 192.962C832.633 195.981 830.711 197.079 827.967 197.079H802.44C799.695 197.079 797.773 195.981 796.95 192.962L782.128 137.516C779.932 129.282 774.991 105.951 773.344 97.716L771.149 97.9905C772.247 105.676 774.991 139.163 774.991 152.887L775.266 192.138C775.266 195.158 773.344 197.079 770.325 197.079H712.135Z" fill="#000000"/>
<path d="M950.828 197.079C947.809 197.079 945.887 195.158 945.887 192.138V9.8814C945.887 6.86209 947.809 4.9407 950.828 4.9407H1074.07C1077.09 4.9407 1079.01 6.86209 1079.01 9.8814V63.1311C1079.01 66.1504 1077.09 68.0718 1074.07 68.0718H1017.53V79.6001H1054.86C1057.88 79.6001 1059.8 81.5215 1059.8 84.5408V117.753C1059.8 120.773 1057.88 122.694 1054.86 122.694H1017.53V135.046H1075.17C1078.19 135.046 1080.11 136.967 1080.11 139.986V192.138C1080.11 195.158 1078.19 197.079 1075.17 197.079H950.828Z" fill="white"/>
<path d="M950.828 197.079C947.809 197.079 945.887 195.158 945.887 192.138V9.8814C945.887 6.86209 947.809 4.9407 950.828 4.9407H1074.07C1077.09 4.9407 1079.01 6.86209 1079.01 9.8814V63.1311C1079.01 66.1504 1077.09 68.0718 1074.07 68.0718H1017.53V79.6001H1054.86C1057.88 79.6001 1059.8 81.5215 1059.8 84.5408V117.753C1059.8 120.773 1057.88 122.694 1054.86 122.694H1017.53V135.046H1075.17C1078.19 135.046 1080.11 136.967 1080.11 139.986V192.138C1080.11 195.158 1078.19 197.079 1075.17 197.079H950.828Z" fill="#000000"/>
<path d="M1200.8 197.079V196.467C1204.27 192.388 1206 187.391 1206 181.476C1206 178.621 1205.49 175.46 1204.47 171.993C1203.66 168.321 1202.13 164.548 1199.88 160.673C1196.82 155.166 1193.66 149.66 1190.4 144.153C1187.34 138.646 1184.28 133.14 1181.22 127.633C1178.37 133.547 1175.61 139.36 1172.96 145.071C1170.31 150.578 1167.66 155.88 1165.01 160.979C1163.78 163.427 1162.87 165.772 1162.25 168.016C1161.85 170.055 1161.64 171.993 1161.64 173.828C1161.64 178.927 1162.97 183.312 1165.62 186.983C1168.27 190.654 1170.72 193.816 1172.96 196.467V197.079H1097.7V196.467C1100.35 193.408 1102.6 190.552 1104.43 187.901C1106.27 185.25 1108.31 181.884 1110.55 177.805C1112.8 173.726 1115.75 168.118 1119.42 160.979C1126.15 148.334 1132.78 135.791 1139.31 123.35C1146.04 110.909 1152.67 98.4675 1159.2 86.0263C1156.54 80.9275 1154.1 76.2365 1151.85 71.9535C1149.61 67.4666 1147.67 63.7954 1146.04 60.94C1142.78 54.8214 1139.62 50.6404 1136.56 48.3969C1133.7 45.9495 1129.32 44.7258 1123.4 44.7258C1114.63 44.7258 1108 47.6831 1103.52 53.5977C1099.23 59.5124 1097.09 66.5488 1097.09 74.7069C1097.09 75.3188 1097.09 76.0326 1097.09 76.8484C1097.09 77.4603 1097.09 78.0721 1097.09 78.684C1097.7 71.1377 1100.46 65.325 1105.35 61.246C1110.25 56.963 1115.75 54.8214 1121.87 54.8214C1127.99 54.8214 1133.09 56.861 1137.17 60.94C1141.45 64.8152 1143.59 70.118 1143.59 76.8484C1143.59 83.171 1141.45 88.7797 1137.17 93.6746C1133.09 98.3655 1127.48 100.711 1120.34 100.711C1116.88 100.711 1113 99.7932 1108.72 97.9576C1104.64 95.918 1101.07 91.9409 1098.01 86.0263C1095.15 80.1117 1093.73 71.3417 1093.73 59.7163C1093.73 43.604 1097.4 30.347 1104.74 19.9454C1112.29 9.5438 1124.63 4.34299 1141.76 4.34299H1180V4.95486C1178.16 6.38252 1176.84 8.32008 1176.02 10.7675C1175.21 13.215 1174.8 15.8664 1174.8 18.7217C1174.8 24.6364 1176.12 30.551 1178.77 36.4656C1180.81 41.3605 1183.06 46.2554 1185.51 51.1503C1187.95 55.8412 1190.4 60.3282 1192.85 64.6112L1204.17 41.0546C1205.8 37.9953 1206.82 35.1399 1207.23 32.4885C1207.84 29.8372 1208.14 27.3897 1208.14 25.1462C1208.14 20.8632 1207.43 17.0901 1206 13.8268C1204.57 10.5636 1203.25 7.60625 1202.03 4.95486V4.34299H1268.72V4.95486C1266.68 8.2181 1264.33 12.3991 1261.68 17.498C1259.23 22.3929 1255.16 30.2451 1249.44 41.0546L1216.71 102.547C1222.22 112.336 1227.72 122.126 1233.23 131.916C1238.94 141.502 1244.65 151.087 1250.36 160.673C1254.85 168.22 1258.93 174.746 1262.6 180.253C1266.27 185.759 1270.76 191.164 1276.06 196.467V197.079H1200.8Z" fill="white"/>
<path d="M1200.8 197.079V196.467C1204.27 192.388 1206 187.391 1206 181.476C1206 178.621 1205.49 175.46 1204.47 171.993C1203.66 168.321 1202.13 164.548 1199.88 160.673C1196.82 155.166 1193.66 149.66 1190.4 144.153C1187.34 138.646 1184.28 133.14 1181.22 127.633C1178.37 133.547 1175.61 139.36 1172.96 145.071C1170.31 150.578 1167.66 155.88 1165.01 160.979C1163.78 163.427 1162.87 165.772 1162.25 168.016C1161.85 170.055 1161.64 171.993 1161.64 173.828C1161.64 178.927 1162.97 183.312 1165.62 186.983C1168.27 190.654 1170.72 193.816 1172.96 196.467V197.079H1097.7V196.467C1100.35 193.408 1102.6 190.552 1104.43 187.901C1106.27 185.25 1108.31 181.884 1110.55 177.805C1112.8 173.726 1115.75 168.118 1119.42 160.979C1126.15 148.334 1132.78 135.791 1139.31 123.35C1146.04 110.909 1152.67 98.4675 1159.2 86.0263C1156.54 80.9275 1154.1 76.2365 1151.85 71.9535C1149.61 67.4666 1147.67 63.7954 1146.04 60.94C1142.78 54.8214 1139.62 50.6404 1136.56 48.3969C1133.7 45.9495 1129.32 44.7258 1123.4 44.7258C1114.63 44.7258 1108 47.6831 1103.52 53.5977C1099.23 59.5124 1097.09 66.5488 1097.09 74.7069C1097.09 75.3188 1097.09 76.0326 1097.09 76.8484C1097.09 77.4603 1097.09 78.0721 1097.09 78.684C1097.7 71.1377 1100.46 65.325 1105.35 61.246C1110.25 56.963 1115.75 54.8214 1121.87 54.8214C1127.99 54.8214 1133.09 56.861 1137.17 60.94C1141.45 64.8152 1143.59 70.118 1143.59 76.8484C1143.59 83.171 1141.45 88.7797 1137.17 93.6746C1133.09 98.3655 1127.48 100.711 1120.34 100.711C1116.88 100.711 1113 99.7932 1108.72 97.9576C1104.64 95.918 1101.07 91.9409 1098.01 86.0263C1095.15 80.1117 1093.73 71.3417 1093.73 59.7163C1093.73 43.604 1097.4 30.347 1104.74 19.9454C1112.29 9.5438 1124.63 4.34299 1141.76 4.34299H1180V4.95486C1178.16 6.38252 1176.84 8.32008 1176.02 10.7675C1175.21 13.215 1174.8 15.8664 1174.8 18.7217C1174.8 24.6364 1176.12 30.551 1178.77 36.4656C1180.81 41.3605 1183.06 46.2554 1185.51 51.1503C1187.95 55.8412 1190.4 60.3282 1192.85 64.6112L1204.17 41.0546C1205.8 37.9953 1206.82 35.1399 1207.23 32.4885C1207.84 29.8372 1208.14 27.3897 1208.14 25.1462C1208.14 20.8632 1207.43 17.0901 1206 13.8268C1204.57 10.5636 1203.25 7.60625 1202.03 4.95486V4.34299H1268.72V4.95486C1266.68 8.2181 1264.33 12.3991 1261.68 17.498C1259.23 22.3929 1255.16 30.2451 1249.44 41.0546L1216.71 102.547C1222.22 112.336 1227.72 122.126 1233.23 131.916C1238.94 141.502 1244.65 151.087 1250.36 160.673C1254.85 168.22 1258.93 174.746 1262.6 180.253C1266.27 185.759 1270.76 191.164 1276.06 196.467V197.079H1200.8Z" fill="#000000"/>
<path d="M1291.26 197.079C1288.24 197.079 1286.32 195.158 1286.32 192.138V9.8814C1286.32 6.86209 1288.24 4.9407 1291.26 4.9407H1353.85C1356.87 4.9407 1358.79 6.86209 1358.79 9.8814V192.138C1358.79 195.158 1356.87 197.079 1353.85 197.079H1291.26Z" fill="white"/>
<path d="M1291.26 197.079C1288.24 197.079 1286.32 195.158 1286.32 192.138V9.8814C1286.32 6.86209 1288.24 4.9407 1291.26 4.9407H1353.85C1356.87 4.9407 1358.79 6.86209 1358.79 9.8814V192.138C1358.79 195.158 1356.87 197.079 1353.85 197.079H1291.26Z" fill="#000000"/>
<path d="M1478.69 201.471C1421.33 201.471 1379.33 157.279 1379.33 101.01C1379.33 44.7408 1421.05 0.548976 1478.69 0.548976C1533.32 0.548976 1571.19 34.0359 1576.68 86.4622C1577.23 89.756 1575.31 91.6774 1572.02 91.6774H1509.43C1506.69 91.6774 1504.77 90.305 1503.67 87.5601C1500.65 80.9725 1494.34 74.6594 1482.81 74.6594C1468.26 74.6594 1458.38 86.7367 1458.38 101.01C1458.38 115.832 1468.26 127.36 1482.81 127.36C1494.34 127.36 1500.65 120.773 1503.67 114.185C1504.77 111.44 1506.69 110.068 1509.43 110.068H1571.47C1574.76 110.068 1576.68 111.715 1576.41 115.008C1572.29 167.435 1533.59 201.471 1478.69 201.471Z" fill="white"/>
<path d="M1478.69 201.471C1421.33 201.471 1379.33 157.279 1379.33 101.01C1379.33 44.7408 1421.05 0.548976 1478.69 0.548976C1533.32 0.548976 1571.19 34.0359 1576.68 86.4622C1577.23 89.756 1575.31 91.6774 1572.02 91.6774H1509.43C1506.69 91.6774 1504.77 90.305 1503.67 87.5601C1500.65 80.9725 1494.34 74.6594 1482.81 74.6594C1468.26 74.6594 1458.38 86.7367 1458.38 101.01C1458.38 115.832 1468.26 127.36 1482.81 127.36C1494.34 127.36 1500.65 120.773 1503.67 114.185C1504.77 111.44 1506.69 110.068 1509.43 110.068H1571.47C1574.76 110.068 1576.68 111.715 1576.41 115.008C1572.29 167.435 1533.59 201.471 1478.69 201.471Z" fill="#000000"/>
<path d="M1696.05 201.745C1635.39 201.745 1592.02 155.632 1592.02 100.735C1592.02 45.8387 1635.39 0 1696.05 0C1756.44 0 1800.08 45.8387 1800.08 100.735C1800.08 155.632 1756.44 201.745 1696.05 201.745ZM1696.05 127.086C1711.97 127.086 1723.77 115.008 1723.77 100.735C1723.77 86.4622 1711.97 74.3849 1696.05 74.3849C1680.13 74.3849 1668.33 86.4622 1668.33 100.735C1668.33 115.008 1680.13 127.086 1696.05 127.086Z" fill="white"/>
<path d="M1696.05 201.745C1635.39 201.745 1592.02 155.632 1592.02 100.735C1592.02 45.8387 1635.39 0 1696.05 0C1756.44 0 1800.08 45.8387 1800.08 100.735C1800.08 155.632 1756.44 201.745 1696.05 201.745ZM1696.05 127.086C1711.97 127.086 1723.77 115.008 1723.77 100.735C1723.77 86.4622 1711.97 74.3849 1696.05 74.3849C1680.13 74.3849 1668.33 86.4622 1668.33 100.735C1668.33 115.008 1680.13 127.086 1696.05 127.086Z" fill="#000000"/>
</svg>
