<svg width="1112" height="194" viewBox="0 0 1112 194" fill="none" xmlns="http://www.w3.org/2000/svg">
<path d="M4.9407 193.654C1.92138 193.654 0 191.732 0 188.713V6.45619C0 3.43688 1.92138 1.51549 4.9407 1.51549H70.5422C73.287 1.51549 75.4829 3.1624 76.0318 5.90723L90.8539 72.3321C93.0498 82.2135 94.1477 92.3694 96.3436 102.251L98.265 101.976C97.4415 92.6439 95.5201 71.7832 95.5201 64.9211L94.9712 6.45619C94.9712 3.43688 96.8925 1.51549 99.9119 1.51549H159.749C162.768 1.51549 164.69 3.43688 164.69 6.45619V188.713C164.69 191.732 162.768 193.654 159.749 193.654H101.01C98.265 193.654 96.3436 192.556 95.5201 189.536L76.8553 122.837C74.1104 112.956 72.1891 102.8 69.9932 92.9184L68.0718 93.1929C69.1698 102.525 71.0911 123.386 71.0911 130.248L71.6401 188.713C71.6401 191.732 69.7187 193.654 66.6994 193.654H4.9407Z" fill="white"/>
<path d="M4.9407 193.654C1.92138 193.654 0 191.732 0 188.713V6.45619C0 3.43688 1.92138 1.51549 4.9407 1.51549H70.5422C73.287 1.51549 75.4829 3.1624 76.0318 5.90723L90.8539 72.3321C93.0498 82.2135 94.1477 92.3694 96.3436 102.251L98.265 101.976C97.4415 92.6439 95.5201 71.7832 95.5201 64.9211L94.9712 6.45619C94.9712 3.43688 96.8925 1.51549 99.9119 1.51549H159.749C162.768 1.51549 164.69 3.43688 164.69 6.45619V188.713C164.69 191.732 162.768 193.654 159.749 193.654H101.01C98.265 193.654 96.3436 192.556 95.5201 189.536L76.8553 122.837C74.1104 112.956 72.1891 102.8 69.9932 92.9184L68.0718 93.1929C69.1698 102.525 71.0911 123.386 71.0911 130.248L71.6401 188.713C71.6401 191.732 69.7187 193.654 66.6994 193.654H4.9407Z" fill="#000000"/>
<path d="M193.24 193.654C190.221 193.654 188.3 191.732 188.3 188.713V6.45619C188.3 3.43688 190.221 1.51549 193.24 1.51549H316.483C319.503 1.51549 321.424 3.43688 321.424 6.45619V59.7059C321.424 62.7252 319.503 64.6466 316.483 64.6466H259.94V76.1749H297.27C300.289 76.1749 302.21 78.0963 302.21 81.1156V114.328C302.21 117.347 300.289 119.269 297.27 119.269H259.94V131.62H317.581C320.601 131.62 322.522 133.542 322.522 136.561V188.713C322.522 191.732 320.601 193.654 317.581 193.654H193.24Z" fill="white"/>
<path d="M193.24 193.654C190.221 193.654 188.3 191.732 188.3 188.713V6.45619C188.3 3.43688 190.221 1.51549 193.24 1.51549H316.483C319.503 1.51549 321.424 3.43688 321.424 6.45619V59.7059C321.424 62.7252 319.503 64.6466 316.483 64.6466H259.94V76.1749H297.27C300.289 76.1749 302.21 78.0963 302.21 81.1156V114.328C302.21 117.347 300.289 119.269 297.27 119.269H259.94V131.62H317.581C320.601 131.62 322.522 133.542 322.522 136.561V188.713C322.522 191.732 320.601 193.654 317.581 193.654H193.24Z" fill="#000000"/>
<path d="M371.627 193.654V193.042C376.114 192.022 379.479 189.983 381.722 186.923C383.966 183.864 385.088 179.377 385.088 173.462C385.088 167.548 383.864 159.695 381.417 149.906C376.726 131.754 371.627 113.602 366.12 95.4502C360.817 77.0944 355.005 58.8405 348.682 40.6887C345.623 31.7147 342.665 23.9645 339.81 17.438C337.159 10.7075 334.099 5.40476 330.632 1.52965V0.917778H412.621V1.52965C406.503 3.16128 402.22 5.60872 399.772 8.87197C397.529 12.1352 396.407 16.5202 396.407 22.0269C396.407 26.5139 397.019 31.8167 398.243 37.9353C402.118 56.0872 406.197 75.3608 410.48 95.7561C414.967 115.947 419.862 135.119 425.165 153.271H426.694C431.997 137.77 437.096 121.454 441.991 104.322C447.089 87.19 451.372 71.0777 454.84 55.9852C456.471 48.8468 457.287 42.9322 457.287 38.2412C457.287 31.7147 455.656 26.8199 452.392 23.5566C449.129 20.0894 443.316 18.3558 434.954 18.3558C427.204 18.3558 420.372 20.9052 414.457 26.004C408.542 31.1029 405.585 39.0571 405.585 49.8666C406.605 43.9519 409.052 39.261 412.927 35.7938C416.802 32.3266 421.595 30.593 427.306 30.593C433.425 30.593 438.421 32.8365 442.297 37.3235C446.376 41.6065 448.415 46.5014 448.415 52.0081C448.415 57.7188 446.682 62.9196 443.214 67.6105C439.951 72.3015 434.444 74.6469 426.694 74.6469C421.187 74.6469 416.089 72.5054 411.398 68.2224C406.707 63.9394 404.361 56.801 404.361 46.8073C404.361 38.0373 406.299 30.1851 410.174 23.2507C414.049 16.1123 420.372 10.5036 429.142 6.42452C438.116 2.14151 449.843 0 464.324 0C466.975 0 471.462 0.101975 477.784 0.305926C484.311 0.509877 491.449 0.713827 499.2 0.917778C506.95 0.917778 513.782 0.917778 519.697 0.917778V1.52965C517.249 4.7929 514.7 9.38185 512.049 15.2965C509.601 21.2111 506.95 28.0436 504.094 35.7938C499.811 47.6231 495.426 60.8801 490.939 75.5647C486.656 90.0454 482.475 104.526 478.396 119.007C474.317 133.487 470.442 146.642 466.771 158.472C465.751 162.347 464.833 165.916 464.018 169.179C463.406 172.239 463.1 174.992 463.1 177.439C463.1 185.19 467.383 190.39 475.949 193.042V193.654H371.627Z" fill="white"/>
<path d="M371.627 193.654V193.042C376.114 192.022 379.479 189.983 381.722 186.923C383.966 183.864 385.088 179.377 385.088 173.462C385.088 167.548 383.864 159.695 381.417 149.906C376.726 131.754 371.627 113.602 366.12 95.4502C360.817 77.0944 355.005 58.8405 348.682 40.6887C345.623 31.7147 342.665 23.9645 339.81 17.438C337.159 10.7075 334.099 5.40476 330.632 1.52965V0.917778H412.621V1.52965C406.503 3.16128 402.22 5.60872 399.772 8.87197C397.529 12.1352 396.407 16.5202 396.407 22.0269C396.407 26.5139 397.019 31.8167 398.243 37.9353C402.118 56.0872 406.197 75.3608 410.48 95.7561C414.967 115.947 419.862 135.119 425.165 153.271H426.694C431.997 137.77 437.096 121.454 441.991 104.322C447.089 87.19 451.372 71.0777 454.84 55.9852C456.471 48.8468 457.287 42.9322 457.287 38.2412C457.287 31.7147 455.656 26.8199 452.392 23.5566C449.129 20.0894 443.316 18.3558 434.954 18.3558C427.204 18.3558 420.372 20.9052 414.457 26.004C408.542 31.1029 405.585 39.0571 405.585 49.8666C406.605 43.9519 409.052 39.261 412.927 35.7938C416.802 32.3266 421.595 30.593 427.306 30.593C433.425 30.593 438.421 32.8365 442.297 37.3235C446.376 41.6065 448.415 46.5014 448.415 52.0081C448.415 57.7188 446.682 62.9196 443.214 67.6105C439.951 72.3015 434.444 74.6469 426.694 74.6469C421.187 74.6469 416.089 72.5054 411.398 68.2224C406.707 63.9394 404.361 56.801 404.361 46.8073C404.361 38.0373 406.299 30.1851 410.174 23.2507C414.049 16.1123 420.372 10.5036 429.142 6.42452C438.116 2.14151 449.843 0 464.324 0C466.975 0 471.462 0.101975 477.784 0.305926C484.311 0.509877 491.449 0.713827 499.2 0.917778C506.95 0.917778 513.782 0.917778 519.697 0.917778V1.52965C517.249 4.7929 514.7 9.38185 512.049 15.2965C509.601 21.2111 506.95 28.0436 504.094 35.7938C499.811 47.6231 495.426 60.8801 490.939 75.5647C486.656 90.0454 482.475 104.526 478.396 119.007C474.317 133.487 470.442 146.642 466.771 158.472C465.751 162.347 464.833 165.916 464.018 169.179C463.406 172.239 463.1 174.992 463.1 177.439C463.1 185.19 467.383 190.39 475.949 193.042V193.654H371.627Z" fill="#000000"/>
<path d="M505.319 193.654C502.025 193.654 500.104 191.732 500.927 188.164L548.138 5.63273C548.962 2.61343 550.609 1.51549 553.628 1.51549H640.365C643.384 1.51549 645.031 2.61343 645.854 5.63273L692.791 188.164C693.614 191.732 691.693 193.654 688.399 193.654H621.7C618.68 193.654 617.034 192.007 616.485 189.262L610.72 162.363H582.723L576.959 189.262C576.41 192.007 574.763 193.654 571.744 193.654H505.319ZM587.389 117.073H606.054L599.467 79.7432L598.094 68.4894H595.349L593.977 79.7432L587.389 117.073Z" fill="white"/>
<path d="M505.319 193.654C502.025 193.654 500.104 191.732 500.927 188.164L548.138 5.63273C548.962 2.61343 550.609 1.51549 553.628 1.51549H640.365C643.384 1.51549 645.031 2.61343 645.854 5.63273L692.791 188.164C693.614 191.732 691.693 193.654 688.399 193.654H621.7C618.68 193.654 617.034 192.007 616.485 189.262L610.72 162.363H582.723L576.959 189.262C576.41 192.007 574.763 193.654 571.744 193.654H505.319ZM587.389 117.073H606.054L599.467 79.7432L598.094 68.4894H595.349L593.977 79.7432L587.389 117.073Z" fill="#000000"/>
<path d="M712.601 193.654C709.582 193.654 707.66 191.732 707.66 188.713V6.45619C707.66 3.43688 709.582 1.51549 712.601 1.51549H795.769C841.608 1.51549 885.251 39.9431 885.251 96.4867C885.251 152.756 841.608 193.654 795.769 193.654H712.601ZM790.554 125.307C804.278 125.307 814.983 113.779 814.983 96.4867C814.983 78.9197 804.278 69.5873 790.554 69.5873H779.575V125.307H790.554Z" fill="white"/>
<path d="M712.601 193.654C709.582 193.654 707.66 191.732 707.66 188.713V6.45619C707.66 3.43688 709.582 1.51549 712.601 1.51549H795.769C841.608 1.51549 885.251 39.9431 885.251 96.4867C885.251 152.756 841.608 193.654 795.769 193.654H712.601ZM790.554 125.307C804.278 125.307 814.983 113.779 814.983 96.4867C814.983 78.9197 804.278 69.5873 790.554 69.5873H779.575V125.307H790.554Z" fill="#000000"/>
<path d="M987.142 137.974V193.654H898.422V134.915C901.482 134.099 905.051 132.264 909.13 129.408C913.209 126.349 917.288 122.78 921.367 118.701C925.446 114.418 929.321 109.523 932.992 104.016C936.867 98.5095 940.131 92.7988 942.782 86.8841C944.006 84.0288 944.924 81.2754 945.536 78.624C946.351 75.9726 946.759 72.8113 946.759 69.1402C946.759 66.4888 945.841 64.0413 944.006 61.7979C942.374 59.5544 939.519 58.4326 935.44 58.4326H921.673V0.917778H1061.79V43.748C1061.79 52.518 1063.83 61.288 1067.91 70.058C1071.99 78.828 1075.66 85.8643 1078.92 91.1671L1091.46 111.664C1096.16 119.415 1099.93 125.023 1102.78 128.491C1105.84 131.958 1108.6 134.099 1111.04 134.915V193.654H1008.56V137.974C1013.66 137.974 1017.33 136.955 1019.57 134.915C1021.81 132.876 1022.94 130.326 1022.94 127.267C1022.94 125.227 1022.53 123.29 1021.71 121.454C1021.1 119.619 1020.39 117.987 1019.57 116.559L1016.82 112.276H956.243C957.263 117.987 960.22 123.29 965.115 128.185C970.01 133.08 977.352 136.343 987.142 137.974ZM962.668 84.1308C961.24 86.1703 960.016 88.4138 958.996 90.8612C958.181 93.1047 957.467 95.2462 956.855 97.2857H1007.95L981.635 54.1496L962.668 84.1308Z" fill="white"/>
<path d="M987.142 137.974V193.654H898.422V134.915C901.482 134.099 905.051 132.264 909.13 129.408C913.209 126.349 917.288 122.78 921.367 118.701C925.446 114.418 929.321 109.523 932.992 104.016C936.867 98.5095 940.131 92.7988 942.782 86.8841C944.006 84.0288 944.924 81.2754 945.536 78.624C946.351 75.9726 946.759 72.8113 946.759 69.1402C946.759 66.4888 945.841 64.0413 944.006 61.7979C942.374 59.5544 939.519 58.4326 935.44 58.4326H921.673V0.917778H1061.79V43.748C1061.79 52.518 1063.83 61.288 1067.91 70.058C1071.99 78.828 1075.66 85.8643 1078.92 91.1671L1091.46 111.664C1096.16 119.415 1099.93 125.023 1102.78 128.491C1105.84 131.958 1108.6 134.099 1111.04 134.915V193.654H1008.56V137.974C1013.66 137.974 1017.33 136.955 1019.57 134.915C1021.81 132.876 1022.94 130.326 1022.94 127.267C1022.94 125.227 1022.53 123.29 1021.71 121.454C1021.1 119.619 1020.39 117.987 1019.57 116.559L1016.82 112.276H956.243C957.263 117.987 960.22 123.29 965.115 128.185C970.01 133.08 977.352 136.343 987.142 137.974ZM962.668 84.1308C961.24 86.1703 960.016 88.4138 958.996 90.8612C958.181 93.1047 957.467 95.2462 956.855 97.2857H1007.95L981.635 54.1496L962.668 84.1308Z" fill="#000000"/>
</svg>
