<svg width="1480" height="202" viewBox="0 0 1480 202" fill="none" xmlns="http://www.w3.org/2000/svg">
<path d="M4.9407 197.079C1.92138 197.079 0 195.158 0 192.138V9.8814C0 6.86209 1.92138 4.9407 4.9407 4.9407H70.5422C73.287 4.9407 75.4829 6.58761 76.0318 9.33244L90.8539 75.7573C93.0498 85.6387 94.1477 95.7946 96.3436 105.676L98.265 105.402C97.4415 96.0691 95.5201 75.2084 95.5201 68.3463L94.9712 9.8814C94.9712 6.86209 96.8925 4.9407 99.9119 4.9407H159.749C162.768 4.9407 164.69 6.86209 164.69 9.8814V192.138C164.69 195.158 162.768 197.079 159.749 197.079H101.01C98.265 197.079 96.3436 195.981 95.5201 192.962L76.8553 126.262C74.1104 116.381 72.1891 106.225 69.9932 96.3436L68.0718 96.6181C69.1698 105.95 71.0911 126.811 71.0911 133.673L71.6401 192.138C71.6401 195.158 69.7187 197.079 66.6994 197.079H4.9407Z" fill="white"/>
<path d="M4.9407 197.079C1.92138 197.079 0 195.158 0 192.138V9.8814C0 6.86209 1.92138 4.9407 4.9407 4.9407H70.5422C73.287 4.9407 75.4829 6.58761 76.0318 9.33244L90.8539 75.7573C93.0498 85.6387 94.1477 95.7946 96.3436 105.676L98.265 105.402C97.4415 96.0691 95.5201 75.2084 95.5201 68.3463L94.9712 9.8814C94.9712 6.86209 96.8925 4.9407 99.9119 4.9407H159.749C162.768 4.9407 164.69 6.86209 164.69 9.8814V192.138C164.69 195.158 162.768 197.079 159.749 197.079H101.01C98.265 197.079 96.3436 195.981 95.5201 192.962L76.8553 126.262C74.1104 116.381 72.1891 106.225 69.9932 96.3436L68.0718 96.6181C69.1698 105.95 71.0911 126.811 71.0911 133.673L71.6401 192.138C71.6401 195.158 69.7187 197.079 66.6994 197.079H4.9407Z" fill="#000000"/>
<path d="M370.754 197.079H191.479V138.34C196.986 138.34 201.269 138.238 204.328 138.034C207.387 137.626 209.631 136.913 211.058 135.893C212.486 134.669 213.302 132.834 213.506 130.386C213.914 127.939 214.118 124.573 214.118 120.29V80.8255C214.118 76.5425 213.914 73.1772 213.506 70.7298C213.302 68.2824 212.486 66.5488 211.058 65.529C209.631 64.3053 207.387 63.5914 204.328 63.3875C201.269 62.9796 196.986 62.7756 191.479 62.7756V4.34299H369.53V89.3915H354.234C353.01 83.8848 351.174 79.3978 348.727 75.9306C346.28 72.4634 342.2 69.812 336.49 67.9764C330.779 65.9369 322.825 64.6112 312.627 63.9993C302.43 63.1835 288.969 62.7756 272.245 62.7756V90.6153C284.074 89.7994 292.64 88.6777 297.943 87.25C303.245 85.6184 308.242 83.7828 312.933 81.7433H325.476V116.007H312.933C308.854 113.968 304.163 112.234 298.86 110.807C293.762 109.175 284.89 107.951 272.245 107.135V138.034C289.988 138.034 304.061 137.525 314.463 136.505C325.068 135.485 333.125 133.853 338.631 131.61C344.342 129.162 348.217 126.205 350.257 122.738C352.5 119.067 354.234 114.58 355.457 109.277H370.754V197.079Z" fill="white"/>
<path d="M370.754 197.079H191.479V138.34C196.986 138.34 201.269 138.238 204.328 138.034C207.387 137.626 209.631 136.913 211.058 135.893C212.486 134.669 213.302 132.834 213.506 130.386C213.914 127.939 214.118 124.573 214.118 120.29V80.8255C214.118 76.5425 213.914 73.1772 213.506 70.7298C213.302 68.2824 212.486 66.5488 211.058 65.529C209.631 64.3053 207.387 63.5914 204.328 63.3875C201.269 62.9796 196.986 62.7756 191.479 62.7756V4.34299H369.53V89.3915H354.234C353.01 83.8848 351.174 79.3978 348.727 75.9306C346.28 72.4634 342.2 69.812 336.49 67.9764C330.779 65.9369 322.825 64.6112 312.627 63.9993C302.43 63.1835 288.969 62.7756 272.245 62.7756V90.6153C284.074 89.7994 292.64 88.6777 297.943 87.25C303.245 85.6184 308.242 83.7828 312.933 81.7433H325.476V116.007H312.933C308.854 113.968 304.163 112.234 298.86 110.807C293.762 109.175 284.89 107.951 272.245 107.135V138.034C289.988 138.034 304.061 137.525 314.463 136.505C325.068 135.485 333.125 133.853 338.631 131.61C344.342 129.162 348.217 126.205 350.257 122.738C352.5 119.067 354.234 114.58 355.457 109.277H370.754V197.079Z" fill="#000000"/>
<path d="M434.356 197.079C431.336 197.079 429.689 195.432 429.141 192.687L391.536 10.4304C390.987 7.13657 392.634 4.9407 395.928 4.9407H461.53C464.549 4.9407 466.47 6.58761 466.745 9.60692L474.156 62.0332C475.803 74.3849 476.626 87.2856 477.45 99.6374H479.645C481.018 87.2856 482.39 74.3849 484.312 62.0332L492.546 9.33244C493.095 6.31311 495.016 4.9407 498.036 4.9407H547.168C550.188 4.9407 551.834 6.58761 552.383 9.60692L560.069 62.0332C561.99 74.3849 563.912 87.2856 565.284 99.6374H567.48C568.303 87.2856 569.127 74.3849 570.774 62.0332L578.185 9.60692C578.459 6.58761 580.381 4.9407 583.4 4.9407H648.178C651.472 4.9407 653.119 7.13657 652.57 10.4304L615.515 192.687C614.966 195.432 613.319 197.079 610.299 197.079H543.874C540.855 197.079 539.208 195.432 538.659 192.687L528.503 145.476C526.033 134.222 524.661 122.968 522.739 111.715H521.092C519.171 122.968 517.799 134.497 515.603 145.751L505.996 192.687C505.447 195.432 503.8 197.079 500.781 197.079H434.356Z" fill="white"/>
<path d="M434.356 197.079C431.336 197.079 429.689 195.432 429.141 192.687L391.536 10.4304C390.987 7.13657 392.634 4.9407 395.928 4.9407H461.53C464.549 4.9407 466.47 6.58761 466.745 9.60692L474.156 62.0332C475.803 74.3849 476.626 87.2856 477.45 99.6374H479.645C481.018 87.2856 482.39 74.3849 484.312 62.0332L492.546 9.33244C493.095 6.31311 495.016 4.9407 498.036 4.9407H547.168C550.188 4.9407 551.834 6.58761 552.383 9.60692L560.069 62.0332C561.99 74.3849 563.912 87.2856 565.284 99.6374H567.48C568.303 87.2856 569.127 74.3849 570.774 62.0332L578.185 9.60692C578.459 6.58761 580.381 4.9407 583.4 4.9407H648.178C651.472 4.9407 653.119 7.13657 652.57 10.4304L615.515 192.687C614.966 195.432 613.319 197.079 610.299 197.079H543.874C540.855 197.079 539.208 195.432 538.659 192.687L528.503 145.476C526.033 134.222 524.661 122.968 522.739 111.715H521.092C519.171 122.968 517.799 134.497 515.603 145.751L505.996 192.687C505.447 195.432 503.8 197.079 500.781 197.079H434.356Z" fill="#000000"/>
<path d="M768.74 197.079C765.721 197.079 763.8 195.158 763.8 192.138V135.595L706.707 10.7049C705.06 7.41105 706.707 4.9407 710.276 4.9407H778.347C781.092 4.9407 783.288 6.03863 784.112 9.05794L791.797 35.1338C795.091 46.3877 797.836 59.5628 799.757 71.6401H801.953C803.874 59.5628 806.894 46.3877 810.462 35.1338L818.971 9.05794C819.794 6.31311 821.99 4.9407 824.735 4.9407H889.788C893.356 4.9407 895.003 7.41105 893.356 10.7049L836.263 136.967V192.138C836.263 195.158 834.342 197.079 831.323 197.079H768.74Z" fill="white"/>
<path d="M768.74 197.079C765.721 197.079 763.8 195.158 763.8 192.138V135.595L706.707 10.7049C705.06 7.41105 706.707 4.9407 710.276 4.9407H778.347C781.092 4.9407 783.288 6.03863 784.112 9.05794L791.797 35.1338C795.091 46.3877 797.836 59.5628 799.757 71.6401H801.953C803.874 59.5628 806.894 46.3877 810.462 35.1338L818.971 9.05794C819.794 6.31311 821.99 4.9407 824.735 4.9407H889.788C893.356 4.9407 895.003 7.41105 893.356 10.7049L836.263 136.967V192.138C836.263 195.158 834.342 197.079 831.323 197.079H768.74Z" fill="#000000"/>
<path d="M988.902 201.745C928.241 201.745 884.873 155.632 884.873 100.735C884.873 45.8387 928.241 0 988.902 0C1049.29 0 1092.93 45.8387 1092.93 100.735C1092.93 155.632 1049.29 201.745 988.902 201.745ZM988.902 127.086C1004.82 127.086 1016.62 115.008 1016.62 100.735C1016.62 86.4622 1004.82 74.3849 988.902 74.3849C972.982 74.3849 961.179 86.4622 961.179 100.735C961.179 115.008 972.982 127.086 988.902 127.086Z" fill="white"/>
<path d="M988.902 201.745C928.241 201.745 884.873 155.632 884.873 100.735C884.873 45.8387 928.241 0 988.902 0C1049.29 0 1092.93 45.8387 1092.93 100.735C1092.93 155.632 1049.29 201.745 988.902 201.745ZM988.902 127.086C1004.82 127.086 1016.62 115.008 1016.62 100.735C1016.62 86.4622 1004.82 74.3849 988.902 74.3849C972.982 74.3849 961.179 86.4622 961.179 100.735C961.179 115.008 972.982 127.086 988.902 127.086Z" fill="#000000"/>
<path d="M1118.46 197.079C1115.44 197.079 1113.51 195.158 1113.51 192.138V9.8814C1113.51 6.86209 1115.44 4.9407 1118.46 4.9407H1212.05C1253.78 4.9407 1279.85 32.389 1279.85 66.9739C1279.85 88.9325 1271.89 104.578 1255.7 116.381L1289.73 191.315C1291.38 194.609 1289.73 197.079 1286.16 197.079H1221.11C1218.37 197.079 1216.72 195.706 1215.62 193.236L1203.27 160.298L1192.57 132.575H1185.16C1185.7 141.359 1185.98 150.142 1185.98 158.651V192.138C1185.98 195.158 1184.06 197.079 1181.04 197.079H1118.46ZM1199.15 85.9132C1206.29 85.9132 1210.68 82.0705 1210.68 73.836C1210.68 65.327 1206.29 62.0332 1199.15 62.0332H1183.78V85.9132H1199.15Z" fill="white"/>
<path d="M1118.46 197.079C1115.44 197.079 1113.51 195.158 1113.51 192.138V9.8814C1113.51 6.86209 1115.44 4.9407 1118.46 4.9407H1212.05C1253.78 4.9407 1279.85 32.389 1279.85 66.9739C1279.85 88.9325 1271.89 104.578 1255.7 116.381L1289.73 191.315C1291.38 194.609 1289.73 197.079 1286.16 197.079H1221.11C1218.37 197.079 1216.72 195.706 1215.62 193.236L1203.27 160.298L1192.57 132.575H1185.16C1185.7 141.359 1185.98 150.142 1185.98 158.651V192.138C1185.98 195.158 1184.06 197.079 1181.04 197.079H1118.46ZM1199.15 85.9132C1206.29 85.9132 1210.68 82.0705 1210.68 73.836C1210.68 65.327 1206.29 62.0332 1199.15 62.0332H1183.78V85.9132H1199.15Z" fill="#000000"/>
<path d="M1297.77 197.079V196.467C1301.44 191.776 1303.78 186.575 1304.8 180.865C1305.82 175.154 1306.44 168.423 1306.64 160.673C1306.84 150.476 1306.95 140.482 1306.95 130.692C1307.15 120.698 1307.25 110.705 1307.25 100.711C1307.25 90.5133 1307.15 80.5196 1306.95 70.7298C1306.95 60.7361 1306.84 50.7424 1306.64 40.7487C1306.64 33.8143 1306.33 28.3075 1305.72 24.2285C1305.11 20.1494 1304.19 16.6822 1302.97 13.8268C1301.75 10.9715 1300.01 8.01415 1297.77 4.95486V4.34299H1365.68V4.95486C1361.81 6.99439 1358.75 9.33985 1356.51 11.9912C1354.26 14.6426 1352.73 18.2118 1351.92 22.6988C1351.1 26.9818 1350.69 32.9984 1350.69 40.7487V93.3686C1352.94 87.6579 1356.4 82.0492 1361.1 76.5425C1365.99 71.0357 1371.5 64.8152 1377.62 57.8807C1383.33 51.5582 1386.9 46.3574 1388.32 42.2783C1389.95 37.9953 1390.77 33.7123 1390.77 29.4293C1390.77 25.3502 1389.34 21.2711 1386.49 17.1921C1383.84 12.909 1380.78 8.82997 1377.31 4.95486V4.34299H1456.85V4.95486C1451.96 8.62602 1447.78 12.1952 1444.31 15.6624C1441.05 18.9257 1437.68 22.9027 1434.21 27.5937C1431.15 31.6727 1428.09 35.8538 1425.03 40.1368C1422.18 44.2159 1419.22 48.3969 1416.16 52.6799C1422.89 69.2001 1429.52 85.9243 1436.05 102.852C1442.57 119.781 1449.61 137.728 1457.16 156.696C1461.03 166.078 1464.81 173.93 1468.48 180.253C1472.35 186.371 1476.02 191.776 1479.49 196.467V197.079H1401.48V196.467C1406.37 195.243 1409.94 193.51 1412.19 191.266C1414.43 189.023 1415.55 185.658 1415.55 181.171C1415.55 178.519 1415.14 175.46 1414.33 171.993C1413.72 168.525 1412.8 164.446 1411.57 159.755L1399.03 112.336C1396.18 101.731 1392.3 95.0003 1387.41 92.1449C1382.51 89.2896 1377.92 87.8619 1373.64 87.8619C1367.93 87.8619 1362.63 89.2896 1357.73 92.1449C1353.04 95.0003 1350.69 100.915 1350.69 109.889C1350.69 111.52 1350.9 113.458 1351.31 115.702C1351.71 117.945 1352.43 119.985 1353.45 121.82C1352.63 119.781 1352.22 117.333 1352.22 114.478C1352.22 109.379 1353.96 104.688 1357.42 100.405C1360.89 96.122 1365.89 93.9805 1372.41 93.9805C1378.33 93.9805 1383.22 95.918 1387.1 99.7932C1390.97 103.464 1392.91 108.359 1392.91 114.478C1392.91 120.8 1390.77 125.797 1386.49 129.468C1382.41 132.936 1377.72 134.669 1372.41 134.669C1367.32 134.669 1362.83 133.242 1358.95 130.386C1355.28 127.531 1352.53 123.758 1350.69 119.067V160.673C1350.69 172.91 1352.84 181.374 1357.12 186.065C1361.61 190.756 1369.15 194.224 1379.76 196.467V197.079H1297.77Z" fill="white"/>
<path d="M1297.77 197.079V196.467C1301.44 191.776 1303.78 186.575 1304.8 180.865C1305.82 175.154 1306.44 168.423 1306.64 160.673C1306.84 150.476 1306.95 140.482 1306.95 130.692C1307.15 120.698 1307.25 110.705 1307.25 100.711C1307.25 90.5133 1307.15 80.5196 1306.95 70.7298C1306.95 60.7361 1306.84 50.7424 1306.64 40.7487C1306.64 33.8143 1306.33 28.3075 1305.72 24.2285C1305.11 20.1494 1304.19 16.6822 1302.97 13.8268C1301.75 10.9715 1300.01 8.01415 1297.77 4.95486V4.34299H1365.68V4.95486C1361.81 6.99439 1358.75 9.33985 1356.51 11.9912C1354.26 14.6426 1352.73 18.2118 1351.92 22.6988C1351.1 26.9818 1350.69 32.9984 1350.69 40.7487V93.3686C1352.94 87.6579 1356.4 82.0492 1361.1 76.5425C1365.99 71.0357 1371.5 64.8152 1377.62 57.8807C1383.33 51.5582 1386.9 46.3574 1388.32 42.2783C1389.95 37.9953 1390.77 33.7123 1390.77 29.4293C1390.77 25.3502 1389.34 21.2711 1386.49 17.1921C1383.84 12.909 1380.78 8.82997 1377.31 4.95486V4.34299H1456.85V4.95486C1451.96 8.62602 1447.78 12.1952 1444.31 15.6624C1441.05 18.9257 1437.68 22.9027 1434.21 27.5937C1431.15 31.6727 1428.09 35.8538 1425.03 40.1368C1422.18 44.2159 1419.22 48.3969 1416.16 52.6799C1422.89 69.2001 1429.52 85.9243 1436.05 102.852C1442.57 119.781 1449.61 137.728 1457.16 156.696C1461.03 166.078 1464.81 173.93 1468.48 180.253C1472.35 186.371 1476.02 191.776 1479.49 196.467V197.079H1401.48V196.467C1406.37 195.243 1409.94 193.51 1412.19 191.266C1414.43 189.023 1415.55 185.658 1415.55 181.171C1415.55 178.519 1415.14 175.46 1414.33 171.993C1413.72 168.525 1412.8 164.446 1411.57 159.755L1399.03 112.336C1396.18 101.731 1392.3 95.0003 1387.41 92.1449C1382.51 89.2896 1377.92 87.8619 1373.64 87.8619C1367.93 87.8619 1362.63 89.2896 1357.73 92.1449C1353.04 95.0003 1350.69 100.915 1350.69 109.889C1350.69 111.52 1350.9 113.458 1351.31 115.702C1351.71 117.945 1352.43 119.985 1353.45 121.82C1352.63 119.781 1352.22 117.333 1352.22 114.478C1352.22 109.379 1353.96 104.688 1357.42 100.405C1360.89 96.122 1365.89 93.9805 1372.41 93.9805C1378.33 93.9805 1383.22 95.918 1387.1 99.7932C1390.97 103.464 1392.91 108.359 1392.91 114.478C1392.91 120.8 1390.77 125.797 1386.49 129.468C1382.41 132.936 1377.72 134.669 1372.41 134.669C1367.32 134.669 1362.83 133.242 1358.95 130.386C1355.28 127.531 1352.53 123.758 1350.69 119.067V160.673C1350.69 172.91 1352.84 181.374 1357.12 186.065C1361.61 190.756 1369.15 194.224 1379.76 196.467V197.079H1297.77Z" fill="#000000"/>
</svg>
