<svg width="1645" height="202" viewBox="0 0 1645 202" fill="none" xmlns="http://www.w3.org/2000/svg">
<path d="M104.029 201.745C43.3683 201.745 0 155.632 0 100.735C0 45.8387 43.3683 0 104.029 0C164.415 0 208.058 45.8387 208.058 100.735C208.058 155.632 164.415 201.745 104.029 201.745ZM104.029 127.086C119.949 127.086 131.752 115.008 131.752 100.735C131.752 86.4622 119.949 74.3849 104.029 74.3849C88.1091 74.3849 76.3063 86.4622 76.3063 100.735C76.3063 115.008 88.1091 127.086 104.029 127.086Z" fill="white"/>
<path d="M104.029 201.745C43.3683 201.745 0 155.632 0 100.735C0 45.8387 43.3683 0 104.029 0C164.415 0 208.058 45.8387 208.058 100.735C208.058 155.632 164.415 201.745 104.029 201.745ZM104.029 127.086C119.949 127.086 131.752 115.008 131.752 100.735C131.752 86.4622 119.949 74.3849 104.029 74.3849C88.1091 74.3849 76.3063 86.4622 76.3063 100.735C76.3063 115.008 88.1091 127.086 104.029 127.086Z" fill="#000000"/>
<path d="M220.575 197.079V196.467C224.246 191.776 226.592 186.575 227.611 180.865C228.631 175.154 229.243 168.423 229.447 160.673C229.651 150.476 229.753 140.482 229.753 130.692C229.957 120.698 230.059 110.705 230.059 100.711C230.059 90.5133 229.957 80.5196 229.753 70.7298C229.753 60.7361 229.651 50.7424 229.447 40.7487C229.447 33.8143 229.141 28.3075 228.529 24.2285C227.917 20.1494 227 16.6822 225.776 13.8268C224.552 10.9715 222.819 8.01415 220.575 4.95486V4.34299H288.491V4.95486C284.616 6.99439 281.557 9.33985 279.314 11.9912C277.07 14.6426 275.54 18.2118 274.725 22.6988C273.909 26.9818 273.501 32.9984 273.501 40.7487V93.3686C275.744 87.6579 279.212 82.0492 283.903 76.5425C288.797 71.0357 294.304 64.8152 300.423 57.8807C306.133 51.5582 309.703 46.3574 311.13 42.2783C312.762 37.9953 313.578 33.7123 313.578 29.4293C313.578 25.3502 312.15 21.2711 309.295 17.1921C306.643 12.909 303.584 8.82997 300.117 4.95486V4.34299H379.659V4.95486C374.764 8.62602 370.583 12.1952 367.116 15.6624C363.852 18.9257 360.487 22.9027 357.02 27.5937C353.961 31.6727 350.901 35.8538 347.842 40.1368C344.987 44.2159 342.029 48.3969 338.97 52.6799C345.7 69.2001 352.329 85.9243 358.855 102.852C365.382 119.781 372.418 137.728 379.965 156.696C383.84 166.078 387.613 173.93 391.284 180.253C395.159 186.371 398.83 191.776 402.297 196.467V197.079H324.285V196.467C329.18 195.243 332.749 193.51 334.993 191.266C337.236 189.023 338.358 185.658 338.358 181.171C338.358 178.519 337.95 175.46 337.134 171.993C336.523 168.525 335.605 164.446 334.381 159.755L321.838 112.336C318.983 101.731 315.107 95.0003 310.213 92.1449C305.318 89.2896 300.729 87.8619 296.446 87.8619C290.735 87.8619 285.432 89.2896 280.537 92.1449C275.846 95.0003 273.501 100.915 273.501 109.889C273.501 111.52 273.705 113.458 274.113 115.702C274.521 117.945 275.234 119.985 276.254 121.82C275.438 119.781 275.031 117.333 275.031 114.478C275.031 109.379 276.764 104.688 280.231 100.405C283.699 96.122 288.695 93.9805 295.222 93.9805C301.137 93.9805 306.031 95.918 309.907 99.7932C313.782 103.464 315.719 108.359 315.719 114.478C315.719 120.8 313.578 125.797 309.295 129.468C305.216 132.936 300.525 134.669 295.222 134.669C290.123 134.669 285.636 133.242 281.761 130.386C278.09 127.531 275.336 123.758 273.501 119.067V160.673C273.501 172.91 275.642 181.374 279.925 186.065C284.412 190.756 291.959 194.224 302.564 196.467V197.079H220.575Z" fill="white"/>
<path d="M220.575 197.079V196.467C224.246 191.776 226.592 186.575 227.611 180.865C228.631 175.154 229.243 168.423 229.447 160.673C229.651 150.476 229.753 140.482 229.753 130.692C229.957 120.698 230.059 110.705 230.059 100.711C230.059 90.5133 229.957 80.5196 229.753 70.7298C229.753 60.7361 229.651 50.7424 229.447 40.7487C229.447 33.8143 229.141 28.3075 228.529 24.2285C227.917 20.1494 227 16.6822 225.776 13.8268C224.552 10.9715 222.819 8.01415 220.575 4.95486V4.34299H288.491V4.95486C284.616 6.99439 281.557 9.33985 279.314 11.9912C277.07 14.6426 275.54 18.2118 274.725 22.6988C273.909 26.9818 273.501 32.9984 273.501 40.7487V93.3686C275.744 87.6579 279.212 82.0492 283.903 76.5425C288.797 71.0357 294.304 64.8152 300.423 57.8807C306.133 51.5582 309.703 46.3574 311.13 42.2783C312.762 37.9953 313.578 33.7123 313.578 29.4293C313.578 25.3502 312.15 21.2711 309.295 17.1921C306.643 12.909 303.584 8.82997 300.117 4.95486V4.34299H379.659V4.95486C374.764 8.62602 370.583 12.1952 367.116 15.6624C363.852 18.9257 360.487 22.9027 357.02 27.5937C353.961 31.6727 350.901 35.8538 347.842 40.1368C344.987 44.2159 342.029 48.3969 338.97 52.6799C345.7 69.2001 352.329 85.9243 358.855 102.852C365.382 119.781 372.418 137.728 379.965 156.696C383.84 166.078 387.613 173.93 391.284 180.253C395.159 186.371 398.83 191.776 402.297 196.467V197.079H324.285V196.467C329.18 195.243 332.749 193.51 334.993 191.266C337.236 189.023 338.358 185.658 338.358 181.171C338.358 178.519 337.95 175.46 337.134 171.993C336.523 168.525 335.605 164.446 334.381 159.755L321.838 112.336C318.983 101.731 315.107 95.0003 310.213 92.1449C305.318 89.2896 300.729 87.8619 296.446 87.8619C290.735 87.8619 285.432 89.2896 280.537 92.1449C275.846 95.0003 273.501 100.915 273.501 109.889C273.501 111.52 273.705 113.458 274.113 115.702C274.521 117.945 275.234 119.985 276.254 121.82C275.438 119.781 275.031 117.333 275.031 114.478C275.031 109.379 276.764 104.688 280.231 100.405C283.699 96.122 288.695 93.9805 295.222 93.9805C301.137 93.9805 306.031 95.918 309.907 99.7932C313.782 103.464 315.719 108.359 315.719 114.478C315.719 120.8 313.578 125.797 309.295 129.468C305.216 132.936 300.525 134.669 295.222 134.669C290.123 134.669 285.636 133.242 281.761 130.386C278.09 127.531 275.336 123.758 273.501 119.067V160.673C273.501 172.91 275.642 181.374 279.925 186.065C284.412 190.756 291.959 194.224 302.564 196.467V197.079H220.575Z" fill="#000000"/>
<path d="M418.667 197.079C415.648 197.079 413.726 195.158 413.726 192.138V9.8814C413.726 6.86209 415.648 4.9407 418.667 4.9407H481.249C484.268 4.9407 486.19 6.86209 486.19 9.8814V131.203H540.263C543.282 131.203 545.204 133.124 545.204 136.144V192.138C545.204 195.158 543.282 197.079 540.263 197.079H418.667Z" fill="white"/>
<path d="M418.667 197.079C415.648 197.079 413.726 195.158 413.726 192.138V9.8814C413.726 6.86209 415.648 4.9407 418.667 4.9407H481.249C484.268 4.9407 486.19 6.86209 486.19 9.8814V131.203H540.263C543.282 131.203 545.204 133.124 545.204 136.144V192.138C545.204 195.158 543.282 197.079 540.263 197.079H418.667Z" fill="#000000"/>
<path d="M562.788 197.079C559.494 197.079 557.573 195.158 558.396 191.589L605.607 9.05794C606.431 6.03863 608.078 4.9407 611.097 4.9407H697.833C700.853 4.9407 702.5 6.03863 703.323 9.05794L750.26 191.589C751.083 195.158 749.162 197.079 745.868 197.079H679.169C676.149 197.079 674.502 195.432 673.953 192.687L668.189 165.788H640.192L634.428 192.687C633.879 195.432 632.232 197.079 629.213 197.079H562.788ZM644.858 120.498H663.523L656.936 83.1684L655.563 71.9146H652.818L651.446 83.1684L644.858 120.498Z" fill="white"/>
<path d="M562.788 197.079C559.494 197.079 557.573 195.158 558.396 191.589L605.607 9.05794C606.431 6.03863 608.078 4.9407 611.097 4.9407H697.833C700.853 4.9407 702.5 6.03863 703.323 9.05794L750.26 191.589C751.083 195.158 749.162 197.079 745.868 197.079H679.169C676.149 197.079 674.502 195.432 673.953 192.687L668.189 165.788H640.192L634.428 192.687C633.879 195.432 632.232 197.079 629.213 197.079H562.788ZM644.858 120.498H663.523L656.936 83.1684L655.563 71.9146H652.818L651.446 83.1684L644.858 120.498Z" fill="#000000"/>
<path d="M863.394 197.079C860.375 197.079 858.453 195.158 858.453 192.138V125.439H838.142V192.138C838.142 195.158 836.22 197.079 833.201 197.079H770.07C767.05 197.079 765.129 195.158 765.129 192.138V9.8814C765.129 6.86209 767.05 4.9407 770.07 4.9407H833.201C836.22 4.9407 838.142 6.86209 838.142 9.8814V73.5615H858.453V9.8814C858.453 6.86209 860.375 4.9407 863.394 4.9407H926.525C929.544 4.9407 931.466 6.86209 931.466 9.8814V192.138C931.466 195.158 929.544 197.079 926.525 197.079H863.394Z" fill="white"/>
<path d="M863.394 197.079C860.375 197.079 858.453 195.158 858.453 192.138V125.439H838.142V192.138C838.142 195.158 836.22 197.079 833.201 197.079H770.07C767.05 197.079 765.129 195.158 765.129 192.138V9.8814C765.129 6.86209 767.05 4.9407 770.07 4.9407H833.201C836.22 4.9407 838.142 6.86209 838.142 9.8814V73.5615H858.453V9.8814C858.453 6.86209 860.375 4.9407 863.394 4.9407H926.525C929.544 4.9407 931.466 6.86209 931.466 9.8814V192.138C931.466 195.158 929.544 197.079 926.525 197.079H863.394Z" fill="#000000"/>
<path d="M1055.98 201.745C995.322 201.745 951.953 155.632 951.953 100.735C951.953 45.8387 995.322 0 1055.98 0C1116.37 0 1160.01 45.8387 1160.01 100.735C1160.01 155.632 1116.37 201.745 1055.98 201.745ZM1055.98 127.086C1071.9 127.086 1083.71 115.008 1083.71 100.735C1083.71 86.4622 1071.9 74.3849 1055.98 74.3849C1040.06 74.3849 1028.26 86.4622 1028.26 100.735C1028.26 115.008 1040.06 127.086 1055.98 127.086Z" fill="white"/>
<path d="M1055.98 201.745C995.322 201.745 951.953 155.632 951.953 100.735C951.953 45.8387 995.322 0 1055.98 0C1116.37 0 1160.01 45.8387 1160.01 100.735C1160.01 155.632 1116.37 201.745 1055.98 201.745ZM1055.98 127.086C1071.9 127.086 1083.71 115.008 1083.71 100.735C1083.71 86.4622 1071.9 74.3849 1055.98 74.3849C1040.06 74.3849 1028.26 86.4622 1028.26 100.735C1028.26 115.008 1040.06 127.086 1055.98 127.086Z" fill="#000000"/>
<path d="M1249.32 138.34V197.079H1181.09V138.34C1187.01 137.117 1191.8 134.057 1195.47 129.162C1199.14 124.064 1200.98 114.784 1200.98 101.323V80.5196C1200.98 72.1575 1200.16 67.1606 1198.53 65.529C1196.9 63.6934 1191.09 62.7756 1181.09 62.7756V4.34299H1285.11V49.9266C1285.11 56.861 1285.93 63.4895 1287.56 69.812C1289.39 76.1346 1292.15 82.0492 1295.82 87.556L1308.36 106.524L1320.29 88.4737C1322.94 84.5986 1325.39 79.6018 1327.64 73.4832C1330.08 67.1606 1331.31 59.2064 1331.31 49.6206V4.34299H1434.1V61.8578C1424.1 61.8578 1418.29 62.7756 1416.66 64.6112C1415.23 66.2428 1414.52 71.2397 1414.52 79.6018V120.29C1414.52 128.857 1415.23 134.057 1416.66 135.893C1418.29 137.525 1424.1 138.34 1434.1 138.34V197.079H1322.13V138.34C1335.79 138.34 1344.97 136.811 1349.66 133.751C1354.56 130.692 1357 126.205 1357 120.29V62.7756L1291.54 165.262H1276.24L1219.34 62.7756V101.323C1219.34 114.784 1221.48 124.268 1225.76 129.774C1230.04 135.281 1237.9 138.136 1249.32 138.34Z" fill="white"/>
<path d="M1249.32 138.34V197.079H1181.09V138.34C1187.01 137.117 1191.8 134.057 1195.47 129.162C1199.14 124.064 1200.98 114.784 1200.98 101.323V80.5196C1200.98 72.1575 1200.16 67.1606 1198.53 65.529C1196.9 63.6934 1191.09 62.7756 1181.09 62.7756V4.34299H1285.11V49.9266C1285.11 56.861 1285.93 63.4895 1287.56 69.812C1289.39 76.1346 1292.15 82.0492 1295.82 87.556L1308.36 106.524L1320.29 88.4737C1322.94 84.5986 1325.39 79.6018 1327.64 73.4832C1330.08 67.1606 1331.31 59.2064 1331.31 49.6206V4.34299H1434.1V61.8578C1424.1 61.8578 1418.29 62.7756 1416.66 64.6112C1415.23 66.2428 1414.52 71.2397 1414.52 79.6018V120.29C1414.52 128.857 1415.23 134.057 1416.66 135.893C1418.29 137.525 1424.1 138.34 1434.1 138.34V197.079H1322.13V138.34C1335.79 138.34 1344.97 136.811 1349.66 133.751C1354.56 130.692 1357 126.205 1357 120.29V62.7756L1291.54 165.262H1276.24L1219.34 62.7756V101.323C1219.34 114.784 1221.48 124.268 1225.76 129.774C1230.04 135.281 1237.9 138.136 1249.32 138.34Z" fill="#000000"/>
<path d="M1457.19 197.079C1453.9 197.079 1451.97 195.158 1452.8 191.589L1500.01 9.05794C1500.83 6.03863 1502.48 4.9407 1505.5 4.9407H1592.24C1595.25 4.9407 1596.9 6.03863 1597.73 9.05794L1644.66 191.589C1645.49 195.158 1643.56 197.079 1640.27 197.079H1573.57C1570.55 197.079 1568.9 195.432 1568.36 192.687L1562.59 165.788H1534.59L1528.83 192.687C1528.28 195.432 1526.63 197.079 1523.61 197.079H1457.19ZM1539.26 120.498H1557.93L1551.34 83.1684L1549.97 71.9146H1547.22L1545.85 83.1684L1539.26 120.498Z" fill="white"/>
<path d="M1457.19 197.079C1453.9 197.079 1451.97 195.158 1452.8 191.589L1500.01 9.05794C1500.83 6.03863 1502.48 4.9407 1505.5 4.9407H1592.24C1595.25 4.9407 1596.9 6.03863 1597.73 9.05794L1644.66 191.589C1645.49 195.158 1643.56 197.079 1640.27 197.079H1573.57C1570.55 197.079 1568.9 195.432 1568.36 192.687L1562.59 165.788H1534.59L1528.83 192.687C1528.28 195.432 1526.63 197.079 1523.61 197.079H1457.19ZM1539.26 120.498H1557.93L1551.34 83.1684L1549.97 71.9146H1547.22L1545.85 83.1684L1539.26 120.498Z" fill="#000000"/>
</svg>
