<svg width="2048" height="203" viewBox="0 0 2048 203" fill="none" xmlns="http://www.w3.org/2000/svg">
<path d="M4.9407 198.177C1.92138 198.177 0 196.255 0 193.236V10.9793C0 7.96002 1.92138 6.03863 4.9407 6.03863H98.5394C140.261 6.03863 166.337 33.487 166.337 68.0718C166.337 90.0305 158.377 105.676 142.182 117.479L176.218 192.413C177.865 195.706 176.218 198.177 172.65 198.177H107.597C104.853 198.177 103.206 196.804 102.108 194.334L89.756 161.396L79.0511 133.673H71.6401C72.1891 142.457 72.4635 151.24 72.4635 159.749V193.236C72.4635 196.255 70.5422 198.177 67.5229 198.177H4.9407ZM85.6387 87.0112C92.7753 87.0112 97.167 83.1684 97.167 74.9339C97.167 66.4249 92.7753 63.1311 85.6387 63.1311H70.2677V87.0112H85.6387Z" fill="white"/>
<path d="M4.9407 198.177C1.92138 198.177 0 196.255 0 193.236V10.9793C0 7.96002 1.92138 6.03863 4.9407 6.03863H98.5394C140.261 6.03863 166.337 33.487 166.337 68.0718C166.337 90.0305 158.377 105.676 142.182 117.479L176.218 192.413C177.865 195.706 176.218 198.177 172.65 198.177H107.597C104.853 198.177 103.206 196.804 102.108 194.334L89.756 161.396L79.0511 133.673H71.6401C72.1891 142.457 72.4635 151.24 72.4635 159.749V193.236C72.4635 196.255 70.5422 198.177 67.5229 198.177H4.9407ZM85.6387 87.0112C92.7753 87.0112 97.167 83.1684 97.167 74.9339C97.167 66.4249 92.7753 63.1311 85.6387 63.1311H70.2677V87.0112H85.6387Z" fill="#000000"/>
<path d="M287.905 198.177C284.886 198.177 282.964 196.255 282.964 193.236V126.537H262.652V193.236C262.652 196.255 260.731 198.177 257.712 198.177H194.581C191.561 198.177 189.64 196.255 189.64 193.236V10.9793C189.64 7.96002 191.561 6.03863 194.581 6.03863H257.712C260.731 6.03863 262.652 7.96002 262.652 10.9793V74.6594H282.964V10.9793C282.964 7.96002 284.886 6.03863 287.905 6.03863H351.036C354.055 6.03863 355.977 7.96002 355.977 10.9793V193.236C355.977 196.255 354.055 198.177 351.036 198.177H287.905Z" fill="white"/>
<path d="M287.905 198.177C284.886 198.177 282.964 196.255 282.964 193.236V126.537H262.652V193.236C262.652 196.255 260.731 198.177 257.712 198.177H194.581C191.561 198.177 189.64 196.255 189.64 193.236V10.9793C189.64 7.96002 191.561 6.03863 194.581 6.03863H257.712C260.731 6.03863 262.652 7.96002 262.652 10.9793V74.6594H282.964V10.9793C282.964 7.96002 284.886 6.03863 287.905 6.03863H351.036C354.055 6.03863 355.977 7.96002 355.977 10.9793V193.236C355.977 196.255 354.055 198.177 351.036 198.177H287.905Z" fill="#000000"/>
<path d="M480.493 202.843C419.833 202.843 376.464 156.73 376.464 101.833C376.464 46.9366 419.833 1.09793 480.493 1.09793C540.88 1.09793 584.523 46.9366 584.523 101.833C584.523 156.73 540.88 202.843 480.493 202.843ZM480.493 128.184C496.413 128.184 508.216 116.106 508.216 101.833C508.216 87.5601 496.413 75.4829 480.493 75.4829C464.573 75.4829 452.771 87.5601 452.771 101.833C452.771 116.106 464.573 128.184 480.493 128.184Z" fill="white"/>
<path d="M480.493 202.843C419.833 202.843 376.464 156.73 376.464 101.833C376.464 46.9366 419.833 1.09793 480.493 1.09793C540.88 1.09793 584.523 46.9366 584.523 101.833C584.523 156.73 540.88 202.843 480.493 202.843ZM480.493 128.184C496.413 128.184 508.216 116.106 508.216 101.833C508.216 87.5601 496.413 75.4829 480.493 75.4829C464.573 75.4829 452.771 87.5601 452.771 101.833C452.771 116.106 464.573 128.184 480.493 128.184Z" fill="#000000"/>
<path d="M610.047 198.177C607.028 198.177 605.107 196.255 605.107 193.236V10.9793C605.107 7.96002 607.028 6.03863 610.047 6.03863H693.216C739.054 6.03863 782.697 44.4663 782.697 101.01C782.697 157.279 739.054 198.177 693.216 198.177H610.047ZM688.001 129.831C701.725 129.831 712.43 118.302 712.43 101.01C712.43 83.4429 701.725 74.1105 688.001 74.1105H677.021V129.831H688.001Z" fill="white"/>
<path d="M610.047 198.177C607.028 198.177 605.107 196.255 605.107 193.236V10.9793C605.107 7.96002 607.028 6.03863 610.047 6.03863H693.216C739.054 6.03863 782.697 44.4663 782.697 101.01C782.697 157.279 739.054 198.177 693.216 198.177H610.047ZM688.001 129.831C701.725 129.831 712.43 118.302 712.43 101.01C712.43 83.4429 701.725 74.1105 688.001 74.1105H677.021V129.831H688.001Z" fill="#000000"/>
<path d="M983.098 198.177H803.823V139.438C826.156 139.438 826.462 138.52 826.462 121.388V81.9234C826.462 64.7914 826.156 63.8736 803.823 63.8736V5.44092H981.874V90.4895H966.578C961.683 68.4625 951.587 64.1795 884.588 63.8736V91.7132C908.451 89.8776 915.793 87.1242 925.277 82.8412H937.82V117.105H925.277C917.017 112.822 909.981 110.069 884.588 108.233V139.132C955.87 138.826 962.906 131.484 967.801 110.375H983.098V198.177Z" fill="white"/>
<path d="M983.098 198.177H803.823V139.438C826.156 139.438 826.462 138.52 826.462 121.388V81.9234C826.462 64.7914 826.156 63.8736 803.823 63.8736V5.44092H981.874V90.4895H966.578C961.683 68.4625 951.587 64.1795 884.588 63.8736V91.7132C908.451 89.8776 915.793 87.1242 925.277 82.8412H937.82V117.105H925.277C917.017 112.822 909.981 110.069 884.588 108.233V139.132C955.87 138.826 962.906 131.484 967.801 110.375H983.098V198.177Z" fill="#000000"/>
<path d="M1072.62 198.177C1069.6 198.177 1067.68 196.255 1067.68 193.236V10.9793C1067.68 7.96002 1069.6 6.03863 1072.62 6.03863H1135.2C1138.22 6.03863 1140.14 7.96002 1140.14 10.9793V193.236C1140.14 196.255 1138.22 198.177 1135.2 198.177H1072.62Z" fill="white"/>
<path d="M1072.62 198.177C1069.6 198.177 1067.68 196.255 1067.68 193.236V10.9793C1067.68 7.96002 1069.6 6.03863 1072.62 6.03863H1135.2C1138.22 6.03863 1140.14 7.96002 1140.14 10.9793V193.236C1140.14 196.255 1138.22 198.177 1135.2 198.177H1072.62Z" fill="#000000"/>
<path d="M1239.8 202.02C1203.02 202.02 1162.12 185.002 1159.1 132.575C1158.83 129.282 1160.75 127.36 1163.77 127.36H1223.06C1226.63 127.36 1228.82 129.556 1228.82 132.575C1229.1 139.437 1231.84 144.653 1240.08 144.653C1245.56 144.653 1248.58 140.81 1248.86 136.418C1248.58 124.89 1234.86 124.341 1213.18 120.498C1183.81 115.283 1159.65 99.3629 1159.93 63.1311C1159.65 23.88 1193.14 0 1235.96 0C1265.88 0 1309.79 13.7242 1311.99 64.2291C1311.99 67.5229 1310.07 69.4442 1307.05 69.4442H1251.88C1248.58 69.4442 1246.94 67.5229 1246.66 64.5035C1246.39 59.5629 1245.02 53.7987 1237.06 53.7987C1232.66 53.7987 1229.64 56.5435 1229.64 60.9353C1229.64 71.0911 1243.37 71.0911 1264.78 76.3063C1294.42 83.4429 1318.3 99.9119 1318.58 136.418C1318.85 181.433 1281.52 202.02 1239.8 202.02Z" fill="white"/>
<path d="M1239.8 202.02C1203.02 202.02 1162.12 185.002 1159.1 132.575C1158.83 129.282 1160.75 127.36 1163.77 127.36H1223.06C1226.63 127.36 1228.82 129.556 1228.82 132.575C1229.1 139.437 1231.84 144.653 1240.08 144.653C1245.56 144.653 1248.58 140.81 1248.86 136.418C1248.58 124.89 1234.86 124.341 1213.18 120.498C1183.81 115.283 1159.65 99.3629 1159.93 63.1311C1159.65 23.88 1193.14 0 1235.96 0C1265.88 0 1309.79 13.7242 1311.99 64.2291C1311.99 67.5229 1310.07 69.4442 1307.05 69.4442H1251.88C1248.58 69.4442 1246.94 67.5229 1246.66 64.5035C1246.39 59.5629 1245.02 53.7987 1237.06 53.7987C1232.66 53.7987 1229.64 56.5435 1229.64 60.9353C1229.64 71.0911 1243.37 71.0911 1264.78 76.3063C1294.42 83.4429 1318.3 99.9119 1318.58 136.418C1318.85 181.433 1281.52 202.02 1239.8 202.02Z" fill="#000000"/>
<path d="M1340.93 198.177C1337.91 198.177 1335.99 196.255 1335.99 193.236V10.9793C1335.99 7.96002 1337.91 6.03863 1340.93 6.03863H1403.51C1406.53 6.03863 1408.45 7.96002 1408.45 10.9793V132.301H1462.52C1465.54 132.301 1467.46 134.222 1467.46 137.242V193.236C1467.46 196.255 1465.54 198.177 1462.52 198.177H1340.93Z" fill="white"/>
<path d="M1340.93 198.177C1337.91 198.177 1335.99 196.255 1335.99 193.236V10.9793C1335.99 7.96002 1337.91 6.03863 1340.93 6.03863H1403.51C1406.53 6.03863 1408.45 7.96002 1408.45 10.9793V132.301H1462.52C1465.54 132.301 1467.46 134.222 1467.46 137.242V193.236C1467.46 196.255 1465.54 198.177 1462.52 198.177H1340.93Z" fill="#000000"/>
<path d="M1485.05 198.177C1481.75 198.177 1479.83 196.255 1480.66 192.687L1527.87 10.1559C1528.69 7.13657 1530.34 6.03863 1533.36 6.03863H1620.09C1623.11 6.03863 1624.76 7.13657 1625.58 10.1559L1672.52 192.687C1673.34 196.255 1671.42 198.177 1668.13 198.177H1601.43C1598.41 198.177 1596.76 196.53 1596.21 193.785L1590.45 166.886H1562.45L1556.69 193.785C1556.14 196.53 1554.49 198.177 1551.47 198.177H1485.05ZM1567.12 121.596H1585.78L1579.19 84.2663L1577.82 73.0125H1575.08L1573.71 84.2663L1567.12 121.596Z" fill="white"/>
<path d="M1485.05 198.177C1481.75 198.177 1479.83 196.255 1480.66 192.687L1527.87 10.1559C1528.69 7.13657 1530.34 6.03863 1533.36 6.03863H1620.09C1623.11 6.03863 1624.76 7.13657 1625.58 10.1559L1672.52 192.687C1673.34 196.255 1671.42 198.177 1668.13 198.177H1601.43C1598.41 198.177 1596.76 196.53 1596.21 193.785L1590.45 166.886H1562.45L1556.69 193.785C1556.14 196.53 1554.49 198.177 1551.47 198.177H1485.05ZM1567.12 121.596H1585.78L1579.19 84.2663L1577.82 73.0125H1575.08L1573.71 84.2663L1567.12 121.596Z" fill="#000000"/>
<path d="M1682 198.177V197.565C1689.34 188.081 1690.57 177.374 1690.87 161.771C1691.18 141.58 1691.49 121.694 1691.49 101.809C1691.49 81.6175 1691.18 61.7321 1690.87 41.8466C1690.57 21.0434 1688.73 15.2307 1682 6.05279V5.44092H1756.04C1767.36 27.4679 1782.65 56.5312 1799.17 86.8183C1798.87 71.5218 1798.56 56.8372 1798.25 41.8466C1797.34 21.0434 1794.28 15.2307 1780.82 6.05279V5.44092H1851.49V6.05279C1844.45 15.2307 1842.92 21.0434 1842.61 41.8466C1842.31 61.7321 1842 81.6175 1842 101.809C1842 121.694 1842.31 141.58 1842.61 161.771C1842.61 177.374 1844.14 188.081 1851.49 197.565V198.177H1793.67V197.565C1796.73 190.223 1797.95 182.268 1798.25 171.561C1779.59 135.767 1756.65 94.4666 1734.93 55.6134C1734.32 73.6633 1734.62 92.0191 1734.62 112.822C1734.93 124.754 1734.93 137.603 1734.93 151.37C1734.93 190.529 1749.61 197.565 1763.38 196.035C1751.75 193.282 1744.41 184.41 1744.41 173.396C1744.41 160.853 1753.28 151.675 1766.13 151.675C1776.53 151.675 1787.55 158.1 1787.55 172.785C1787.55 183.186 1782.35 198.177 1753.28 198.177H1682Z" fill="white"/>
<path d="M1682 198.177V197.565C1689.34 188.081 1690.57 177.374 1690.87 161.771C1691.18 141.58 1691.49 121.694 1691.49 101.809C1691.49 81.6175 1691.18 61.7321 1690.87 41.8466C1690.57 21.0434 1688.73 15.2307 1682 6.05279V5.44092H1756.04C1767.36 27.4679 1782.65 56.5312 1799.17 86.8183C1798.87 71.5218 1798.56 56.8372 1798.25 41.8466C1797.34 21.0434 1794.28 15.2307 1780.82 6.05279V5.44092H1851.49V6.05279C1844.45 15.2307 1842.92 21.0434 1842.61 41.8466C1842.31 61.7321 1842 81.6175 1842 101.809C1842 121.694 1842.31 141.58 1842.61 161.771C1842.61 177.374 1844.14 188.081 1851.49 197.565V198.177H1793.67V197.565C1796.73 190.223 1797.95 182.268 1798.25 171.561C1779.59 135.767 1756.65 94.4666 1734.93 55.6134C1734.32 73.6633 1734.62 92.0191 1734.62 112.822C1734.93 124.754 1734.93 137.603 1734.93 151.37C1734.93 190.529 1749.61 197.565 1763.38 196.035C1751.75 193.282 1744.41 184.41 1744.41 173.396C1744.41 160.853 1753.28 151.675 1766.13 151.675C1776.53 151.675 1787.55 158.1 1787.55 172.785C1787.55 183.186 1782.35 198.177 1753.28 198.177H1682Z" fill="#000000"/>
<path d="M1875.31 198.177C1872.29 198.177 1870.37 196.255 1870.37 193.236V10.9793C1870.37 7.96002 1872.29 6.03863 1875.31 6.03863H1958.48C2004.32 6.03863 2047.96 44.4663 2047.96 101.01C2047.96 157.279 2004.32 198.177 1958.48 198.177H1875.31ZM1953.27 129.831C1966.99 129.831 1977.7 118.302 1977.7 101.01C1977.7 83.4429 1966.99 74.1105 1953.27 74.1105H1942.29V129.831H1953.27Z" fill="white"/>
<path d="M1875.31 198.177C1872.29 198.177 1870.37 196.255 1870.37 193.236V10.9793C1870.37 7.96002 1872.29 6.03863 1875.31 6.03863H1958.48C2004.32 6.03863 2047.96 44.4663 2047.96 101.01C2047.96 157.279 2004.32 198.177 1958.48 198.177H1875.31ZM1953.27 129.831C1966.99 129.831 1977.7 118.302 1977.7 101.01C1977.7 83.4429 1966.99 74.1105 1953.27 74.1105H1942.29V129.831H1953.27Z" fill="#000000"/>
</svg>
