<svg width="2473" height="203" viewBox="0 0 2473 203" fill="none" xmlns="http://www.w3.org/2000/svg">
<path d="M80.724 202.02C43.9433 202.02 3.04532 185.002 0.0260073 132.575C-0.248476 129.282 1.67291 127.36 4.69222 127.36H63.9806C67.5489 127.36 69.7447 129.556 69.7447 132.575C70.0192 139.437 72.764 144.653 80.9985 144.653C86.4882 144.653 89.5075 140.81 89.782 136.418C89.5075 124.89 75.7834 124.341 54.0992 120.498C24.7295 115.283 0.574974 99.3629 0.849457 63.1311C0.574974 23.88 34.0619 0 76.8813 0C106.8 0 150.717 13.7242 152.913 64.2291C152.913 67.5229 150.992 69.4442 147.972 69.4442H92.8013C89.5075 69.4442 87.8606 67.5229 87.5861 64.5035C87.3116 59.5629 85.9392 53.7987 77.9792 53.7987C73.5875 53.7987 70.5682 56.5435 70.5682 60.9353C70.5682 71.0911 84.2923 71.0911 105.702 76.3063C135.346 83.4429 159.226 99.9119 159.501 136.418C159.775 181.433 122.445 202.02 80.724 202.02Z" fill="white"/>
<path d="M80.724 202.02C43.9433 202.02 3.04532 185.002 0.0260073 132.575C-0.248476 129.282 1.67291 127.36 4.69222 127.36H63.9806C67.5489 127.36 69.7447 129.556 69.7447 132.575C70.0192 139.437 72.764 144.653 80.9985 144.653C86.4882 144.653 89.5075 140.81 89.782 136.418C89.5075 124.89 75.7834 124.341 54.0992 120.498C24.7295 115.283 0.574974 99.3629 0.849457 63.1311C0.574974 23.88 34.0619 0 76.8813 0C106.8 0 150.717 13.7242 152.913 64.2291C152.913 67.5229 150.992 69.4442 147.972 69.4442H92.8013C89.5075 69.4442 87.8606 67.5229 87.5861 64.5035C87.3116 59.5629 85.9392 53.7987 77.9792 53.7987C73.5875 53.7987 70.5682 56.5435 70.5682 60.9353C70.5682 71.0911 84.2923 71.0911 105.702 76.3063C135.346 83.4429 159.226 99.9119 159.501 136.418C159.775 181.433 122.445 202.02 80.724 202.02Z" fill="#000000"/>
<path d="M276.782 202.843C216.121 202.843 172.753 156.73 172.753 101.833C172.753 46.9366 216.121 1.09793 276.782 1.09793C337.169 1.09793 380.811 46.9366 380.811 101.833C380.811 156.73 337.169 202.843 276.782 202.843ZM276.782 128.184C292.702 128.184 304.505 116.106 304.505 101.833C304.505 87.5601 292.702 75.4829 276.782 75.4829C260.862 75.4829 249.059 87.5601 249.059 101.833C249.059 116.106 260.862 128.184 276.782 128.184Z" fill="white"/>
<path d="M276.782 202.843C216.121 202.843 172.753 156.73 172.753 101.833C172.753 46.9366 216.121 1.09793 276.782 1.09793C337.169 1.09793 380.811 46.9366 380.811 101.833C380.811 156.73 337.169 202.843 276.782 202.843ZM276.782 128.184C292.702 128.184 304.505 116.106 304.505 101.833C304.505 87.5601 292.702 75.4829 276.782 75.4829C260.862 75.4829 249.059 87.5601 249.059 101.833C249.059 116.106 260.862 128.184 276.782 128.184Z" fill="#000000"/>
<path d="M560.978 119.859C560.978 93.5488 520.901 92.325 520.901 64.4854V5.44092H598.301V63.5676C579.334 63.5676 578.722 64.1795 578.722 81.3116V128.119C578.722 175.844 556.695 201.236 496.732 201.236C434.629 201.236 414.437 179.821 415.355 128.425V81.9234C415.355 64.7914 415.967 63.8736 395.776 63.8736V5.44092H496.427V64.4854C473.788 64.4854 473.788 65.4032 473.788 82.5353V104.256C473.788 131.79 481.13 140.662 518.759 140.662C548.741 140.662 560.978 133.014 560.978 119.859Z" fill="white"/>
<path d="M560.978 119.859C560.978 93.5488 520.901 92.325 520.901 64.4854V5.44092H598.301V63.5676C579.334 63.5676 578.722 64.1795 578.722 81.3116V128.119C578.722 175.844 556.695 201.236 496.732 201.236C434.629 201.236 414.437 179.821 415.355 128.425V81.9234C415.355 64.7914 415.967 63.8736 395.776 63.8736V5.44092H496.427V64.4854C473.788 64.4854 473.788 65.4032 473.788 82.5353V104.256C473.788 131.79 481.13 140.662 518.759 140.662C548.741 140.662 560.978 133.014 560.978 119.859Z" fill="#000000"/>
<path d="M659.716 198.177C656.697 198.177 654.776 196.255 654.776 193.236V71.9146H619.367C616.348 71.9146 614.427 69.9932 614.427 66.9739V10.9793C614.427 7.96002 616.348 6.03863 619.367 6.03863H762.922C765.941 6.03863 767.863 7.96002 767.863 10.9793V66.9739C767.863 69.9932 765.941 71.9146 762.922 71.9146H727.239V193.236C727.239 196.255 725.318 198.177 722.298 198.177H659.716Z" fill="white"/>
<path d="M659.716 198.177C656.697 198.177 654.776 196.255 654.776 193.236V71.9146H619.367C616.348 71.9146 614.427 69.9932 614.427 66.9739V10.9793C614.427 7.96002 616.348 6.03863 619.367 6.03863H762.922C765.941 6.03863 767.863 7.96002 767.863 10.9793V66.9739C767.863 69.9932 765.941 71.9146 762.922 71.9146H727.239V193.236C727.239 196.255 725.318 198.177 722.298 198.177H659.716Z" fill="#000000"/>
<path d="M884.494 198.177C881.475 198.177 879.554 196.255 879.554 193.236V126.537H859.242V193.236C859.242 196.255 857.321 198.177 854.301 198.177H791.17C788.151 198.177 786.229 196.255 786.229 193.236V10.9793C786.229 7.96002 788.151 6.03863 791.17 6.03863H854.301C857.321 6.03863 859.242 7.96002 859.242 10.9793V74.6594H879.554V10.9793C879.554 7.96002 881.475 6.03863 884.494 6.03863H947.626C950.645 6.03863 952.566 7.96002 952.566 10.9793V193.236C952.566 196.255 950.645 198.177 947.626 198.177H884.494Z" fill="white"/>
<path d="M884.494 198.177C881.475 198.177 879.554 196.255 879.554 193.236V126.537H859.242V193.236C859.242 196.255 857.321 198.177 854.301 198.177H791.17C788.151 198.177 786.229 196.255 786.229 193.236V10.9793C786.229 7.96002 788.151 6.03863 791.17 6.03863H854.301C857.321 6.03863 859.242 7.96002 859.242 10.9793V74.6594H879.554V10.9793C879.554 7.96002 881.475 6.03863 884.494 6.03863H947.626C950.645 6.03863 952.566 7.96002 952.566 10.9793V193.236C952.566 196.255 950.645 198.177 947.626 198.177H884.494Z" fill="#000000"/>
<path d="M1116.51 202.569C1059.14 202.569 1017.14 158.377 1017.14 102.108C1017.14 45.8387 1058.86 1.64691 1116.51 1.64691C1171.13 1.64691 1209.01 35.1338 1214.5 87.5601C1215.05 90.8539 1213.12 92.7753 1209.83 92.7753H1147.25C1144.5 92.7753 1142.58 91.4029 1141.48 88.6581C1138.46 82.0705 1132.15 75.7574 1120.62 75.7574C1106.08 75.7574 1096.19 87.8346 1096.19 102.108C1096.19 116.93 1106.08 128.458 1120.62 128.458C1132.15 128.458 1138.46 121.871 1141.48 115.283C1142.58 112.538 1144.5 111.166 1147.25 111.166H1209.28C1212.57 111.166 1214.5 112.813 1214.22 116.106C1210.1 168.533 1171.4 202.569 1116.51 202.569Z" fill="white"/>
<path d="M1116.51 202.569C1059.14 202.569 1017.14 158.377 1017.14 102.108C1017.14 45.8387 1058.86 1.64691 1116.51 1.64691C1171.13 1.64691 1209.01 35.1338 1214.5 87.5601C1215.05 90.8539 1213.12 92.7753 1209.83 92.7753H1147.25C1144.5 92.7753 1142.58 91.4029 1141.48 88.6581C1138.46 82.0705 1132.15 75.7574 1120.62 75.7574C1106.08 75.7574 1096.19 87.8346 1096.19 102.108C1096.19 116.93 1106.08 128.458 1120.62 128.458C1132.15 128.458 1138.46 121.871 1141.48 115.283C1142.58 112.538 1144.5 111.166 1147.25 111.166H1209.28C1212.57 111.166 1214.5 112.813 1214.22 116.106C1210.1 168.533 1171.4 202.569 1116.51 202.569Z" fill="#000000"/>
<path d="M1316.86 142.498V198.177H1228.14V139.438C1240.69 135.767 1262.1 115.576 1272.5 91.4073C1274.95 85.5946 1276.48 81.0056 1276.48 73.6633C1276.48 68.4625 1273.42 62.9558 1265.16 62.9558H1251.39V5.44092H1391.51V48.2711C1391.51 66.0151 1402.22 84.9827 1408.64 95.6903L1421.19 116.188C1430.67 131.79 1435.87 137.909 1440.77 139.438V198.177H1338.28V142.498C1348.68 142.498 1352.66 137.909 1352.66 131.79C1352.66 127.813 1350.82 123.836 1349.29 121.082L1346.54 116.799H1285.96C1288.11 128.119 1297.28 139.132 1316.86 142.498ZM1292.39 88.6539C1289.64 92.9369 1287.8 97.5259 1286.58 101.809H1337.67L1311.36 58.6727L1292.39 88.6539Z" fill="white"/>
<path d="M1316.86 142.498V198.177H1228.14V139.438C1240.69 135.767 1262.1 115.576 1272.5 91.4073C1274.95 85.5946 1276.48 81.0056 1276.48 73.6633C1276.48 68.4625 1273.42 62.9558 1265.16 62.9558H1251.39V5.44092H1391.51V48.2711C1391.51 66.0151 1402.22 84.9827 1408.64 95.6903L1421.19 116.188C1430.67 131.79 1435.87 137.909 1440.77 139.438V198.177H1338.28V142.498C1348.68 142.498 1352.66 137.909 1352.66 131.79C1352.66 127.813 1350.82 123.836 1349.29 121.082L1346.54 116.799H1285.96C1288.11 128.119 1297.28 139.132 1316.86 142.498ZM1292.39 88.6539C1289.64 92.9369 1287.8 97.5259 1286.58 101.809H1337.67L1311.36 58.6727L1292.39 88.6539Z" fill="#000000"/>
<path d="M1465.06 198.177C1462.04 198.177 1460.12 196.255 1460.12 193.236V10.9793C1460.12 7.96002 1462.04 6.03863 1465.06 6.03863H1558.66C1600.38 6.03863 1626.46 33.487 1626.46 68.0718C1626.46 90.0305 1618.5 105.676 1602.3 117.479L1636.34 192.413C1637.98 195.706 1636.34 198.177 1632.77 198.177H1567.72C1564.97 198.177 1563.32 196.804 1562.23 194.334L1549.88 161.396L1539.17 133.673H1531.76C1532.31 142.457 1532.58 151.24 1532.58 159.749V193.236C1532.58 196.255 1530.66 198.177 1527.64 198.177H1465.06ZM1545.76 87.0112C1552.89 87.0112 1557.29 83.1684 1557.29 74.9339C1557.29 66.4249 1552.89 63.1311 1545.76 63.1311H1530.39V87.0112H1545.76Z" fill="white"/>
<path d="M1465.06 198.177C1462.04 198.177 1460.12 196.255 1460.12 193.236V10.9793C1460.12 7.96002 1462.04 6.03863 1465.06 6.03863H1558.66C1600.38 6.03863 1626.46 33.487 1626.46 68.0718C1626.46 90.0305 1618.5 105.676 1602.3 117.479L1636.34 192.413C1637.98 195.706 1636.34 198.177 1632.77 198.177H1567.72C1564.97 198.177 1563.32 196.804 1562.23 194.334L1549.88 161.396L1539.17 133.673H1531.76C1532.31 142.457 1532.58 151.24 1532.58 159.749V193.236C1532.58 196.255 1530.66 198.177 1527.64 198.177H1465.06ZM1545.76 87.0112C1552.89 87.0112 1557.29 83.1684 1557.29 74.9339C1557.29 66.4249 1552.89 63.1311 1545.76 63.1311H1530.39V87.0112H1545.76Z" fill="#000000"/>
<path d="M1744 202.843C1683.34 202.843 1639.97 156.73 1639.97 101.833C1639.97 46.9366 1683.34 1.09793 1744 1.09793C1804.39 1.09793 1848.03 46.9366 1848.03 101.833C1848.03 156.73 1804.39 202.843 1744 202.843ZM1744 128.184C1759.92 128.184 1771.73 116.106 1771.73 101.833C1771.73 87.5601 1759.92 75.4829 1744 75.4829C1728.08 75.4829 1716.28 87.5601 1716.28 101.833C1716.28 116.106 1728.08 128.184 1744 128.184Z" fill="white"/>
<path d="M1744 202.843C1683.34 202.843 1639.97 156.73 1639.97 101.833C1639.97 46.9366 1683.34 1.09793 1744 1.09793C1804.39 1.09793 1848.03 46.9366 1848.03 101.833C1848.03 156.73 1804.39 202.843 1744 202.843ZM1744 128.184C1759.92 128.184 1771.73 116.106 1771.73 101.833C1771.73 87.5601 1759.92 75.4829 1744 75.4829C1728.08 75.4829 1716.28 87.5601 1716.28 101.833C1716.28 116.106 1728.08 128.184 1744 128.184Z" fill="#000000"/>
<path d="M1860.55 198.177V197.565C1867.89 188.081 1869.12 177.373 1869.42 161.771C1869.73 141.579 1870.03 123.835 1870.03 103.949C1870.03 83.7572 1869.73 61.7299 1869.42 41.8441C1869.12 21.0406 1867.28 15.2278 1860.55 6.04976V5.43788H1958.14V6.04976C1924.18 12.4744 1913.48 20.4287 1913.48 42.1501C1913.17 56.529 1913.17 78.8622 1913.17 103.031C1913.17 120.775 1913.17 139.743 1913.17 157.182C1924.8 157.793 1936.12 158.405 1944.07 158.405C1967.63 158.405 1975.28 143.414 1975.28 119.246C1975.28 98.4421 1970.07 83.7572 1954.47 80.3919C1963.65 84.9809 1968.54 93.2412 1968.54 102.419C1968.54 113.127 1961.51 123.835 1947.74 123.835C1933.67 123.835 1923.57 115.88 1923.57 101.807C1923.57 87.4284 1933.06 78.8623 1948.66 78.8623C1970.99 78.8623 1982.01 98.4421 1982.01 121.081C1982.01 153.204 1982.92 176.761 1985.98 198.177H1860.55Z" fill="white"/>
<path d="M1860.55 198.177V197.565C1867.89 188.081 1869.12 177.373 1869.42 161.771C1869.73 141.579 1870.03 123.835 1870.03 103.949C1870.03 83.7572 1869.73 61.7299 1869.42 41.8441C1869.12 21.0406 1867.28 15.2278 1860.55 6.04976V5.43788H1958.14V6.04976C1924.18 12.4744 1913.48 20.4287 1913.48 42.1501C1913.17 56.529 1913.17 78.8622 1913.17 103.031C1913.17 120.775 1913.17 139.743 1913.17 157.182C1924.8 157.793 1936.12 158.405 1944.07 158.405C1967.63 158.405 1975.28 143.414 1975.28 119.246C1975.28 98.4421 1970.07 83.7572 1954.47 80.3919C1963.65 84.9809 1968.54 93.2412 1968.54 102.419C1968.54 113.127 1961.51 123.835 1947.74 123.835C1933.67 123.835 1923.57 115.88 1923.57 101.807C1923.57 87.4284 1933.06 78.8623 1948.66 78.8623C1970.99 78.8623 1982.01 98.4421 1982.01 121.081C1982.01 153.204 1982.92 176.761 1985.98 198.177H1860.55Z" fill="#000000"/>
<path d="M2010.24 198.177C2007.23 198.177 2005.3 196.255 2005.3 193.236V10.9793C2005.3 7.96002 2007.23 6.03863 2010.24 6.03863H2072.83C2075.85 6.03863 2077.77 7.96002 2077.77 10.9793V193.236C2077.77 196.255 2075.85 198.177 2072.83 198.177H2010.24Z" fill="white"/>
<path d="M2010.24 198.177C2007.23 198.177 2005.3 196.255 2005.3 193.236V10.9793C2005.3 7.96002 2007.23 6.03863 2010.24 6.03863H2072.83C2075.85 6.03863 2077.77 7.96002 2077.77 10.9793V193.236C2077.77 196.255 2075.85 198.177 2072.83 198.177H2010.24Z" fill="#000000"/>
<path d="M2106.33 198.177C2103.32 198.177 2101.39 196.255 2101.39 193.236V10.9793C2101.39 7.96002 2103.32 6.03863 2106.33 6.03863H2171.94C2174.68 6.03863 2176.88 7.68554 2177.43 10.4304L2192.25 76.8553C2194.44 86.7367 2195.54 96.8926 2197.74 106.774L2199.66 106.499C2198.84 97.167 2196.91 76.3063 2196.91 69.4442L2196.37 10.9793C2196.37 7.96002 2198.29 6.03863 2201.31 6.03863H2261.14C2264.16 6.03863 2266.08 7.96002 2266.08 10.9793V193.236C2266.08 196.255 2264.16 198.177 2261.14 198.177H2202.4C2199.66 198.177 2197.74 197.079 2196.91 194.06L2178.25 127.36C2175.5 117.479 2173.58 107.323 2171.39 97.4415L2169.47 97.716C2170.56 107.048 2172.49 127.909 2172.49 134.771L2173.03 193.236C2173.03 196.255 2171.11 198.177 2168.09 198.177H2106.33Z" fill="white"/>
<path d="M2106.33 198.177C2103.32 198.177 2101.39 196.255 2101.39 193.236V10.9793C2101.39 7.96002 2103.32 6.03863 2106.33 6.03863H2171.94C2174.68 6.03863 2176.88 7.68554 2177.43 10.4304L2192.25 76.8553C2194.44 86.7367 2195.54 96.8926 2197.74 106.774L2199.66 106.499C2198.84 97.167 2196.91 76.3063 2196.91 69.4442L2196.37 10.9793C2196.37 7.96002 2198.29 6.03863 2201.31 6.03863H2261.14C2264.16 6.03863 2266.08 7.96002 2266.08 10.9793V193.236C2266.08 196.255 2264.16 198.177 2261.14 198.177H2202.4C2199.66 198.177 2197.74 197.079 2196.91 194.06L2178.25 127.36C2175.5 117.479 2173.58 107.323 2171.39 97.4415L2169.47 97.716C2170.56 107.048 2172.49 127.909 2172.49 134.771L2173.03 193.236C2173.03 196.255 2171.11 198.177 2168.09 198.177H2106.33Z" fill="#000000"/>
<path d="M2285.3 198.177C2282.01 198.177 2280.09 196.255 2280.91 192.687L2328.12 10.1559C2328.95 7.13657 2330.59 6.03863 2333.61 6.03863H2420.35C2423.37 6.03863 2425.01 7.13657 2425.84 10.1559L2472.77 192.687C2473.6 196.255 2471.68 198.177 2468.38 198.177H2401.68C2398.66 198.177 2397.02 196.53 2396.47 193.785L2390.7 166.886H2362.71L2356.94 193.785C2356.39 196.53 2354.75 198.177 2351.73 198.177H2285.3ZM2367.37 121.596H2386.04L2379.45 84.2663L2378.08 73.0125H2375.33L2373.96 84.2663L2367.37 121.596Z" fill="white"/>
<path d="M2285.3 198.177C2282.01 198.177 2280.09 196.255 2280.91 192.687L2328.12 10.1559C2328.95 7.13657 2330.59 6.03863 2333.61 6.03863H2420.35C2423.37 6.03863 2425.01 7.13657 2425.84 10.1559L2472.77 192.687C2473.6 196.255 2471.68 198.177 2468.38 198.177H2401.68C2398.66 198.177 2397.02 196.53 2396.47 193.785L2390.7 166.886H2362.71L2356.94 193.785C2356.39 196.53 2354.75 198.177 2351.73 198.177H2285.3ZM2367.37 121.596H2386.04L2379.45 84.2663L2378.08 73.0125H2375.33L2373.96 84.2663L2367.37 121.596Z" fill="#000000"/>
</svg>
