<svg width="1563" height="203" viewBox="0 0 1563 203" fill="none" xmlns="http://www.w3.org/2000/svg">
<path d="M45.2897 198.177C42.2704 198.177 40.349 196.255 40.349 193.236V71.9146H4.9407C1.92138 71.9146 0 69.9932 0 66.9739V10.9793C0 7.96002 1.92138 6.03863 4.9407 6.03863H148.495C151.515 6.03863 153.436 7.96002 153.436 10.9793V66.9739C153.436 69.9932 151.515 71.9146 148.495 71.9146H112.813V193.236C112.813 196.255 110.891 198.177 107.872 198.177H45.2897Z" fill="white"/>
<path d="M45.2897 198.177C42.2704 198.177 40.349 196.255 40.349 193.236V71.9146H4.9407C1.92138 71.9146 0 69.9932 0 66.9739V10.9793C0 7.96002 1.92138 6.03863 4.9407 6.03863H148.495C151.515 6.03863 153.436 7.96002 153.436 10.9793V66.9739C153.436 69.9932 151.515 71.9146 148.495 71.9146H112.813V193.236C112.813 196.255 110.891 198.177 107.872 198.177H45.2897Z" fill="#000000"/>
<path d="M176.744 198.177C173.724 198.177 171.803 196.255 171.803 193.236V10.9793C171.803 7.96002 173.724 6.03863 176.744 6.03863H299.986C303.006 6.03863 304.927 7.96002 304.927 10.9793V64.2291C304.927 67.2484 303.006 69.1698 299.986 69.1698H243.443V80.698H280.773C283.792 80.698 285.713 82.6194 285.713 85.6387V118.851C285.713 121.871 283.792 123.792 280.773 123.792H243.443V136.144H301.084C304.104 136.144 306.025 138.065 306.025 141.084V193.236C306.025 196.255 304.104 198.177 301.084 198.177H176.744Z" fill="white"/>
<path d="M176.744 198.177C173.724 198.177 171.803 196.255 171.803 193.236V10.9793C171.803 7.96002 173.724 6.03863 176.744 6.03863H299.986C303.006 6.03863 304.927 7.96002 304.927 10.9793V64.2291C304.927 67.2484 303.006 69.1698 299.986 69.1698H243.443V80.698H280.773C283.792 80.698 285.713 82.6194 285.713 85.6387V118.851C285.713 121.871 283.792 123.792 280.773 123.792H243.443V136.144H301.084C304.104 136.144 306.025 138.065 306.025 141.084V193.236C306.025 196.255 304.104 198.177 301.084 198.177H176.744Z" fill="#000000"/>
<path d="M407.139 139.437V198.177H330.044V139.437C344.117 137.602 349.624 121.693 349.624 95.0768V81.6157C349.624 64.7892 349.93 63.8714 330.044 63.8714V5.43788H446.911V51.0222C446.911 70.2961 447.829 79.4741 468.02 96.9124L511.769 134.542V132.401C511.769 100.584 504.121 69.0723 472.915 63.8714V5.43788H550.011V63.5655C536.244 67.2367 530.125 75.497 530.125 104.255V198.177H432.838V145.25C432.838 125.976 426.413 118.022 409.893 103.949L367.98 68.1545C368.286 96.9124 372.263 127.812 407.139 139.437Z" fill="white"/>
<path d="M407.139 139.437V198.177H330.044V139.437C344.117 137.602 349.624 121.693 349.624 95.0768V81.6157C349.624 64.7892 349.93 63.8714 330.044 63.8714V5.43788H446.911V51.0222C446.911 70.2961 447.829 79.4741 468.02 96.9124L511.769 134.542V132.401C511.769 100.584 504.121 69.0723 472.915 63.8714V5.43788H550.011V63.5655C536.244 67.2367 530.125 75.497 530.125 104.255V198.177H432.838V145.25C432.838 125.976 426.413 118.022 409.893 103.949L367.98 68.1545C368.286 96.9124 372.263 127.812 407.139 139.437Z" fill="#000000"/>
<path d="M577.533 198.177C574.514 198.177 572.592 196.255 572.592 193.236V10.9793C572.592 7.96002 574.514 6.03863 577.533 6.03863H643.134C645.879 6.03863 648.075 7.68554 648.624 10.4304L663.446 76.8553C665.642 86.7367 666.74 96.8926 668.936 106.774L670.857 106.499C670.034 97.167 668.112 76.3063 668.112 69.4442L667.563 10.9793C667.563 7.96002 669.485 6.03863 672.504 6.03863H732.341C735.361 6.03863 737.282 7.96002 737.282 10.9793V193.236C737.282 196.255 735.361 198.177 732.341 198.177H673.602C670.857 198.177 668.936 197.079 668.112 194.06L649.447 127.36C646.703 117.479 644.781 107.323 642.585 97.4415L640.664 97.716C641.762 107.048 643.683 127.909 643.683 134.771L644.232 193.236C644.232 196.255 642.311 198.177 639.292 198.177H577.533Z" fill="white"/>
<path d="M577.533 198.177C574.514 198.177 572.592 196.255 572.592 193.236V10.9793C572.592 7.96002 574.514 6.03863 577.533 6.03863H643.134C645.879 6.03863 648.075 7.68554 648.624 10.4304L663.446 76.8553C665.642 86.7367 666.74 96.8926 668.936 106.774L670.857 106.499C670.034 97.167 668.112 76.3063 668.112 69.4442L667.563 10.9793C667.563 7.96002 669.485 6.03863 672.504 6.03863H732.341C735.361 6.03863 737.282 7.96002 737.282 10.9793V193.236C737.282 196.255 735.361 198.177 732.341 198.177H673.602C670.857 198.177 668.936 197.079 668.112 194.06L649.447 127.36C646.703 117.479 644.781 107.323 642.585 97.4415L640.664 97.716C641.762 107.048 643.683 127.909 643.683 134.771L644.232 193.236C644.232 196.255 642.311 198.177 639.292 198.177H577.533Z" fill="#000000"/>
<path d="M765.833 198.177C762.813 198.177 760.892 196.255 760.892 193.236V10.9793C760.892 7.96002 762.813 6.03863 765.833 6.03863H889.076C892.095 6.03863 894.016 7.96002 894.016 10.9793V64.2291C894.016 67.2484 892.095 69.1698 889.076 69.1698H832.532V80.698H869.862C872.881 80.698 874.802 82.6194 874.802 85.6387V118.851C874.802 121.871 872.881 123.792 869.862 123.792H832.532V136.144H890.173C893.193 136.144 895.114 138.065 895.114 141.084V193.236C895.114 196.255 893.193 198.177 890.173 198.177H765.833Z" fill="white"/>
<path d="M765.833 198.177C762.813 198.177 760.892 196.255 760.892 193.236V10.9793C760.892 7.96002 762.813 6.03863 765.833 6.03863H889.076C892.095 6.03863 894.016 7.96002 894.016 10.9793V64.2291C894.016 67.2484 892.095 69.1698 889.076 69.1698H832.532V80.698H869.862C872.881 80.698 874.802 82.6194 874.802 85.6387V118.851C874.802 121.871 872.881 123.792 869.862 123.792H832.532V136.144H890.173C893.193 136.144 895.114 138.065 895.114 141.084V193.236C895.114 196.255 893.193 198.177 890.173 198.177H765.833Z" fill="#000000"/>
<path d="M990.109 202.02C953.328 202.02 912.43 185.002 909.411 132.575C909.136 129.282 911.058 127.36 914.077 127.36H973.365C976.934 127.36 979.13 129.556 979.13 132.575C979.404 139.437 982.149 144.653 990.383 144.653C995.873 144.653 998.892 140.81 999.167 136.418C998.892 124.89 985.168 124.341 963.484 120.498C934.114 115.283 909.96 99.3629 910.234 63.1311C909.96 23.88 943.447 0 986.266 0C1016.18 0 1060.1 13.7242 1062.3 64.2291C1062.3 67.5229 1060.38 69.4442 1057.36 69.4442H1002.19C998.892 69.4442 997.245 67.5229 996.971 64.5035C996.696 59.5629 995.324 53.7987 987.364 53.7987C982.972 53.7987 979.953 56.5435 979.953 60.9353C979.953 71.0911 993.677 71.0911 1015.09 76.3063C1044.73 83.4429 1068.61 99.9119 1068.89 136.418C1069.16 181.433 1031.83 202.02 990.109 202.02Z" fill="white"/>
<path d="M990.109 202.02C953.328 202.02 912.43 185.002 909.411 132.575C909.136 129.282 911.058 127.36 914.077 127.36H973.365C976.934 127.36 979.13 129.556 979.13 132.575C979.404 139.437 982.149 144.653 990.383 144.653C995.873 144.653 998.892 140.81 999.167 136.418C998.892 124.89 985.168 124.341 963.484 120.498C934.114 115.283 909.96 99.3629 910.234 63.1311C909.96 23.88 943.447 0 986.266 0C1016.18 0 1060.1 13.7242 1062.3 64.2291C1062.3 67.5229 1060.38 69.4442 1057.36 69.4442H1002.19C998.892 69.4442 997.245 67.5229 996.971 64.5035C996.696 59.5629 995.324 53.7987 987.364 53.7987C982.972 53.7987 979.953 56.5435 979.953 60.9353C979.953 71.0911 993.677 71.0911 1015.09 76.3063C1044.73 83.4429 1068.61 99.9119 1068.89 136.418C1069.16 181.433 1031.83 202.02 990.109 202.02Z" fill="#000000"/>
<path d="M1165.01 202.02C1128.23 202.02 1087.33 185.002 1084.31 132.575C1084.03 129.282 1085.95 127.36 1088.97 127.36H1148.26C1151.83 127.36 1154.03 129.556 1154.03 132.575C1154.3 139.437 1157.05 144.653 1165.28 144.653C1170.77 144.653 1173.79 140.81 1174.06 136.418C1173.79 124.89 1160.07 124.341 1138.38 120.498C1109.01 115.283 1084.86 99.3629 1085.13 63.1311C1084.86 23.88 1118.34 0 1161.16 0C1191.08 0 1235 13.7242 1237.2 64.2291C1237.2 67.5229 1235.27 69.4442 1232.25 69.4442H1177.08C1173.79 69.4442 1172.14 67.5229 1171.87 64.5035C1171.59 59.5629 1170.22 53.7987 1162.26 53.7987C1157.87 53.7987 1154.85 56.5435 1154.85 60.9353C1154.85 71.0911 1168.57 71.0911 1189.98 76.3063C1219.63 83.4429 1243.51 99.9119 1243.78 136.418C1244.06 181.433 1206.73 202.02 1165.01 202.02Z" fill="white"/>
<path d="M1165.01 202.02C1128.23 202.02 1087.33 185.002 1084.31 132.575C1084.03 129.282 1085.95 127.36 1088.97 127.36H1148.26C1151.83 127.36 1154.03 129.556 1154.03 132.575C1154.3 139.437 1157.05 144.653 1165.28 144.653C1170.77 144.653 1173.79 140.81 1174.06 136.418C1173.79 124.89 1160.07 124.341 1138.38 120.498C1109.01 115.283 1084.86 99.3629 1085.13 63.1311C1084.86 23.88 1118.34 0 1161.16 0C1191.08 0 1235 13.7242 1237.2 64.2291C1237.2 67.5229 1235.27 69.4442 1232.25 69.4442H1177.08C1173.79 69.4442 1172.14 67.5229 1171.87 64.5035C1171.59 59.5629 1170.22 53.7987 1162.26 53.7987C1157.87 53.7987 1154.85 56.5435 1154.85 60.9353C1154.85 71.0911 1168.57 71.0911 1189.98 76.3063C1219.63 83.4429 1243.51 99.9119 1243.78 136.418C1244.06 181.433 1206.73 202.02 1165.01 202.02Z" fill="#000000"/>
<path d="M1255.8 198.177V197.565C1261.92 189.305 1264.37 183.186 1264.68 161.771C1265.29 146.781 1265.29 125.977 1265.29 104.562C1265.29 83.1471 1265.29 60.5083 1264.68 42.1525C1264.37 20.4315 1261.01 11.2536 1255.8 6.05279V5.44092H1405.1C1404.79 15.5366 1404.79 25.3264 1404.79 36.3399C1404.79 47.6593 1405.1 59.5905 1405.71 73.3574H1405.1C1396.53 49.4949 1391.64 45.8237 1358.9 45.8237C1339.02 45.8237 1323.72 46.1296 1308.12 47.0474C1307.81 67.5447 1307.81 99.0555 1306.59 129.343H1307.2C1310.26 83.759 1325.25 64.1795 1354.93 64.1795C1382.15 64.1795 1392.25 78.2523 1392.25 101.197C1392.25 127.507 1376.95 147.392 1352.48 147.392C1336.88 147.392 1328 139.744 1328 125.977C1328 115.882 1334.43 106.704 1347.58 106.704C1357.98 106.704 1366.55 114.046 1366.55 126.283C1366.55 132.402 1363.49 143.721 1351.56 146.169C1369.92 144.333 1377.87 132.096 1377.87 122.306C1377.87 104.868 1365.94 96.914 1346.36 96.914C1325.86 96.914 1310.26 107.01 1308.73 130.872C1308.42 134.849 1308.42 139.132 1308.42 143.721C1308.42 147.698 1308.42 151.981 1308.73 156.57C1324.64 157.794 1339.93 157.794 1359.82 157.794C1393.78 157.794 1397.45 154.429 1406.02 130.26H1406.63C1406.32 143.415 1406.02 155.958 1406.02 168.502C1406.02 180.127 1406.02 189.305 1406.32 198.177H1255.8Z" fill="white"/>
<path d="M1255.8 198.177V197.565C1261.92 189.305 1264.37 183.186 1264.68 161.771C1265.29 146.781 1265.29 125.977 1265.29 104.562C1265.29 83.1471 1265.29 60.5083 1264.68 42.1525C1264.37 20.4315 1261.01 11.2536 1255.8 6.05279V5.44092H1405.1C1404.79 15.5366 1404.79 25.3264 1404.79 36.3399C1404.79 47.6593 1405.1 59.5905 1405.71 73.3574H1405.1C1396.53 49.4949 1391.64 45.8237 1358.9 45.8237C1339.02 45.8237 1323.72 46.1296 1308.12 47.0474C1307.81 67.5447 1307.81 99.0555 1306.59 129.343H1307.2C1310.26 83.759 1325.25 64.1795 1354.93 64.1795C1382.15 64.1795 1392.25 78.2523 1392.25 101.197C1392.25 127.507 1376.95 147.392 1352.48 147.392C1336.88 147.392 1328 139.744 1328 125.977C1328 115.882 1334.43 106.704 1347.58 106.704C1357.98 106.704 1366.55 114.046 1366.55 126.283C1366.55 132.402 1363.49 143.721 1351.56 146.169C1369.92 144.333 1377.87 132.096 1377.87 122.306C1377.87 104.868 1365.94 96.914 1346.36 96.914C1325.86 96.914 1310.26 107.01 1308.73 130.872C1308.42 134.849 1308.42 139.132 1308.42 143.721C1308.42 147.698 1308.42 151.981 1308.73 156.57C1324.64 157.794 1339.93 157.794 1359.82 157.794C1393.78 157.794 1397.45 154.429 1406.02 130.26H1406.63C1406.32 143.415 1406.02 155.958 1406.02 168.502C1406.02 180.127 1406.02 189.305 1406.32 198.177H1255.8Z" fill="#000000"/>
<path d="M1433.58 198.177C1430.56 198.177 1428.64 196.255 1428.64 193.236V10.9793C1428.64 7.96002 1430.56 6.03863 1433.58 6.03863H1556.82C1559.84 6.03863 1561.76 7.96002 1561.76 10.9793V64.2291C1561.76 67.2484 1559.84 69.1698 1556.82 69.1698H1500.28V80.698H1537.61C1540.63 80.698 1542.55 82.6194 1542.55 85.6387V118.851C1542.55 121.871 1540.63 123.792 1537.61 123.792H1500.28V136.144H1557.92C1560.94 136.144 1562.86 138.065 1562.86 141.084V193.236C1562.86 196.255 1560.94 198.177 1557.92 198.177H1433.58Z" fill="white"/>
<path d="M1433.58 198.177C1430.56 198.177 1428.64 196.255 1428.64 193.236V10.9793C1428.64 7.96002 1430.56 6.03863 1433.58 6.03863H1556.82C1559.84 6.03863 1561.76 7.96002 1561.76 10.9793V64.2291C1561.76 67.2484 1559.84 69.1698 1556.82 69.1698H1500.28V80.698H1537.61C1540.63 80.698 1542.55 82.6194 1542.55 85.6387V118.851C1542.55 121.871 1540.63 123.792 1537.61 123.792H1500.28V136.144H1557.92C1560.94 136.144 1562.86 138.065 1562.86 141.084V193.236C1562.86 196.255 1560.94 198.177 1557.92 198.177H1433.58Z" fill="#000000"/>
</svg>
