<svg width="1602" height="203" viewBox="0 0 1602 203" fill="none" xmlns="http://www.w3.org/2000/svg">
<path d="M42.9234 198.177C39.9041 198.177 38.2572 196.53 37.7082 193.785L0.104029 11.5283C-0.444937 8.2345 1.20196 6.03863 4.49576 6.03863H70.0972C73.1165 6.03863 75.0379 7.68554 75.3124 10.7049L82.7234 63.1311C84.3704 75.4829 85.1938 88.3836 86.0173 100.735H88.2131C89.5855 88.3836 90.9579 75.4829 92.8793 63.1311L101.114 10.4304C101.663 7.41105 103.584 6.03863 106.603 6.03863H155.736C158.755 6.03863 160.402 7.68554 160.951 10.7049L168.637 63.1311C170.558 75.4829 172.479 88.3836 173.852 100.735H176.048C176.871 88.3836 177.695 75.4829 179.342 63.1311L186.753 10.7049C187.027 7.68554 188.948 6.03863 191.968 6.03863H256.746C260.04 6.03863 261.686 8.2345 261.138 11.5283L224.082 193.785C223.533 196.53 221.886 198.177 218.867 198.177H152.442C149.423 198.177 147.776 196.53 147.227 193.785L137.071 146.574C134.601 135.32 133.228 124.066 131.307 112.813H129.66C127.739 124.066 126.366 135.595 124.17 146.848L114.563 193.785C114.015 196.53 112.368 198.177 109.348 198.177H42.9234Z" fill="white"/>
<path d="M42.9234 198.177C39.9041 198.177 38.2572 196.53 37.7082 193.785L0.104029 11.5283C-0.444937 8.2345 1.20196 6.03863 4.49576 6.03863H70.0972C73.1165 6.03863 75.0379 7.68554 75.3124 10.7049L82.7234 63.1311C84.3704 75.4829 85.1938 88.3836 86.0173 100.735H88.2131C89.5855 88.3836 90.9579 75.4829 92.8793 63.1311L101.114 10.4304C101.663 7.41105 103.584 6.03863 106.603 6.03863H155.736C158.755 6.03863 160.402 7.68554 160.951 10.7049L168.637 63.1311C170.558 75.4829 172.479 88.3836 173.852 100.735H176.048C176.871 88.3836 177.695 75.4829 179.342 63.1311L186.753 10.7049C187.027 7.68554 188.948 6.03863 191.968 6.03863H256.746C260.04 6.03863 261.686 8.2345 261.138 11.5283L224.082 193.785C223.533 196.53 221.886 198.177 218.867 198.177H152.442C149.423 198.177 147.776 196.53 147.227 193.785L137.071 146.574C134.601 135.32 133.228 124.066 131.307 112.813H129.66C127.739 124.066 126.366 135.595 124.17 146.848L114.563 193.785C114.015 196.53 112.368 198.177 109.348 198.177H42.9234Z" fill="#000000"/>
<path d="M283.551 198.177C280.531 198.177 278.61 196.255 278.61 193.236V10.9793C278.61 7.96002 280.531 6.03863 283.551 6.03863H346.133C349.152 6.03863 351.074 7.96002 351.074 10.9793V193.236C351.074 196.255 349.152 198.177 346.133 198.177H283.551Z" fill="white"/>
<path d="M283.551 198.177C280.531 198.177 278.61 196.255 278.61 193.236V10.9793C278.61 7.96002 280.531 6.03863 283.551 6.03863H346.133C349.152 6.03863 351.074 7.96002 351.074 10.9793V193.236C351.074 196.255 349.152 198.177 346.133 198.177H283.551Z" fill="#000000"/>
<path d="M450.732 202.02C413.952 202.02 373.054 185.002 370.034 132.575C369.76 129.282 371.681 127.36 374.701 127.36H433.989C437.557 127.36 439.753 129.556 439.753 132.575C440.028 139.437 442.772 144.653 451.007 144.653C456.497 144.653 459.516 140.81 459.79 136.418C459.516 124.89 445.792 124.341 424.108 120.498C394.738 115.283 370.583 99.3629 370.858 63.1311C370.583 23.88 404.07 0 446.89 0C476.808 0 520.726 13.7242 522.921 64.2291C522.921 67.5229 521 69.4442 517.981 69.4442H462.81C459.516 69.4442 457.869 67.5229 457.594 64.5035C457.32 59.5629 455.948 53.7987 447.988 53.7987C443.596 53.7987 440.577 56.5435 440.577 60.9353C440.577 71.0911 454.301 71.0911 475.71 76.3063C505.355 83.4429 529.235 99.9119 529.509 136.418C529.784 181.433 492.454 202.02 450.732 202.02Z" fill="white"/>
<path d="M450.732 202.02C413.952 202.02 373.054 185.002 370.034 132.575C369.76 129.282 371.681 127.36 374.701 127.36H433.989C437.557 127.36 439.753 129.556 439.753 132.575C440.028 139.437 442.772 144.653 451.007 144.653C456.497 144.653 459.516 140.81 459.79 136.418C459.516 124.89 445.792 124.341 424.108 120.498C394.738 115.283 370.583 99.3629 370.858 63.1311C370.583 23.88 404.07 0 446.89 0C476.808 0 520.726 13.7242 522.921 64.2291C522.921 67.5229 521 69.4442 517.981 69.4442H462.81C459.516 69.4442 457.869 67.5229 457.594 64.5035C457.32 59.5629 455.948 53.7987 447.988 53.7987C443.596 53.7987 440.577 56.5435 440.577 60.9353C440.577 71.0911 454.301 71.0911 475.71 76.3063C505.355 83.4429 529.235 99.9119 529.509 136.418C529.784 181.433 492.454 202.02 450.732 202.02Z" fill="#000000"/>
<path d="M584.667 198.177C569.37 198.177 558.867 194.71 553.156 187.775C547.445 180.841 544.59 170.031 544.59 155.347C544.59 132.096 545.202 111.599 546.425 93.8547C547.853 75.9068 549.179 60.9162 550.403 48.883C551.83 37.4616 554.38 28.6916 558.051 22.573C561.722 16.2505 566.923 11.8655 573.653 9.41801C580.588 6.76662 589.358 5.44092 599.963 5.44092H674.304C673.488 26.6521 672.469 44.1921 671.245 58.0609C670.021 71.9297 668.186 82.8412 665.738 90.7954C663.495 98.5456 660.027 104.052 655.336 107.316C650.849 110.375 644.833 111.905 637.287 111.905C629.74 111.905 623.724 109.865 619.237 105.786C614.954 101.503 612.812 95.8942 612.812 88.9598C612.812 82.8412 614.648 77.6404 618.319 73.3574C621.99 69.0744 627.293 66.9329 634.227 66.9329C640.754 66.9329 645.853 68.8704 649.524 72.7455C653.399 76.6206 655.336 81.8214 655.336 88.348C655.336 94.4666 653.909 99.2595 651.053 102.727C648.198 106.194 645.037 108.845 641.57 110.681C648.912 109.253 654.113 105.582 657.172 99.6674C660.231 93.5488 661.761 85.0847 661.761 74.2752C661.761 66.117 660.843 60.1004 659.008 56.2253C657.172 52.1462 653.807 49.4949 648.912 48.2711C644.017 46.8435 636.879 46.1296 627.497 46.1296H615.566C609.447 46.1296 604.858 46.5375 601.799 47.3533C598.739 47.9652 596.598 49.4949 595.374 51.9423C594.151 54.3897 593.131 58.2648 592.315 63.5676C591.295 70.502 590.275 80.3938 589.256 93.2428C588.236 106.092 587.726 120.573 587.726 136.685C587.726 142.6 588.644 147.087 590.479 150.146C592.315 153.205 596.088 155.245 601.799 156.264C607.713 157.284 616.585 157.794 628.415 157.794C639.836 157.794 648.504 157.08 654.419 155.653C660.333 154.225 664.616 151.064 667.268 146.169C669.919 141.07 671.959 133.32 673.386 122.918H673.998L677.057 198.177H584.667Z" fill="white"/>
<path d="M584.667 198.177C569.37 198.177 558.867 194.71 553.156 187.775C547.445 180.841 544.59 170.031 544.59 155.347C544.59 132.096 545.202 111.599 546.425 93.8547C547.853 75.9068 549.179 60.9162 550.403 48.883C551.83 37.4616 554.38 28.6916 558.051 22.573C561.722 16.2505 566.923 11.8655 573.653 9.41801C580.588 6.76662 589.358 5.44092 599.963 5.44092H674.304C673.488 26.6521 672.469 44.1921 671.245 58.0609C670.021 71.9297 668.186 82.8412 665.738 90.7954C663.495 98.5456 660.027 104.052 655.336 107.316C650.849 110.375 644.833 111.905 637.287 111.905C629.74 111.905 623.724 109.865 619.237 105.786C614.954 101.503 612.812 95.8942 612.812 88.9598C612.812 82.8412 614.648 77.6404 618.319 73.3574C621.99 69.0744 627.293 66.9329 634.227 66.9329C640.754 66.9329 645.853 68.8704 649.524 72.7455C653.399 76.6206 655.336 81.8214 655.336 88.348C655.336 94.4666 653.909 99.2595 651.053 102.727C648.198 106.194 645.037 108.845 641.57 110.681C648.912 109.253 654.113 105.582 657.172 99.6674C660.231 93.5488 661.761 85.0847 661.761 74.2752C661.761 66.117 660.843 60.1004 659.008 56.2253C657.172 52.1462 653.807 49.4949 648.912 48.2711C644.017 46.8435 636.879 46.1296 627.497 46.1296H615.566C609.447 46.1296 604.858 46.5375 601.799 47.3533C598.739 47.9652 596.598 49.4949 595.374 51.9423C594.151 54.3897 593.131 58.2648 592.315 63.5676C591.295 70.502 590.275 80.3938 589.256 93.2428C588.236 106.092 587.726 120.573 587.726 136.685C587.726 142.6 588.644 147.087 590.479 150.146C592.315 153.205 596.088 155.245 601.799 156.264C607.713 157.284 616.585 157.794 628.415 157.794C639.836 157.794 648.504 157.08 654.419 155.653C660.333 154.225 664.616 151.064 667.268 146.169C669.919 141.07 671.959 133.32 673.386 122.918H673.998L677.057 198.177H584.667Z" fill="#000000"/>
<path d="M797.096 202.843C736.435 202.843 693.067 156.73 693.067 101.833C693.067 46.9366 736.435 1.09793 797.096 1.09793C857.482 1.09793 901.125 46.9366 901.125 101.833C901.125 156.73 857.482 202.843 797.096 202.843ZM797.096 128.184C813.016 128.184 824.818 116.106 824.818 101.833C824.818 87.5601 813.016 75.4829 797.096 75.4829C781.176 75.4829 769.373 87.5601 769.373 101.833C769.373 116.106 781.176 128.184 797.096 128.184Z" fill="white"/>
<path d="M797.096 202.843C736.435 202.843 693.067 156.73 693.067 101.833C693.067 46.9366 736.435 1.09793 797.096 1.09793C857.482 1.09793 901.125 46.9366 901.125 101.833C901.125 156.73 857.482 202.843 797.096 202.843ZM797.096 128.184C813.016 128.184 824.818 116.106 824.818 101.833C824.818 87.5601 813.016 75.4829 797.096 75.4829C781.176 75.4829 769.373 87.5601 769.373 101.833C769.373 116.106 781.176 128.184 797.096 128.184Z" fill="#000000"/>
<path d="M926.65 198.177C923.63 198.177 921.709 196.255 921.709 193.236V10.9793C921.709 7.96002 923.63 6.03863 926.65 6.03863H992.251C994.996 6.03863 997.192 7.68554 997.741 10.4304L1012.56 76.8553C1014.76 86.7367 1015.86 96.8926 1018.05 106.774L1019.97 106.499C1019.15 97.167 1017.23 76.3063 1017.23 69.4442L1016.68 10.9793C1016.68 7.96002 1018.6 6.03863 1021.62 6.03863H1081.46C1084.48 6.03863 1086.4 7.96002 1086.4 10.9793V193.236C1086.4 196.255 1084.48 198.177 1081.46 198.177H1022.72C1019.97 198.177 1018.05 197.079 1017.23 194.06L998.564 127.36C995.819 117.479 993.898 107.323 991.702 97.4415L989.781 97.716C990.879 107.048 992.8 127.909 992.8 134.771L993.349 193.236C993.349 196.255 991.427 198.177 988.408 198.177H926.65Z" fill="white"/>
<path d="M926.65 198.177C923.63 198.177 921.709 196.255 921.709 193.236V10.9793C921.709 7.96002 923.63 6.03863 926.65 6.03863H992.251C994.996 6.03863 997.192 7.68554 997.741 10.4304L1012.56 76.8553C1014.76 86.7367 1015.86 96.8926 1018.05 106.774L1019.97 106.499C1019.15 97.167 1017.23 76.3063 1017.23 69.4442L1016.68 10.9793C1016.68 7.96002 1018.6 6.03863 1021.62 6.03863H1081.46C1084.48 6.03863 1086.4 7.96002 1086.4 10.9793V193.236C1086.4 196.255 1084.48 198.177 1081.46 198.177H1022.72C1019.97 198.177 1018.05 197.079 1017.23 194.06L998.564 127.36C995.819 117.479 993.898 107.323 991.702 97.4415L989.781 97.716C990.879 107.048 992.8 127.909 992.8 134.771L993.349 193.236C993.349 196.255 991.427 198.177 988.408 198.177H926.65Z" fill="#000000"/>
<path d="M1186.04 202.02C1149.26 202.02 1108.36 185.002 1105.34 132.575C1105.07 129.282 1106.99 127.36 1110.01 127.36H1169.3C1172.87 127.36 1175.06 129.556 1175.06 132.575C1175.34 139.437 1178.08 144.653 1186.31 144.653C1191.8 144.653 1194.82 140.81 1195.1 136.418C1194.82 124.89 1181.1 124.341 1159.42 120.498C1130.05 115.283 1105.89 99.3629 1106.17 63.1311C1105.89 23.88 1139.38 0 1182.2 0C1212.12 0 1256.03 13.7242 1258.23 64.2291C1258.23 67.5229 1256.31 69.4442 1253.29 69.4442H1198.12C1194.82 69.4442 1193.18 67.5229 1192.9 64.5035C1192.63 59.5629 1191.26 53.7987 1183.3 53.7987C1178.9 53.7987 1175.88 56.5435 1175.88 60.9353C1175.88 71.0911 1189.61 71.0911 1211.02 76.3063C1240.66 83.4429 1264.54 99.9119 1264.82 136.418C1265.09 181.433 1227.76 202.02 1186.04 202.02Z" fill="white"/>
<path d="M1186.04 202.02C1149.26 202.02 1108.36 185.002 1105.34 132.575C1105.07 129.282 1106.99 127.36 1110.01 127.36H1169.3C1172.87 127.36 1175.06 129.556 1175.06 132.575C1175.34 139.437 1178.08 144.653 1186.31 144.653C1191.8 144.653 1194.82 140.81 1195.1 136.418C1194.82 124.89 1181.1 124.341 1159.42 120.498C1130.05 115.283 1105.89 99.3629 1106.17 63.1311C1105.89 23.88 1139.38 0 1182.2 0C1212.12 0 1256.03 13.7242 1258.23 64.2291C1258.23 67.5229 1256.31 69.4442 1253.29 69.4442H1198.12C1194.82 69.4442 1193.18 67.5229 1192.9 64.5035C1192.63 59.5629 1191.26 53.7987 1183.3 53.7987C1178.9 53.7987 1175.88 56.5435 1175.88 60.9353C1175.88 71.0911 1189.61 71.0911 1211.02 76.3063C1240.66 83.4429 1264.54 99.9119 1264.82 136.418C1265.09 181.433 1227.76 202.02 1186.04 202.02Z" fill="#000000"/>
<path d="M1287.17 198.177C1284.15 198.177 1282.23 196.255 1282.23 193.236V10.9793C1282.23 7.96002 1284.15 6.03863 1287.17 6.03863H1349.75C1352.77 6.03863 1354.69 7.96002 1354.69 10.9793V193.236C1354.69 196.255 1352.77 198.177 1349.75 198.177H1287.17Z" fill="white"/>
<path d="M1287.17 198.177C1284.15 198.177 1282.23 196.255 1282.23 193.236V10.9793C1282.23 7.96002 1284.15 6.03863 1287.17 6.03863H1349.75C1352.77 6.03863 1354.69 7.96002 1354.69 10.9793V193.236C1354.69 196.255 1352.77 198.177 1349.75 198.177H1287.17Z" fill="#000000"/>
<path d="M1458.59 139.438V198.177H1381.49V139.438C1388.43 138.622 1393.43 134.339 1396.49 126.589C1399.54 118.839 1401.07 108.335 1401.07 95.0784V81.6175C1401.07 73.2554 1400.26 68.2586 1398.63 66.6269C1397.2 64.7914 1391.49 63.8736 1381.49 63.8736V5.44092H1498.36V51.0245C1498.36 60.6103 1499.38 68.4625 1501.42 74.5811C1503.46 80.6997 1509.48 88.144 1519.47 96.914L1563.22 134.543V132.402C1563.22 124.448 1562.61 116.697 1561.38 109.151C1560.36 101.401 1558.42 94.4666 1555.57 88.348C1552.71 82.0254 1548.74 76.7226 1543.64 72.4396C1538.54 67.9526 1532.11 65.0973 1524.36 63.8736V5.44092H1601.46V63.5676C1594.52 65.4032 1589.43 69.0744 1586.16 74.5811C1583.1 80.0879 1581.57 89.9796 1581.57 104.256V198.177H1484.29V145.251C1484.29 135.665 1482.45 128.119 1478.78 122.612C1475.31 117.105 1469.5 110.885 1461.34 103.95L1419.43 68.1566C1419.43 75.295 1419.84 82.5353 1420.65 89.8776C1421.47 97.016 1423.2 103.848 1425.85 110.375C1428.71 116.697 1432.69 122.408 1437.79 127.507C1442.89 132.606 1449.82 136.583 1458.59 139.438Z" fill="white"/>
<path d="M1458.59 139.438V198.177H1381.49V139.438C1388.43 138.622 1393.43 134.339 1396.49 126.589C1399.54 118.839 1401.07 108.335 1401.07 95.0784V81.6175C1401.07 73.2554 1400.26 68.2586 1398.63 66.6269C1397.2 64.7914 1391.49 63.8736 1381.49 63.8736V5.44092H1498.36V51.0245C1498.36 60.6103 1499.38 68.4625 1501.42 74.5811C1503.46 80.6997 1509.48 88.144 1519.47 96.914L1563.22 134.543V132.402C1563.22 124.448 1562.61 116.697 1561.38 109.151C1560.36 101.401 1558.42 94.4666 1555.57 88.348C1552.71 82.0254 1548.74 76.7226 1543.64 72.4396C1538.54 67.9526 1532.11 65.0973 1524.36 63.8736V5.44092H1601.46V63.5676C1594.52 65.4032 1589.43 69.0744 1586.16 74.5811C1583.1 80.0879 1581.57 89.9796 1581.57 104.256V198.177H1484.29V145.251C1484.29 135.665 1482.45 128.119 1478.78 122.612C1475.31 117.105 1469.5 110.885 1461.34 103.95L1419.43 68.1566C1419.43 75.295 1419.84 82.5353 1420.65 89.8776C1421.47 97.016 1423.2 103.848 1425.85 110.375C1428.71 116.697 1432.69 122.408 1437.79 127.507C1442.89 132.606 1449.82 136.583 1458.59 139.438Z" fill="#000000"/>
</svg>
