<svg width="1589" height="203" viewBox="0 0 1589 203" fill="none" xmlns="http://www.w3.org/2000/svg">
<path d="M4.58192 198.177C1.28812 198.177 -0.633259 196.255 0.19019 192.687L47.4013 10.1559C48.2247 7.13657 49.8716 6.03863 52.8909 6.03863H139.628C142.647 6.03863 144.294 7.13657 145.117 10.1559L192.054 192.687C192.877 196.255 190.956 198.177 187.662 198.177H120.963C117.943 198.177 116.297 196.53 115.748 193.785L109.983 166.886H81.9862L76.222 193.785C75.6731 196.53 74.0262 198.177 71.0068 198.177H4.58192ZM86.6524 121.596H105.317L98.7296 84.2663L97.3572 73.0125H94.6124L93.24 84.2663L86.6524 121.596Z" fill="white"/>
<path d="M4.58192 198.177C1.28812 198.177 -0.633259 196.255 0.19019 192.687L47.4013 10.1559C48.2247 7.13657 49.8716 6.03863 52.8909 6.03863H139.628C142.647 6.03863 144.294 7.13657 145.117 10.1559L192.054 192.687C192.877 196.255 190.956 198.177 187.662 198.177H120.963C117.943 198.177 116.297 196.53 115.748 193.785L109.983 166.886H81.9862L76.222 193.785C75.6731 196.53 74.0262 198.177 71.0068 198.177H4.58192ZM86.6524 121.596H105.317L98.7296 84.2663L97.3572 73.0125H94.6124L93.24 84.2663L86.6524 121.596Z" fill="#000000"/>
<path d="M322.073 63.8736H288.115V99.3614H320.237C331.251 99.3614 339.001 97.9338 343.488 95.0784C348.179 92.2231 350.524 87.7361 350.524 81.6175C350.524 74.6831 348.383 69.9922 344.1 67.5447C339.817 65.0973 332.474 63.8736 322.073 63.8736ZM420.582 119.859C420.582 135.971 419.868 149.33 418.441 159.936C417.217 170.541 414.77 178.903 411.098 185.022C407.631 191.14 402.736 195.423 396.414 197.871C390.295 200.114 382.443 201.236 372.857 201.236C364.699 201.236 357.561 200.216 351.442 198.177C345.324 196.341 340.123 192.874 335.84 187.775C331.761 182.676 328.599 175.64 326.356 166.666C324.316 157.692 323.297 146.169 323.297 132.096C323.297 125.977 322.073 122.102 319.625 120.471C317.382 118.635 312.997 117.717 306.47 117.717H288.115V130.26C288.115 137.399 289.236 141.682 291.48 143.109C293.723 144.537 299.842 145.251 309.836 145.251V198.177H210.102V139.438C219.484 139.438 225.093 138.622 226.929 136.991C228.764 135.155 229.682 129.954 229.682 121.388V84.9827C229.682 74.989 228.764 68.9724 226.929 66.9329C225.093 64.8933 219.484 63.8736 210.102 63.8736V5.44092H323.908C352.666 5.44092 373.571 9.51999 386.624 17.6781C399.677 25.6323 406.204 39.3992 406.204 58.9787C406.204 68.5645 404.572 76.4167 401.309 82.5353C398.249 88.4499 394.068 93.0389 388.766 96.3021C383.667 99.5654 377.752 101.809 371.022 103.033C364.495 104.052 357.765 104.562 350.83 104.562H348.077V117.411H362.762C371.531 117.411 377.752 118.635 381.423 121.082C385.298 123.326 387.236 126.793 387.236 131.484V132.708C387.236 137.195 387.848 140.356 389.071 142.192C390.295 144.027 392.539 144.945 395.802 144.945C399.473 144.945 401.921 143.211 403.144 139.744C404.572 136.073 405.286 129.343 405.286 119.553C405.286 118.125 405.184 116.29 404.98 114.046C404.98 111.803 404.878 109.355 404.674 106.704H420.276C420.48 109.559 420.582 112.109 420.582 114.352C420.582 116.595 420.582 118.431 420.582 119.859Z" fill="white"/>
<path d="M322.073 63.8736H288.115V99.3614H320.237C331.251 99.3614 339.001 97.9338 343.488 95.0784C348.179 92.2231 350.524 87.7361 350.524 81.6175C350.524 74.6831 348.383 69.9922 344.1 67.5447C339.817 65.0973 332.474 63.8736 322.073 63.8736ZM420.582 119.859C420.582 135.971 419.868 149.33 418.441 159.936C417.217 170.541 414.77 178.903 411.098 185.022C407.631 191.14 402.736 195.423 396.414 197.871C390.295 200.114 382.443 201.236 372.857 201.236C364.699 201.236 357.561 200.216 351.442 198.177C345.324 196.341 340.123 192.874 335.84 187.775C331.761 182.676 328.599 175.64 326.356 166.666C324.316 157.692 323.297 146.169 323.297 132.096C323.297 125.977 322.073 122.102 319.625 120.471C317.382 118.635 312.997 117.717 306.47 117.717H288.115V130.26C288.115 137.399 289.236 141.682 291.48 143.109C293.723 144.537 299.842 145.251 309.836 145.251V198.177H210.102V139.438C219.484 139.438 225.093 138.622 226.929 136.991C228.764 135.155 229.682 129.954 229.682 121.388V84.9827C229.682 74.989 228.764 68.9724 226.929 66.9329C225.093 64.8933 219.484 63.8736 210.102 63.8736V5.44092H323.908C352.666 5.44092 373.571 9.51999 386.624 17.6781C399.677 25.6323 406.204 39.3992 406.204 58.9787C406.204 68.5645 404.572 76.4167 401.309 82.5353C398.249 88.4499 394.068 93.0389 388.766 96.3021C383.667 99.5654 377.752 101.809 371.022 103.033C364.495 104.052 357.765 104.562 350.83 104.562H348.077V117.411H362.762C371.531 117.411 377.752 118.635 381.423 121.082C385.298 123.326 387.236 126.793 387.236 131.484V132.708C387.236 137.195 387.848 140.356 389.071 142.192C390.295 144.027 392.539 144.945 395.802 144.945C399.473 144.945 401.921 143.211 403.144 139.744C404.572 136.073 405.286 129.343 405.286 119.553C405.286 118.125 405.184 116.29 404.98 114.046C404.98 111.803 404.878 109.355 404.674 106.704H420.276C420.48 109.559 420.582 112.109 420.582 114.352C420.582 116.595 420.582 118.431 420.582 119.859Z" fill="#000000"/>
<path d="M443.546 198.177C440.527 198.177 438.605 196.255 438.605 193.236V10.9793C438.605 7.96002 440.527 6.03863 443.546 6.03863H505.579C508.599 6.03863 510.52 7.96002 510.52 10.9793V30.7421C510.52 42.2704 509.971 52.1518 509.148 63.9546L511.343 64.2291C514.363 55.1711 520.95 38.9766 525.068 30.7421L535.498 9.60692C536.596 7.13657 538.517 6.03863 541.262 6.03863H605.766C609.608 6.03863 610.981 8.2345 609.059 11.8028L572.828 78.7767L619.764 192.413C621.137 195.706 619.49 198.177 615.922 198.177H548.948C546.203 198.177 544.556 196.804 543.458 194.334L518.206 127.36L510.794 138.065L511.343 193.236C511.343 196.255 509.422 198.177 506.403 198.177H443.546Z" fill="white"/>
<path d="M443.546 198.177C440.527 198.177 438.605 196.255 438.605 193.236V10.9793C438.605 7.96002 440.527 6.03863 443.546 6.03863H505.579C508.599 6.03863 510.52 7.96002 510.52 10.9793V30.7421C510.52 42.2704 509.971 52.1518 509.148 63.9546L511.343 64.2291C514.363 55.1711 520.95 38.9766 525.068 30.7421L535.498 9.60692C536.596 7.13657 538.517 6.03863 541.262 6.03863H605.766C609.608 6.03863 610.981 8.2345 609.059 11.8028L572.828 78.7767L619.764 192.413C621.137 195.706 619.49 198.177 615.922 198.177H548.948C546.203 198.177 544.556 196.804 543.458 194.334L518.206 127.36L510.794 138.065L511.343 193.236C511.343 196.255 509.422 198.177 506.403 198.177H443.546Z" fill="#000000"/>
<path d="M627.724 198.177V197.565C630.987 193.282 634.251 187.163 637.514 179.209C640.981 171.051 644.448 161.771 647.916 151.37C651.383 140.764 654.85 129.75 658.317 118.329C650.159 115.27 643.531 111.905 638.432 108.233C633.537 104.358 631.089 98.9535 631.089 92.0191C631.089 87.9401 632.313 84.3709 634.761 81.3116C637.412 78.0483 641.287 76.4167 646.386 76.4167C650.669 76.4167 654.238 77.8444 657.094 80.6997C660.153 83.3511 661.682 87.0223 661.682 91.7132C661.682 96.4041 660.459 100.177 658.011 103.033C655.564 105.888 651.689 107.316 646.386 107.316C642.103 107.316 638.534 106.092 635.678 103.644C638.126 106.5 641.491 108.437 645.774 109.457C650.261 110.477 655.156 111.089 660.459 111.293C663.926 98.8516 667.291 86.5124 670.554 74.2752C674.022 62.038 677.285 50.8205 680.344 40.6229C681.568 36.5438 682.486 32.9746 683.098 29.9153C683.913 26.6521 684.321 23.6947 684.321 21.0434C684.321 13.2931 680.14 8.29627 671.778 6.05279V5.44092H773.347V6.05279C770.084 6.86861 767.534 8.80616 765.699 11.8655C763.863 14.7208 762.945 19.0038 762.945 24.7145C762.945 30.8331 764.169 38.9913 766.616 49.1889C775.794 85.9005 786.502 122.306 798.739 158.406C801.798 167.584 804.756 175.436 807.611 181.963C810.466 188.285 813.526 193.486 816.789 197.565V198.177H735.106V197.565C741.02 195.933 745.201 193.486 747.649 190.223C750.3 186.959 751.626 182.778 751.626 177.68C751.626 175.436 751.422 172.989 751.014 170.337C750.606 167.686 749.994 164.728 749.178 161.465C748.363 157.794 745.303 154.225 740.001 150.758C734.902 147.29 728.375 144.027 720.421 140.968C712.467 137.705 704.003 134.543 695.029 131.484C692.581 141.07 690.032 151.064 687.381 161.465C686.769 164.525 686.259 167.38 685.851 170.031C685.443 172.683 685.239 175.13 685.239 177.374C685.239 182.676 686.463 186.959 688.91 190.223C691.358 193.486 695.539 195.933 701.453 197.565V198.177H627.724ZM700.841 110.375C706.96 110.783 712.977 112.414 718.891 115.27C724.806 118.125 730.313 122.918 735.412 129.649C740.714 136.379 745.609 145.863 750.096 158.1H750.708C745.609 138.317 740.816 118.839 736.329 99.6674C731.842 80.4958 727.152 62.5479 722.257 45.8237H721.033C717.77 55.2055 714.404 65.3012 710.937 76.1108C707.674 86.7163 704.309 98.1377 700.841 110.375Z" fill="white"/>
<path d="M627.724 198.177V197.565C630.987 193.282 634.251 187.163 637.514 179.209C640.981 171.051 644.448 161.771 647.916 151.37C651.383 140.764 654.85 129.75 658.317 118.329C650.159 115.27 643.531 111.905 638.432 108.233C633.537 104.358 631.089 98.9535 631.089 92.0191C631.089 87.9401 632.313 84.3709 634.761 81.3116C637.412 78.0483 641.287 76.4167 646.386 76.4167C650.669 76.4167 654.238 77.8444 657.094 80.6997C660.153 83.3511 661.682 87.0223 661.682 91.7132C661.682 96.4041 660.459 100.177 658.011 103.033C655.564 105.888 651.689 107.316 646.386 107.316C642.103 107.316 638.534 106.092 635.678 103.644C638.126 106.5 641.491 108.437 645.774 109.457C650.261 110.477 655.156 111.089 660.459 111.293C663.926 98.8516 667.291 86.5124 670.554 74.2752C674.022 62.038 677.285 50.8205 680.344 40.6229C681.568 36.5438 682.486 32.9746 683.098 29.9153C683.913 26.6521 684.321 23.6947 684.321 21.0434C684.321 13.2931 680.14 8.29627 671.778 6.05279V5.44092H773.347V6.05279C770.084 6.86861 767.534 8.80616 765.699 11.8655C763.863 14.7208 762.945 19.0038 762.945 24.7145C762.945 30.8331 764.169 38.9913 766.616 49.1889C775.794 85.9005 786.502 122.306 798.739 158.406C801.798 167.584 804.756 175.436 807.611 181.963C810.466 188.285 813.526 193.486 816.789 197.565V198.177H735.106V197.565C741.02 195.933 745.201 193.486 747.649 190.223C750.3 186.959 751.626 182.778 751.626 177.68C751.626 175.436 751.422 172.989 751.014 170.337C750.606 167.686 749.994 164.728 749.178 161.465C748.363 157.794 745.303 154.225 740.001 150.758C734.902 147.29 728.375 144.027 720.421 140.968C712.467 137.705 704.003 134.543 695.029 131.484C692.581 141.07 690.032 151.064 687.381 161.465C686.769 164.525 686.259 167.38 685.851 170.031C685.443 172.683 685.239 175.13 685.239 177.374C685.239 182.676 686.463 186.959 688.91 190.223C691.358 193.486 695.539 195.933 701.453 197.565V198.177H627.724ZM700.841 110.375C706.96 110.783 712.977 112.414 718.891 115.27C724.806 118.125 730.313 122.918 735.412 129.649C740.714 136.379 745.609 145.863 750.096 158.1H750.708C745.609 138.317 740.816 118.839 736.329 99.6674C731.842 80.4958 727.152 62.5479 722.257 45.8237H721.033C717.77 55.2055 714.404 65.3012 710.937 76.1108C707.674 86.7163 704.309 98.1377 700.841 110.375Z" fill="#000000"/>
<path d="M830.639 198.177C827.62 198.177 825.699 196.255 825.699 193.236V10.9793C825.699 7.96002 827.62 6.03863 830.639 6.03863H896.241C898.986 6.03863 901.182 7.68554 901.731 10.4304L916.553 76.8553C918.749 86.7367 919.846 96.8926 922.042 106.774L923.964 106.499C923.14 97.167 921.219 76.3063 921.219 69.4442L920.67 10.9793C920.67 7.96002 922.591 6.03863 925.611 6.03863H985.448C988.467 6.03863 990.389 7.96002 990.389 10.9793V193.236C990.389 196.255 988.467 198.177 985.448 198.177H926.709C923.964 198.177 922.042 197.079 921.219 194.06L902.554 127.36C899.809 117.479 897.888 107.323 895.692 97.4415L893.771 97.716C894.869 107.048 896.79 127.909 896.79 134.771L897.339 193.236C897.339 196.255 895.417 198.177 892.398 198.177H830.639Z" fill="white"/>
<path d="M830.639 198.177C827.62 198.177 825.699 196.255 825.699 193.236V10.9793C825.699 7.96002 827.62 6.03863 830.639 6.03863H896.241C898.986 6.03863 901.182 7.68554 901.731 10.4304L916.553 76.8553C918.749 86.7367 919.846 96.8926 922.042 106.774L923.964 106.499C923.14 97.167 921.219 76.3063 921.219 69.4442L920.67 10.9793C920.67 7.96002 922.591 6.03863 925.611 6.03863H985.448C988.467 6.03863 990.389 7.96002 990.389 10.9793V193.236C990.389 196.255 988.467 198.177 985.448 198.177H926.709C923.964 198.177 922.042 197.079 921.219 194.06L902.554 127.36C899.809 117.479 897.888 107.323 895.692 97.4415L893.771 97.716C894.869 107.048 896.79 127.909 896.79 134.771L897.339 193.236C897.339 196.255 895.417 198.177 892.398 198.177H830.639Z" fill="#000000"/>
<path d="M1090.03 202.02C1053.25 202.02 1012.35 185.002 1009.33 132.575C1009.06 129.282 1010.98 127.36 1014 127.36H1073.29C1076.85 127.36 1079.05 129.556 1079.05 132.575C1079.33 139.437 1082.07 144.653 1090.3 144.653C1095.79 144.653 1098.81 140.81 1099.09 136.418C1098.81 124.89 1085.09 124.341 1063.41 120.498C1034.04 115.283 1009.88 99.3629 1010.16 63.1311C1009.88 23.88 1043.37 0 1086.19 0C1116.11 0 1160.02 13.7242 1162.22 64.2291C1162.22 67.5229 1160.3 69.4442 1157.28 69.4442H1102.11C1098.81 69.4442 1097.17 67.5229 1096.89 64.5035C1096.62 59.5629 1095.25 53.7987 1087.29 53.7987C1082.89 53.7987 1079.87 56.5435 1079.87 60.9353C1079.87 71.0911 1093.6 71.0911 1115.01 76.3063C1144.65 83.4429 1168.53 99.9119 1168.81 136.418C1169.08 181.433 1131.75 202.02 1090.03 202.02Z" fill="white"/>
<path d="M1090.03 202.02C1053.25 202.02 1012.35 185.002 1009.33 132.575C1009.06 129.282 1010.98 127.36 1014 127.36H1073.29C1076.85 127.36 1079.05 129.556 1079.05 132.575C1079.33 139.437 1082.07 144.653 1090.3 144.653C1095.79 144.653 1098.81 140.81 1099.09 136.418C1098.81 124.89 1085.09 124.341 1063.41 120.498C1034.04 115.283 1009.88 99.3629 1010.16 63.1311C1009.88 23.88 1043.37 0 1086.19 0C1116.11 0 1160.02 13.7242 1162.22 64.2291C1162.22 67.5229 1160.3 69.4442 1157.28 69.4442H1102.11C1098.81 69.4442 1097.17 67.5229 1096.89 64.5035C1096.62 59.5629 1095.25 53.7987 1087.29 53.7987C1082.89 53.7987 1079.87 56.5435 1079.87 60.9353C1079.87 71.0911 1093.6 71.0911 1115.01 76.3063C1144.65 83.4429 1168.53 99.9119 1168.81 136.418C1169.08 181.433 1131.75 202.02 1090.03 202.02Z" fill="#000000"/>
<path d="M1179.14 198.177C1175.85 198.177 1173.93 196.255 1174.75 192.687L1221.96 10.1559C1222.79 7.13657 1224.43 6.03863 1227.45 6.03863H1314.19C1317.21 6.03863 1318.85 7.13657 1319.68 10.1559L1366.61 192.687C1367.44 196.255 1365.52 198.177 1362.22 198.177H1295.52C1292.5 198.177 1290.86 196.53 1290.31 193.785L1284.54 166.886H1256.55L1250.78 193.785C1250.23 196.53 1248.59 198.177 1245.57 198.177H1179.14ZM1261.21 121.596H1279.88L1273.29 84.2663L1271.92 73.0125H1269.17L1267.8 84.2663L1261.21 121.596Z" fill="white"/>
<path d="M1179.14 198.177C1175.85 198.177 1173.93 196.255 1174.75 192.687L1221.96 10.1559C1222.79 7.13657 1224.43 6.03863 1227.45 6.03863H1314.19C1317.21 6.03863 1318.85 7.13657 1319.68 10.1559L1366.61 192.687C1367.44 196.255 1365.52 198.177 1362.22 198.177H1295.52C1292.5 198.177 1290.86 196.53 1290.31 193.785L1284.54 166.886H1256.55L1250.78 193.785C1250.23 196.53 1248.59 198.177 1245.57 198.177H1179.14ZM1261.21 121.596H1279.88L1273.29 84.2663L1271.92 73.0125H1269.17L1267.8 84.2663L1261.21 121.596Z" fill="#000000"/>
<path d="M1588.11 148.922C1588.11 155.857 1586.99 162.587 1584.74 169.113C1582.7 175.436 1579.13 181.045 1574.03 185.94C1569.14 190.631 1562.51 194.404 1554.15 197.259C1545.99 200.114 1535.89 201.542 1523.86 201.542C1512.64 201.542 1502.75 200.726 1494.19 199.095C1485.62 197.463 1478.38 194.506 1472.47 190.223C1466.75 185.736 1462.17 179.617 1458.7 171.867C1455.44 163.913 1453.29 153.919 1452.27 141.886H1438.81V198.177H1381.6V126.589H1458.09C1460.13 132.504 1463.39 136.889 1467.88 139.744C1472.57 142.396 1478.89 143.721 1486.84 143.721C1495.21 143.721 1501.43 142.396 1505.51 139.744C1509.79 137.093 1511.93 132.708 1511.93 126.589C1511.93 121.49 1510.2 117.615 1506.73 114.964C1503.26 112.312 1496.23 110.987 1485.62 110.987C1478.48 110.987 1471.04 111.089 1463.29 111.293C1455.54 111.497 1447.58 111.599 1439.42 111.599C1428.41 111.599 1419.23 110.171 1411.89 107.316C1404.55 104.256 1398.63 100.279 1394.15 95.3843C1389.86 90.4895 1386.8 84.6768 1384.97 77.9463C1383.34 71.2159 1382.52 64.1795 1382.52 56.8372C1382.52 49.2909 1383.64 42.2545 1385.89 35.728C1388.13 28.9975 1391.7 23.1849 1396.59 18.29C1401.49 13.3951 1407.81 9.51999 1415.56 6.66464C1423.52 3.8093 1432.9 2.38162 1443.71 2.38162C1453.7 2.38162 1462.47 3.40139 1470.02 5.44092C1477.77 7.2765 1484.29 10.6417 1489.6 15.5366C1495.1 20.2276 1499.59 26.6521 1503.06 34.8102C1506.53 42.9683 1508.97 53.166 1510.4 65.4032H1523.25V5.44092H1581.38V80.6997H1504.89C1502.65 72.3376 1499.18 67.0348 1494.49 64.7914C1489.8 62.3439 1483.17 61.1202 1474.61 61.1202C1465.63 61.1202 1459.62 62.7518 1456.56 66.0151C1453.5 69.0744 1451.97 73.0515 1451.97 77.9463C1451.97 82.6373 1454.11 86.3084 1458.39 88.9598C1462.68 91.6112 1470.43 92.9369 1481.64 92.9369C1482.66 92.9369 1484.91 92.9369 1488.37 92.9369C1492.04 92.733 1496.12 92.631 1500.61 92.631C1505.3 92.427 1510.09 92.3251 1514.99 92.3251C1519.88 92.1211 1524.07 92.0191 1527.53 92.0191C1540.18 92.0191 1550.48 93.4468 1558.43 96.3021C1566.39 98.9535 1572.5 102.829 1576.79 107.927C1581.27 112.822 1584.23 118.839 1585.66 125.977C1587.29 132.912 1588.11 140.56 1588.11 148.922Z" fill="white"/>
<path d="M1588.11 148.922C1588.11 155.857 1586.99 162.587 1584.74 169.113C1582.7 175.436 1579.13 181.045 1574.03 185.94C1569.14 190.631 1562.51 194.404 1554.15 197.259C1545.99 200.114 1535.89 201.542 1523.86 201.542C1512.64 201.542 1502.75 200.726 1494.19 199.095C1485.62 197.463 1478.38 194.506 1472.47 190.223C1466.75 185.736 1462.17 179.617 1458.7 171.867C1455.44 163.913 1453.29 153.919 1452.27 141.886H1438.81V198.177H1381.6V126.589H1458.09C1460.13 132.504 1463.39 136.889 1467.88 139.744C1472.57 142.396 1478.89 143.721 1486.84 143.721C1495.21 143.721 1501.43 142.396 1505.51 139.744C1509.79 137.093 1511.93 132.708 1511.93 126.589C1511.93 121.49 1510.2 117.615 1506.73 114.964C1503.26 112.312 1496.23 110.987 1485.62 110.987C1478.48 110.987 1471.04 111.089 1463.29 111.293C1455.54 111.497 1447.58 111.599 1439.42 111.599C1428.41 111.599 1419.23 110.171 1411.89 107.316C1404.55 104.256 1398.63 100.279 1394.15 95.3843C1389.86 90.4895 1386.8 84.6768 1384.97 77.9463C1383.34 71.2159 1382.52 64.1795 1382.52 56.8372C1382.52 49.2909 1383.64 42.2545 1385.89 35.728C1388.13 28.9975 1391.7 23.1849 1396.59 18.29C1401.49 13.3951 1407.81 9.51999 1415.56 6.66464C1423.52 3.8093 1432.9 2.38162 1443.71 2.38162C1453.7 2.38162 1462.47 3.40139 1470.02 5.44092C1477.77 7.2765 1484.29 10.6417 1489.6 15.5366C1495.1 20.2276 1499.59 26.6521 1503.06 34.8102C1506.53 42.9683 1508.97 53.166 1510.4 65.4032H1523.25V5.44092H1581.38V80.6997H1504.89C1502.65 72.3376 1499.18 67.0348 1494.49 64.7914C1489.8 62.3439 1483.17 61.1202 1474.61 61.1202C1465.63 61.1202 1459.62 62.7518 1456.56 66.0151C1453.5 69.0744 1451.97 73.0515 1451.97 77.9463C1451.97 82.6373 1454.11 86.3084 1458.39 88.9598C1462.68 91.6112 1470.43 92.9369 1481.64 92.9369C1482.66 92.9369 1484.91 92.9369 1488.37 92.9369C1492.04 92.733 1496.12 92.631 1500.61 92.631C1505.3 92.427 1510.09 92.3251 1514.99 92.3251C1519.88 92.1211 1524.07 92.0191 1527.53 92.0191C1540.18 92.0191 1550.48 93.4468 1558.43 96.3021C1566.39 98.9535 1572.5 102.829 1576.79 107.927C1581.27 112.822 1584.23 118.839 1585.66 125.977C1587.29 132.912 1588.11 140.56 1588.11 148.922Z" fill="#000000"/>
</svg>
