<svg width="1784" height="202" viewBox="0 0 1784 202" fill="none" xmlns="http://www.w3.org/2000/svg">
<path d="M99.3629 201.471C41.9959 201.471 0 157.279 0 101.01C0 44.7408 41.7214 0.548976 99.3629 0.548976C153.985 0.548976 191.864 34.0359 197.353 86.4622C197.902 89.756 195.981 91.6774 192.687 91.6774H130.105C127.36 91.6774 125.439 90.305 124.341 87.5601C121.322 80.9725 115.008 74.6594 103.48 74.6594C88.9325 74.6594 79.0511 86.7367 79.0511 101.01C79.0511 115.832 88.9325 127.36 103.48 127.36C115.008 127.36 121.322 120.773 124.341 114.185C125.439 111.44 127.36 110.068 130.105 110.068H192.138C195.432 110.068 197.353 111.715 197.079 115.008C192.962 167.435 154.26 201.471 99.3629 201.471Z" fill="white"/>
<path d="M99.3629 201.471C41.9959 201.471 0 157.279 0 101.01C0 44.7408 41.7214 0.548976 99.3629 0.548976C153.985 0.548976 191.864 34.0359 197.353 86.4622C197.902 89.756 195.981 91.6774 192.687 91.6774H130.105C127.36 91.6774 125.439 90.305 124.341 87.5601C121.322 80.9725 115.008 74.6594 103.48 74.6594C88.9325 74.6594 79.0511 86.7367 79.0511 101.01C79.0511 115.832 88.9325 127.36 103.48 127.36C115.008 127.36 121.322 120.773 124.341 114.185C125.439 111.44 127.36 110.068 130.105 110.068H192.138C195.432 110.068 197.353 111.715 197.079 115.008C192.962 167.435 154.26 201.471 99.3629 201.471Z" fill="#000000"/>
<path d="M299.721 141.4V197.079H211.001V138.34C214.06 137.525 217.629 135.689 221.709 132.834C225.788 129.774 229.867 126.205 233.946 122.126C238.025 117.843 241.9 112.948 245.571 107.441C249.446 101.935 252.709 96.224 255.361 90.3093C256.585 87.454 257.502 84.7006 258.114 82.0492C258.93 79.3978 259.338 76.2365 259.338 72.5654C259.338 69.914 258.42 67.4665 256.585 65.2231C254.953 62.9796 252.098 61.8578 248.019 61.8578H234.252V4.34299H374.368V47.1732C374.368 55.9432 376.407 64.7132 380.486 73.4832C384.565 82.2532 388.236 89.2896 391.5 94.5923L404.043 115.09C408.734 122.84 412.507 128.449 415.362 131.916C418.422 135.383 421.175 137.525 423.622 138.34V197.079H321.136V141.4C326.235 141.4 329.906 140.38 332.149 138.34C334.393 136.301 335.514 133.751 335.514 130.692C335.514 128.653 335.107 126.715 334.291 124.879C333.679 123.044 332.965 121.412 332.149 119.985L329.396 115.702H268.822C269.842 121.412 272.799 126.715 277.694 131.61C282.589 136.505 289.931 139.768 299.721 141.4ZM275.246 87.556C273.819 89.5955 272.595 91.839 271.575 94.2864C270.759 96.5299 270.045 98.6714 269.434 100.711H320.524L294.214 57.5748L275.246 87.556Z" fill="white"/>
<path d="M299.721 141.4V197.079H211.001V138.34C214.06 137.525 217.629 135.689 221.709 132.834C225.788 129.774 229.867 126.205 233.946 122.126C238.025 117.843 241.9 112.948 245.571 107.441C249.446 101.935 252.709 96.224 255.361 90.3093C256.585 87.454 257.502 84.7006 258.114 82.0492C258.93 79.3978 259.338 76.2365 259.338 72.5654C259.338 69.914 258.42 67.4665 256.585 65.2231C254.953 62.9796 252.098 61.8578 248.019 61.8578H234.252V4.34299H374.368V47.1732C374.368 55.9432 376.407 64.7132 380.486 73.4832C384.565 82.2532 388.236 89.2896 391.5 94.5923L404.043 115.09C408.734 122.84 412.507 128.449 415.362 131.916C418.422 135.383 421.175 137.525 423.622 138.34V197.079H321.136V141.4C326.235 141.4 329.906 140.38 332.149 138.34C334.393 136.301 335.514 133.751 335.514 130.692C335.514 128.653 335.107 126.715 334.291 124.879C333.679 123.044 332.965 121.412 332.149 119.985L329.396 115.702H268.822C269.842 121.412 272.799 126.715 277.694 131.61C282.589 136.505 289.931 139.768 299.721 141.4ZM275.246 87.556C273.819 89.5955 272.595 91.839 271.575 94.2864C270.759 96.5299 270.045 98.6714 269.434 100.711H320.524L294.214 57.5748L275.246 87.556Z" fill="#000000"/>
<path d="M447.917 197.079C444.898 197.079 442.977 195.158 442.977 192.138V9.8814C442.977 6.86209 444.898 4.9407 447.917 4.9407H510.5C513.519 4.9407 515.44 6.86209 515.44 9.8814V131.203H569.513C572.533 131.203 574.454 133.124 574.454 136.144V192.138C574.454 195.158 572.533 197.079 569.513 197.079H447.917Z" fill="white"/>
<path d="M447.917 197.079C444.898 197.079 442.977 195.158 442.977 192.138V9.8814C442.977 6.86209 444.898 4.9407 447.917 4.9407H510.5C513.519 4.9407 515.44 6.86209 515.44 9.8814V131.203H569.513C572.533 131.203 574.454 133.124 574.454 136.144V192.138C574.454 195.158 572.533 197.079 569.513 197.079H447.917Z" fill="#000000"/>
<path d="M601.371 197.079C598.351 197.079 596.43 195.158 596.43 192.138V9.8814C596.43 6.86209 598.351 4.9407 601.371 4.9407H663.953C666.972 4.9407 668.893 6.86209 668.893 9.8814V192.138C668.893 195.158 666.972 197.079 663.953 197.079H601.371Z" fill="white"/>
<path d="M601.371 197.079C598.351 197.079 596.43 195.158 596.43 192.138V9.8814C596.43 6.86209 598.351 4.9407 601.371 4.9407H663.953C666.972 4.9407 668.893 6.86209 668.893 9.8814V192.138C668.893 195.158 666.972 197.079 663.953 197.079H601.371Z" fill="#000000"/>
<path d="M687.134 197.079V196.467C689.173 193.612 690.805 190.858 692.029 188.207C693.252 185.352 694.17 181.884 694.782 177.805C695.598 173.522 696.006 167.812 696.006 160.673C696.414 153.127 696.618 144.357 696.618 134.363C696.618 124.37 696.618 114.07 696.618 103.464C696.618 92.6548 696.618 81.8453 696.618 71.0357C696.618 60.2262 696.414 50.2325 696.006 41.0546C695.802 30.2451 694.884 22.1889 693.252 16.8861C691.825 11.5833 689.785 7.60625 687.134 4.95486V4.34299H824.496C824.496 7.4023 824.394 11.3794 824.19 16.2743C824.19 21.1691 824.19 26.7779 824.19 33.1004C824.19 39.219 824.292 45.4396 824.496 51.7621C824.7 57.8807 824.904 64.7132 825.108 72.2595H824.496C821.845 64.5092 819.499 58.6966 817.46 54.8214C815.42 50.9463 812.463 48.3969 808.588 47.1732C804.713 45.7455 798.288 45.0317 789.314 45.0317C779.525 45.0317 770.653 45.1337 762.698 45.3376C754.948 45.3376 747.198 45.5416 739.448 45.9495C739.244 59.0025 739.142 73.4832 739.142 89.3915C739.142 105.096 738.734 122.432 737.918 141.4H738.53C740.162 117.129 744.648 99.5892 751.991 88.7797C759.537 77.7662 770.551 72.2595 785.031 72.2595C798.492 72.2595 807.976 76.1346 813.483 83.8848C819.193 91.4311 822.049 101.527 822.049 114.172C822.049 127.021 818.48 137.83 811.341 146.6C804.407 155.166 794.821 159.45 782.584 159.45C774.834 159.45 768.817 157.308 764.534 153.025C760.251 148.742 758.109 143.949 758.109 138.646C758.109 132.732 759.741 127.939 763.004 124.268C766.472 120.392 771.366 118.455 777.689 118.455C783.4 118.455 788.295 120.188 792.374 123.656C796.453 127.123 798.492 131.814 798.492 137.728C798.492 140.788 797.676 144.561 796.045 149.048C794.413 153.535 791.252 156.594 786.561 158.226C792.68 157.002 796.861 153.943 799.104 149.048C801.552 143.949 802.775 138.85 802.775 133.751C802.775 124.777 800.43 118.353 795.739 114.478C791.048 110.603 784.725 108.665 776.771 108.665C766.777 108.665 758.313 111.418 751.379 116.925C744.649 122.228 740.875 130.998 740.06 143.235V160.673C740.06 167.812 741.385 173.624 744.037 178.111C746.892 182.394 751.583 185.963 758.109 188.819C764.636 191.674 773.508 194.224 784.725 196.467V197.079H687.134Z" fill="white"/>
<path d="M687.134 197.079V196.467C689.173 193.612 690.805 190.858 692.029 188.207C693.252 185.352 694.17 181.884 694.782 177.805C695.598 173.522 696.006 167.812 696.006 160.673C696.414 153.127 696.618 144.357 696.618 134.363C696.618 124.37 696.618 114.07 696.618 103.464C696.618 92.6548 696.618 81.8453 696.618 71.0357C696.618 60.2262 696.414 50.2325 696.006 41.0546C695.802 30.2451 694.884 22.1889 693.252 16.8861C691.825 11.5833 689.785 7.60625 687.134 4.95486V4.34299H824.496C824.496 7.4023 824.394 11.3794 824.19 16.2743C824.19 21.1691 824.19 26.7779 824.19 33.1004C824.19 39.219 824.292 45.4396 824.496 51.7621C824.7 57.8807 824.904 64.7132 825.108 72.2595H824.496C821.845 64.5092 819.499 58.6966 817.46 54.8214C815.42 50.9463 812.463 48.3969 808.588 47.1732C804.713 45.7455 798.288 45.0317 789.314 45.0317C779.525 45.0317 770.653 45.1337 762.698 45.3376C754.948 45.3376 747.198 45.5416 739.448 45.9495C739.244 59.0025 739.142 73.4832 739.142 89.3915C739.142 105.096 738.734 122.432 737.918 141.4H738.53C740.162 117.129 744.648 99.5892 751.991 88.7797C759.537 77.7662 770.551 72.2595 785.031 72.2595C798.492 72.2595 807.976 76.1346 813.483 83.8848C819.193 91.4311 822.049 101.527 822.049 114.172C822.049 127.021 818.48 137.83 811.341 146.6C804.407 155.166 794.821 159.45 782.584 159.45C774.834 159.45 768.817 157.308 764.534 153.025C760.251 148.742 758.109 143.949 758.109 138.646C758.109 132.732 759.741 127.939 763.004 124.268C766.472 120.392 771.366 118.455 777.689 118.455C783.4 118.455 788.295 120.188 792.374 123.656C796.453 127.123 798.492 131.814 798.492 137.728C798.492 140.788 797.676 144.561 796.045 149.048C794.413 153.535 791.252 156.594 786.561 158.226C792.68 157.002 796.861 153.943 799.104 149.048C801.552 143.949 802.775 138.85 802.775 133.751C802.775 124.777 800.43 118.353 795.739 114.478C791.048 110.603 784.725 108.665 776.771 108.665C766.777 108.665 758.313 111.418 751.379 116.925C744.649 122.228 740.875 130.998 740.06 143.235V160.673C740.06 167.812 741.385 173.624 744.037 178.111C746.892 182.394 751.583 185.963 758.109 188.819C764.636 191.674 773.508 194.224 784.725 196.467V197.079H687.134Z" fill="#000000"/>
<path d="M944.193 201.745C883.532 201.745 840.164 155.632 840.164 100.735C840.164 45.8387 883.532 0 944.193 0C1004.58 0 1048.22 45.8387 1048.22 100.735C1048.22 155.632 1004.58 201.745 944.193 201.745ZM944.193 127.086C960.113 127.086 971.915 115.008 971.915 100.735C971.915 86.4622 960.113 74.3849 944.193 74.3849C928.273 74.3849 916.47 86.4622 916.47 100.735C916.47 115.008 928.273 127.086 944.193 127.086Z" fill="white"/>
<path d="M944.193 201.745C883.532 201.745 840.164 155.632 840.164 100.735C840.164 45.8387 883.532 0 944.193 0C1004.58 0 1048.22 45.8387 1048.22 100.735C1048.22 155.632 1004.58 201.745 944.193 201.745ZM944.193 127.086C960.113 127.086 971.915 115.008 971.915 100.735C971.915 86.4622 960.113 74.3849 944.193 74.3849C928.273 74.3849 916.47 86.4622 916.47 100.735C916.47 115.008 928.273 127.086 944.193 127.086Z" fill="#000000"/>
<path d="M1073.75 197.079C1070.73 197.079 1068.81 195.158 1068.81 192.138V9.8814C1068.81 6.86209 1070.73 4.9407 1073.75 4.9407H1167.35C1209.07 4.9407 1235.14 32.389 1235.14 66.9739C1235.14 88.9325 1227.18 104.578 1210.99 116.381L1245.02 191.315C1246.67 194.609 1245.02 197.079 1241.46 197.079H1176.4C1173.66 197.079 1172.01 195.706 1170.91 193.236L1158.56 160.298L1147.86 132.575H1140.45C1140.99 141.359 1141.27 150.142 1141.27 158.651V192.138C1141.27 195.158 1139.35 197.079 1136.33 197.079H1073.75ZM1154.44 85.9132C1161.58 85.9132 1165.97 82.0705 1165.97 73.836C1165.97 65.327 1161.58 62.0332 1154.44 62.0332H1139.07V85.9132H1154.44Z" fill="white"/>
<path d="M1073.75 197.079C1070.73 197.079 1068.81 195.158 1068.81 192.138V9.8814C1068.81 6.86209 1070.73 4.9407 1073.75 4.9407H1167.35C1209.07 4.9407 1235.14 32.389 1235.14 66.9739C1235.14 88.9325 1227.18 104.578 1210.99 116.381L1245.02 191.315C1246.67 194.609 1245.02 197.079 1241.46 197.079H1176.4C1173.66 197.079 1172.01 195.706 1170.91 193.236L1158.56 160.298L1147.86 132.575H1140.45C1140.99 141.359 1141.27 150.142 1141.27 158.651V192.138C1141.27 195.158 1139.35 197.079 1136.33 197.079H1073.75ZM1154.44 85.9132C1161.58 85.9132 1165.97 82.0705 1165.97 73.836C1165.97 65.327 1161.58 62.0332 1154.44 62.0332H1139.07V85.9132H1154.44Z" fill="#000000"/>
<path d="M1338.72 138.34V197.079H1261.62V138.34C1268.56 137.525 1273.56 133.242 1276.62 125.491C1279.67 117.741 1281.2 107.237 1281.2 93.9805V80.5196C1281.2 72.1575 1280.39 67.1606 1278.76 65.529C1277.33 63.6934 1271.62 62.7756 1261.62 62.7756V4.34299H1378.49V49.9266C1378.49 59.5124 1379.51 67.3646 1381.55 73.4832C1383.59 79.6018 1389.61 87.0461 1399.6 95.8161L1443.35 133.445V131.304C1443.35 123.35 1442.74 115.6 1441.51 108.053C1440.49 100.303 1438.55 93.3686 1435.7 87.25C1432.84 80.9275 1428.87 75.6247 1423.77 71.3417C1418.67 66.8547 1412.24 63.9993 1404.49 62.7756V4.34299H1481.59V62.4697C1474.65 64.3053 1469.56 67.9764 1466.29 73.4832C1463.23 78.9899 1461.7 88.8817 1461.7 103.158V197.079H1364.42V144.153C1364.42 134.567 1362.58 127.021 1358.91 121.514C1355.44 116.007 1349.63 109.787 1341.47 102.852L1299.56 67.0586C1299.56 74.197 1299.97 81.4374 1300.78 88.7797C1301.6 95.918 1303.33 102.75 1305.98 109.277C1308.84 115.6 1312.82 121.31 1317.92 126.409C1323.02 131.508 1329.95 135.485 1338.72 138.34Z" fill="white"/>
<path d="M1338.72 138.34V197.079H1261.62V138.34C1268.56 137.525 1273.56 133.242 1276.62 125.491C1279.67 117.741 1281.2 107.237 1281.2 93.9805V80.5196C1281.2 72.1575 1280.39 67.1606 1278.76 65.529C1277.33 63.6934 1271.62 62.7756 1261.62 62.7756V4.34299H1378.49V49.9266C1378.49 59.5124 1379.51 67.3646 1381.55 73.4832C1383.59 79.6018 1389.61 87.0461 1399.6 95.8161L1443.35 133.445V131.304C1443.35 123.35 1442.74 115.6 1441.51 108.053C1440.49 100.303 1438.55 93.3686 1435.7 87.25C1432.84 80.9275 1428.87 75.6247 1423.77 71.3417C1418.67 66.8547 1412.24 63.9993 1404.49 62.7756V4.34299H1481.59V62.4697C1474.65 64.3053 1469.56 67.9764 1466.29 73.4832C1463.23 78.9899 1461.7 88.8817 1461.7 103.158V197.079H1364.42V144.153C1364.42 134.567 1362.58 127.021 1358.91 121.514C1355.44 116.007 1349.63 109.787 1341.47 102.852L1299.56 67.0586C1299.56 74.197 1299.97 81.4374 1300.78 88.7797C1301.6 95.918 1303.33 102.75 1305.98 109.277C1308.84 115.6 1312.82 121.31 1317.92 126.409C1323.02 131.508 1329.95 135.485 1338.72 138.34Z" fill="#000000"/>
<path d="M1509.11 197.079C1506.09 197.079 1504.17 195.158 1504.17 192.138V9.8814C1504.17 6.86209 1506.09 4.9407 1509.11 4.9407H1571.69C1574.71 4.9407 1576.63 6.86209 1576.63 9.8814V192.138C1576.63 195.158 1574.71 197.079 1571.69 197.079H1509.11Z" fill="white"/>
<path d="M1509.11 197.079C1506.09 197.079 1504.17 195.158 1504.17 192.138V9.8814C1504.17 6.86209 1506.09 4.9407 1509.11 4.9407H1571.69C1574.71 4.9407 1576.63 6.86209 1576.63 9.8814V192.138C1576.63 195.158 1574.71 197.079 1571.69 197.079H1509.11Z" fill="#000000"/>
<path d="M1595.87 197.079C1592.57 197.079 1590.65 195.158 1591.48 191.589L1638.69 9.05794C1639.51 6.03863 1641.16 4.9407 1644.18 4.9407H1730.91C1733.93 4.9407 1735.58 6.03863 1736.4 9.05794L1783.34 191.589C1784.16 195.158 1782.24 197.079 1778.95 197.079H1712.25C1709.23 197.079 1707.58 195.432 1707.03 192.687L1701.27 165.788H1673.27L1667.51 192.687C1666.96 195.432 1665.31 197.079 1662.29 197.079H1595.87ZM1677.94 120.498H1696.6L1690.02 83.1684L1688.64 71.9146H1685.9L1684.53 83.1684L1677.94 120.498Z" fill="white"/>
<path d="M1595.87 197.079C1592.57 197.079 1590.65 195.158 1591.48 191.589L1638.69 9.05794C1639.51 6.03863 1641.16 4.9407 1644.18 4.9407H1730.91C1733.93 4.9407 1735.58 6.03863 1736.4 9.05794L1783.34 191.589C1784.16 195.158 1782.24 197.079 1778.95 197.079H1712.25C1709.23 197.079 1707.58 195.432 1707.03 192.687L1701.27 165.788H1673.27L1667.51 192.687C1666.96 195.432 1665.31 197.079 1662.29 197.079H1595.87ZM1677.94 120.498H1696.6L1690.02 83.1684L1688.64 71.9146H1685.9L1684.53 83.1684L1677.94 120.498Z" fill="#000000"/>
</svg>
