<svg width="1643" height="202" viewBox="0 0 1643 202" fill="none" xmlns="http://www.w3.org/2000/svg">
<path d="M99.3629 201.471C41.9959 201.471 0 157.279 0 101.01C0 44.7408 41.7214 0.548976 99.3629 0.548976C153.985 0.548976 191.864 34.0359 197.353 86.4622C197.902 89.756 195.981 91.6774 192.687 91.6774H130.105C127.36 91.6774 125.439 90.305 124.341 87.5601C121.322 80.9725 115.008 74.6594 103.48 74.6594C88.9325 74.6594 79.0511 86.7367 79.0511 101.01C79.0511 115.832 88.9325 127.36 103.48 127.36C115.008 127.36 121.322 120.773 124.341 114.185C125.439 111.44 127.36 110.068 130.105 110.068H192.138C195.432 110.068 197.353 111.715 197.079 115.008C192.962 167.435 154.26 201.471 99.3629 201.471Z" fill="white"/>
<path d="M99.3629 201.471C41.9959 201.471 0 157.279 0 101.01C0 44.7408 41.7214 0.548976 99.3629 0.548976C153.985 0.548976 191.864 34.0359 197.353 86.4622C197.902 89.756 195.981 91.6774 192.687 91.6774H130.105C127.36 91.6774 125.439 90.305 124.341 87.5601C121.322 80.9725 115.008 74.6594 103.48 74.6594C88.9325 74.6594 79.0511 86.7367 79.0511 101.01C79.0511 115.832 88.9325 127.36 103.48 127.36C115.008 127.36 121.322 120.773 124.341 114.185C125.439 111.44 127.36 110.068 130.105 110.068H192.138C195.432 110.068 197.353 111.715 197.079 115.008C192.962 167.435 154.26 201.471 99.3629 201.471Z" fill="#000000"/>
<path d="M316.721 201.745C256.061 201.745 212.692 155.632 212.692 100.735C212.692 45.8387 256.061 0 316.721 0C377.108 0 420.75 45.8387 420.75 100.735C420.75 155.632 377.108 201.745 316.721 201.745ZM316.721 127.086C332.641 127.086 344.444 115.008 344.444 100.735C344.444 86.4622 332.641 74.3849 316.721 74.3849C300.801 74.3849 288.999 86.4622 288.999 100.735C288.999 115.008 300.801 127.086 316.721 127.086Z" fill="white"/>
<path d="M316.721 201.745C256.061 201.745 212.692 155.632 212.692 100.735C212.692 45.8387 256.061 0 316.721 0C377.108 0 420.75 45.8387 420.75 100.735C420.75 155.632 377.108 201.745 316.721 201.745ZM316.721 127.086C332.641 127.086 344.444 115.008 344.444 100.735C344.444 86.4622 332.641 74.3849 316.721 74.3849C300.801 74.3849 288.999 86.4622 288.999 100.735C288.999 115.008 300.801 127.086 316.721 127.086Z" fill="#000000"/>
<path d="M563.288 4.34299V62.7756C532.695 62.7756 529.023 63.6934 529.023 80.8255V138.34H540.649C587.456 138.34 595.104 134.669 595.104 102.852V95.5101H611.013V197.079H441.833V138.34C464.166 138.34 464.472 137.423 464.472 120.29V80.8255C464.472 63.6934 464.166 62.7756 441.833 62.7756V4.34299H563.288Z" fill="white"/>
<path d="M563.288 4.34299V62.7756C532.695 62.7756 529.023 63.6934 529.023 80.8255V138.34H540.649C587.456 138.34 595.104 134.669 595.104 102.852V95.5101H611.013V197.079H441.833V138.34C464.166 138.34 464.472 137.423 464.472 120.29V80.8255C464.472 63.6934 464.166 62.7756 441.833 62.7756V4.34299H563.288Z" fill="#000000"/>
<path d="M734.244 201.745C673.583 201.745 630.215 155.632 630.215 100.735C630.215 45.8387 673.583 0 734.244 0C794.63 0 838.273 45.8387 838.273 100.735C838.273 155.632 794.63 201.745 734.244 201.745ZM734.244 127.086C750.164 127.086 761.967 115.008 761.967 100.735C761.967 86.4622 750.164 74.3849 734.244 74.3849C718.324 74.3849 706.521 86.4622 706.521 100.735C706.521 115.008 718.324 127.086 734.244 127.086Z" fill="white"/>
<path d="M734.244 201.745C673.583 201.745 630.215 155.632 630.215 100.735C630.215 45.8387 673.583 0 734.244 0C794.63 0 838.273 45.8387 838.273 100.735C838.273 155.632 794.63 201.745 734.244 201.745ZM734.244 127.086C750.164 127.086 761.967 115.008 761.967 100.735C761.967 86.4622 750.164 74.3849 734.244 74.3849C718.324 74.3849 706.521 86.4622 706.521 100.735C706.521 115.008 718.324 127.086 734.244 127.086Z" fill="#000000"/>
<path d="M863.798 197.079C860.778 197.079 858.857 195.158 858.857 192.138V9.8814C858.857 6.86209 860.778 4.9407 863.798 4.9407H957.396C999.118 4.9407 1025.19 32.389 1025.19 66.9739C1025.19 88.9325 1017.23 104.578 1001.04 116.381L1035.08 191.315C1036.72 194.609 1035.08 197.079 1031.51 197.079H966.454C963.71 197.079 962.063 195.706 960.965 193.236L948.613 160.298L937.908 132.575H930.497C931.046 141.359 931.321 150.142 931.321 158.651V192.138C931.321 195.158 929.399 197.079 926.38 197.079H863.798ZM944.496 85.9132C951.632 85.9132 956.024 82.0705 956.024 73.836C956.024 65.327 951.632 62.0332 944.496 62.0332H929.125V85.9132H944.496Z" fill="white"/>
<path d="M863.798 197.079C860.778 197.079 858.857 195.158 858.857 192.138V9.8814C858.857 6.86209 860.778 4.9407 863.798 4.9407H957.396C999.118 4.9407 1025.19 32.389 1025.19 66.9739C1025.19 88.9325 1017.23 104.578 1001.04 116.381L1035.08 191.315C1036.72 194.609 1035.08 197.079 1031.51 197.079H966.454C963.71 197.079 962.063 195.706 960.965 193.236L948.613 160.298L937.908 132.575H930.497C931.046 141.359 931.321 150.142 931.321 158.651V192.138C931.321 195.158 929.399 197.079 926.38 197.079H863.798ZM944.496 85.9132C951.632 85.9132 956.024 82.0705 956.024 73.836C956.024 65.327 951.632 62.0332 944.496 62.0332H929.125V85.9132H944.496Z" fill="#000000"/>
<path d="M1041.27 197.079V196.467C1050.76 183.924 1061.47 151.801 1071.87 117.231C1055.65 111.419 1044.64 104.688 1044.64 90.9212C1044.64 82.6611 1049.53 75.3187 1059.94 75.3187C1068.5 75.3187 1075.23 81.4374 1075.23 90.6153C1075.23 100.099 1070.34 106.218 1059.94 106.218C1055.65 106.218 1051.68 104.688 1049.23 102.547C1054.12 108.053 1063.61 109.889 1074.01 110.195C1081.05 85.4145 1088.08 60.0223 1093.89 39.5249C1096.34 31.5708 1097.87 25.1462 1097.87 19.9454C1097.87 11.9912 1094.2 7.4023 1085.33 4.95486V4.34299H1186.9V4.95486C1180.47 6.4845 1176.5 12.2972 1176.5 23.6166C1176.5 30.0411 1177.72 37.9953 1180.17 48.091C1189.34 84.8026 1200.05 121.208 1212.29 157.308C1218.41 175.664 1223.61 188.513 1230.34 196.467V197.079H1148.66V196.467C1160.59 193.408 1165.18 186.983 1165.18 176.582C1165.18 171.993 1164.26 166.792 1162.73 160.367C1160.28 149.354 1135.5 139.564 1108.58 130.386C1106.13 139.87 1103.68 149.966 1100.93 160.367C1099.71 166.486 1098.79 171.687 1098.79 176.276C1098.79 186.983 1103.07 193.102 1115 196.467V197.079H1041.27ZM1114.39 109.277C1132.75 110.807 1150.49 120.596 1163.65 157.002H1164.26C1154.16 117.231 1145.6 78.0721 1135.81 44.7258H1134.58C1128.16 63.3875 1121.43 84.8026 1114.39 109.277Z" fill="white"/>
<path d="M1041.27 197.079V196.467C1050.76 183.924 1061.47 151.801 1071.87 117.231C1055.65 111.419 1044.64 104.688 1044.64 90.9212C1044.64 82.6611 1049.53 75.3187 1059.94 75.3187C1068.5 75.3187 1075.23 81.4374 1075.23 90.6153C1075.23 100.099 1070.34 106.218 1059.94 106.218C1055.65 106.218 1051.68 104.688 1049.23 102.547C1054.12 108.053 1063.61 109.889 1074.01 110.195C1081.05 85.4145 1088.08 60.0223 1093.89 39.5249C1096.34 31.5708 1097.87 25.1462 1097.87 19.9454C1097.87 11.9912 1094.2 7.4023 1085.33 4.95486V4.34299H1186.9V4.95486C1180.47 6.4845 1176.5 12.2972 1176.5 23.6166C1176.5 30.0411 1177.72 37.9953 1180.17 48.091C1189.34 84.8026 1200.05 121.208 1212.29 157.308C1218.41 175.664 1223.61 188.513 1230.34 196.467V197.079H1148.66V196.467C1160.59 193.408 1165.18 186.983 1165.18 176.582C1165.18 171.993 1164.26 166.792 1162.73 160.367C1160.28 149.354 1135.5 139.564 1108.58 130.386C1106.13 139.87 1103.68 149.966 1100.93 160.367C1099.71 166.486 1098.79 171.687 1098.79 176.276C1098.79 186.983 1103.07 193.102 1115 196.467V197.079H1041.27ZM1114.39 109.277C1132.75 110.807 1150.49 120.596 1163.65 157.002H1164.26C1154.16 117.231 1145.6 78.0721 1135.81 44.7258H1134.58C1128.16 63.3875 1121.43 84.8026 1114.39 109.277Z" fill="#000000"/>
<path d="M1244.19 197.079C1241.17 197.079 1239.25 195.158 1239.25 192.138V9.8814C1239.25 6.86209 1241.17 4.9407 1244.19 4.9407H1327.36C1373.2 4.9407 1416.84 43.3684 1416.84 99.9119C1416.84 156.181 1373.2 197.079 1327.36 197.079H1244.19ZM1322.14 128.733C1335.87 128.733 1346.57 117.204 1346.57 99.9119C1346.57 82.3449 1335.87 73.0125 1322.14 73.0125H1311.16V128.733H1322.14Z" fill="white"/>
<path d="M1244.19 197.079C1241.17 197.079 1239.25 195.158 1239.25 192.138V9.8814C1239.25 6.86209 1241.17 4.9407 1244.19 4.9407H1327.36C1373.2 4.9407 1416.84 43.3684 1416.84 99.9119C1416.84 156.181 1373.2 197.079 1327.36 197.079H1244.19ZM1322.14 128.733C1335.87 128.733 1346.57 117.204 1346.57 99.9119C1346.57 82.3449 1335.87 73.0125 1322.14 73.0125H1311.16V128.733H1322.14Z" fill="#000000"/>
<path d="M1538.14 201.745C1477.48 201.745 1434.11 155.632 1434.11 100.735C1434.11 45.8387 1477.48 0 1538.14 0C1598.53 0 1642.17 45.8387 1642.17 100.735C1642.17 155.632 1598.53 201.745 1538.14 201.745ZM1538.14 127.086C1554.06 127.086 1565.87 115.008 1565.87 100.735C1565.87 86.4622 1554.06 74.3849 1538.14 74.3849C1522.22 74.3849 1510.42 86.4622 1510.42 100.735C1510.42 115.008 1522.22 127.086 1538.14 127.086Z" fill="white"/>
<path d="M1538.14 201.745C1477.48 201.745 1434.11 155.632 1434.11 100.735C1434.11 45.8387 1477.48 0 1538.14 0C1598.53 0 1642.17 45.8387 1642.17 100.735C1642.17 155.632 1598.53 201.745 1538.14 201.745ZM1538.14 127.086C1554.06 127.086 1565.87 115.008 1565.87 100.735C1565.87 86.4622 1554.06 74.3849 1538.14 74.3849C1522.22 74.3849 1510.42 86.4622 1510.42 100.735C1510.42 115.008 1522.22 127.086 1538.14 127.086Z" fill="#000000"/>
</svg>
