<svg width="1982" height="228" viewBox="0 0 1982 228" fill="none" xmlns="http://www.w3.org/2000/svg">
<path d="M99.3629 220.317C41.9959 220.317 0 176.125 0 119.856C0 63.5872 41.7214 19.3954 99.3629 19.3954C153.985 19.3954 191.864 52.8823 197.353 105.309C197.902 108.602 195.981 110.524 192.687 110.524H130.105C127.36 110.524 125.439 109.151 124.341 106.407C121.322 99.819 115.008 93.5058 103.48 93.5058C88.9325 93.5058 79.0511 105.583 79.0511 119.856C79.0511 134.678 88.9325 146.207 103.48 146.207C115.008 146.207 121.322 139.619 124.341 133.031C125.439 130.287 127.36 128.914 130.105 128.914H192.138C195.432 128.914 197.353 130.561 197.079 133.855C192.962 186.281 154.26 220.317 99.3629 220.317Z" fill="white"/>
<path d="M99.3629 220.317C41.9959 220.317 0 176.125 0 119.856C0 63.5872 41.7214 19.3954 99.3629 19.3954C153.985 19.3954 191.864 52.8823 197.353 105.309C197.902 108.602 195.981 110.524 192.687 110.524H130.105C127.36 110.524 125.439 109.151 124.341 106.407C121.322 99.819 115.008 93.5058 103.48 93.5058C88.9325 93.5058 79.0511 105.583 79.0511 119.856C79.0511 134.678 88.9325 146.207 103.48 146.207C115.008 146.207 121.322 139.619 124.341 133.031C125.439 130.287 127.36 128.914 130.105 128.914H192.138C195.432 128.914 197.353 130.561 197.079 133.855C192.962 186.281 154.26 220.317 99.3629 220.317Z" fill="#000000"/>
<path d="M316.721 220.592C256.061 220.592 212.692 174.478 212.692 119.582C212.692 64.6851 256.061 18.8464 316.721 18.8464C377.108 18.8464 420.75 64.6851 420.75 119.582C420.75 174.478 377.108 220.592 316.721 220.592ZM316.721 145.932C332.641 145.932 344.444 133.855 344.444 119.582C344.444 105.309 332.641 93.2314 316.721 93.2314C300.801 93.2314 288.999 105.309 288.999 119.582C288.999 133.855 300.801 145.932 316.721 145.932Z" fill="white"/>
<path d="M316.721 220.592C256.061 220.592 212.692 174.478 212.692 119.582C212.692 64.6851 256.061 18.8464 316.721 18.8464C377.108 18.8464 420.75 64.6851 420.75 119.582C420.75 174.478 377.108 220.592 316.721 220.592ZM316.721 145.932C332.641 145.932 344.444 133.855 344.444 119.582C344.444 105.309 332.641 93.2314 316.721 93.2314C300.801 93.2314 288.999 105.309 288.999 119.582C288.999 133.855 300.801 145.932 316.721 145.932Z" fill="#000000"/>
<path d="M433.267 215.925V215.313C440.61 205.83 441.833 195.122 442.139 179.52C442.445 159.328 442.751 139.443 442.751 119.557C442.751 99.366 442.445 79.4805 442.139 59.5951C441.833 38.7918 439.998 32.9792 433.267 23.8013V23.1894H507.302C518.622 45.2164 533.918 74.2797 550.438 104.567C550.133 89.2703 549.827 74.5857 549.521 59.5951C548.603 38.7918 545.544 32.9792 532.083 23.8013V23.1894H602.753V23.8013C595.716 32.9792 594.187 38.7918 593.881 59.5951C593.575 79.4805 593.269 99.366 593.269 119.557C593.269 139.443 593.575 159.328 593.881 179.52C593.881 195.122 595.41 205.83 602.753 215.313V215.925H544.932V215.313C547.991 207.971 549.215 200.017 549.521 189.309C530.859 153.516 507.914 112.215 486.193 73.3619C485.581 91.4118 485.887 109.768 485.887 130.571C486.193 142.502 486.193 155.351 486.193 169.118C486.193 208.277 500.878 215.313 514.645 213.784C503.019 211.03 495.677 202.158 495.677 191.145C495.677 178.602 504.549 169.424 517.398 169.424C527.8 169.424 538.813 175.848 538.813 190.533C538.813 200.935 533.612 215.925 504.549 215.925H433.267Z" fill="white"/>
<path d="M433.267 215.925V215.313C440.61 205.83 441.833 195.122 442.139 179.52C442.445 159.328 442.751 139.443 442.751 119.557C442.751 99.366 442.445 79.4805 442.139 59.5951C441.833 38.7918 439.998 32.9792 433.267 23.8013V23.1894H507.302C518.622 45.2164 533.918 74.2797 550.438 104.567C550.133 89.2703 549.827 74.5857 549.521 59.5951C548.603 38.7918 545.544 32.9792 532.083 23.8013V23.1894H602.753V23.8013C595.716 32.9792 594.187 38.7918 593.881 59.5951C593.575 79.4805 593.269 99.366 593.269 119.557C593.269 139.443 593.575 159.328 593.881 179.52C593.881 195.122 595.41 205.83 602.753 215.313V215.925H544.932V215.313C547.991 207.971 549.215 200.017 549.521 189.309C530.859 153.516 507.914 112.215 486.193 73.3619C485.581 91.4118 485.887 109.768 485.887 130.571C486.193 142.502 486.193 155.351 486.193 169.118C486.193 208.277 500.878 215.313 514.645 213.784C503.019 211.03 495.677 202.158 495.677 191.145C495.677 178.602 504.549 169.424 517.398 169.424C527.8 169.424 538.813 175.848 538.813 190.533C538.813 200.935 533.612 215.925 504.549 215.925H433.267Z" fill="#000000"/>
<path d="M626.579 215.925C623.56 215.925 621.638 214.004 621.638 210.985V28.7278C621.638 25.7085 623.56 23.7871 626.579 23.7871H692.181C694.925 23.7871 697.121 25.434 697.67 28.1789L712.492 94.6038C714.688 104.485 715.786 114.641 717.982 124.522L719.903 124.248C719.08 114.916 717.159 94.0548 717.159 87.1927L716.61 28.7278C716.61 25.7085 718.531 23.7871 721.55 23.7871H781.388C784.407 23.7871 786.328 25.7085 786.328 28.7278V210.985C786.328 214.004 784.407 215.925 781.388 215.925H722.648C719.903 215.925 717.982 214.827 717.159 211.808L698.494 145.109C695.749 135.227 693.827 125.071 691.632 115.19L689.71 115.464C690.808 124.797 692.73 145.658 692.73 152.52L693.279 210.985C693.279 214.004 691.357 215.925 688.338 215.925H626.579Z" fill="white"/>
<path d="M626.579 215.925C623.56 215.925 621.638 214.004 621.638 210.985V28.7278C621.638 25.7085 623.56 23.7871 626.579 23.7871H692.181C694.925 23.7871 697.121 25.434 697.67 28.1789L712.492 94.6038C714.688 104.485 715.786 114.641 717.982 124.522L719.903 124.248C719.08 114.916 717.159 94.0548 717.159 87.1927L716.61 28.7278C716.61 25.7085 718.531 23.7871 721.55 23.7871H781.388C784.407 23.7871 786.328 25.7085 786.328 28.7278V210.985C786.328 214.004 784.407 215.925 781.388 215.925H722.648C719.903 215.925 717.982 214.827 717.159 211.808L698.494 145.109C695.749 135.227 693.827 125.071 691.632 115.19L689.71 115.464C690.808 124.797 692.73 145.658 692.73 152.52L693.279 210.985C693.279 214.004 691.357 215.925 688.338 215.925H626.579Z" fill="#000000"/>
<path d="M992.392 215.925H813.117V157.187C835.45 157.187 835.756 156.269 835.756 139.137V99.6719C835.756 82.5398 835.45 81.622 813.117 81.622V23.1894H991.169V108.238H975.872C970.977 86.211 960.882 81.928 893.883 81.622V109.462C917.745 107.626 925.088 104.873 934.572 100.59H947.115V134.854H934.572C926.311 130.571 919.275 127.817 893.883 125.982V156.881C965.165 156.575 972.201 149.233 977.096 128.123H992.392V215.925Z" fill="white"/>
<path d="M992.392 215.925H813.117V157.187C835.45 157.187 835.756 156.269 835.756 139.137V99.6719C835.756 82.5398 835.45 81.622 813.117 81.622V23.1894H991.169V108.238H975.872C970.977 86.211 960.882 81.928 893.883 81.622V109.462C917.745 107.626 925.088 104.873 934.572 100.59H947.115V134.854H934.572C926.311 130.571 919.275 127.817 893.883 125.982V156.881C965.165 156.575 972.201 149.233 977.096 128.123H992.392V215.925Z" fill="#000000"/>
<path d="M1112.81 220.317C1055.45 220.317 1013.45 176.125 1013.45 119.856C1013.45 63.5872 1055.17 19.3954 1112.81 19.3954C1167.43 19.3954 1205.31 52.8823 1210.8 105.309C1211.35 108.602 1209.43 110.524 1206.14 110.524H1143.55C1140.81 110.524 1138.89 109.151 1137.79 106.407C1134.77 99.819 1128.46 93.5058 1116.93 93.5058C1102.38 93.5058 1092.5 105.583 1092.5 119.856C1092.5 134.678 1102.38 146.207 1116.93 146.207C1128.46 146.207 1134.77 139.619 1137.79 133.031C1138.89 130.287 1140.81 128.914 1143.55 128.914H1205.59C1208.88 128.914 1210.8 130.561 1210.53 133.855C1206.41 186.281 1167.71 220.317 1112.81 220.317Z" fill="white"/>
<path d="M1112.81 220.317C1055.45 220.317 1013.45 176.125 1013.45 119.856C1013.45 63.5872 1055.17 19.3954 1112.81 19.3954C1167.43 19.3954 1205.31 52.8823 1210.8 105.309C1211.35 108.602 1209.43 110.524 1206.14 110.524H1143.55C1140.81 110.524 1138.89 109.151 1137.79 106.407C1134.77 99.819 1128.46 93.5058 1116.93 93.5058C1102.38 93.5058 1092.5 105.583 1092.5 119.856C1092.5 134.678 1102.38 146.207 1116.93 146.207C1128.46 146.207 1134.77 139.619 1137.79 133.031C1138.89 130.287 1140.81 128.914 1143.55 128.914H1205.59C1208.88 128.914 1210.8 130.561 1210.53 133.855C1206.41 186.281 1167.71 220.317 1112.81 220.317Z" fill="#000000"/>
<path d="M1265.28 215.925C1262.26 215.925 1260.34 214.004 1260.34 210.985V89.6631H1224.93C1221.91 89.6631 1219.99 87.7417 1219.99 84.7224V28.7278C1219.99 25.7085 1221.91 23.7871 1224.93 23.7871H1368.48C1371.5 23.7871 1373.43 25.7085 1373.43 28.7278V84.7224C1373.43 87.7417 1371.5 89.6631 1368.48 89.6631H1332.8V210.985C1332.8 214.004 1330.88 215.925 1327.86 215.925H1265.28Z" fill="white"/>
<path d="M1265.28 215.925C1262.26 215.925 1260.34 214.004 1260.34 210.985V89.6631H1224.93C1221.91 89.6631 1219.99 87.7417 1219.99 84.7224V28.7278C1219.99 25.7085 1221.91 23.7871 1224.93 23.7871H1368.48C1371.5 23.7871 1373.43 25.7085 1373.43 28.7278V84.7224C1373.43 87.7417 1371.5 89.6631 1368.48 89.6631H1332.8V210.985C1332.8 214.004 1330.88 215.925 1327.86 215.925H1265.28Z" fill="#000000"/>
<path d="M1396.73 215.925C1393.71 215.925 1391.79 214.004 1391.79 210.985V28.7278C1391.79 25.7085 1393.71 23.7871 1396.73 23.7871H1459.31C1462.33 23.7871 1464.26 25.7085 1464.26 28.7278V210.985C1464.26 214.004 1462.33 215.925 1459.31 215.925H1396.73Z" fill="white"/>
<path d="M1396.73 215.925C1393.71 215.925 1391.79 214.004 1391.79 210.985V28.7278C1391.79 25.7085 1393.71 23.7871 1396.73 23.7871H1459.31C1462.33 23.7871 1464.26 25.7085 1464.26 28.7278V210.985C1464.26 214.004 1462.33 215.925 1459.31 215.925H1396.73Z" fill="#000000"/>
<path d="M1630.16 183.15C1632.15 183.15 1634.72 186.57 1634.72 187.425C1629.3 202.53 1613.91 208.23 1602.8 216.495C1596.53 220.77 1592.25 227.61 1585.7 227.61C1571.73 228.75 1559.19 220.77 1546.65 216.495C1536.11 213.075 1522.71 206.235 1512.45 200.25C1501.05 195.69 1489.65 192.27 1482.81 182.01C1479.68 177.45 1484.24 172.89 1486.23 169.185C1488.8 162.63 1487.09 154.65 1488.8 146.67C1489.65 134.415 1488.8 122.73 1488.8 109.905C1488.8 89.6703 1484.24 68.0103 1484.24 47.4903C1509.32 34.9503 1529.84 17.8503 1554.92 1.89031C1558.34 0.465307 1561.76 -0.674695 1564.04 0.465307C1584.56 13.2903 1605.65 14.1453 1626.74 27.8253C1627.88 29.2503 1626.74 31.5303 1625.6 32.3853C1617.33 41.2203 1614.77 52.3353 1605.65 58.8903C1602.8 61.4553 1595.67 58.8903 1594.82 63.4503C1587.41 93.0903 1589.97 121.305 1591.4 150.09C1591.4 162.63 1586.55 176.025 1595.67 185.145C1603.94 194.265 1618.76 186.57 1630.16 183.15ZM1541.81 112.185C1543.52 88.8153 1541.81 65.7303 1541.81 41.5053C1541.81 36.9453 1541.81 26.9703 1534.4 29.2503C1529.84 30.1053 1525.28 36.9453 1525.28 41.5053C1521.57 62.3103 1526.13 81.6903 1525.28 100.785C1524.42 119.025 1526.13 138.69 1526.13 156.93C1526.13 159.21 1529.84 162.63 1531.83 163.77C1532.69 163.77 1535.25 162.63 1536.68 160.065C1540.95 144.39 1539.81 128.43 1541.81 112.185ZM1582.28 172.89C1580.85 166.05 1585.7 157.785 1582.28 150.945C1580 144.39 1580.85 138.69 1580.85 131.85C1582.28 107.055 1583.13 80.5503 1583.13 55.1853C1583.13 50.6253 1576.58 54.3303 1576.58 57.4653C1576.58 82.5453 1573.16 107.055 1576.58 131.85C1576.58 136.41 1577.43 141.825 1577.43 146.67C1576.58 150.09 1575.44 153.51 1571.73 154.65C1561.76 156.93 1546.65 157.785 1546.65 171.75C1555.77 178.305 1566.32 180.87 1576.58 183.15C1582.28 185.145 1583.13 177.45 1582.28 172.89Z" fill="white"/>
<path d="M1630.16 183.15C1632.15 183.15 1634.72 186.57 1634.72 187.425C1629.3 202.53 1613.91 208.23 1602.8 216.495C1596.53 220.77 1592.25 227.61 1585.7 227.61C1571.73 228.75 1559.19 220.77 1546.65 216.495C1536.11 213.075 1522.71 206.235 1512.45 200.25C1501.05 195.69 1489.65 192.27 1482.81 182.01C1479.68 177.45 1484.24 172.89 1486.23 169.185C1488.8 162.63 1487.09 154.65 1488.8 146.67C1489.65 134.415 1488.8 122.73 1488.8 109.905C1488.8 89.6703 1484.24 68.0103 1484.24 47.4903C1509.32 34.9503 1529.84 17.8503 1554.92 1.89031C1558.34 0.465307 1561.76 -0.674695 1564.04 0.465307C1584.56 13.2903 1605.65 14.1453 1626.74 27.8253C1627.88 29.2503 1626.74 31.5303 1625.6 32.3853C1617.33 41.2203 1614.77 52.3353 1605.65 58.8903C1602.8 61.4553 1595.67 58.8903 1594.82 63.4503C1587.41 93.0903 1589.97 121.305 1591.4 150.09C1591.4 162.63 1586.55 176.025 1595.67 185.145C1603.94 194.265 1618.76 186.57 1630.16 183.15ZM1541.81 112.185C1543.52 88.8153 1541.81 65.7303 1541.81 41.5053C1541.81 36.9453 1541.81 26.9703 1534.4 29.2503C1529.84 30.1053 1525.28 36.9453 1525.28 41.5053C1521.57 62.3103 1526.13 81.6903 1525.28 100.785C1524.42 119.025 1526.13 138.69 1526.13 156.93C1526.13 159.21 1529.84 162.63 1531.83 163.77C1532.69 163.77 1535.25 162.63 1536.68 160.065C1540.95 144.39 1539.81 128.43 1541.81 112.185ZM1582.28 172.89C1580.85 166.05 1585.7 157.785 1582.28 150.945C1580 144.39 1580.85 138.69 1580.85 131.85C1582.28 107.055 1583.13 80.5503 1583.13 55.1853C1583.13 50.6253 1576.58 54.3303 1576.58 57.4653C1576.58 82.5453 1573.16 107.055 1576.58 131.85C1576.58 136.41 1577.43 141.825 1577.43 146.67C1576.58 150.09 1575.44 153.51 1571.73 154.65C1561.76 156.93 1546.65 157.785 1546.65 171.75C1555.77 178.305 1566.32 180.87 1576.58 183.15C1582.28 185.145 1583.13 177.45 1582.28 172.89Z" fill="#000000"/>
<path d="M1728.05 219.494C1682.21 219.494 1645.7 196.437 1645.7 148.128V28.7278C1645.7 25.7085 1647.62 23.7871 1650.64 23.7871H1714.32C1717.34 23.7871 1719.26 25.7085 1719.26 28.7278V148.951C1719.26 155.814 1722.28 159.382 1729.14 159.382C1735.73 159.382 1738.75 155.814 1738.75 148.951V28.7278C1738.75 25.7085 1740.67 23.7871 1743.69 23.7871H1805.18C1808.2 23.7871 1810.12 25.7085 1810.12 28.7278V148.402C1810.12 196.712 1776.08 219.494 1728.05 219.494Z" fill="white"/>
<path d="M1728.05 219.494C1682.21 219.494 1645.7 196.437 1645.7 148.128V28.7278C1645.7 25.7085 1647.62 23.7871 1650.64 23.7871H1714.32C1717.34 23.7871 1719.26 25.7085 1719.26 28.7278V148.951C1719.26 155.814 1722.28 159.382 1729.14 159.382C1735.73 159.382 1738.75 155.814 1738.75 148.951V28.7278C1738.75 25.7085 1740.67 23.7871 1743.69 23.7871H1805.18C1808.2 23.7871 1810.12 25.7085 1810.12 28.7278V148.402C1810.12 196.712 1776.08 219.494 1728.05 219.494Z" fill="#000000"/>
<path d="M1873.02 215.925C1870 215.925 1868.08 214.004 1868.08 210.985V89.6631H1832.67C1829.65 89.6631 1827.73 87.7417 1827.73 84.7224V28.7278C1827.73 25.7085 1829.65 23.7871 1832.67 23.7871H1976.23C1979.25 23.7871 1981.17 25.7085 1981.17 28.7278V84.7224C1981.17 87.7417 1979.25 89.6631 1976.23 89.6631H1940.55V210.985C1940.55 214.004 1938.62 215.925 1935.61 215.925H1873.02Z" fill="white"/>
<path d="M1873.02 215.925C1870 215.925 1868.08 214.004 1868.08 210.985V89.6631H1832.67C1829.65 89.6631 1827.73 87.7417 1827.73 84.7224V28.7278C1827.73 25.7085 1829.65 23.7871 1832.67 23.7871H1976.23C1979.25 23.7871 1981.17 25.7085 1981.17 28.7278V84.7224C1981.17 87.7417 1979.25 89.6631 1976.23 89.6631H1940.55V210.985C1940.55 214.004 1938.62 215.925 1935.61 215.925H1873.02Z" fill="#000000"/>
</svg>
