<svg width="1199" height="193" viewBox="0 0 1199 193" fill="none" xmlns="http://www.w3.org/2000/svg">
<path d="M4.9407 192.736C1.92138 192.736 0 190.815 0 187.795V5.53841C0 2.5191 1.92138 0.597712 4.9407 0.597712H67.5229C70.5422 0.597712 72.4635 2.5191 72.4635 5.53841V187.795C72.4635 190.815 70.5422 192.736 67.5229 192.736H4.9407Z" fill="white"/>
<path d="M4.9407 192.736C1.92138 192.736 0 190.815 0 187.795V5.53841C0 2.5191 1.92138 0.597712 4.9407 0.597712H67.5229C70.5422 0.597712 72.4635 2.5191 72.4635 5.53841V187.795C72.4635 190.815 70.5422 192.736 67.5229 192.736H4.9407Z" fill="#000000"/>
<path d="M176.364 133.997V192.736H99.2698V133.997C106.204 133.182 111.201 128.899 114.26 121.148C117.32 113.398 118.849 102.894 118.849 89.6375V76.1766C118.849 67.8145 118.034 62.8176 116.402 61.186C114.974 59.3504 109.264 58.4326 99.2698 58.4326V0H216.135V45.5836C216.135 55.1694 217.155 63.0216 219.194 69.1402C221.234 75.2588 227.251 82.7031 237.244 91.4731L280.992 129.102V126.961C280.992 119.007 280.38 111.257 279.157 103.71C278.137 95.9601 276.199 89.0256 273.344 82.907C270.489 76.5845 266.512 71.2817 261.413 66.9987C256.314 62.5117 249.889 59.6564 242.139 58.4326V0H319.233V58.1267C312.299 59.9623 307.2 63.6334 303.937 69.1402C300.878 74.6469 299.348 84.5387 299.348 98.8154V192.736H202.062V139.81C202.062 130.224 200.227 122.678 196.556 117.171C193.088 111.664 187.276 105.444 179.118 98.5095L137.205 62.7157C137.205 69.854 137.613 77.0944 138.429 84.4367C139.245 91.5751 140.978 98.4075 143.63 104.934C146.485 111.257 150.462 116.967 155.561 122.066C160.66 127.165 167.594 131.142 176.364 133.997Z" fill="white"/>
<path d="M176.364 133.997V192.736H99.2698V133.997C106.204 133.182 111.201 128.899 114.26 121.148C117.32 113.398 118.849 102.894 118.849 89.6375V76.1766C118.849 67.8145 118.034 62.8176 116.402 61.186C114.974 59.3504 109.264 58.4326 99.2698 58.4326V0H216.135V45.5836C216.135 55.1694 217.155 63.0216 219.194 69.1402C221.234 75.2588 227.251 82.7031 237.244 91.4731L280.992 129.102V126.961C280.992 119.007 280.38 111.257 279.157 103.71C278.137 95.9601 276.199 89.0256 273.344 82.907C270.489 76.5845 266.512 71.2817 261.413 66.9987C256.314 62.5117 249.889 59.6564 242.139 58.4326V0H319.233V58.1267C312.299 59.9623 307.2 63.6334 303.937 69.1402C300.878 74.6469 299.348 84.5387 299.348 98.8154V192.736H202.062V139.81C202.062 130.224 200.227 122.678 196.556 117.171C193.088 111.664 187.276 105.444 179.118 98.5095L137.205 62.7157C137.205 69.854 137.613 77.0944 138.429 84.4367C139.245 91.5751 140.978 98.4075 143.63 104.934C146.485 111.257 150.462 116.967 155.561 122.066C160.66 127.165 167.594 131.142 176.364 133.997Z" fill="#000000"/>
<path d="M346.755 192.736C343.736 192.736 341.814 190.815 341.814 187.795V5.53841C341.814 2.5191 343.736 0.597712 346.755 0.597712H429.924C475.762 0.597712 519.405 39.0254 519.405 95.5689C519.405 151.838 475.762 192.736 429.924 192.736H346.755ZM424.708 124.39C438.433 124.39 449.137 112.861 449.137 95.5689C449.137 78.002 438.433 68.6695 424.708 68.6695H413.729V124.39H424.708Z" fill="white"/>
<path d="M346.755 192.736C343.736 192.736 341.814 190.815 341.814 187.795V5.53841C341.814 2.5191 343.736 0.597712 346.755 0.597712H429.924C475.762 0.597712 519.405 39.0254 519.405 95.5689C519.405 151.838 475.762 192.736 429.924 192.736H346.755ZM424.708 124.39C438.433 124.39 449.137 112.861 449.137 95.5689C449.137 78.002 438.433 68.6695 424.708 68.6695H413.729V124.39H424.708Z" fill="#000000"/>
<path d="M544.973 192.736C541.953 192.736 540.032 190.815 540.032 187.795V5.53841C540.032 2.5191 541.953 0.597712 544.973 0.597712H607.555C610.574 0.597712 612.496 2.5191 612.496 5.53841V187.795C612.496 190.815 610.574 192.736 607.555 192.736H544.973Z" fill="white"/>
<path d="M544.973 192.736C541.953 192.736 540.032 190.815 540.032 187.795V5.53841C540.032 2.5191 541.953 0.597712 544.973 0.597712H607.555C610.574 0.597712 612.496 2.5191 612.496 5.53841V187.795C612.496 190.815 610.574 192.736 607.555 192.736H544.973Z" fill="#000000"/>
<path d="M628.9 192.736V192.124C632.163 187.841 635.427 181.722 638.69 173.768C642.157 165.61 645.624 156.33 649.092 145.929C652.559 135.323 656.026 124.31 659.493 112.888C651.335 109.829 644.707 106.464 639.608 102.792C634.713 98.9174 632.265 93.5126 632.265 86.5782C632.265 82.4991 633.489 78.9299 635.937 75.8706C638.588 72.6074 642.463 70.9758 647.562 70.9758C651.845 70.9758 655.414 72.4034 658.269 75.2588C661.329 77.9102 662.858 81.5813 662.858 86.2723C662.858 90.9632 661.635 94.7363 659.187 97.5917C656.74 100.447 652.865 101.875 647.562 101.875C643.279 101.875 639.71 100.651 636.854 98.2035C639.302 101.059 642.667 102.996 646.95 104.016C651.437 105.036 656.332 105.648 661.635 105.852C665.102 93.4106 668.467 81.0715 671.73 68.8343C675.198 56.5971 678.461 45.3796 681.52 35.182C682.744 31.1029 683.662 27.5337 684.273 24.4744C685.089 21.2112 685.497 18.2538 685.497 15.6024C685.497 7.85221 681.316 2.85535 672.954 0.61187V0H774.523V0.61187C771.26 1.42769 768.71 3.36524 766.875 6.42454C765.039 9.27988 764.121 13.5629 764.121 19.2736C764.121 25.3922 765.345 33.5503 767.792 43.748C776.97 80.4596 787.678 116.865 799.915 152.965C802.974 162.143 805.932 169.995 808.787 176.522C811.642 182.844 814.702 188.045 817.965 192.124V192.736H736.282V192.124C742.196 190.492 746.377 188.045 748.825 184.782C751.476 181.518 752.802 177.337 752.802 172.239C752.802 169.995 752.598 167.548 752.19 164.896C751.782 162.245 751.17 159.288 750.354 156.024C749.539 152.353 746.479 148.784 741.177 145.317C736.078 141.85 729.551 138.586 721.597 135.527C713.643 132.264 705.179 129.102 696.205 126.043C693.757 135.629 691.208 145.623 688.557 156.024C687.945 159.084 687.435 161.939 687.027 164.59C686.619 167.242 686.415 169.689 686.415 171.933C686.415 177.235 687.639 181.518 690.086 184.782C692.534 188.045 696.715 190.492 702.629 192.124V192.736H628.9ZM702.017 104.934C708.136 105.342 714.153 106.974 720.067 109.829C725.982 112.684 731.489 117.477 736.588 124.208C741.89 130.938 746.785 140.422 751.272 152.659H751.884C746.785 132.876 741.992 113.398 737.505 94.2264C733.018 75.0548 728.327 57.1069 723.433 40.3828H722.209C718.946 49.7646 715.58 59.8603 712.113 70.6698C708.85 81.2754 705.485 92.6968 702.017 104.934Z" fill="white"/>
<path d="M628.9 192.736V192.124C632.163 187.841 635.427 181.722 638.69 173.768C642.157 165.61 645.624 156.33 649.092 145.929C652.559 135.323 656.026 124.31 659.493 112.888C651.335 109.829 644.707 106.464 639.608 102.792C634.713 98.9174 632.265 93.5126 632.265 86.5782C632.265 82.4991 633.489 78.9299 635.937 75.8706C638.588 72.6074 642.463 70.9758 647.562 70.9758C651.845 70.9758 655.414 72.4034 658.269 75.2588C661.329 77.9102 662.858 81.5813 662.858 86.2723C662.858 90.9632 661.635 94.7363 659.187 97.5917C656.74 100.447 652.865 101.875 647.562 101.875C643.279 101.875 639.71 100.651 636.854 98.2035C639.302 101.059 642.667 102.996 646.95 104.016C651.437 105.036 656.332 105.648 661.635 105.852C665.102 93.4106 668.467 81.0715 671.73 68.8343C675.198 56.5971 678.461 45.3796 681.52 35.182C682.744 31.1029 683.662 27.5337 684.273 24.4744C685.089 21.2112 685.497 18.2538 685.497 15.6024C685.497 7.85221 681.316 2.85535 672.954 0.61187V0H774.523V0.61187C771.26 1.42769 768.71 3.36524 766.875 6.42454C765.039 9.27988 764.121 13.5629 764.121 19.2736C764.121 25.3922 765.345 33.5503 767.792 43.748C776.97 80.4596 787.678 116.865 799.915 152.965C802.974 162.143 805.932 169.995 808.787 176.522C811.642 182.844 814.702 188.045 817.965 192.124V192.736H736.282V192.124C742.196 190.492 746.377 188.045 748.825 184.782C751.476 181.518 752.802 177.337 752.802 172.239C752.802 169.995 752.598 167.548 752.19 164.896C751.782 162.245 751.17 159.288 750.354 156.024C749.539 152.353 746.479 148.784 741.177 145.317C736.078 141.85 729.551 138.586 721.597 135.527C713.643 132.264 705.179 129.102 696.205 126.043C693.757 135.629 691.208 145.623 688.557 156.024C687.945 159.084 687.435 161.939 687.027 164.59C686.619 167.242 686.415 169.689 686.415 171.933C686.415 177.235 687.639 181.518 690.086 184.782C692.534 188.045 696.715 190.492 702.629 192.124V192.736H628.9ZM702.017 104.934C708.136 105.342 714.153 106.974 720.067 109.829C725.982 112.684 731.489 117.477 736.588 124.208C741.89 130.938 746.785 140.422 751.272 152.659H751.884C746.785 132.876 741.992 113.398 737.505 94.2264C733.018 75.0548 728.327 57.1069 723.433 40.3828H722.209C718.946 49.7646 715.58 59.8603 712.113 70.6698C708.85 81.2754 705.485 92.6968 702.017 104.934Z" fill="#000000"/>
<path d="M831.815 192.736C828.796 192.736 826.875 190.815 826.875 187.795V5.53841C826.875 2.5191 828.796 0.597712 831.815 0.597712H897.417C900.162 0.597712 902.358 2.24462 902.906 4.98945L917.729 71.4144C919.924 81.2958 921.022 91.4516 923.218 101.333L925.14 101.059C924.316 91.7261 922.395 70.8654 922.395 64.0033L921.846 5.53841C921.846 2.5191 923.767 0.597712 926.787 0.597712H986.624C989.643 0.597712 991.565 2.5191 991.565 5.53841V187.795C991.565 190.815 989.643 192.736 986.624 192.736H927.884C925.14 192.736 923.218 191.638 922.395 188.619L903.73 121.919C900.985 112.038 899.064 101.882 896.868 92.0006L894.947 92.2751C896.044 101.608 897.966 122.468 897.966 129.33L898.515 187.795C898.515 190.815 896.593 192.736 893.574 192.736H831.815Z" fill="white"/>
<path d="M831.815 192.736C828.796 192.736 826.875 190.815 826.875 187.795V5.53841C826.875 2.5191 828.796 0.597712 831.815 0.597712H897.417C900.162 0.597712 902.358 2.24462 902.906 4.98945L917.729 71.4144C919.924 81.2958 921.022 91.4516 923.218 101.333L925.14 101.059C924.316 91.7261 922.395 70.8654 922.395 64.0033L921.846 5.53841C921.846 2.5191 923.767 0.597712 926.787 0.597712H986.624C989.643 0.597712 991.565 2.5191 991.565 5.53841V187.795C991.565 190.815 989.643 192.736 986.624 192.736H927.884C925.14 192.736 923.218 191.638 922.395 188.619L903.73 121.919C900.985 112.038 899.064 101.882 896.868 92.0006L894.947 92.2751C896.044 101.608 897.966 122.468 897.966 129.33L898.515 187.795C898.515 190.815 896.593 192.736 893.574 192.736H831.815Z" fill="#000000"/>
<path d="M1010.78 192.736C1007.49 192.736 1005.57 190.815 1006.39 187.246L1053.6 4.71496C1054.43 1.69565 1056.07 0.597712 1059.09 0.597712H1145.83C1148.85 0.597712 1150.49 1.69565 1151.32 4.71496L1198.25 187.246C1199.08 190.815 1197.16 192.736 1193.86 192.736H1127.16C1124.14 192.736 1122.5 191.089 1121.95 188.344L1116.18 161.445H1088.19L1082.42 188.344C1081.87 191.089 1080.23 192.736 1077.21 192.736H1010.78ZM1092.85 116.155H1111.52L1104.93 78.8254L1103.56 67.5716H1100.81L1099.44 78.8254L1092.85 116.155Z" fill="white"/>
<path d="M1010.78 192.736C1007.49 192.736 1005.57 190.815 1006.39 187.246L1053.6 4.71496C1054.43 1.69565 1056.07 0.597712 1059.09 0.597712H1145.83C1148.85 0.597712 1150.49 1.69565 1151.32 4.71496L1198.25 187.246C1199.08 190.815 1197.16 192.736 1193.86 192.736H1127.16C1124.14 192.736 1122.5 191.089 1121.95 188.344L1116.18 161.445H1088.19L1082.42 188.344C1081.87 191.089 1080.23 192.736 1077.21 192.736H1010.78ZM1092.85 116.155H1111.52L1104.93 78.8254L1103.56 67.5716H1100.81L1099.44 78.8254L1092.85 116.155Z" fill="#000000"/>
</svg>
