<svg width="1149" height="203" viewBox="0 0 1149 203" fill="none" xmlns="http://www.w3.org/2000/svg">
<path d="M4.9407 198.177C1.92138 198.177 0 196.255 0 193.236V10.9793C0 7.96002 1.92138 6.03863 4.9407 6.03863H66.9739C69.9932 6.03863 71.9146 7.96002 71.9146 10.9793V30.7421C71.9146 42.2704 71.3656 52.1518 70.5422 63.9546L72.738 64.2291C75.7573 55.1711 82.3449 38.9766 86.4622 30.7421L96.8925 9.60692C97.9905 7.13657 99.9119 6.03863 102.657 6.03863H167.16C171.003 6.03863 172.375 8.2345 170.454 11.8028L134.222 78.7767L181.159 192.413C182.531 195.706 180.884 198.177 177.316 198.177H110.342C107.597 198.177 105.951 196.804 104.853 194.334L79.6001 127.36L72.1891 138.065L72.738 193.236C72.738 196.255 70.8167 198.177 67.7973 198.177H4.9407Z" fill="white"/>
<path d="M4.9407 198.177C1.92138 198.177 0 196.255 0 193.236V10.9793C0 7.96002 1.92138 6.03863 4.9407 6.03863H66.9739C69.9932 6.03863 71.9146 7.96002 71.9146 10.9793V30.7421C71.9146 42.2704 71.3656 52.1518 70.5422 63.9546L72.738 64.2291C75.7573 55.1711 82.3449 38.9766 86.4622 30.7421L96.8925 9.60692C97.9905 7.13657 99.9119 6.03863 102.657 6.03863H167.16C171.003 6.03863 172.375 8.2345 170.454 11.8028L134.222 78.7767L181.159 192.413C182.531 195.706 180.884 198.177 177.316 198.177H110.342C107.597 198.177 105.951 196.804 104.853 194.334L79.6001 127.36L72.1891 138.065L72.738 193.236C72.738 196.255 70.8167 198.177 67.7973 198.177H4.9407Z" fill="#000000"/>
<path d="M189.119 198.177V197.565C192.382 193.282 195.645 187.163 198.909 179.209C202.376 171.051 205.843 161.771 209.31 151.37C212.777 140.764 216.245 129.75 219.712 118.329C211.554 115.27 204.925 111.905 199.826 108.233C194.932 104.358 192.484 98.9535 192.484 92.0191C192.484 87.9401 193.708 84.3709 196.155 81.3116C198.807 78.0483 202.682 76.4167 207.781 76.4167C212.064 76.4167 215.633 77.8444 218.488 80.6997C221.547 83.3511 223.077 87.0223 223.077 91.7132C223.077 96.4041 221.853 100.177 219.406 103.033C216.958 105.888 213.083 107.316 207.781 107.316C203.498 107.316 199.928 106.092 197.073 103.644C199.52 106.5 202.886 108.437 207.169 109.457C211.656 110.477 216.551 111.089 221.853 111.293C225.321 98.8516 228.686 86.5124 231.949 74.2752C235.416 62.038 238.68 50.8205 241.739 40.6229C242.963 36.5438 243.88 32.9746 244.492 29.9153C245.308 26.6521 245.716 23.6947 245.716 21.0434C245.716 13.2931 241.535 8.29627 233.173 6.05279V5.44092H334.742V6.05279C331.478 6.86861 328.929 8.80616 327.093 11.8655C325.258 14.7208 324.34 19.0038 324.34 24.7145C324.34 30.8331 325.564 38.9913 328.011 49.1889C337.189 85.9005 347.897 122.306 360.134 158.406C363.193 167.584 366.15 175.436 369.006 181.963C371.861 188.285 374.92 193.486 378.184 197.565V198.177H296.5V197.565C302.415 195.933 306.596 193.486 309.043 190.223C311.695 186.959 313.021 182.778 313.021 177.68C313.021 175.436 312.817 172.989 312.409 170.337C312.001 167.686 311.389 164.728 310.573 161.465C309.757 157.794 306.698 154.225 301.395 150.758C296.296 147.29 289.77 144.027 281.816 140.968C273.861 137.705 265.397 134.543 256.423 131.484C253.976 141.07 251.427 151.064 248.775 161.465C248.163 164.525 247.653 167.38 247.246 170.031C246.838 172.683 246.634 175.13 246.634 177.374C246.634 182.676 247.857 186.959 250.305 190.223C252.752 193.486 256.933 195.933 262.848 197.565V198.177H189.119ZM262.236 110.375C268.355 110.783 274.371 112.414 280.286 115.27C286.201 118.125 291.707 122.918 296.806 129.649C302.109 136.379 307.004 145.863 311.491 158.1H312.103C307.004 138.317 302.211 118.839 297.724 99.6674C293.237 80.4958 288.546 62.5479 283.651 45.8237H282.428C279.164 55.2055 275.799 65.3012 272.332 76.1108C269.069 86.7163 265.703 98.1377 262.236 110.375Z" fill="white"/>
<path d="M189.119 198.177V197.565C192.382 193.282 195.645 187.163 198.909 179.209C202.376 171.051 205.843 161.771 209.31 151.37C212.777 140.764 216.245 129.75 219.712 118.329C211.554 115.27 204.925 111.905 199.826 108.233C194.932 104.358 192.484 98.9535 192.484 92.0191C192.484 87.9401 193.708 84.3709 196.155 81.3116C198.807 78.0483 202.682 76.4167 207.781 76.4167C212.064 76.4167 215.633 77.8444 218.488 80.6997C221.547 83.3511 223.077 87.0223 223.077 91.7132C223.077 96.4041 221.853 100.177 219.406 103.033C216.958 105.888 213.083 107.316 207.781 107.316C203.498 107.316 199.928 106.092 197.073 103.644C199.52 106.5 202.886 108.437 207.169 109.457C211.656 110.477 216.551 111.089 221.853 111.293C225.321 98.8516 228.686 86.5124 231.949 74.2752C235.416 62.038 238.68 50.8205 241.739 40.6229C242.963 36.5438 243.88 32.9746 244.492 29.9153C245.308 26.6521 245.716 23.6947 245.716 21.0434C245.716 13.2931 241.535 8.29627 233.173 6.05279V5.44092H334.742V6.05279C331.478 6.86861 328.929 8.80616 327.093 11.8655C325.258 14.7208 324.34 19.0038 324.34 24.7145C324.34 30.8331 325.564 38.9913 328.011 49.1889C337.189 85.9005 347.897 122.306 360.134 158.406C363.193 167.584 366.15 175.436 369.006 181.963C371.861 188.285 374.92 193.486 378.184 197.565V198.177H296.5V197.565C302.415 195.933 306.596 193.486 309.043 190.223C311.695 186.959 313.021 182.778 313.021 177.68C313.021 175.436 312.817 172.989 312.409 170.337C312.001 167.686 311.389 164.728 310.573 161.465C309.757 157.794 306.698 154.225 301.395 150.758C296.296 147.29 289.77 144.027 281.816 140.968C273.861 137.705 265.397 134.543 256.423 131.484C253.976 141.07 251.427 151.064 248.775 161.465C248.163 164.525 247.653 167.38 247.246 170.031C246.838 172.683 246.634 175.13 246.634 177.374C246.634 182.676 247.857 186.959 250.305 190.223C252.752 193.486 256.933 195.933 262.848 197.565V198.177H189.119ZM262.236 110.375C268.355 110.783 274.371 112.414 280.286 115.27C286.201 118.125 291.707 122.918 296.806 129.649C302.109 136.379 307.004 145.863 311.491 158.1H312.103C307.004 138.317 302.211 118.839 297.724 99.6674C293.237 80.4958 288.546 62.5479 283.651 45.8237H282.428C279.164 55.2055 275.799 65.3012 272.332 76.1108C269.069 86.7163 265.703 98.1377 262.236 110.375Z" fill="#000000"/>
<path d="M392.034 198.177C389.015 198.177 387.093 196.255 387.093 193.236V10.9793C387.093 7.96002 389.015 6.03863 392.034 6.03863H457.636C460.38 6.03863 462.576 7.68554 463.125 10.4304L477.947 76.8553C480.143 86.7367 481.241 96.8926 483.437 106.774L485.358 106.499C484.535 97.167 482.613 76.3063 482.613 69.4442L482.065 10.9793C482.065 7.96002 483.986 6.03863 487.005 6.03863H546.843C549.862 6.03863 551.783 7.96002 551.783 10.9793V193.236C551.783 196.255 549.862 198.177 546.843 198.177H488.103C485.358 198.177 483.437 197.079 482.613 194.06L463.949 127.36C461.204 117.479 459.282 107.323 457.087 97.4415L455.165 97.716C456.263 107.048 458.184 127.909 458.184 134.771L458.733 193.236C458.733 196.255 456.812 198.177 453.793 198.177H392.034Z" fill="white"/>
<path d="M392.034 198.177C389.015 198.177 387.093 196.255 387.093 193.236V10.9793C387.093 7.96002 389.015 6.03863 392.034 6.03863H457.636C460.38 6.03863 462.576 7.68554 463.125 10.4304L477.947 76.8553C480.143 86.7367 481.241 96.8926 483.437 106.774L485.358 106.499C484.535 97.167 482.613 76.3063 482.613 69.4442L482.065 10.9793C482.065 7.96002 483.986 6.03863 487.005 6.03863H546.843C549.862 6.03863 551.783 7.96002 551.783 10.9793V193.236C551.783 196.255 549.862 198.177 546.843 198.177H488.103C485.358 198.177 483.437 197.079 482.613 194.06L463.949 127.36C461.204 117.479 459.282 107.323 457.087 97.4415L455.165 97.716C456.263 107.048 458.184 127.909 458.184 134.771L458.733 193.236C458.733 196.255 456.812 198.177 453.793 198.177H392.034Z" fill="#000000"/>
<path d="M782.016 148.922C782.016 155.857 780.894 162.587 778.651 169.113C776.611 175.436 773.042 181.045 767.943 185.94C763.048 190.631 756.42 194.404 748.058 197.259C739.899 200.114 729.804 201.542 717.771 201.542C706.553 201.542 696.661 200.726 688.095 199.095C679.529 197.463 672.289 194.506 666.374 190.223C660.664 185.736 656.075 179.617 652.607 171.867C649.344 163.913 647.203 153.919 646.183 141.886H632.722V198.177H575.513V126.589H651.996C654.035 132.504 657.298 136.889 661.785 139.744C666.476 142.396 672.799 143.721 680.753 143.721C689.115 143.721 695.336 142.396 699.415 139.744C703.698 137.093 705.839 132.708 705.839 126.589C705.839 121.49 704.106 117.615 700.638 114.964C697.171 112.312 690.135 110.987 679.529 110.987C672.391 110.987 664.947 111.089 657.196 111.293C649.446 111.497 641.492 111.599 633.334 111.599C622.32 111.599 613.142 110.171 605.8 107.316C598.458 104.256 592.543 100.279 588.056 95.3843C583.773 90.4895 580.714 84.6768 578.878 77.9463C577.247 71.2159 576.431 64.1795 576.431 56.8372C576.431 49.2909 577.553 42.2545 579.796 35.728C582.039 28.9975 585.609 23.1849 590.504 18.29C595.398 13.3951 601.721 9.51999 609.471 6.66464C617.425 3.8093 626.807 2.38162 637.617 2.38162C647.611 2.38162 656.381 3.40139 663.927 5.44092C671.677 7.2765 678.203 10.6417 683.506 15.5366C689.013 20.2276 693.5 26.6521 696.967 34.8102C700.434 42.9683 702.882 53.166 704.31 65.4032H717.159V5.44092H775.285V80.6997H698.803C696.559 72.3376 693.092 67.0348 688.401 64.7914C683.71 62.3439 677.082 61.1202 668.516 61.1202C659.542 61.1202 653.525 62.7518 650.466 66.0151C647.407 69.0744 645.877 73.0515 645.877 77.9463C645.877 82.6373 648.018 86.3084 652.301 88.9598C656.584 91.6112 664.335 92.9369 675.552 92.9369C676.572 92.9369 678.815 92.9369 682.283 92.9369C685.954 92.733 690.033 92.631 694.52 92.631C699.211 92.427 704.004 92.3251 708.898 92.3251C713.793 92.1211 717.974 92.0191 721.442 92.0191C734.087 92.0191 744.386 93.4468 752.341 96.3021C760.295 98.9535 766.413 102.829 770.696 107.927C775.183 112.822 778.141 118.839 779.568 125.977C781.2 132.912 782.016 140.56 782.016 148.922Z" fill="white"/>
<path d="M782.016 148.922C782.016 155.857 780.894 162.587 778.651 169.113C776.611 175.436 773.042 181.045 767.943 185.94C763.048 190.631 756.42 194.404 748.058 197.259C739.899 200.114 729.804 201.542 717.771 201.542C706.553 201.542 696.661 200.726 688.095 199.095C679.529 197.463 672.289 194.506 666.374 190.223C660.664 185.736 656.075 179.617 652.607 171.867C649.344 163.913 647.203 153.919 646.183 141.886H632.722V198.177H575.513V126.589H651.996C654.035 132.504 657.298 136.889 661.785 139.744C666.476 142.396 672.799 143.721 680.753 143.721C689.115 143.721 695.336 142.396 699.415 139.744C703.698 137.093 705.839 132.708 705.839 126.589C705.839 121.49 704.106 117.615 700.638 114.964C697.171 112.312 690.135 110.987 679.529 110.987C672.391 110.987 664.947 111.089 657.196 111.293C649.446 111.497 641.492 111.599 633.334 111.599C622.32 111.599 613.142 110.171 605.8 107.316C598.458 104.256 592.543 100.279 588.056 95.3843C583.773 90.4895 580.714 84.6768 578.878 77.9463C577.247 71.2159 576.431 64.1795 576.431 56.8372C576.431 49.2909 577.553 42.2545 579.796 35.728C582.039 28.9975 585.609 23.1849 590.504 18.29C595.398 13.3951 601.721 9.51999 609.471 6.66464C617.425 3.8093 626.807 2.38162 637.617 2.38162C647.611 2.38162 656.381 3.40139 663.927 5.44092C671.677 7.2765 678.203 10.6417 683.506 15.5366C689.013 20.2276 693.5 26.6521 696.967 34.8102C700.434 42.9683 702.882 53.166 704.31 65.4032H717.159V5.44092H775.285V80.6997H698.803C696.559 72.3376 693.092 67.0348 688.401 64.7914C683.71 62.3439 677.082 61.1202 668.516 61.1202C659.542 61.1202 653.525 62.7518 650.466 66.0151C647.407 69.0744 645.877 73.0515 645.877 77.9463C645.877 82.6373 648.018 86.3084 652.301 88.9598C656.584 91.6112 664.335 92.9369 675.552 92.9369C676.572 92.9369 678.815 92.9369 682.283 92.9369C685.954 92.733 690.033 92.631 694.52 92.631C699.211 92.427 704.004 92.3251 708.898 92.3251C713.793 92.1211 717.974 92.0191 721.442 92.0191C734.087 92.0191 744.386 93.4468 752.341 96.3021C760.295 98.9535 766.413 102.829 770.696 107.927C775.183 112.822 778.141 118.839 779.568 125.977C781.2 132.912 782.016 140.56 782.016 148.922Z" fill="#000000"/>
<path d="M798.8 198.177C795.506 198.177 793.585 196.255 794.408 192.687L841.619 10.1559C842.442 7.13657 844.089 6.03863 847.109 6.03863H933.845C936.865 6.03863 938.512 7.13657 939.335 10.1559L986.272 192.687C987.095 196.255 985.174 198.177 981.88 198.177H915.181C912.161 198.177 910.514 196.53 909.965 193.785L904.201 166.886H876.204L870.44 193.785C869.891 196.53 868.244 198.177 865.225 198.177H798.8ZM880.87 121.596H899.535L892.947 84.2663L891.575 73.0125H888.83L887.458 84.2663L880.87 121.596Z" fill="white"/>
<path d="M798.8 198.177C795.506 198.177 793.585 196.255 794.408 192.687L841.619 10.1559C842.442 7.13657 844.089 6.03863 847.109 6.03863H933.845C936.865 6.03863 938.512 7.13657 939.335 10.1559L986.272 192.687C987.095 196.255 985.174 198.177 981.88 198.177H915.181C912.161 198.177 910.514 196.53 909.965 193.785L904.201 166.886H876.204L870.44 193.785C869.891 196.53 868.244 198.177 865.225 198.177H798.8ZM880.87 121.596H899.535L892.947 84.2663L891.575 73.0125H888.83L887.458 84.2663L880.87 121.596Z" fill="#000000"/>
<path d="M1070.2 202.02C1033.42 202.02 992.525 185.002 989.505 132.575C989.231 129.282 991.152 127.36 994.172 127.36H1053.46C1057.03 127.36 1059.22 129.556 1059.22 132.575C1059.5 139.437 1062.24 144.653 1070.48 144.653C1075.97 144.653 1078.99 140.81 1079.26 136.418C1078.99 124.89 1065.26 124.341 1043.58 120.498C1014.21 115.283 990.054 99.3629 990.329 63.1311C990.054 23.88 1023.54 0 1066.36 0C1096.28 0 1140.2 13.7242 1142.39 64.2291C1142.39 67.5229 1140.47 69.4442 1137.45 69.4442H1082.28C1078.99 69.4442 1077.34 67.5229 1077.07 64.5035C1076.79 59.5629 1075.42 53.7987 1067.46 53.7987C1063.07 53.7987 1060.05 56.5435 1060.05 60.9353C1060.05 71.0911 1073.77 71.0911 1095.18 76.3063C1124.83 83.4429 1148.71 99.9119 1148.98 136.418C1149.25 181.433 1111.92 202.02 1070.2 202.02Z" fill="white"/>
<path d="M1070.2 202.02C1033.42 202.02 992.525 185.002 989.505 132.575C989.231 129.282 991.152 127.36 994.172 127.36H1053.46C1057.03 127.36 1059.22 129.556 1059.22 132.575C1059.5 139.437 1062.24 144.653 1070.48 144.653C1075.97 144.653 1078.99 140.81 1079.26 136.418C1078.99 124.89 1065.26 124.341 1043.58 120.498C1014.21 115.283 990.054 99.3629 990.329 63.1311C990.054 23.88 1023.54 0 1066.36 0C1096.28 0 1140.2 13.7242 1142.39 64.2291C1142.39 67.5229 1140.47 69.4442 1137.45 69.4442H1082.28C1078.99 69.4442 1077.34 67.5229 1077.07 64.5035C1076.79 59.5629 1075.42 53.7987 1067.46 53.7987C1063.07 53.7987 1060.05 56.5435 1060.05 60.9353C1060.05 71.0911 1073.77 71.0911 1095.18 76.3063C1124.83 83.4429 1148.71 99.9119 1148.98 136.418C1149.25 181.433 1111.92 202.02 1070.2 202.02Z" fill="#000000"/>
</svg>
