<svg width="1515" height="203" viewBox="0 0 1515 203" fill="none" xmlns="http://www.w3.org/2000/svg">
<path d="M4.9407 198.177C1.92138 198.177 0 196.255 0 193.236V10.9793C0 7.96002 1.92138 6.03863 4.9407 6.03863H67.5229C70.5422 6.03863 72.4635 7.96002 72.4635 10.9793V132.301H126.537C129.556 132.301 131.477 134.222 131.477 137.242V193.236C131.477 196.255 129.556 198.177 126.537 198.177H4.9407Z" fill="white"/>
<path d="M4.9407 198.177C1.92138 198.177 0 196.255 0 193.236V10.9793C0 7.96002 1.92138 6.03863 4.9407 6.03863H67.5229C70.5422 6.03863 72.4635 7.96002 72.4635 10.9793V132.301H126.537C129.556 132.301 131.477 134.222 131.477 137.242V193.236C131.477 196.255 129.556 198.177 126.537 198.177H4.9407Z" fill="#000000"/>
<path d="M244.749 202.843C184.088 202.843 140.72 156.73 140.72 101.833C140.72 46.9366 184.088 1.09793 244.749 1.09793C305.135 1.09793 348.778 46.9366 348.778 101.833C348.778 156.73 305.135 202.843 244.749 202.843ZM244.749 128.184C260.669 128.184 272.472 116.106 272.472 101.833C272.472 87.5601 260.669 75.4829 244.749 75.4829C228.829 75.4829 217.026 87.5601 217.026 101.833C217.026 116.106 228.829 128.184 244.749 128.184Z" fill="white"/>
<path d="M244.749 202.843C184.088 202.843 140.72 156.73 140.72 101.833C140.72 46.9366 184.088 1.09793 244.749 1.09793C305.135 1.09793 348.778 46.9366 348.778 101.833C348.778 156.73 305.135 202.843 244.749 202.843ZM244.749 128.184C260.669 128.184 272.472 116.106 272.472 101.833C272.472 87.5601 260.669 75.4829 244.749 75.4829C228.829 75.4829 217.026 87.5601 217.026 101.833C217.026 116.106 228.829 128.184 244.749 128.184Z" fill="#000000"/>
<path d="M528.944 119.859C528.944 113.332 526.803 108.131 522.52 104.256C518.441 100.177 513.852 96.4041 508.753 92.9369C503.858 89.2658 499.269 85.3906 494.986 81.3116C490.907 77.0285 488.868 71.4198 488.868 64.4854V5.44092H566.268V63.5676C556.886 63.5676 551.277 64.3834 549.442 66.0151C547.606 67.6467 546.688 72.7455 546.688 81.3116V128.119C546.688 151.777 540.468 169.929 528.027 182.574C515.586 195.016 494.476 201.236 464.699 201.236C433.902 201.236 412.487 195.525 400.454 184.104C388.625 172.479 382.914 153.919 383.322 128.425V81.9234C383.322 77.6404 383.22 74.2752 383.016 71.8277C383.016 69.3803 382.404 67.6467 381.18 66.6269C379.957 65.4032 378.019 64.6894 375.368 64.4854C372.716 64.0775 368.841 63.8736 363.742 63.8736V5.44092H464.393V64.4854C458.683 64.4854 454.298 64.6894 451.238 65.0973C448.179 65.3012 445.935 66.0151 444.508 67.2388C443.08 68.2586 442.264 69.9922 442.06 72.4396C441.856 74.887 441.754 78.2523 441.754 82.5353V104.256C441.754 111.191 442.264 117.003 443.284 121.694C444.508 126.181 446.751 129.852 450.014 132.708C453.278 135.563 457.867 137.603 463.781 138.826C469.696 140.05 477.344 140.662 486.726 140.662C501.615 140.662 512.322 138.826 518.849 135.155C525.579 131.484 528.944 126.385 528.944 119.859Z" fill="white"/>
<path d="M528.944 119.859C528.944 113.332 526.803 108.131 522.52 104.256C518.441 100.177 513.852 96.4041 508.753 92.9369C503.858 89.2658 499.269 85.3906 494.986 81.3116C490.907 77.0285 488.868 71.4198 488.868 64.4854V5.44092H566.268V63.5676C556.886 63.5676 551.277 64.3834 549.442 66.0151C547.606 67.6467 546.688 72.7455 546.688 81.3116V128.119C546.688 151.777 540.468 169.929 528.027 182.574C515.586 195.016 494.476 201.236 464.699 201.236C433.902 201.236 412.487 195.525 400.454 184.104C388.625 172.479 382.914 153.919 383.322 128.425V81.9234C383.322 77.6404 383.22 74.2752 383.016 71.8277C383.016 69.3803 382.404 67.6467 381.18 66.6269C379.957 65.4032 378.019 64.6894 375.368 64.4854C372.716 64.0775 368.841 63.8736 363.742 63.8736V5.44092H464.393V64.4854C458.683 64.4854 454.298 64.6894 451.238 65.0973C448.179 65.3012 445.935 66.0151 444.508 67.2388C443.08 68.2586 442.264 69.9922 442.06 72.4396C441.856 74.887 441.754 78.2523 441.754 82.5353V104.256C441.754 111.191 442.264 117.003 443.284 121.694C444.508 126.181 446.751 129.852 450.014 132.708C453.278 135.563 457.867 137.603 463.781 138.826C469.696 140.05 477.344 140.662 486.726 140.662C501.615 140.662 512.322 138.826 518.849 135.155C525.579 131.484 528.944 126.385 528.944 119.859Z" fill="#000000"/>
<path d="M592.549 198.177C589.53 198.177 587.608 196.255 587.608 193.236V10.9793C587.608 7.96002 589.53 6.03863 592.549 6.03863H655.131C658.151 6.03863 660.072 7.96002 660.072 10.9793V193.236C660.072 196.255 658.151 198.177 655.131 198.177H592.549Z" fill="white"/>
<path d="M592.549 198.177C589.53 198.177 587.608 196.255 587.608 193.236V10.9793C587.608 7.96002 589.53 6.03863 592.549 6.03863H655.131C658.151 6.03863 660.072 7.96002 660.072 10.9793V193.236C660.072 196.255 658.151 198.177 655.131 198.177H592.549Z" fill="#000000"/>
<path d="M759.731 202.02C722.95 202.02 682.052 185.002 679.033 132.575C678.758 129.282 680.68 127.36 683.699 127.36H742.987C746.556 127.36 748.751 129.556 748.751 132.575C749.026 139.437 751.771 144.653 760.005 144.653C765.495 144.653 768.514 140.81 768.789 136.418C768.514 124.89 754.79 124.341 733.106 120.498C703.736 115.283 679.582 99.3629 679.856 63.1311C679.582 23.88 713.069 0 755.888 0C785.807 0 829.724 13.7242 831.92 64.2291C831.92 67.5229 829.999 69.4442 826.979 69.4442H771.808C768.514 69.4442 766.867 67.5229 766.593 64.5035C766.318 59.5629 764.946 53.7987 756.986 53.7987C752.594 53.7987 749.575 56.5435 749.575 60.9353C749.575 71.0911 763.299 71.0911 784.709 76.3063C814.353 83.4429 838.233 99.9119 838.507 136.418C838.782 181.433 801.452 202.02 759.731 202.02Z" fill="white"/>
<path d="M759.731 202.02C722.95 202.02 682.052 185.002 679.033 132.575C678.758 129.282 680.68 127.36 683.699 127.36H742.987C746.556 127.36 748.751 129.556 748.751 132.575C749.026 139.437 751.771 144.653 760.005 144.653C765.495 144.653 768.514 140.81 768.789 136.418C768.514 124.89 754.79 124.341 733.106 120.498C703.736 115.283 679.582 99.3629 679.856 63.1311C679.582 23.88 713.069 0 755.888 0C785.807 0 829.724 13.7242 831.92 64.2291C831.92 67.5229 829.999 69.4442 826.979 69.4442H771.808C768.514 69.4442 766.867 67.5229 766.593 64.5035C766.318 59.5629 764.946 53.7987 756.986 53.7987C752.594 53.7987 749.575 56.5435 749.575 60.9353C749.575 71.0911 763.299 71.0911 784.709 76.3063C814.353 83.4429 838.233 99.9119 838.507 136.418C838.782 181.433 801.452 202.02 759.731 202.02Z" fill="#000000"/>
<path d="M860.856 198.177C857.837 198.177 855.916 196.255 855.916 193.236V10.9793C855.916 7.96002 857.837 6.03863 860.856 6.03863H923.439C926.458 6.03863 928.379 7.96002 928.379 10.9793V193.236C928.379 196.255 926.458 198.177 923.439 198.177H860.856Z" fill="white"/>
<path d="M860.856 198.177C857.837 198.177 855.916 196.255 855.916 193.236V10.9793C855.916 7.96002 857.837 6.03863 860.856 6.03863H923.439C926.458 6.03863 928.379 7.96002 928.379 10.9793V193.236C928.379 196.255 926.458 198.177 923.439 198.177H860.856Z" fill="#000000"/>
<path d="M944.784 198.177V197.565C948.047 193.282 951.31 187.163 954.574 179.209C958.041 171.051 961.508 161.771 964.975 151.37C968.442 140.764 971.91 129.75 975.377 118.329C967.219 115.27 960.59 111.905 955.491 108.233C950.596 104.358 948.149 98.9535 948.149 92.0191C948.149 87.9401 949.373 84.3709 951.82 81.3116C954.472 78.0483 958.347 76.4167 963.446 76.4167C967.729 76.4167 971.298 77.8444 974.153 80.6997C977.212 83.3511 978.742 87.0223 978.742 91.7132C978.742 96.4041 977.518 100.177 975.071 103.033C972.623 105.888 968.748 107.316 963.446 107.316C959.163 107.316 955.593 106.092 952.738 103.644C955.185 106.5 958.551 108.437 962.834 109.457C967.321 110.477 972.216 111.089 977.518 111.293C980.986 98.8516 984.351 86.5124 987.614 74.2752C991.081 62.038 994.344 50.8205 997.404 40.6229C998.628 36.5438 999.545 32.9746 1000.16 29.9153C1000.97 26.6521 1001.38 23.6947 1001.38 21.0434C1001.38 13.2931 997.2 8.29627 988.838 6.05279V5.44092H1090.41V6.05279C1087.14 6.86861 1084.59 8.80616 1082.76 11.8655C1080.92 14.7208 1080 19.0038 1080 24.7145C1080 30.8331 1081.23 38.9913 1083.68 49.1889C1092.85 85.9005 1103.56 122.306 1115.8 158.406C1118.86 167.584 1121.82 175.436 1124.67 181.963C1127.53 188.285 1130.59 193.486 1133.85 197.565V198.177H1052.17V197.565C1058.08 195.933 1062.26 193.486 1064.71 190.223C1067.36 186.959 1068.69 182.778 1068.69 177.68C1068.69 175.436 1068.48 172.989 1068.07 170.337C1067.67 167.686 1067.05 164.728 1066.24 161.465C1065.42 157.794 1062.36 154.225 1057.06 150.758C1051.96 147.29 1045.43 144.027 1037.48 140.968C1029.53 137.705 1021.06 134.543 1012.09 131.484C1009.64 141.07 1007.09 151.064 1004.44 161.465C1003.83 164.525 1003.32 167.38 1002.91 170.031C1002.5 172.683 1002.3 175.13 1002.3 177.374C1002.3 182.676 1003.52 186.959 1005.97 190.223C1008.42 193.486 1012.6 195.933 1018.51 197.565V198.177H944.784ZM1017.9 110.375C1024.02 110.783 1030.04 112.414 1035.95 115.27C1041.87 118.125 1047.37 122.918 1052.47 129.649C1057.77 136.379 1062.67 145.863 1067.16 158.1H1067.77C1062.67 138.317 1057.88 118.839 1053.39 99.6674C1048.9 80.4958 1044.21 62.5479 1039.32 45.8237H1038.09C1034.83 55.2055 1031.46 65.3012 1028 76.1108C1024.73 86.7163 1021.37 98.1377 1017.9 110.375Z" fill="white"/>
<path d="M944.784 198.177V197.565C948.047 193.282 951.31 187.163 954.574 179.209C958.041 171.051 961.508 161.771 964.975 151.37C968.442 140.764 971.91 129.75 975.377 118.329C967.219 115.27 960.59 111.905 955.491 108.233C950.596 104.358 948.149 98.9535 948.149 92.0191C948.149 87.9401 949.373 84.3709 951.82 81.3116C954.472 78.0483 958.347 76.4167 963.446 76.4167C967.729 76.4167 971.298 77.8444 974.153 80.6997C977.212 83.3511 978.742 87.0223 978.742 91.7132C978.742 96.4041 977.518 100.177 975.071 103.033C972.623 105.888 968.748 107.316 963.446 107.316C959.163 107.316 955.593 106.092 952.738 103.644C955.185 106.5 958.551 108.437 962.834 109.457C967.321 110.477 972.216 111.089 977.518 111.293C980.986 98.8516 984.351 86.5124 987.614 74.2752C991.081 62.038 994.344 50.8205 997.404 40.6229C998.628 36.5438 999.545 32.9746 1000.16 29.9153C1000.97 26.6521 1001.38 23.6947 1001.38 21.0434C1001.38 13.2931 997.2 8.29627 988.838 6.05279V5.44092H1090.41V6.05279C1087.14 6.86861 1084.59 8.80616 1082.76 11.8655C1080.92 14.7208 1080 19.0038 1080 24.7145C1080 30.8331 1081.23 38.9913 1083.68 49.1889C1092.85 85.9005 1103.56 122.306 1115.8 158.406C1118.86 167.584 1121.82 175.436 1124.67 181.963C1127.53 188.285 1130.59 193.486 1133.85 197.565V198.177H1052.17V197.565C1058.08 195.933 1062.26 193.486 1064.71 190.223C1067.36 186.959 1068.69 182.778 1068.69 177.68C1068.69 175.436 1068.48 172.989 1068.07 170.337C1067.67 167.686 1067.05 164.728 1066.24 161.465C1065.42 157.794 1062.36 154.225 1057.06 150.758C1051.96 147.29 1045.43 144.027 1037.48 140.968C1029.53 137.705 1021.06 134.543 1012.09 131.484C1009.64 141.07 1007.09 151.064 1004.44 161.465C1003.83 164.525 1003.32 167.38 1002.91 170.031C1002.5 172.683 1002.3 175.13 1002.3 177.374C1002.3 182.676 1003.52 186.959 1005.97 190.223C1008.42 193.486 1012.6 195.933 1018.51 197.565V198.177H944.784ZM1017.9 110.375C1024.02 110.783 1030.04 112.414 1035.95 115.27C1041.87 118.125 1047.37 122.918 1052.47 129.649C1057.77 136.379 1062.67 145.863 1067.16 158.1H1067.77C1062.67 138.317 1057.88 118.839 1053.39 99.6674C1048.9 80.4958 1044.21 62.5479 1039.32 45.8237H1038.09C1034.83 55.2055 1031.46 65.3012 1028 76.1108C1024.73 86.7163 1021.37 98.1377 1017.9 110.375Z" fill="#000000"/>
<path d="M1147.7 198.177C1144.68 198.177 1142.76 196.255 1142.76 193.236V10.9793C1142.76 7.96002 1144.68 6.03863 1147.7 6.03863H1213.3C1216.05 6.03863 1218.24 7.68554 1218.79 10.4304L1233.61 76.8553C1235.81 86.7367 1236.91 96.8926 1239.1 106.774L1241.02 106.499C1240.2 97.167 1238.28 76.3063 1238.28 69.4442L1237.73 10.9793C1237.73 7.96002 1239.65 6.03863 1242.67 6.03863H1302.51C1305.53 6.03863 1307.45 7.96002 1307.45 10.9793V193.236C1307.45 196.255 1305.53 198.177 1302.51 198.177H1243.77C1241.02 198.177 1239.1 197.079 1238.28 194.06L1219.61 127.36C1216.87 117.479 1214.95 107.323 1212.75 97.4415L1210.83 97.716C1211.93 107.048 1213.85 127.909 1213.85 134.771L1214.4 193.236C1214.4 196.255 1212.48 198.177 1209.46 198.177H1147.7Z" fill="white"/>
<path d="M1147.7 198.177C1144.68 198.177 1142.76 196.255 1142.76 193.236V10.9793C1142.76 7.96002 1144.68 6.03863 1147.7 6.03863H1213.3C1216.05 6.03863 1218.24 7.68554 1218.79 10.4304L1233.61 76.8553C1235.81 86.7367 1236.91 96.8926 1239.1 106.774L1241.02 106.499C1240.2 97.167 1238.28 76.3063 1238.28 69.4442L1237.73 10.9793C1237.73 7.96002 1239.65 6.03863 1242.67 6.03863H1302.51C1305.53 6.03863 1307.45 7.96002 1307.45 10.9793V193.236C1307.45 196.255 1305.53 198.177 1302.51 198.177H1243.77C1241.02 198.177 1239.1 197.079 1238.28 194.06L1219.61 127.36C1216.87 117.479 1214.95 107.323 1212.75 97.4415L1210.83 97.716C1211.93 107.048 1213.85 127.909 1213.85 134.771L1214.4 193.236C1214.4 196.255 1212.48 198.177 1209.46 198.177H1147.7Z" fill="#000000"/>
<path d="M1326.67 198.177C1323.37 198.177 1321.45 196.255 1322.27 192.687L1369.49 10.1559C1370.31 7.13657 1371.96 6.03863 1374.98 6.03863H1461.71C1464.73 6.03863 1466.38 7.13657 1467.2 10.1559L1514.14 192.687C1514.96 196.255 1513.04 198.177 1509.75 198.177H1443.05C1440.03 198.177 1438.38 196.53 1437.83 193.785L1432.07 166.886H1404.07L1398.31 193.785C1397.76 196.53 1396.11 198.177 1393.09 198.177H1326.67ZM1408.74 121.596H1427.4L1420.81 84.2663L1419.44 73.0125H1416.7L1415.32 84.2663L1408.74 121.596Z" fill="white"/>
<path d="M1326.67 198.177C1323.37 198.177 1321.45 196.255 1322.27 192.687L1369.49 10.1559C1370.31 7.13657 1371.96 6.03863 1374.98 6.03863H1461.71C1464.73 6.03863 1466.38 7.13657 1467.2 10.1559L1514.14 192.687C1514.96 196.255 1513.04 198.177 1509.75 198.177H1443.05C1440.03 198.177 1438.38 196.53 1437.83 193.785L1432.07 166.886H1404.07L1398.31 193.785C1397.76 196.53 1396.11 198.177 1393.09 198.177H1326.67ZM1408.74 121.596H1427.4L1420.81 84.2663L1419.44 73.0125H1416.7L1415.32 84.2663L1408.74 121.596Z" fill="#000000"/>
</svg>
