<svg width="1579" height="194" viewBox="0 0 1579 194" fill="none" xmlns="http://www.w3.org/2000/svg">
<path d="M4.9407 193.654C1.92138 193.654 0 191.732 0 188.713V6.45619C0 3.43688 1.92138 1.51549 4.9407 1.51549H76.3063C79.0511 1.51549 81.247 3.1624 81.796 5.90723L97.4415 70.6852L106.774 111.583H108.421L117.753 70.9597L133.399 5.90723C133.948 3.1624 136.144 1.51549 138.888 1.51549H210.254C213.273 1.51549 215.195 3.43688 215.195 6.45619V188.713C215.195 191.732 213.273 193.654 210.254 193.654H152.887C149.868 193.654 147.946 191.732 147.946 188.713L148.221 149.462C148.221 135.738 150.966 102.251 152.064 94.5653L149.868 94.2908C148.221 102.525 143.28 125.856 141.084 134.091L126.262 189.536C125.439 192.556 123.517 193.654 120.773 193.654H95.2457C92.5008 193.654 90.5794 192.556 89.756 189.536L74.9339 134.091C72.738 125.856 67.7973 102.525 66.1504 94.2908L63.9546 94.5653C65.0525 102.251 67.7973 135.738 67.7973 149.462L68.0718 188.713C68.0718 191.732 66.1504 193.654 63.1311 193.654H4.9407Z" fill="white"/>
<path d="M4.9407 193.654C1.92138 193.654 0 191.732 0 188.713V6.45619C0 3.43688 1.92138 1.51549 4.9407 1.51549H76.3063C79.0511 1.51549 81.247 3.1624 81.796 5.90723L97.4415 70.6852L106.774 111.583H108.421L117.753 70.9597L133.399 5.90723C133.948 3.1624 136.144 1.51549 138.888 1.51549H210.254C213.273 1.51549 215.195 3.43688 215.195 6.45619V188.713C215.195 191.732 213.273 193.654 210.254 193.654H152.887C149.868 193.654 147.946 191.732 147.946 188.713L148.221 149.462C148.221 135.738 150.966 102.251 152.064 94.5653L149.868 94.2908C148.221 102.525 143.28 125.856 141.084 134.091L126.262 189.536C125.439 192.556 123.517 193.654 120.773 193.654H95.2457C92.5008 193.654 90.5794 192.556 89.756 189.536L74.9339 134.091C72.738 125.856 67.7973 102.525 66.1504 94.2908L63.9546 94.5653C65.0525 102.251 67.7973 135.738 67.7973 149.462L68.0718 188.713C68.0718 191.732 66.1504 193.654 63.1311 193.654H4.9407Z" fill="#000000"/>
<path d="M234.301 193.654C231.008 193.654 229.086 191.732 229.91 188.164L277.121 5.63273C277.944 2.61343 279.591 1.51549 282.61 1.51549H369.347C372.366 1.51549 374.013 2.61343 374.837 5.63273L421.773 188.164C422.597 191.732 420.675 193.654 417.382 193.654H350.682C347.663 193.654 346.016 192.007 345.467 189.262L339.703 162.363H311.706L305.941 189.262C305.392 192.007 303.746 193.654 300.726 193.654H234.301ZM316.372 117.073H335.037L328.449 79.7432L327.077 68.4894H324.332L322.959 79.7432L316.372 117.073Z" fill="white"/>
<path d="M234.301 193.654C231.008 193.654 229.086 191.732 229.91 188.164L277.121 5.63273C277.944 2.61343 279.591 1.51549 282.61 1.51549H369.347C372.366 1.51549 374.013 2.61343 374.837 5.63273L421.773 188.164C422.597 191.732 420.675 193.654 417.382 193.654H350.682C347.663 193.654 346.016 192.007 345.467 189.262L339.703 162.363H311.706L305.941 189.262C305.392 192.007 303.746 193.654 300.726 193.654H234.301ZM316.372 117.073H335.037L328.449 79.7432L327.077 68.4894H324.332L322.959 79.7432L316.372 117.073Z" fill="#000000"/>
<path d="M441.583 193.654C438.564 193.654 436.643 191.732 436.643 188.713V6.45619C436.643 3.43688 438.564 1.51549 441.583 1.51549H535.182C576.904 1.51549 602.979 28.9638 602.979 63.5487C602.979 85.5073 595.019 101.153 578.825 112.956L612.861 187.89C614.508 191.183 612.861 193.654 609.292 193.654H544.24C541.495 193.654 539.848 192.281 538.75 189.811L526.399 156.873L515.694 129.15H508.283C508.832 137.934 509.106 146.717 509.106 155.226V188.713C509.106 191.732 507.185 193.654 504.165 193.654H441.583ZM522.281 82.488C529.418 82.488 533.81 78.6453 533.81 70.4108C533.81 61.9018 529.418 58.608 522.281 58.608H506.91V82.488H522.281Z" fill="white"/>
<path d="M441.583 193.654C438.564 193.654 436.643 191.732 436.643 188.713V6.45619C436.643 3.43688 438.564 1.51549 441.583 1.51549H535.182C576.904 1.51549 602.979 28.9638 602.979 63.5487C602.979 85.5073 595.019 101.153 578.825 112.956L612.861 187.89C614.508 191.183 612.861 193.654 609.292 193.654H544.24C541.495 193.654 539.848 192.281 538.75 189.811L526.399 156.873L515.694 129.15H508.283C508.832 137.934 509.106 146.717 509.106 155.226V188.713C509.106 191.732 507.185 193.654 504.165 193.654H441.583ZM522.281 82.488C529.418 82.488 533.81 78.6453 533.81 70.4108C533.81 61.9018 529.418 58.608 522.281 58.608H506.91V82.488H522.281Z" fill="#000000"/>
<path d="M669.556 193.654V193.042C676.898 183.558 678.428 172.545 678.734 156.942C678.734 153.271 678.734 149.294 678.734 145.623C659.766 105.852 640.186 66.0809 625.196 34.5701C617.854 19.5795 612.959 7.64824 605.616 1.52965V0.917778H686.076V1.52965C673.839 4.89487 669.25 10.0957 669.25 19.5795C669.25 22.9447 669.862 26.9218 671.085 31.8167C676.592 53.5377 688.829 78.3181 700.761 101.569C710.244 83.213 719.422 63.9394 726.459 47.1132C729.824 39.465 731.66 33.0404 731.66 28.1456C731.66 17.438 724.011 11.9313 706.879 11.9313C693.418 11.9313 684.546 18.9677 682.405 32.1227C685.77 24.7803 692.806 19.5795 701.678 19.5795C714.833 19.5795 720.646 29.6752 720.646 39.159C720.646 49.8666 714.527 61.186 701.678 61.186C690.665 61.186 680.263 53.5377 680.263 36.7116C680.263 18.0499 689.441 0 724.929 0C741.143 0 768.065 0.917778 794.987 0.917778V1.52965C780.914 21.1092 751.851 84.1307 722.176 145.929C722.482 149.6 722.482 153.577 722.482 157.248C722.788 172.85 724.011 183.558 731.354 193.042V193.654H669.556Z" fill="white"/>
<path d="M669.556 193.654V193.042C676.898 183.558 678.428 172.545 678.734 156.942C678.734 153.271 678.734 149.294 678.734 145.623C659.766 105.852 640.186 66.0809 625.196 34.5701C617.854 19.5795 612.959 7.64824 605.616 1.52965V0.917778H686.076V1.52965C673.839 4.89487 669.25 10.0957 669.25 19.5795C669.25 22.9447 669.862 26.9218 671.085 31.8167C676.592 53.5377 688.829 78.3181 700.761 101.569C710.244 83.213 719.422 63.9394 726.459 47.1132C729.824 39.465 731.66 33.0404 731.66 28.1456C731.66 17.438 724.011 11.9313 706.879 11.9313C693.418 11.9313 684.546 18.9677 682.405 32.1227C685.77 24.7803 692.806 19.5795 701.678 19.5795C714.833 19.5795 720.646 29.6752 720.646 39.159C720.646 49.8666 714.527 61.186 701.678 61.186C690.665 61.186 680.263 53.5377 680.263 36.7116C680.263 18.0499 689.441 0 724.929 0C741.143 0 768.065 0.917778 794.987 0.917778V1.52965C780.914 21.1092 751.851 84.1307 722.176 145.929C722.482 149.6 722.482 153.577 722.482 157.248C722.788 172.85 724.011 183.558 731.354 193.042V193.654H669.556Z" fill="#000000"/>
<path d="M809.017 193.654C805.997 193.654 804.076 191.732 804.076 188.713V6.45619C804.076 3.43688 805.997 1.51549 809.017 1.51549H871.599C874.618 1.51549 876.54 3.43688 876.54 6.45619V127.778H930.613C933.632 127.778 935.553 129.699 935.553 132.718V188.713C935.553 191.732 933.632 193.654 930.613 193.654H809.017Z" fill="white"/>
<path d="M809.017 193.654C805.997 193.654 804.076 191.732 804.076 188.713V6.45619C804.076 3.43688 805.997 1.51549 809.017 1.51549H871.599C874.618 1.51549 876.54 3.43688 876.54 6.45619V127.778H930.613C933.632 127.778 935.553 129.699 935.553 132.718V188.713C935.553 191.732 933.632 193.654 930.613 193.654H809.017Z" fill="#000000"/>
<path d="M953.138 193.654C949.844 193.654 947.922 191.732 948.746 188.164L995.957 5.63273C996.78 2.61343 998.427 1.51549 1001.45 1.51549H1088.18C1091.2 1.51549 1092.85 2.61343 1093.67 5.63273L1140.61 188.164C1141.43 191.732 1139.51 193.654 1136.22 193.654H1069.52C1066.5 193.654 1064.85 192.007 1064.3 189.262L1058.54 162.363H1030.54L1024.78 189.262C1024.23 192.007 1022.58 193.654 1019.56 193.654H953.138ZM1035.21 117.073H1053.87L1047.29 79.7432L1045.91 68.4894H1043.17L1041.8 79.7432L1035.21 117.073Z" fill="white"/>
<path d="M953.138 193.654C949.844 193.654 947.922 191.732 948.746 188.164L995.957 5.63273C996.78 2.61343 998.427 1.51549 1001.45 1.51549H1088.18C1091.2 1.51549 1092.85 2.61343 1093.67 5.63273L1140.61 188.164C1141.43 191.732 1139.51 193.654 1136.22 193.654H1069.52C1066.5 193.654 1064.85 192.007 1064.3 189.262L1058.54 162.363H1030.54L1024.78 189.262C1024.23 192.007 1022.58 193.654 1019.56 193.654H953.138ZM1035.21 117.073H1053.87L1047.29 79.7432L1045.91 68.4894H1043.17L1041.8 79.7432L1035.21 117.073Z" fill="#000000"/>
<path d="M1235.75 134.915V193.654H1158.66V134.915C1172.73 133.08 1178.24 117.171 1178.24 90.5553V77.0944C1178.24 60.2682 1178.54 59.3504 1158.66 59.3504V0.917778H1275.52V46.5014C1275.52 65.7749 1276.44 74.9529 1296.63 92.3909L1340.38 130.02V127.879C1340.38 96.062 1332.73 64.5512 1301.53 59.3504V0.917778H1378.62V59.0445C1364.85 62.7156 1358.74 70.9758 1358.74 99.7332V193.654H1261.45V140.728C1261.45 121.454 1255.03 113.5 1238.51 99.4272L1196.59 63.6334C1196.9 92.3909 1200.88 123.29 1235.75 134.915Z" fill="white"/>
<path d="M1235.75 134.915V193.654H1158.66V134.915C1172.73 133.08 1178.24 117.171 1178.24 90.5553V77.0944C1178.24 60.2682 1178.54 59.3504 1158.66 59.3504V0.917778H1275.52V46.5014C1275.52 65.7749 1276.44 74.9529 1296.63 92.3909L1340.38 130.02V127.879C1340.38 96.062 1332.73 64.5512 1301.53 59.3504V0.917778H1378.62V59.0445C1364.85 62.7156 1358.74 70.9758 1358.74 99.7332V193.654H1261.45V140.728C1261.45 121.454 1255.03 113.5 1238.51 99.4272L1196.59 63.6334C1196.9 92.3909 1200.88 123.29 1235.75 134.915Z" fill="#000000"/>
<path d="M1406.14 193.654C1403.12 193.654 1401.2 191.732 1401.2 188.713V6.45619C1401.2 3.43688 1403.12 1.51549 1406.14 1.51549H1489.31C1535.15 1.51549 1578.79 39.9431 1578.79 96.4867C1578.79 152.756 1535.15 193.654 1489.31 193.654H1406.14ZM1484.1 125.307C1497.82 125.307 1508.53 113.779 1508.53 96.4867C1508.53 78.9197 1497.82 69.5873 1484.1 69.5873H1473.12V125.307H1484.1Z" fill="white"/>
<path d="M1406.14 193.654C1403.12 193.654 1401.2 191.732 1401.2 188.713V6.45619C1401.2 3.43688 1403.12 1.51549 1406.14 1.51549H1489.31C1535.15 1.51549 1578.79 39.9431 1578.79 96.4867C1578.79 152.756 1535.15 193.654 1489.31 193.654H1406.14ZM1484.1 125.307C1497.82 125.307 1508.53 113.779 1508.53 96.4867C1508.53 78.9197 1497.82 69.5873 1484.1 69.5873H1473.12V125.307H1484.1Z" fill="#000000"/>
</svg>
