<svg width="1447" height="201" viewBox="0 0 1447 201" fill="none" xmlns="http://www.w3.org/2000/svg">
<path d="M4.9407 196.53C1.92138 196.53 0 194.609 0 191.589V9.33242C0 6.31311 1.92138 4.39172 4.9407 4.39172H76.3063C79.0511 4.39172 81.247 6.03863 81.796 8.78346L97.4415 73.5615L106.774 114.459H108.421L117.753 73.836L133.399 8.78346C133.948 6.03863 136.144 4.39172 138.888 4.39172H210.254C213.273 4.39172 215.195 6.31311 215.195 9.33242V191.589C215.195 194.609 213.273 196.53 210.254 196.53H152.887C149.868 196.53 147.946 194.609 147.946 191.589L148.221 152.338C148.221 138.614 150.966 105.127 152.064 97.4415L149.868 97.167C148.221 105.402 143.28 128.733 141.084 136.967L126.262 192.413C125.439 195.432 123.517 196.53 120.773 196.53H95.2457C92.5008 196.53 90.5794 195.432 89.756 192.413L74.9339 136.967C72.738 128.733 67.7973 105.402 66.1504 97.167L63.9546 97.4415C65.0525 105.127 67.7973 138.614 67.7973 152.338L68.0718 191.589C68.0718 194.609 66.1504 196.53 63.1311 196.53H4.9407Z" fill="white"/>
<path d="M4.9407 196.53C1.92138 196.53 0 194.609 0 191.589V9.33242C0 6.31311 1.92138 4.39172 4.9407 4.39172H76.3063C79.0511 4.39172 81.247 6.03863 81.796 8.78346L97.4415 73.5615L106.774 114.459H108.421L117.753 73.836L133.399 8.78346C133.948 6.03863 136.144 4.39172 138.888 4.39172H210.254C213.273 4.39172 215.195 6.31311 215.195 9.33242V191.589C215.195 194.609 213.273 196.53 210.254 196.53H152.887C149.868 196.53 147.946 194.609 147.946 191.589L148.221 152.338C148.221 138.614 150.966 105.127 152.064 97.4415L149.868 97.167C148.221 105.402 143.28 128.733 141.084 136.967L126.262 192.413C125.439 195.432 123.517 196.53 120.773 196.53H95.2457C92.5008 196.53 90.5794 195.432 89.756 192.413L74.9339 136.967C72.738 128.733 67.7973 105.402 66.1504 97.167L63.9546 97.4415C65.0525 105.127 67.7973 138.614 67.7973 152.338L68.0718 191.589C68.0718 194.609 66.1504 196.53 63.1311 196.53H4.9407Z" fill="#000000"/>
<path d="M243.634 196.53C240.614 196.53 238.693 194.609 238.693 191.589V9.33242C238.693 6.31311 240.614 4.39172 243.634 4.39172H306.216C309.235 4.39172 311.157 6.31311 311.157 9.33242V191.589C311.157 194.609 309.235 196.53 306.216 196.53H243.634Z" fill="white"/>
<path d="M243.634 196.53C240.614 196.53 238.693 194.609 238.693 191.589V9.33242C238.693 6.31311 240.614 4.39172 243.634 4.39172H306.216C309.235 4.39172 311.157 6.31311 311.157 9.33242V191.589C311.157 194.609 309.235 196.53 306.216 196.53H243.634Z" fill="#000000"/>
<path d="M431.063 200.922C373.696 200.922 331.7 156.73 331.7 100.461C331.7 44.1918 373.421 0 431.063 0C485.685 0 523.564 33.4869 529.053 85.9132C529.602 89.207 527.681 91.1284 524.387 91.1284H461.805C459.06 91.1284 457.139 89.756 456.041 87.0112C453.022 80.4236 446.708 74.1104 435.18 74.1104C420.633 74.1104 410.751 86.1877 410.751 100.461C410.751 115.283 420.633 126.811 435.18 126.811C446.708 126.811 453.022 120.224 456.041 113.636C457.139 110.891 459.06 109.519 461.805 109.519H523.838C527.132 109.519 529.053 111.166 528.779 114.459C524.662 166.886 485.96 200.922 431.063 200.922Z" fill="white"/>
<path d="M431.063 200.922C373.696 200.922 331.7 156.73 331.7 100.461C331.7 44.1918 373.421 0 431.063 0C485.685 0 523.564 33.4869 529.053 85.9132C529.602 89.207 527.681 91.1284 524.387 91.1284H461.805C459.06 91.1284 457.139 89.756 456.041 87.0112C453.022 80.4236 446.708 74.1104 435.18 74.1104C420.633 74.1104 410.751 86.1877 410.751 100.461C410.751 115.283 420.633 126.811 435.18 126.811C446.708 126.811 453.022 120.224 456.041 113.636C457.139 110.891 459.06 109.519 461.805 109.519H523.838C527.132 109.519 529.053 111.166 528.779 114.459C524.662 166.886 485.96 200.922 431.063 200.922Z" fill="#000000"/>
<path d="M645.741 196.53C642.722 196.53 640.8 194.609 640.8 191.589V124.89H620.488V191.589C620.488 194.609 618.567 196.53 615.548 196.53H552.417C549.397 196.53 547.476 194.609 547.476 191.589V9.33242C547.476 6.31311 549.397 4.39172 552.417 4.39172H615.548C618.567 4.39172 620.488 6.31311 620.488 9.33242V73.0125H640.8V9.33242C640.8 6.31311 642.722 4.39172 645.741 4.39172H708.872C711.891 4.39172 713.813 6.31311 713.813 9.33242V191.589C713.813 194.609 711.891 196.53 708.872 196.53H645.741Z" fill="white"/>
<path d="M645.741 196.53C642.722 196.53 640.8 194.609 640.8 191.589V124.89H620.488V191.589C620.488 194.609 618.567 196.53 615.548 196.53H552.417C549.397 196.53 547.476 194.609 547.476 191.589V9.33242C547.476 6.31311 549.397 4.39172 552.417 4.39172H615.548C618.567 4.39172 620.488 6.31311 620.488 9.33242V73.0125H640.8V9.33242C640.8 6.31311 642.722 4.39172 645.741 4.39172H708.872C711.891 4.39172 713.813 6.31311 713.813 9.33242V191.589C713.813 194.609 711.891 196.53 708.872 196.53H645.741Z" fill="#000000"/>
<path d="M742.325 196.53C739.305 196.53 737.384 194.609 737.384 191.589V9.33242C737.384 6.31311 739.305 4.39172 742.325 4.39172H804.907C807.926 4.39172 809.847 6.31311 809.847 9.33242V191.589C809.847 194.609 807.926 196.53 804.907 196.53H742.325Z" fill="white"/>
<path d="M742.325 196.53C739.305 196.53 737.384 194.609 737.384 191.589V9.33242C737.384 6.31311 739.305 4.39172 742.325 4.39172H804.907C807.926 4.39172 809.847 6.31311 809.847 9.33242V191.589C809.847 194.609 807.926 196.53 804.907 196.53H742.325Z" fill="#000000"/>
<path d="M925.373 197.754C918.643 197.754 911.708 197.652 904.57 197.448C897.636 197.448 891.211 197.346 885.297 197.142C879.586 197.142 874.997 197.04 871.53 196.836C856.029 195.816 845.424 192.043 839.713 185.516C834.002 178.99 831.147 168.384 831.147 153.7C831.147 130.245 831.759 109.544 832.983 91.5959C834.41 73.648 835.838 58.6575 837.266 46.6242C839.101 29.9 843.792 18.5806 851.338 12.666C858.885 6.75134 870.612 3.79401 886.52 3.79401H992.984C992.78 7.66913 992.678 11.6462 992.678 15.7253C992.678 19.8044 992.678 24.1893 992.678 28.8803C992.678 33.7752 992.678 38.4661 992.678 42.9531C992.882 47.44 993.086 52.5389 993.29 58.2496H992.372C990.74 51.5191 986.967 47.44 981.053 46.0124C975.342 44.5847 965.858 43.8709 952.601 43.8709H903.346C897.024 43.8709 892.231 44.2788 888.968 45.0946C885.704 45.9104 883.359 47.542 881.931 49.9894C880.708 52.4369 879.688 56.21 878.872 61.3089C877.852 68.2433 876.833 78.237 875.813 91.29C874.793 104.139 874.283 118.722 874.283 135.038C874.283 139.729 874.691 143.502 875.507 146.357C876.323 149.213 878.158 151.354 881.014 152.782C883.869 154.006 888.254 154.821 894.169 155.229C900.287 155.637 908.649 155.841 919.255 155.841C931.084 155.841 939.65 155.433 944.953 154.618C950.46 153.598 953.927 151.558 955.355 148.499C956.986 145.44 957.802 140.545 957.802 133.814C957.802 130.755 957.802 128.308 957.802 126.472C957.802 124.432 957.598 122.393 957.19 120.353C956.578 115.458 955.457 111.685 953.825 109.034C952.397 106.383 949.746 104.547 945.871 103.527C941.996 102.303 936.081 101.692 928.127 101.692C919.969 101.692 913.748 102.813 909.465 105.057C905.386 107.3 902.633 110.054 901.205 113.317C899.777 116.58 899.063 119.741 899.063 122.801C899.063 125.656 899.471 128.613 900.287 131.673C901.103 134.732 902.429 137.587 904.264 140.239C903.448 138.811 902.735 137.281 902.123 135.65C901.511 133.814 901.205 131.979 901.205 130.143C901.205 122.393 903.142 116.784 907.018 113.317C911.097 109.646 915.89 107.81 921.396 107.81C927.515 107.81 932.512 109.748 936.387 113.623C940.262 117.294 942.2 122.495 942.2 129.225C942.2 134.324 940.364 138.913 936.693 142.992C933.022 147.071 927.923 149.111 921.396 149.111C917.725 149.111 913.85 148.193 909.771 146.357C905.896 144.318 902.633 140.851 899.981 135.956C897.33 130.857 896.004 123.923 896.004 115.153C896.004 106.994 896.718 99.4481 898.146 92.5137C899.777 85.3754 902.939 79.5627 907.629 75.0757C912.32 70.5887 919.255 68.3452 928.433 68.3452H1009.5V68.9571C1005.22 71.6085 1002.57 74.0559 1001.55 76.2994C1000.53 78.339 1000.02 81.2963 1000.02 85.1714C1000.02 93.3295 1000.43 103.119 1001.24 114.541C1002.26 125.962 1002.77 139.015 1002.77 153.7C1002.77 164.917 1001.45 173.585 998.797 179.704C996.145 185.618 991.454 189.799 984.724 192.247C978.197 194.49 969.121 196.122 957.496 197.142C953.825 197.346 949.44 197.448 944.341 197.448C939.242 197.652 932.92 197.754 925.373 197.754Z" fill="white"/>
<path d="M925.373 197.754C918.643 197.754 911.708 197.652 904.57 197.448C897.636 197.448 891.211 197.346 885.297 197.142C879.586 197.142 874.997 197.04 871.53 196.836C856.029 195.816 845.424 192.043 839.713 185.516C834.002 178.99 831.147 168.384 831.147 153.7C831.147 130.245 831.759 109.544 832.983 91.5959C834.41 73.648 835.838 58.6575 837.266 46.6242C839.101 29.9 843.792 18.5806 851.338 12.666C858.885 6.75134 870.612 3.79401 886.52 3.79401H992.984C992.78 7.66913 992.678 11.6462 992.678 15.7253C992.678 19.8044 992.678 24.1893 992.678 28.8803C992.678 33.7752 992.678 38.4661 992.678 42.9531C992.882 47.44 993.086 52.5389 993.29 58.2496H992.372C990.74 51.5191 986.967 47.44 981.053 46.0124C975.342 44.5847 965.858 43.8709 952.601 43.8709H903.346C897.024 43.8709 892.231 44.2788 888.968 45.0946C885.704 45.9104 883.359 47.542 881.931 49.9894C880.708 52.4369 879.688 56.21 878.872 61.3089C877.852 68.2433 876.833 78.237 875.813 91.29C874.793 104.139 874.283 118.722 874.283 135.038C874.283 139.729 874.691 143.502 875.507 146.357C876.323 149.213 878.158 151.354 881.014 152.782C883.869 154.006 888.254 154.821 894.169 155.229C900.287 155.637 908.649 155.841 919.255 155.841C931.084 155.841 939.65 155.433 944.953 154.618C950.46 153.598 953.927 151.558 955.355 148.499C956.986 145.44 957.802 140.545 957.802 133.814C957.802 130.755 957.802 128.308 957.802 126.472C957.802 124.432 957.598 122.393 957.19 120.353C956.578 115.458 955.457 111.685 953.825 109.034C952.397 106.383 949.746 104.547 945.871 103.527C941.996 102.303 936.081 101.692 928.127 101.692C919.969 101.692 913.748 102.813 909.465 105.057C905.386 107.3 902.633 110.054 901.205 113.317C899.777 116.58 899.063 119.741 899.063 122.801C899.063 125.656 899.471 128.613 900.287 131.673C901.103 134.732 902.429 137.587 904.264 140.239C903.448 138.811 902.735 137.281 902.123 135.65C901.511 133.814 901.205 131.979 901.205 130.143C901.205 122.393 903.142 116.784 907.018 113.317C911.097 109.646 915.89 107.81 921.396 107.81C927.515 107.81 932.512 109.748 936.387 113.623C940.262 117.294 942.2 122.495 942.2 129.225C942.2 134.324 940.364 138.913 936.693 142.992C933.022 147.071 927.923 149.111 921.396 149.111C917.725 149.111 913.85 148.193 909.771 146.357C905.896 144.318 902.633 140.851 899.981 135.956C897.33 130.857 896.004 123.923 896.004 115.153C896.004 106.994 896.718 99.4481 898.146 92.5137C899.777 85.3754 902.939 79.5627 907.629 75.0757C912.32 70.5887 919.255 68.3452 928.433 68.3452H1009.5V68.9571C1005.22 71.6085 1002.57 74.0559 1001.55 76.2994C1000.53 78.339 1000.02 81.2963 1000.02 85.1714C1000.02 93.3295 1000.43 103.119 1001.24 114.541C1002.26 125.962 1002.77 139.015 1002.77 153.7C1002.77 164.917 1001.45 173.585 998.797 179.704C996.145 185.618 991.454 189.799 984.724 192.247C978.197 194.49 969.121 196.122 957.496 197.142C953.825 197.346 949.44 197.448 944.341 197.448C939.242 197.652 932.92 197.754 925.373 197.754Z" fill="#000000"/>
<path d="M1021.33 196.53C1018.03 196.53 1016.11 194.609 1016.94 191.04L1064.15 8.50897C1064.97 5.48966 1066.62 4.39172 1069.64 4.39172H1156.37C1159.39 4.39172 1161.04 5.48966 1161.86 8.50897L1208.8 191.04C1209.62 194.609 1207.7 196.53 1204.41 196.53H1137.71C1134.69 196.53 1133.04 194.883 1132.49 192.138L1126.73 165.239H1098.73L1092.97 192.138C1092.42 194.883 1090.77 196.53 1087.75 196.53H1021.33ZM1103.4 119.949H1122.06L1115.48 82.6194L1114.1 71.3656H1111.36L1109.99 82.6194L1103.4 119.949Z" fill="white"/>
<path d="M1021.33 196.53C1018.03 196.53 1016.11 194.609 1016.94 191.04L1064.15 8.50897C1064.97 5.48966 1066.62 4.39172 1069.64 4.39172H1156.37C1159.39 4.39172 1161.04 5.48966 1161.86 8.50897L1208.8 191.04C1209.62 194.609 1207.7 196.53 1204.41 196.53H1137.71C1134.69 196.53 1133.04 194.883 1132.49 192.138L1126.73 165.239H1098.73L1092.97 192.138C1092.42 194.883 1090.77 196.53 1087.75 196.53H1021.33ZM1103.4 119.949H1122.06L1115.48 82.6194L1114.1 71.3656H1111.36L1109.99 82.6194L1103.4 119.949Z" fill="#000000"/>
<path d="M1303.94 137.791V196.53H1226.85V137.791C1233.78 136.976 1238.78 132.693 1241.84 124.942C1244.9 117.192 1246.43 106.688 1246.43 93.4315V79.9706C1246.43 71.6085 1245.61 66.6116 1243.98 64.98C1242.55 63.1444 1236.84 62.2267 1226.85 62.2267V3.79401H1343.71V49.3776C1343.71 58.9634 1344.73 66.8156 1346.77 72.9342C1348.81 79.0528 1354.83 86.4971 1364.82 95.2671L1408.57 132.896V130.755C1408.57 122.801 1407.96 115.051 1406.74 107.504C1405.72 99.7541 1403.78 92.8196 1400.92 86.701C1398.07 80.3785 1394.09 75.0757 1388.99 70.7927C1383.89 66.3057 1377.47 63.4504 1369.72 62.2267V3.79401H1446.81V61.9207C1439.88 63.7563 1434.78 67.4275 1431.52 72.9342C1428.46 78.4409 1426.93 88.3327 1426.93 102.609V196.53H1329.64V143.604C1329.64 134.018 1327.81 126.472 1324.13 120.965C1320.67 115.458 1314.85 109.238 1306.7 102.303L1264.78 66.5097C1264.78 73.648 1265.19 80.8884 1266.01 88.2307C1266.82 95.3691 1268.56 102.202 1271.21 108.728C1274.06 115.051 1278.04 120.761 1283.14 125.86C1288.24 130.959 1295.17 134.936 1303.94 137.791Z" fill="white"/>
<path d="M1303.94 137.791V196.53H1226.85V137.791C1233.78 136.976 1238.78 132.693 1241.84 124.942C1244.9 117.192 1246.43 106.688 1246.43 93.4315V79.9706C1246.43 71.6085 1245.61 66.6116 1243.98 64.98C1242.55 63.1444 1236.84 62.2267 1226.85 62.2267V3.79401H1343.71V49.3776C1343.71 58.9634 1344.73 66.8156 1346.77 72.9342C1348.81 79.0528 1354.83 86.4971 1364.82 95.2671L1408.57 132.896V130.755C1408.57 122.801 1407.96 115.051 1406.74 107.504C1405.72 99.7541 1403.78 92.8196 1400.92 86.701C1398.07 80.3785 1394.09 75.0757 1388.99 70.7927C1383.89 66.3057 1377.47 63.4504 1369.72 62.2267V3.79401H1446.81V61.9207C1439.88 63.7563 1434.78 67.4275 1431.52 72.9342C1428.46 78.4409 1426.93 88.3327 1426.93 102.609V196.53H1329.64V143.604C1329.64 134.018 1327.81 126.472 1324.13 120.965C1320.67 115.458 1314.85 109.238 1306.7 102.303L1264.78 66.5097C1264.78 73.648 1265.19 80.8884 1266.01 88.2307C1266.82 95.3691 1268.56 102.202 1271.21 108.728C1274.06 115.051 1278.04 120.761 1283.14 125.86C1288.24 130.959 1295.17 134.936 1303.94 137.791Z" fill="#000000"/>
</svg>
