<svg width="1633" height="203" viewBox="0 0 1633 203" fill="none" xmlns="http://www.w3.org/2000/svg">
<path d="M4.9407 198.177C1.92138 198.177 0 196.255 0 193.236V10.9793C0 7.96002 1.92138 6.03863 4.9407 6.03863H76.3063C79.0511 6.03863 81.247 7.68554 81.796 10.4304L97.4415 75.2084L106.774 116.106H108.421L117.753 75.4829L133.399 10.4304C133.948 7.68554 136.144 6.03863 138.888 6.03863H210.254C213.273 6.03863 215.195 7.96002 215.195 10.9793V193.236C215.195 196.255 213.273 198.177 210.254 198.177H152.887C149.868 198.177 147.946 196.255 147.946 193.236L148.221 153.985C148.221 140.261 150.966 106.774 152.064 99.0884L149.868 98.8139C148.221 107.048 143.28 130.38 141.084 138.614L126.262 194.06C125.439 197.079 123.517 198.177 120.773 198.177H95.2457C92.5008 198.177 90.5794 197.079 89.756 194.06L74.9339 138.614C72.738 130.38 67.7973 107.048 66.1504 98.8139L63.9546 99.0884C65.0525 106.774 67.7973 140.261 67.7973 153.985L68.0718 193.236C68.0718 196.255 66.1504 198.177 63.1311 198.177H4.9407Z" fill="white"/>
<path d="M4.9407 198.177C1.92138 198.177 0 196.255 0 193.236V10.9793C0 7.96002 1.92138 6.03863 4.9407 6.03863H76.3063C79.0511 6.03863 81.247 7.68554 81.796 10.4304L97.4415 75.2084L106.774 116.106H108.421L117.753 75.4829L133.399 10.4304C133.948 7.68554 136.144 6.03863 138.888 6.03863H210.254C213.273 6.03863 215.195 7.96002 215.195 10.9793V193.236C215.195 196.255 213.273 198.177 210.254 198.177H152.887C149.868 198.177 147.946 196.255 147.946 193.236L148.221 153.985C148.221 140.261 150.966 106.774 152.064 99.0884L149.868 98.8139C148.221 107.048 143.28 130.38 141.084 138.614L126.262 194.06C125.439 197.079 123.517 198.177 120.773 198.177H95.2457C92.5008 198.177 90.5794 197.079 89.756 194.06L74.9339 138.614C72.738 130.38 67.7973 107.048 66.1504 98.8139L63.9546 99.0884C65.0525 106.774 67.7973 140.261 67.7973 153.985L68.0718 193.236C68.0718 196.255 66.1504 198.177 63.1311 198.177H4.9407Z" fill="#000000"/>
<path d="M243.634 198.177C240.614 198.177 238.693 196.255 238.693 193.236V10.9793C238.693 7.96002 240.614 6.03863 243.634 6.03863H306.216C309.235 6.03863 311.157 7.96002 311.157 10.9793V193.236C311.157 196.255 309.235 198.177 306.216 198.177H243.634Z" fill="white"/>
<path d="M243.634 198.177C240.614 198.177 238.693 196.255 238.693 193.236V10.9793C238.693 7.96002 240.614 6.03863 243.634 6.03863H306.216C309.235 6.03863 311.157 7.96002 311.157 10.9793V193.236C311.157 196.255 309.235 198.177 306.216 198.177H243.634Z" fill="#000000"/>
<path d="M329.397 198.177V197.565C333.068 192.874 335.413 187.673 336.433 181.963C337.453 176.252 338.065 169.521 338.269 161.771C338.473 151.574 338.575 141.58 338.575 131.79C338.779 121.796 338.881 111.803 338.881 101.809C338.881 91.6112 338.779 81.6175 338.575 71.8277C338.575 61.834 338.473 51.8403 338.269 41.8466C338.269 34.9122 337.963 29.4054 337.351 25.3264C336.739 21.2473 335.821 17.7801 334.598 14.9248C333.374 12.0694 331.64 9.11209 329.397 6.05279V5.44092H403.432C408.939 16.4544 415.363 28.9975 422.706 43.0703C430.252 56.9391 438.206 71.5218 446.568 86.8183C446.364 71.7258 446.058 56.7352 445.65 41.8466C445.446 34.9122 444.834 29.4054 443.815 25.3264C442.795 21.2473 441.061 17.7801 438.614 14.9248C436.166 12.0694 432.699 9.11209 428.212 6.05279V5.44092H498.882V6.05279C496.639 9.11209 494.803 12.0694 493.375 14.9248C492.152 17.7801 491.336 21.2473 490.928 25.3264C490.52 29.4054 490.214 34.9122 490.01 41.8466C489.806 51.8403 489.602 61.834 489.398 71.8277C489.398 81.6175 489.398 91.6112 489.398 101.809C489.398 111.803 489.398 121.796 489.398 131.79C489.602 141.58 489.806 151.574 490.01 161.771C490.01 169.521 490.52 176.252 491.54 181.963C492.763 187.673 495.211 192.874 498.882 197.565V198.177H441.061V197.565C442.693 193.894 443.815 190.019 444.427 185.94C445.038 181.657 445.446 176.864 445.65 171.561C436.268 153.613 426.071 134.645 415.057 114.658C404.044 94.6705 393.132 74.989 382.323 55.6134C382.119 64.5874 382.017 73.7653 382.017 83.1471C382.017 92.529 382.017 102.421 382.017 112.822C382.221 118.941 382.323 125.162 382.323 131.484C382.323 137.807 382.323 144.435 382.323 151.37C382.323 164.423 383.75 174.314 386.606 181.045C389.461 187.571 393.03 191.854 397.313 193.894C401.8 195.933 406.287 196.647 410.774 196.035C404.86 194.608 400.169 191.854 396.701 187.775C393.438 183.696 391.807 178.903 391.807 173.396C391.807 167.074 393.846 161.873 397.925 157.794C402.004 153.715 407.205 151.675 413.528 151.675C418.83 151.675 423.725 153.409 428.212 156.876C432.699 160.14 434.943 165.442 434.943 172.785C434.943 176.252 434.127 180.025 432.495 184.104C430.864 187.979 427.6 191.344 422.706 194.2C417.811 196.851 410.468 198.177 400.679 198.177H329.397Z" fill="white"/>
<path d="M329.397 198.177V197.565C333.068 192.874 335.413 187.673 336.433 181.963C337.453 176.252 338.065 169.521 338.269 161.771C338.473 151.574 338.575 141.58 338.575 131.79C338.779 121.796 338.881 111.803 338.881 101.809C338.881 91.6112 338.779 81.6175 338.575 71.8277C338.575 61.834 338.473 51.8403 338.269 41.8466C338.269 34.9122 337.963 29.4054 337.351 25.3264C336.739 21.2473 335.821 17.7801 334.598 14.9248C333.374 12.0694 331.64 9.11209 329.397 6.05279V5.44092H403.432C408.939 16.4544 415.363 28.9975 422.706 43.0703C430.252 56.9391 438.206 71.5218 446.568 86.8183C446.364 71.7258 446.058 56.7352 445.65 41.8466C445.446 34.9122 444.834 29.4054 443.815 25.3264C442.795 21.2473 441.061 17.7801 438.614 14.9248C436.166 12.0694 432.699 9.11209 428.212 6.05279V5.44092H498.882V6.05279C496.639 9.11209 494.803 12.0694 493.375 14.9248C492.152 17.7801 491.336 21.2473 490.928 25.3264C490.52 29.4054 490.214 34.9122 490.01 41.8466C489.806 51.8403 489.602 61.834 489.398 71.8277C489.398 81.6175 489.398 91.6112 489.398 101.809C489.398 111.803 489.398 121.796 489.398 131.79C489.602 141.58 489.806 151.574 490.01 161.771C490.01 169.521 490.52 176.252 491.54 181.963C492.763 187.673 495.211 192.874 498.882 197.565V198.177H441.061V197.565C442.693 193.894 443.815 190.019 444.427 185.94C445.038 181.657 445.446 176.864 445.65 171.561C436.268 153.613 426.071 134.645 415.057 114.658C404.044 94.6705 393.132 74.989 382.323 55.6134C382.119 64.5874 382.017 73.7653 382.017 83.1471C382.017 92.529 382.017 102.421 382.017 112.822C382.221 118.941 382.323 125.162 382.323 131.484C382.323 137.807 382.323 144.435 382.323 151.37C382.323 164.423 383.75 174.314 386.606 181.045C389.461 187.571 393.03 191.854 397.313 193.894C401.8 195.933 406.287 196.647 410.774 196.035C404.86 194.608 400.169 191.854 396.701 187.775C393.438 183.696 391.807 178.903 391.807 173.396C391.807 167.074 393.846 161.873 397.925 157.794C402.004 153.715 407.205 151.675 413.528 151.675C418.83 151.675 423.725 153.409 428.212 156.876C432.699 160.14 434.943 165.442 434.943 172.785C434.943 176.252 434.127 180.025 432.495 184.104C430.864 187.979 427.6 191.344 422.706 194.2C417.811 196.851 410.468 198.177 400.679 198.177H329.397Z" fill="#000000"/>
<path d="M522.709 198.177C519.689 198.177 517.768 196.255 517.768 193.236V10.9793C517.768 7.96002 519.689 6.03863 522.709 6.03863H588.31C591.055 6.03863 593.251 7.68554 593.8 10.4304L608.622 76.8553C610.818 86.7367 611.916 96.8926 614.112 106.774L616.033 106.499C615.21 97.167 613.288 76.3063 613.288 69.4442L612.739 10.9793C612.739 7.96002 614.661 6.03863 617.68 6.03863H677.517C680.537 6.03863 682.458 7.96002 682.458 10.9793V193.236C682.458 196.255 680.537 198.177 677.517 198.177H618.778C616.033 198.177 614.112 197.079 613.288 194.06L594.623 127.36C591.878 117.479 589.957 107.323 587.761 97.4415L585.84 97.716C586.938 107.048 588.859 127.909 588.859 134.771L589.408 193.236C589.408 196.255 587.487 198.177 584.467 198.177H522.709Z" fill="white"/>
<path d="M522.709 198.177C519.689 198.177 517.768 196.255 517.768 193.236V10.9793C517.768 7.96002 519.689 6.03863 522.709 6.03863H588.31C591.055 6.03863 593.251 7.68554 593.8 10.4304L608.622 76.8553C610.818 86.7367 611.916 96.8926 614.112 106.774L616.033 106.499C615.21 97.167 613.288 76.3063 613.288 69.4442L612.739 10.9793C612.739 7.96002 614.661 6.03863 617.68 6.03863H677.517C680.537 6.03863 682.458 7.96002 682.458 10.9793V193.236C682.458 196.255 680.537 198.177 677.517 198.177H618.778C616.033 198.177 614.112 197.079 613.288 194.06L594.623 127.36C591.878 117.479 589.957 107.323 587.761 97.4415L585.84 97.716C586.938 107.048 588.859 127.909 588.859 134.771L589.408 193.236C589.408 196.255 587.487 198.177 584.467 198.177H522.709Z" fill="#000000"/>
<path d="M888.522 198.177H709.247V139.438C714.754 139.438 719.037 139.336 722.096 139.132C725.155 138.724 727.399 138.011 728.827 136.991C730.254 135.767 731.07 133.932 731.274 131.484C731.682 129.037 731.886 125.671 731.886 121.388V81.9234C731.886 77.6404 731.682 74.2752 731.274 71.8277C731.07 69.3803 730.254 67.6467 728.827 66.6269C727.399 65.4032 725.155 64.6894 722.096 64.4854C719.037 64.0775 714.754 63.8736 709.247 63.8736V5.44092H887.298V90.4895H872.002C870.778 84.9827 868.943 80.4958 866.495 77.0285C864.048 73.5613 859.969 70.91 854.258 69.0744C848.547 67.0348 840.593 65.7091 830.395 65.0973C820.198 64.2815 806.737 63.8736 790.013 63.8736V91.7132C801.842 90.8974 810.408 89.7756 815.711 88.348C821.013 86.7163 826.01 84.8808 830.701 82.8412H843.244V117.105H830.701C826.622 115.066 821.931 113.332 816.628 111.905C811.53 110.273 802.658 109.049 790.013 108.233V139.132C807.756 139.132 821.829 138.622 832.231 137.603C842.836 136.583 850.893 134.951 856.399 132.708C862.11 130.26 865.985 127.303 868.025 123.836C870.268 120.165 872.002 115.678 873.225 110.375H888.522V198.177Z" fill="white"/>
<path d="M888.522 198.177H709.247V139.438C714.754 139.438 719.037 139.336 722.096 139.132C725.155 138.724 727.399 138.011 728.827 136.991C730.254 135.767 731.07 133.932 731.274 131.484C731.682 129.037 731.886 125.671 731.886 121.388V81.9234C731.886 77.6404 731.682 74.2752 731.274 71.8277C731.07 69.3803 730.254 67.6467 728.827 66.6269C727.399 65.4032 725.155 64.6894 722.096 64.4854C719.037 64.0775 714.754 63.8736 709.247 63.8736V5.44092H887.298V90.4895H872.002C870.778 84.9827 868.943 80.4958 866.495 77.0285C864.048 73.5613 859.969 70.91 854.258 69.0744C848.547 67.0348 840.593 65.7091 830.395 65.0973C820.198 64.2815 806.737 63.8736 790.013 63.8736V91.7132C801.842 90.8974 810.408 89.7756 815.711 88.348C821.013 86.7163 826.01 84.8808 830.701 82.8412H843.244V117.105H830.701C826.622 115.066 821.931 113.332 816.628 111.905C811.53 110.273 802.658 109.049 790.013 108.233V139.132C807.756 139.132 821.829 138.622 832.231 137.603C842.836 136.583 850.893 134.951 856.399 132.708C862.11 130.26 865.985 127.303 868.025 123.836C870.268 120.165 872.002 115.678 873.225 110.375H888.522V198.177Z" fill="#000000"/>
<path d="M991.375 202.02C954.594 202.02 913.696 185.002 910.677 132.575C910.402 129.282 912.324 127.36 915.343 127.36H974.631C978.2 127.36 980.395 129.556 980.395 132.575C980.67 139.437 983.415 144.653 991.649 144.653C997.139 144.653 1000.16 140.81 1000.43 136.418C1000.16 124.89 986.434 124.341 964.75 120.498C935.38 115.283 911.226 99.3629 911.5 63.1311C911.226 23.88 944.713 0 987.532 0C1017.45 0 1061.37 13.7242 1063.56 64.2291C1063.56 67.5229 1061.64 69.4442 1058.62 69.4442H1003.45C1000.16 69.4442 998.511 67.5229 998.237 64.5035C997.962 59.5629 996.59 53.7987 988.63 53.7987C984.238 53.7987 981.219 56.5435 981.219 60.9353C981.219 71.0911 994.943 71.0911 1016.35 76.3063C1046 83.4429 1069.88 99.9119 1070.15 136.418C1070.43 181.433 1033.1 202.02 991.375 202.02Z" fill="white"/>
<path d="M991.375 202.02C954.594 202.02 913.696 185.002 910.677 132.575C910.402 129.282 912.324 127.36 915.343 127.36H974.631C978.2 127.36 980.395 129.556 980.395 132.575C980.67 139.437 983.415 144.653 991.649 144.653C997.139 144.653 1000.16 140.81 1000.43 136.418C1000.16 124.89 986.434 124.341 964.75 120.498C935.38 115.283 911.226 99.3629 911.5 63.1311C911.226 23.88 944.713 0 987.532 0C1017.45 0 1061.37 13.7242 1063.56 64.2291C1063.56 67.5229 1061.64 69.4442 1058.62 69.4442H1003.45C1000.16 69.4442 998.511 67.5229 998.237 64.5035C997.962 59.5629 996.59 53.7987 988.63 53.7987C984.238 53.7987 981.219 56.5435 981.219 60.9353C981.219 71.0911 994.943 71.0911 1016.35 76.3063C1046 83.4429 1069.88 99.9119 1070.15 136.418C1070.43 181.433 1033.1 202.02 991.375 202.02Z" fill="#000000"/>
<path d="M1187.43 202.843C1126.77 202.843 1083.4 156.73 1083.4 101.833C1083.4 46.9366 1126.77 1.09793 1187.43 1.09793C1247.82 1.09793 1291.46 46.9366 1291.46 101.833C1291.46 156.73 1247.82 202.843 1187.43 202.843ZM1187.43 128.184C1203.35 128.184 1215.16 116.106 1215.16 101.833C1215.16 87.5601 1203.35 75.4829 1187.43 75.4829C1171.51 75.4829 1159.71 87.5601 1159.71 101.833C1159.71 116.106 1171.51 128.184 1187.43 128.184Z" fill="white"/>
<path d="M1187.43 202.843C1126.77 202.843 1083.4 156.73 1083.4 101.833C1083.4 46.9366 1126.77 1.09793 1187.43 1.09793C1247.82 1.09793 1291.46 46.9366 1291.46 101.833C1291.46 156.73 1247.82 202.843 1187.43 202.843ZM1187.43 128.184C1203.35 128.184 1215.16 116.106 1215.16 101.833C1215.16 87.5601 1203.35 75.4829 1187.43 75.4829C1171.51 75.4829 1159.71 87.5601 1159.71 101.833C1159.71 116.106 1171.51 128.184 1187.43 128.184Z" fill="#000000"/>
<path d="M1345.15 198.177C1342.13 198.177 1340.21 196.255 1340.21 193.236V71.9146H1304.8C1301.78 71.9146 1299.86 69.9932 1299.86 66.9739V10.9793C1299.86 7.96002 1301.78 6.03863 1304.8 6.03863H1448.36C1451.38 6.03863 1453.3 7.96002 1453.3 10.9793V66.9739C1453.3 69.9932 1451.38 71.9146 1448.36 71.9146H1412.67V193.236C1412.67 196.255 1410.75 198.177 1407.73 198.177H1345.15Z" fill="white"/>
<path d="M1345.15 198.177C1342.13 198.177 1340.21 196.255 1340.21 193.236V71.9146H1304.8C1301.78 71.9146 1299.86 69.9932 1299.86 66.9739V10.9793C1299.86 7.96002 1301.78 6.03863 1304.8 6.03863H1448.36C1451.38 6.03863 1453.3 7.96002 1453.3 10.9793V66.9739C1453.3 69.9932 1451.38 71.9146 1448.36 71.9146H1412.67V193.236C1412.67 196.255 1410.75 198.177 1407.73 198.177H1345.15Z" fill="#000000"/>
<path d="M1445.29 198.177C1442 198.177 1440.08 196.255 1440.9 192.687L1488.11 10.1559C1488.94 7.13657 1490.58 6.03863 1493.6 6.03863H1580.34C1583.36 6.03863 1585 7.13657 1585.83 10.1559L1632.76 192.687C1633.59 196.255 1631.67 198.177 1628.37 198.177H1561.67C1558.65 198.177 1557.01 196.53 1556.46 193.785L1550.69 166.886H1522.7L1516.93 193.785C1516.38 196.53 1514.74 198.177 1511.72 198.177H1445.29ZM1527.36 121.596H1546.03L1539.44 84.2663L1538.07 73.0125H1535.32L1533.95 84.2663L1527.36 121.596Z" fill="white"/>
<path d="M1445.29 198.177C1442 198.177 1440.08 196.255 1440.9 192.687L1488.11 10.1559C1488.94 7.13657 1490.58 6.03863 1493.6 6.03863H1580.34C1583.36 6.03863 1585 7.13657 1585.83 10.1559L1632.76 192.687C1633.59 196.255 1631.67 198.177 1628.37 198.177H1561.67C1558.65 198.177 1557.01 196.53 1556.46 193.785L1550.69 166.886H1522.7L1516.93 193.785C1516.38 196.53 1514.74 198.177 1511.72 198.177H1445.29ZM1527.36 121.596H1546.03L1539.44 84.2663L1538.07 73.0125H1535.32L1533.95 84.2663L1527.36 121.596Z" fill="#000000"/>
</svg>
