<svg width="2345" height="203" viewBox="0 0 2345 203" fill="none" xmlns="http://www.w3.org/2000/svg">
<path d="M4.9407 198.177C1.92138 198.177 0 196.255 0 193.236V10.9793C0 7.96002 1.92138 6.03863 4.9407 6.03863H70.5422C73.287 6.03863 75.4829 7.68554 76.0318 10.4304L90.8539 76.8553C93.0498 86.7367 94.1477 96.8926 96.3436 106.774L98.265 106.499C97.4415 97.167 95.5201 76.3063 95.5201 69.4442L94.9712 10.9793C94.9712 7.96002 96.8925 6.03863 99.9119 6.03863H159.749C162.768 6.03863 164.69 7.96002 164.69 10.9793V193.236C164.69 196.255 162.768 198.177 159.749 198.177H101.01C98.265 198.177 96.3436 197.079 95.5201 194.06L76.8553 127.36C74.1104 117.479 72.1891 107.323 69.9932 97.4415L68.0718 97.716C69.1698 107.048 71.0911 127.909 71.0911 134.771L71.6401 193.236C71.6401 196.255 69.7187 198.177 66.6994 198.177H4.9407Z" fill="white"/>
<path d="M4.9407 198.177C1.92138 198.177 0 196.255 0 193.236V10.9793C0 7.96002 1.92138 6.03863 4.9407 6.03863H70.5422C73.287 6.03863 75.4829 7.68554 76.0318 10.4304L90.8539 76.8553C93.0498 86.7367 94.1477 96.8926 96.3436 106.774L98.265 106.499C97.4415 97.167 95.5201 76.3063 95.5201 69.4442L94.9712 10.9793C94.9712 7.96002 96.8925 6.03863 99.9119 6.03863H159.749C162.768 6.03863 164.69 7.96002 164.69 10.9793V193.236C164.69 196.255 162.768 198.177 159.749 198.177H101.01C98.265 198.177 96.3436 197.079 95.5201 194.06L76.8553 127.36C74.1104 117.479 72.1891 107.323 69.9932 97.4415L68.0718 97.716C69.1698 107.048 71.0911 127.909 71.0911 134.771L71.6401 193.236C71.6401 196.255 69.7187 198.177 66.6994 198.177H4.9407Z" fill="#000000"/>
<path d="M193.24 198.177C190.221 198.177 188.3 196.255 188.3 193.236V10.9793C188.3 7.96002 190.221 6.03863 193.24 6.03863H316.483C319.503 6.03863 321.424 7.96002 321.424 10.9793V64.2291C321.424 67.2484 319.503 69.1698 316.483 69.1698H259.94V80.698H297.27C300.289 80.698 302.21 82.6194 302.21 85.6387V118.851C302.21 121.871 300.289 123.792 297.27 123.792H259.94V136.144H317.581C320.601 136.144 322.522 138.065 322.522 141.084V193.236C322.522 196.255 320.601 198.177 317.581 198.177H193.24Z" fill="white"/>
<path d="M193.24 198.177C190.221 198.177 188.3 196.255 188.3 193.236V10.9793C188.3 7.96002 190.221 6.03863 193.24 6.03863H316.483C319.503 6.03863 321.424 7.96002 321.424 10.9793V64.2291C321.424 67.2484 319.503 69.1698 316.483 69.1698H259.94V80.698H297.27C300.289 80.698 302.21 82.6194 302.21 85.6387V118.851C302.21 121.871 300.289 123.792 297.27 123.792H259.94V136.144H317.581C320.601 136.144 322.522 138.065 322.522 141.084V193.236C322.522 196.255 320.601 198.177 317.581 198.177H193.24Z" fill="#000000"/>
<path d="M362.449 198.177V197.565C367.344 196.341 370.913 193.996 373.156 190.529C375.604 187.061 376.828 181.861 376.828 174.926C376.828 172.071 376.624 169.012 376.216 165.748C376.012 162.281 375.502 158.508 374.686 154.429C371.015 136.277 367.038 118.125 362.755 99.9733C358.676 81.6175 353.985 63.3637 348.682 45.2118C343.787 27.2639 337.771 14.2109 330.632 6.05279V5.44092H412.621V6.05279C406.707 7.68442 402.628 10.1319 400.384 13.3951C398.141 16.6584 397.019 20.9414 397.019 26.2442C397.019 29.0995 397.427 34.1983 398.243 41.5407C399.262 48.883 400.486 57.551 401.914 67.5447C403.545 77.5384 405.279 88.042 407.115 99.0555C408.95 109.865 410.786 120.471 412.621 130.872C414.661 141.07 416.598 150.044 418.434 157.794H419.964C424.859 145.149 429.753 131.892 434.648 118.023C439.747 103.95 444.438 90.3875 448.721 77.3345C446.886 72.0317 444.948 66.7289 442.908 61.4261C441.073 55.9194 439.033 50.5146 436.79 45.2118C432.915 36.2379 429.651 28.4877 427 21.9611C424.553 15.2307 421.595 9.9279 418.128 6.05279V5.44092H499.811V6.05279C493.897 7.48046 489.716 9.82592 487.268 13.0892C484.821 16.3524 483.597 20.6354 483.597 25.9382C483.597 31.8529 484.719 39.909 486.962 50.1067C489.41 60.3044 492.469 71.7258 496.14 84.3709C500.015 96.812 504.094 109.457 508.377 122.306C512.661 134.951 516.74 146.781 520.615 157.794H522.45C526.529 142.294 530.506 125.977 534.382 108.845C538.257 91.7132 541.418 75.6009 543.865 60.5083C544.273 57.653 544.579 55.0016 544.783 52.5542C545.191 49.9028 545.395 47.4553 545.395 45.2118C545.395 38.4814 543.865 33.2806 540.806 29.6094C537.747 25.7343 532.24 23.7967 524.286 23.7967C517.147 23.7967 510.417 26.1422 504.094 30.8331C497.976 35.524 494.917 43.2743 494.917 54.0838C494.917 54.0838 494.917 54.1858 494.917 54.3897C496.344 47.6593 498.996 42.7644 502.871 39.7051C506.95 36.6458 511.539 35.1161 516.638 35.1161C523.98 35.1161 529.487 37.5636 533.158 42.4585C536.829 47.1494 538.665 52.1462 538.665 57.449C538.665 62.5479 536.829 67.4427 533.158 72.1337C529.691 76.8246 524.082 79.1701 516.332 79.1701C509.397 79.1701 503.789 76.7226 499.505 71.8277C495.222 66.9329 493.081 59.7945 493.081 50.4126C493.081 37.3596 497.568 26.4481 506.542 17.6781C515.72 8.90814 530.71 4.52314 551.514 4.52314C554.165 4.52314 558.55 4.62512 564.669 4.82907C570.787 5.03302 577.518 5.23697 584.86 5.44092C592.406 5.44092 599.137 5.44092 605.051 5.44092C601.992 9.72395 598.933 16.2505 595.873 25.0204C592.814 33.7904 589.857 43.8861 587.001 55.3075C584.146 66.7289 581.291 78.7622 578.435 91.4073C575.58 104.052 572.827 116.596 570.175 129.037C567.728 141.274 565.28 152.593 562.833 162.995C562.017 166.462 561.405 169.623 560.997 172.479C560.59 175.13 560.386 177.781 560.386 180.433C560.386 184.92 561.405 188.591 563.445 191.446C565.484 194.098 568.952 196.137 573.846 197.565V198.177H481.15V197.565C481.762 196.341 482.067 193.792 482.067 189.917C482.067 185.838 481.048 180.739 479.008 174.62C476.969 168.298 474.827 161.567 472.584 154.429C471.564 151.166 470.544 147.902 469.524 144.639C468.505 141.172 467.485 137.705 466.465 134.237C465.241 139.336 464.018 144.333 462.794 149.228C461.774 153.919 460.652 158.508 459.429 162.995C458.409 166.87 457.083 171.357 455.452 176.456C454.024 181.555 453.31 186.144 453.31 190.223C453.31 193.282 453.922 195.729 455.146 197.565V198.177H362.449Z" fill="white"/>
<path d="M362.449 198.177V197.565C367.344 196.341 370.913 193.996 373.156 190.529C375.604 187.061 376.828 181.861 376.828 174.926C376.828 172.071 376.624 169.012 376.216 165.748C376.012 162.281 375.502 158.508 374.686 154.429C371.015 136.277 367.038 118.125 362.755 99.9733C358.676 81.6175 353.985 63.3637 348.682 45.2118C343.787 27.2639 337.771 14.2109 330.632 6.05279V5.44092H412.621V6.05279C406.707 7.68442 402.628 10.1319 400.384 13.3951C398.141 16.6584 397.019 20.9414 397.019 26.2442C397.019 29.0995 397.427 34.1983 398.243 41.5407C399.262 48.883 400.486 57.551 401.914 67.5447C403.545 77.5384 405.279 88.042 407.115 99.0555C408.95 109.865 410.786 120.471 412.621 130.872C414.661 141.07 416.598 150.044 418.434 157.794H419.964C424.859 145.149 429.753 131.892 434.648 118.023C439.747 103.95 444.438 90.3875 448.721 77.3345C446.886 72.0317 444.948 66.7289 442.908 61.4261C441.073 55.9194 439.033 50.5146 436.79 45.2118C432.915 36.2379 429.651 28.4877 427 21.9611C424.553 15.2307 421.595 9.9279 418.128 6.05279V5.44092H499.811V6.05279C493.897 7.48046 489.716 9.82592 487.268 13.0892C484.821 16.3524 483.597 20.6354 483.597 25.9382C483.597 31.8529 484.719 39.909 486.962 50.1067C489.41 60.3044 492.469 71.7258 496.14 84.3709C500.015 96.812 504.094 109.457 508.377 122.306C512.661 134.951 516.74 146.781 520.615 157.794H522.45C526.529 142.294 530.506 125.977 534.382 108.845C538.257 91.7132 541.418 75.6009 543.865 60.5083C544.273 57.653 544.579 55.0016 544.783 52.5542C545.191 49.9028 545.395 47.4553 545.395 45.2118C545.395 38.4814 543.865 33.2806 540.806 29.6094C537.747 25.7343 532.24 23.7967 524.286 23.7967C517.147 23.7967 510.417 26.1422 504.094 30.8331C497.976 35.524 494.917 43.2743 494.917 54.0838C494.917 54.0838 494.917 54.1858 494.917 54.3897C496.344 47.6593 498.996 42.7644 502.871 39.7051C506.95 36.6458 511.539 35.1161 516.638 35.1161C523.98 35.1161 529.487 37.5636 533.158 42.4585C536.829 47.1494 538.665 52.1462 538.665 57.449C538.665 62.5479 536.829 67.4427 533.158 72.1337C529.691 76.8246 524.082 79.1701 516.332 79.1701C509.397 79.1701 503.789 76.7226 499.505 71.8277C495.222 66.9329 493.081 59.7945 493.081 50.4126C493.081 37.3596 497.568 26.4481 506.542 17.6781C515.72 8.90814 530.71 4.52314 551.514 4.52314C554.165 4.52314 558.55 4.62512 564.669 4.82907C570.787 5.03302 577.518 5.23697 584.86 5.44092C592.406 5.44092 599.137 5.44092 605.051 5.44092C601.992 9.72395 598.933 16.2505 595.873 25.0204C592.814 33.7904 589.857 43.8861 587.001 55.3075C584.146 66.7289 581.291 78.7622 578.435 91.4073C575.58 104.052 572.827 116.596 570.175 129.037C567.728 141.274 565.28 152.593 562.833 162.995C562.017 166.462 561.405 169.623 560.997 172.479C560.59 175.13 560.386 177.781 560.386 180.433C560.386 184.92 561.405 188.591 563.445 191.446C565.484 194.098 568.952 196.137 573.846 197.565V198.177H481.15V197.565C481.762 196.341 482.067 193.792 482.067 189.917C482.067 185.838 481.048 180.739 479.008 174.62C476.969 168.298 474.827 161.567 472.584 154.429C471.564 151.166 470.544 147.902 469.524 144.639C468.505 141.172 467.485 137.705 466.465 134.237C465.241 139.336 464.018 144.333 462.794 149.228C461.774 153.919 460.652 158.508 459.429 162.995C458.409 166.87 457.083 171.357 455.452 176.456C454.024 181.555 453.31 186.144 453.31 190.223C453.31 193.282 453.922 195.729 455.146 197.565V198.177H362.449Z" fill="#000000"/>
<path d="M772.595 198.177C769.576 198.177 767.655 196.255 767.655 193.236V126.537H747.343V193.236C747.343 196.255 745.422 198.177 742.402 198.177H679.271C676.252 198.177 674.33 196.255 674.33 193.236V10.9793C674.33 7.96002 676.252 6.03863 679.271 6.03863H742.402C745.422 6.03863 747.343 7.96002 747.343 10.9793V74.6594H767.655V10.9793C767.655 7.96002 769.576 6.03863 772.595 6.03863H835.727C838.746 6.03863 840.667 7.96002 840.667 10.9793V193.236C840.667 196.255 838.746 198.177 835.727 198.177H772.595Z" fill="white"/>
<path d="M772.595 198.177C769.576 198.177 767.655 196.255 767.655 193.236V126.537H747.343V193.236C747.343 196.255 745.422 198.177 742.402 198.177H679.271C676.252 198.177 674.33 196.255 674.33 193.236V10.9793C674.33 7.96002 676.252 6.03863 679.271 6.03863H742.402C745.422 6.03863 747.343 7.96002 747.343 10.9793V74.6594H767.655V10.9793C767.655 7.96002 769.576 6.03863 772.595 6.03863H835.727C838.746 6.03863 840.667 7.96002 840.667 10.9793V193.236C840.667 196.255 838.746 198.177 835.727 198.177H772.595Z" fill="#000000"/>
<path d="M859.847 198.177C856.553 198.177 854.632 196.255 855.455 192.687L902.666 10.1559C903.49 7.13657 905.136 6.03863 908.156 6.03863H994.892C997.912 6.03863 999.559 7.13657 1000.38 10.1559L1047.32 192.687C1048.14 196.255 1046.22 198.177 1042.93 198.177H976.228C973.208 198.177 971.561 196.53 971.012 193.785L965.248 166.886H937.251L931.487 193.785C930.938 196.53 929.291 198.177 926.272 198.177H859.847ZM941.917 121.596H960.582L953.994 84.2663L952.622 73.0125H949.877L948.505 84.2663L941.917 121.596Z" fill="white"/>
<path d="M859.847 198.177C856.553 198.177 854.632 196.255 855.455 192.687L902.666 10.1559C903.49 7.13657 905.136 6.03863 908.156 6.03863H994.892C997.912 6.03863 999.559 7.13657 1000.38 10.1559L1047.32 192.687C1048.14 196.255 1046.22 198.177 1042.93 198.177H976.228C973.208 198.177 971.561 196.53 971.012 193.785L965.248 166.886H937.251L931.487 193.785C930.938 196.53 929.291 198.177 926.272 198.177H859.847ZM941.917 121.596H960.582L953.994 84.2663L952.622 73.0125H949.877L948.505 84.2663L941.917 121.596Z" fill="#000000"/>
<path d="M1056.19 198.177V197.565C1057.82 192.466 1059.15 187.163 1060.17 181.657C1061.19 176.15 1062 169.521 1062.61 161.771C1063.63 151.777 1064.55 140.56 1065.37 128.119C1066.39 115.474 1067.3 102.931 1068.12 90.4895C1069.14 77.8444 1069.96 66.5249 1070.57 56.5312C1071.18 46.3336 1071.59 38.5833 1071.79 33.2806C1072 26.3461 1071.08 21.1453 1069.04 17.6781C1067 14.2109 1063.33 10.3358 1058.02 6.05279V5.44092H1154.09V6.05279C1153.27 8.09232 1152.56 10.2338 1151.95 12.4773C1151.54 14.5169 1151.33 16.7603 1151.33 19.2078C1151.33 22.0631 1151.74 25.3264 1152.56 28.9975C1153.37 32.6687 1154.49 37.1557 1155.92 42.4585C1158.17 49.5968 1161.12 57.653 1164.79 66.6269C1168.47 75.3969 1172.24 83.963 1176.11 92.3251C1179.79 83.1471 1183.25 73.7653 1186.52 64.1795C1189.78 54.3897 1193.25 43.9881 1196.92 32.9746C1199.36 25.8363 1200.59 20.1256 1200.59 15.8426C1200.59 11.1516 1199.26 7.88837 1196.61 6.05279V5.44092H1273.4V6.05279C1270.95 9.52 1269.22 12.8852 1268.2 16.1485C1267.18 19.2078 1266.67 23.5928 1266.67 29.3035C1266.67 30.9351 1266.67 32.8727 1266.67 35.1161C1266.87 37.1557 1267.08 39.3992 1267.28 41.8466C1268.3 61.6301 1269.52 81.6175 1270.95 101.809C1272.58 121.796 1274.32 141.784 1276.15 161.771C1276.97 169.521 1277.78 176.15 1278.6 181.657C1279.62 187.163 1280.95 192.466 1282.58 197.565V198.177H1207.62V197.565C1217.82 194.098 1224.45 189.815 1227.51 184.716C1230.77 179.413 1232.41 173.295 1232.41 166.36C1232.41 163.913 1232.1 158.61 1231.49 150.452C1231.08 142.09 1230.47 132.096 1229.65 120.471C1228.84 108.641 1227.92 96.2002 1226.9 83.1471C1225.88 70.0941 1224.86 57.755 1223.84 46.1296C1220.98 56.7352 1217.92 67.2388 1214.66 77.6404C1211.6 88.042 1207.83 99.6674 1203.34 112.516C1198.85 125.365 1193.25 140.764 1186.52 158.712C1182.23 169.929 1176.11 179.209 1168.16 186.551C1160.21 193.894 1149.91 197.565 1137.26 197.565C1127.67 197.565 1120.94 194.914 1117.07 189.611C1113.4 184.104 1111.56 178.189 1111.56 171.867C1111.56 165.544 1113.5 159.732 1117.38 154.429C1121.25 148.922 1127.17 146.169 1135.12 146.169C1142.05 146.169 1147.56 148.514 1151.64 153.205C1155.92 157.692 1158.06 163.709 1158.06 171.255C1158.06 183.084 1152.76 191.038 1142.16 195.118C1148.68 193.486 1153.58 190.631 1156.84 186.551C1160.31 182.472 1162.04 177.781 1162.04 172.479C1162.04 162.689 1160 152.593 1155.92 142.192C1149.8 125.875 1142.97 109.865 1135.43 94.1606C1127.88 78.4562 1120.33 62.8538 1112.79 47.3533C1111.56 57.1431 1110.34 68.2586 1109.12 80.6997C1108.1 93.1409 1107.18 105.582 1106.36 118.023C1105.75 130.26 1105.14 141.274 1104.53 151.064C1104.12 160.649 1103.91 167.482 1103.91 171.561C1103.91 176.66 1104.32 181.351 1105.14 185.634C1106.16 189.917 1107.99 193.894 1110.64 197.565V198.177H1056.19Z" fill="white"/>
<path d="M1056.19 198.177V197.565C1057.82 192.466 1059.15 187.163 1060.17 181.657C1061.19 176.15 1062 169.521 1062.61 161.771C1063.63 151.777 1064.55 140.56 1065.37 128.119C1066.39 115.474 1067.3 102.931 1068.12 90.4895C1069.14 77.8444 1069.96 66.5249 1070.57 56.5312C1071.18 46.3336 1071.59 38.5833 1071.79 33.2806C1072 26.3461 1071.08 21.1453 1069.04 17.6781C1067 14.2109 1063.33 10.3358 1058.02 6.05279V5.44092H1154.09V6.05279C1153.27 8.09232 1152.56 10.2338 1151.95 12.4773C1151.54 14.5169 1151.33 16.7603 1151.33 19.2078C1151.33 22.0631 1151.74 25.3264 1152.56 28.9975C1153.37 32.6687 1154.49 37.1557 1155.92 42.4585C1158.17 49.5968 1161.12 57.653 1164.79 66.6269C1168.47 75.3969 1172.24 83.963 1176.11 92.3251C1179.79 83.1471 1183.25 73.7653 1186.52 64.1795C1189.78 54.3897 1193.25 43.9881 1196.92 32.9746C1199.36 25.8363 1200.59 20.1256 1200.59 15.8426C1200.59 11.1516 1199.26 7.88837 1196.61 6.05279V5.44092H1273.4V6.05279C1270.95 9.52 1269.22 12.8852 1268.2 16.1485C1267.18 19.2078 1266.67 23.5928 1266.67 29.3035C1266.67 30.9351 1266.67 32.8727 1266.67 35.1161C1266.87 37.1557 1267.08 39.3992 1267.28 41.8466C1268.3 61.6301 1269.52 81.6175 1270.95 101.809C1272.58 121.796 1274.32 141.784 1276.15 161.771C1276.97 169.521 1277.78 176.15 1278.6 181.657C1279.62 187.163 1280.95 192.466 1282.58 197.565V198.177H1207.62V197.565C1217.82 194.098 1224.45 189.815 1227.51 184.716C1230.77 179.413 1232.41 173.295 1232.41 166.36C1232.41 163.913 1232.1 158.61 1231.49 150.452C1231.08 142.09 1230.47 132.096 1229.65 120.471C1228.84 108.641 1227.92 96.2002 1226.9 83.1471C1225.88 70.0941 1224.86 57.755 1223.84 46.1296C1220.98 56.7352 1217.92 67.2388 1214.66 77.6404C1211.6 88.042 1207.83 99.6674 1203.34 112.516C1198.85 125.365 1193.25 140.764 1186.52 158.712C1182.23 169.929 1176.11 179.209 1168.16 186.551C1160.21 193.894 1149.91 197.565 1137.26 197.565C1127.67 197.565 1120.94 194.914 1117.07 189.611C1113.4 184.104 1111.56 178.189 1111.56 171.867C1111.56 165.544 1113.5 159.732 1117.38 154.429C1121.25 148.922 1127.17 146.169 1135.12 146.169C1142.05 146.169 1147.56 148.514 1151.64 153.205C1155.92 157.692 1158.06 163.709 1158.06 171.255C1158.06 183.084 1152.76 191.038 1142.16 195.118C1148.68 193.486 1153.58 190.631 1156.84 186.551C1160.31 182.472 1162.04 177.781 1162.04 172.479C1162.04 162.689 1160 152.593 1155.92 142.192C1149.8 125.875 1142.97 109.865 1135.43 94.1606C1127.88 78.4562 1120.33 62.8538 1112.79 47.3533C1111.56 57.1431 1110.34 68.2586 1109.12 80.6997C1108.1 93.1409 1107.18 105.582 1106.36 118.023C1105.75 130.26 1105.14 141.274 1104.53 151.064C1104.12 160.649 1103.91 167.482 1103.91 171.561C1103.91 176.66 1104.32 181.351 1105.14 185.634C1106.16 189.917 1107.99 193.894 1110.64 197.565V198.177H1056.19Z" fill="#000000"/>
<path d="M1305.68 198.177C1302.66 198.177 1300.74 196.255 1300.74 193.236V10.9793C1300.74 7.96002 1302.66 6.03863 1305.68 6.03863H1399.01C1441.83 6.03863 1470.1 35.1338 1470.1 74.9339C1470.1 114.459 1444.57 144.104 1401.75 144.104H1373.21V193.236C1373.21 196.255 1371.28 198.177 1368.26 198.177H1305.68ZM1391.6 91.6774C1399.28 91.6774 1403.67 86.7367 1403.67 79.6001C1403.67 72.4636 1399.28 67.5229 1391.6 67.5229H1372.93V91.6774H1391.6Z" fill="white"/>
<path d="M1305.68 198.177C1302.66 198.177 1300.74 196.255 1300.74 193.236V10.9793C1300.74 7.96002 1302.66 6.03863 1305.68 6.03863H1399.01C1441.83 6.03863 1470.1 35.1338 1470.1 74.9339C1470.1 114.459 1444.57 144.104 1401.75 144.104H1373.21V193.236C1373.21 196.255 1371.28 198.177 1368.26 198.177H1305.68ZM1391.6 91.6774C1399.28 91.6774 1403.67 86.7367 1403.67 79.6001C1403.67 72.4636 1399.28 67.5229 1391.6 67.5229H1372.93V91.6774H1391.6Z" fill="#000000"/>
<path d="M1565.61 202.02C1528.83 202.02 1487.93 185.002 1484.91 132.575C1484.64 129.282 1486.56 127.36 1489.58 127.36H1548.87C1552.43 127.36 1554.63 129.556 1554.63 132.575C1554.9 139.437 1557.65 144.653 1565.88 144.653C1571.37 144.653 1574.39 140.81 1574.67 136.418C1574.39 124.89 1560.67 124.341 1538.98 120.498C1509.61 115.283 1485.46 99.3629 1485.73 63.1311C1485.46 23.88 1518.95 0 1561.77 0C1591.69 0 1635.6 13.7242 1637.8 64.2291C1637.8 67.5229 1635.88 69.4442 1632.86 69.4442H1577.69C1574.39 69.4442 1572.75 67.5229 1572.47 64.5035C1572.2 59.5629 1570.82 53.7987 1562.86 53.7987C1558.47 53.7987 1555.45 56.5435 1555.45 60.9353C1555.45 71.0911 1569.18 71.0911 1590.59 76.3063C1620.23 83.4429 1644.11 99.9119 1644.39 136.418C1644.66 181.433 1607.33 202.02 1565.61 202.02Z" fill="white"/>
<path d="M1565.61 202.02C1528.83 202.02 1487.93 185.002 1484.91 132.575C1484.64 129.282 1486.56 127.36 1489.58 127.36H1548.87C1552.43 127.36 1554.63 129.556 1554.63 132.575C1554.9 139.437 1557.65 144.653 1565.88 144.653C1571.37 144.653 1574.39 140.81 1574.67 136.418C1574.39 124.89 1560.67 124.341 1538.98 120.498C1509.61 115.283 1485.46 99.3629 1485.73 63.1311C1485.46 23.88 1518.95 0 1561.77 0C1591.69 0 1635.6 13.7242 1637.8 64.2291C1637.8 67.5229 1635.88 69.4442 1632.86 69.4442H1577.69C1574.39 69.4442 1572.75 67.5229 1572.47 64.5035C1572.2 59.5629 1570.82 53.7987 1562.86 53.7987C1558.47 53.7987 1555.45 56.5435 1555.45 60.9353C1555.45 71.0911 1569.18 71.0911 1590.59 76.3063C1620.23 83.4429 1644.11 99.9119 1644.39 136.418C1644.66 181.433 1607.33 202.02 1565.61 202.02Z" fill="#000000"/>
<path d="M1815.8 121.388V110.069H1746.04V121.388C1746.04 129.954 1747.06 135.155 1749.1 136.991C1751.14 138.622 1757.67 139.438 1768.68 139.438V198.177H1664.97V139.438C1675.78 139.438 1682.21 138.622 1684.25 136.991C1686.49 135.155 1687.61 129.954 1687.61 121.388V81.9234C1687.61 73.3574 1686.49 68.2586 1684.25 66.6269C1682.21 64.7914 1675.78 63.8736 1664.97 63.8736V5.44092H1768.68V63.8736C1757.67 63.8736 1751.14 64.7914 1749.1 66.6269C1747.06 68.2586 1746.04 73.3574 1746.04 81.9234V92.0191H1815.8V81.9234C1815.8 73.3574 1814.78 68.2586 1812.74 66.6269C1810.7 64.7914 1804.17 63.8736 1793.16 63.8736V5.44092H1896.87V63.8736C1886.06 63.8736 1879.53 64.7914 1877.29 66.6269C1875.25 68.2586 1874.23 73.3574 1874.23 81.9234V121.388C1874.23 129.954 1875.25 135.155 1877.29 136.991C1879.53 138.622 1886.06 139.438 1896.87 139.438V198.177H1793.16V139.438C1804.17 139.438 1810.7 138.622 1812.74 136.991C1814.78 135.155 1815.8 129.954 1815.8 121.388Z" fill="white"/>
<path d="M1815.8 121.388V110.069H1746.04V121.388C1746.04 129.954 1747.06 135.155 1749.1 136.991C1751.14 138.622 1757.67 139.438 1768.68 139.438V198.177H1664.97V139.438C1675.78 139.438 1682.21 138.622 1684.25 136.991C1686.49 135.155 1687.61 129.954 1687.61 121.388V81.9234C1687.61 73.3574 1686.49 68.2586 1684.25 66.6269C1682.21 64.7914 1675.78 63.8736 1664.97 63.8736V5.44092H1768.68V63.8736C1757.67 63.8736 1751.14 64.7914 1749.1 66.6269C1747.06 68.2586 1746.04 73.3574 1746.04 81.9234V92.0191H1815.8V81.9234C1815.8 73.3574 1814.78 68.2586 1812.74 66.6269C1810.7 64.7914 1804.17 63.8736 1793.16 63.8736V5.44092H1896.87V63.8736C1886.06 63.8736 1879.53 64.7914 1877.29 66.6269C1875.25 68.2586 1874.23 73.3574 1874.23 81.9234V121.388C1874.23 129.954 1875.25 135.155 1877.29 136.991C1879.53 138.622 1886.06 139.438 1896.87 139.438V198.177H1793.16V139.438C1804.17 139.438 1810.7 138.622 1812.74 136.991C1814.78 135.155 1815.8 129.954 1815.8 121.388Z" fill="#000000"/>
<path d="M1929.19 198.177C1926.17 198.177 1924.25 196.255 1924.25 193.236V10.9793C1924.25 7.96002 1926.17 6.03863 1929.19 6.03863H1991.77C1994.79 6.03863 1996.71 7.96002 1996.71 10.9793V193.236C1996.71 196.255 1994.79 198.177 1991.77 198.177H1929.19Z" fill="white"/>
<path d="M1929.19 198.177C1926.17 198.177 1924.25 196.255 1924.25 193.236V10.9793C1924.25 7.96002 1926.17 6.03863 1929.19 6.03863H1991.77C1994.79 6.03863 1996.71 7.96002 1996.71 10.9793V193.236C1996.71 196.255 1994.79 198.177 1991.77 198.177H1929.19Z" fill="#000000"/>
<path d="M2025.28 198.177C2022.26 198.177 2020.34 196.255 2020.34 193.236V10.9793C2020.34 7.96002 2022.26 6.03863 2025.28 6.03863H2118.88C2160.6 6.03863 2186.68 33.487 2186.68 68.0718C2186.68 90.0305 2178.72 105.676 2162.52 117.479L2196.56 192.413C2198.2 195.706 2196.56 198.177 2192.99 198.177H2127.94C2125.19 198.177 2123.54 196.804 2122.45 194.334L2110.1 161.396L2099.39 133.673H2091.98C2092.53 142.457 2092.8 151.24 2092.8 159.749V193.236C2092.8 196.255 2090.88 198.177 2087.86 198.177H2025.28ZM2105.98 87.0112C2113.11 87.0112 2117.51 83.1684 2117.51 74.9339C2117.51 66.4249 2113.11 63.1311 2105.98 63.1311H2090.61V87.0112H2105.98Z" fill="white"/>
<path d="M2025.28 198.177C2022.26 198.177 2020.34 196.255 2020.34 193.236V10.9793C2020.34 7.96002 2022.26 6.03863 2025.28 6.03863H2118.88C2160.6 6.03863 2186.68 33.487 2186.68 68.0718C2186.68 90.0305 2178.72 105.676 2162.52 117.479L2196.56 192.413C2198.2 195.706 2196.56 198.177 2192.99 198.177H2127.94C2125.19 198.177 2123.54 196.804 2122.45 194.334L2110.1 161.396L2099.39 133.673H2091.98C2092.53 142.457 2092.8 151.24 2092.8 159.749V193.236C2092.8 196.255 2090.88 198.177 2087.86 198.177H2025.28ZM2105.98 87.0112C2113.11 87.0112 2117.51 83.1684 2117.51 74.9339C2117.51 66.4249 2113.11 63.1311 2105.98 63.1311H2090.61V87.0112H2105.98Z" fill="#000000"/>
<path d="M2214.92 198.177C2211.9 198.177 2209.98 196.255 2209.98 193.236V10.9793C2209.98 7.96002 2211.9 6.03863 2214.92 6.03863H2338.16C2341.18 6.03863 2343.1 7.96002 2343.1 10.9793V64.2291C2343.1 67.2484 2341.18 69.1698 2338.16 69.1698H2281.62V80.698H2318.95C2321.97 80.698 2323.89 82.6194 2323.89 85.6387V118.851C2323.89 121.871 2321.97 123.792 2318.95 123.792H2281.62V136.144H2339.26C2342.28 136.144 2344.2 138.065 2344.2 141.084V193.236C2344.2 196.255 2342.28 198.177 2339.26 198.177H2214.92Z" fill="white"/>
<path d="M2214.92 198.177C2211.9 198.177 2209.98 196.255 2209.98 193.236V10.9793C2209.98 7.96002 2211.9 6.03863 2214.92 6.03863H2338.16C2341.18 6.03863 2343.1 7.96002 2343.1 10.9793V64.2291C2343.1 67.2484 2341.18 69.1698 2338.16 69.1698H2281.62V80.698H2318.95C2321.97 80.698 2323.89 82.6194 2323.89 85.6387V118.851C2323.89 121.871 2321.97 123.792 2318.95 123.792H2281.62V136.144H2339.26C2342.28 136.144 2344.2 138.065 2344.2 141.084V193.236C2344.2 196.255 2342.28 198.177 2339.26 198.177H2214.92Z" fill="#000000"/>
</svg>
