<svg width="683" height="202" viewBox="0 0 683 202" fill="none" xmlns="http://www.w3.org/2000/svg">
<path d="M104.029 201.745C43.3683 201.745 0 155.632 0 100.735C0 45.8387 43.3683 0 104.029 0C164.415 0 208.058 45.8387 208.058 100.735C208.058 155.632 164.415 201.745 104.029 201.745ZM104.029 127.086C119.949 127.086 131.752 115.008 131.752 100.735C131.752 86.4622 119.949 74.3849 104.029 74.3849C88.1091 74.3849 76.3063 86.4622 76.3063 100.735C76.3063 115.008 88.1091 127.086 104.029 127.086Z" fill="white"/>
<path d="M104.029 201.745C43.3683 201.745 0 155.632 0 100.735C0 45.8387 43.3683 0 104.029 0C164.415 0 208.058 45.8387 208.058 100.735C208.058 155.632 164.415 201.745 104.029 201.745ZM104.029 127.086C119.949 127.086 131.752 115.008 131.752 100.735C131.752 86.4622 119.949 74.3849 104.029 74.3849C88.1091 74.3849 76.3063 86.4622 76.3063 100.735C76.3063 115.008 88.1091 127.086 104.029 127.086Z" fill="#000000"/>
<path d="M326.907 197.079C323.888 197.079 321.967 195.158 321.967 192.138V125.439H301.655V192.138C301.655 195.158 299.733 197.079 296.714 197.079H233.583C230.564 197.079 228.642 195.158 228.642 192.138V9.8814C228.642 6.86209 230.564 4.9407 233.583 4.9407H296.714C299.733 4.9407 301.655 6.86209 301.655 9.8814V73.5615H321.967V9.8814C321.967 6.86209 323.888 4.9407 326.907 4.9407H390.038C393.058 4.9407 394.979 6.86209 394.979 9.8814V192.138C394.979 195.158 393.058 197.079 390.038 197.079H326.907Z" fill="white"/>
<path d="M326.907 197.079C323.888 197.079 321.967 195.158 321.967 192.138V125.439H301.655V192.138C301.655 195.158 299.733 197.079 296.714 197.079H233.583C230.564 197.079 228.642 195.158 228.642 192.138V9.8814C228.642 6.86209 230.564 4.9407 233.583 4.9407H296.714C299.733 4.9407 301.655 6.86209 301.655 9.8814V73.5615H321.967V9.8814C321.967 6.86209 323.888 4.9407 326.907 4.9407H390.038C393.058 4.9407 394.979 6.86209 394.979 9.8814V192.138C394.979 195.158 393.058 197.079 390.038 197.079H326.907Z" fill="#000000"/>
<path d="M423.491 197.079C420.472 197.079 418.55 195.158 418.55 192.138V9.8814C418.55 6.86209 420.472 4.9407 423.491 4.9407H486.073C489.092 4.9407 491.014 6.86209 491.014 9.8814V192.138C491.014 195.158 489.092 197.079 486.073 197.079H423.491Z" fill="white"/>
<path d="M423.491 197.079C420.472 197.079 418.55 195.158 418.55 192.138V9.8814C418.55 6.86209 420.472 4.9407 423.491 4.9407H486.073C489.092 4.9407 491.014 6.86209 491.014 9.8814V192.138C491.014 195.158 489.092 197.079 486.073 197.079H423.491Z" fill="#000000"/>
<path d="M597.056 198.303C588.286 198.303 579.822 198.201 571.664 197.997C563.506 197.793 557.183 197.487 552.696 197.079C537.196 195.651 526.59 191.878 520.879 185.759C515.169 179.437 512.313 168.933 512.313 154.249C512.313 130.998 512.925 110.501 514.149 92.7568C515.577 74.8089 517.004 59.8183 518.432 47.785C519.656 36.3637 522.103 27.5937 525.774 21.4751C529.445 15.1525 534.646 10.7675 541.377 8.32008C548.311 5.66868 557.081 4.34299 567.687 4.34299C570.746 4.34299 573.907 4.44497 577.171 4.64893C580.434 4.64893 584.207 4.64893 588.49 4.64893C585.635 10.3596 583.391 16.1723 581.759 22.0869C580.128 27.7976 578.904 33.6103 578.088 39.5249C580.332 33.2024 583.493 27.2878 587.572 21.781C591.855 16.2743 597.26 11.8893 603.786 8.62601C610.517 5.15881 618.675 3.42521 628.261 3.42521C638.255 3.42521 646.515 4.64892 653.041 7.09636C659.772 9.33985 665.074 14.1328 668.95 21.4751C672.825 28.8174 675.476 40.0348 676.904 55.1274C678.127 66.5488 679.351 80.6215 680.575 97.3457C681.799 113.866 682.41 132.834 682.41 154.249C682.41 165.466 681.085 174.134 678.433 180.253C675.782 186.167 671.091 190.348 664.361 192.796C657.834 195.243 648.758 196.773 637.133 197.385C632.85 197.589 627.037 197.793 619.695 197.997C612.556 198.201 605.01 198.303 597.056 198.303ZM576.253 45.0317H574.417C569.522 45.0317 566.157 46.1534 564.321 48.3969C562.486 50.6404 561.058 55.3313 560.038 62.4697C559.019 69.4041 557.999 79.2958 556.979 92.1449C555.959 104.994 555.45 119.475 555.45 135.587C555.45 141.298 556.265 145.683 557.897 148.742C559.732 151.801 563.506 153.841 569.216 154.861C574.927 155.88 583.595 156.39 595.22 156.39C608.273 156.39 617.757 155.982 623.672 155.166C629.79 154.147 633.768 152.107 635.603 149.048C637.439 145.785 638.357 140.89 638.357 134.363C638.357 118.251 637.949 104.79 637.133 93.9805C636.521 82.967 635.399 72.5654 633.768 62.7756C632.952 55.6373 631.014 50.7424 627.955 48.091C624.896 45.4396 619.287 44.1139 611.129 44.1139C602.767 44.1139 595.934 46.0515 590.631 49.9266C585.533 53.8017 581.76 58.6966 579.312 64.6112C576.865 70.3219 575.641 76.3385 575.641 82.6611C575.641 86.5362 576.049 90.0034 576.865 93.0627C576.865 92.2469 576.865 91.4311 576.865 90.6153C576.865 82.2532 579.108 76.0326 583.595 71.9535C588.082 67.6705 593.487 65.529 599.809 65.529C606.54 65.529 612.148 67.6705 616.635 71.9535C621.326 76.0326 623.672 81.7433 623.672 89.0856C623.672 95.2042 621.734 100.711 617.859 105.606C614.188 110.297 608.375 112.642 600.421 112.642C592.875 112.642 586.246 109.685 580.536 103.77C575.029 97.8556 572.276 87.7599 572.276 73.4832C572.276 69.6081 572.582 65.2231 573.193 60.3282C573.805 55.4333 574.825 50.3345 576.253 45.0317Z" fill="white"/>
<path d="M597.056 198.303C588.286 198.303 579.822 198.201 571.664 197.997C563.506 197.793 557.183 197.487 552.696 197.079C537.196 195.651 526.59 191.878 520.879 185.759C515.169 179.437 512.313 168.933 512.313 154.249C512.313 130.998 512.925 110.501 514.149 92.7568C515.577 74.8089 517.004 59.8183 518.432 47.785C519.656 36.3637 522.103 27.5937 525.774 21.4751C529.445 15.1525 534.646 10.7675 541.377 8.32008C548.311 5.66868 557.081 4.34299 567.687 4.34299C570.746 4.34299 573.907 4.44497 577.171 4.64893C580.434 4.64893 584.207 4.64893 588.49 4.64893C585.635 10.3596 583.391 16.1723 581.759 22.0869C580.128 27.7976 578.904 33.6103 578.088 39.5249C580.332 33.2024 583.493 27.2878 587.572 21.781C591.855 16.2743 597.26 11.8893 603.786 8.62601C610.517 5.15881 618.675 3.42521 628.261 3.42521C638.255 3.42521 646.515 4.64892 653.041 7.09636C659.772 9.33985 665.074 14.1328 668.95 21.4751C672.825 28.8174 675.476 40.0348 676.904 55.1274C678.127 66.5488 679.351 80.6215 680.575 97.3457C681.799 113.866 682.41 132.834 682.41 154.249C682.41 165.466 681.085 174.134 678.433 180.253C675.782 186.167 671.091 190.348 664.361 192.796C657.834 195.243 648.758 196.773 637.133 197.385C632.85 197.589 627.037 197.793 619.695 197.997C612.556 198.201 605.01 198.303 597.056 198.303ZM576.253 45.0317H574.417C569.522 45.0317 566.157 46.1534 564.321 48.3969C562.486 50.6404 561.058 55.3313 560.038 62.4697C559.019 69.4041 557.999 79.2958 556.979 92.1449C555.959 104.994 555.45 119.475 555.45 135.587C555.45 141.298 556.265 145.683 557.897 148.742C559.732 151.801 563.506 153.841 569.216 154.861C574.927 155.88 583.595 156.39 595.22 156.39C608.273 156.39 617.757 155.982 623.672 155.166C629.79 154.147 633.768 152.107 635.603 149.048C637.439 145.785 638.357 140.89 638.357 134.363C638.357 118.251 637.949 104.79 637.133 93.9805C636.521 82.967 635.399 72.5654 633.768 62.7756C632.952 55.6373 631.014 50.7424 627.955 48.091C624.896 45.4396 619.287 44.1139 611.129 44.1139C602.767 44.1139 595.934 46.0515 590.631 49.9266C585.533 53.8017 581.76 58.6966 579.312 64.6112C576.865 70.3219 575.641 76.3385 575.641 82.6611C575.641 86.5362 576.049 90.0034 576.865 93.0627C576.865 92.2469 576.865 91.4311 576.865 90.6153C576.865 82.2532 579.108 76.0326 583.595 71.9535C588.082 67.6705 593.487 65.529 599.809 65.529C606.54 65.529 612.148 67.6705 616.635 71.9535C621.326 76.0326 623.672 81.7433 623.672 89.0856C623.672 95.2042 621.734 100.711 617.859 105.606C614.188 110.297 608.375 112.642 600.421 112.642C592.875 112.642 586.246 109.685 580.536 103.77C575.029 97.8556 572.276 87.7599 572.276 73.4832C572.276 69.6081 572.582 65.2231 573.193 60.3282C573.805 55.4333 574.825 50.3345 576.253 45.0317Z" fill="#000000"/>
</svg>
