<svg width="711" height="197" viewBox="0 0 711 197" fill="none" xmlns="http://www.w3.org/2000/svg">
<path d="M82.3449 196.307C36.5063 196.307 0 173.251 0 124.942V5.54145C0 2.52214 1.92138 0.60075 4.9407 0.60075H68.6208C71.6401 0.60075 73.5615 2.52214 73.5615 5.54145V125.765C73.5615 132.627 76.5808 136.195 83.4429 136.195C90.0305 136.195 93.0498 132.627 93.0498 125.765V5.54145C93.0498 2.52214 94.9712 0.60075 97.9905 0.60075H159.475C162.494 0.60075 164.415 2.52214 164.415 5.54145V125.216C164.415 173.525 130.379 196.307 82.3449 196.307Z" fill="white"/>
<path d="M82.3449 196.307C36.5063 196.307 0 173.251 0 124.942V5.54145C0 2.52214 1.92138 0.60075 4.9407 0.60075H68.6208C71.6401 0.60075 73.5615 2.52214 73.5615 5.54145V125.765C73.5615 132.627 76.5808 136.195 83.4429 136.195C90.0305 136.195 93.0498 132.627 93.0498 125.765V5.54145C93.0498 2.52214 94.9712 0.60075 97.9905 0.60075H159.475C162.494 0.60075 164.415 2.52214 164.415 5.54145V125.216C164.415 173.525 130.379 196.307 82.3449 196.307Z" fill="#000000"/>
<path d="M227.321 192.739C224.302 192.739 222.381 190.818 222.381 187.798V66.4767H186.972C183.953 66.4767 182.032 64.5553 182.032 61.536V5.54145C182.032 2.52214 183.953 0.60075 186.972 0.60075H330.527C333.546 0.60075 335.468 2.52214 335.468 5.54145V61.536C335.468 64.5553 333.546 66.4767 330.527 66.4767H294.844V187.798C294.844 190.818 292.923 192.739 289.904 192.739H227.321Z" fill="white"/>
<path d="M227.321 192.739C224.302 192.739 222.381 190.818 222.381 187.798V66.4767H186.972C183.953 66.4767 182.032 64.5553 182.032 61.536V5.54145C182.032 2.52214 183.953 0.60075 186.972 0.60075H330.527C333.546 0.60075 335.468 2.52214 335.468 5.54145V61.536C335.468 64.5553 333.546 66.4767 330.527 66.4767H294.844V187.798C294.844 190.818 292.923 192.739 289.904 192.739H227.321Z" fill="#000000"/>
<path d="M346.612 192.739V192.127C349.875 187.844 353.139 181.725 356.402 173.771C359.869 165.613 363.337 156.333 366.804 145.931C370.271 135.325 373.738 124.312 377.206 112.89C369.047 109.831 362.419 106.465 357.32 102.794C352.425 98.9189 349.977 93.5141 349.977 86.5796C349.977 82.5004 351.201 78.9312 353.649 75.8718C356.3 72.6085 360.175 70.9769 365.274 70.9769C369.557 70.9769 373.127 72.4046 375.982 75.26C379.041 77.9114 380.571 81.5826 380.571 86.2736C380.571 90.9646 379.347 94.7378 376.9 97.5932C374.452 100.449 370.577 101.876 365.274 101.876C360.991 101.876 357.422 100.653 354.566 98.2051C357.014 101.06 360.379 102.998 364.662 104.018C369.149 105.038 374.044 105.65 379.347 105.853C382.814 93.4121 386.18 81.0727 389.443 68.8353C392.91 56.5979 396.174 45.3803 399.233 35.1825C400.457 31.1034 401.374 27.5341 401.986 24.4748C402.802 21.2115 403.21 18.2541 403.21 15.6027C403.21 7.85233 399.029 2.8554 390.667 0.61188V0H492.237V0.61188C488.974 1.42771 486.424 3.36529 484.589 6.42464C482.753 9.28003 481.835 13.5631 481.835 19.2739C481.835 25.3926 483.059 33.5509 485.507 43.7487C494.685 80.4609 505.392 116.867 517.63 152.967C520.689 162.145 523.646 169.998 526.502 176.524C529.357 182.847 532.417 188.048 535.68 192.127V192.739H453.995V192.127C459.91 190.495 464.091 188.048 466.539 184.785C469.19 181.521 470.516 177.34 470.516 172.241C470.516 169.998 470.312 167.55 469.904 164.899C469.496 162.247 468.884 159.29 468.068 156.027C467.252 152.356 464.193 148.786 458.89 145.319C453.791 141.852 447.265 138.588 439.31 135.529C431.356 132.266 422.892 129.105 413.918 126.045C411.47 135.631 408.921 145.625 406.269 156.027C405.658 159.086 405.148 161.942 404.74 164.593C404.332 167.244 404.128 169.692 404.128 171.935C404.128 177.238 405.352 181.521 407.799 184.785C410.247 188.048 414.428 190.495 420.342 192.127V192.739H346.612ZM419.731 104.936C425.849 105.344 431.866 106.975 437.781 109.831C443.695 112.686 449.202 117.479 454.301 124.21C459.604 130.94 464.499 140.424 468.986 152.661H469.598C464.499 132.878 459.706 113.4 455.219 94.2279C450.732 75.056 446.041 57.1078 441.146 40.3834H439.922C436.659 49.7654 433.294 59.8613 429.826 70.671C426.563 81.2767 423.198 92.6983 419.731 104.936Z" fill="white"/>
<path d="M346.612 192.739V192.127C349.875 187.844 353.139 181.725 356.402 173.771C359.869 165.613 363.337 156.333 366.804 145.931C370.271 135.325 373.738 124.312 377.206 112.89C369.047 109.831 362.419 106.465 357.32 102.794C352.425 98.9189 349.977 93.5141 349.977 86.5796C349.977 82.5004 351.201 78.9312 353.649 75.8718C356.3 72.6085 360.175 70.9769 365.274 70.9769C369.557 70.9769 373.127 72.4046 375.982 75.26C379.041 77.9114 380.571 81.5826 380.571 86.2736C380.571 90.9646 379.347 94.7378 376.9 97.5932C374.452 100.449 370.577 101.876 365.274 101.876C360.991 101.876 357.422 100.653 354.566 98.2051C357.014 101.06 360.379 102.998 364.662 104.018C369.149 105.038 374.044 105.65 379.347 105.853C382.814 93.4121 386.18 81.0727 389.443 68.8353C392.91 56.5979 396.174 45.3803 399.233 35.1825C400.457 31.1034 401.374 27.5341 401.986 24.4748C402.802 21.2115 403.21 18.2541 403.21 15.6027C403.21 7.85233 399.029 2.8554 390.667 0.61188V0H492.237V0.61188C488.974 1.42771 486.424 3.36529 484.589 6.42464C482.753 9.28003 481.835 13.5631 481.835 19.2739C481.835 25.3926 483.059 33.5509 485.507 43.7487C494.685 80.4609 505.392 116.867 517.63 152.967C520.689 162.145 523.646 169.998 526.502 176.524C529.357 182.847 532.417 188.048 535.68 192.127V192.739H453.995V192.127C459.91 190.495 464.091 188.048 466.539 184.785C469.19 181.521 470.516 177.34 470.516 172.241C470.516 169.998 470.312 167.55 469.904 164.899C469.496 162.247 468.884 159.29 468.068 156.027C467.252 152.356 464.193 148.786 458.89 145.319C453.791 141.852 447.265 138.588 439.31 135.529C431.356 132.266 422.892 129.105 413.918 126.045C411.47 135.631 408.921 145.625 406.269 156.027C405.658 159.086 405.148 161.942 404.74 164.593C404.332 167.244 404.128 169.692 404.128 171.935C404.128 177.238 405.352 181.521 407.799 184.785C410.247 188.048 414.428 190.495 420.342 192.127V192.739H346.612ZM419.731 104.936C425.849 105.344 431.866 106.975 437.781 109.831C443.695 112.686 449.202 117.479 454.301 124.21C459.604 130.94 464.499 140.424 468.986 152.661H469.598C464.499 132.878 459.706 113.4 455.219 94.2279C450.732 75.056 446.041 57.1078 441.146 40.3834H439.922C436.659 49.7654 433.294 59.8613 429.826 70.671C426.563 81.2767 423.198 92.6983 419.731 104.936Z" fill="#000000"/>
<path d="M642.855 192.739C639.835 192.739 637.914 190.818 637.914 187.798V121.099H617.602V187.798C617.602 190.818 615.681 192.739 612.661 192.739H549.53C546.511 192.739 544.59 190.818 544.59 187.798V5.54145C544.59 2.52214 546.511 0.60075 549.53 0.60075H612.661C615.681 0.60075 617.602 2.52214 617.602 5.54145V69.2215H637.914V5.54145C637.914 2.52214 639.835 0.60075 642.855 0.60075H705.986C709.005 0.60075 710.926 2.52214 710.926 5.54145V187.798C710.926 190.818 709.005 192.739 705.986 192.739H642.855Z" fill="white"/>
<path d="M642.855 192.739C639.835 192.739 637.914 190.818 637.914 187.798V121.099H617.602V187.798C617.602 190.818 615.681 192.739 612.661 192.739H549.53C546.511 192.739 544.59 190.818 544.59 187.798V5.54145C544.59 2.52214 546.511 0.60075 549.53 0.60075H612.661C615.681 0.60075 617.602 2.52214 617.602 5.54145V69.2215H637.914V5.54145C637.914 2.52214 639.835 0.60075 642.855 0.60075H705.986C709.005 0.60075 710.926 2.52214 710.926 5.54145V187.798C710.926 190.818 709.005 192.739 705.986 192.739H642.855Z" fill="#000000"/>
</svg>
