<svg width="1290" height="200" viewBox="0 0 1290 200" fill="none" xmlns="http://www.w3.org/2000/svg">
<path d="M60.9971 197.079C58.2522 197.079 56.0564 195.981 55.2329 192.962L0.336283 10.4304C-0.76165 6.86209 0.885249 4.9407 4.45353 4.9407H74.7212C77.7405 4.9407 79.3874 6.58761 79.9364 9.33244L91.4647 66.6994C94.484 82.0705 95.5819 101.284 97.5033 116.93H99.6992C101.895 101.284 103.267 82.0705 106.287 66.4249L117.541 9.33244C118.09 6.58761 119.736 4.9407 122.756 4.9407H189.73C193.298 4.9407 194.945 6.86209 193.847 10.4304L140.048 192.962C139.225 195.981 137.303 197.079 134.559 197.079H60.9971Z" fill="white"/>
<path d="M60.9971 197.079C58.2522 197.079 56.0564 195.981 55.2329 192.962L0.336283 10.4304C-0.76165 6.86209 0.885249 4.9407 4.45353 4.9407H74.7212C77.7405 4.9407 79.3874 6.58761 79.9364 9.33244L91.4647 66.6994C94.484 82.0705 95.5819 101.284 97.5033 116.93H99.6992C101.895 101.284 103.267 82.0705 106.287 66.4249L117.541 9.33244C118.09 6.58761 119.736 4.9407 122.756 4.9407H189.73C193.298 4.9407 194.945 6.86209 193.847 10.4304L140.048 192.962C139.225 195.981 137.303 197.079 134.559 197.079H60.9971Z" fill="#000000"/>
<path d="M214.665 197.079C211.645 197.079 209.724 195.158 209.724 192.138V9.8814C209.724 6.86209 211.645 4.9407 214.665 4.9407H277.247C280.266 4.9407 282.188 6.86209 282.188 9.8814V192.138C282.188 195.158 280.266 197.079 277.247 197.079H214.665Z" fill="white"/>
<path d="M214.665 197.079C211.645 197.079 209.724 195.158 209.724 192.138V9.8814C209.724 6.86209 211.645 4.9407 214.665 4.9407H277.247C280.266 4.9407 282.188 6.86209 282.188 9.8814V192.138C282.188 195.158 280.266 197.079 277.247 197.079H214.665Z" fill="#000000"/>
<path d="M300.428 197.079V196.467C306.546 188.207 308.994 182.088 309.3 160.673C309.912 145.683 309.912 124.879 309.912 103.464C309.912 82.0492 309.912 59.4104 309.3 41.0546C308.994 19.3336 305.629 10.1557 300.428 4.95486V4.34299H418.517C450.333 4.34299 468.995 14.1327 468.995 47.785C468.995 60.0223 460.429 72.8713 436.873 78.3781C444.827 103.77 451.251 129.162 460.429 156.39C466.854 175.358 473.584 186.371 479.703 196.467V197.079H401.691V196.467C413.622 193.102 417.905 187.901 417.905 178.723C417.905 173.522 416.681 167.098 414.54 159.144C402.914 113.56 397.408 101.323 380.887 101.323C370.486 101.323 361.308 110.501 361.308 125.185C361.308 129.162 363.143 133.751 365.285 136.505C363.755 134.057 363.449 130.692 363.449 127.633C363.449 118.455 369.262 110.501 379.97 110.501C388.23 110.501 396.49 116.007 396.49 126.715C396.49 138.034 387.618 143.541 379.97 143.541C366.815 143.541 358.249 133.445 358.249 119.067C358.249 107.135 364.061 99.1813 380.887 91.839L405.056 81.1314C421.882 73.7891 426.777 67.9764 426.777 59.7163C426.777 48.7028 420.658 44.1139 404.138 44.1139C387.006 44.1139 370.18 44.4198 352.436 45.0317C352.436 55.1274 352.436 67.3646 352.436 78.3781C352.436 123.656 353.354 154.249 353.354 154.555C353.354 184.23 360.39 192.184 382.417 196.467V197.079H300.428Z" fill="white"/>
<path d="M300.428 197.079V196.467C306.546 188.207 308.994 182.088 309.3 160.673C309.912 145.683 309.912 124.879 309.912 103.464C309.912 82.0492 309.912 59.4104 309.3 41.0546C308.994 19.3336 305.629 10.1557 300.428 4.95486V4.34299H418.517C450.333 4.34299 468.995 14.1327 468.995 47.785C468.995 60.0223 460.429 72.8713 436.873 78.3781C444.827 103.77 451.251 129.162 460.429 156.39C466.854 175.358 473.584 186.371 479.703 196.467V197.079H401.691V196.467C413.622 193.102 417.905 187.901 417.905 178.723C417.905 173.522 416.681 167.098 414.54 159.144C402.914 113.56 397.408 101.323 380.887 101.323C370.486 101.323 361.308 110.501 361.308 125.185C361.308 129.162 363.143 133.751 365.285 136.505C363.755 134.057 363.449 130.692 363.449 127.633C363.449 118.455 369.262 110.501 379.97 110.501C388.23 110.501 396.49 116.007 396.49 126.715C396.49 138.034 387.618 143.541 379.97 143.541C366.815 143.541 358.249 133.445 358.249 119.067C358.249 107.135 364.061 99.1813 380.887 91.839L405.056 81.1314C421.882 73.7891 426.777 67.9764 426.777 59.7163C426.777 48.7028 420.658 44.1139 404.138 44.1139C387.006 44.1139 370.18 44.4198 352.436 45.0317C352.436 55.1274 352.436 67.3646 352.436 78.3781C352.436 123.656 353.354 154.249 353.354 154.555C353.354 184.23 360.39 192.184 382.417 196.467V197.079H300.428Z" fill="#000000"/>
<path d="M575.166 199.549C529.602 200.373 483.489 166.611 483.489 102.657C483.489 42.5449 524.112 0 583.675 0C627.867 0 668.491 25.5269 677 77.1298C677.548 80.4236 675.902 82.3449 672.608 82.3449H608.928C606.732 82.3449 605.359 81.5215 603.713 79.3256C599.87 74.6594 593.557 72.4636 586.695 72.4636C572.421 72.4636 559.246 82.8939 559.246 104.029C559.246 124.89 571.598 136.144 589.439 136.144C599.87 136.144 608.928 132.85 612.496 126.811V125.988L589.988 126.262C586.969 126.262 585.048 124.341 585.048 121.322V96.8926C585.048 93.8732 586.969 91.9519 589.988 91.9519H672.882C675.902 91.9519 677.823 93.8732 677.823 96.8926V192.138C677.823 195.158 675.902 197.079 672.882 197.079H633.357C630.612 197.079 628.69 195.981 627.593 193.511L623.75 185.825H622.652C610.3 197.353 592.184 199.549 575.166 199.549Z" fill="white"/>
<path d="M575.166 199.549C529.602 200.373 483.489 166.611 483.489 102.657C483.489 42.5449 524.112 0 583.675 0C627.867 0 668.491 25.5269 677 77.1298C677.548 80.4236 675.902 82.3449 672.608 82.3449H608.928C606.732 82.3449 605.359 81.5215 603.713 79.3256C599.87 74.6594 593.557 72.4636 586.695 72.4636C572.421 72.4636 559.246 82.8939 559.246 104.029C559.246 124.89 571.598 136.144 589.439 136.144C599.87 136.144 608.928 132.85 612.496 126.811V125.988L589.988 126.262C586.969 126.262 585.048 124.341 585.048 121.322V96.8926C585.048 93.8732 586.969 91.9519 589.988 91.9519H672.882C675.902 91.9519 677.823 93.8732 677.823 96.8926V192.138C677.823 195.158 675.902 197.079 672.882 197.079H633.357C630.612 197.079 628.69 195.981 627.593 193.511L623.75 185.825H622.652C610.3 197.353 592.184 199.549 575.166 199.549Z" fill="#000000"/>
<path d="M705.814 197.079C702.794 197.079 700.873 195.158 700.873 192.138V9.8814C700.873 6.86209 702.794 4.9407 705.814 4.9407H768.396C771.415 4.9407 773.337 6.86209 773.337 9.8814V192.138C773.337 195.158 771.415 197.079 768.396 197.079H705.814Z" fill="white"/>
<path d="M705.814 197.079C702.794 197.079 700.873 195.158 700.873 192.138V9.8814C700.873 6.86209 702.794 4.9407 705.814 4.9407H768.396C771.415 4.9407 773.337 6.86209 773.337 9.8814V192.138C773.337 195.158 771.415 197.079 768.396 197.079H705.814Z" fill="#000000"/>
<path d="M801.904 197.079C798.885 197.079 796.964 195.158 796.964 192.138V9.8814C796.964 6.86209 798.885 4.9407 801.904 4.9407H867.506C870.251 4.9407 872.447 6.58761 872.995 9.33244L887.818 75.7573C890.013 85.6387 891.111 95.7946 893.307 105.676L895.229 105.402C894.405 96.0691 892.484 75.2084 892.484 68.3463L891.935 9.8814C891.935 6.86209 893.856 4.9407 896.875 4.9407H956.713C959.732 4.9407 961.654 6.86209 961.654 9.8814V192.138C961.654 195.158 959.732 197.079 956.713 197.079H897.973C895.229 197.079 893.307 195.981 892.484 192.962L873.819 126.262C871.074 116.381 869.153 106.225 866.957 96.3436L865.035 96.6181C866.133 105.95 868.055 126.811 868.055 133.673L868.604 192.138C868.604 195.158 866.682 197.079 863.663 197.079H801.904Z" fill="white"/>
<path d="M801.904 197.079C798.885 197.079 796.964 195.158 796.964 192.138V9.8814C796.964 6.86209 798.885 4.9407 801.904 4.9407H867.506C870.251 4.9407 872.447 6.58761 872.995 9.33244L887.818 75.7573C890.013 85.6387 891.111 95.7946 893.307 105.676L895.229 105.402C894.405 96.0691 892.484 75.2084 892.484 68.3463L891.935 9.8814C891.935 6.86209 893.856 4.9407 896.875 4.9407H956.713C959.732 4.9407 961.654 6.86209 961.654 9.8814V192.138C961.654 195.158 959.732 197.079 956.713 197.079H897.973C895.229 197.079 893.307 195.981 892.484 192.962L873.819 126.262C871.074 116.381 869.153 106.225 866.957 96.3436L865.035 96.6181C866.133 105.95 868.055 126.811 868.055 133.673L868.604 192.138C868.604 195.158 866.682 197.079 863.663 197.079H801.904Z" fill="#000000"/>
<path d="M990.204 197.079C987.185 197.079 985.263 195.158 985.263 192.138V9.8814C985.263 6.86209 987.185 4.9407 990.204 4.9407H1052.79C1055.81 4.9407 1057.73 6.86209 1057.73 9.8814V192.138C1057.73 195.158 1055.81 197.079 1052.79 197.079H990.204Z" fill="white"/>
<path d="M990.204 197.079C987.185 197.079 985.263 195.158 985.263 192.138V9.8814C985.263 6.86209 987.185 4.9407 990.204 4.9407H1052.79C1055.81 4.9407 1057.73 6.86209 1057.73 9.8814V192.138C1057.73 195.158 1055.81 197.079 1052.79 197.079H990.204Z" fill="#000000"/>
<path d="M1165.3 141.4V197.079H1076.58V138.34C1089.12 134.669 1110.54 114.478 1120.94 90.3093C1123.39 84.4967 1124.92 79.9077 1124.92 72.5654C1124.92 67.3646 1121.86 61.8578 1113.6 61.8578H1099.83V4.34299H1239.95V47.1732C1239.95 64.9171 1250.65 83.8848 1257.08 94.5923L1269.62 115.09C1279.1 130.692 1284.31 136.811 1289.2 138.34V197.079H1186.71V141.4C1197.12 141.4 1201.09 136.811 1201.09 130.692C1201.09 126.715 1199.26 122.738 1197.73 119.985L1194.97 115.702H1134.4C1136.54 127.021 1145.72 138.034 1165.3 141.4ZM1140.82 87.556C1138.07 91.839 1136.24 96.4279 1135.01 100.711H1186.1L1159.79 57.5748L1140.82 87.556Z" fill="white"/>
<path d="M1165.3 141.4V197.079H1076.58V138.34C1089.12 134.669 1110.54 114.478 1120.94 90.3093C1123.39 84.4967 1124.92 79.9077 1124.92 72.5654C1124.92 67.3646 1121.86 61.8578 1113.6 61.8578H1099.83V4.34299H1239.95V47.1732C1239.95 64.9171 1250.65 83.8848 1257.08 94.5923L1269.62 115.09C1279.1 130.692 1284.31 136.811 1289.2 138.34V197.079H1186.71V141.4C1197.12 141.4 1201.09 136.811 1201.09 130.692C1201.09 126.715 1199.26 122.738 1197.73 119.985L1194.97 115.702H1134.4C1136.54 127.021 1145.72 138.034 1165.3 141.4ZM1140.82 87.556C1138.07 91.839 1136.24 96.4279 1135.01 100.711H1186.1L1159.79 57.5748L1140.82 87.556Z" fill="#000000"/>
</svg>
