<svg width="1423" height="202" viewBox="0 0 1423 202" fill="none" xmlns="http://www.w3.org/2000/svg">
<path d="M60.9971 197.079C58.2522 197.079 56.0564 195.981 55.2329 192.962L0.336283 10.4304C-0.76165 6.86209 0.885249 4.9407 4.45353 4.9407H74.7212C77.7405 4.9407 79.3874 6.58761 79.9364 9.33244L91.4647 66.6994C94.484 82.0705 95.5819 101.284 97.5033 116.93H99.6992C101.895 101.284 103.267 82.0705 106.287 66.4249L117.541 9.33244C118.09 6.58761 119.736 4.9407 122.756 4.9407H189.73C193.298 4.9407 194.945 6.86209 193.847 10.4304L140.048 192.962C139.225 195.981 137.303 197.079 134.559 197.079H60.9971Z" fill="white"/>
<path d="M60.9971 197.079C58.2522 197.079 56.0564 195.981 55.2329 192.962L0.336283 10.4304C-0.76165 6.86209 0.885249 4.9407 4.45353 4.9407H74.7212C77.7405 4.9407 79.3874 6.58761 79.9364 9.33244L91.4647 66.6994C94.484 82.0705 95.5819 101.284 97.5033 116.93H99.6992C101.895 101.284 103.267 82.0705 106.287 66.4249L117.541 9.33244C118.09 6.58761 119.736 4.9407 122.756 4.9407H189.73C193.298 4.9407 194.945 6.86209 193.847 10.4304L140.048 192.962C139.225 195.981 137.303 197.079 134.559 197.079H60.9971Z" fill="#000000"/>
<path d="M204.337 197.079V196.467C206.377 193.612 208.008 190.858 209.232 188.207C210.456 185.352 211.374 181.884 211.985 177.805C212.801 173.522 213.209 167.812 213.209 160.673C213.617 153.127 213.821 144.357 213.821 134.363C213.821 124.37 213.821 114.07 213.821 103.464C213.821 92.6548 213.821 81.8453 213.821 71.0357C213.821 60.2262 213.617 50.2325 213.209 41.0546C213.005 30.2451 212.087 22.1889 210.456 16.8861C209.028 11.5833 206.989 7.60625 204.337 4.95486V4.34299H353.631C353.427 9.44183 353.325 14.5407 353.325 19.6395C353.325 24.5344 353.325 29.7352 353.325 35.2419C353.325 46.0514 353.631 58.3906 354.243 72.2595H353.631C350.776 64.3053 347.818 58.3906 344.759 54.5155C341.904 50.4364 337.723 47.7851 332.216 46.5613C326.709 45.3376 318.449 44.7258 307.436 44.7258C297.646 44.7258 288.672 44.8277 280.514 45.0317C272.56 45.2356 264.605 45.5416 256.651 45.9495C256.447 56.3511 256.243 68.8942 256.039 83.5789C256.039 98.2635 255.733 113.152 255.122 128.245H255.733C257.161 105.402 261.75 88.8817 269.5 78.684C277.251 68.2824 288.57 63.0816 303.459 63.0816C317.123 63.0816 326.709 66.4468 332.216 73.1772C337.927 79.7037 340.782 88.6777 340.782 100.099C340.782 113.152 337.213 124.166 330.074 133.14C322.936 141.91 313.248 146.295 301.011 146.295C293.261 146.295 287.244 144.459 282.961 140.788C278.678 137.117 276.537 131.814 276.537 124.879C276.537 119.781 278.168 115.294 281.432 111.419C284.695 107.543 289.59 105.606 296.116 105.606C301.419 105.606 305.906 107.339 309.577 110.807C313.248 114.274 315.084 119.067 315.084 125.185C315.084 128.245 314.064 132.018 312.025 136.505C309.985 140.992 306.008 143.847 300.093 145.071C309.271 144.051 315.9 141.094 319.979 136.199C324.262 131.1 326.403 126.103 326.403 121.208C326.403 112.438 323.548 106.014 317.837 101.935C312.331 97.8556 304.682 95.8161 294.893 95.8161C284.695 95.8161 276.027 98.4675 268.888 103.77C261.954 109.073 258.079 117.741 257.263 129.774C257.059 131.814 256.957 133.955 256.957 136.199C256.957 138.238 256.957 140.38 256.957 142.623C256.957 146.498 257.059 150.781 257.263 155.472C265.217 156.084 273.273 156.492 281.432 156.696C289.59 156.696 298.564 156.696 308.353 156.696C316.919 156.696 323.752 156.39 328.851 155.778C333.95 155.166 337.927 153.943 340.782 152.107C343.841 150.068 346.391 147.314 348.43 143.847C350.47 140.176 352.509 135.281 354.549 129.162H355.161C354.957 135.689 354.753 142.113 354.549 148.436C354.549 154.759 354.549 161.081 354.549 167.404C354.549 173.114 354.549 178.417 354.549 183.312C354.549 188.003 354.651 192.592 354.855 197.079H204.337Z" fill="white"/>
<path d="M204.337 197.079V196.467C206.377 193.612 208.008 190.858 209.232 188.207C210.456 185.352 211.374 181.884 211.985 177.805C212.801 173.522 213.209 167.812 213.209 160.673C213.617 153.127 213.821 144.357 213.821 134.363C213.821 124.37 213.821 114.07 213.821 103.464C213.821 92.6548 213.821 81.8453 213.821 71.0357C213.821 60.2262 213.617 50.2325 213.209 41.0546C213.005 30.2451 212.087 22.1889 210.456 16.8861C209.028 11.5833 206.989 7.60625 204.337 4.95486V4.34299H353.631C353.427 9.44183 353.325 14.5407 353.325 19.6395C353.325 24.5344 353.325 29.7352 353.325 35.2419C353.325 46.0514 353.631 58.3906 354.243 72.2595H353.631C350.776 64.3053 347.818 58.3906 344.759 54.5155C341.904 50.4364 337.723 47.7851 332.216 46.5613C326.709 45.3376 318.449 44.7258 307.436 44.7258C297.646 44.7258 288.672 44.8277 280.514 45.0317C272.56 45.2356 264.605 45.5416 256.651 45.9495C256.447 56.3511 256.243 68.8942 256.039 83.5789C256.039 98.2635 255.733 113.152 255.122 128.245H255.733C257.161 105.402 261.75 88.8817 269.5 78.684C277.251 68.2824 288.57 63.0816 303.459 63.0816C317.123 63.0816 326.709 66.4468 332.216 73.1772C337.927 79.7037 340.782 88.6777 340.782 100.099C340.782 113.152 337.213 124.166 330.074 133.14C322.936 141.91 313.248 146.295 301.011 146.295C293.261 146.295 287.244 144.459 282.961 140.788C278.678 137.117 276.537 131.814 276.537 124.879C276.537 119.781 278.168 115.294 281.432 111.419C284.695 107.543 289.59 105.606 296.116 105.606C301.419 105.606 305.906 107.339 309.577 110.807C313.248 114.274 315.084 119.067 315.084 125.185C315.084 128.245 314.064 132.018 312.025 136.505C309.985 140.992 306.008 143.847 300.093 145.071C309.271 144.051 315.9 141.094 319.979 136.199C324.262 131.1 326.403 126.103 326.403 121.208C326.403 112.438 323.548 106.014 317.837 101.935C312.331 97.8556 304.682 95.8161 294.893 95.8161C284.695 95.8161 276.027 98.4675 268.888 103.77C261.954 109.073 258.079 117.741 257.263 129.774C257.059 131.814 256.957 133.955 256.957 136.199C256.957 138.238 256.957 140.38 256.957 142.623C256.957 146.498 257.059 150.781 257.263 155.472C265.217 156.084 273.273 156.492 281.432 156.696C289.59 156.696 298.564 156.696 308.353 156.696C316.919 156.696 323.752 156.39 328.851 155.778C333.95 155.166 337.927 153.943 340.782 152.107C343.841 150.068 346.391 147.314 348.43 143.847C350.47 140.176 352.509 135.281 354.549 129.162H355.161C354.957 135.689 354.753 142.113 354.549 148.436C354.549 154.759 354.549 161.081 354.549 167.404C354.549 173.114 354.549 178.417 354.549 183.312C354.549 188.003 354.651 192.592 354.855 197.079H204.337Z" fill="#000000"/>
<path d="M382.114 197.079C379.094 197.079 377.173 195.158 377.173 192.138V9.8814C377.173 6.86209 379.094 4.9407 382.114 4.9407H475.712C517.434 4.9407 543.51 32.389 543.51 66.9739C543.51 88.9325 535.55 104.578 519.355 116.381L553.391 191.315C555.038 194.609 553.391 197.079 549.823 197.079H484.77C482.025 197.079 480.379 195.706 479.281 193.236L466.929 160.298L456.224 132.575H448.813C449.362 141.359 449.636 150.142 449.636 158.651V192.138C449.636 195.158 447.715 197.079 444.696 197.079H382.114ZM462.812 85.9132C469.948 85.9132 474.34 82.0705 474.34 73.836C474.34 65.327 469.948 62.0332 462.812 62.0332H447.441V85.9132H462.812Z" fill="white"/>
<path d="M382.114 197.079C379.094 197.079 377.173 195.158 377.173 192.138V9.8814C377.173 6.86209 379.094 4.9407 382.114 4.9407H475.712C517.434 4.9407 543.51 32.389 543.51 66.9739C543.51 88.9325 535.55 104.578 519.355 116.381L553.391 191.315C555.038 194.609 553.391 197.079 549.823 197.079H484.77C482.025 197.079 480.379 195.706 479.281 193.236L466.929 160.298L456.224 132.575H448.813C449.362 141.359 449.636 150.142 449.636 158.651V192.138C449.636 195.158 447.715 197.079 444.696 197.079H382.114ZM462.812 85.9132C469.948 85.9132 474.34 82.0705 474.34 73.836C474.34 65.327 469.948 62.0332 462.812 62.0332H447.441V85.9132H462.812Z" fill="#000000"/>
<path d="M571.754 197.079C568.734 197.079 566.813 195.158 566.813 192.138V9.8814C566.813 6.86209 568.734 4.9407 571.754 4.9407H643.119C645.864 4.9407 648.06 6.58761 648.609 9.33244L664.254 74.1105L673.587 115.008H675.234L684.566 74.3849L700.212 9.33244C700.761 6.58761 702.956 4.9407 705.701 4.9407H777.067C780.086 4.9407 782.008 6.86209 782.008 9.8814V192.138C782.008 195.158 780.086 197.079 777.067 197.079H719.7C716.681 197.079 714.759 195.158 714.759 192.138L715.034 152.887C715.034 139.163 717.779 105.676 718.876 97.9905L716.681 97.716C715.034 105.951 710.093 129.282 707.897 137.516L693.075 192.962C692.252 195.981 690.33 197.079 687.585 197.079H662.058C659.314 197.079 657.392 195.981 656.569 192.962L641.747 137.516C639.551 129.282 634.61 105.951 632.963 97.716L630.767 97.9905C631.865 105.676 634.61 139.163 634.61 152.887L634.885 192.138C634.885 195.158 632.963 197.079 629.944 197.079H571.754Z" fill="white"/>
<path d="M571.754 197.079C568.734 197.079 566.813 195.158 566.813 192.138V9.8814C566.813 6.86209 568.734 4.9407 571.754 4.9407H643.119C645.864 4.9407 648.06 6.58761 648.609 9.33244L664.254 74.1105L673.587 115.008H675.234L684.566 74.3849L700.212 9.33244C700.761 6.58761 702.956 4.9407 705.701 4.9407H777.067C780.086 4.9407 782.008 6.86209 782.008 9.8814V192.138C782.008 195.158 780.086 197.079 777.067 197.079H719.7C716.681 197.079 714.759 195.158 714.759 192.138L715.034 152.887C715.034 139.163 717.779 105.676 718.876 97.9905L716.681 97.716C715.034 105.951 710.093 129.282 707.897 137.516L693.075 192.962C692.252 195.981 690.33 197.079 687.585 197.079H662.058C659.314 197.079 657.392 195.981 656.569 192.962L641.747 137.516C639.551 129.282 634.61 105.951 632.963 97.716L630.767 97.9905C631.865 105.676 634.61 139.163 634.61 152.887L634.885 192.138C634.885 195.158 632.963 197.079 629.944 197.079H571.754Z" fill="#000000"/>
<path d="M906.451 201.745C845.791 201.745 802.422 155.632 802.422 100.735C802.422 45.8387 845.791 0 906.451 0C966.838 0 1010.48 45.8387 1010.48 100.735C1010.48 155.632 966.838 201.745 906.451 201.745ZM906.451 127.086C922.372 127.086 934.174 115.008 934.174 100.735C934.174 86.4622 922.372 74.3849 906.451 74.3849C890.531 74.3849 878.729 86.4622 878.729 100.735C878.729 115.008 890.531 127.086 906.451 127.086Z" fill="white"/>
<path d="M906.451 201.745C845.791 201.745 802.422 155.632 802.422 100.735C802.422 45.8387 845.791 0 906.451 0C966.838 0 1010.48 45.8387 1010.48 100.735C1010.48 155.632 966.838 201.745 906.451 201.745ZM906.451 127.086C922.372 127.086 934.174 115.008 934.174 100.735C934.174 86.4622 922.372 74.3849 906.451 74.3849C890.531 74.3849 878.729 86.4622 878.729 100.735C878.729 115.008 890.531 127.086 906.451 127.086Z" fill="#000000"/>
<path d="M1108.66 138.34V197.079H1031.56V138.34C1038.5 137.525 1043.49 133.242 1046.55 125.491C1049.61 117.741 1051.14 107.237 1051.14 93.9805V80.5196C1051.14 72.1575 1050.33 67.1606 1048.7 65.529C1047.27 63.6934 1041.56 62.7756 1031.56 62.7756V4.34299H1148.43V49.9266C1148.43 59.5124 1149.45 67.3646 1151.49 73.4832C1153.53 79.6018 1159.54 87.0461 1169.54 95.8161L1213.29 133.445V131.304C1213.29 123.35 1212.67 115.6 1211.45 108.053C1210.43 100.303 1208.49 93.3686 1205.64 87.25C1202.78 80.9275 1198.81 75.6247 1193.71 71.3417C1188.61 66.8547 1182.18 63.9993 1174.43 62.7756V4.34299H1251.53V62.4697C1244.59 64.3053 1239.49 67.9764 1236.23 73.4832C1233.17 78.9899 1231.64 88.8817 1231.64 103.158V197.079H1134.36V144.153C1134.36 134.567 1132.52 127.021 1128.85 121.514C1125.38 116.007 1119.57 109.787 1111.41 102.852L1069.5 67.0586C1069.5 74.197 1069.91 81.4374 1070.72 88.7797C1071.54 95.918 1073.27 102.75 1075.92 109.277C1078.78 115.6 1082.76 121.31 1087.85 126.409C1092.95 131.508 1099.89 135.485 1108.66 138.34Z" fill="white"/>
<path d="M1108.66 138.34V197.079H1031.56V138.34C1038.5 137.525 1043.49 133.242 1046.55 125.491C1049.61 117.741 1051.14 107.237 1051.14 93.9805V80.5196C1051.14 72.1575 1050.33 67.1606 1048.7 65.529C1047.27 63.6934 1041.56 62.7756 1031.56 62.7756V4.34299H1148.43V49.9266C1148.43 59.5124 1149.45 67.3646 1151.49 73.4832C1153.53 79.6018 1159.54 87.0461 1169.54 95.8161L1213.29 133.445V131.304C1213.29 123.35 1212.67 115.6 1211.45 108.053C1210.43 100.303 1208.49 93.3686 1205.64 87.25C1202.78 80.9275 1198.81 75.6247 1193.71 71.3417C1188.61 66.8547 1182.18 63.9993 1174.43 62.7756V4.34299H1251.53V62.4697C1244.59 64.3053 1239.49 67.9764 1236.23 73.4832C1233.17 78.9899 1231.64 88.8817 1231.64 103.158V197.079H1134.36V144.153C1134.36 134.567 1132.52 127.021 1128.85 121.514C1125.38 116.007 1119.57 109.787 1111.41 102.852L1069.5 67.0586C1069.5 74.197 1069.91 81.4374 1070.72 88.7797C1071.54 95.918 1073.27 102.75 1075.92 109.277C1078.78 115.6 1082.76 121.31 1087.85 126.409C1092.95 131.508 1099.89 135.485 1108.66 138.34Z" fill="#000000"/>
<path d="M1314.18 197.079C1311.16 197.079 1309.24 195.158 1309.24 192.138V70.8167H1273.83C1270.81 70.8167 1268.89 68.8953 1268.89 65.876V9.8814C1268.89 6.86209 1270.81 4.9407 1273.83 4.9407H1417.39C1420.41 4.9407 1422.33 6.86209 1422.33 9.8814V65.876C1422.33 68.8953 1420.41 70.8167 1417.39 70.8167H1381.71V192.138C1381.71 195.158 1379.78 197.079 1376.76 197.079H1314.18Z" fill="white"/>
<path d="M1314.18 197.079C1311.16 197.079 1309.24 195.158 1309.24 192.138V70.8167H1273.83C1270.81 70.8167 1268.89 68.8953 1268.89 65.876V9.8814C1268.89 6.86209 1270.81 4.9407 1273.83 4.9407H1417.39C1420.41 4.9407 1422.33 6.86209 1422.33 9.8814V65.876C1422.33 68.8953 1420.41 70.8167 1417.39 70.8167H1381.71V192.138C1381.71 195.158 1379.78 197.079 1376.76 197.079H1314.18Z" fill="#000000"/>
</svg>
