<svg width="1936" height="203" viewBox="0 0 1936 203" fill="none" xmlns="http://www.w3.org/2000/svg">
<path d="M42.9234 198.177C39.9041 198.177 38.2572 196.53 37.7082 193.785L0.104029 11.5283C-0.444937 8.2345 1.20196 6.03863 4.49576 6.03863H70.0972C73.1165 6.03863 75.0379 7.68554 75.3124 10.7049L82.7234 63.1311C84.3704 75.4829 85.1938 88.3836 86.0173 100.735H88.2131C89.5855 88.3836 90.9579 75.4829 92.8793 63.1311L101.114 10.4304C101.663 7.41105 103.584 6.03863 106.603 6.03863H155.736C158.755 6.03863 160.402 7.68554 160.951 10.7049L168.637 63.1311C170.558 75.4829 172.479 88.3836 173.852 100.735H176.048C176.871 88.3836 177.695 75.4829 179.342 63.1311L186.753 10.7049C187.027 7.68554 188.948 6.03863 191.968 6.03863H256.746C260.04 6.03863 261.686 8.2345 261.138 11.5283L224.082 193.785C223.533 196.53 221.886 198.177 218.867 198.177H152.442C149.423 198.177 147.776 196.53 147.227 193.785L137.071 146.574C134.601 135.32 133.228 124.066 131.307 112.813H129.66C127.739 124.066 126.366 135.595 124.17 146.848L114.563 193.785C114.015 196.53 112.368 198.177 109.348 198.177H42.9234Z" fill="white"/>
<path d="M42.9234 198.177C39.9041 198.177 38.2572 196.53 37.7082 193.785L0.104029 11.5283C-0.444937 8.2345 1.20196 6.03863 4.49576 6.03863H70.0972C73.1165 6.03863 75.0379 7.68554 75.3124 10.7049L82.7234 63.1311C84.3704 75.4829 85.1938 88.3836 86.0173 100.735H88.2131C89.5855 88.3836 90.9579 75.4829 92.8793 63.1311L101.114 10.4304C101.663 7.41105 103.584 6.03863 106.603 6.03863H155.736C158.755 6.03863 160.402 7.68554 160.951 10.7049L168.637 63.1311C170.558 75.4829 172.479 88.3836 173.852 100.735H176.048C176.871 88.3836 177.695 75.4829 179.342 63.1311L186.753 10.7049C187.027 7.68554 188.948 6.03863 191.968 6.03863H256.746C260.04 6.03863 261.686 8.2345 261.138 11.5283L224.082 193.785C223.533 196.53 221.886 198.177 218.867 198.177H152.442C149.423 198.177 147.776 196.53 147.227 193.785L137.071 146.574C134.601 135.32 133.228 124.066 131.307 112.813H129.66C127.739 124.066 126.366 135.595 124.17 146.848L114.563 193.785C114.015 196.53 112.368 198.177 109.348 198.177H42.9234Z" fill="#000000"/>
<path d="M265.898 198.177V197.565C275.382 185.022 286.089 152.899 296.491 118.329C280.277 112.516 269.263 105.786 269.263 92.0191C269.263 83.759 274.158 76.4167 284.56 76.4167C293.126 76.4167 299.856 82.5353 299.856 91.7132C299.856 101.197 294.961 107.316 284.56 107.316C280.277 107.316 276.3 105.786 273.852 103.644C278.747 109.151 288.231 110.987 298.633 111.293C305.669 86.5124 312.705 61.1202 318.518 40.6229C320.965 32.6687 322.495 26.2442 322.495 21.0434C322.495 13.0892 318.824 8.50024 309.952 6.05279V5.44092H411.521V6.05279C405.096 7.58244 401.119 13.3951 401.119 24.7145C401.119 31.1391 402.343 39.0932 404.79 49.1889C413.968 85.9005 424.676 122.306 436.913 158.406C443.031 176.762 448.232 189.611 454.963 197.565V198.177H373.279V197.565C385.211 194.506 389.8 188.081 389.8 177.68C389.8 173.091 388.882 167.89 387.352 161.465C384.905 150.452 360.124 140.662 333.203 131.484C330.755 140.968 328.308 151.064 325.554 161.465C324.331 167.584 323.413 172.785 323.413 177.374C323.413 188.081 327.696 194.2 339.627 197.565V198.177H265.898ZM339.015 110.375C357.371 111.905 375.115 121.694 388.27 158.1H388.882C378.786 118.329 370.22 79.1701 360.43 45.8237H359.207C352.782 64.4854 346.052 85.9005 339.015 110.375Z" fill="white"/>
<path d="M265.898 198.177V197.565C275.382 185.022 286.089 152.899 296.491 118.329C280.277 112.516 269.263 105.786 269.263 92.0191C269.263 83.759 274.158 76.4167 284.56 76.4167C293.126 76.4167 299.856 82.5353 299.856 91.7132C299.856 101.197 294.961 107.316 284.56 107.316C280.277 107.316 276.3 105.786 273.852 103.644C278.747 109.151 288.231 110.987 298.633 111.293C305.669 86.5124 312.705 61.1202 318.518 40.6229C320.965 32.6687 322.495 26.2442 322.495 21.0434C322.495 13.0892 318.824 8.50024 309.952 6.05279V5.44092H411.521V6.05279C405.096 7.58244 401.119 13.3951 401.119 24.7145C401.119 31.1391 402.343 39.0932 404.79 49.1889C413.968 85.9005 424.676 122.306 436.913 158.406C443.031 176.762 448.232 189.611 454.963 197.565V198.177H373.279V197.565C385.211 194.506 389.8 188.081 389.8 177.68C389.8 173.091 388.882 167.89 387.352 161.465C384.905 150.452 360.124 140.662 333.203 131.484C330.755 140.968 328.308 151.064 325.554 161.465C324.331 167.584 323.413 172.785 323.413 177.374C323.413 188.081 327.696 194.2 339.627 197.565V198.177H265.898ZM339.015 110.375C357.371 111.905 375.115 121.694 388.27 158.1H388.882C378.786 118.329 370.22 79.1701 360.43 45.8237H359.207C352.782 64.4854 346.052 85.9005 339.015 110.375Z" fill="#000000"/>
<path d="M539.904 202.02C503.124 202.02 462.226 185.002 459.206 132.575C458.932 129.282 460.853 127.36 463.873 127.36H523.161C526.729 127.36 528.925 129.556 528.925 132.575C529.2 139.437 531.944 144.653 540.179 144.653C545.669 144.653 548.688 140.81 548.962 136.418C548.688 124.89 534.964 124.341 513.279 120.498C483.91 115.283 459.755 99.3629 460.03 63.1311C459.755 23.88 493.242 0 536.062 0C565.98 0 609.898 13.7242 612.093 64.2291C612.093 67.5229 610.172 69.4442 607.153 69.4442H551.982C548.688 69.4442 547.041 67.5229 546.766 64.5035C546.492 59.5629 545.12 53.7987 537.159 53.7987C532.768 53.7987 529.748 56.5435 529.748 60.9353C529.748 71.0911 543.473 71.0911 564.882 76.3063C594.526 83.4429 618.406 99.9119 618.681 136.418C618.955 181.433 581.626 202.02 539.904 202.02Z" fill="white"/>
<path d="M539.904 202.02C503.124 202.02 462.226 185.002 459.206 132.575C458.932 129.282 460.853 127.36 463.873 127.36H523.161C526.729 127.36 528.925 129.556 528.925 132.575C529.2 139.437 531.944 144.653 540.179 144.653C545.669 144.653 548.688 140.81 548.962 136.418C548.688 124.89 534.964 124.341 513.279 120.498C483.91 115.283 459.755 99.3629 460.03 63.1311C459.755 23.88 493.242 0 536.062 0C565.98 0 609.898 13.7242 612.093 64.2291C612.093 67.5229 610.172 69.4442 607.153 69.4442H551.982C548.688 69.4442 547.041 67.5229 546.766 64.5035C546.492 59.5629 545.12 53.7987 537.159 53.7987C532.768 53.7987 529.748 56.5435 529.748 60.9353C529.748 71.0911 543.473 71.0911 564.882 76.3063C594.526 83.4429 618.406 99.9119 618.681 136.418C618.955 181.433 581.626 202.02 539.904 202.02Z" fill="#000000"/>
<path d="M790.092 121.388V110.069H720.34V121.388C720.34 138.52 720.952 139.438 742.979 139.438V198.177H639.268V139.438C660.99 139.438 661.907 138.52 661.907 121.388V81.9234C661.907 64.7914 660.99 63.8736 639.268 63.8736V5.44092H742.979V63.8736C720.952 63.8736 720.34 64.7914 720.34 81.9234V92.0191H790.092V81.9234C790.092 64.7914 789.48 63.8736 767.453 63.8736V5.44092H871.163V63.8736C849.442 63.8736 848.525 64.7914 848.525 81.9234V121.388C848.525 138.52 849.442 139.438 871.163 139.438V198.177H767.453V139.438C789.48 139.438 790.092 138.52 790.092 121.388Z" fill="white"/>
<path d="M790.092 121.388V110.069H720.34V121.388C720.34 138.52 720.952 139.438 742.979 139.438V198.177H639.268V139.438C660.99 139.438 661.907 138.52 661.907 121.388V81.9234C661.907 64.7914 660.99 63.8736 639.268 63.8736V5.44092H742.979V63.8736C720.952 63.8736 720.34 64.7914 720.34 81.9234V92.0191H790.092V81.9234C790.092 64.7914 789.48 63.8736 767.453 63.8736V5.44092H871.163V63.8736C849.442 63.8736 848.525 64.7914 848.525 81.9234V121.388C848.525 138.52 849.442 139.438 871.163 139.438V198.177H767.453V139.438C789.48 139.438 790.092 138.52 790.092 121.388Z" fill="#000000"/>
<path d="M903.484 198.177C900.465 198.177 898.544 196.255 898.544 193.236V10.9793C898.544 7.96002 900.465 6.03863 903.484 6.03863H966.067C969.086 6.03863 971.007 7.96002 971.007 10.9793V193.236C971.007 196.255 969.086 198.177 966.067 198.177H903.484Z" fill="white"/>
<path d="M903.484 198.177C900.465 198.177 898.544 196.255 898.544 193.236V10.9793C898.544 7.96002 900.465 6.03863 903.484 6.03863H966.067C969.086 6.03863 971.007 7.96002 971.007 10.9793V193.236C971.007 196.255 969.086 198.177 966.067 198.177H903.484Z" fill="#000000"/>
<path d="M999.575 198.177C996.556 198.177 994.634 196.255 994.634 193.236V10.9793C994.634 7.96002 996.556 6.03863 999.575 6.03863H1065.18C1067.92 6.03863 1070.12 7.68554 1070.67 10.4304L1085.49 76.8553C1087.68 86.7367 1088.78 96.8926 1090.98 106.774L1092.9 106.499C1092.08 97.167 1090.15 76.3063 1090.15 69.4442L1089.61 10.9793C1089.61 7.96002 1091.53 6.03863 1094.55 6.03863H1154.38C1157.4 6.03863 1159.32 7.96002 1159.32 10.9793V193.236C1159.32 196.255 1157.4 198.177 1154.38 198.177H1095.64C1092.9 198.177 1090.98 197.079 1090.15 194.06L1071.49 127.36C1068.74 117.479 1066.82 107.323 1064.63 97.4415L1062.71 97.716C1063.8 107.048 1065.73 127.909 1065.73 134.771L1066.27 193.236C1066.27 196.255 1064.35 198.177 1061.33 198.177H999.575Z" fill="white"/>
<path d="M999.575 198.177C996.556 198.177 994.634 196.255 994.634 193.236V10.9793C994.634 7.96002 996.556 6.03863 999.575 6.03863H1065.18C1067.92 6.03863 1070.12 7.68554 1070.67 10.4304L1085.49 76.8553C1087.68 86.7367 1088.78 96.8926 1090.98 106.774L1092.9 106.499C1092.08 97.167 1090.15 76.3063 1090.15 69.4442L1089.61 10.9793C1089.61 7.96002 1091.53 6.03863 1094.55 6.03863H1154.38C1157.4 6.03863 1159.32 7.96002 1159.32 10.9793V193.236C1159.32 196.255 1157.4 198.177 1154.38 198.177H1095.64C1092.9 198.177 1090.98 197.079 1090.15 194.06L1071.49 127.36C1068.74 117.479 1066.82 107.323 1064.63 97.4415L1062.71 97.716C1063.8 107.048 1065.73 127.909 1065.73 134.771L1066.27 193.236C1066.27 196.255 1064.35 198.177 1061.33 198.177H999.575Z" fill="#000000"/>
<path d="M1271.53 200.647C1225.96 201.471 1179.85 167.709 1179.85 103.755C1179.85 43.6428 1220.47 1.09793 1280.04 1.09793C1324.23 1.09793 1364.85 26.6249 1373.36 78.2277C1373.91 81.5215 1372.26 83.4429 1368.97 83.4429H1305.29C1303.09 83.4429 1301.72 82.6194 1300.07 80.4236C1296.23 75.7574 1289.92 73.5615 1283.06 73.5615C1268.78 73.5615 1255.61 83.9919 1255.61 105.127C1255.61 125.988 1267.96 137.242 1285.8 137.242C1296.23 137.242 1305.29 133.948 1308.86 127.909V127.086L1286.35 127.36C1283.33 127.36 1281.41 125.439 1281.41 122.419V97.9905C1281.41 94.9712 1283.33 93.0498 1286.35 93.0498H1369.24C1372.26 93.0498 1374.18 94.9712 1374.18 97.9905V193.236C1374.18 196.255 1372.26 198.177 1369.24 198.177H1329.72C1326.97 198.177 1325.05 197.079 1323.95 194.609L1320.11 186.923H1319.01C1306.66 198.451 1288.55 200.647 1271.53 200.647Z" fill="white"/>
<path d="M1271.53 200.647C1225.96 201.471 1179.85 167.709 1179.85 103.755C1179.85 43.6428 1220.47 1.09793 1280.04 1.09793C1324.23 1.09793 1364.85 26.6249 1373.36 78.2277C1373.91 81.5215 1372.26 83.4429 1368.97 83.4429H1305.29C1303.09 83.4429 1301.72 82.6194 1300.07 80.4236C1296.23 75.7574 1289.92 73.5615 1283.06 73.5615C1268.78 73.5615 1255.61 83.9919 1255.61 105.127C1255.61 125.988 1267.96 137.242 1285.8 137.242C1296.23 137.242 1305.29 133.948 1308.86 127.909V127.086L1286.35 127.36C1283.33 127.36 1281.41 125.439 1281.41 122.419V97.9905C1281.41 94.9712 1283.33 93.0498 1286.35 93.0498H1369.24C1372.26 93.0498 1374.18 94.9712 1374.18 97.9905V193.236C1374.18 196.255 1372.26 198.177 1369.24 198.177H1329.72C1326.97 198.177 1325.05 197.079 1323.95 194.609L1320.11 186.923H1319.01C1306.66 198.451 1288.55 200.647 1271.53 200.647Z" fill="#000000"/>
<path d="M1428.73 198.177C1425.71 198.177 1423.79 196.255 1423.79 193.236V71.9146H1388.38C1385.36 71.9146 1383.44 69.9932 1383.44 66.9739V10.9793C1383.44 7.96002 1385.36 6.03863 1388.38 6.03863H1531.94C1534.96 6.03863 1536.88 7.96002 1536.88 10.9793V66.9739C1536.88 69.9932 1534.96 71.9146 1531.94 71.9146H1496.25V193.236C1496.25 196.255 1494.33 198.177 1491.31 198.177H1428.73Z" fill="white"/>
<path d="M1428.73 198.177C1425.71 198.177 1423.79 196.255 1423.79 193.236V71.9146H1388.38C1385.36 71.9146 1383.44 69.9932 1383.44 66.9739V10.9793C1383.44 7.96002 1385.36 6.03863 1388.38 6.03863H1531.94C1534.96 6.03863 1536.88 7.96002 1536.88 10.9793V66.9739C1536.88 69.9932 1534.96 71.9146 1531.94 71.9146H1496.25V193.236C1496.25 196.255 1494.33 198.177 1491.31 198.177H1428.73Z" fill="#000000"/>
<path d="M1649.22 202.843C1588.56 202.843 1545.19 156.73 1545.19 101.833C1545.19 46.9366 1588.56 1.09793 1649.22 1.09793C1709.61 1.09793 1753.25 46.9366 1753.25 101.833C1753.25 156.73 1709.61 202.843 1649.22 202.843ZM1649.22 128.184C1665.14 128.184 1676.94 116.106 1676.94 101.833C1676.94 87.5601 1665.14 75.4829 1649.22 75.4829C1633.3 75.4829 1621.5 87.5601 1621.5 101.833C1621.5 116.106 1633.3 128.184 1649.22 128.184Z" fill="white"/>
<path d="M1649.22 202.843C1588.56 202.843 1545.19 156.73 1545.19 101.833C1545.19 46.9366 1588.56 1.09793 1649.22 1.09793C1709.61 1.09793 1753.25 46.9366 1753.25 101.833C1753.25 156.73 1709.61 202.843 1649.22 202.843ZM1649.22 128.184C1665.14 128.184 1676.94 116.106 1676.94 101.833C1676.94 87.5601 1665.14 75.4829 1649.22 75.4829C1633.3 75.4829 1621.5 87.5601 1621.5 101.833C1621.5 116.106 1633.3 128.184 1649.22 128.184Z" fill="#000000"/>
<path d="M1765.77 198.177V197.565C1773.11 188.081 1774.33 177.374 1774.64 161.771C1774.94 141.58 1775.25 121.694 1775.25 101.809C1775.25 81.6175 1774.94 61.7321 1774.64 41.8466C1774.33 21.0434 1772.5 15.2307 1765.77 6.05279V5.44092H1839.8C1851.12 27.4679 1866.42 56.5312 1882.94 86.8183C1882.63 71.5218 1882.33 56.8372 1882.02 41.8466C1881.1 21.0434 1878.04 15.2307 1864.58 6.05279V5.44092H1935.25V6.05279C1928.22 15.2307 1926.69 21.0434 1926.38 41.8466C1926.07 61.7321 1925.77 81.6175 1925.77 101.809C1925.77 121.694 1926.07 141.58 1926.38 161.771C1926.38 177.374 1927.91 188.081 1935.25 197.565V198.177H1877.43V197.565C1880.49 190.223 1881.71 182.268 1882.02 171.561C1863.36 135.767 1840.41 94.4666 1818.69 55.6134C1818.08 73.6633 1818.39 92.0191 1818.39 112.822C1818.69 124.754 1818.69 137.603 1818.69 151.37C1818.69 190.529 1833.38 197.565 1847.14 196.035C1835.52 193.282 1828.18 184.41 1828.18 173.396C1828.18 160.853 1837.05 151.675 1849.9 151.675C1860.3 151.675 1871.31 158.1 1871.31 172.785C1871.31 183.186 1866.11 198.177 1837.05 198.177H1765.77Z" fill="white"/>
<path d="M1765.77 198.177V197.565C1773.11 188.081 1774.33 177.374 1774.64 161.771C1774.94 141.58 1775.25 121.694 1775.25 101.809C1775.25 81.6175 1774.94 61.7321 1774.64 41.8466C1774.33 21.0434 1772.5 15.2307 1765.77 6.05279V5.44092H1839.8C1851.12 27.4679 1866.42 56.5312 1882.94 86.8183C1882.63 71.5218 1882.33 56.8372 1882.02 41.8466C1881.1 21.0434 1878.04 15.2307 1864.58 6.05279V5.44092H1935.25V6.05279C1928.22 15.2307 1926.69 21.0434 1926.38 41.8466C1926.07 61.7321 1925.77 81.6175 1925.77 101.809C1925.77 121.694 1926.07 141.58 1926.38 161.771C1926.38 177.374 1927.91 188.081 1935.25 197.565V198.177H1877.43V197.565C1880.49 190.223 1881.71 182.268 1882.02 171.561C1863.36 135.767 1840.41 94.4666 1818.69 55.6134C1818.08 73.6633 1818.39 92.0191 1818.39 112.822C1818.69 124.754 1818.69 137.603 1818.69 151.37C1818.69 190.529 1833.38 197.565 1847.14 196.035C1835.52 193.282 1828.18 184.41 1828.18 173.396C1828.18 160.853 1837.05 151.675 1849.9 151.675C1860.3 151.675 1871.31 158.1 1871.31 172.785C1871.31 183.186 1866.11 198.177 1837.05 198.177H1765.77Z" fill="#000000"/>
</svg>
