<svg width="2160" height="203" viewBox="0 0 2160 203" fill="none" xmlns="http://www.w3.org/2000/svg">
<path d="M42.9234 198.177C39.9041 198.177 38.2572 196.53 37.7082 193.785L0.104029 11.5283C-0.444937 8.2345 1.20196 6.03863 4.49576 6.03863H70.0972C73.1165 6.03863 75.0379 7.68554 75.3124 10.7049L82.7234 63.1311C84.3704 75.4829 85.1938 88.3836 86.0173 100.735H88.2131C89.5855 88.3836 90.9579 75.4829 92.8793 63.1311L101.114 10.4304C101.663 7.41105 103.584 6.03863 106.603 6.03863H155.736C158.755 6.03863 160.402 7.68554 160.951 10.7049L168.637 63.1311C170.558 75.4829 172.479 88.3836 173.852 100.735H176.048C176.871 88.3836 177.695 75.4829 179.342 63.1311L186.753 10.7049C187.027 7.68554 188.948 6.03863 191.968 6.03863H256.746C260.04 6.03863 261.686 8.2345 261.138 11.5283L224.082 193.785C223.533 196.53 221.886 198.177 218.867 198.177H152.442C149.423 198.177 147.776 196.53 147.227 193.785L137.071 146.574C134.601 135.32 133.228 124.066 131.307 112.813H129.66C127.739 124.066 126.366 135.595 124.17 146.848L114.563 193.785C114.015 196.53 112.368 198.177 109.348 198.177H42.9234Z" fill="white"/>
<path d="M42.9234 198.177C39.9041 198.177 38.2572 196.53 37.7082 193.785L0.104029 11.5283C-0.444937 8.2345 1.20196 6.03863 4.49576 6.03863H70.0972C73.1165 6.03863 75.0379 7.68554 75.3124 10.7049L82.7234 63.1311C84.3704 75.4829 85.1938 88.3836 86.0173 100.735H88.2131C89.5855 88.3836 90.9579 75.4829 92.8793 63.1311L101.114 10.4304C101.663 7.41105 103.584 6.03863 106.603 6.03863H155.736C158.755 6.03863 160.402 7.68554 160.951 10.7049L168.637 63.1311C170.558 75.4829 172.479 88.3836 173.852 100.735H176.048C176.871 88.3836 177.695 75.4829 179.342 63.1311L186.753 10.7049C187.027 7.68554 188.948 6.03863 191.968 6.03863H256.746C260.04 6.03863 261.686 8.2345 261.138 11.5283L224.082 193.785C223.533 196.53 221.886 198.177 218.867 198.177H152.442C149.423 198.177 147.776 196.53 147.227 193.785L137.071 146.574C134.601 135.32 133.228 124.066 131.307 112.813H129.66C127.739 124.066 126.366 135.595 124.17 146.848L114.563 193.785C114.015 196.53 112.368 198.177 109.348 198.177H42.9234Z" fill="#000000"/>
<path d="M283.551 198.177C280.531 198.177 278.61 196.255 278.61 193.236V10.9793C278.61 7.96002 280.531 6.03863 283.551 6.03863H406.794C409.813 6.03863 411.734 7.96002 411.734 10.9793V64.2291C411.734 67.2484 409.813 69.1698 406.794 69.1698H350.25V80.698H387.58C390.599 80.698 392.521 82.6194 392.521 85.6387V118.851C392.521 121.871 390.599 123.792 387.58 123.792H350.25V136.144H407.892C410.911 136.144 412.832 138.065 412.832 141.084V193.236C412.832 196.255 410.911 198.177 407.892 198.177H283.551Z" fill="white"/>
<path d="M283.551 198.177C280.531 198.177 278.61 196.255 278.61 193.236V10.9793C278.61 7.96002 280.531 6.03863 283.551 6.03863H406.794C409.813 6.03863 411.734 7.96002 411.734 10.9793V64.2291C411.734 67.2484 409.813 69.1698 406.794 69.1698H350.25V80.698H387.58C390.599 80.698 392.521 82.6194 392.521 85.6387V118.851C392.521 121.871 390.599 123.792 387.58 123.792H350.25V136.144H407.892C410.911 136.144 412.832 138.065 412.832 141.084V193.236C412.832 196.255 410.911 198.177 407.892 198.177H283.551Z" fill="#000000"/>
<path d="M507.827 202.02C471.046 202.02 430.148 185.002 427.129 132.575C426.855 129.282 428.776 127.36 431.795 127.36H491.084C494.652 127.36 496.848 129.556 496.848 132.575C497.122 139.437 499.867 144.653 508.102 144.653C513.591 144.653 516.611 140.81 516.885 136.418C516.611 124.89 502.886 124.341 481.202 120.498C451.832 115.283 427.678 99.3629 427.952 63.1311C427.678 23.88 461.165 0 503.984 0C533.903 0 577.82 13.7242 580.016 64.2291C580.016 67.5229 578.095 69.4442 575.075 69.4442H519.904C516.61 69.4442 514.964 67.5229 514.689 64.5035C514.415 59.5629 513.042 53.7987 505.082 53.7987C500.69 53.7987 497.671 56.5435 497.671 60.9353C497.671 71.0911 511.395 71.0911 532.805 76.3063C562.449 83.4429 586.329 99.9119 586.604 136.418C586.878 181.433 549.548 202.02 507.827 202.02Z" fill="white"/>
<path d="M507.827 202.02C471.046 202.02 430.148 185.002 427.129 132.575C426.855 129.282 428.776 127.36 431.795 127.36H491.084C494.652 127.36 496.848 129.556 496.848 132.575C497.122 139.437 499.867 144.653 508.102 144.653C513.591 144.653 516.611 140.81 516.885 136.418C516.611 124.89 502.886 124.341 481.202 120.498C451.832 115.283 427.678 99.3629 427.952 63.1311C427.678 23.88 461.165 0 503.984 0C533.903 0 577.82 13.7242 580.016 64.2291C580.016 67.5229 578.095 69.4442 575.075 69.4442H519.904C516.61 69.4442 514.964 67.5229 514.689 64.5035C514.415 59.5629 513.042 53.7987 505.082 53.7987C500.69 53.7987 497.671 56.5435 497.671 60.9353C497.671 71.0911 511.395 71.0911 532.805 76.3063C562.449 83.4429 586.329 99.9119 586.604 136.418C586.878 181.433 549.548 202.02 507.827 202.02Z" fill="#000000"/>
<path d="M790.749 5.44092V103.339H772.393V86.2064C772.393 70.604 765.969 63.8736 744.248 63.8736H728.034V121.388C728.034 138.52 728.339 139.438 758.627 139.438V198.177H633.501V139.438C663.176 139.438 663.482 138.52 663.482 121.388V63.8736H647.574C625.853 63.8736 619.428 70.604 619.428 86.2064V103.339H601.073V5.44092H790.749Z" fill="white"/>
<path d="M790.749 5.44092V103.339H772.393V86.2064C772.393 70.604 765.969 63.8736 744.248 63.8736H728.034V121.388C728.034 138.52 728.339 139.438 758.627 139.438V198.177H633.501V139.438C663.176 139.438 663.482 138.52 663.482 121.388V63.8736H647.574C625.853 63.8736 619.428 70.604 619.428 86.2064V103.339H601.073V5.44092H790.749Z" fill="#000000"/>
<path d="M913.177 198.177C910.432 198.177 908.236 197.079 907.413 194.06L852.516 11.5283C851.418 7.96002 853.065 6.03863 856.633 6.03863H926.901C929.92 6.03863 931.567 7.68554 932.116 10.4304L943.645 67.7973C946.664 83.1684 947.762 102.382 949.683 118.028H951.879C954.075 102.382 955.447 83.1684 958.467 67.5229L969.721 10.4304C970.269 7.68554 971.916 6.03863 974.936 6.03863H1041.91C1045.48 6.03863 1047.12 7.96002 1046.03 11.5283L992.228 194.06C991.405 197.079 989.483 198.177 986.738 198.177H913.177Z" fill="white"/>
<path d="M913.177 198.177C910.432 198.177 908.236 197.079 907.413 194.06L852.516 11.5283C851.418 7.96002 853.065 6.03863 856.633 6.03863H926.901C929.92 6.03863 931.567 7.68554 932.116 10.4304L943.645 67.7973C946.664 83.1684 947.762 102.382 949.683 118.028H951.879C954.075 102.382 955.447 83.1684 958.467 67.5229L969.721 10.4304C970.269 7.68554 971.916 6.03863 974.936 6.03863H1041.91C1045.48 6.03863 1047.12 7.96002 1046.03 11.5283L992.228 194.06C991.405 197.079 989.483 198.177 986.738 198.177H913.177Z" fill="#000000"/>
<path d="M1066.84 198.177C1063.83 198.177 1061.9 196.255 1061.9 193.236V10.9793C1061.9 7.96002 1063.83 6.03863 1066.84 6.03863H1129.43C1132.45 6.03863 1134.37 7.96002 1134.37 10.9793V193.236C1134.37 196.255 1132.45 198.177 1129.43 198.177H1066.84Z" fill="white"/>
<path d="M1066.84 198.177C1063.83 198.177 1061.9 196.255 1061.9 193.236V10.9793C1061.9 7.96002 1063.83 6.03863 1066.84 6.03863H1129.43C1132.45 6.03863 1134.37 7.96002 1134.37 10.9793V193.236C1134.37 196.255 1132.45 198.177 1129.43 198.177H1066.84Z" fill="#000000"/>
<path d="M1273.14 63.8736H1239.19V99.3614H1271.31C1293.64 99.3614 1301.6 93.8547 1301.6 81.6175C1301.6 67.8506 1293.95 63.8736 1273.14 63.8736ZM1371.65 119.859C1371.65 185.022 1362.48 201.236 1323.93 201.236C1291.5 201.236 1274.37 188.387 1274.37 132.096C1274.37 119.859 1270.7 117.717 1257.54 117.717H1239.19V130.26C1239.19 144.639 1241.02 145.251 1260.91 145.251V198.177H1161.17V139.438C1180.14 139.438 1180.75 138.52 1180.75 121.388V84.9827C1180.75 65.0973 1180.14 63.8736 1161.17 63.8736V5.44092H1274.98C1332.8 5.44092 1357.27 19.8196 1357.27 58.9787C1357.27 97.5259 1329.74 104.562 1301.9 104.562H1299.15V117.411H1313.83C1331.27 117.411 1338.31 122 1338.31 131.484V132.708C1338.31 141.58 1340.14 144.945 1346.87 144.945C1354.22 144.945 1356.36 139.132 1356.36 119.553C1356.36 116.494 1356.05 112.211 1355.75 106.704H1371.35C1371.65 112.516 1371.65 117.105 1371.65 119.859Z" fill="white"/>
<path d="M1273.14 63.8736H1239.19V99.3614H1271.31C1293.64 99.3614 1301.6 93.8547 1301.6 81.6175C1301.6 67.8506 1293.95 63.8736 1273.14 63.8736ZM1371.65 119.859C1371.65 185.022 1362.48 201.236 1323.93 201.236C1291.5 201.236 1274.37 188.387 1274.37 132.096C1274.37 119.859 1270.7 117.717 1257.54 117.717H1239.19V130.26C1239.19 144.639 1241.02 145.251 1260.91 145.251V198.177H1161.17V139.438C1180.14 139.438 1180.75 138.52 1180.75 121.388V84.9827C1180.75 65.0973 1180.14 63.8736 1161.17 63.8736V5.44092H1274.98C1332.8 5.44092 1357.27 19.8196 1357.27 58.9787C1357.27 97.5259 1329.74 104.562 1301.9 104.562H1299.15V117.411H1313.83C1331.27 117.411 1338.31 122 1338.31 131.484V132.708C1338.31 141.58 1340.14 144.945 1346.87 144.945C1354.22 144.945 1356.36 139.132 1356.36 119.553C1356.36 116.494 1356.05 112.211 1355.75 106.704H1371.35C1371.65 112.516 1371.65 117.105 1371.65 119.859Z" fill="#000000"/>
<path d="M1475.59 200.647C1430.03 201.471 1383.91 167.709 1383.91 103.755C1383.91 43.6428 1424.54 1.09793 1484.1 1.09793C1528.29 1.09793 1568.91 26.6249 1577.42 78.2277C1577.97 81.5215 1576.33 83.4429 1573.03 83.4429H1509.35C1507.16 83.4429 1505.78 82.6194 1504.14 80.4236C1500.29 75.7574 1493.98 73.5615 1487.12 73.5615C1472.85 73.5615 1459.67 83.9919 1459.67 105.127C1459.67 125.988 1472.02 137.242 1489.86 137.242C1500.29 137.242 1509.35 133.948 1512.92 127.909V127.086L1490.41 127.36C1487.39 127.36 1485.47 125.439 1485.47 122.419V97.9905C1485.47 94.9712 1487.39 93.0498 1490.41 93.0498H1573.31C1576.33 93.0498 1578.25 94.9712 1578.25 97.9905V193.236C1578.25 196.255 1576.33 198.177 1573.31 198.177H1533.78C1531.04 198.177 1529.11 197.079 1528.02 194.609L1524.17 186.923H1523.08C1510.72 198.451 1492.61 200.647 1475.59 200.647Z" fill="white"/>
<path d="M1475.59 200.647C1430.03 201.471 1383.91 167.709 1383.91 103.755C1383.91 43.6428 1424.54 1.09793 1484.1 1.09793C1528.29 1.09793 1568.91 26.6249 1577.42 78.2277C1577.97 81.5215 1576.33 83.4429 1573.03 83.4429H1509.35C1507.16 83.4429 1505.78 82.6194 1504.14 80.4236C1500.29 75.7574 1493.98 73.5615 1487.12 73.5615C1472.85 73.5615 1459.67 83.9919 1459.67 105.127C1459.67 125.988 1472.02 137.242 1489.86 137.242C1500.29 137.242 1509.35 133.948 1512.92 127.909V127.086L1490.41 127.36C1487.39 127.36 1485.47 125.439 1485.47 122.419V97.9905C1485.47 94.9712 1487.39 93.0498 1490.41 93.0498H1573.31C1576.33 93.0498 1578.25 94.9712 1578.25 97.9905V193.236C1578.25 196.255 1576.33 198.177 1573.31 198.177H1533.78C1531.04 198.177 1529.11 197.079 1528.02 194.609L1524.17 186.923H1523.08C1510.72 198.451 1492.61 200.647 1475.59 200.647Z" fill="#000000"/>
<path d="M1606.24 198.177C1603.22 198.177 1601.3 196.255 1601.3 193.236V10.9793C1601.3 7.96002 1603.22 6.03863 1606.24 6.03863H1668.82C1671.84 6.03863 1673.76 7.96002 1673.76 10.9793V193.236C1673.76 196.255 1671.84 198.177 1668.82 198.177H1606.24Z" fill="white"/>
<path d="M1606.24 198.177C1603.22 198.177 1601.3 196.255 1601.3 193.236V10.9793C1601.3 7.96002 1603.22 6.03863 1606.24 6.03863H1668.82C1671.84 6.03863 1673.76 7.96002 1673.76 10.9793V193.236C1673.76 196.255 1671.84 198.177 1668.82 198.177H1606.24Z" fill="#000000"/>
<path d="M1692 198.177V197.565C1699.34 188.081 1700.57 177.374 1700.87 161.771C1701.18 141.58 1701.48 121.694 1701.48 101.809C1701.48 81.6175 1701.18 61.7321 1700.87 41.8466C1700.57 21.0434 1698.73 15.2307 1692 6.05279V5.44092H1766.04C1777.35 27.4679 1792.65 56.5312 1809.17 86.8183C1808.87 71.5218 1808.56 56.8372 1808.25 41.8466C1807.34 21.0434 1804.28 15.2307 1790.82 6.05279V5.44092H1861.49V6.05279C1854.45 15.2307 1852.92 21.0434 1852.61 41.8466C1852.31 61.7321 1852 81.6175 1852 101.809C1852 121.694 1852.31 141.58 1852.61 161.771C1852.61 177.374 1854.14 188.081 1861.49 197.565V198.177H1803.66V197.565C1806.72 190.223 1807.95 182.268 1808.25 171.561C1789.59 135.767 1766.65 94.4666 1744.93 55.6134C1744.31 73.6633 1744.62 92.0191 1744.62 112.822C1744.93 124.754 1744.93 137.603 1744.93 151.37C1744.93 190.529 1759.61 197.565 1773.38 196.035C1761.75 193.282 1754.41 184.41 1754.41 173.396C1754.41 160.853 1763.28 151.675 1776.13 151.675C1786.53 151.675 1797.55 158.1 1797.55 172.785C1797.55 183.186 1792.35 198.177 1763.28 198.177H1692Z" fill="white"/>
<path d="M1692 198.177V197.565C1699.34 188.081 1700.57 177.374 1700.87 161.771C1701.18 141.58 1701.48 121.694 1701.48 101.809C1701.48 81.6175 1701.18 61.7321 1700.87 41.8466C1700.57 21.0434 1698.73 15.2307 1692 6.05279V5.44092H1766.04C1777.35 27.4679 1792.65 56.5312 1809.17 86.8183C1808.87 71.5218 1808.56 56.8372 1808.25 41.8466C1807.34 21.0434 1804.28 15.2307 1790.82 6.05279V5.44092H1861.49V6.05279C1854.45 15.2307 1852.92 21.0434 1852.61 41.8466C1852.31 61.7321 1852 81.6175 1852 101.809C1852 121.694 1852.31 141.58 1852.61 161.771C1852.61 177.374 1854.14 188.081 1861.49 197.565V198.177H1803.66V197.565C1806.72 190.223 1807.95 182.268 1808.25 171.561C1789.59 135.767 1766.65 94.4666 1744.93 55.6134C1744.31 73.6633 1744.62 92.0191 1744.62 112.822C1744.93 124.754 1744.93 137.603 1744.93 151.37C1744.93 190.529 1759.61 197.565 1773.38 196.035C1761.75 193.282 1754.41 184.41 1754.41 173.396C1754.41 160.853 1763.28 151.675 1776.13 151.675C1786.53 151.675 1797.55 158.1 1797.55 172.785C1797.55 183.186 1792.35 198.177 1763.28 198.177H1692Z" fill="#000000"/>
<path d="M1885.31 198.177C1882.29 198.177 1880.37 196.255 1880.37 193.236V10.9793C1880.37 7.96002 1882.29 6.03863 1885.31 6.03863H1947.89C1950.91 6.03863 1952.84 7.96002 1952.84 10.9793V193.236C1952.84 196.255 1950.91 198.177 1947.89 198.177H1885.31Z" fill="white"/>
<path d="M1885.31 198.177C1882.29 198.177 1880.37 196.255 1880.37 193.236V10.9793C1880.37 7.96002 1882.29 6.03863 1885.31 6.03863H1947.89C1950.91 6.03863 1952.84 7.96002 1952.84 10.9793V193.236C1952.84 196.255 1950.91 198.177 1947.89 198.177H1885.31Z" fill="#000000"/>
<path d="M1972.07 198.177C1968.78 198.177 1966.86 196.255 1967.68 192.687L2014.89 10.1559C2015.71 7.13657 2017.36 6.03863 2020.38 6.03863H2107.12C2110.14 6.03863 2111.78 7.13657 2112.61 10.1559L2159.54 192.687C2160.37 196.255 2158.44 198.177 2155.15 198.177H2088.45C2085.43 198.177 2083.79 196.53 2083.24 193.785L2077.47 166.886H2049.47L2043.71 193.785C2043.16 196.53 2041.51 198.177 2038.5 198.177H1972.07ZM2054.14 121.596H2072.81L2066.22 84.2663L2064.85 73.0125H2062.1L2060.73 84.2663L2054.14 121.596Z" fill="white"/>
<path d="M1972.07 198.177C1968.78 198.177 1966.86 196.255 1967.68 192.687L2014.89 10.1559C2015.71 7.13657 2017.36 6.03863 2020.38 6.03863H2107.12C2110.14 6.03863 2111.78 7.13657 2112.61 10.1559L2159.54 192.687C2160.37 196.255 2158.44 198.177 2155.15 198.177H2088.45C2085.43 198.177 2083.79 196.53 2083.24 193.785L2077.47 166.886H2049.47L2043.71 193.785C2043.16 196.53 2041.51 198.177 2038.5 198.177H1972.07ZM2054.14 121.596H2072.81L2066.22 84.2663L2064.85 73.0125H2062.1L2060.73 84.2663L2054.14 121.596Z" fill="#000000"/>
</svg>
