<svg width="1417" height="202" viewBox="0 0 1417 202" fill="none" xmlns="http://www.w3.org/2000/svg">
<path d="M42.9234 197.079C39.9041 197.079 38.2572 195.432 37.7082 192.687L0.104029 10.4304C-0.444937 7.13657 1.20196 4.9407 4.49576 4.9407H70.0972C73.1165 4.9407 75.0379 6.58761 75.3124 9.60692L82.7234 62.0332C84.3704 74.3849 85.1938 87.2856 86.0173 99.6374H88.2131C89.5855 87.2856 90.9579 74.3849 92.8793 62.0332L101.114 9.33244C101.663 6.31311 103.584 4.9407 106.603 4.9407H155.736C158.755 4.9407 160.402 6.58761 160.951 9.60692L168.637 62.0332C170.558 74.3849 172.479 87.2856 173.852 99.6374H176.048C176.871 87.2856 177.695 74.3849 179.342 62.0332L186.753 9.60692C187.027 6.58761 188.948 4.9407 191.968 4.9407H256.746C260.04 4.9407 261.686 7.13657 261.138 10.4304L224.082 192.687C223.533 195.432 221.886 197.079 218.867 197.079H152.442C149.423 197.079 147.776 195.432 147.227 192.687L137.071 145.476C134.601 134.222 133.228 122.968 131.307 111.715H129.66C127.739 122.968 126.366 134.497 124.17 145.751L114.563 192.687C114.015 195.432 112.368 197.079 109.348 197.079H42.9234Z" fill="white"/>
<path d="M42.9234 197.079C39.9041 197.079 38.2572 195.432 37.7082 192.687L0.104029 10.4304C-0.444937 7.13657 1.20196 4.9407 4.49576 4.9407H70.0972C73.1165 4.9407 75.0379 6.58761 75.3124 9.60692L82.7234 62.0332C84.3704 74.3849 85.1938 87.2856 86.0173 99.6374H88.2131C89.5855 87.2856 90.9579 74.3849 92.8793 62.0332L101.114 9.33244C101.663 6.31311 103.584 4.9407 106.603 4.9407H155.736C158.755 4.9407 160.402 6.58761 160.951 9.60692L168.637 62.0332C170.558 74.3849 172.479 87.2856 173.852 99.6374H176.048C176.871 87.2856 177.695 74.3849 179.342 62.0332L186.753 9.60692C187.027 6.58761 188.948 4.9407 191.968 4.9407H256.746C260.04 4.9407 261.686 7.13657 261.138 10.4304L224.082 192.687C223.533 195.432 221.886 197.079 218.867 197.079H152.442C149.423 197.079 147.776 195.432 147.227 192.687L137.071 145.476C134.601 134.222 133.228 122.968 131.307 111.715H129.66C127.739 122.968 126.366 134.497 124.17 145.751L114.563 192.687C114.015 195.432 112.368 197.079 109.348 197.079H42.9234Z" fill="#000000"/>
<path d="M332.864 197.079V196.467C340.207 186.983 341.736 175.969 342.042 160.366C342.042 156.695 342.042 152.718 342.042 149.047C323.074 109.275 303.494 69.5027 288.503 37.9911C281.161 23.0002 276.266 11.0686 268.923 4.94983V4.33795H349.385V4.94983C337.147 8.31515 332.558 13.5161 332.558 23.0002C332.558 26.3655 333.17 30.3427 334.394 35.2377C339.901 56.9593 352.138 81.7403 364.07 104.992C373.554 86.6353 382.732 67.3612 389.769 50.5346C393.134 42.8862 394.969 36.4614 394.969 31.5664C394.969 20.8586 387.321 15.3517 370.189 15.3517C356.727 15.3517 347.855 22.3883 345.713 35.5436C349.079 28.2011 356.115 23.0002 364.988 23.0002C378.143 23.0002 383.956 33.0961 383.956 42.5802C383.956 53.288 377.837 64.6077 364.988 64.6077C353.974 64.6077 343.572 56.9593 343.572 40.1327C343.572 21.4705 352.75 3.42015 388.239 3.42015C404.454 3.42015 431.376 4.33795 458.299 4.33795V4.94983C444.225 24.5299 415.161 87.5531 385.485 149.353C385.791 153.024 385.791 157.001 385.791 160.672C386.097 176.275 387.321 186.983 394.664 196.467V197.079H332.864Z" fill="white"/>
<path d="M332.864 197.079V196.467C340.207 186.983 341.736 175.969 342.042 160.366C342.042 156.695 342.042 152.718 342.042 149.047C323.074 109.275 303.494 69.5027 288.503 37.9911C281.161 23.0002 276.266 11.0686 268.923 4.94983V4.33795H349.385V4.94983C337.147 8.31515 332.558 13.5161 332.558 23.0002C332.558 26.3655 333.17 30.3427 334.394 35.2377C339.901 56.9593 352.138 81.7403 364.07 104.992C373.554 86.6353 382.732 67.3612 389.769 50.5346C393.134 42.8862 394.969 36.4614 394.969 31.5664C394.969 20.8586 387.321 15.3517 370.189 15.3517C356.727 15.3517 347.855 22.3883 345.713 35.5436C349.079 28.2011 356.115 23.0002 364.988 23.0002C378.143 23.0002 383.956 33.0961 383.956 42.5802C383.956 53.288 377.837 64.6077 364.988 64.6077C353.974 64.6077 343.572 56.9593 343.572 40.1327C343.572 21.4705 352.75 3.42015 388.239 3.42015C404.454 3.42015 431.376 4.33795 458.299 4.33795V4.94983C444.225 24.5299 415.161 87.5531 385.485 149.353C385.791 153.024 385.791 157.001 385.791 160.672C386.097 176.275 387.321 186.983 394.664 196.467V197.079H332.864Z" fill="#000000"/>
<path d="M547.296 201.745C486.636 201.745 443.267 155.632 443.267 100.735C443.267 45.8387 486.636 0 547.296 0C607.683 0 651.325 45.8387 651.325 100.735C651.325 155.632 607.683 201.745 547.296 201.745ZM547.296 127.086C563.216 127.086 575.019 115.008 575.019 100.735C575.019 86.4622 563.216 74.3849 547.296 74.3849C531.376 74.3849 519.574 86.4622 519.574 100.735C519.574 115.008 531.376 127.086 547.296 127.086Z" fill="white"/>
<path d="M547.296 201.745C486.636 201.745 443.267 155.632 443.267 100.735C443.267 45.8387 486.636 0 547.296 0C607.683 0 651.325 45.8387 651.325 100.735C651.325 155.632 607.683 201.745 547.296 201.745ZM547.296 127.086C563.216 127.086 575.019 115.008 575.019 100.735C575.019 86.4622 563.216 74.3849 547.296 74.3849C531.376 74.3849 519.574 86.4622 519.574 100.735C519.574 115.008 531.376 127.086 547.296 127.086Z" fill="#000000"/>
<path d="M676.85 197.079C673.831 197.079 671.909 195.158 671.909 192.138V9.8814C671.909 6.86209 673.831 4.9407 676.85 4.9407H748.216C750.961 4.9407 753.157 6.58761 753.706 9.33244L769.351 74.1105L778.683 115.008H780.33L789.663 74.3849L805.308 9.33244C805.857 6.58761 808.053 4.9407 810.798 4.9407H882.164C885.183 4.9407 887.104 6.86209 887.104 9.8814V192.138C887.104 195.158 885.183 197.079 882.164 197.079H824.797C821.777 197.079 819.856 195.158 819.856 192.138L820.13 152.887C820.13 139.163 822.875 105.676 823.973 97.9905L821.777 97.716C820.13 105.951 815.19 129.282 812.994 137.516L798.172 192.962C797.348 195.981 795.427 197.079 792.682 197.079H767.155C764.41 197.079 762.489 195.981 761.665 192.962L746.843 137.516C744.648 129.282 739.707 105.951 738.06 97.716L735.864 97.9905C736.962 105.676 739.707 139.163 739.707 152.887L739.981 192.138C739.981 195.158 738.06 197.079 735.041 197.079H676.85Z" fill="white"/>
<path d="M676.85 197.079C673.831 197.079 671.909 195.158 671.909 192.138V9.8814C671.909 6.86209 673.831 4.9407 676.85 4.9407H748.216C750.961 4.9407 753.157 6.58761 753.706 9.33244L769.351 74.1105L778.683 115.008H780.33L789.663 74.3849L805.308 9.33244C805.857 6.58761 808.053 4.9407 810.798 4.9407H882.164C885.183 4.9407 887.104 6.86209 887.104 9.8814V192.138C887.104 195.158 885.183 197.079 882.164 197.079H824.797C821.777 197.079 819.856 195.158 819.856 192.138L820.13 152.887C820.13 139.163 822.875 105.676 823.973 97.9905L821.777 97.716C820.13 105.951 815.19 129.282 812.994 137.516L798.172 192.962C797.348 195.981 795.427 197.079 792.682 197.079H767.155C764.41 197.079 762.489 195.981 761.665 192.962L746.843 137.516C744.648 129.282 739.707 105.951 738.06 97.716L735.864 97.9905C736.962 105.676 739.707 139.163 739.707 152.887L739.981 192.138C739.981 195.158 738.06 197.079 735.041 197.079H676.85Z" fill="#000000"/>
<path d="M915.543 197.079C912.524 197.079 910.603 195.158 910.603 192.138V9.8814C910.603 6.86209 912.524 4.9407 915.543 4.9407H978.125C981.145 4.9407 983.066 6.86209 983.066 9.8814V192.138C983.066 195.158 981.145 197.079 978.125 197.079H915.543Z" fill="white"/>
<path d="M915.543 197.079C912.524 197.079 910.603 195.158 910.603 192.138V9.8814C910.603 6.86209 912.524 4.9407 915.543 4.9407H978.125C981.145 4.9407 983.066 6.86209 983.066 9.8814V192.138C983.066 195.158 981.145 197.079 978.125 197.079H915.543Z" fill="#000000"/>
<path d="M1011.63 197.079C1008.61 197.079 1006.69 195.158 1006.69 192.138V9.8814C1006.69 6.86209 1008.61 4.9407 1011.63 4.9407H1077.24C1079.98 4.9407 1082.18 6.58761 1082.72 9.33244L1097.55 75.7573C1099.74 85.6387 1100.84 95.7946 1103.04 105.676L1104.96 105.402C1104.13 96.0691 1102.21 75.2084 1102.21 68.3463L1101.66 9.8814C1101.66 6.86209 1103.59 4.9407 1106.6 4.9407H1166.44C1169.46 4.9407 1171.38 6.86209 1171.38 9.8814V192.138C1171.38 195.158 1169.46 197.079 1166.44 197.079H1107.7C1104.96 197.079 1103.04 195.981 1102.21 192.962L1083.55 126.262C1080.8 116.381 1078.88 106.225 1076.69 96.3436L1074.76 96.6181C1075.86 105.95 1077.78 126.811 1077.78 133.673L1078.33 192.138C1078.33 195.158 1076.41 197.079 1073.39 197.079H1011.63Z" fill="white"/>
<path d="M1011.63 197.079C1008.61 197.079 1006.69 195.158 1006.69 192.138V9.8814C1006.69 6.86209 1008.61 4.9407 1011.63 4.9407H1077.24C1079.98 4.9407 1082.18 6.58761 1082.72 9.33244L1097.55 75.7573C1099.74 85.6387 1100.84 95.7946 1103.04 105.676L1104.96 105.402C1104.13 96.0691 1102.21 75.2084 1102.21 68.3463L1101.66 9.8814C1101.66 6.86209 1103.59 4.9407 1106.6 4.9407H1166.44C1169.46 4.9407 1171.38 6.86209 1171.38 9.8814V192.138C1171.38 195.158 1169.46 197.079 1166.44 197.079H1107.7C1104.96 197.079 1103.04 195.981 1102.21 192.962L1083.55 126.262C1080.8 116.381 1078.88 106.225 1076.69 96.3436L1074.76 96.6181C1075.86 105.95 1077.78 126.811 1077.78 133.673L1078.33 192.138C1078.33 195.158 1076.41 197.079 1073.39 197.079H1011.63Z" fill="#000000"/>
<path d="M1398.56 134.363V197.079H1337.37V131.61H1322.99C1319.32 186.371 1296.68 200.138 1267.31 200.138C1213.77 200.138 1195.11 150.272 1195.11 98.8754C1195.11 49.3147 1213.77 0.977763 1267.31 0.977763C1300.05 0.977763 1317.79 11.3794 1320.54 63.3875H1334.92V4.34299H1400.7V81.1314H1310.14C1307.08 66.4468 1298.52 62.7756 1288.73 62.7756C1272.21 62.7756 1265.17 75.3188 1265.17 98.5694C1265.17 125.185 1273.43 139.564 1292.7 139.564C1306.47 139.564 1313.51 134.363 1313.51 125.185C1313.51 118.149 1311.67 116.313 1293.01 116.313V97.6516H1416.91V116.313C1398.86 116.313 1398.56 117.231 1398.56 134.363Z" fill="white"/>
<path d="M1398.56 134.363V197.079H1337.37V131.61H1322.99C1319.32 186.371 1296.68 200.138 1267.31 200.138C1213.77 200.138 1195.11 150.272 1195.11 98.8754C1195.11 49.3147 1213.77 0.977763 1267.31 0.977763C1300.05 0.977763 1317.79 11.3794 1320.54 63.3875H1334.92V4.34299H1400.7V81.1314H1310.14C1307.08 66.4468 1298.52 62.7756 1288.73 62.7756C1272.21 62.7756 1265.17 75.3188 1265.17 98.5694C1265.17 125.185 1273.43 139.564 1292.7 139.564C1306.47 139.564 1313.51 134.363 1313.51 125.185C1313.51 118.149 1311.67 116.313 1293.01 116.313V97.6516H1416.91V116.313C1398.86 116.313 1398.56 117.231 1398.56 134.363Z" fill="#000000"/>
</svg>
