<svg width="1316" height="193" viewBox="0 0 1316 193" fill="none" xmlns="http://www.w3.org/2000/svg">
<path d="M5.21728 192.736C1.92328 192.736 0.00178122 190.815 0.825281 187.246L48.0393 4.70381C48.8628 1.68432 50.5098 0.586315 53.5293 0.586315H140.271C143.291 0.586315 144.938 1.68432 145.761 4.70381L192.701 187.246C193.524 190.815 191.603 192.736 188.309 192.736H121.605C118.586 192.736 116.939 191.089 116.39 188.344L110.625 161.443H82.6263L76.8618 188.344C76.3128 191.089 74.6658 192.736 71.6463 192.736H5.21728ZM87.2928 116.151H105.959L99.3708 78.8188L97.9983 67.5643H95.2533L93.8808 78.8188L87.2928 116.151ZM201.532 192.736C198.512 192.736 196.591 190.815 196.591 187.795V5.52732C196.591 2.50782 198.512 0.586315 201.532 0.586315H264.118C267.137 0.586315 269.059 2.50782 269.059 5.52732V126.856H323.135C326.155 126.856 328.076 128.778 328.076 131.797V187.795C328.076 190.815 326.155 192.736 323.135 192.736H201.532ZM423.018 137.057V192.736H334.298V133.998C346.841 130.327 368.256 110.135 378.658 85.9668C381.105 80.1541 382.635 75.5651 382.635 68.2228C382.635 63.022 379.576 57.5153 371.316 57.5153H357.549V0.000415963H497.665V42.8306C497.665 60.5746 508.372 79.5422 514.797 90.2498L527.34 110.747C536.824 126.35 542.025 132.468 546.919 133.998V192.736H444.433V137.057C454.835 137.057 458.812 132.468 458.812 126.35C458.812 122.372 456.976 118.395 455.446 115.642L452.693 111.359H392.119C394.26 122.678 403.438 133.692 423.018 137.057ZM398.543 83.2134C395.79 87.4964 393.954 92.0854 392.731 96.3684H443.821L417.511 53.2322L398.543 83.2134ZM558.978 192.462C555.959 192.462 554.037 190.54 554.037 187.521V5.25282C554.037 2.23333 555.959 0.311819 558.978 0.311819H646.818C688.817 0.311819 708.855 28.0363 708.855 52.7413C708.855 67.5643 705.012 82.1128 686.895 91.4458V92.8183C708.032 102.7 715.169 117.249 715.169 136.464C715.169 166.659 692.66 192.462 653.681 192.462H558.978ZM638.309 137.287C644.622 137.287 647.916 132.895 647.916 126.307C647.916 119.445 644.897 115.327 638.309 115.327H619.643V137.287H638.309ZM638.034 75.7993C644.073 75.7993 647.093 71.4073 647.093 65.0938C647.093 58.5058 644.348 54.6628 638.034 54.6628H620.192V75.7993H638.034ZM714.377 192.736C711.083 192.736 709.162 190.815 709.985 187.246L757.199 4.70381C758.023 1.68432 759.67 0.586315 762.689 0.586315H849.431C852.451 0.586315 854.098 1.68432 854.921 4.70381L901.861 187.246C902.684 190.815 900.763 192.736 897.469 192.736H830.765C827.746 192.736 826.099 191.089 825.55 188.344L819.785 161.443H791.786L786.022 188.344C785.473 191.089 783.826 192.736 780.806 192.736H714.377ZM796.453 116.151H815.119L808.531 78.8188L807.158 67.5643H804.413L803.041 78.8188L796.453 116.151ZM899.752 192.736V192.124C903.117 182.029 904.953 171.933 906.176 156.331C909.848 116.254 914.742 48.9492 915.354 27.8401C915.66 14.0732 912.295 9.17833 901.587 0.612286V0.000415963H997.649V0.612286C996.12 4.89531 994.896 8.8724 994.896 13.7673C994.896 19.5799 996.426 26.3104 999.485 37.018C1003.77 51.3967 1012.03 70.0584 1019.68 86.8845C1027.02 68.5287 1033.14 49.5611 1040.48 27.5341C1042.93 20.4977 1044.15 14.6851 1044.15 10.402C1044.15 5.8131 1042.93 2.44786 1040.17 0.612286V0.000415963H1116.96V0.612286C1112.07 7.64868 1110.23 12.5435 1110.23 23.863C1110.23 27.2282 1110.54 31.5112 1110.84 36.4061C1112.99 76.177 1116.04 116.254 1119.72 156.331C1121.25 171.933 1122.77 182.029 1126.14 192.124V192.736H1051.19V192.124C1071.68 185.088 1075.97 174.686 1075.97 160.92C1075.97 151.436 1071.38 87.8023 1067.4 40.6891C1058.53 72.5058 1050.58 99.1217 1030.08 153.271C1021.51 175.91 1006.22 192.124 980.823 192.124C961.55 192.124 955.125 178.969 955.125 166.426C955.125 153.883 962.773 140.728 978.682 140.728C992.449 140.728 1001.63 150.824 1001.63 165.814C1001.63 177.134 996.12 185.7 985.718 189.677C998.873 186.618 1005.6 177.746 1005.6 167.038C1005.6 156.943 1003.77 147.765 999.485 136.751C987.248 104.017 971.645 72.8118 956.349 41.9128C951.454 80.46 947.477 149.6 947.477 166.12C947.477 176.522 949.007 184.782 954.207 192.124V192.736H899.752ZM1127.68 192.736C1124.38 192.736 1122.46 190.815 1123.28 187.246L1170.5 4.70381C1171.32 1.68432 1172.97 0.586315 1175.99 0.586315H1262.73C1265.75 0.586315 1267.4 1.68432 1268.22 4.70381L1315.16 187.246C1315.98 190.815 1314.06 192.736 1310.77 192.736H1244.06C1241.04 192.736 1239.4 191.089 1238.85 188.344L1233.08 161.443H1205.08L1199.32 188.344C1198.77 191.089 1197.12 192.736 1194.1 192.736H1127.68ZM1209.75 116.151H1228.42L1221.83 78.8188L1220.46 67.5643H1217.71L1216.34 78.8188L1209.75 116.151Z" fill="#000000"/>
</svg>
