<svg width="1239" height="202" viewBox="0 0 1239 202" fill="none" xmlns="http://www.w3.org/2000/svg">
<path d="M5.21728 197.092C1.92328 197.092 0.00178122 195.17 0.825281 191.602L48.0393 9.05928C48.8628 6.03979 50.5098 4.94178 53.5293 4.94178H140.271C143.291 4.94178 144.938 6.03979 145.761 9.05928L192.701 191.602C193.524 195.17 191.603 197.092 188.309 197.092H121.605C118.586 197.092 116.939 195.445 116.39 192.7L110.625 165.799H82.6263L76.8618 192.7C76.3128 195.445 74.6658 197.092 71.6463 197.092H5.21728ZM87.2928 120.506H105.959L99.3708 83.1743L97.9983 71.9198H95.2533L93.8808 83.1743L87.2928 120.506ZM201.532 197.092C198.512 197.092 196.591 195.17 196.591 192.151V9.88279C196.591 6.86329 198.512 4.94178 201.532 4.94178H295.136C336.86 4.94178 362.938 32.3918 362.938 66.9788C362.938 88.9388 354.977 104.585 338.782 116.389L372.82 191.327C374.467 194.621 372.82 197.092 369.251 197.092H304.195C301.45 197.092 299.803 195.719 298.705 193.249L286.352 160.309L275.647 132.584H268.235C268.784 141.368 269.059 150.152 269.059 158.662V192.151C269.059 195.17 267.137 197.092 264.118 197.092H201.532ZM282.235 85.9193C289.372 85.9193 293.764 82.0763 293.764 73.8413C293.764 65.3318 289.372 62.0378 282.235 62.0378H266.863V85.9193H282.235ZM380.204 197.092C377.184 197.092 375.263 195.17 375.263 192.151V9.88279C375.263 6.86329 377.184 4.94178 380.204 4.94178H442.79C445.809 4.94178 447.731 6.86329 447.731 9.88279V192.151C447.731 195.17 445.809 197.092 442.79 197.092H380.204ZM469.676 102.559V3.43811H647.728V69.8249L517.707 129.787H577.976C623.253 129.787 632.431 117.244 633.961 94.9112H650.787V197.092H464.476V130.399L599.391 69.8249H538.511C494.457 69.8249 488.644 71.9664 486.502 102.559H469.676ZM766.145 201.758C705.48 201.758 662.109 155.642 662.109 100.742C662.109 45.8423 705.48 0.000781953 766.145 0.000781953C826.535 0.000781953 870.18 45.8423 870.18 100.742C870.18 155.642 826.535 201.758 766.145 201.758ZM766.145 127.094C782.066 127.094 793.869 115.016 793.869 100.742C793.869 86.4683 782.066 74.3903 766.145 74.3903C750.224 74.3903 738.42 86.4683 738.42 100.742C738.42 115.016 750.224 127.094 766.145 127.094ZM884.726 197.092C881.707 197.092 879.785 195.17 879.785 192.151V9.88279C879.785 6.86329 881.707 4.94178 884.726 4.94178H950.332C953.077 4.94178 955.273 6.5888 955.822 9.33379L970.645 75.7628C972.841 85.6448 973.939 95.8013 976.135 105.683L978.056 105.409C977.233 96.0758 975.311 75.2138 975.311 68.3513L974.762 9.88279C974.762 6.86329 976.684 4.94178 979.703 4.94178H1039.54C1042.56 4.94178 1044.49 6.86329 1044.49 9.88279V192.151C1044.49 195.17 1042.56 197.092 1039.54 197.092H980.801C978.056 197.092 976.135 195.994 975.311 192.974L956.645 126.271C953.9 116.389 951.979 106.232 949.783 96.3503L947.861 96.6248C948.959 105.958 950.881 126.82 950.881 133.682L951.43 192.151C951.43 195.17 949.508 197.092 946.489 197.092H884.726ZM1049.89 197.092V196.48C1059.38 183.937 1070.09 151.814 1080.49 117.244C1064.27 111.431 1053.26 104.701 1053.26 90.9341C1053.26 82.674 1058.15 75.3317 1068.56 75.3317C1077.12 75.3317 1083.85 81.4503 1083.85 90.6282C1083.85 100.112 1078.96 106.231 1068.56 106.231C1064.27 106.231 1060.3 104.701 1057.85 102.559C1062.74 108.066 1072.23 109.902 1082.63 110.208C1089.66 85.4273 1096.7 60.0352 1102.51 39.5378C1104.96 31.5837 1106.49 25.1591 1106.49 19.9583C1106.49 12.0041 1102.82 7.4152 1093.95 4.96776V4.35588H1195.52V4.96776C1189.09 6.4974 1185.11 12.3101 1185.11 23.6295C1185.11 30.054 1186.34 38.0082 1188.79 48.1039C1197.96 84.8155 1208.67 121.221 1220.91 157.321C1227.03 175.677 1232.23 188.526 1238.96 196.48V197.092H1157.28V196.48C1169.21 193.421 1173.8 186.996 1173.8 176.594C1173.8 172.006 1172.88 166.805 1171.35 160.38C1168.9 149.367 1144.12 139.577 1117.2 130.399C1114.75 139.883 1112.3 149.979 1109.55 160.38C1108.33 166.499 1107.41 171.7 1107.41 176.289C1107.41 186.996 1111.69 193.115 1123.62 196.48V197.092H1049.89ZM1123.01 109.29C1141.37 110.82 1159.11 120.609 1172.27 157.015H1172.88C1162.78 117.244 1154.22 78.085 1144.43 44.7387H1143.2C1136.78 63.4004 1130.05 84.8155 1123.01 109.29Z" fill="#000000"/>
</svg>
