<svg width="1234" height="202" viewBox="0 0 1234 202" fill="none" xmlns="http://www.w3.org/2000/svg">
<path d="M4.9407 197.079C1.92138 197.079 0 195.158 0 192.138V9.8814C0 6.86209 1.92138 4.9407 4.9407 4.9407H137.791C140.81 4.9407 142.731 6.86209 142.731 9.8814V61.2097C142.731 64.2291 140.81 66.1504 137.791 66.1504H72.4635V77.6787H121.047C124.066 77.6787 125.988 79.6001 125.988 82.6194V125.439C125.988 128.458 124.066 130.38 121.047 130.38H72.4635V192.138C72.4635 195.158 70.5422 197.079 67.5229 197.079H4.9407Z" fill="white"/>
<path d="M4.9407 197.079C1.92138 197.079 0 195.158 0 192.138V9.8814C0 6.86209 1.92138 4.9407 4.9407 4.9407H137.791C140.81 4.9407 142.731 6.86209 142.731 9.8814V61.2097C142.731 64.2291 140.81 66.1504 137.791 66.1504H72.4635V77.6787H121.047C124.066 77.6787 125.988 79.6001 125.988 82.6194V125.439C125.988 128.458 124.066 130.38 121.047 130.38H72.4635V192.138C72.4635 195.158 70.5422 197.079 67.5229 197.079H4.9407Z" fill="#000000"/>
<path d="M166.435 197.079C163.416 197.079 161.495 195.158 161.495 192.138V9.8814C161.495 6.86209 163.416 4.9407 166.435 4.9407H229.018C232.037 4.9407 233.958 6.86209 233.958 9.8814V131.203H288.031C291.051 131.203 292.972 133.124 292.972 136.144V192.138C292.972 195.158 291.051 197.079 288.031 197.079H166.435Z" fill="white"/>
<path d="M166.435 197.079C163.416 197.079 161.495 195.158 161.495 192.138V9.8814C161.495 6.86209 163.416 4.9407 166.435 4.9407H229.018C232.037 4.9407 233.958 6.86209 233.958 9.8814V131.203H288.031C291.051 131.203 292.972 133.124 292.972 136.144V192.138C292.972 195.158 291.051 197.079 288.031 197.079H166.435Z" fill="#000000"/>
<path d="M406.244 201.745C345.583 201.745 302.214 155.632 302.214 100.735C302.214 45.8387 345.583 0 406.244 0C466.63 0 510.273 45.8387 510.273 100.735C510.273 155.632 466.63 201.745 406.244 201.745ZM406.244 127.086C422.164 127.086 433.966 115.008 433.966 100.735C433.966 86.4622 422.164 74.3849 406.244 74.3849C390.324 74.3849 378.521 86.4622 378.521 100.735C378.521 115.008 390.324 127.086 406.244 127.086Z" fill="white"/>
<path d="M406.244 201.745C345.583 201.745 302.214 155.632 302.214 100.735C302.214 45.8387 345.583 0 406.244 0C466.63 0 510.273 45.8387 510.273 100.735C510.273 155.632 466.63 201.745 406.244 201.745ZM406.244 127.086C422.164 127.086 433.966 115.008 433.966 100.735C433.966 86.4622 422.164 74.3849 406.244 74.3849C390.324 74.3849 378.521 86.4622 378.521 100.735C378.521 115.008 390.324 127.086 406.244 127.086Z" fill="#000000"/>
<path d="M643.326 62.7756H609.368V98.2635H641.49C663.823 98.2635 671.777 92.7568 671.777 80.5196C671.777 66.7527 664.129 62.7756 643.326 62.7756ZM741.835 118.761C741.835 183.924 732.657 200.138 694.11 200.138C661.682 200.138 644.55 187.289 644.55 130.998C644.55 118.761 640.878 116.619 627.723 116.619H609.368V129.162C609.368 143.541 611.203 144.153 631.089 144.153V197.079H531.356V138.34C550.323 138.34 550.935 137.423 550.935 120.29V83.8848C550.935 63.9993 550.323 62.7756 531.356 62.7756V4.34299H645.161C702.982 4.34299 727.457 18.7217 727.457 57.8807C727.457 96.4279 699.923 103.464 672.083 103.464H669.33V116.313H684.015C701.453 116.313 708.489 120.902 708.489 130.386V131.61C708.489 140.482 710.325 143.847 717.055 143.847C724.397 143.847 726.539 138.034 726.539 118.455C726.539 115.396 726.233 111.113 725.927 105.606H741.529C741.835 111.418 741.835 116.007 741.835 118.761Z" fill="white"/>
<path d="M643.326 62.7756H609.368V98.2635H641.49C663.823 98.2635 671.777 92.7568 671.777 80.5196C671.777 66.7527 664.129 62.7756 643.326 62.7756ZM741.835 118.761C741.835 183.924 732.657 200.138 694.11 200.138C661.682 200.138 644.55 187.289 644.55 130.998C644.55 118.761 640.878 116.619 627.723 116.619H609.368V129.162C609.368 143.541 611.203 144.153 631.089 144.153V197.079H531.356V138.34C550.323 138.34 550.935 137.423 550.935 120.29V83.8848C550.935 63.9993 550.323 62.7756 531.356 62.7756V4.34299H645.161C702.982 4.34299 727.457 18.7217 727.457 57.8807C727.457 96.4279 699.923 103.464 672.083 103.464H669.33V116.313H684.015C701.453 116.313 708.489 120.902 708.489 130.386V131.61C708.489 140.482 710.325 143.847 717.055 143.847C724.397 143.847 726.539 138.034 726.539 118.455C726.539 115.396 726.233 111.113 725.927 105.606H741.529C741.835 111.418 741.835 116.007 741.835 118.761Z" fill="#000000"/>
<path d="M764.799 197.079C761.78 197.079 759.859 195.158 759.859 192.138V9.8814C759.859 6.86209 761.78 4.9407 764.799 4.9407H827.381C830.401 4.9407 832.322 6.86209 832.322 9.8814V192.138C832.322 195.158 830.401 197.079 827.381 197.079H764.799Z" fill="white"/>
<path d="M764.799 197.079C761.78 197.079 759.859 195.158 759.859 192.138V9.8814C759.859 6.86209 761.78 4.9407 764.799 4.9407H827.381C830.401 4.9407 832.322 6.86209 832.322 9.8814V192.138C832.322 195.158 830.401 197.079 827.381 197.079H764.799Z" fill="#000000"/>
<path d="M860.89 197.079C857.87 197.079 855.949 195.158 855.949 192.138V9.8814C855.949 6.86209 857.87 4.9407 860.89 4.9407H944.058C989.897 4.9407 1033.54 43.3684 1033.54 99.9119C1033.54 156.181 989.897 197.079 944.058 197.079H860.89ZM938.843 128.733C952.567 128.733 963.272 117.204 963.272 99.9119C963.272 82.3449 952.567 73.0125 938.843 73.0125H927.864V128.733H938.843Z" fill="white"/>
<path d="M860.89 197.079C857.87 197.079 855.949 195.158 855.949 192.138V9.8814C855.949 6.86209 857.87 4.9407 860.89 4.9407H944.058C989.897 4.9407 1033.54 43.3684 1033.54 99.9119C1033.54 156.181 989.897 197.079 944.058 197.079H860.89ZM938.843 128.733C952.567 128.733 963.272 117.204 963.272 99.9119C963.272 82.3449 952.567 73.0125 938.843 73.0125H927.864V128.733H938.843Z" fill="#000000"/>
<path d="M1044.26 197.079V196.467C1053.75 183.924 1064.46 151.801 1074.86 117.231C1058.64 111.419 1047.63 104.688 1047.63 90.9212C1047.63 82.6611 1052.52 75.3187 1062.93 75.3187C1071.49 75.3187 1078.22 81.4374 1078.22 90.6153C1078.22 100.099 1073.33 106.218 1062.93 106.218C1058.64 106.218 1054.67 104.688 1052.22 102.547C1057.11 108.053 1066.6 109.889 1077 110.195C1084.03 85.4145 1091.07 60.0223 1096.88 39.5249C1099.33 31.5708 1100.86 25.1462 1100.86 19.9454C1100.86 11.9912 1097.19 7.4023 1088.32 4.95486V4.34299H1189.89V4.95486C1183.46 6.4845 1179.48 12.2972 1179.48 23.6166C1179.48 30.0411 1180.71 37.9953 1183.16 48.091C1192.33 84.8026 1203.04 121.208 1215.28 157.308C1221.4 175.664 1226.6 188.513 1233.33 196.467V197.079H1151.65V196.467C1163.58 193.408 1168.17 186.983 1168.17 176.582C1168.17 171.993 1167.25 166.792 1165.72 160.367C1163.27 149.354 1138.49 139.564 1111.57 130.386C1109.12 139.87 1106.67 149.966 1103.92 160.367C1102.7 166.486 1101.78 171.687 1101.78 176.276C1101.78 186.983 1106.06 193.102 1117.99 196.467V197.079H1044.26ZM1117.38 109.277C1135.74 110.807 1153.48 120.596 1166.64 157.002H1167.25C1157.15 117.231 1148.59 78.0721 1138.8 44.7258H1137.57C1131.15 63.3875 1124.42 84.8026 1117.38 109.277Z" fill="white"/>
<path d="M1044.26 197.079V196.467C1053.75 183.924 1064.46 151.801 1074.86 117.231C1058.64 111.419 1047.63 104.688 1047.63 90.9212C1047.63 82.6611 1052.52 75.3187 1062.93 75.3187C1071.49 75.3187 1078.22 81.4374 1078.22 90.6153C1078.22 100.099 1073.33 106.218 1062.93 106.218C1058.64 106.218 1054.67 104.688 1052.22 102.547C1057.11 108.053 1066.6 109.889 1077 110.195C1084.03 85.4145 1091.07 60.0223 1096.88 39.5249C1099.33 31.5708 1100.86 25.1462 1100.86 19.9454C1100.86 11.9912 1097.19 7.4023 1088.32 4.95486V4.34299H1189.89V4.95486C1183.46 6.4845 1179.48 12.2972 1179.48 23.6166C1179.48 30.0411 1180.71 37.9953 1183.16 48.091C1192.33 84.8026 1203.04 121.208 1215.28 157.308C1221.4 175.664 1226.6 188.513 1233.33 196.467V197.079H1151.65V196.467C1163.58 193.408 1168.17 186.983 1168.17 176.582C1168.17 171.993 1167.25 166.792 1165.72 160.367C1163.27 149.354 1138.49 139.564 1111.57 130.386C1109.12 139.87 1106.67 149.966 1103.92 160.367C1102.7 166.486 1101.78 171.687 1101.78 176.276C1101.78 186.983 1106.06 193.102 1117.99 196.467V197.079H1044.26ZM1117.38 109.277C1135.74 110.807 1153.48 120.596 1166.64 157.002H1167.25C1157.15 117.231 1148.59 78.0721 1138.8 44.7258H1137.57C1131.15 63.3875 1124.42 84.8026 1117.38 109.277Z" fill="#000000"/>
</svg>
