<svg width="1061" height="194" viewBox="0 0 1061 194" fill="none" xmlns="http://www.w3.org/2000/svg">
<path d="M98.265 193.654C95.2457 193.654 93.3243 191.732 93.3243 188.713V122.014H73.0125V188.713C73.0125 191.732 71.0911 193.654 68.0718 193.654H4.9407C1.92138 193.654 0 191.732 0 188.713V6.45619C0 3.43688 1.92138 1.51549 4.9407 1.51549H68.0718C71.0911 1.51549 73.0125 3.43688 73.0125 6.45619V70.1363H93.3243V6.45619C93.3243 3.43688 95.2457 1.51549 98.265 1.51549H161.396C164.415 1.51549 166.337 3.43688 166.337 6.45619V188.713C166.337 191.732 164.415 193.654 161.396 193.654H98.265Z" fill="white"/>
<path d="M98.265 193.654C95.2457 193.654 93.3243 191.732 93.3243 188.713V122.014H73.0125V188.713C73.0125 191.732 71.0911 193.654 68.0718 193.654H4.9407C1.92138 193.654 0 191.732 0 188.713V6.45619C0 3.43688 1.92138 1.51549 4.9407 1.51549H68.0718C71.0911 1.51549 73.0125 3.43688 73.0125 6.45619V70.1363H93.3243V6.45619C93.3243 3.43688 95.2457 1.51549 98.265 1.51549H161.396C164.415 1.51549 166.337 3.43688 166.337 6.45619V188.713C166.337 191.732 164.415 193.654 161.396 193.654H98.265Z" fill="#000000"/>
<path d="M185.516 193.654C182.223 193.654 180.301 191.732 181.125 188.164L228.336 5.63273C229.159 2.61343 230.806 1.51549 233.825 1.51549H320.562C323.581 1.51549 325.228 2.61343 326.052 5.63273L372.988 188.164C373.812 191.732 371.89 193.654 368.597 193.654H301.897C298.878 193.654 297.231 192.007 296.682 189.262L290.918 162.363H262.921L257.156 189.262C256.607 192.007 254.961 193.654 251.941 193.654H185.516ZM267.587 117.073H286.252L279.664 79.7432L278.292 68.4894H275.547L274.174 79.7432L267.587 117.073Z" fill="white"/>
<path d="M185.516 193.654C182.223 193.654 180.301 191.732 181.125 188.164L228.336 5.63273C229.159 2.61343 230.806 1.51549 233.825 1.51549H320.562C323.581 1.51549 325.228 2.61343 326.052 5.63273L372.988 188.164C373.812 191.732 371.89 193.654 368.597 193.654H301.897C298.878 193.654 297.231 192.007 296.682 189.262L290.918 162.363H262.921L257.156 189.262C256.607 192.007 254.961 193.654 251.941 193.654H185.516ZM267.587 117.073H286.252L279.664 79.7432L278.292 68.4894H275.547L274.174 79.7432L267.587 117.073Z" fill="#000000"/>
<path d="M401.455 193.654V193.042C411.245 190.594 415.834 184.476 415.834 170.403C415.834 164.896 415.222 158.166 413.693 149.906C406.35 113.5 398.09 77.0944 387.689 40.6887C382.794 22.6388 376.675 9.48382 369.639 1.52965V0.917778H451.628V1.52965C439.697 4.89487 436.026 11.0135 436.026 21.721C436.026 36.0997 448.569 114.418 457.441 153.271H458.97C468.76 127.879 479.162 99.1213 487.728 72.8113C484.057 62.1038 480.079 51.3962 475.796 40.6887C468.148 22.6388 464.171 9.48382 457.135 1.52965V0.917778H538.818V1.52965C526.887 4.58895 522.604 11.0135 522.604 21.4151C522.604 44.9717 544.325 109.523 559.621 153.271H561.457C569.717 122.372 577.977 86.2723 582.872 55.9852C583.79 50.1725 584.402 45.2776 584.402 40.6887C584.402 27.2278 579.201 19.2736 563.292 19.2736C548.914 19.2736 533.923 27.8396 533.923 49.5607C533.923 49.5607 533.923 49.5607 533.923 49.8666C536.677 36.4057 545.549 30.593 555.644 30.593C570.329 30.593 577.671 42.5243 577.671 52.9259C577.671 63.3275 570.941 74.6469 555.338 74.6469C541.266 74.6469 532.088 64.5512 532.088 45.8895C532.088 19.8854 548.914 0 590.52 0C598.168 0 626.008 0.917778 644.058 0.917778C628.761 22.6388 613.771 106.464 601.84 158.472C600.31 165.508 599.392 170.709 599.392 175.91C599.392 185.088 603.063 190.288 612.853 193.042V193.654H520.156V193.042C520.768 191.818 521.074 189.371 521.074 185.394C521.074 177.133 516.179 164.284 511.59 149.906C509.449 143.175 507.613 136.445 505.472 129.714C503.024 139.81 500.883 149.6 498.435 158.472C496.294 166.426 492.317 177.439 492.317 185.7C492.317 188.453 492.929 191.206 494.152 193.042V193.654H401.455Z" fill="white"/>
<path d="M401.455 193.654V193.042C411.245 190.594 415.834 184.476 415.834 170.403C415.834 164.896 415.222 158.166 413.693 149.906C406.35 113.5 398.09 77.0944 387.689 40.6887C382.794 22.6388 376.675 9.48382 369.639 1.52965V0.917778H451.628V1.52965C439.697 4.89487 436.026 11.0135 436.026 21.721C436.026 36.0997 448.569 114.418 457.441 153.271H458.97C468.76 127.879 479.162 99.1213 487.728 72.8113C484.057 62.1038 480.079 51.3962 475.796 40.6887C468.148 22.6388 464.171 9.48382 457.135 1.52965V0.917778H538.818V1.52965C526.887 4.58895 522.604 11.0135 522.604 21.4151C522.604 44.9717 544.325 109.523 559.621 153.271H561.457C569.717 122.372 577.977 86.2723 582.872 55.9852C583.79 50.1725 584.402 45.2776 584.402 40.6887C584.402 27.2278 579.201 19.2736 563.292 19.2736C548.914 19.2736 533.923 27.8396 533.923 49.5607C533.923 49.5607 533.923 49.5607 533.923 49.8666C536.677 36.4057 545.549 30.593 555.644 30.593C570.329 30.593 577.671 42.5243 577.671 52.9259C577.671 63.3275 570.941 74.6469 555.338 74.6469C541.266 74.6469 532.088 64.5512 532.088 45.8895C532.088 19.8854 548.914 0 590.52 0C598.168 0 626.008 0.917778 644.058 0.917778C628.761 22.6388 613.771 106.464 601.84 158.472C600.31 165.508 599.392 170.709 599.392 175.91C599.392 185.088 603.063 190.288 612.853 193.042V193.654H520.156V193.042C520.768 191.818 521.074 189.371 521.074 185.394C521.074 177.133 516.179 164.284 511.59 149.906C509.449 143.175 507.613 136.445 505.472 129.714C503.024 139.81 500.883 149.6 498.435 158.472C496.294 166.426 492.317 177.439 492.317 185.7C492.317 188.453 492.929 191.206 494.152 193.042V193.654H401.455Z" fill="#000000"/>
<path d="M645.067 193.654C641.774 193.654 639.852 191.732 640.676 188.164L687.887 5.63273C688.71 2.61343 690.357 1.51549 693.376 1.51549H780.113C783.132 1.51549 784.779 2.61343 785.603 5.63273L832.539 188.164C833.363 191.732 831.441 193.654 828.148 193.654H761.448C758.429 193.654 756.782 192.007 756.233 189.262L750.469 162.363H722.472L716.707 189.262C716.159 192.007 714.512 193.654 711.492 193.654H645.067ZM727.138 117.073H745.803L739.215 79.7432L737.843 68.4894H735.098L733.725 79.7432L727.138 117.073Z" fill="white"/>
<path d="M645.067 193.654C641.774 193.654 639.852 191.732 640.676 188.164L687.887 5.63273C688.71 2.61343 690.357 1.51549 693.376 1.51549H780.113C783.132 1.51549 784.779 2.61343 785.603 5.63273L832.539 188.164C833.363 191.732 831.441 193.654 828.148 193.654H761.448C758.429 193.654 756.782 192.007 756.233 189.262L750.469 162.363H722.472L716.707 189.262C716.159 192.007 714.512 193.654 711.492 193.654H645.067ZM727.138 117.073H745.803L739.215 79.7432L737.843 68.4894H735.098L733.725 79.7432L727.138 117.073Z" fill="#000000"/>
<path d="M873.228 116.863V77.3972C873.228 60.2647 872.31 59.3469 850.588 59.3469V0.912741H960.42V59.3469C938.392 59.3469 937.781 60.2647 937.781 77.3972V116.863C937.781 133.996 938.392 134.914 960.42 134.914V193.654H850.588V134.914C872.31 134.914 873.228 133.996 873.228 116.863Z" fill="white"/>
<path d="M873.228 116.863V77.3972C873.228 60.2647 872.31 59.3469 850.588 59.3469V0.912741H960.42V59.3469C938.392 59.3469 937.781 60.2647 937.781 77.3972V116.863C937.781 133.996 938.392 134.914 960.42 134.914V193.654H850.588V134.914C872.31 134.914 873.228 133.996 873.228 116.863Z" fill="#000000"/>
<path d="M992.913 193.654C989.894 193.654 987.973 191.732 987.973 188.713V6.45619C987.973 3.43688 989.894 1.51549 992.913 1.51549H1055.5C1058.51 1.51549 1060.44 3.43688 1060.44 6.45619V188.713C1060.44 191.732 1058.51 193.654 1055.5 193.654H992.913Z" fill="white"/>
<path d="M992.913 193.654C989.894 193.654 987.973 191.732 987.973 188.713V6.45619C987.973 3.43688 989.894 1.51549 992.913 1.51549H1055.5C1058.51 1.51549 1060.44 3.43688 1060.44 6.45619V188.713C1060.44 191.732 1058.51 193.654 1055.5 193.654H992.913Z" fill="#000000"/>
</svg>
