<svg width="758" height="202" viewBox="0 0 758 202" fill="none" xmlns="http://www.w3.org/2000/svg">
<path d="M4.9407 197.079C1.92138 197.079 0 195.158 0 192.138V9.8814C0 6.86209 1.92138 4.9407 4.9407 4.9407H67.5229C70.5422 4.9407 72.4635 6.86209 72.4635 9.8814V192.138C72.4635 195.158 70.5422 197.079 67.5229 197.079H4.9407Z" fill="white"/>
<path d="M4.9407 197.079C1.92138 197.079 0 195.158 0 192.138V9.8814C0 6.86209 1.92138 4.9407 4.9407 4.9407H67.5229C70.5422 4.9407 72.4635 6.86209 72.4635 9.8814V192.138C72.4635 195.158 70.5422 197.079 67.5229 197.079H4.9407Z" fill="#000000"/>
<path d="M197.036 201.745C136.375 201.745 93.0069 155.632 93.0069 100.735C93.0069 45.8387 136.375 0 197.036 0C257.422 0 301.065 45.8387 301.065 100.735C301.065 155.632 257.422 201.745 197.036 201.745ZM197.036 127.086C212.956 127.086 224.759 115.008 224.759 100.735C224.759 86.4622 212.956 74.3849 197.036 74.3849C181.116 74.3849 169.313 86.4622 169.313 100.735C169.313 115.008 181.116 127.086 197.036 127.086Z" fill="white"/>
<path d="M197.036 201.745C136.375 201.745 93.0069 155.632 93.0069 100.735C93.0069 45.8387 136.375 0 197.036 0C257.422 0 301.065 45.8387 301.065 100.735C301.065 155.632 257.422 201.745 197.036 201.745ZM197.036 127.086C212.956 127.086 224.759 115.008 224.759 100.735C224.759 86.4622 212.956 74.3849 197.036 74.3849C181.116 74.3849 169.313 86.4622 169.313 100.735C169.313 115.008 181.116 127.086 197.036 127.086Z" fill="#000000"/>
<path d="M332.567 197.079V196.467C342.356 194.02 346.945 187.901 346.945 173.828C346.945 168.321 346.334 161.591 344.804 153.331C337.462 116.925 329.201 80.5196 318.8 44.1139C313.905 26.064 307.786 12.909 300.75 4.95486V4.34299H382.739V4.95486C370.808 8.32008 367.137 14.4387 367.137 25.1462C367.137 39.5249 379.68 117.843 388.552 156.696H390.081C399.871 131.304 410.273 102.547 418.839 76.2365C415.168 65.529 411.191 54.8214 406.908 44.1139C399.259 26.064 395.282 12.909 388.246 4.95486V4.34299H469.929V4.95486C457.998 8.01415 453.715 14.4387 453.715 24.8403C453.715 48.3969 475.436 112.948 490.732 156.696H492.568C500.828 125.797 509.088 89.6975 513.983 59.4104C514.901 53.5977 515.513 48.7029 515.513 44.1139C515.513 30.653 510.312 22.6988 494.404 22.6988C480.025 22.6988 465.034 31.2648 465.034 52.9859C465.034 52.9859 465.034 52.9859 465.034 53.2918C467.788 39.8309 476.66 34.0182 486.755 34.0182C501.44 34.0182 508.782 45.9495 508.782 56.3511C508.782 66.7527 502.052 78.0721 486.449 78.0721C472.377 78.0721 463.199 67.9764 463.199 49.3147C463.199 23.3107 480.025 3.42521 521.631 3.42521C529.28 3.42521 557.119 4.34299 575.169 4.34299C559.873 26.064 544.882 109.889 532.951 161.897C531.421 168.933 530.503 174.134 530.503 179.335C530.503 188.513 534.175 193.714 543.964 196.467V197.079H451.267V196.467C451.879 195.243 452.185 192.796 452.185 188.819C452.185 180.559 447.29 167.71 442.701 153.331C440.56 146.6 438.724 139.87 436.583 133.14C434.135 143.235 431.994 153.025 429.546 161.897C427.405 169.851 423.428 180.865 423.428 189.125C423.428 191.878 424.04 194.631 425.263 196.467V197.079H332.567Z" fill="white"/>
<path d="M332.567 197.079V196.467C342.356 194.02 346.945 187.901 346.945 173.828C346.945 168.321 346.334 161.591 344.804 153.331C337.462 116.925 329.201 80.5196 318.8 44.1139C313.905 26.064 307.786 12.909 300.75 4.95486V4.34299H382.739V4.95486C370.808 8.32008 367.137 14.4387 367.137 25.1462C367.137 39.5249 379.68 117.843 388.552 156.696H390.081C399.871 131.304 410.273 102.547 418.839 76.2365C415.168 65.529 411.191 54.8214 406.908 44.1139C399.259 26.064 395.282 12.909 388.246 4.95486V4.34299H469.929V4.95486C457.998 8.01415 453.715 14.4387 453.715 24.8403C453.715 48.3969 475.436 112.948 490.732 156.696H492.568C500.828 125.797 509.088 89.6975 513.983 59.4104C514.901 53.5977 515.513 48.7029 515.513 44.1139C515.513 30.653 510.312 22.6988 494.404 22.6988C480.025 22.6988 465.034 31.2648 465.034 52.9859C465.034 52.9859 465.034 52.9859 465.034 53.2918C467.788 39.8309 476.66 34.0182 486.755 34.0182C501.44 34.0182 508.782 45.9495 508.782 56.3511C508.782 66.7527 502.052 78.0721 486.449 78.0721C472.377 78.0721 463.199 67.9764 463.199 49.3147C463.199 23.3107 480.025 3.42521 521.631 3.42521C529.28 3.42521 557.119 4.34299 575.169 4.34299C559.873 26.064 544.882 109.889 532.951 161.897C531.421 168.933 530.503 174.134 530.503 179.335C530.503 188.513 534.175 193.714 543.964 196.467V197.079H451.267V196.467C451.879 195.243 452.185 192.796 452.185 188.819C452.185 180.559 447.29 167.71 442.701 153.331C440.56 146.6 438.724 139.87 436.583 133.14C434.135 143.235 431.994 153.025 429.546 161.897C427.405 169.851 423.428 180.865 423.428 189.125C423.428 191.878 424.04 194.631 425.263 196.467V197.079H332.567Z" fill="#000000"/>
<path d="M570.06 197.079C566.766 197.079 564.845 195.158 565.668 191.589L612.879 9.05794C613.703 6.03863 615.35 4.9407 618.369 4.9407H705.106C708.125 4.9407 709.772 6.03863 710.595 9.05794L757.532 191.589C758.355 195.158 756.434 197.079 753.14 197.079H686.441C683.422 197.079 681.775 195.432 681.226 192.687L675.461 165.788H647.464L641.7 192.687C641.151 195.432 639.504 197.079 636.485 197.079H570.06ZM652.13 120.498H670.795L664.208 83.1684L662.835 71.9146H660.09L658.718 83.1684L652.13 120.498Z" fill="white"/>
<path d="M570.06 197.079C566.766 197.079 564.845 195.158 565.668 191.589L612.879 9.05794C613.703 6.03863 615.35 4.9407 618.369 4.9407H705.106C708.125 4.9407 709.772 6.03863 710.595 9.05794L757.532 191.589C758.355 195.158 756.434 197.079 753.14 197.079H686.441C683.422 197.079 681.775 195.432 681.226 192.687L675.461 165.788H647.464L641.7 192.687C641.151 195.432 639.504 197.079 636.485 197.079H570.06ZM652.13 120.498H670.795L664.208 83.1684L662.835 71.9146H660.09L658.718 83.1684L652.13 120.498Z" fill="#000000"/>
</svg>
