<svg width="1710" height="203" viewBox="0 0 1710 203" fill="none" xmlns="http://www.w3.org/2000/svg">
<path d="M4.9407 198.177C1.92138 198.177 0 196.255 0 193.236V10.9793C0 7.96002 1.92138 6.03863 4.9407 6.03863H76.3063C79.0511 6.03863 81.247 7.68554 81.796 10.4304L97.4415 75.2084L106.774 116.106H108.421L117.753 75.4829L133.399 10.4304C133.948 7.68554 136.144 6.03863 138.888 6.03863H210.254C213.273 6.03863 215.195 7.96002 215.195 10.9793V193.236C215.195 196.255 213.273 198.177 210.254 198.177H152.887C149.868 198.177 147.946 196.255 147.946 193.236L148.221 153.985C148.221 140.261 150.966 106.774 152.064 99.0884L149.868 98.8139C148.221 107.048 143.28 130.38 141.084 138.614L126.262 194.06C125.439 197.079 123.517 198.177 120.773 198.177H95.2457C92.5008 198.177 90.5794 197.079 89.756 194.06L74.9339 138.614C72.738 130.38 67.7973 107.048 66.1504 98.8139L63.9546 99.0884C65.0525 106.774 67.7973 140.261 67.7973 153.985L68.0718 193.236C68.0718 196.255 66.1504 198.177 63.1311 198.177H4.9407Z" fill="white"/>
<path d="M4.9407 198.177C1.92138 198.177 0 196.255 0 193.236V10.9793C0 7.96002 1.92138 6.03863 4.9407 6.03863H76.3063C79.0511 6.03863 81.247 7.68554 81.796 10.4304L97.4415 75.2084L106.774 116.106H108.421L117.753 75.4829L133.399 10.4304C133.948 7.68554 136.144 6.03863 138.888 6.03863H210.254C213.273 6.03863 215.195 7.96002 215.195 10.9793V193.236C215.195 196.255 213.273 198.177 210.254 198.177H152.887C149.868 198.177 147.946 196.255 147.946 193.236L148.221 153.985C148.221 140.261 150.966 106.774 152.064 99.0884L149.868 98.8139C148.221 107.048 143.28 130.38 141.084 138.614L126.262 194.06C125.439 197.079 123.517 198.177 120.773 198.177H95.2457C92.5008 198.177 90.5794 197.079 89.756 194.06L74.9339 138.614C72.738 130.38 67.7973 107.048 66.1504 98.8139L63.9546 99.0884C65.0525 106.774 67.7973 140.261 67.7973 153.985L68.0718 193.236C68.0718 196.255 66.1504 198.177 63.1311 198.177H4.9407Z" fill="#000000"/>
<path d="M243.634 198.177C240.614 198.177 238.693 196.255 238.693 193.236V10.9793C238.693 7.96002 240.614 6.03863 243.634 6.03863H306.216C309.235 6.03863 311.157 7.96002 311.157 10.9793V193.236C311.157 196.255 309.235 198.177 306.216 198.177H243.634Z" fill="white"/>
<path d="M243.634 198.177C240.614 198.177 238.693 196.255 238.693 193.236V10.9793C238.693 7.96002 240.614 6.03863 243.634 6.03863H306.216C309.235 6.03863 311.157 7.96002 311.157 10.9793V193.236C311.157 196.255 309.235 198.177 306.216 198.177H243.634Z" fill="#000000"/>
<path d="M410.815 202.02C374.035 202.02 333.137 185.002 330.117 132.575C329.843 129.282 331.764 127.36 334.784 127.36H394.072C397.64 127.36 399.836 129.556 399.836 132.575C400.111 139.437 402.855 144.653 411.09 144.653C416.58 144.653 419.599 140.81 419.873 136.418C419.599 124.89 405.875 124.341 384.191 120.498C354.821 115.283 330.666 99.3629 330.941 63.1311C330.666 23.88 364.153 0 406.973 0C436.891 0 480.809 13.7242 483.005 64.2291C483.005 67.5229 481.083 69.4442 478.064 69.4442H422.893C419.599 69.4442 417.952 67.5229 417.678 64.5035C417.403 59.5629 416.031 53.7987 408.071 53.7987C403.679 53.7987 400.66 56.5435 400.66 60.9353C400.66 71.0911 414.384 71.0911 435.793 76.3063C465.438 83.4429 489.318 99.9119 489.592 136.418C489.867 181.433 452.537 202.02 410.815 202.02Z" fill="white"/>
<path d="M410.815 202.02C374.035 202.02 333.137 185.002 330.117 132.575C329.843 129.282 331.764 127.36 334.784 127.36H394.072C397.64 127.36 399.836 129.556 399.836 132.575C400.111 139.437 402.855 144.653 411.09 144.653C416.58 144.653 419.599 140.81 419.873 136.418C419.599 124.89 405.875 124.341 384.191 120.498C354.821 115.283 330.666 99.3629 330.941 63.1311C330.666 23.88 364.153 0 406.973 0C436.891 0 480.809 13.7242 483.005 64.2291C483.005 67.5229 481.083 69.4442 478.064 69.4442H422.893C419.599 69.4442 417.952 67.5229 417.678 64.5035C417.403 59.5629 416.031 53.7987 408.071 53.7987C403.679 53.7987 400.66 56.5435 400.66 60.9353C400.66 71.0911 414.384 71.0911 435.793 76.3063C465.438 83.4429 489.318 99.9119 489.592 136.418C489.867 181.433 452.537 202.02 410.815 202.02Z" fill="#000000"/>
<path d="M713.623 148.922C713.623 155.857 712.501 162.587 710.258 169.113C708.218 175.436 704.649 181.045 699.55 185.94C694.655 190.631 688.027 194.404 679.665 197.259C671.507 200.114 661.411 201.542 649.378 201.542C638.16 201.542 628.269 200.726 619.703 199.095C611.136 197.463 603.896 194.506 597.982 190.223C592.271 185.736 587.682 179.617 584.215 171.867C580.951 163.913 578.81 153.919 577.79 141.886H564.329V198.177H507.12V126.589H583.603C585.642 132.504 588.906 136.889 593.393 139.744C598.083 142.396 604.406 143.721 612.36 143.721C620.722 143.721 626.943 142.396 631.022 139.744C635.305 137.093 637.446 132.708 637.446 126.589C637.446 121.49 635.713 117.615 632.246 114.964C628.778 112.312 621.742 110.987 611.136 110.987C603.998 110.987 596.554 111.089 588.804 111.293C581.053 111.497 573.099 111.599 564.941 111.599C553.928 111.599 544.75 110.171 537.407 107.316C530.065 104.256 524.15 100.279 519.663 95.3843C515.38 90.4895 512.321 84.6768 510.486 77.9463C508.854 71.2159 508.038 64.1795 508.038 56.8372C508.038 49.2909 509.16 42.2545 511.403 35.728C513.647 28.9975 517.216 23.1849 522.111 18.29C527.006 13.3951 533.328 9.51999 541.079 6.66464C549.033 3.8093 558.415 2.38162 569.224 2.38162C579.218 2.38162 587.988 3.40139 595.534 5.44092C603.284 7.2765 609.811 10.6417 615.114 15.5366C620.62 20.2276 625.107 26.6521 628.575 34.8102C632.042 42.9683 634.489 53.166 635.917 65.4032H648.766V5.44092H706.893V80.6997H630.41C628.167 72.3376 624.699 67.0348 620.008 64.7914C615.318 62.3439 608.689 61.1202 600.123 61.1202C591.149 61.1202 585.132 62.7518 582.073 66.0151C579.014 69.0744 577.484 73.0515 577.484 77.9463C577.484 82.6373 579.626 86.3084 583.909 88.9598C588.192 91.6112 595.942 92.9369 607.159 92.9369C608.179 92.9369 610.423 92.9369 613.89 92.9369C617.561 92.733 621.64 92.631 626.127 92.631C630.818 92.427 635.611 92.3251 640.506 92.3251C645.401 92.1211 649.582 92.0191 653.049 92.0191C665.694 92.0191 675.994 93.4468 683.948 96.3021C691.902 98.9535 698.021 102.829 702.304 107.927C706.791 112.822 709.748 118.839 711.176 125.977C712.807 132.912 713.623 140.56 713.623 148.922Z" fill="white"/>
<path d="M713.623 148.922C713.623 155.857 712.501 162.587 710.258 169.113C708.218 175.436 704.649 181.045 699.55 185.94C694.655 190.631 688.027 194.404 679.665 197.259C671.507 200.114 661.411 201.542 649.378 201.542C638.16 201.542 628.269 200.726 619.703 199.095C611.136 197.463 603.896 194.506 597.982 190.223C592.271 185.736 587.682 179.617 584.215 171.867C580.951 163.913 578.81 153.919 577.79 141.886H564.329V198.177H507.12V126.589H583.603C585.642 132.504 588.906 136.889 593.393 139.744C598.083 142.396 604.406 143.721 612.36 143.721C620.722 143.721 626.943 142.396 631.022 139.744C635.305 137.093 637.446 132.708 637.446 126.589C637.446 121.49 635.713 117.615 632.246 114.964C628.778 112.312 621.742 110.987 611.136 110.987C603.998 110.987 596.554 111.089 588.804 111.293C581.053 111.497 573.099 111.599 564.941 111.599C553.928 111.599 544.75 110.171 537.407 107.316C530.065 104.256 524.15 100.279 519.663 95.3843C515.38 90.4895 512.321 84.6768 510.486 77.9463C508.854 71.2159 508.038 64.1795 508.038 56.8372C508.038 49.2909 509.16 42.2545 511.403 35.728C513.647 28.9975 517.216 23.1849 522.111 18.29C527.006 13.3951 533.328 9.51999 541.079 6.66464C549.033 3.8093 558.415 2.38162 569.224 2.38162C579.218 2.38162 587.988 3.40139 595.534 5.44092C603.284 7.2765 609.811 10.6417 615.114 15.5366C620.62 20.2276 625.107 26.6521 628.575 34.8102C632.042 42.9683 634.489 53.166 635.917 65.4032H648.766V5.44092H706.893V80.6997H630.41C628.167 72.3376 624.699 67.0348 620.008 64.7914C615.318 62.3439 608.689 61.1202 600.123 61.1202C591.149 61.1202 585.132 62.7518 582.073 66.0151C579.014 69.0744 577.484 73.0515 577.484 77.9463C577.484 82.6373 579.626 86.3084 583.909 88.9598C588.192 91.6112 595.942 92.9369 607.159 92.9369C608.179 92.9369 610.423 92.9369 613.89 92.9369C617.561 92.733 621.64 92.631 626.127 92.631C630.818 92.427 635.611 92.3251 640.506 92.3251C645.401 92.1211 649.582 92.0191 653.049 92.0191C665.694 92.0191 675.994 93.4468 683.948 96.3021C691.902 98.9535 698.021 102.829 702.304 107.927C706.791 112.822 709.748 118.839 711.176 125.977C712.807 132.912 713.623 140.56 713.623 148.922Z" fill="#000000"/>
<path d="M739.739 198.177C736.72 198.177 734.799 196.255 734.799 193.236V10.9793C734.799 7.96002 736.72 6.03863 739.739 6.03863H802.322C805.341 6.03863 807.262 7.96002 807.262 10.9793V193.236C807.262 196.255 805.341 198.177 802.322 198.177H739.739Z" fill="white"/>
<path d="M739.739 198.177C736.72 198.177 734.799 196.255 734.799 193.236V10.9793C734.799 7.96002 736.72 6.03863 739.739 6.03863H802.322C805.341 6.03863 807.262 7.96002 807.262 10.9793V193.236C807.262 196.255 805.341 198.177 802.322 198.177H739.739Z" fill="#000000"/>
<path d="M906.921 202.02C870.14 202.02 829.242 185.002 826.223 132.575C825.949 129.282 827.87 127.36 830.889 127.36H890.178C893.746 127.36 895.942 129.556 895.942 132.575C896.216 139.437 898.961 144.653 907.196 144.653C912.685 144.653 915.705 140.81 915.979 136.418C915.705 124.89 901.98 124.341 880.296 120.498C850.927 115.283 826.772 99.3629 827.046 63.1311C826.772 23.88 860.259 0 903.078 0C932.997 0 976.914 13.7242 979.11 64.2291C979.11 67.5229 977.189 69.4442 974.169 69.4442H918.998C915.704 69.4442 914.058 67.5229 913.783 64.5035C913.509 59.5629 912.136 53.7987 904.176 53.7987C899.784 53.7987 896.765 56.5435 896.765 60.9353C896.765 71.0911 910.489 71.0911 931.899 76.3063C961.543 83.4429 985.423 99.9119 985.698 136.418C985.972 181.433 948.642 202.02 906.921 202.02Z" fill="white"/>
<path d="M906.921 202.02C870.14 202.02 829.242 185.002 826.223 132.575C825.949 129.282 827.87 127.36 830.889 127.36H890.178C893.746 127.36 895.942 129.556 895.942 132.575C896.216 139.437 898.961 144.653 907.196 144.653C912.685 144.653 915.705 140.81 915.979 136.418C915.705 124.89 901.98 124.341 880.296 120.498C850.927 115.283 826.772 99.3629 827.046 63.1311C826.772 23.88 860.259 0 903.078 0C932.997 0 976.914 13.7242 979.11 64.2291C979.11 67.5229 977.189 69.4442 974.169 69.4442H918.998C915.704 69.4442 914.058 67.5229 913.783 64.5035C913.509 59.5629 912.136 53.7987 904.176 53.7987C899.784 53.7987 896.765 56.5435 896.765 60.9353C896.765 71.0911 910.489 71.0911 931.899 76.3063C961.543 83.4429 985.423 99.9119 985.698 136.418C985.972 181.433 948.642 202.02 906.921 202.02Z" fill="#000000"/>
<path d="M1081.82 202.02C1045.04 202.02 1004.14 185.002 1001.12 132.575C1000.85 129.282 1002.77 127.36 1005.79 127.36H1065.07C1068.64 127.36 1070.84 129.556 1070.84 132.575C1071.11 139.437 1073.86 144.653 1082.09 144.653C1087.58 144.653 1090.6 140.81 1090.88 136.418C1090.6 124.89 1076.88 124.341 1055.19 120.498C1025.82 115.283 1001.67 99.3629 1001.94 63.1311C1001.67 23.88 1035.16 0 1077.98 0C1107.89 0 1151.81 13.7242 1154.01 64.2291C1154.01 67.5229 1152.09 69.4442 1149.07 69.4442H1093.9C1090.6 69.4442 1088.95 67.5229 1088.68 64.5035C1088.41 59.5629 1087.03 53.7987 1079.07 53.7987C1074.68 53.7987 1071.66 56.5435 1071.66 60.9353C1071.66 71.0911 1085.39 71.0911 1106.8 76.3063C1136.44 83.4429 1160.32 99.9119 1160.59 136.418C1160.87 181.433 1123.54 202.02 1081.82 202.02Z" fill="white"/>
<path d="M1081.82 202.02C1045.04 202.02 1004.14 185.002 1001.12 132.575C1000.85 129.282 1002.77 127.36 1005.79 127.36H1065.07C1068.64 127.36 1070.84 129.556 1070.84 132.575C1071.11 139.437 1073.86 144.653 1082.09 144.653C1087.58 144.653 1090.6 140.81 1090.88 136.418C1090.6 124.89 1076.88 124.341 1055.19 120.498C1025.82 115.283 1001.67 99.3629 1001.94 63.1311C1001.67 23.88 1035.16 0 1077.98 0C1107.89 0 1151.81 13.7242 1154.01 64.2291C1154.01 67.5229 1152.09 69.4442 1149.07 69.4442H1093.9C1090.6 69.4442 1088.95 67.5229 1088.68 64.5035C1088.41 59.5629 1087.03 53.7987 1079.07 53.7987C1074.68 53.7987 1071.66 56.5435 1071.66 60.9353C1071.66 71.0911 1085.39 71.0911 1106.8 76.3063C1136.44 83.4429 1160.32 99.9119 1160.59 136.418C1160.87 181.433 1123.54 202.02 1081.82 202.02Z" fill="#000000"/>
<path d="M1182.94 198.177C1179.92 198.177 1178 196.255 1178 193.236V10.9793C1178 7.96002 1179.92 6.03863 1182.94 6.03863H1245.53C1248.55 6.03863 1250.47 7.96002 1250.47 10.9793V193.236C1250.47 196.255 1248.55 198.177 1245.53 198.177H1182.94Z" fill="white"/>
<path d="M1182.94 198.177C1179.92 198.177 1178 196.255 1178 193.236V10.9793C1178 7.96002 1179.92 6.03863 1182.94 6.03863H1245.53C1248.55 6.03863 1250.47 7.96002 1250.47 10.9793V193.236C1250.47 196.255 1248.55 198.177 1245.53 198.177H1182.94Z" fill="#000000"/>
<path d="M1268.71 198.177V197.565C1270.75 194.71 1272.38 191.956 1273.6 189.305C1274.83 186.45 1275.74 182.982 1276.36 178.903C1277.17 174.62 1277.58 168.91 1277.58 161.771C1277.99 154.225 1278.19 145.455 1278.19 135.461C1278.19 125.467 1278.19 115.168 1278.19 104.562C1278.19 93.7527 1278.19 82.9432 1278.19 72.1337C1278.19 61.3241 1277.99 51.3304 1277.58 42.1525C1277.37 31.343 1276.46 23.2868 1274.83 17.9841C1273.4 12.6813 1271.36 8.70419 1268.71 6.05279V5.44092H1386.8C1402.7 5.44092 1415.04 8.50022 1423.81 14.6188C1432.79 20.7374 1437.27 32.1588 1437.27 48.883C1437.27 55.0016 1436.46 61.0182 1434.83 66.9329C1433.4 72.6436 1430.44 78.3542 1425.95 84.0649C1421.47 89.5717 1414.53 94.9764 1405.15 100.279L1356.51 125.977C1351 128.833 1346.62 132.708 1343.35 137.603C1340.29 142.294 1338.76 147.596 1338.76 153.511C1338.76 158.61 1339.78 162.995 1341.82 166.666C1344.07 170.337 1346.72 173.295 1349.78 175.538C1345.29 171.255 1343.05 165.952 1343.05 159.63C1343.05 153.511 1344.88 148.106 1348.55 143.415C1352.43 138.724 1357.94 136.379 1365.07 136.379C1370.79 136.379 1375.88 138.52 1380.37 142.803C1385.06 146.883 1387.41 152.185 1387.41 158.712C1387.41 166.258 1384.96 171.969 1380.07 175.844C1375.37 179.515 1370.38 181.351 1365.07 181.351C1357.32 181.351 1350.49 179.005 1344.58 174.314C1338.87 169.419 1334.38 163.199 1331.12 155.653C1328.06 147.902 1326.53 139.948 1326.53 131.79C1326.53 122.204 1328.26 113.944 1331.73 107.01C1335.4 100.075 1342.54 93.6507 1353.14 87.7361L1383.43 70.91C1387.1 68.8704 1389.55 66.7289 1390.77 64.4854C1392 62.038 1392.61 59.4886 1392.61 56.8372C1392.61 52.7581 1391.08 49.8008 1388.02 47.9652C1384.96 46.1296 1379.76 45.2118 1372.42 45.2118C1363.85 45.2118 1355.29 45.3138 1346.72 45.5178C1338.36 45.5178 1329.89 45.7217 1321.33 46.1296V155.347C1321.33 165.34 1322.14 173.193 1323.77 178.903C1325.41 184.41 1328.36 188.591 1332.65 191.446C1336.93 194.098 1342.95 196.137 1350.7 197.565V198.177H1268.71Z" fill="white"/>
<path d="M1268.71 198.177V197.565C1270.75 194.71 1272.38 191.956 1273.6 189.305C1274.83 186.45 1275.74 182.982 1276.36 178.903C1277.17 174.62 1277.58 168.91 1277.58 161.771C1277.99 154.225 1278.19 145.455 1278.19 135.461C1278.19 125.467 1278.19 115.168 1278.19 104.562C1278.19 93.7527 1278.19 82.9432 1278.19 72.1337C1278.19 61.3241 1277.99 51.3304 1277.58 42.1525C1277.37 31.343 1276.46 23.2868 1274.83 17.9841C1273.4 12.6813 1271.36 8.70419 1268.71 6.05279V5.44092H1386.8C1402.7 5.44092 1415.04 8.50022 1423.81 14.6188C1432.79 20.7374 1437.27 32.1588 1437.27 48.883C1437.27 55.0016 1436.46 61.0182 1434.83 66.9329C1433.4 72.6436 1430.44 78.3542 1425.95 84.0649C1421.47 89.5717 1414.53 94.9764 1405.15 100.279L1356.51 125.977C1351 128.833 1346.62 132.708 1343.35 137.603C1340.29 142.294 1338.76 147.596 1338.76 153.511C1338.76 158.61 1339.78 162.995 1341.82 166.666C1344.07 170.337 1346.72 173.295 1349.78 175.538C1345.29 171.255 1343.05 165.952 1343.05 159.63C1343.05 153.511 1344.88 148.106 1348.55 143.415C1352.43 138.724 1357.94 136.379 1365.07 136.379C1370.79 136.379 1375.88 138.52 1380.37 142.803C1385.06 146.883 1387.41 152.185 1387.41 158.712C1387.41 166.258 1384.96 171.969 1380.07 175.844C1375.37 179.515 1370.38 181.351 1365.07 181.351C1357.32 181.351 1350.49 179.005 1344.58 174.314C1338.87 169.419 1334.38 163.199 1331.12 155.653C1328.06 147.902 1326.53 139.948 1326.53 131.79C1326.53 122.204 1328.26 113.944 1331.73 107.01C1335.4 100.075 1342.54 93.6507 1353.14 87.7361L1383.43 70.91C1387.1 68.8704 1389.55 66.7289 1390.77 64.4854C1392 62.038 1392.61 59.4886 1392.61 56.8372C1392.61 52.7581 1391.08 49.8008 1388.02 47.9652C1384.96 46.1296 1379.76 45.2118 1372.42 45.2118C1363.85 45.2118 1355.29 45.3138 1346.72 45.5178C1338.36 45.5178 1329.89 45.7217 1321.33 46.1296V155.347C1321.33 165.34 1322.14 173.193 1323.77 178.903C1325.41 184.41 1328.36 188.591 1332.65 191.446C1336.93 194.098 1342.95 196.137 1350.7 197.565V198.177H1268.71Z" fill="#000000"/>
<path d="M1456.04 198.177C1453.02 198.177 1451.1 196.255 1451.1 193.236V10.9793C1451.1 7.96002 1453.02 6.03863 1456.04 6.03863H1549.37C1592.19 6.03863 1620.46 35.1338 1620.46 74.9339C1620.46 114.459 1594.93 144.104 1552.11 144.104H1523.57V193.236C1523.57 196.255 1521.65 198.177 1518.63 198.177H1456.04ZM1541.96 91.6774C1549.64 91.6774 1554.03 86.7367 1554.03 79.6001C1554.03 72.4636 1549.64 67.5229 1541.96 67.5229H1523.29V91.6774H1541.96Z" fill="white"/>
<path d="M1456.04 198.177C1453.02 198.177 1451.1 196.255 1451.1 193.236V10.9793C1451.1 7.96002 1453.02 6.03863 1456.04 6.03863H1549.37C1592.19 6.03863 1620.46 35.1338 1620.46 74.9339C1620.46 114.459 1594.93 144.104 1552.11 144.104H1523.57V193.236C1523.57 196.255 1521.65 198.177 1518.63 198.177H1456.04ZM1541.96 91.6774C1549.64 91.6774 1554.03 86.7367 1554.03 79.6001C1554.03 72.4636 1549.64 67.5229 1541.96 67.5229H1523.29V91.6774H1541.96Z" fill="#000000"/>
<path d="M1641.66 198.177C1638.64 198.177 1636.72 196.255 1636.72 193.236V10.9793C1636.72 7.96002 1638.64 6.03863 1641.66 6.03863H1704.24C1707.26 6.03863 1709.19 7.96002 1709.19 10.9793V193.236C1709.19 196.255 1707.26 198.177 1704.24 198.177H1641.66Z" fill="white"/>
<path d="M1641.66 198.177C1638.64 198.177 1636.72 196.255 1636.72 193.236V10.9793C1636.72 7.96002 1638.64 6.03863 1641.66 6.03863H1704.24C1707.26 6.03863 1709.19 7.96002 1709.19 10.9793V193.236C1709.19 196.255 1707.26 198.177 1704.24 198.177H1641.66Z" fill="#000000"/>
</svg>
