<svg width="2455" height="202" viewBox="0 0 2455 202" fill="none" xmlns="http://www.w3.org/2000/svg">
<path d="M4.9407 197.079C1.92138 197.079 0 195.158 0 192.138V9.8814C0 6.86209 1.92138 4.9407 4.9407 4.9407H70.5422C73.287 4.9407 75.4829 6.58761 76.0318 9.33244L90.8539 75.7573C93.0498 85.6387 94.1477 95.7946 96.3436 105.676L98.265 105.402C97.4415 96.0691 95.5201 75.2084 95.5201 68.3463L94.9712 9.8814C94.9712 6.86209 96.8925 4.9407 99.9119 4.9407H159.749C162.768 4.9407 164.69 6.86209 164.69 9.8814V192.138C164.69 195.158 162.768 197.079 159.749 197.079H101.01C98.265 197.079 96.3436 195.981 95.5201 192.962L76.8553 126.262C74.1104 116.381 72.1891 106.225 69.9932 96.3436L68.0718 96.6181C69.1698 105.95 71.0911 126.811 71.0911 133.673L71.6401 192.138C71.6401 195.158 69.7187 197.079 66.6994 197.079H4.9407Z" fill="white"/>
<path d="M4.9407 197.079C1.92138 197.079 0 195.158 0 192.138V9.8814C0 6.86209 1.92138 4.9407 4.9407 4.9407H70.5422C73.287 4.9407 75.4829 6.58761 76.0318 9.33244L90.8539 75.7573C93.0498 85.6387 94.1477 95.7946 96.3436 105.676L98.265 105.402C97.4415 96.0691 95.5201 75.2084 95.5201 68.3463L94.9712 9.8814C94.9712 6.86209 96.8925 4.9407 99.9119 4.9407H159.749C162.768 4.9407 164.69 6.86209 164.69 9.8814V192.138C164.69 195.158 162.768 197.079 159.749 197.079H101.01C98.265 197.079 96.3436 195.981 95.5201 192.962L76.8553 126.262C74.1104 116.381 72.1891 106.225 69.9932 96.3436L68.0718 96.6181C69.1698 105.95 71.0911 126.811 71.0911 133.673L71.6401 192.138C71.6401 195.158 69.7187 197.079 66.6994 197.079H4.9407Z" fill="#000000"/>
<path d="M289.245 201.745C228.584 201.745 185.216 155.632 185.216 100.735C185.216 45.8387 228.584 0 289.245 0C349.631 0 393.274 45.8387 393.274 100.735C393.274 155.632 349.631 201.745 289.245 201.745ZM289.245 127.086C305.165 127.086 316.968 115.008 316.968 100.735C316.968 86.4622 305.165 74.3849 289.245 74.3849C273.325 74.3849 261.522 86.4622 261.522 100.735C261.522 115.008 273.325 127.086 289.245 127.086Z" fill="white"/>
<path d="M289.245 201.745C228.584 201.745 185.216 155.632 185.216 100.735C185.216 45.8387 228.584 0 289.245 0C349.631 0 393.274 45.8387 393.274 100.735C393.274 155.632 349.631 201.745 289.245 201.745ZM289.245 127.086C305.165 127.086 316.968 115.008 316.968 100.735C316.968 86.4622 305.165 74.3849 289.245 74.3849C273.325 74.3849 261.522 86.4622 261.522 100.735C261.522 115.008 273.325 127.086 289.245 127.086Z" fill="#000000"/>
<path d="M405.791 197.079V196.467C407.831 193.612 409.462 190.858 410.686 188.207C411.91 185.351 412.828 181.884 413.44 177.805C414.255 173.522 414.663 167.811 414.663 160.672C415.071 153.126 415.275 144.356 415.275 134.362C415.275 124.368 415.275 114.068 415.275 103.462C415.275 92.6521 415.275 81.8422 415.275 71.0324C415.275 60.2226 415.071 50.2286 414.663 41.0505C414.459 30.2407 413.542 22.1843 411.91 16.8814C410.482 11.5785 408.443 7.6013 405.791 4.94983V4.33795H523.883C539.792 4.33795 552.132 7.39733 560.902 13.5161C569.876 19.4309 574.363 30.8526 574.363 47.7811C574.363 53.8999 571.916 59.8147 567.021 65.5256C562.329 71.2364 554.069 75.5195 542.24 78.375C546.115 91.0204 549.888 103.87 553.559 116.923C557.231 129.773 561.31 142.928 565.797 156.389C569.06 165.771 572.323 173.522 575.587 179.64C578.85 185.759 582.011 191.368 585.071 196.467V197.079H507.057V196.467C512.971 194.835 517.153 192.592 519.6 189.736C522.048 186.881 523.271 183.21 523.271 178.723C523.271 176.071 522.965 173.114 522.354 169.85C521.742 166.587 520.926 163.018 519.906 159.143C516.031 143.846 512.564 132.016 509.504 123.654C506.649 115.291 503.385 109.479 499.714 106.215C496.247 102.952 491.76 101.32 486.253 101.32C481.154 101.32 476.565 103.462 472.486 107.745C468.61 112.028 466.673 117.841 466.673 125.183C466.673 129.467 467.999 133.24 470.65 136.503C469.834 135.279 469.324 133.954 469.12 132.526C468.916 130.894 468.814 129.263 468.814 127.631C468.814 122.94 470.242 118.963 473.098 115.699C475.953 112.232 480.032 110.498 485.335 110.498C489.414 110.498 493.188 111.926 496.655 114.782C500.122 117.433 501.856 121.41 501.856 126.713C501.856 132.424 500.02 136.707 496.349 139.563C492.882 142.214 489.21 143.54 485.335 143.54C478.808 143.54 473.505 141.296 469.426 136.809C465.551 132.118 463.613 126.203 463.613 119.065C463.613 113.15 465.245 108.051 468.508 103.768C471.976 99.4847 477.891 95.5075 486.253 91.8362L510.422 81.1284C518.784 77.4571 524.495 73.9898 527.555 70.7265C530.614 67.4632 532.144 63.7919 532.144 59.7127C532.144 54.2058 530.41 50.2287 526.943 47.7811C523.679 45.3336 517.867 44.1099 509.504 44.1099C500.938 44.1099 492.372 44.2119 483.805 44.4158C475.239 44.4158 466.571 44.6198 457.801 45.0277C457.801 50.1267 457.801 55.6336 457.801 61.5484C457.801 67.2592 457.801 72.8681 457.801 78.375C457.801 101.014 457.903 119.371 458.107 133.444C458.515 147.313 458.718 154.35 458.718 154.554C458.718 164.344 459.636 172.094 461.472 177.805C463.308 183.312 466.265 187.493 470.344 190.348C474.627 193 480.44 195.039 487.783 196.467V197.079H405.791Z" fill="white"/>
<path d="M405.791 197.079V196.467C407.831 193.612 409.462 190.858 410.686 188.207C411.91 185.351 412.828 181.884 413.44 177.805C414.255 173.522 414.663 167.811 414.663 160.672C415.071 153.126 415.275 144.356 415.275 134.362C415.275 124.368 415.275 114.068 415.275 103.462C415.275 92.6521 415.275 81.8422 415.275 71.0324C415.275 60.2226 415.071 50.2286 414.663 41.0505C414.459 30.2407 413.542 22.1843 411.91 16.8814C410.482 11.5785 408.443 7.6013 405.791 4.94983V4.33795H523.883C539.792 4.33795 552.132 7.39733 560.902 13.5161C569.876 19.4309 574.363 30.8526 574.363 47.7811C574.363 53.8999 571.916 59.8147 567.021 65.5256C562.329 71.2364 554.069 75.5195 542.24 78.375C546.115 91.0204 549.888 103.87 553.559 116.923C557.231 129.773 561.31 142.928 565.797 156.389C569.06 165.771 572.323 173.522 575.587 179.64C578.85 185.759 582.011 191.368 585.071 196.467V197.079H507.057V196.467C512.971 194.835 517.153 192.592 519.6 189.736C522.048 186.881 523.271 183.21 523.271 178.723C523.271 176.071 522.965 173.114 522.354 169.85C521.742 166.587 520.926 163.018 519.906 159.143C516.031 143.846 512.564 132.016 509.504 123.654C506.649 115.291 503.385 109.479 499.714 106.215C496.247 102.952 491.76 101.32 486.253 101.32C481.154 101.32 476.565 103.462 472.486 107.745C468.61 112.028 466.673 117.841 466.673 125.183C466.673 129.467 467.999 133.24 470.65 136.503C469.834 135.279 469.324 133.954 469.12 132.526C468.916 130.894 468.814 129.263 468.814 127.631C468.814 122.94 470.242 118.963 473.098 115.699C475.953 112.232 480.032 110.498 485.335 110.498C489.414 110.498 493.188 111.926 496.655 114.782C500.122 117.433 501.856 121.41 501.856 126.713C501.856 132.424 500.02 136.707 496.349 139.563C492.882 142.214 489.21 143.54 485.335 143.54C478.808 143.54 473.505 141.296 469.426 136.809C465.551 132.118 463.613 126.203 463.613 119.065C463.613 113.15 465.245 108.051 468.508 103.768C471.976 99.4847 477.891 95.5075 486.253 91.8362L510.422 81.1284C518.784 77.4571 524.495 73.9898 527.555 70.7265C530.614 67.4632 532.144 63.7919 532.144 59.7127C532.144 54.2058 530.41 50.2287 526.943 47.7811C523.679 45.3336 517.867 44.1099 509.504 44.1099C500.938 44.1099 492.372 44.2119 483.805 44.4158C475.239 44.4158 466.571 44.6198 457.801 45.0277C457.801 50.1267 457.801 55.6336 457.801 61.5484C457.801 67.2592 457.801 72.8681 457.801 78.375C457.801 101.014 457.903 119.371 458.107 133.444C458.515 147.313 458.718 154.35 458.718 154.554C458.718 164.344 459.636 172.094 461.472 177.805C463.308 183.312 466.265 187.493 470.344 190.348C474.627 193 480.44 195.039 487.783 196.467V197.079H405.791Z" fill="#000000"/>
<path d="M640.814 197.079C637.795 197.079 635.874 195.158 635.874 192.138V70.8167H600.465C597.446 70.8167 595.525 68.8953 595.525 65.876V9.8814C595.525 6.86209 597.446 4.9407 600.465 4.9407H744.02C747.039 4.9407 748.961 6.86209 748.961 9.8814V65.876C748.961 68.8953 747.039 70.8167 744.02 70.8167H708.337V192.138C708.337 195.158 706.416 197.079 703.397 197.079H640.814Z" fill="white"/>
<path d="M640.814 197.079C637.795 197.079 635.874 195.158 635.874 192.138V70.8167H600.465C597.446 70.8167 595.525 68.8953 595.525 65.876V9.8814C595.525 6.86209 597.446 4.9407 600.465 4.9407H744.02C747.039 4.9407 748.961 6.86209 748.961 9.8814V65.876C748.961 68.8953 747.039 70.8167 744.02 70.8167H708.337V192.138C708.337 195.158 706.416 197.079 703.397 197.079H640.814Z" fill="#000000"/>
<path d="M865.593 197.079C862.573 197.079 860.652 195.158 860.652 192.138V125.439H840.34V192.138C840.34 195.158 838.419 197.079 835.399 197.079H772.268C769.249 197.079 767.328 195.158 767.328 192.138V9.8814C767.328 6.86209 769.249 4.9407 772.268 4.9407H835.399C838.419 4.9407 840.34 6.86209 840.34 9.8814V73.5615H860.652V9.8814C860.652 6.86209 862.573 4.9407 865.593 4.9407H928.724C931.743 4.9407 933.664 6.86209 933.664 9.8814V192.138C933.664 195.158 931.743 197.079 928.724 197.079H865.593Z" fill="white"/>
<path d="M865.593 197.079C862.573 197.079 860.652 195.158 860.652 192.138V125.439H840.34V192.138C840.34 195.158 838.419 197.079 835.399 197.079H772.268C769.249 197.079 767.328 195.158 767.328 192.138V9.8814C767.328 6.86209 769.249 4.9407 772.268 4.9407H835.399C838.419 4.9407 840.34 6.86209 840.34 9.8814V73.5615H860.652V9.8814C860.652 6.86209 862.573 4.9407 865.593 4.9407H928.724C931.743 4.9407 933.664 6.86209 933.664 9.8814V192.138C933.664 195.158 931.743 197.079 928.724 197.079H865.593Z" fill="#000000"/>
<path d="M1097.6 201.471C1040.24 201.471 998.241 157.279 998.241 101.01C998.241 44.7408 1039.96 0.548976 1097.6 0.548976C1152.23 0.548976 1190.1 34.0359 1195.59 86.4622C1196.14 89.756 1194.22 91.6774 1190.93 91.6774H1128.35C1125.6 91.6774 1123.68 90.305 1122.58 87.5601C1119.56 80.9725 1113.25 74.6594 1101.72 74.6594C1087.17 74.6594 1077.29 86.7367 1077.29 101.01C1077.29 115.832 1087.17 127.36 1101.72 127.36C1113.25 127.36 1119.56 120.773 1122.58 114.185C1123.68 111.44 1125.6 110.068 1128.35 110.068H1190.38C1193.67 110.068 1195.59 111.715 1195.32 115.008C1191.2 167.435 1152.5 201.471 1097.6 201.471Z" fill="white"/>
<path d="M1097.6 201.471C1040.24 201.471 998.241 157.279 998.241 101.01C998.241 44.7408 1039.96 0.548976 1097.6 0.548976C1152.23 0.548976 1190.1 34.0359 1195.59 86.4622C1196.14 89.756 1194.22 91.6774 1190.93 91.6774H1128.35C1125.6 91.6774 1123.68 90.305 1122.58 87.5601C1119.56 80.9725 1113.25 74.6594 1101.72 74.6594C1087.17 74.6594 1077.29 86.7367 1077.29 101.01C1077.29 115.832 1087.17 127.36 1101.72 127.36C1113.25 127.36 1119.56 120.773 1122.58 114.185C1123.68 111.44 1125.6 110.068 1128.35 110.068H1190.38C1193.67 110.068 1195.59 111.715 1195.32 115.008C1191.2 167.435 1152.5 201.471 1097.6 201.471Z" fill="#000000"/>
<path d="M1297.96 141.4V197.079H1209.24V138.34C1212.3 137.525 1215.87 135.689 1219.95 132.834C1224.03 129.774 1228.11 126.205 1232.19 122.126C1236.27 117.843 1240.14 112.948 1243.81 107.441C1247.69 101.935 1250.95 96.224 1253.6 90.3093C1254.83 87.454 1255.74 84.7006 1256.35 82.0492C1257.17 79.3978 1257.58 76.2365 1257.58 72.5654C1257.58 69.914 1256.66 67.4665 1254.83 65.2231C1253.19 62.9796 1250.34 61.8578 1246.26 61.8578H1232.49V4.34299H1372.61V47.1732C1372.61 55.9432 1374.65 64.7132 1378.73 73.4832C1382.81 82.2532 1386.48 89.2896 1389.74 94.5923L1402.28 115.09C1406.97 122.84 1410.75 128.449 1413.6 131.916C1416.66 135.383 1419.42 137.525 1421.86 138.34V197.079H1319.38V141.4C1324.48 141.4 1328.15 140.38 1330.39 138.34C1332.63 136.301 1333.76 133.751 1333.76 130.692C1333.76 128.653 1333.35 126.715 1332.53 124.879C1331.92 123.044 1331.21 121.412 1330.39 119.985L1327.64 115.702H1267.06C1268.08 121.412 1271.04 126.715 1275.93 131.61C1280.83 136.505 1288.17 139.768 1297.96 141.4ZM1273.49 87.556C1272.06 89.5955 1270.84 91.839 1269.82 94.2864C1269 96.5299 1268.29 98.6714 1267.67 100.711H1318.76L1292.45 57.5748L1273.49 87.556Z" fill="white"/>
<path d="M1297.96 141.4V197.079H1209.24V138.34C1212.3 137.525 1215.87 135.689 1219.95 132.834C1224.03 129.774 1228.11 126.205 1232.19 122.126C1236.27 117.843 1240.14 112.948 1243.81 107.441C1247.69 101.935 1250.95 96.224 1253.6 90.3093C1254.83 87.454 1255.74 84.7006 1256.35 82.0492C1257.17 79.3978 1257.58 76.2365 1257.58 72.5654C1257.58 69.914 1256.66 67.4665 1254.83 65.2231C1253.19 62.9796 1250.34 61.8578 1246.26 61.8578H1232.49V4.34299H1372.61V47.1732C1372.61 55.9432 1374.65 64.7132 1378.73 73.4832C1382.81 82.2532 1386.48 89.2896 1389.74 94.5923L1402.28 115.09C1406.97 122.84 1410.75 128.449 1413.6 131.916C1416.66 135.383 1419.42 137.525 1421.86 138.34V197.079H1319.38V141.4C1324.48 141.4 1328.15 140.38 1330.39 138.34C1332.63 136.301 1333.76 133.751 1333.76 130.692C1333.76 128.653 1333.35 126.715 1332.53 124.879C1331.92 123.044 1331.21 121.412 1330.39 119.985L1327.64 115.702H1267.06C1268.08 121.412 1271.04 126.715 1275.93 131.61C1280.83 136.505 1288.17 139.768 1297.96 141.4ZM1273.49 87.556C1272.06 89.5955 1270.84 91.839 1269.82 94.2864C1269 96.5299 1268.29 98.6714 1267.67 100.711H1318.76L1292.45 57.5748L1273.49 87.556Z" fill="#000000"/>
<path d="M1446.16 197.079C1443.14 197.079 1441.22 195.158 1441.22 192.138V9.8814C1441.22 6.86209 1443.14 4.9407 1446.16 4.9407H1539.76C1581.48 4.9407 1607.55 32.389 1607.55 66.9739C1607.55 88.9325 1599.59 104.578 1583.4 116.381L1617.44 191.315C1619.08 194.609 1617.44 197.079 1613.87 197.079H1548.81C1546.07 197.079 1544.42 195.706 1543.33 193.236L1530.97 160.298L1520.27 132.575H1512.86C1513.41 141.359 1513.68 150.142 1513.68 158.651V192.138C1513.68 195.158 1511.76 197.079 1508.74 197.079H1446.16ZM1526.86 85.9132C1533.99 85.9132 1538.38 82.0705 1538.38 73.836C1538.38 65.327 1533.99 62.0332 1526.86 62.0332H1511.49V85.9132H1526.86Z" fill="white"/>
<path d="M1446.16 197.079C1443.14 197.079 1441.22 195.158 1441.22 192.138V9.8814C1441.22 6.86209 1443.14 4.9407 1446.16 4.9407H1539.76C1581.48 4.9407 1607.55 32.389 1607.55 66.9739C1607.55 88.9325 1599.59 104.578 1583.4 116.381L1617.44 191.315C1619.08 194.609 1617.44 197.079 1613.87 197.079H1548.81C1546.07 197.079 1544.42 195.706 1543.33 193.236L1530.97 160.298L1520.27 132.575H1512.86C1513.41 141.359 1513.68 150.142 1513.68 158.651V192.138C1513.68 195.158 1511.76 197.079 1508.74 197.079H1446.16ZM1526.86 85.9132C1533.99 85.9132 1538.38 82.0705 1538.38 73.836C1538.38 65.327 1533.99 62.0332 1526.86 62.0332H1511.49V85.9132H1526.86Z" fill="#000000"/>
<path d="M1725.1 201.745C1664.44 201.745 1621.07 155.632 1621.07 100.735C1621.07 45.8387 1664.44 0 1725.1 0C1785.49 0 1829.13 45.8387 1829.13 100.735C1829.13 155.632 1785.49 201.745 1725.1 201.745ZM1725.1 127.086C1741.02 127.086 1752.82 115.008 1752.82 100.735C1752.82 86.4622 1741.02 74.3849 1725.1 74.3849C1709.18 74.3849 1697.38 86.4622 1697.38 100.735C1697.38 115.008 1709.18 127.086 1725.1 127.086Z" fill="white"/>
<path d="M1725.1 201.745C1664.44 201.745 1621.07 155.632 1621.07 100.735C1621.07 45.8387 1664.44 0 1725.1 0C1785.49 0 1829.13 45.8387 1829.13 100.735C1829.13 155.632 1785.49 201.745 1725.1 201.745ZM1725.1 127.086C1741.02 127.086 1752.82 115.008 1752.82 100.735C1752.82 86.4622 1741.02 74.3849 1725.1 74.3849C1709.18 74.3849 1697.38 86.4622 1697.38 100.735C1697.38 115.008 1709.18 127.086 1725.1 127.086Z" fill="#000000"/>
<path d="M1841.65 197.079V196.467C1845.32 191.776 1847.66 186.575 1848.68 180.865C1849.7 175.154 1850.32 168.423 1850.52 160.673C1850.72 150.476 1850.83 140.788 1850.83 131.61C1851.03 122.432 1851.13 112.846 1851.13 102.852C1851.13 92.6548 1851.03 82.2532 1850.83 71.6476C1850.83 61.042 1850.72 50.7424 1850.52 40.7487C1850.52 33.8143 1850.21 28.3075 1849.6 24.2285C1848.99 20.1494 1848.07 16.6822 1846.85 13.8268C1845.62 10.9715 1843.89 8.01415 1841.65 4.95486V4.34299H1939.24V4.95486C1928.02 6.99439 1919.15 9.44183 1912.62 12.2972C1906.1 15.1525 1901.41 18.8237 1898.55 23.3107C1895.9 27.7976 1894.57 33.7123 1894.57 41.0546C1894.37 48.193 1894.27 57.1669 1894.27 67.9764C1894.27 78.582 1894.27 89.9014 1894.27 101.935C1894.27 110.909 1894.27 119.985 1894.27 129.162C1894.27 138.34 1894.27 147.314 1894.27 156.084C1899.98 156.492 1905.59 156.798 1911.09 157.002C1916.6 157.206 1921.29 157.308 1925.17 157.308C1937 157.308 1945.15 153.841 1949.64 146.906C1954.13 139.768 1956.37 130.182 1956.37 118.149C1956.37 107.747 1954.84 99.0793 1951.78 92.1449C1948.72 85.2105 1943.32 80.9275 1935.57 79.2958C1940.06 81.5393 1943.52 84.7006 1945.97 88.7797C1948.42 92.6548 1949.64 96.8358 1949.64 101.323C1949.64 106.626 1947.91 111.52 1944.44 116.007C1940.97 120.494 1935.77 122.738 1928.84 122.738C1921.9 122.738 1916.09 120.8 1911.4 116.925C1906.91 113.05 1904.67 107.645 1904.67 100.711C1904.67 93.5726 1906.91 87.9639 1911.4 83.8848C1915.89 79.8057 1922.01 77.7662 1929.76 77.7662C1937.3 77.7662 1943.52 79.7038 1948.42 83.5789C1953.31 87.454 1956.98 92.6548 1959.43 99.1813C1961.88 105.504 1963.1 112.438 1963.1 119.985C1963.1 136.097 1963.41 150.272 1964.02 162.509C1964.63 174.746 1965.65 186.269 1967.08 197.079H1841.65Z" fill="white"/>
<path d="M1841.65 197.079V196.467C1845.32 191.776 1847.66 186.575 1848.68 180.865C1849.7 175.154 1850.32 168.423 1850.52 160.673C1850.72 150.476 1850.83 140.788 1850.83 131.61C1851.03 122.432 1851.13 112.846 1851.13 102.852C1851.13 92.6548 1851.03 82.2532 1850.83 71.6476C1850.83 61.042 1850.72 50.7424 1850.52 40.7487C1850.52 33.8143 1850.21 28.3075 1849.6 24.2285C1848.99 20.1494 1848.07 16.6822 1846.85 13.8268C1845.62 10.9715 1843.89 8.01415 1841.65 4.95486V4.34299H1939.24V4.95486C1928.02 6.99439 1919.15 9.44183 1912.62 12.2972C1906.1 15.1525 1901.41 18.8237 1898.55 23.3107C1895.9 27.7976 1894.57 33.7123 1894.57 41.0546C1894.37 48.193 1894.27 57.1669 1894.27 67.9764C1894.27 78.582 1894.27 89.9014 1894.27 101.935C1894.27 110.909 1894.27 119.985 1894.27 129.162C1894.27 138.34 1894.27 147.314 1894.27 156.084C1899.98 156.492 1905.59 156.798 1911.09 157.002C1916.6 157.206 1921.29 157.308 1925.17 157.308C1937 157.308 1945.15 153.841 1949.64 146.906C1954.13 139.768 1956.37 130.182 1956.37 118.149C1956.37 107.747 1954.84 99.0793 1951.78 92.1449C1948.72 85.2105 1943.32 80.9275 1935.57 79.2958C1940.06 81.5393 1943.52 84.7006 1945.97 88.7797C1948.42 92.6548 1949.64 96.8358 1949.64 101.323C1949.64 106.626 1947.91 111.52 1944.44 116.007C1940.97 120.494 1935.77 122.738 1928.84 122.738C1921.9 122.738 1916.09 120.8 1911.4 116.925C1906.91 113.05 1904.67 107.645 1904.67 100.711C1904.67 93.5726 1906.91 87.9639 1911.4 83.8848C1915.89 79.8057 1922.01 77.7662 1929.76 77.7662C1937.3 77.7662 1943.52 79.7038 1948.42 83.5789C1953.31 87.454 1956.98 92.6548 1959.43 99.1813C1961.88 105.504 1963.1 112.438 1963.1 119.985C1963.1 136.097 1963.41 150.272 1964.02 162.509C1964.63 174.746 1965.65 186.269 1967.08 197.079H1841.65Z" fill="#000000"/>
<path d="M1991.34 197.079C1988.32 197.079 1986.4 195.158 1986.4 192.138V9.8814C1986.4 6.86209 1988.32 4.9407 1991.34 4.9407H2053.92C2056.94 4.9407 2058.86 6.86209 2058.86 9.8814V192.138C2058.86 195.158 2056.94 197.079 2053.92 197.079H1991.34Z" fill="white"/>
<path d="M1991.34 197.079C1988.32 197.079 1986.4 195.158 1986.4 192.138V9.8814C1986.4 6.86209 1988.32 4.9407 1991.34 4.9407H2053.92C2056.94 4.9407 2058.86 6.86209 2058.86 9.8814V192.138C2058.86 195.158 2056.94 197.079 2053.92 197.079H1991.34Z" fill="#000000"/>
<path d="M2087.43 197.079C2084.41 197.079 2082.49 195.158 2082.49 192.138V9.8814C2082.49 6.86209 2084.41 4.9407 2087.43 4.9407H2153.03C2155.78 4.9407 2157.97 6.58761 2158.52 9.33244L2173.34 75.7573C2175.54 85.6387 2176.64 95.7946 2178.83 105.676L2180.76 105.402C2179.93 96.0691 2178.01 75.2084 2178.01 68.3463L2177.46 9.8814C2177.46 6.86209 2179.38 4.9407 2182.4 4.9407H2242.24C2245.26 4.9407 2247.18 6.86209 2247.18 9.8814V192.138C2247.18 195.158 2245.26 197.079 2242.24 197.079H2183.5C2180.76 197.079 2178.83 195.981 2178.01 192.962L2159.35 126.262C2156.6 116.381 2154.68 106.225 2152.48 96.3436L2150.56 96.6181C2151.66 105.95 2153.58 126.811 2153.58 133.673L2154.13 192.138C2154.13 195.158 2152.21 197.079 2149.19 197.079H2087.43Z" fill="white"/>
<path d="M2087.43 197.079C2084.41 197.079 2082.49 195.158 2082.49 192.138V9.8814C2082.49 6.86209 2084.41 4.9407 2087.43 4.9407H2153.03C2155.78 4.9407 2157.97 6.58761 2158.52 9.33244L2173.34 75.7573C2175.54 85.6387 2176.64 95.7946 2178.83 105.676L2180.76 105.402C2179.93 96.0691 2178.01 75.2084 2178.01 68.3463L2177.46 9.8814C2177.46 6.86209 2179.38 4.9407 2182.4 4.9407H2242.24C2245.26 4.9407 2247.18 6.86209 2247.18 9.8814V192.138C2247.18 195.158 2245.26 197.079 2242.24 197.079H2183.5C2180.76 197.079 2178.83 195.981 2178.01 192.962L2159.35 126.262C2156.6 116.381 2154.68 106.225 2152.48 96.3436L2150.56 96.6181C2151.66 105.95 2153.58 126.811 2153.58 133.673L2154.13 192.138C2154.13 195.158 2152.21 197.079 2149.19 197.079H2087.43Z" fill="#000000"/>
<path d="M2266.4 197.079C2263.1 197.079 2261.18 195.158 2262.01 191.589L2309.22 9.05794C2310.04 6.03863 2311.69 4.9407 2314.71 4.9407H2401.44C2404.46 4.9407 2406.11 6.03863 2406.93 9.05794L2453.87 191.589C2454.69 195.158 2452.77 197.079 2449.48 197.079H2382.78C2379.76 197.079 2378.11 195.432 2377.56 192.687L2371.8 165.788H2343.8L2338.04 192.687C2337.49 195.432 2335.84 197.079 2332.82 197.079H2266.4ZM2348.47 120.498H2367.13L2360.55 83.1684L2359.17 71.9146H2356.43L2355.06 83.1684L2348.47 120.498Z" fill="white"/>
<path d="M2266.4 197.079C2263.1 197.079 2261.18 195.158 2262.01 191.589L2309.22 9.05794C2310.04 6.03863 2311.69 4.9407 2314.71 4.9407H2401.44C2404.46 4.9407 2406.11 6.03863 2406.93 9.05794L2453.87 191.589C2454.69 195.158 2452.77 197.079 2449.48 197.079H2382.78C2379.76 197.079 2378.11 195.432 2377.56 192.687L2371.8 165.788H2343.8L2338.04 192.687C2337.49 195.432 2335.84 197.079 2332.82 197.079H2266.4ZM2348.47 120.498H2367.13L2360.55 83.1684L2359.17 71.9146H2356.43L2355.06 83.1684L2348.47 120.498Z" fill="#000000"/>
</svg>
