<svg width="1523" height="200" viewBox="0 0 1523 200" fill="none" xmlns="http://www.w3.org/2000/svg">
<path d="M4.9407 195.795C1.92138 195.795 0 193.874 0 190.855V8.59771C0 5.5784 1.92138 3.65701 4.9407 3.65701H70.5422C73.287 3.65701 75.4829 5.30392 76.0318 8.04875L90.8539 74.4737C93.0498 84.3551 94.1477 94.5109 96.3436 104.392L98.265 104.118C97.4415 94.7854 95.5201 73.9247 95.5201 67.0626L94.9712 8.59771C94.9712 5.5784 96.8925 3.65701 99.9119 3.65701H159.749C162.768 3.65701 164.69 5.5784 164.69 8.59771V190.855C164.69 193.874 162.768 195.795 159.749 195.795H101.01C98.265 195.795 96.3436 194.697 95.5201 191.678L76.8553 124.979C74.1104 115.097 72.1891 104.941 69.9932 95.0599L68.0718 95.3344C69.1698 104.667 71.0911 125.528 71.0911 132.39L71.6401 190.855C71.6401 193.874 69.7187 195.795 66.6994 195.795H4.9407Z" fill="white"/>
<path d="M4.9407 195.795C1.92138 195.795 0 193.874 0 190.855V8.59771C0 5.5784 1.92138 3.65701 4.9407 3.65701H70.5422C73.287 3.65701 75.4829 5.30392 76.0318 8.04875L90.8539 74.4737C93.0498 84.3551 94.1477 94.5109 96.3436 104.392L98.265 104.118C97.4415 94.7854 95.5201 73.9247 95.5201 67.0626L94.9712 8.59771C94.9712 5.5784 96.8925 3.65701 99.9119 3.65701H159.749C162.768 3.65701 164.69 5.5784 164.69 8.59771V190.855C164.69 193.874 162.768 195.795 159.749 195.795H101.01C98.265 195.795 96.3436 194.697 95.5201 191.678L76.8553 124.979C74.1104 115.097 72.1891 104.941 69.9932 95.0599L68.0718 95.3344C69.1698 104.667 71.0911 125.528 71.0911 132.39L71.6401 190.855C71.6401 193.874 69.7187 195.795 66.6994 195.795H4.9407Z" fill="#000000"/>
<path d="M193.24 195.795C190.221 195.795 188.3 193.874 188.3 190.855V8.59771C188.3 5.5784 190.221 3.65701 193.24 3.65701H316.483C319.503 3.65701 321.424 5.5784 321.424 8.59771V61.8474C321.424 64.8668 319.503 66.7881 316.483 66.7881H259.94V78.3164H297.27C300.289 78.3164 302.21 80.2378 302.21 83.2571V116.47C302.21 119.489 300.289 121.41 297.27 121.41H259.94V133.762H317.581C320.601 133.762 322.522 135.683 322.522 138.703V190.855C322.522 193.874 320.601 195.795 317.581 195.795H193.24Z" fill="white"/>
<path d="M193.24 195.795C190.221 195.795 188.3 193.874 188.3 190.855V8.59771C188.3 5.5784 190.221 3.65701 193.24 3.65701H316.483C319.503 3.65701 321.424 5.5784 321.424 8.59771V61.8474C321.424 64.8668 319.503 66.7881 316.483 66.7881H259.94V78.3164H297.27C300.289 78.3164 302.21 80.2378 302.21 83.2571V116.47C302.21 119.489 300.289 121.41 297.27 121.41H259.94V133.762H317.581C320.601 133.762 322.522 135.683 322.522 138.703V190.855C322.522 193.874 320.601 195.795 317.581 195.795H193.24Z" fill="#000000"/>
<path d="M337.974 195.795V195.183C341.646 190.492 343.991 185.292 345.011 179.581C346.031 173.87 346.642 167.14 346.846 159.39C347.05 149.192 347.152 139.198 347.152 129.408C347.356 119.415 347.458 109.421 347.458 99.4273C347.458 89.2296 347.356 79.2359 347.152 69.4461C347.152 59.4524 347.05 49.4587 346.846 39.465C346.846 32.5306 346.54 27.0238 345.929 22.9448C345.317 18.8657 344.399 15.3985 343.175 12.5431C341.952 9.68779 340.218 6.73046 337.974 3.67117V3.0593H446.886C462.998 3.0593 475.439 6.01662 484.209 11.9313C493.183 17.642 497.67 27.8396 497.67 42.5243C497.67 48.4389 496.854 53.7417 495.222 58.4326C493.591 62.9196 490.226 67.1007 485.127 70.9758C480.232 74.6469 472.482 78.3181 461.876 81.9893C475.337 93.6146 486.452 104.934 495.222 115.947C503.992 126.961 508.377 139.198 508.377 152.659C508.377 166.324 504.706 176.93 497.364 184.476C490.226 192.022 478.09 195.795 460.958 195.795H337.974ZM427.306 92.6968L424.553 93.6146C408.236 98.7134 400.078 107.279 400.078 119.313C400.078 119.925 400.078 120.332 400.078 120.536C401.098 113.602 403.749 108.809 408.032 106.158C412.315 103.302 416.496 101.875 420.576 101.875C425.878 101.875 430.263 103.506 433.731 106.77C437.402 110.033 439.237 114.52 439.237 120.23C439.237 125.329 437.606 129.816 434.342 133.691C431.079 137.567 426.49 139.504 420.576 139.504C415.273 139.504 410.174 137.567 405.279 133.691C400.588 129.612 398.243 123.086 398.243 114.112C398.243 107.585 400.282 101.671 404.361 96.368C408.644 91.0652 415.375 86.7822 424.553 83.5189C436.586 79.2359 444.744 75.1568 449.027 71.2817C453.31 67.2026 455.452 62.6137 455.452 57.5148C455.452 52.416 454.126 48.7449 451.474 46.5014C448.823 44.0539 444.234 42.8302 437.708 42.8302H390.9C390.696 52.2121 390.492 61.5939 390.288 70.9758C390.288 80.3576 390.288 89.8414 390.288 99.4273C390.288 108.809 390.288 118.191 390.288 127.573C390.492 136.955 390.696 146.439 390.9 156.024H435.872C446.07 156.024 452.8 154.087 456.063 150.212C459.327 146.337 460.958 142.359 460.958 138.28C460.958 131.754 458.205 125.329 452.698 119.007C447.191 112.48 438.727 103.71 427.306 92.6968Z" fill="white"/>
<path d="M337.974 195.795V195.183C341.646 190.492 343.991 185.292 345.011 179.581C346.031 173.87 346.642 167.14 346.846 159.39C347.05 149.192 347.152 139.198 347.152 129.408C347.356 119.415 347.458 109.421 347.458 99.4273C347.458 89.2296 347.356 79.2359 347.152 69.4461C347.152 59.4524 347.05 49.4587 346.846 39.465C346.846 32.5306 346.54 27.0238 345.929 22.9448C345.317 18.8657 344.399 15.3985 343.175 12.5431C341.952 9.68779 340.218 6.73046 337.974 3.67117V3.0593H446.886C462.998 3.0593 475.439 6.01662 484.209 11.9313C493.183 17.642 497.67 27.8396 497.67 42.5243C497.67 48.4389 496.854 53.7417 495.222 58.4326C493.591 62.9196 490.226 67.1007 485.127 70.9758C480.232 74.6469 472.482 78.3181 461.876 81.9893C475.337 93.6146 486.452 104.934 495.222 115.947C503.992 126.961 508.377 139.198 508.377 152.659C508.377 166.324 504.706 176.93 497.364 184.476C490.226 192.022 478.09 195.795 460.958 195.795H337.974ZM427.306 92.6968L424.553 93.6146C408.236 98.7134 400.078 107.279 400.078 119.313C400.078 119.925 400.078 120.332 400.078 120.536C401.098 113.602 403.749 108.809 408.032 106.158C412.315 103.302 416.496 101.875 420.576 101.875C425.878 101.875 430.263 103.506 433.731 106.77C437.402 110.033 439.237 114.52 439.237 120.23C439.237 125.329 437.606 129.816 434.342 133.691C431.079 137.567 426.49 139.504 420.576 139.504C415.273 139.504 410.174 137.567 405.279 133.691C400.588 129.612 398.243 123.086 398.243 114.112C398.243 107.585 400.282 101.671 404.361 96.368C408.644 91.0652 415.375 86.7822 424.553 83.5189C436.586 79.2359 444.744 75.1568 449.027 71.2817C453.31 67.2026 455.452 62.6137 455.452 57.5148C455.452 52.416 454.126 48.7449 451.474 46.5014C448.823 44.0539 444.234 42.8302 437.708 42.8302H390.9C390.696 52.2121 390.492 61.5939 390.288 70.9758C390.288 80.3576 390.288 89.8414 390.288 99.4273C390.288 108.809 390.288 118.191 390.288 127.573C390.492 136.955 390.696 146.439 390.9 156.024H435.872C446.07 156.024 452.8 154.087 456.063 150.212C459.327 146.337 460.958 142.359 460.958 138.28C460.958 131.754 458.205 125.329 452.698 119.007C447.191 112.48 438.727 103.71 427.306 92.6968Z" fill="#000000"/>
<path d="M528.597 195.795C525.578 195.795 523.657 193.874 523.657 190.855V8.59771C523.657 5.5784 525.578 3.65701 528.597 3.65701H622.196C663.918 3.65701 689.994 31.1053 689.994 65.6902C689.994 87.6489 682.034 103.294 665.839 115.097L699.875 190.031C701.522 193.325 699.875 195.795 696.307 195.795H631.254C628.509 195.795 626.862 194.423 625.764 191.952L613.413 159.014L602.708 131.292H595.297C595.846 140.075 596.12 148.859 596.12 157.368V190.855C596.12 193.874 594.199 195.795 591.18 195.795H528.597ZM609.295 84.6295C616.432 84.6295 620.824 80.7868 620.824 72.5523C620.824 64.0433 616.432 60.7495 609.295 60.7495H593.924V84.6295H609.295Z" fill="white"/>
<path d="M528.597 195.795C525.578 195.795 523.657 193.874 523.657 190.855V8.59771C523.657 5.5784 525.578 3.65701 528.597 3.65701H622.196C663.918 3.65701 689.994 31.1053 689.994 65.6902C689.994 87.6489 682.034 103.294 665.839 115.097L699.875 190.031C701.522 193.325 699.875 195.795 696.307 195.795H631.254C628.509 195.795 626.862 194.423 625.764 191.952L613.413 159.014L602.708 131.292H595.297C595.846 140.075 596.12 148.859 596.12 157.368V190.855C596.12 193.874 594.199 195.795 591.18 195.795H528.597ZM609.295 84.6295C616.432 84.6295 620.824 80.7868 620.824 72.5523C620.824 64.0433 616.432 60.7495 609.295 60.7495H593.924V84.6295H609.295Z" fill="#000000"/>
<path d="M712.926 195.795C709.632 195.795 707.711 193.874 708.534 190.306L755.745 7.77425C756.569 4.75494 758.216 3.65701 761.235 3.65701H847.971C850.991 3.65701 852.638 4.75494 853.461 7.77425L900.398 190.306C901.221 193.874 899.3 195.795 896.006 195.795H829.307C826.287 195.795 824.64 194.148 824.091 191.403L818.327 164.504H790.33L784.566 191.403C784.017 194.148 782.37 195.795 779.351 195.795H712.926ZM794.996 119.214H813.661L807.073 81.8847L805.701 70.6309H802.956L801.584 81.8847L794.996 119.214Z" fill="white"/>
<path d="M712.926 195.795C709.632 195.795 707.711 193.874 708.534 190.306L755.745 7.77425C756.569 4.75494 758.216 3.65701 761.235 3.65701H847.971C850.991 3.65701 852.638 4.75494 853.461 7.77425L900.398 190.306C901.221 193.874 899.3 195.795 896.006 195.795H829.307C826.287 195.795 824.64 194.148 824.091 191.403L818.327 164.504H790.33L784.566 191.403C784.017 194.148 782.37 195.795 779.351 195.795H712.926ZM794.996 119.214H813.661L807.073 81.8847L805.701 70.6309H802.956L801.584 81.8847L794.996 119.214Z" fill="#000000"/>
<path d="M1121.89 146.54C1121.89 153.475 1120.77 160.205 1118.52 166.732C1116.48 173.054 1112.92 178.663 1107.82 183.558C1102.92 188.249 1096.29 192.022 1087.93 194.877C1079.77 197.733 1069.68 199.16 1057.64 199.16C1046.43 199.16 1036.54 198.345 1027.97 196.713C1019.4 195.081 1012.16 192.124 1006.25 187.841C1000.54 183.354 995.948 177.235 992.481 169.485C989.218 161.531 987.077 151.537 986.057 139.504H972.596V195.795H915.387V124.208H991.869C993.909 130.122 997.172 134.507 1001.66 137.363C1006.35 140.014 1012.67 141.34 1020.63 141.34C1028.99 141.34 1035.21 140.014 1039.29 137.363C1043.57 134.711 1045.71 130.326 1045.71 124.208C1045.71 119.109 1043.98 115.234 1040.51 112.582C1037.05 109.931 1030.01 108.605 1019.4 108.605C1012.26 108.605 1004.82 108.707 997.07 108.911C989.32 109.115 981.366 109.217 973.208 109.217C962.194 109.217 953.016 107.789 945.674 104.934C938.332 101.875 932.417 97.8976 927.93 93.0027C923.647 88.1078 920.588 82.2952 918.752 75.5647C917.12 68.8343 916.305 61.7979 916.305 54.4555C916.305 46.9093 917.426 39.8729 919.67 33.3464C921.913 26.6159 925.483 20.8033 930.378 15.9084C935.272 11.0135 941.595 7.13837 949.345 4.28302C957.299 1.42767 966.681 0 977.491 0C987.484 0 996.254 1.01977 1003.8 3.0593C1011.55 4.89488 1018.08 8.26011 1023.38 13.155C1028.89 17.8459 1033.37 24.2705 1036.84 32.4286C1040.31 40.5867 1042.76 50.7844 1044.18 63.0216H1057.03V3.0593H1115.16V78.3181H1038.68C1036.43 69.956 1032.97 64.6532 1028.28 62.4097C1023.58 59.9623 1016.96 58.7386 1008.39 58.7386C999.416 58.7386 993.399 60.3702 990.34 63.6334C987.28 66.6927 985.751 70.6698 985.751 75.5647C985.751 80.2556 987.892 83.9268 992.175 86.5782C996.458 89.2296 1004.21 90.5553 1015.43 90.5553C1016.45 90.5553 1018.69 90.5553 1022.16 90.5553C1025.83 90.3513 1029.91 90.2494 1034.39 90.2494C1039.08 90.0454 1043.88 89.9434 1048.77 89.9434C1053.67 89.7395 1057.85 89.6375 1061.32 89.6375C1073.96 89.6375 1084.26 91.0652 1092.21 93.9205C1100.17 96.5719 1106.29 100.447 1110.57 105.546C1115.06 110.441 1118.01 116.457 1119.44 123.596C1121.07 130.53 1121.89 138.178 1121.89 146.54Z" fill="white"/>
<path d="M1121.89 146.54C1121.89 153.475 1120.77 160.205 1118.52 166.732C1116.48 173.054 1112.92 178.663 1107.82 183.558C1102.92 188.249 1096.29 192.022 1087.93 194.877C1079.77 197.733 1069.68 199.16 1057.64 199.16C1046.43 199.16 1036.54 198.345 1027.97 196.713C1019.4 195.081 1012.16 192.124 1006.25 187.841C1000.54 183.354 995.948 177.235 992.481 169.485C989.218 161.531 987.077 151.537 986.057 139.504H972.596V195.795H915.387V124.208H991.869C993.909 130.122 997.172 134.507 1001.66 137.363C1006.35 140.014 1012.67 141.34 1020.63 141.34C1028.99 141.34 1035.21 140.014 1039.29 137.363C1043.57 134.711 1045.71 130.326 1045.71 124.208C1045.71 119.109 1043.98 115.234 1040.51 112.582C1037.05 109.931 1030.01 108.605 1019.4 108.605C1012.26 108.605 1004.82 108.707 997.07 108.911C989.32 109.115 981.366 109.217 973.208 109.217C962.194 109.217 953.016 107.789 945.674 104.934C938.332 101.875 932.417 97.8976 927.93 93.0027C923.647 88.1078 920.588 82.2952 918.752 75.5647C917.12 68.8343 916.305 61.7979 916.305 54.4555C916.305 46.9093 917.426 39.8729 919.67 33.3464C921.913 26.6159 925.483 20.8033 930.378 15.9084C935.272 11.0135 941.595 7.13837 949.345 4.28302C957.299 1.42767 966.681 0 977.491 0C987.484 0 996.254 1.01977 1003.8 3.0593C1011.55 4.89488 1018.08 8.26011 1023.38 13.155C1028.89 17.8459 1033.37 24.2705 1036.84 32.4286C1040.31 40.5867 1042.76 50.7844 1044.18 63.0216H1057.03V3.0593H1115.16V78.3181H1038.68C1036.43 69.956 1032.97 64.6532 1028.28 62.4097C1023.58 59.9623 1016.96 58.7386 1008.39 58.7386C999.416 58.7386 993.399 60.3702 990.34 63.6334C987.28 66.6927 985.751 70.6698 985.751 75.5647C985.751 80.2556 987.892 83.9268 992.175 86.5782C996.458 89.2296 1004.21 90.5553 1015.43 90.5553C1016.45 90.5553 1018.69 90.5553 1022.16 90.5553C1025.83 90.3513 1029.91 90.2494 1034.39 90.2494C1039.08 90.0454 1043.88 89.9434 1048.77 89.9434C1053.67 89.7395 1057.85 89.6375 1061.32 89.6375C1073.96 89.6375 1084.26 91.0652 1092.21 93.9205C1100.17 96.5719 1106.29 100.447 1110.57 105.546C1115.06 110.441 1118.01 116.457 1119.44 123.596C1121.07 130.53 1121.89 138.178 1121.89 146.54Z" fill="#000000"/>
<path d="M1148.01 195.795C1144.99 195.795 1143.07 193.874 1143.07 190.855V8.59771C1143.07 5.5784 1144.99 3.65701 1148.01 3.65701H1210.04C1213.06 3.65701 1214.98 5.5784 1214.98 8.59771V28.3605C1214.98 39.8888 1214.43 49.7702 1213.61 61.573L1215.8 61.8474C1218.82 52.7895 1225.41 36.595 1229.53 28.3605L1239.96 7.22529C1241.06 4.75494 1242.98 3.65701 1245.72 3.65701H1310.23C1314.07 3.65701 1315.44 5.85288 1313.52 9.42116L1277.29 76.395L1324.22 190.031C1325.6 193.325 1323.95 195.795 1320.38 195.795H1253.41C1250.66 195.795 1249.02 194.423 1247.92 191.952L1222.67 124.979L1215.25 135.683L1215.8 190.855C1215.8 193.874 1213.88 195.795 1210.86 195.795H1148.01Z" fill="white"/>
<path d="M1148.01 195.795C1144.99 195.795 1143.07 193.874 1143.07 190.855V8.59771C1143.07 5.5784 1144.99 3.65701 1148.01 3.65701H1210.04C1213.06 3.65701 1214.98 5.5784 1214.98 8.59771V28.3605C1214.98 39.8888 1214.43 49.7702 1213.61 61.573L1215.8 61.8474C1218.82 52.7895 1225.41 36.595 1229.53 28.3605L1239.96 7.22529C1241.06 4.75494 1242.98 3.65701 1245.72 3.65701H1310.23C1314.07 3.65701 1315.44 5.85288 1313.52 9.42116L1277.29 76.395L1324.22 190.031C1325.6 193.325 1323.95 195.795 1320.38 195.795H1253.41C1250.66 195.795 1249.02 194.423 1247.92 191.952L1222.67 124.979L1215.25 135.683L1215.8 190.855C1215.8 193.874 1213.88 195.795 1210.86 195.795H1148.01Z" fill="#000000"/>
<path d="M1335.01 195.795C1331.72 195.795 1329.8 193.874 1330.62 190.306L1377.83 7.77425C1378.66 4.75494 1380.3 3.65701 1383.32 3.65701H1470.06C1473.08 3.65701 1474.73 4.75494 1475.55 7.77425L1522.49 190.306C1523.31 193.874 1521.39 195.795 1518.09 195.795H1451.4C1448.38 195.795 1446.73 194.148 1446.18 191.403L1440.42 164.504H1412.42L1406.65 191.403C1406.11 194.148 1404.46 195.795 1401.44 195.795H1335.01ZM1417.09 119.214H1435.75L1429.16 81.8847L1427.79 70.6309H1425.05L1423.67 81.8847L1417.09 119.214Z" fill="white"/>
<path d="M1335.01 195.795C1331.72 195.795 1329.8 193.874 1330.62 190.306L1377.83 7.77425C1378.66 4.75494 1380.3 3.65701 1383.32 3.65701H1470.06C1473.08 3.65701 1474.73 4.75494 1475.55 7.77425L1522.49 190.306C1523.31 193.874 1521.39 195.795 1518.09 195.795H1451.4C1448.38 195.795 1446.73 194.148 1446.18 191.403L1440.42 164.504H1412.42L1406.65 191.403C1406.11 194.148 1404.46 195.795 1401.44 195.795H1335.01ZM1417.09 119.214H1435.75L1429.16 81.8847L1427.79 70.6309H1425.05L1423.67 81.8847L1417.09 119.214Z" fill="#000000"/>
</svg>
