<svg width="1242" height="202" viewBox="0 0 1242 202" fill="none" xmlns="http://www.w3.org/2000/svg">
<path d="M104.029 201.745C43.3683 201.745 0 155.632 0 100.735C0 45.8387 43.3683 0 104.029 0C164.415 0 208.058 45.8387 208.058 100.735C208.058 155.632 164.415 201.745 104.029 201.745ZM104.029 127.086C119.949 127.086 131.752 115.008 131.752 100.735C131.752 86.4622 119.949 74.3849 104.029 74.3849C88.1091 74.3849 76.3063 86.4622 76.3063 100.735C76.3063 115.008 88.1091 127.086 104.029 127.086Z" fill="white"/>
<path d="M104.029 201.745C43.3683 201.745 0 155.632 0 100.735C0 45.8387 43.3683 0 104.029 0C164.415 0 208.058 45.8387 208.058 100.735C208.058 155.632 164.415 201.745 104.029 201.745ZM104.029 127.086C119.949 127.086 131.752 115.008 131.752 100.735C131.752 86.4622 119.949 74.3849 104.029 74.3849C88.1091 74.3849 76.3063 86.4622 76.3063 100.735C76.3063 115.008 88.1091 127.086 104.029 127.086Z" fill="#000000"/>
<path d="M233.583 197.079C230.564 197.079 228.642 195.158 228.642 192.138V9.8814C228.642 6.86209 230.564 4.9407 233.583 4.9407H327.182C368.903 4.9407 394.979 32.389 394.979 66.9739C394.979 88.9325 387.019 104.578 370.825 116.381L404.86 191.315C406.507 194.609 404.86 197.079 401.292 197.079H336.24C333.495 197.079 331.848 195.706 330.75 193.236L318.398 160.298L307.693 132.575H300.282C300.831 141.359 301.106 150.142 301.106 158.651V192.138C301.106 195.158 299.184 197.079 296.165 197.079H233.583ZM314.281 85.9132C321.418 85.9132 325.809 82.0705 325.809 73.836C325.809 65.327 321.418 62.0332 314.281 62.0332H298.91V85.9132H314.281Z" fill="white"/>
<path d="M233.583 197.079C230.564 197.079 228.642 195.158 228.642 192.138V9.8814C228.642 6.86209 230.564 4.9407 233.583 4.9407H327.182C368.903 4.9407 394.979 32.389 394.979 66.9739C394.979 88.9325 387.019 104.578 370.825 116.381L404.86 191.315C406.507 194.609 404.86 197.079 401.292 197.079H336.24C333.495 197.079 331.848 195.706 330.75 193.236L318.398 160.298L307.693 132.575H300.282C300.831 141.359 301.106 150.142 301.106 158.651V192.138C301.106 195.158 299.184 197.079 296.165 197.079H233.583ZM314.281 85.9132C321.418 85.9132 325.809 82.0705 325.809 73.836C325.809 65.327 321.418 62.0332 314.281 62.0332H298.91V85.9132H314.281Z" fill="#000000"/>
<path d="M412.895 197.079V196.467C414.935 193.612 416.567 190.858 417.79 188.207C419.014 185.352 419.932 181.884 420.544 177.805C421.36 173.522 421.767 167.812 421.767 160.673C422.175 153.127 422.379 144.357 422.379 134.363C422.379 124.37 422.379 114.07 422.379 103.464C422.379 92.6548 422.379 81.8453 422.379 71.0357C422.379 60.2262 422.175 50.2325 421.767 41.0546C421.564 30.2451 420.646 22.1889 419.014 16.8861C417.586 11.5833 415.547 7.60625 412.895 4.95486V4.34299H562.189C561.985 9.44183 561.883 14.5407 561.883 19.6395C561.883 24.5344 561.883 29.7352 561.883 35.2419C561.883 46.0514 562.189 58.3906 562.801 72.2595H562.189C559.334 64.3053 556.377 58.3906 553.317 54.5155C550.462 50.4364 546.281 47.7851 540.774 46.5613C535.268 45.3376 527.007 44.7258 515.994 44.7258C506.204 44.7258 497.23 44.8277 489.072 45.0317C481.118 45.2356 473.164 45.5416 465.21 45.9495C465.006 56.3511 464.802 68.8942 464.598 83.5789C464.598 98.2635 464.292 113.152 463.68 128.245H464.292C465.719 105.402 470.308 88.8817 478.059 78.684C485.809 68.2824 497.128 63.0816 512.017 63.0816C525.682 63.0816 535.268 66.4468 540.774 73.1772C546.485 79.7037 549.34 88.6777 549.34 100.099C549.34 113.152 545.771 124.166 538.633 133.14C531.494 141.91 521.807 146.295 509.569 146.295C501.819 146.295 495.803 144.459 491.52 140.788C487.236 137.117 485.095 131.814 485.095 124.879C485.095 119.781 486.727 115.294 489.99 111.419C493.253 107.543 498.148 105.606 504.674 105.606C509.977 105.606 514.464 107.339 518.135 110.807C521.807 114.274 523.642 119.067 523.642 125.185C523.642 128.245 522.622 132.018 520.583 136.505C518.543 140.992 514.566 143.847 508.652 145.071C517.829 144.051 524.458 141.094 528.537 136.199C532.82 131.1 534.962 126.103 534.962 121.208C534.962 112.438 532.106 106.014 526.396 101.935C520.889 97.8556 513.241 95.8161 503.451 95.8161C493.253 95.8161 484.585 98.4675 477.447 103.77C470.512 109.073 466.637 117.741 465.821 129.774C465.617 131.814 465.515 133.955 465.515 136.199C465.515 138.238 465.515 140.38 465.515 142.623C465.515 146.498 465.617 150.781 465.821 155.472C473.776 156.084 481.832 156.492 489.99 156.696C498.148 156.696 507.122 156.696 516.912 156.696C525.478 156.696 532.31 156.39 537.409 155.778C542.508 155.166 546.485 153.943 549.34 152.107C552.4 150.068 554.949 147.314 556.989 143.847C559.028 140.176 561.068 135.281 563.107 129.162H563.719C563.515 135.689 563.311 142.113 563.107 148.436C563.107 154.759 563.107 161.081 563.107 167.404C563.107 173.114 563.107 178.417 563.107 183.312C563.107 188.003 563.209 192.592 563.413 197.079H412.895Z" fill="white"/>
<path d="M412.895 197.079V196.467C414.935 193.612 416.567 190.858 417.79 188.207C419.014 185.352 419.932 181.884 420.544 177.805C421.36 173.522 421.767 167.812 421.767 160.673C422.175 153.127 422.379 144.357 422.379 134.363C422.379 124.37 422.379 114.07 422.379 103.464C422.379 92.6548 422.379 81.8453 422.379 71.0357C422.379 60.2262 422.175 50.2325 421.767 41.0546C421.564 30.2451 420.646 22.1889 419.014 16.8861C417.586 11.5833 415.547 7.60625 412.895 4.95486V4.34299H562.189C561.985 9.44183 561.883 14.5407 561.883 19.6395C561.883 24.5344 561.883 29.7352 561.883 35.2419C561.883 46.0514 562.189 58.3906 562.801 72.2595H562.189C559.334 64.3053 556.377 58.3906 553.317 54.5155C550.462 50.4364 546.281 47.7851 540.774 46.5613C535.268 45.3376 527.007 44.7258 515.994 44.7258C506.204 44.7258 497.23 44.8277 489.072 45.0317C481.118 45.2356 473.164 45.5416 465.21 45.9495C465.006 56.3511 464.802 68.8942 464.598 83.5789C464.598 98.2635 464.292 113.152 463.68 128.245H464.292C465.719 105.402 470.308 88.8817 478.059 78.684C485.809 68.2824 497.128 63.0816 512.017 63.0816C525.682 63.0816 535.268 66.4468 540.774 73.1772C546.485 79.7037 549.34 88.6777 549.34 100.099C549.34 113.152 545.771 124.166 538.633 133.14C531.494 141.91 521.807 146.295 509.569 146.295C501.819 146.295 495.803 144.459 491.52 140.788C487.236 137.117 485.095 131.814 485.095 124.879C485.095 119.781 486.727 115.294 489.99 111.419C493.253 107.543 498.148 105.606 504.674 105.606C509.977 105.606 514.464 107.339 518.135 110.807C521.807 114.274 523.642 119.067 523.642 125.185C523.642 128.245 522.622 132.018 520.583 136.505C518.543 140.992 514.566 143.847 508.652 145.071C517.829 144.051 524.458 141.094 528.537 136.199C532.82 131.1 534.962 126.103 534.962 121.208C534.962 112.438 532.106 106.014 526.396 101.935C520.889 97.8556 513.241 95.8161 503.451 95.8161C493.253 95.8161 484.585 98.4675 477.447 103.77C470.512 109.073 466.637 117.741 465.821 129.774C465.617 131.814 465.515 133.955 465.515 136.199C465.515 138.238 465.515 140.38 465.515 142.623C465.515 146.498 465.617 150.781 465.821 155.472C473.776 156.084 481.832 156.492 489.99 156.696C498.148 156.696 507.122 156.696 516.912 156.696C525.478 156.696 532.31 156.39 537.409 155.778C542.508 155.166 546.485 153.943 549.34 152.107C552.4 150.068 554.949 147.314 556.989 143.847C559.028 140.176 561.068 135.281 563.107 129.162H563.719C563.515 135.689 563.311 142.113 563.107 148.436C563.107 154.759 563.107 161.081 563.107 167.404C563.107 173.114 563.107 178.417 563.107 183.312C563.107 188.003 563.209 192.592 563.413 197.079H412.895Z" fill="#000000"/>
<path d="M671.644 199.549C626.08 200.373 579.967 166.611 579.967 102.657C579.967 42.5449 620.59 0 680.153 0C724.345 0 764.969 25.5269 773.478 77.1298C774.027 80.4236 772.38 82.3449 769.086 82.3449H705.406C703.21 82.3449 701.838 81.5215 700.191 79.3256C696.348 74.6594 690.035 72.4636 683.173 72.4636C668.899 72.4636 655.724 82.8939 655.724 104.029C655.724 124.89 668.076 136.144 685.917 136.144C696.348 136.144 705.406 132.85 708.974 126.811V125.988L686.466 126.262C683.447 126.262 681.526 124.341 681.526 121.322V96.8926C681.526 93.8732 683.447 91.9519 686.466 91.9519H769.36C772.38 91.9519 774.301 93.8732 774.301 96.8926V192.138C774.301 195.158 772.38 197.079 769.36 197.079H729.835C727.09 197.079 725.169 195.981 724.071 193.511L720.228 185.825H719.13C706.778 197.353 688.662 199.549 671.644 199.549Z" fill="white"/>
<path d="M671.644 199.549C626.08 200.373 579.967 166.611 579.967 102.657C579.967 42.5449 620.59 0 680.153 0C724.345 0 764.969 25.5269 773.478 77.1298C774.027 80.4236 772.38 82.3449 769.086 82.3449H705.406C703.21 82.3449 701.838 81.5215 700.191 79.3256C696.348 74.6594 690.035 72.4636 683.173 72.4636C668.899 72.4636 655.724 82.8939 655.724 104.029C655.724 124.89 668.076 136.144 685.917 136.144C696.348 136.144 705.406 132.85 708.974 126.811V125.988L686.466 126.262C683.447 126.262 681.526 124.341 681.526 121.322V96.8926C681.526 93.8732 683.447 91.9519 686.466 91.9519H769.36C772.38 91.9519 774.301 93.8732 774.301 96.8926V192.138C774.301 195.158 772.38 197.079 769.36 197.079H729.835C727.09 197.079 725.169 195.981 724.071 193.511L720.228 185.825H719.13C706.778 197.353 688.662 199.549 671.644 199.549Z" fill="#000000"/>
<path d="M896.152 201.745C835.492 201.745 792.123 155.632 792.123 100.735C792.123 45.8387 835.492 0 896.152 0C956.539 0 1000.18 45.8387 1000.18 100.735C1000.18 155.632 956.539 201.745 896.152 201.745ZM896.152 127.086C912.072 127.086 923.875 115.008 923.875 100.735C923.875 86.4622 912.072 74.3849 896.152 74.3849C880.232 74.3849 868.43 86.4622 868.43 100.735C868.43 115.008 880.232 127.086 896.152 127.086Z" fill="white"/>
<path d="M896.152 201.745C835.492 201.745 792.123 155.632 792.123 100.735C792.123 45.8387 835.492 0 896.152 0C956.539 0 1000.18 45.8387 1000.18 100.735C1000.18 155.632 956.539 201.745 896.152 201.745ZM896.152 127.086C912.072 127.086 923.875 115.008 923.875 100.735C923.875 86.4622 912.072 74.3849 896.152 74.3849C880.232 74.3849 868.43 86.4622 868.43 100.735C868.43 115.008 880.232 127.086 896.152 127.086Z" fill="#000000"/>
<path d="M1098.36 138.34V197.079H1021.26V138.34C1028.2 137.525 1033.2 133.242 1036.25 125.491C1039.31 117.741 1040.84 107.237 1040.84 93.9805V80.5196C1040.84 72.1575 1040.03 67.1606 1038.4 65.529C1036.97 63.6934 1031.26 62.7756 1021.26 62.7756V4.34299H1138.13V49.9266C1138.13 59.5124 1139.15 67.3646 1141.19 73.4832C1143.23 79.6018 1149.24 87.0461 1159.24 95.8161L1202.99 133.445V131.304C1202.99 123.35 1202.37 115.6 1201.15 108.053C1200.13 100.303 1198.19 93.3686 1195.34 87.25C1192.48 80.9275 1188.51 75.6247 1183.41 71.3417C1178.31 66.8547 1171.88 63.9993 1164.13 62.7756V4.34299H1241.23V62.4697C1234.29 64.3053 1229.19 67.9764 1225.93 73.4832C1222.87 78.9899 1221.34 88.8817 1221.34 103.158V197.079H1124.06V144.153C1124.06 134.567 1122.22 127.021 1118.55 121.514C1115.08 116.007 1109.27 109.787 1101.11 102.852L1059.2 67.0586C1059.2 74.197 1059.61 81.4374 1060.42 88.7797C1061.24 95.918 1062.97 102.75 1065.62 109.277C1068.48 115.6 1072.46 121.31 1077.56 126.409C1082.65 131.508 1089.59 135.485 1098.36 138.34Z" fill="white"/>
<path d="M1098.36 138.34V197.079H1021.26V138.34C1028.2 137.525 1033.2 133.242 1036.25 125.491C1039.31 117.741 1040.84 107.237 1040.84 93.9805V80.5196C1040.84 72.1575 1040.03 67.1606 1038.4 65.529C1036.97 63.6934 1031.26 62.7756 1021.26 62.7756V4.34299H1138.13V49.9266C1138.13 59.5124 1139.15 67.3646 1141.19 73.4832C1143.23 79.6018 1149.24 87.0461 1159.24 95.8161L1202.99 133.445V131.304C1202.99 123.35 1202.37 115.6 1201.15 108.053C1200.13 100.303 1198.19 93.3686 1195.34 87.25C1192.48 80.9275 1188.51 75.6247 1183.41 71.3417C1178.31 66.8547 1171.88 63.9993 1164.13 62.7756V4.34299H1241.23V62.4697C1234.29 64.3053 1229.19 67.9764 1225.93 73.4832C1222.87 78.9899 1221.34 88.8817 1221.34 103.158V197.079H1124.06V144.153C1124.06 134.567 1122.22 127.021 1118.55 121.514C1115.08 116.007 1109.27 109.787 1101.11 102.852L1059.2 67.0586C1059.2 74.197 1059.61 81.4374 1060.42 88.7797C1061.24 95.918 1062.97 102.75 1065.62 109.277C1068.48 115.6 1072.46 121.31 1077.56 126.409C1082.65 131.508 1089.59 135.485 1098.36 138.34Z" fill="#000000"/>
</svg>
