<svg width="2135" height="237" viewBox="0 0 2135 237" fill="none" xmlns="http://www.w3.org/2000/svg">
<path d="M4.9407 220.875C1.92138 220.875 0 218.954 0 215.934V33.6775C0 30.6582 1.92138 28.7368 4.9407 28.7368H98.265C141.084 28.7368 169.356 57.832 169.356 97.6321C169.356 137.158 143.829 166.802 101.01 166.802H72.4635V215.934C72.4635 218.954 70.5422 220.875 67.5229 220.875H4.9407ZM90.8539 114.376C98.5394 114.376 102.931 109.435 102.931 102.298C102.931 95.1617 98.5394 90.221 90.8539 90.221H72.1891V114.376H90.8539Z" fill="white"/>
<path d="M4.9407 220.875C1.92138 220.875 0 218.954 0 215.934V33.6775C0 30.6582 1.92138 28.7368 4.9407 28.7368H98.265C141.084 28.7368 169.356 57.832 169.356 97.6321C169.356 137.158 143.829 166.802 101.01 166.802H72.4635V215.934C72.4635 218.954 70.5422 220.875 67.5229 220.875H4.9407ZM90.8539 114.376C98.5394 114.376 102.931 109.435 102.931 102.298C102.931 95.1617 98.5394 90.221 90.8539 90.221H72.1891V114.376H90.8539Z" fill="#000000"/>
<path d="M190.56 220.875C187.541 220.875 185.619 218.954 185.619 215.934V33.6775C185.619 30.6582 187.541 28.7368 190.56 28.7368H313.803C316.822 28.7368 318.744 30.6582 318.744 33.6775V86.9272C318.744 89.9466 316.822 91.8679 313.803 91.8679H257.259V103.396H294.589C297.608 103.396 299.53 105.318 299.53 108.337V141.549C299.53 144.569 297.608 146.49 294.589 146.49H257.259V158.842H314.901C317.92 158.842 319.841 160.763 319.841 163.783V215.934C319.841 218.954 317.92 220.875 314.901 220.875H190.56Z" fill="white"/>
<path d="M190.56 220.875C187.541 220.875 185.619 218.954 185.619 215.934V33.6775C185.619 30.6582 187.541 28.7368 190.56 28.7368H313.803C316.822 28.7368 318.744 30.6582 318.744 33.6775V86.9272C318.744 89.9466 316.822 91.8679 313.803 91.8679H257.259V103.396H294.589C297.608 103.396 299.53 105.318 299.53 108.337V141.549C299.53 144.569 297.608 146.49 294.589 146.49H257.259V158.842H314.901C317.92 158.842 319.841 160.763 319.841 163.783V215.934C319.841 218.954 317.92 220.875 314.901 220.875H190.56Z" fill="#000000"/>
<path d="M345.621 220.875C342.602 220.875 340.681 218.954 340.681 215.934V33.6775C340.681 30.6582 342.602 28.7368 345.621 28.7368H411.223C413.968 28.7368 416.164 30.3837 416.713 33.1285L431.535 99.5535C433.73 109.435 434.828 119.591 437.024 129.472L438.946 129.198C438.122 119.865 436.201 99.0045 436.201 92.1424L435.652 33.6775C435.652 30.6582 437.573 28.7368 440.593 28.7368H500.43C503.449 28.7368 505.371 30.6582 505.371 33.6775V215.934C505.371 218.954 503.449 220.875 500.43 220.875H441.691C438.946 220.875 437.024 219.777 436.201 216.758L417.536 150.058C414.791 140.177 412.87 130.021 410.674 120.14L408.753 120.414C409.85 129.747 411.772 150.607 411.772 157.469L412.321 215.934C412.321 218.954 410.399 220.875 407.38 220.875H345.621Z" fill="white"/>
<path d="M345.621 220.875C342.602 220.875 340.681 218.954 340.681 215.934V33.6775C340.681 30.6582 342.602 28.7368 345.621 28.7368H411.223C413.968 28.7368 416.164 30.3837 416.713 33.1285L431.535 99.5535C433.73 109.435 434.828 119.591 437.024 129.472L438.946 129.198C438.122 119.865 436.201 99.0045 436.201 92.1424L435.652 33.6775C435.652 30.6582 437.573 28.7368 440.593 28.7368H500.43C503.449 28.7368 505.371 30.6582 505.371 33.6775V215.934C505.371 218.954 503.449 220.875 500.43 220.875H441.691C438.946 220.875 437.024 219.777 436.201 216.758L417.536 150.058C414.791 140.177 412.87 130.021 410.674 120.14L408.753 120.414C409.85 129.747 411.772 150.607 411.772 157.469L412.321 215.934C412.321 218.954 410.399 220.875 407.38 220.875H345.621Z" fill="#000000"/>
<path d="M693.772 180.12C696.052 189.24 708.592 191.52 714.292 200.64C715.147 203.205 712.867 205.2 710.302 207.48C701.182 214.32 694.628 221.445 686.932 228.855C684.652 230.565 682.372 232.56 678.667 231.42C664.702 224.58 657.292 210.615 648.172 198.36C644.753 194.94 651.307 190.095 652.732 185.82C654.727 159.6 649.027 132.24 650.452 105.735C650.452 93.765 657.292 82.08 663.847 70.68C666.412 64.695 666.412 58.14 659.572 58.14C653.872 57.285 648.172 58.14 641.332 58.14C639.907 58.14 636.487 59.28 636.487 61.56C633.068 82.935 635.632 103.74 635.632 123.975C635.632 132.24 636.487 140.22 635.632 148.485C635.632 171 639.052 194.085 635.632 216.6C634.492 216.6 630.787 217.455 630.787 215.46C627.367 162.735 630.787 112.005 627.367 59.28C619.102 49.02 604.852 50.16 593.452 50.16C590.887 50.16 588.892 53.295 588.892 55.575C588.892 71.535 600.007 86.64 598.012 102.885C598.012 110.295 599.152 119.415 595.732 127.68C593.453 133.38 590.032 137.655 587.467 144.495C582.622 155.895 571.792 162.735 564.382 173.28C563.527 176.7 561.532 180.12 563.527 183.255C575.212 194.085 590.887 192.375 605.707 194.94C607.132 196.08 609.127 197.22 608.272 199.215C598.012 214.32 584.332 222.3 573.502 235.695C572.647 237.12 569.227 234.84 568.372 234.84C554.407 223.44 537.022 222.3 522.772 213.18C525.052 204.06 535.027 201.495 539.587 194.085C544.147 184.965 552.412 178.98 555.262 169.86C557.827 162.735 560.107 155.895 560.107 149.34C564.383 114.855 550.132 84.645 531.892 54.72C530.467 51.015 531.892 48.165 532.747 44.175C544.147 25.935 559.252 9.12 578.347 0C579.772 0 579.772 2.565 579.772 3.42001C566.947 14.535 577.492 28.215 582.622 39.9C584.333 41.895 587.467 43.32 590.032 41.895C607.132 32.775 619.102 15.96 637.342 9.97501C652.732 18.24 667.267 23.655 684.652 25.935C690.352 27.36 696.052 28.215 701.182 25.935C705.172 25.08 710.302 25.935 710.302 29.925C712.013 39.9 700.612 44.175 696.907 54.72C691.492 73.815 691.492 93.765 689.212 114C687.787 123.975 692.062 134.52 689.212 145.92C686.932 157.605 690.352 168.72 693.772 180.12Z" fill="white"/>
<path d="M693.772 180.12C696.052 189.24 708.592 191.52 714.292 200.64C715.147 203.205 712.867 205.2 710.302 207.48C701.182 214.32 694.628 221.445 686.932 228.855C684.652 230.565 682.372 232.56 678.667 231.42C664.702 224.58 657.292 210.615 648.172 198.36C644.753 194.94 651.307 190.095 652.732 185.82C654.727 159.6 649.027 132.24 650.452 105.735C650.452 93.765 657.292 82.08 663.847 70.68C666.412 64.695 666.412 58.14 659.572 58.14C653.872 57.285 648.172 58.14 641.332 58.14C639.907 58.14 636.487 59.28 636.487 61.56C633.068 82.935 635.632 103.74 635.632 123.975C635.632 132.24 636.487 140.22 635.632 148.485C635.632 171 639.052 194.085 635.632 216.6C634.492 216.6 630.787 217.455 630.787 215.46C627.367 162.735 630.787 112.005 627.367 59.28C619.102 49.02 604.852 50.16 593.452 50.16C590.887 50.16 588.892 53.295 588.892 55.575C588.892 71.535 600.007 86.64 598.012 102.885C598.012 110.295 599.152 119.415 595.732 127.68C593.453 133.38 590.032 137.655 587.467 144.495C582.622 155.895 571.792 162.735 564.382 173.28C563.527 176.7 561.532 180.12 563.527 183.255C575.212 194.085 590.887 192.375 605.707 194.94C607.132 196.08 609.127 197.22 608.272 199.215C598.012 214.32 584.332 222.3 573.502 235.695C572.647 237.12 569.227 234.84 568.372 234.84C554.407 223.44 537.022 222.3 522.772 213.18C525.052 204.06 535.027 201.495 539.587 194.085C544.147 184.965 552.412 178.98 555.262 169.86C557.827 162.735 560.107 155.895 560.107 149.34C564.383 114.855 550.132 84.645 531.892 54.72C530.467 51.015 531.892 48.165 532.747 44.175C544.147 25.935 559.252 9.12 578.347 0C579.772 0 579.772 2.565 579.772 3.42001C566.947 14.535 577.492 28.215 582.622 39.9C584.333 41.895 587.467 43.32 590.032 41.895C607.132 32.775 619.102 15.96 637.342 9.97501C652.732 18.24 667.267 23.655 684.652 25.935C690.352 27.36 696.052 28.215 701.182 25.935C705.172 25.08 710.302 25.935 710.302 29.925C712.013 39.9 700.612 44.175 696.907 54.72C691.492 73.815 691.492 93.765 689.212 114C687.787 123.975 692.062 134.52 689.212 145.92C686.932 157.605 690.352 168.72 693.772 180.12Z" fill="#000000"/>
<path d="M802.62 224.718C765.839 224.718 724.941 207.7 721.922 155.274C721.647 151.98 723.569 150.058 726.588 150.058H785.876C789.444 150.058 791.64 152.254 791.64 155.274C791.915 162.136 794.66 167.351 802.894 167.351C808.384 167.351 811.403 163.508 811.678 159.116C811.403 147.588 797.679 147.039 775.995 143.196C746.625 137.981 722.471 122.061 722.745 85.8293C722.471 46.5782 755.958 22.6982 798.777 22.6982C828.696 22.6982 872.613 36.4223 874.809 86.9272C874.809 90.221 872.887 92.1424 869.868 92.1424H814.697C811.403 92.1424 809.756 90.221 809.482 87.2017C809.207 82.261 807.835 76.4969 799.875 76.4969C795.483 76.4969 792.464 79.2417 792.464 83.6334C792.464 93.7893 806.188 93.7893 827.598 99.0045C857.242 106.141 881.122 122.61 881.396 159.116C881.671 204.132 844.341 224.718 802.62 224.718Z" fill="white"/>
<path d="M802.62 224.718C765.839 224.718 724.941 207.7 721.922 155.274C721.647 151.98 723.569 150.058 726.588 150.058H785.876C789.444 150.058 791.64 152.254 791.64 155.274C791.915 162.136 794.66 167.351 802.894 167.351C808.384 167.351 811.403 163.508 811.678 159.116C811.403 147.588 797.679 147.039 775.995 143.196C746.625 137.981 722.471 122.061 722.745 85.8293C722.471 46.5782 755.958 22.6982 798.777 22.6982C828.696 22.6982 872.613 36.4223 874.809 86.9272C874.809 90.221 872.887 92.1424 869.868 92.1424H814.697C811.403 92.1424 809.756 90.221 809.482 87.2017C809.207 82.261 807.835 76.4969 799.875 76.4969C795.483 76.4969 792.464 79.2417 792.464 83.6334C792.464 93.7893 806.188 93.7893 827.598 99.0045C857.242 106.141 881.122 122.61 881.396 159.116C881.671 204.132 844.341 224.718 802.62 224.718Z" fill="#000000"/>
<path d="M937.599 220.875C934.58 220.875 932.658 218.954 932.658 215.934V159.391L875.566 34.501C873.919 31.2072 875.566 28.7368 879.134 28.7368H947.206C949.951 28.7368 952.147 29.8347 952.97 32.8541L960.656 58.93C963.949 70.1838 966.694 83.359 968.616 95.4362H970.811C972.733 83.359 975.752 70.1838 979.32 58.93L987.829 32.8541C988.653 30.1092 990.849 28.7368 993.594 28.7368H1058.65C1062.21 28.7368 1063.86 31.2072 1062.21 34.501L1005.12 160.763V215.934C1005.12 218.954 1003.2 220.875 1000.18 220.875H937.599Z" fill="white"/>
<path d="M937.599 220.875C934.58 220.875 932.658 218.954 932.658 215.934V159.391L875.566 34.501C873.919 31.2072 875.566 28.7368 879.134 28.7368H947.206C949.951 28.7368 952.147 29.8347 952.97 32.8541L960.656 58.93C963.949 70.1838 966.694 83.359 968.616 95.4362H970.811C972.733 83.359 975.752 70.1838 979.32 58.93L987.829 32.8541C988.653 30.1092 990.849 28.7368 993.594 28.7368H1058.65C1062.21 28.7368 1063.86 31.2072 1062.21 34.501L1005.12 160.763V215.934C1005.12 218.954 1003.2 220.875 1000.18 220.875H937.599Z" fill="#000000"/>
<path d="M1072.6 220.875V220.263C1079.95 210.779 1081.17 200.072 1081.48 184.469C1081.78 164.278 1082.09 146.534 1082.09 126.649C1082.09 106.457 1081.78 84.4302 1081.48 64.5448C1081.17 43.7415 1079.33 37.9289 1072.6 28.751V28.1391H1170.2V28.751C1136.24 35.1755 1125.53 43.1297 1125.53 64.8507C1125.22 79.2294 1125.22 101.562 1125.22 125.731C1125.22 143.475 1125.22 162.442 1125.22 179.88C1136.85 180.492 1148.17 181.104 1156.12 181.104C1179.68 181.104 1187.33 166.114 1187.33 141.945C1187.33 121.142 1182.13 106.457 1166.52 103.092C1175.7 107.681 1180.6 115.941 1180.6 125.119C1180.6 135.826 1173.56 146.534 1159.79 146.534C1145.72 146.534 1135.63 138.58 1135.63 124.507C1135.63 110.128 1145.11 101.562 1160.71 101.562C1183.04 101.562 1194.06 121.142 1194.06 143.781C1194.06 175.903 1194.98 199.46 1198.04 220.875H1072.6Z" fill="white"/>
<path d="M1072.6 220.875V220.263C1079.95 210.779 1081.17 200.072 1081.48 184.469C1081.78 164.278 1082.09 146.534 1082.09 126.649C1082.09 106.457 1081.78 84.4302 1081.48 64.5448C1081.17 43.7415 1079.33 37.9289 1072.6 28.751V28.1391H1170.2V28.751C1136.24 35.1755 1125.53 43.1297 1125.53 64.8507C1125.22 79.2294 1125.22 101.562 1125.22 125.731C1125.22 143.475 1125.22 162.442 1125.22 179.88C1136.85 180.492 1148.17 181.104 1156.12 181.104C1179.68 181.104 1187.33 166.114 1187.33 141.945C1187.33 121.142 1182.13 106.457 1166.52 103.092C1175.7 107.681 1180.6 115.941 1180.6 125.119C1180.6 135.826 1173.56 146.534 1159.79 146.534C1145.72 146.534 1135.63 138.58 1135.63 124.507C1135.63 110.128 1145.11 101.562 1160.71 101.562C1183.04 101.562 1194.06 121.142 1194.06 143.781C1194.06 175.903 1194.98 199.46 1198.04 220.875H1072.6Z" fill="#000000"/>
<path d="M1248.92 220.875C1246.17 220.875 1243.98 219.777 1243.15 216.758L1188.26 34.2265C1187.16 30.6582 1188.8 28.7368 1192.37 28.7368H1262.64C1265.66 28.7368 1267.31 30.3837 1267.86 33.1285L1279.38 90.4955C1282.4 105.867 1283.5 125.08 1285.42 140.726H1287.62C1289.81 125.08 1291.19 105.867 1294.21 90.221L1305.46 33.1285C1306.01 30.3837 1307.66 28.7368 1310.67 28.7368H1377.65C1381.22 28.7368 1382.86 30.6582 1381.77 34.2265L1327.97 216.758C1327.14 219.777 1325.22 220.875 1322.48 220.875H1248.92Z" fill="white"/>
<path d="M1248.92 220.875C1246.17 220.875 1243.98 219.777 1243.15 216.758L1188.26 34.2265C1187.16 30.6582 1188.8 28.7368 1192.37 28.7368H1262.64C1265.66 28.7368 1267.31 30.3837 1267.86 33.1285L1279.38 90.4955C1282.4 105.867 1283.5 125.08 1285.42 140.726H1287.62C1289.81 125.08 1291.19 105.867 1294.21 90.221L1305.46 33.1285C1306.01 30.3837 1307.66 28.7368 1310.67 28.7368H1377.65C1381.22 28.7368 1382.86 30.6582 1381.77 34.2265L1327.97 216.758C1327.14 219.777 1325.22 220.875 1322.48 220.875H1248.92Z" fill="#000000"/>
<path d="M1362.43 220.875C1359.13 220.875 1357.21 218.954 1358.03 215.385L1405.24 32.8541C1406.07 29.8347 1407.72 28.7368 1410.73 28.7368H1497.47C1500.49 28.7368 1502.14 29.8347 1502.96 32.8541L1549.9 215.385C1550.72 218.954 1548.8 220.875 1545.51 220.875H1478.81C1475.79 220.875 1474.14 219.228 1473.59 216.483L1467.83 189.584H1439.83L1434.07 216.483C1433.52 219.228 1431.87 220.875 1428.85 220.875H1362.43ZM1444.5 144.294H1463.16L1456.57 106.965L1455.2 95.7107H1452.46L1451.08 106.965L1444.5 144.294Z" fill="white"/>
<path d="M1362.43 220.875C1359.13 220.875 1357.21 218.954 1358.03 215.385L1405.24 32.8541C1406.07 29.8347 1407.72 28.7368 1410.73 28.7368H1497.47C1500.49 28.7368 1502.14 29.8347 1502.96 32.8541L1549.9 215.385C1550.72 218.954 1548.8 220.875 1545.51 220.875H1478.81C1475.79 220.875 1474.14 219.228 1473.59 216.483L1467.83 189.584H1439.83L1434.07 216.483C1433.52 219.228 1431.87 220.875 1428.85 220.875H1362.43ZM1444.5 144.294H1463.16L1456.57 106.965L1455.2 95.7107H1452.46L1451.08 106.965L1444.5 144.294Z" fill="#000000"/>
<path d="M1645.04 162.136V220.875H1567.95V162.136C1582.02 160.301 1587.53 144.393 1587.53 117.777V104.316C1587.53 87.4895 1587.83 86.5717 1567.95 86.5717V28.1391H1684.81V73.7227C1684.81 92.9963 1685.73 102.174 1705.92 119.612L1749.67 157.242V155.1C1749.67 123.283 1742.02 91.7725 1710.82 86.5717V28.1391H1787.91V86.2658C1774.14 89.937 1768.02 98.1971 1768.02 126.954V220.875H1670.74V167.949C1670.74 148.676 1664.31 140.721 1647.79 126.649L1605.88 90.8548C1606.19 119.612 1610.16 150.511 1645.04 162.136Z" fill="white"/>
<path d="M1645.04 162.136V220.875H1567.95V162.136C1582.02 160.301 1587.53 144.393 1587.53 117.777V104.316C1587.53 87.4895 1587.83 86.5717 1567.95 86.5717V28.1391H1684.81V73.7227C1684.81 92.9963 1685.73 102.174 1705.92 119.612L1749.67 157.242V155.1C1749.67 123.283 1742.02 91.7725 1710.82 86.5717V28.1391H1787.91V86.2658C1774.14 89.937 1768.02 98.1971 1768.02 126.954V220.875H1670.74V167.949C1670.74 148.676 1664.31 140.721 1647.79 126.649L1605.88 90.8548C1606.19 119.612 1610.16 150.511 1645.04 162.136Z" fill="#000000"/>
<path d="M1836.31 144.087V104.622C1836.31 87.4895 1835.39 86.5717 1813.67 86.5717V28.1391H1923.5V86.5717C1901.47 86.5717 1900.86 87.4895 1900.86 104.622V144.087C1900.86 161.219 1901.47 162.136 1923.5 162.136V220.875H1813.67V162.136C1835.39 162.136 1836.31 161.219 1836.31 144.087Z" fill="white"/>
<path d="M1836.31 144.087V104.622C1836.31 87.4895 1835.39 86.5717 1813.67 86.5717V28.1391H1923.5V86.5717C1901.47 86.5717 1900.86 87.4895 1900.86 104.622V144.087C1900.86 161.219 1901.47 162.136 1923.5 162.136V220.875H1813.67V162.136C1835.39 162.136 1836.31 161.219 1836.31 144.087Z" fill="#000000"/>
<path d="M1946.66 220.875C1943.37 220.875 1941.44 218.954 1942.27 215.385L1989.48 32.8541C1990.3 29.8347 1991.95 28.7368 1994.97 28.7368H2081.71C2084.72 28.7368 2086.37 29.8347 2087.2 32.8541L2134.13 215.385C2134.96 218.954 2133.03 220.875 2129.74 220.875H2063.04C2060.02 220.875 2058.37 219.228 2057.83 216.483L2052.06 189.584H2024.06L2018.3 216.483C2017.75 219.228 2016.1 220.875 2013.08 220.875H1946.66ZM2028.73 144.294H2047.4L2040.81 106.965L2039.43 95.7107H2036.69L2035.32 106.965L2028.73 144.294Z" fill="white"/>
<path d="M1946.66 220.875C1943.37 220.875 1941.44 218.954 1942.27 215.385L1989.48 32.8541C1990.3 29.8347 1991.95 28.7368 1994.97 28.7368H2081.71C2084.72 28.7368 2086.37 29.8347 2087.2 32.8541L2134.13 215.385C2134.96 218.954 2133.03 220.875 2129.74 220.875H2063.04C2060.02 220.875 2058.37 219.228 2057.83 216.483L2052.06 189.584H2024.06L2018.3 216.483C2017.75 219.228 2016.1 220.875 2013.08 220.875H1946.66ZM2028.73 144.294H2047.4L2040.81 106.965L2039.43 95.7107H2036.69L2035.32 106.965L2028.73 144.294Z" fill="#000000"/>
</svg>
