<svg width="2151" height="203" viewBox="0 0 2151 203" fill="none" xmlns="http://www.w3.org/2000/svg">
<path d="M80.724 202.02C43.9433 202.02 3.04532 185.002 0.0260073 132.575C-0.248476 129.282 1.67291 127.36 4.69222 127.36H63.9806C67.5489 127.36 69.7447 129.556 69.7447 132.575C70.0192 139.437 72.764 144.653 80.9985 144.653C86.4882 144.653 89.5075 140.81 89.782 136.418C89.5075 124.89 75.7834 124.341 54.0992 120.498C24.7295 115.283 0.574974 99.3629 0.849457 63.1311C0.574974 23.88 34.0619 0 76.8813 0C106.8 0 150.717 13.7242 152.913 64.2291C152.913 67.5229 150.992 69.4442 147.972 69.4442H92.8013C89.5075 69.4442 87.8606 67.5229 87.5861 64.5035C87.3116 59.5629 85.9392 53.7987 77.9792 53.7987C73.5875 53.7987 70.5682 56.5435 70.5682 60.9353C70.5682 71.0911 84.2923 71.0911 105.702 76.3063C135.346 83.4429 159.226 99.9119 159.501 136.418C159.775 181.433 122.445 202.02 80.724 202.02Z" fill="white"/>
<path d="M80.724 202.02C43.9433 202.02 3.04532 185.002 0.0260073 132.575C-0.248476 129.282 1.67291 127.36 4.69222 127.36H63.9806C67.5489 127.36 69.7447 129.556 69.7447 132.575C70.0192 139.437 72.764 144.653 80.9985 144.653C86.4882 144.653 89.5075 140.81 89.782 136.418C89.5075 124.89 75.7834 124.341 54.0992 120.498C24.7295 115.283 0.574974 99.3629 0.849457 63.1311C0.574974 23.88 34.0619 0 76.8813 0C106.8 0 150.717 13.7242 152.913 64.2291C152.913 67.5229 150.992 69.4442 147.972 69.4442H92.8013C89.5075 69.4442 87.8606 67.5229 87.5861 64.5035C87.3116 59.5629 85.9392 53.7987 77.9792 53.7987C73.5875 53.7987 70.5682 56.5435 70.5682 60.9353C70.5682 71.0911 84.2923 71.0911 105.702 76.3063C135.346 83.4429 159.226 99.9119 159.501 136.418C159.775 181.433 122.445 202.02 80.724 202.02Z" fill="#000000"/>
<path d="M276.782 202.843C216.121 202.843 172.753 156.73 172.753 101.833C172.753 46.9366 216.121 1.09793 276.782 1.09793C337.169 1.09793 380.811 46.9366 380.811 101.833C380.811 156.73 337.169 202.843 276.782 202.843ZM276.782 128.184C292.702 128.184 304.505 116.106 304.505 101.833C304.505 87.5601 292.702 75.4829 276.782 75.4829C260.862 75.4829 249.059 87.5601 249.059 101.833C249.059 116.106 260.862 128.184 276.782 128.184Z" fill="white"/>
<path d="M276.782 202.843C216.121 202.843 172.753 156.73 172.753 101.833C172.753 46.9366 216.121 1.09793 276.782 1.09793C337.169 1.09793 380.811 46.9366 380.811 101.833C380.811 156.73 337.169 202.843 276.782 202.843ZM276.782 128.184C292.702 128.184 304.505 116.106 304.505 101.833C304.505 87.5601 292.702 75.4829 276.782 75.4829C260.862 75.4829 249.059 87.5601 249.059 101.833C249.059 116.106 260.862 128.184 276.782 128.184Z" fill="#000000"/>
<path d="M481.041 201.745C435.202 201.745 398.696 178.689 398.696 130.38V10.9793C398.696 7.96002 400.617 6.03863 403.636 6.03863H467.316C470.336 6.03863 472.257 7.96002 472.257 10.9793V131.203C472.257 138.065 475.276 141.633 482.138 141.633C488.726 141.633 491.745 138.065 491.745 131.203V10.9793C491.745 7.96002 493.667 6.03863 496.686 6.03863H558.17C561.19 6.03863 563.111 7.96002 563.111 10.9793V130.654C563.111 178.963 529.075 201.745 481.041 201.745Z" fill="white"/>
<path d="M481.041 201.745C435.202 201.745 398.696 178.689 398.696 130.38V10.9793C398.696 7.96002 400.617 6.03863 403.636 6.03863H467.316C470.336 6.03863 472.257 7.96002 472.257 10.9793V131.203C472.257 138.065 475.276 141.633 482.138 141.633C488.726 141.633 491.745 138.065 491.745 131.203V10.9793C491.745 7.96002 493.667 6.03863 496.686 6.03863H558.17C561.19 6.03863 563.111 7.96002 563.111 10.9793V130.654C563.111 178.963 529.075 201.745 481.041 201.745Z" fill="#000000"/>
<path d="M772.685 5.43588V103.336H754.328V86.2035C754.328 70.6007 747.904 63.8701 726.182 63.8701H709.967V121.386C709.967 138.519 710.273 139.437 740.561 139.437V198.177H615.433V139.437C645.109 139.437 645.415 138.519 645.415 121.386V63.8701H629.506C607.784 63.8701 601.359 70.6007 601.359 86.2035V103.336H583.003V5.43588H772.685Z" fill="white"/>
<path d="M772.685 5.43588V103.336H754.328V86.2035C754.328 70.6007 747.904 63.8701 726.182 63.8701H709.967V121.386C709.967 138.519 710.273 139.437 740.561 139.437V198.177H615.433V139.437C645.109 139.437 645.415 138.519 645.415 121.386V63.8701H629.506C607.784 63.8701 601.359 70.6007 601.359 86.2035V103.336H583.003V5.43588H772.685Z" fill="#000000"/>
<path d="M892.293 198.177C889.274 198.177 887.352 196.255 887.352 193.236V126.537H867.041V193.236C867.041 196.255 865.119 198.177 862.1 198.177H798.969C795.949 198.177 794.028 196.255 794.028 193.236V10.9793C794.028 7.96002 795.949 6.03863 798.969 6.03863H862.1C865.119 6.03863 867.041 7.96002 867.041 10.9793V74.6594H887.352V10.9793C887.352 7.96002 889.274 6.03863 892.293 6.03863H955.424C958.443 6.03863 960.365 7.96002 960.365 10.9793V193.236C960.365 196.255 958.443 198.177 955.424 198.177H892.293Z" fill="white"/>
<path d="M892.293 198.177C889.274 198.177 887.352 196.255 887.352 193.236V126.537H867.041V193.236C867.041 196.255 865.119 198.177 862.1 198.177H798.969C795.949 198.177 794.028 196.255 794.028 193.236V10.9793C794.028 7.96002 795.949 6.03863 798.969 6.03863H862.1C865.119 6.03863 867.041 7.96002 867.041 10.9793V74.6594H887.352V10.9793C887.352 7.96002 889.274 6.03863 892.293 6.03863H955.424C958.443 6.03863 960.365 7.96002 960.365 10.9793V193.236C960.365 196.255 958.443 198.177 955.424 198.177H892.293Z" fill="#000000"/>
<path d="M1046.64 198.177C1043.62 198.177 1041.7 196.255 1041.7 193.236V10.9793C1041.7 7.96002 1043.62 6.03863 1046.64 6.03863H1129.8C1175.64 6.03863 1219.29 44.4663 1219.29 101.01C1219.29 157.279 1175.64 198.177 1129.8 198.177H1046.64ZM1124.59 129.831C1138.31 129.831 1149.02 118.302 1149.02 101.01C1149.02 83.4429 1138.31 74.1105 1124.59 74.1105H1113.61V129.831H1124.59Z" fill="white"/>
<path d="M1046.64 198.177C1043.62 198.177 1041.7 196.255 1041.7 193.236V10.9793C1041.7 7.96002 1043.62 6.03863 1046.64 6.03863H1129.8C1175.64 6.03863 1219.29 44.4663 1219.29 101.01C1219.29 157.279 1175.64 198.177 1129.8 198.177H1046.64ZM1124.59 129.831C1138.31 129.831 1149.02 118.302 1149.02 101.01C1149.02 83.4429 1138.31 74.1105 1124.59 74.1105H1113.61V129.831H1124.59Z" fill="#000000"/>
<path d="M1230.01 198.177V197.565C1239.49 185.022 1250.2 152.899 1260.6 118.329C1244.39 112.516 1233.38 105.786 1233.38 92.0191C1233.38 83.759 1238.27 76.4167 1248.67 76.4167C1257.24 76.4167 1263.97 82.5353 1263.97 91.7132C1263.97 101.197 1259.07 107.316 1248.67 107.316C1244.39 107.316 1240.41 105.786 1237.96 103.644C1242.86 109.151 1252.34 110.987 1262.74 111.293C1269.78 86.5124 1276.82 61.1202 1282.63 40.6229C1285.08 32.6687 1286.61 26.2442 1286.61 21.0434C1286.61 13.0892 1282.94 8.50024 1274.06 6.05279V5.44092H1375.63V6.05279C1369.21 7.58244 1365.23 13.3951 1365.23 24.7145C1365.23 31.1391 1366.45 39.0932 1368.9 49.1889C1378.08 85.9005 1388.79 122.306 1401.03 158.406C1407.14 176.762 1412.34 189.611 1419.07 197.565V198.177H1337.39V197.565C1349.32 194.506 1353.91 188.081 1353.91 177.68C1353.91 173.091 1352.99 167.89 1351.46 161.465C1349.02 150.452 1324.24 140.662 1297.31 131.484C1294.87 140.968 1292.42 151.064 1289.67 161.465C1288.44 167.584 1287.53 172.785 1287.53 177.374C1287.53 188.081 1291.81 194.2 1303.74 197.565V198.177H1230.01ZM1303.13 110.375C1321.48 111.905 1339.23 121.694 1352.38 158.1H1352.99C1342.9 118.329 1334.33 79.1701 1324.54 45.8237H1323.32C1316.89 64.4854 1310.16 85.9005 1303.13 110.375Z" fill="white"/>
<path d="M1230.01 198.177V197.565C1239.49 185.022 1250.2 152.899 1260.6 118.329C1244.39 112.516 1233.38 105.786 1233.38 92.0191C1233.38 83.759 1238.27 76.4167 1248.67 76.4167C1257.24 76.4167 1263.97 82.5353 1263.97 91.7132C1263.97 101.197 1259.07 107.316 1248.67 107.316C1244.39 107.316 1240.41 105.786 1237.96 103.644C1242.86 109.151 1252.34 110.987 1262.74 111.293C1269.78 86.5124 1276.82 61.1202 1282.63 40.6229C1285.08 32.6687 1286.61 26.2442 1286.61 21.0434C1286.61 13.0892 1282.94 8.50024 1274.06 6.05279V5.44092H1375.63V6.05279C1369.21 7.58244 1365.23 13.3951 1365.23 24.7145C1365.23 31.1391 1366.45 39.0932 1368.9 49.1889C1378.08 85.9005 1388.79 122.306 1401.03 158.406C1407.14 176.762 1412.34 189.611 1419.07 197.565V198.177H1337.39V197.565C1349.32 194.506 1353.91 188.081 1353.91 177.68C1353.91 173.091 1352.99 167.89 1351.46 161.465C1349.02 150.452 1324.24 140.662 1297.31 131.484C1294.87 140.968 1292.42 151.064 1289.67 161.465C1288.44 167.584 1287.53 172.785 1287.53 177.374C1287.53 188.081 1291.81 194.2 1303.74 197.565V198.177H1230.01ZM1303.13 110.375C1321.48 111.905 1339.23 121.694 1352.38 158.1H1352.99C1342.9 118.329 1334.33 79.1701 1324.54 45.8237H1323.32C1316.89 64.4854 1310.16 85.9005 1303.13 110.375Z" fill="#000000"/>
<path d="M1432.93 198.177C1429.91 198.177 1427.98 196.255 1427.98 193.236V10.9793C1427.98 7.96002 1429.91 6.03863 1432.93 6.03863H1494.96C1497.98 6.03863 1499.9 7.96002 1499.9 10.9793V30.7421C1499.9 42.2704 1499.35 52.1518 1498.53 63.9546L1500.72 64.2291C1503.74 55.1711 1510.33 38.9766 1514.45 30.7421L1524.88 9.60692C1525.98 7.13657 1527.9 6.03863 1530.64 6.03863H1595.14C1598.99 6.03863 1600.36 8.2345 1598.44 11.8028L1562.21 78.7767L1609.14 192.413C1610.52 195.706 1608.87 198.177 1605.3 198.177H1538.33C1535.58 198.177 1533.94 196.804 1532.84 194.334L1507.58 127.36L1500.17 138.065L1500.72 193.236C1500.72 196.255 1498.8 198.177 1495.78 198.177H1432.93Z" fill="white"/>
<path d="M1432.93 198.177C1429.91 198.177 1427.98 196.255 1427.98 193.236V10.9793C1427.98 7.96002 1429.91 6.03863 1432.93 6.03863H1494.96C1497.98 6.03863 1499.9 7.96002 1499.9 10.9793V30.7421C1499.9 42.2704 1499.35 52.1518 1498.53 63.9546L1500.72 64.2291C1503.74 55.1711 1510.33 38.9766 1514.45 30.7421L1524.88 9.60692C1525.98 7.13657 1527.9 6.03863 1530.64 6.03863H1595.14C1598.99 6.03863 1600.36 8.2345 1598.44 11.8028L1562.21 78.7767L1609.14 192.413C1610.52 195.706 1608.87 198.177 1605.3 198.177H1538.33C1535.58 198.177 1533.94 196.804 1532.84 194.334L1507.58 127.36L1500.17 138.065L1500.72 193.236C1500.72 196.255 1498.8 198.177 1495.78 198.177H1432.93Z" fill="#000000"/>
<path d="M1705.17 202.843C1644.51 202.843 1601.14 156.73 1601.14 101.833C1601.14 46.9366 1644.51 1.09793 1705.17 1.09793C1765.55 1.09793 1809.2 46.9366 1809.2 101.833C1809.2 156.73 1765.55 202.843 1705.17 202.843ZM1705.17 128.184C1721.09 128.184 1732.89 116.106 1732.89 101.833C1732.89 87.5601 1721.09 75.4829 1705.17 75.4829C1689.25 75.4829 1677.44 87.5601 1677.44 101.833C1677.44 116.106 1689.25 128.184 1705.17 128.184Z" fill="white"/>
<path d="M1705.17 202.843C1644.51 202.843 1601.14 156.73 1601.14 101.833C1601.14 46.9366 1644.51 1.09793 1705.17 1.09793C1765.55 1.09793 1809.2 46.9366 1809.2 101.833C1809.2 156.73 1765.55 202.843 1705.17 202.843ZM1705.17 128.184C1721.09 128.184 1732.89 116.106 1732.89 101.833C1732.89 87.5601 1721.09 75.4829 1705.17 75.4829C1689.25 75.4829 1677.44 87.5601 1677.44 101.833C1677.44 116.106 1689.25 128.184 1705.17 128.184Z" fill="#000000"/>
<path d="M1862.89 198.177C1859.87 198.177 1857.95 196.255 1857.95 193.236V71.9146H1822.54C1819.52 71.9146 1817.6 69.9932 1817.6 66.9739V10.9793C1817.6 7.96002 1819.52 6.03863 1822.54 6.03863H1966.09C1969.11 6.03863 1971.03 7.96002 1971.03 10.9793V66.9739C1971.03 69.9932 1969.11 71.9146 1966.09 71.9146H1930.41V193.236C1930.41 196.255 1928.49 198.177 1925.47 198.177H1862.89Z" fill="white"/>
<path d="M1862.89 198.177C1859.87 198.177 1857.95 196.255 1857.95 193.236V71.9146H1822.54C1819.52 71.9146 1817.6 69.9932 1817.6 66.9739V10.9793C1817.6 7.96002 1819.52 6.03863 1822.54 6.03863H1966.09C1969.11 6.03863 1971.03 7.96002 1971.03 10.9793V66.9739C1971.03 69.9932 1969.11 71.9146 1966.09 71.9146H1930.41V193.236C1930.41 196.255 1928.49 198.177 1925.47 198.177H1862.89Z" fill="#000000"/>
<path d="M1963.03 198.177C1959.73 198.177 1957.81 196.255 1958.64 192.687L2005.85 10.1559C2006.67 7.13657 2008.32 6.03863 2011.34 6.03863H2098.07C2101.09 6.03863 2102.74 7.13657 2103.56 10.1559L2150.5 192.687C2151.32 196.255 2149.4 198.177 2146.11 198.177H2079.41C2076.39 198.177 2074.74 196.53 2074.19 193.785L2068.43 166.886H2040.43L2034.67 193.785C2034.12 196.53 2032.47 198.177 2029.45 198.177H1963.03ZM2045.1 121.596H2063.76L2057.18 84.2663L2055.8 73.0125H2053.06L2051.69 84.2663L2045.1 121.596Z" fill="white"/>
<path d="M1963.03 198.177C1959.73 198.177 1957.81 196.255 1958.64 192.687L2005.85 10.1559C2006.67 7.13657 2008.32 6.03863 2011.34 6.03863H2098.07C2101.09 6.03863 2102.74 7.13657 2103.56 10.1559L2150.5 192.687C2151.32 196.255 2149.4 198.177 2146.11 198.177H2079.41C2076.39 198.177 2074.74 196.53 2074.19 193.785L2068.43 166.886H2040.43L2034.67 193.785C2034.12 196.53 2032.47 198.177 2029.45 198.177H1963.03ZM2045.1 121.596H2063.76L2057.18 84.2663L2055.8 73.0125H2053.06L2051.69 84.2663L2045.1 121.596Z" fill="#000000"/>
</svg>
