<svg width="859" height="203" viewBox="0 0 859 203" fill="none" xmlns="http://www.w3.org/2000/svg">
<path d="M45.2897 198.177C42.2704 198.177 40.349 196.255 40.349 193.236V71.9146H4.9407C1.92138 71.9146 0 69.9932 0 66.9739V10.9793C0 7.96002 1.92138 6.03863 4.9407 6.03863H148.495C151.515 6.03863 153.436 7.96002 153.436 10.9793V66.9739C153.436 69.9932 151.515 71.9146 148.495 71.9146H112.813V193.236C112.813 196.255 110.891 198.177 107.872 198.177H45.2897Z" fill="white"/>
<path d="M45.2897 198.177C42.2704 198.177 40.349 196.255 40.349 193.236V71.9146H4.9407C1.92138 71.9146 0 69.9932 0 66.9739V10.9793C0 7.96002 1.92138 6.03863 4.9407 6.03863H148.495C151.515 6.03863 153.436 7.96002 153.436 10.9793V66.9739C153.436 69.9932 151.515 71.9146 148.495 71.9146H112.813V193.236C112.813 196.255 110.891 198.177 107.872 198.177H45.2897Z" fill="#000000"/>
<path d="M176.744 198.177C173.724 198.177 171.803 196.255 171.803 193.236V10.9793C171.803 7.96002 173.724 6.03863 176.744 6.03863H299.986C303.006 6.03863 304.927 7.96002 304.927 10.9793V64.2291C304.927 67.2484 303.006 69.1698 299.986 69.1698H243.443V80.698H280.773C283.792 80.698 285.713 82.6194 285.713 85.6387V118.851C285.713 121.871 283.792 123.792 280.773 123.792H243.443V136.144H301.084C304.104 136.144 306.025 138.065 306.025 141.084V193.236C306.025 196.255 304.104 198.177 301.084 198.177H176.744Z" fill="white"/>
<path d="M176.744 198.177C173.724 198.177 171.803 196.255 171.803 193.236V10.9793C171.803 7.96002 173.724 6.03863 176.744 6.03863H299.986C303.006 6.03863 304.927 7.96002 304.927 10.9793V64.2291C304.927 67.2484 303.006 69.1698 299.986 69.1698H243.443V80.698H280.773C283.792 80.698 285.713 82.6194 285.713 85.6387V118.851C285.713 121.871 283.792 123.792 280.773 123.792H243.443V136.144H301.084C304.104 136.144 306.025 138.065 306.025 141.084V193.236C306.025 196.255 304.104 198.177 301.084 198.177H176.744Z" fill="#000000"/>
<path d="M426.718 198.177V197.565C430.185 193.486 431.918 188.489 431.918 182.574C431.918 179.719 431.408 176.558 430.389 173.091C429.573 169.419 428.043 165.646 425.8 161.771C422.74 156.264 419.579 150.758 416.316 145.251C413.257 139.744 410.197 134.237 407.138 128.731C404.283 134.645 401.529 140.458 398.878 146.169C396.227 151.675 393.575 156.978 390.924 162.077C389.7 164.525 388.782 166.87 388.17 169.113C387.762 171.153 387.558 173.091 387.558 174.926C387.558 180.025 388.884 184.41 391.536 188.081C394.187 191.752 396.634 194.914 398.878 197.565V198.177H323.619V197.565C326.271 194.506 328.514 191.65 330.35 188.999C332.185 186.348 334.225 182.982 336.468 178.903C338.712 174.824 341.669 169.215 345.34 162.077C352.071 149.432 358.699 136.889 365.226 124.448C371.956 112.007 378.585 99.5654 385.111 87.1242C382.46 82.0254 380.012 77.3345 377.769 73.0515C375.525 68.5645 373.588 64.8933 371.956 62.038C368.693 55.9194 365.532 51.7383 362.472 49.4948C359.617 47.0474 355.232 45.8237 349.317 45.8237C340.547 45.8237 333.919 48.781 329.432 54.6957C325.149 60.6103 323.007 67.6467 323.007 75.8048C323.007 76.4167 323.007 77.1305 323.007 77.9463C323.007 78.5582 323.007 79.1701 323.007 79.7819C323.619 72.2356 326.372 66.423 331.267 62.3439C336.162 58.0609 341.669 55.9194 347.788 55.9194C353.906 55.9194 359.005 57.9589 363.084 62.038C367.367 65.9131 369.509 71.2159 369.509 77.9463C369.509 84.2689 367.367 89.8776 363.084 94.7725C359.005 99.4634 353.396 101.809 346.258 101.809C342.791 101.809 338.916 100.891 334.633 99.0555C330.554 97.016 326.984 93.0389 323.925 87.1242C321.07 81.2096 319.642 72.4396 319.642 60.8143C319.642 44.702 323.313 31.445 330.655 21.0434C338.202 10.6417 350.541 5.44092 367.673 5.44092H405.914V6.05279C404.079 7.48046 402.753 9.41801 401.937 11.8655C401.121 14.3129 400.713 16.9643 400.713 19.8196C400.713 25.7343 402.039 31.6489 404.691 37.5636C406.73 42.4585 408.974 47.3533 411.421 52.2482C413.868 56.9391 416.316 61.4261 418.763 65.7091L430.083 42.1525C431.714 39.0932 432.734 36.2379 433.142 33.5865C433.754 30.9351 434.06 28.4877 434.06 26.2442C434.06 21.9612 433.346 18.188 431.918 14.9248C430.491 11.6615 429.165 8.70419 427.941 6.05279V5.44092H494.634V6.05279C492.594 9.31604 490.249 13.4971 487.598 18.5959C485.15 23.4908 481.071 31.343 475.36 42.1525L442.626 103.644C448.133 113.434 453.639 123.224 459.146 133.014C464.857 142.6 470.567 152.185 476.278 161.771C480.765 169.317 484.844 175.844 488.515 181.351C492.187 186.857 496.674 192.262 501.976 197.565V198.177H426.718Z" fill="white"/>
<path d="M426.718 198.177V197.565C430.185 193.486 431.918 188.489 431.918 182.574C431.918 179.719 431.408 176.558 430.389 173.091C429.573 169.419 428.043 165.646 425.8 161.771C422.74 156.264 419.579 150.758 416.316 145.251C413.257 139.744 410.197 134.237 407.138 128.731C404.283 134.645 401.529 140.458 398.878 146.169C396.227 151.675 393.575 156.978 390.924 162.077C389.7 164.525 388.782 166.87 388.17 169.113C387.762 171.153 387.558 173.091 387.558 174.926C387.558 180.025 388.884 184.41 391.536 188.081C394.187 191.752 396.634 194.914 398.878 197.565V198.177H323.619V197.565C326.271 194.506 328.514 191.65 330.35 188.999C332.185 186.348 334.225 182.982 336.468 178.903C338.712 174.824 341.669 169.215 345.34 162.077C352.071 149.432 358.699 136.889 365.226 124.448C371.956 112.007 378.585 99.5654 385.111 87.1242C382.46 82.0254 380.012 77.3345 377.769 73.0515C375.525 68.5645 373.588 64.8933 371.956 62.038C368.693 55.9194 365.532 51.7383 362.472 49.4948C359.617 47.0474 355.232 45.8237 349.317 45.8237C340.547 45.8237 333.919 48.781 329.432 54.6957C325.149 60.6103 323.007 67.6467 323.007 75.8048C323.007 76.4167 323.007 77.1305 323.007 77.9463C323.007 78.5582 323.007 79.1701 323.007 79.7819C323.619 72.2356 326.372 66.423 331.267 62.3439C336.162 58.0609 341.669 55.9194 347.788 55.9194C353.906 55.9194 359.005 57.9589 363.084 62.038C367.367 65.9131 369.509 71.2159 369.509 77.9463C369.509 84.2689 367.367 89.8776 363.084 94.7725C359.005 99.4634 353.396 101.809 346.258 101.809C342.791 101.809 338.916 100.891 334.633 99.0555C330.554 97.016 326.984 93.0389 323.925 87.1242C321.07 81.2096 319.642 72.4396 319.642 60.8143C319.642 44.702 323.313 31.445 330.655 21.0434C338.202 10.6417 350.541 5.44092 367.673 5.44092H405.914V6.05279C404.079 7.48046 402.753 9.41801 401.937 11.8655C401.121 14.3129 400.713 16.9643 400.713 19.8196C400.713 25.7343 402.039 31.6489 404.691 37.5636C406.73 42.4585 408.974 47.3533 411.421 52.2482C413.868 56.9391 416.316 61.4261 418.763 65.7091L430.083 42.1525C431.714 39.0932 432.734 36.2379 433.142 33.5865C433.754 30.9351 434.06 28.4877 434.06 26.2442C434.06 21.9612 433.346 18.188 431.918 14.9248C430.491 11.6615 429.165 8.70419 427.941 6.05279V5.44092H494.634V6.05279C492.594 9.31604 490.249 13.4971 487.598 18.5959C485.15 23.4908 481.071 31.343 475.36 42.1525L442.626 103.644C448.133 113.434 453.639 123.224 459.146 133.014C464.857 142.6 470.567 152.185 476.278 161.771C480.765 169.317 484.844 175.844 488.515 181.351C492.187 186.857 496.674 192.262 501.976 197.565V198.177H426.718Z" fill="#000000"/>
<path d="M507.847 198.177C504.553 198.177 502.632 196.255 503.455 192.687L550.666 10.1559C551.49 7.13657 553.137 6.03863 556.156 6.03863H642.893C645.912 6.03863 647.559 7.13657 648.382 10.1559L695.319 192.687C696.143 196.255 694.221 198.177 690.927 198.177H624.228C621.209 198.177 619.562 196.53 619.013 193.785L613.249 166.886H585.251L579.487 193.785C578.938 196.53 577.291 198.177 574.272 198.177H507.847ZM589.918 121.596H608.582L601.995 84.2663L600.622 73.0125H597.878L596.505 84.2663L589.918 121.596Z" fill="white"/>
<path d="M507.847 198.177C504.553 198.177 502.632 196.255 503.455 192.687L550.666 10.1559C551.49 7.13657 553.137 6.03863 556.156 6.03863H642.893C645.912 6.03863 647.559 7.13657 648.382 10.1559L695.319 192.687C696.143 196.255 694.221 198.177 690.927 198.177H624.228C621.209 198.177 619.562 196.53 619.013 193.785L613.249 166.886H585.251L579.487 193.785C578.938 196.53 577.291 198.177 574.272 198.177H507.847ZM589.918 121.596H608.582L601.995 84.2663L600.622 73.0125H597.878L596.505 84.2663L589.918 121.596Z" fill="#000000"/>
<path d="M779.251 202.02C742.47 202.02 701.572 185.002 698.553 132.575C698.278 129.282 700.2 127.36 703.219 127.36H762.507C766.076 127.36 768.272 129.556 768.272 132.575C768.546 139.437 771.291 144.653 779.525 144.653C785.015 144.653 788.034 140.81 788.309 136.418C788.034 124.89 774.31 124.341 752.626 120.498C723.256 115.283 699.102 99.3629 699.376 63.1311C699.102 23.88 732.589 0 775.408 0C805.327 0 849.244 13.7242 851.44 64.2291C851.44 67.5229 849.519 69.4442 846.499 69.4442H791.328C788.034 69.4442 786.387 67.5229 786.113 64.5035C785.838 59.5629 784.466 53.7987 776.506 53.7987C772.114 53.7987 769.095 56.5435 769.095 60.9353C769.095 71.0911 782.819 71.0911 804.229 76.3063C833.873 83.4429 857.753 99.9119 858.028 136.418C858.302 181.433 820.972 202.02 779.251 202.02Z" fill="white"/>
<path d="M779.251 202.02C742.47 202.02 701.572 185.002 698.553 132.575C698.278 129.282 700.2 127.36 703.219 127.36H762.507C766.076 127.36 768.272 129.556 768.272 132.575C768.546 139.437 771.291 144.653 779.525 144.653C785.015 144.653 788.034 140.81 788.309 136.418C788.034 124.89 774.31 124.341 752.626 120.498C723.256 115.283 699.102 99.3629 699.376 63.1311C699.102 23.88 732.589 0 775.408 0C805.327 0 849.244 13.7242 851.44 64.2291C851.44 67.5229 849.519 69.4442 846.499 69.4442H791.328C788.034 69.4442 786.387 67.5229 786.113 64.5035C785.838 59.5629 784.466 53.7987 776.506 53.7987C772.114 53.7987 769.095 56.5435 769.095 60.9353C769.095 71.0911 782.819 71.0911 804.229 76.3063C833.873 83.4429 857.753 99.9119 858.028 136.418C858.302 181.433 820.972 202.02 779.251 202.02Z" fill="#000000"/>
</svg>
